<svg xmlns="http://www.w3.org/2000/svg" width="47.15" height="200" viewBox="0 0 47.15 200"><title>_</title><path d="M5.9 81.48l.1 1.45 24.34-13.15a10 10 0 0 0-2-.05l-13.18 1A10 10 0 0 0 5.9 81.48z" fill="#00a8de" opacity=".9"/><path d="M5.22 89.38l32.43-13.14a10.06 10.06 0 0 0-6.53-5.19L5.49 81.43z" fill="#0070b4" opacity=".9"/><path d="M5.35 97.41l-.22 7.94 33.62-13.87.25-7.94V81a9.91 9.91 0 0 0-1.12-4.86L5.57 89.47z" fill="#333391" opacity=".9"/><path fill="#932b8d" opacity=".9" d="M5.9 114.28l32.74-15.83-.25-7.94-32.74 15.83.25 7.94z"/><path fill="#e91388" opacity=".9" d="M5.8 122.28l.27 7.94 32.7-15.92-.27-7.94-.27-7.94-32.7 15.92.27 7.94z"/><path fill="#ea245f" opacity=".9" d="M4.87 136.56l34.07-12.71.49-7.93-34.07 12.71-.49 7.93z"/><path fill="#eb2d2e" opacity=".9" d="M6.45 147.33l.86 7.9 31.41-18.33-.87-7.9-.87-7.9-31.4 18.33.87 7.9z"/><path fill="#f19432" opacity=".9" d="M4.42 159.63l34.61-11.18.84-7.91-34.6 11.18-.85 7.91z"/><path d="M5.07 168.3l-.17 2.55a9.91 9.91 0 0 0 .94 4.9l32.83-12.11.52-7.93.52-7.93-34.12 12.59z" fill="#fde92b" opacity=".9"/><path d="M13.94 182.16l24.73-12.38-.36-7.94L7 177.51a10.06 10.06 0 0 0 6.94 4.65z" fill="#91be4a" opacity=".9"/><path d="M15.49 181.87l13.22.13a10 10 0 0 0 10.09-9.91v-1.46l-25.36 11a10 10 0 0 0 2.05.24z" fill="#009e54" opacity=".9"/></svg>