<svg xmlns="http://www.w3.org/2000/svg" width="55.57" height="200" viewBox="0 0 55.57 200"><title>_</title><path d="M8.67 44.26l.07 1.11L33 32.75l-15 .92a10 10 0 0 0-9.33 10.59z" fill="#00a8de" opacity=".9"/><path d="M9.26 53.64l32-17.75a10 10 0 0 0-8.15-3.13l-.61.05L8.59 46.07z" fill="#0070b4" opacity=".9"/><path d="M8 61.85c-.06 1.4-.09 3-.1 4.75l36.05-14.27.34-8.06A9.93 9.93 0 0 0 42.4 38l-34 13.45z" fill="#333391" opacity=".9"/><path d="M8.78 74.65L44 59.3v-7.59L8.44 67.23c.07 2.37.19 4.94.34 7.42z" fill="#932b8d" opacity=".9"/><path d="M10 83.29L11.08 90l32.38-16.2c.09-4.23.08-8.68-.07-11.92l-.16-3.48L8.91 75.57c.33 2.84.69 5.56 1.09 7.72z" fill="#e91388" opacity=".9"/><path d="M10.44 95.24L43 83.74c.43-2.2.89-5 1.31-7.83L10.14 88z" fill="#ea245f" opacity=".9"/><path d="M13.4 111.32l27.53-13.19 1.43-16v-.08l-31.1 14.9z" fill="#eb2d2e" opacity=".9"/><path fill="#f19432" opacity=".9" d="M14.19 118.57l25.68-12.46.68-8.04-27.46 13.32 1.1 7.18z"/><path d="M15.1 131.76v.37L37.93 123l2.48-16-26.48 10.66z" fill="#fde92b" opacity=".9"/><path d="M19.33 139.3l17.74-9.41.39-8.06-21.69 11.5a11.52 11.52 0 0 0 3.56 5.97z" fill="#91be4a" opacity=".9"/><path d="M26.55 142.2c5.22-.27 9.78-5 10.14-10.46l.11-1.6-17.91 9.1a10.59 10.59 0 0 0 7.66 2.96z" fill="#009e54" opacity=".9"/><path d="M18.87 148.59a10 10 0 0 0-8.72 6.41L23 148.35z" fill="#00a8de" opacity=".9"/><path d="M10 155.07a9.88 9.88 0 0 0-.7 3.18l19.76-10-6.2.31z" fill="#0070b4" opacity=".9"/><path d="M9 158.59v4.56l29.5-12.78a9.9 9.9 0 0 0-5.17-1.53h-3.91L9.09 157.6c-.04.32-.09.65-.09.99z" fill="#333391" opacity=".9"/><path d="M9.09 166.14l31.49-14.21a10.1 10.1 0 0 0-2.18-1.78L9.08 163.38v2.76z" fill="#932b8d" opacity=".9"/><path d="M8.85 168.32l-.08 2.76L43.13 157a10 10 0 0 0-2.24-4.54l-32 13.12z" fill="#e91388" opacity=".9"/><path d="M8.59 170.62a9.91 9.91 0 0 0 .09 2.28l35-12.43v-.38a9.91 9.91 0 0 0-.09-2.28l-35 12.43z" fill="#ea245f" opacity=".9"/><path d="M12.42 179.7l30.49-16.25-.2-2.75-.2-2.75-32.77 17.46a10 10 0 0 0 2.68 4.29z" fill="#eb2d2e" opacity=".9"/><path d="M14.82 181.94l27.77-16.24-.31-2.7-29.82 17.4a10.1 10.1 0 0 0 2.36 1.54z" fill="#f19432" opacity=".9"/><path d="M18.31 180.88l3.88.43 21.11-6.75c.07-.32.12-.65.16-1l.2-1.79.3-2.75-30.64 9.79a9.9 9.9 0 0 0 4.99 2.07z" fill="#fde92b" opacity=".9"/><path d="M29.21 182l13.12-6a9.88 9.88 0 0 0 .83-3.15L23 182.06z" fill="#91be4a" opacity=".9"/><path d="M33.55 182.19a10 10 0 0 0 8.45-6.72l-12.54 7.13z" fill="#009e54" opacity=".9"/></svg>