<svg xmlns="http://www.w3.org/2000/svg" width="124" height="200" viewBox="0 0 124 200"><title>_</title><path d="M47.13 47.49L46 52.9l24.79-12.73a7.49 7.49 0 0 0-7-3.27l-4.59.25a13.82 13.82 0 0 0-12.07 10.34z" fill="#00a8de" opacity=".9"/><path d="M42.15 62.87l28.38-11.48 1.24-4a7.93 7.93 0 0 0-.36-6L45.55 51.81zM99.43 37.09l-4.59.08a13.9 13.9 0 0 0-11.94 8.42l18-8.4a9.59 9.59 0 0 0-1.47-.1z" fill="#0070b4" opacity=".9"/><path d="M41.27 67.1a13.78 13.78 0 0 1-12.06 10.26 13.75 13.75 0 0 0-12 10.27l-.43 2a7.92 7.92 0 0 0 1 6.2l47.86-24.21a14.47 14.47 0 0 1 .2-5.74l3.54-16.28-27.31 13.82zM106.19 45.26c.75-4.92-2.29-8.61-6.92-8.82L82.1 46.49a10.94 10.94 0 0 0-.35 1.51l-3.13 20.59c0 .28-.1.56-.15.84L104.87 54z" fill="#333391" opacity=".9"/><path d="M21.76 95a8.14 8.14 0 0 1 4.57 1.74l76-26.92 3.86-10.89-28.8 10.19c-1.94 4.79-5.61 8.43-8.42 8.2-1.77-.14-2.8-1.78-3-4.18L15.42 91.06A7.46 7.46 0 0 0 21.76 95z" fill="#932b8d" opacity=".9"/><path d="M30.91 108.6l-1 4.34A13.75 13.75 0 0 1 17.71 123c-4.68.15-9.38 3.53-11.39 7.89l49.4-24c1.41-5 4.67-9 7.48-9 1.76-.06 3 1.43 3.41 3.76l48.23-23.39a7.47 7.47 0 0 0-6.72-3.16c-5.46.18-8.9-4.06-7.65-9.41l.11-.47L28 100.41c2.52 1.59 3.74 4.65 2.91 8.19z" fill="#e91388" opacity=".9"/><path d="M66.64 102.45a14.34 14.34 0 0 1-.31 5.8l-1 4.32c0 .18-.1.36-.14.54l49.72-23.63a11.12 11.12 0 0 0 .6-1.77l.48-2a7.9 7.9 0 0 0-.88-6.26zM53.76 118.68a14.59 14.59 0 0 1 .78-5.49l1.38-4.24c.09-.28.19-.56.3-.84L5 127.87a11.3 11.3 0 0 0-.94 2.1l-.63 2a8 8 0 0 0 .26 6.03z" fill="#ea245f" opacity=".9"/><path d="M65.47 112.92c-1.95 4.92-5.75 8.67-8.63 8.42-1.83-.16-2.87-1.89-3-4.4L3.15 134.48a7.36 7.36 0 0 0 6.37 4.18c5.4.47 8.28 5.07 6.4 10.24l-.07.19 76-26.29c-2.12-1.91-2.88-5-1.68-8.28l1.52-4.18a13.74 13.74 0 0 1 13.3-8.55c4.83.42 10.07-2.57 12.5-6.86z" fill="#eb2d2e" opacity=".9"/><path d="M16.15 165.43L43.71 152c1.44-4.85 4.65-8.72 7.44-8.82 1.72-.06 2.93 1.33 3.41 3.53l48.12-23.45a7.53 7.53 0 0 0-6.59-3 8.09 8.09 0 0 1-5-1.38l-72.3 35.24z" fill="#f19432" opacity=".9"/><path d="M13.53 173.34c-1 5 2 8.82 6.76 9.11l17.32-9.2a11 11 0 0 0 .46-1.62l4-20.08c.07-.38.16-.75.26-1.12L15.2 164.81zM53.66 151.08l-5.19 15.4 28.65-10.64 1.08-3.2a13.75 13.75 0 0 1 13.11-8.85 13.74 13.74 0 0 0 13.11-8.85l.66-2a7.83 7.83 0 0 0-.45-6.52L54.45 145.1a14 14 0 0 1-.79 5.98z" fill="#fde92b" opacity=".9"/><path d="M20.42 181.82l4.6.08a13.94 13.94 0 0 0 12.18-7.85l-18.06 7.65a9.7 9.7 0 0 0 1.28.12zM48.81 172.6a7.94 7.94 0 0 0 .71 6l25.19-11.86 2.76-11.22-27.65 13z" fill="#91be4a" opacity=".9"/><path d="M57 182.57l4.56-.51a13.79 13.79 0 0 0 11.44-11l.83-5.45-24 14.09a7.5 7.5 0 0 0 7.17 2.87z" fill="#009e54" opacity=".9"/></svg>