<svg xmlns="http://www.w3.org/2000/svg" width="113.33" height="200" viewBox="0 0 113.33 200"><title>_</title><path d="M50.74 28.24c.1 3.63-.58 6.69-1.49 6.81l-.79.11c-1.49.21-2.9.44-4.18.68s-2.51.51-3.62.79-2.16.59-3.05.91a37.17 37.17 0 0 0-4.4 1.82A38.34 38.34 0 0 0 29 41.74a41.18 41.18 0 0 0-3.93 2.94 46.06 46.06 0 0 0-3.68 3.48 39 39 0 0 0-2.63 3.08c-.21.27-.4.55-.6.82l47.2-22.52a12.07 12.07 0 0 1-.15-1.54 7 7 0 0 0-7.41-6.51c-3.98.07-7.16 3.12-7.06 6.75z" fill="#00a8de" opacity=".9"/><path d="M16.41 55.6a40.89 40.89 0 0 0-1.84 3.66c-.55 1.26-1.06 2.57-1.5 3.9a41.62 41.62 0 0 0-1.13 4.14c-.12.57-.23 1.15-.33 1.74L76 35.43a59.47 59.47 0 0 0-6-1l-1.7-.23c-1.75-.11-3.37-2.4-3.95-5.35L18 53c-.54.87-1.09 1.72-1.59 2.6z" fill="#0070b4" opacity=".9"/><path d="M9.57 65.73c-.39 1.42-.71 2.9-1 4.39s-.46 3-.6 4.62a47.51 47.51 0 0 0-.1 7 41 41 0 0 0 .79 5.81l29.71-10.22a16.62 16.62 0 0 1 0-3.1 21.31 21.31 0 0 1 .5-3.15 15.49 15.49 0 0 1 .89-2.66A12.21 12.21 0 0 1 41 66.23a11.16 11.16 0 0 1 1.63-1.8 9.7 9.7 0 0 1 2-1.35 12.11 12.11 0 0 1 2.47-.94 17.27 17.27 0 0 1 3-.5h.35c.4 0 .33 4.45-.14 9.93l-.15 1.73 15.09-5.2c.42-3.06.88-5.1 1.21-5l.4.15a13.6 13.6 0 0 1 3 1.54A10.84 10.84 0 0 1 71.32 66l28.49-9.83c-.57-.9-1.16-1.79-1.81-2.64l-2-2.62c-2.77-2.42-6.47-5.53-8.23-6.92L86 42.88a44.8 44.8 0 0 0-6-2.94l-1-.4-68.7 23.7c-.24.82-.5 1.65-.73 2.49z" fill="#333391" opacity=".9"/><path d="M72.48 66.72a11.13 11.13 0 0 1 2 2.33 13.69 13.69 0 0 1 1 1.85 25.73 25.73 0 0 1 1 2.54c.23.71.46 1.5.68 2.33l26.9-15.23a40.2 40.2 0 0 0-2.17-4 37 37 0 0 0-4.13-5.38L71.56 66a10.33 10.33 0 0 1 .92.72zM51.3 72.85l-.65 6.33a40.33 40.33 0 0 1-1 6l15.45-5.03.77-7.58c.17-1.71.38-3.31.59-4.69l-15.16 5zM46.57 89.18l-.32-.18a15.9 15.9 0 0 1-1.58-1.23 14.31 14.31 0 0 1-2.12-2.38 12.26 12.26 0 0 1-1.41-2.63 13 13 0 0 1-.75-3v-.3L10.81 90.1c.06.28.12.56.18.83a36.55 36.55 0 0 0 3.87 9.65z" fill="#932b8d" opacity=".9"/><path d="M76.62 77l.29 1.18c.29 1.47.63 3.18.74 3.79s4.69.7 10.16.17l10.49-1c5.48-.52 9.89-1.52 9.8-2.22s-.74-4.78-1.45-9.07l-1.12-3.42A45.33 45.33 0 0 0 103.3 61L76.38 76.16c.08.29.16.58.24.84zM49.65 85.77c-.19 2.15-.65 3.43-1.2 3.23l-.83-.31c-.7-.26-1.33-.54-1.92-.81L16 103.81c.56.71 1.14 1.4 1.75 2.07A33.44 33.44 0 0 0 23 110.5a44.68 44.68 0 0 0 6.54 3.85 62.93 62.93 0 0 0 7.82 3.12l.45.15 39.3-21.08-2.76-.87-2.83-.87c-3.53-1-6.75-6.28-7.15-11.77l-.36-5z" fill="#e91388" opacity=".9"/><path d="M38.65 117.79c3.39 1.1 7.54 2.41 9.22 2.91.68.2 1.31 1.15 1.82 2.55l40.93-18.06-.26-.19c-2-1.14-4.36-2.33-7-3.54-1.87-.86-3.94-1.75-6.16-2.66l-40.82 18zM15.46 134c-5.48.52-9.91 1.49-9.85 2.17s.42 3.68.88 7.47l18.76-10.57z" fill="#ea245f" opacity=".9"/><path d="M50.64 129.68l-1.14 15.64 14.9-5.38.3-4.19c.4-5.49.8-9.93.9-9.88h.09c1.05.55 2 1.09 2.91 1.62s1.62 1 2.27 1.51a15.79 15.79 0 0 1 1.6 1.33 13.83 13.83 0 0 1 1.94 2.4 12.91 12.91 0 0 1 1.3 2.7c0 .11.06.23.1.35l30.93-11.16c-.11-.32-.21-.66-.33-1a34.44 34.44 0 0 0-3.89-7.53 37 37 0 0 0-5.71-6.51 43.19 43.19 0 0 0-4.73-3.59L50 121.25a25.93 25.93 0 0 1 .64 8.43zM40.83 150a12.8 12.8 0 0 1-1.17-2.07 32.5 32.5 0 0 1-1.27-3.25c-.43-1.28-.87-2.74-1.29-4.36l-.43-1.65c-.47-2.08-1-4.27-1.08-4.88s-4.71-.65-10.18-.1l-1.24.12-18.7 10.71.35 2.7 1.07 3.89a49.47 49.47 0 0 0 4.3 10.75 39.88 39.88 0 0 0 2.46 3.87l27.3-15.58z" fill="#eb2d2e" opacity=".9"/><path d="M76.64 137.41a14.58 14.58 0 0 1 1 2.6 18.94 18.94 0 0 1 .62 3.47 29.68 29.68 0 0 1 .07 4.72c0 .41-.09.8-.14 1.19l30.93-17.19a44 44 0 0 0-.88-3.64 38.18 38.18 0 0 0-2.88-7.12zM65.76 155.87c.11-1.44.26-3.11.44-4.88l.74-7.34-15 5-.11 1c-.55 5.47-1.54 9.74-2.2 9.48l-.63-.24a21.15 21.15 0 0 1-3.57-2 14.11 14.11 0 0 1-2.57-2.31 11.12 11.12 0 0 1-1.59-2.47L11.46 162a36.87 36.87 0 0 0 2.94 5.41 35.69 35.69 0 0 0 3.4 4.33z" fill="#f19432" opacity=".9"/><path d="M76 147a17.62 17.62 0 0 1-.53 2.66 12.44 12.44 0 0 1-1.33 3A10.26 10.26 0 0 1 72.2 155a10 10 0 0 1-1.51 1.07 17.27 17.27 0 0 1-2.12 1 28.37 28.37 0 0 1-2.72 1l-.17.05a25.36 25.36 0 0 1-.74-5L20.7 177.51a37.1 37.1 0 0 0 4.3 2.78 38.5 38.5 0 0 0 6 2.57 57.1 57.1 0 0 0 7 1.88c2.51.51 5.25.91 8.16 1.21l2.22.23a3.2 3.2 0 0 1 1.77.75l55.41-30.55a43.5 43.5 0 0 0 2.06-8.87 57.88 57.88 0 0 0 .16-12 50.56 50.56 0 0 0-.79-5.54z" fill="#fde92b" opacity=".9"/><path d="M50 193.69v1.26l15.33-5.76c.8-2.83 2-4.77 3.31-4.85l1.72-.21a63.23 63.23 0 0 0 7.17-1.29 56.46 56.46 0 0 0 6.71-2.07 52.25 52.25 0 0 0 6.24-2.85 40.76 40.76 0 0 0 8.81-6.32 37.45 37.45 0 0 0 6.55-8.3c.31-.54.6-1.11.9-1.67l-59.25 22.26c1.69 1.78 2.75 5.62 2.51 9.8z" fill="#91be4a" opacity=".9"/><path d="M58.07 205.1c4 .07 7.31-4.34 7.4-9.8a25.14 25.14 0 0 1 .64-5.32L51 196.38c.42 4.84 3.4 8.62 7.07 8.72z" fill="#009e54" opacity=".9"/></svg>