<svg xmlns="http://www.w3.org/2000/svg" width="192" height="200" viewBox="0 0 192 200"><title>_</title><path d="M56.75 38.08a42.84 42.84 0 0 0-11.55-.66 36.44 36.44 0 0 0-14.3 4.26A41.42 41.42 0 0 0 24.47 46a42.2 42.2 0 0 0-4.33 4z" fill="#00a8de" opacity=".9"/><path d="M65.32 39.57A37.18 37.18 0 0 0 60.57 38c-1.23-.32-2.52-.57-3.83-.77L20.65 50.64q-.6.7-1.16 1.42A36.94 36.94 0 0 0 15.72 58z" fill="#0070b4" opacity=".9"/><path d="M76 43.8c-.82-.64-1.66-1.25-2.51-1.81a36.92 36.92 0 0 0-6.65-3.46c-.77-.3-1.56-.57-2.36-.83L16.49 60l-.18.42a36.87 36.87 0 0 0-2 7.22 40.15 40.15 0 0 0-.54 5.09z" fill="#333391" opacity=".9"/><path d="M45.41 63.54a10.95 10.95 0 0 1 2.9-1.08l32.78-12.18c-.21-.26-.42-.51-.64-.77a42.6 42.6 0 0 0-3.27-3.32L12.83 70.11c-.11.87-.2 1.74-.26 2.62s-.08 2-.07 3z" fill="#932b8d" opacity=".9"/><path d="M48.45 62.59c.38-.12.77-.22 1.16-.3a14.62 14.62 0 0 1 5.27-.06 12 12 0 0 1 4.58 1.83 14 14 0 0 1 3.47 3.31L86.61 56.5a37.4 37.4 0 0 0-2.06-3.31A41 41 0 0 0 80.23 48zM39.23 78.72v-.21a14.61 14.61 0 0 1 .54-5.25 12 12 0 0 1 2.34-4.34 14.46 14.46 0 0 1 4.07-3.32c.19-.1.39-.19.59-.28l-33.36 11a40 40 0 0 0 .08 4.68 37.09 37.09 0 0 0 1 5.86z" fill="#e91388" opacity=".9"/><path d="M41.72 83.1c-.09-.13-.19-.27-.27-.4a11.73 11.73 0 0 1-1.62-4.44l-24.3 9.41c.15.5.31 1 .49 1.48a36.25 36.25 0 0 0 1.4 3.35zM62.7 66.66c.08.13.18.25.26.38a11.76 11.76 0 0 1 1.62 4.46l24.3-9.39c-.16-.51-.32-1-.49-1.51-.4-1.13-.87-2.24-1.38-3.33z" fill="#ea245f" opacity=".9"/><path d="M65 71.59v.18a14.62 14.62 0 0 1-.18 5.23 12 12 0 0 1-2.1 4.46A14.46 14.46 0 0 1 58.84 85c-.24.15-.5.28-.75.41L91 72.63a40.07 40.07 0 0 0-.37-4.73 37.09 37.09 0 0 0-1.3-5.77zM56.39 87.88a12.38 12.38 0 0 1-1.39.32 14.68 14.68 0 0 1-5.31-.2 12 12 0 0 1-4.5-2 14 14 0 0 1-3.32-3.43l-24.11 9.9a37.35 37.35 0 0 0 1.91 3.37 41 41 0 0 0 4.12 5.38z" fill="#eb2d2e" opacity=".9"/><path d="M58.6 86.2a12 12 0 0 1-1.43.77c-.31.14-.63.25-1 .36l-31.79 15.06c.23.23.45.46.69.69a42.69 42.69 0 0 0 3.57 3l62-29.34c0-.88.05-1.77 0-2.67s-.09-2-.18-3z" fill="#f19432" opacity=".9"/><path d="M28.3 105.59c.81.64 1.63 1.26 2.47 1.82a36.89 36.89 0 0 0 6.61 3.59c.78.32 1.58.6 2.38.87L88 90.09c.06-.15.14-.3.2-.45a37 37 0 0 0 2.1-7.19 40.32 40.32 0 0 0 .59-5.05z" fill="#fde92b" opacity=".9"/><path d="M40.66 113.85a37.33 37.33 0 0 0 4.9.83c1.29.13 2.61.19 3.94.19l33.62-18.74q.49-.8.94-1.61a37 37 0 0 0 2.79-6.42z" fill="#91be4a" opacity=".9"/><path d="M49.16 115.08c1.25 0 2.52-.06 3.8-.17a41.63 41.63 0 0 0 7.66-1.4 36.41 36.41 0 0 0 13.24-6.93 41 41 0 0 0 5.48-5.48 42.11 42.11 0 0 0 3.44-4.77z" fill="#009e54" opacity=".9"/><path d="M125.45 44.76l-2.67 5.81 23.59-12.49c-.81-2.09-3-3.34-6.3-3.11h-.47c-5.48.4-11.85 4.79-14.15 9.79z" fill="#00a8de" opacity=".9"/><path d="M116.74 60.15l27-12.25 2.03-3.9a6.81 6.81 0 0 0 .8-5.26l-24.3 11z" fill="#0070b4" opacity=".9"/><path fill="#333391" opacity=".9" d="M105.53 80.73l27.06-12.23 11.04-20.61-27 12.2-11.1 20.64z"/><path fill="#932b8d" opacity=".9" d="M100.95 92.39l25.91-14.58 4.59-10.75-25.88 14.56-4.62 10.77z"/><path fill="#e91388" opacity=".9" d="M88.42 111.25l27.37-11.78 11.41-20.41-27.31 11.75-11.47 20.44z"/><path fill="#ea245f" opacity=".9" d="M88.58 110.33l-6.68 9.62 28.4-9.14 6.64-9.62-28.36 9.14z"/><path fill="#eb2d2e" opacity=".9" d="M83.11 121.59l-11.7 20.31 27.6-11.52 11.63-20.28-27.53 11.49z"/><path fill="#f19432" opacity=".9" d="M65.2 151.04l28.37-9.54 6.52-9.7-28.34 9.53-6.55 9.71z"/><path fill="#fde92b" opacity=".9" d="M55.77 174.13l26.8-13.5 10.16-21.06-26.74 13.47-10.22 21.09z"/><path d="M53 177a6.72 6.72 0 0 0-.76 5.38l24.56-11.17 5.49-10.32L55 173.33z" fill="#91be4a" opacity=".9"/><path d="M58.77 186.14l.81-.06c5.48-.43 11.8-4.89 14-9.91l2.59-5.81-23.68 12.86c.87 2 3.09 3.17 6.28 2.92z" fill="#009e54" opacity=".9"/><path d="M150.64 106.67a42.9 42.9 0 0 0-11.5 1 36.47 36.47 0 0 0-13.56 6.19 42.21 42.21 0 0 0-9.54 9.82z" fill="#00a8de" opacity=".9"/><path d="M160.41 111.23a37.13 37.13 0 0 0-4.69-1.68 39 39 0 0 0-3.84-.87l-36.42 12.6c-.39.44-.77.88-1.14 1.33a36.7 36.7 0 0 0-3.93 5.92z" fill="#0070b4" opacity=".9"/><path d="M171.28 116c-.8-.66-1.61-1.3-2.43-1.89a36.92 36.92 0 0 0-6.53-3.69c-.77-.33-1.55-.63-2.35-.92l-48.74 20.61-.17.36a37 37 0 0 0-2.28 7.16 40.49 40.49 0 0 0-.71 5.08z" fill="#333391" opacity=".9"/><path d="M140.39 134.54a12.1 12.1 0 0 1 1.56-.63c.36-.11.72-.2 1.09-.28l33.24-11.33c-.2-.26-.4-.52-.61-.77a42.61 42.61 0 0 0-3.2-3.42l-65 22.15c-.13.87-.25 1.75-.33 2.64s-.14 2-.16 3z" fill="#932b8d" opacity=".9"/><path d="M143.49 134.69a12.41 12.41 0 0 1 1.3-.41 14.62 14.62 0 0 1 5.26-.33 12 12 0 0 1 4.66 1.6 14 14 0 0 1 3.62 3.11l23.1-12.05a37.39 37.39 0 0 0-2.21-3.19 41 41 0 0 0-4.59-5zM134.43 148.45c0-.06 0-.12-.05-.19a14.62 14.62 0 0 1-.18-5.27 12 12 0 0 1 1.72-4.62 14.46 14.46 0 0 1 3.58-3.84c.21-.16.44-.29.66-.43l-31.68 15.44a40 40 0 0 0 .76 4.67 37.09 37.09 0 0 0 1.77 5.65z" fill="#e91388" opacity=".9"/><path d="M157.82 138.73c.1.13.21.25.3.38a11.74 11.74 0 0 1 1.95 4.31l23.51-11.22c-.19-.49-.39-1-.6-1.45-.49-1.1-1-2.18-1.64-3.23zM136.53 153.7c-.09-.13-.19-.25-.28-.38a11.76 11.76 0 0 1-1.78-4.39l-23.94 10.29c.17.5.35 1 .55 1.48.44 1.11 1 2.21 1.51 3.28z" fill="#ea245f" opacity=".9"/><path d="M160.06 142.24v.2a14.62 14.62 0 0 1-.48 5.25 12 12 0 0 1-2.29 4.37 14.46 14.46 0 0 1-4 3.36c-.2.11-.41.2-.62.3l33.27-11.33a40 40 0 0 0-.17-4.71 37.1 37.1 0 0 0-1.06-5.84zM150.86 158.12c-.39.12-.78.23-1.18.31a14.68 14.68 0 0 1-5.27.09 12 12 0 0 1-4.59-1.8 14 14 0 0 1-3.49-3.28l-23.61 11a37.36 37.36 0 0 0 2.08 3.3 41 41 0 0 0 4.36 5.16z" fill="#eb2d2e" opacity=".9"/><path d="M153.82 157.28a11 11 0 0 1-2.83 1.13l-32.48 13c.22.25.43.5.66.75a42.7 42.7 0 0 0 3.36 3.24l63.72-25.52c.09-.87.16-1.75.19-2.63s0-2 0-3z" fill="#f19432" opacity=".9"/><path d="M124.1 179c.86.59 1.73 1.14 2.62 1.65a36.9 36.9 0 0 0 6.86 3c.79.26 1.59.48 2.41.68l46.49-25.27c0-.15.11-.29.15-.44a36.85 36.85 0 0 0 1.57-7.33 40.21 40.21 0 0 0 .22-5.11z" fill="#fde92b" opacity=".9"/><path d="M135.12 184.08a37.3 37.3 0 0 0 4.9 1c1.27.17 2.56.28 3.88.33l34.31-17.51q.52-.77 1-1.55a37 37 0 0 0 3-6.34z" fill="#91be4a" opacity=".9"/><path d="M144.25 186.55c1.27 0 2.56-.12 3.85-.26a41.24 41.24 0 0 0 7.58-1.57 36.43 36.43 0 0 0 13-7.22 41.31 41.31 0 0 0 5.36-5.6 42.15 42.15 0 0 0 3.36-4.87z" fill="#009e54" opacity=".9"/></svg>