<svg xmlns="http://www.w3.org/2000/svg" width="125.34" height="200" viewBox="0 0 125.34 200"><title>_</title><path d="M64.49 36a49.76 49.76 0 0 0-7.73-1.29 59.75 59.75 0 0 0-8.48-.18 47.74 47.74 0 0 0-7.84 1.06A40.67 40.67 0 0 0 33.25 38a38 38 0 0 0-6.48 3.58 31.73 31.73 0 0 0-5.52 4.8 30.37 30.37 0 0 0-4.18 5.88 32.48 32.48 0 0 0-1.7 3.68L69.11 37.5a42.33 42.33 0 0 0-4.62-1.5z" fill="#00a8de" opacity=".9"/><path d="M78.47 41.82a37 37 0 0 0-6.19-3.65c-.77-.36-1.56-.69-2.37-1L16 55.18c-.42 1-.79 2.1-1.11 3.2a42.54 42.54 0 0 0-1.47 7.8c-.06.6-.1 1.21-.13 1.82l68.92-23a36.9 36.9 0 0 0-3.74-3.18z" fill="#0070b4" opacity=".9"/><path d="M50.27 79.57l-.55-.81c-.57-.86-1.07-1.63-1.48-2.3s-.72-1.19-1-1.68a19 19 0 0 1-.95-2A14.28 14.28 0 0 1 45.7 71a10.92 10.92 0 0 1-.3-1.68 9 9 0 0 1 0-1.55 11.63 11.63 0 0 1 .45-2.49 8 8 0 0 1 .87-1.93A7.06 7.06 0 0 1 48 61.84a8.55 8.55 0 0 1 1.83-1.21 12 12 0 0 1 1.46-.63 10.77 10.77 0 0 1 3-.6 11.56 11.56 0 0 1 1.56 0 15.47 15.47 0 0 1 2.46.38 10.34 10.34 0 0 1 2 .69 7.52 7.52 0 0 1 1.51.94 6.55 6.55 0 0 1 1.15 1.21 10.93 10.93 0 0 1 1 1.56 9.29 9.29 0 0 1 .63 1.59 9.07 9.07 0 0 1 .32 1.65 9.94 9.94 0 0 1 0 1.76 12 12 0 0 1-.46 2.48 12.43 12.43 0 0 1-1 2.36c-.2.38-.43.75-.68 1.12l31-11v-.03a32 32 0 0 0-1.54-6.77 31.07 31.07 0 0 0-3-6.21 34.52 34.52 0 0 0-4.35-5.59c-.53-.55-1.08-1.09-1.64-1.61L14.72 68.17v2.38a38 38 0 0 0 .36 4.17 38.54 38.54 0 0 0 .82 4.12 39.69 39.69 0 0 0 1.28 4.06c.49 1.32 1.05 2.66 1.67 4 .5 1.07 1.06 2.15 1.65 3.23z" fill="#333391" opacity=".9"/><path d="M94.16 68.64a37.49 37.49 0 0 0-.59-7.14L63.43 74.57q-.35.62-.78 1.22a19.64 19.64 0 0 1-2 2.39c-.4.42-.87.87-1.39 1.33s-1.17 1-1.86 1.54-1.48 1.13-2.32 1.73l-.3.22a1.34 1.34 0 0 1-1.48-.65l-.41-.51c-.58-.72-1.09-1.38-1.58-2l-29 12.56.43.68c.82 1.24 1.71 2.5 2.66 3.74l.36.47a1.26 1.26 0 0 1 .47 1.1l-5.11 3.21-2.12 1.54c-2.16 1.54-4.18 3.1-6 4.66-.73.62-1.43 1.25-2.11 1.88l83-36a50.18 50.18 0 0 0 .27-5.04z" fill="#932b8d" opacity=".9"/><path d="M74.17 106.67c-1-2-1.33-3.43-.67-3.85l1-.69a73.16 73.16 0 0 0 5-3.75 55.88 55.88 0 0 0 4.29-3.94 45.38 45.38 0 0 0 3.58-4.13 29 29 0 0 0 2.9-4.68 32.37 32.37 0 0 0 2-5.28 38.74 38.74 0 0 0 1.2-5.85c.06-.43.08-.89.12-1.33l-82.52 37c-1 1-2 1.94-2.86 2.9a46.53 46.53 0 0 0-3.9 4.93 37.12 37.12 0 0 0-3 5.24 38.27 38.27 0 0 0-2.14 5.72 42.65 42.65 0 0 0-1.27 6.17 50.11 50.11 0 0 0-.39 6z" fill="#e91388" opacity=".9"/><path d="M102.92 102.45c-5.47.53-9.91 1.52-9.85 2.19s.16 2.17.23 3.32v1c0 .92 0 1.84-.07 2.73l17.7-10zM1.45 156.56l29.73-17v-.78a18.49 18.49 0 0 1 .29-2.66 18.31 18.31 0 0 1 .68-2.58 19.32 19.32 0 0 1 1.08-2.54 18.89 18.89 0 0 1 1.65-2.6 35.73 35.73 0 0 1 2.55-3c1-1.08 2.17-2.22 3.47-3.4l.81-.74c1-.86 5 1.6 8.92 5.48l1.09 1.08 27.79-15.9-3.75-3.71a31.08 31.08 0 0 1-4.06-4.84l-72.94 41.71v.64a40.38 40.38 0 0 0 1.65 8.07c.33.93.68 1.86 1.04 2.77z" fill="#ea245f" opacity=".9"/><path d="M51.62 126.16l9.27 13.36c1.6 2.31 3 4.41 4 5.93l54.77-19.24c.61-1.55 1.19-3.1 1.69-4.64a75.32 75.32 0 0 0 1.86-6.71l.51-2.24c.39-2.47.79-5.08.88-5.8s-4.31-1.67-9.79-2.12l-1.74-.14-19.2 6.74c0 .1 0 .2-.06.29-.23.95-.51 1.91-.82 2.86s-.65 1.87-1 2.76-.78 1.79-1.22 2.66-.9 1.7-1.4 2.53l-.43.71c-.5.75-3.49-2.33-6.63-6.84l-.51-.73zM44.6 159.08h-.13a18.46 18.46 0 0 1-3.41-1.31 16.69 16.69 0 0 1-2.95-1.91 17.55 17.55 0 0 1-2.54-2.53 22 22 0 0 1-2.05-2.95 16.87 16.87 0 0 1-1.34-2.92 14.3 14.3 0 0 1-.67-2.93 14.14 14.14 0 0 1 0-3c.06-.67.17-1.32.3-2L-.7 150.46a40.25 40.25 0 0 0 1.29 5.11A44.56 44.56 0 0 0 4 163.32a54.41 54.41 0 0 0 5 7.45l.2.23z" fill="#eb2d2e" opacity=".9"/><path d="M66.56 147.17a19.6 19.6 0 0 1 1.74 2.24l-.08.07c-.69.59-1.42 1.17-2.17 1.72s-1.61 1.12-2.48 1.66-1.81 1.08-2.78 1.6a27.6 27.6 0 0 1-2.86 1.32 26.72 26.72 0 0 1-2.94 1 26.16 26.16 0 0 1-3 .6 25.26 25.26 0 0 1-7 0l-33.8 15.94a41.62 41.62 0 0 0 7.19 5.68c1.08.67 2.21 1.28 3.37 1.86l91.37-43.14c.39-.74.77-1.46 1.12-2.18.68-1.4 1.29-2.78 1.79-4.09.91-2.3 1.72-4.63 2.43-6.93.21-.7.4-1.4.6-2.11z" fill="#f19432" opacity=".9"/><path d="M26.59 182.79a51.78 51.78 0 0 0 9.75 2.41 67.48 67.48 0 0 0 10.87.69 71.64 71.64 0 0 0 7.39-.48 61.84 61.84 0 0 0 7-1.23 55.57 55.57 0 0 0 6.54-2 51.28 51.28 0 0 0 6.1-2.75c1.1-.58 2.24-1.26 3.38-2s2.28-1.54 3.46-2.43 2.37-1.85 3.55-2.87l.56-.48c.48-.42 2.08.62 3.94 2.47l29.15-13.46-4.69-5.45c-3.59-4.17-5.88-8.49-5.09-9.59l.65-1c1-1.51 2-3 2.79-4.42q.62-1 1.18-2.09l-91.76 42.41a44.5 44.5 0 0 0 5.23 2.27z" fill="#fde92b" opacity=".9"/><path d="M90.57 175.82c1.76 2.31 5.74 4.4 9.91 5.42L125.83 171l-7.22-9.28-29.78 12c.57.64 1.17 1.34 1.74 2.1z" fill="#91be4a" opacity=".9"/><path d="M105.9 183l20.1-2c5.47-.54 6.74-4.13 2.82-8l-3.66-3.59-23.77 13.49a22.28 22.28 0 0 0 4.51.1z" fill="#009e54" opacity=".9"/></svg>