<svg xmlns="http://www.w3.org/2000/svg" width="26.15" height="200" viewBox="0 0 26.15 200"><title>_</title><path d="M6.38 33a9.05 9.05 0 0 0-9.12 7.75L14.72 33z" fill="#00a8de" opacity=".9"/><path d="M-2.53 41.93a9.67 9.67 0 0 0 .13 2.2l.4 2.34 24.26-13.56a9.39 9.39 0 0 0-4.39-.64l-3.74.34z" fill="#0070b4" opacity=".9"/><path d="M-2.44 53.43L27.77 42a9 9 0 0 0-4.42-7.37l-26 9.81z" fill="#333391" opacity=".9"/><path d="M-2.21 57.47l29.92-10.34.48-2.85a9.73 9.73 0 0 0 .13-1.83L-2.19 53z" fill="#932b8d" opacity=".9"/><path fill="#e91388" opacity=".9" d="M-1.21 67.1l27.87-11.07 1.18-9.56-29.42 11.68.37 8.95z"/><path fill="#ea245f" opacity=".9" d="M-.43 72.1l26.67-11.8.4-4.8L-.79 67.64l.36 4.46z"/><path fill="#eb2d2e" opacity=".9" d="M.99 81.82l24.38-12.71.19-9.64L-.29 72.95l1.28 8.87z"/><path fill="#f19432" opacity=".9" d="M.68 85.51l24.37-10.82.4-4.8L.32 81.05l.36 4.46z"/><path d="M.56 86.25a10.69 10.69 0 0 0 1.92 6.27l21.69-7.05L26 76 .61 84.24z" fill="#fde92b" opacity=".9"/><path d="M7.83 97.06l15.72-8.82a10.17 10.17 0 0 0 .13-1.64v-3.25L3.75 94.5a11.34 11.34 0 0 0 4.08 2.56z" fill="#91be4a" opacity=".9"/><path d="M11.82 97.62l1.5-.05a11.11 11.11 0 0 0 10.25-8.69L7.36 96.76a10.46 10.46 0 0 0 4.46.86z" fill="#009e54" opacity=".9"/></svg>