<svg xmlns="http://www.w3.org/2000/svg" width="68.04" height="200" viewBox="0 0 68.04 200"><title>_</title><path d="M60.7 16.37c.66-.94-3.28-2.25-8.74-2.92l-1.46-.18c-5.46-.67-11.91 1-14.33 3.65s-5.82 6.49-7.56 8.48l-1.55 2c-1.25 1.57-2.5 3.25-3.73 5l33.81-10.88z" fill="#00a8de" opacity=".9"/><path d="M52 26.67l1.59-3.81 2-4.51-31.23 16.94c-.22.46-.44.91-.65 1.38-1.09 2.41-2.17 5-3.19 7.56s-2 5.35-3 8.16l-.06.18 30.83-16.74c1.12-2.9 2.35-5.97 3.71-9.16z" fill="#0070b4" opacity=".9"/><path d="M37 67.19c1-4.14 2.22-8.22 3.56-12.12.81-2.32 1.81-4.9 3-7.66s2.54-5.78 4.08-9l.74-1.52-32.14 14.05c-2.14 4.86-4 9.77-5.66 14.6s-3 9.85-4.13 14.72c-.08.34-.14.68-.22 1l30.62-13.37c.05-.23.15-.47.15-.7z" fill="#333391" opacity=".9"/><path d="M34.6 80.3c.72-4.13 1.6-8.2 2.6-12.11L6.39 81.1c-1.07 4.53-1.92 9.1-2.52 13.6v.36l30.41-12.75c.11-.67.21-1.31.32-2.01z" fill="#932b8d" opacity=".9"/><path d="M33 107.87c0-.3 0-.6-.07-.9-.32-4.85-.47-9.67-.45-14.31 0-3.94.18-7.83.45-11.63L3.74 96.42a133.24 133.24 0 0 0 .17 14.23c.26 3.95.72 7.93 1.35 11.85z" fill="#e91388" opacity=".9"/><path d="M4 122.85c.54 3.83 1.28 7.68 2.18 11.49L33 121c-.16-1.47-.3-3-.43-4.45-.23-2.71-.41-5.52-.54-8.35l-28.09 14c.06.2.06.43.06.65z" fill="#ea245f" opacity=".9"/><path d="M6 134.26c.68 4.17 1.59 8.4 2.69 12.59.85 3.24 1.84 6.51 2.94 9.76l24.5-9.94c-.21-1.17-.42-2.34-.6-3.51-.42-2.66-.78-5.4-1.07-8.15s-.52-5.64-.68-8.53c-.08-1.46-.14-2.94-.19-4.44L5.86 133.29c.05.32.14.65.14.97z" fill="#eb2d2e" opacity=".9"/><path d="M13.16 159c.91 2.77 1.94 5.58 3 8.38l23.1-8.75q-.38-1.59-.72-3.18c-.61-2.85-1.15-5.75-1.61-8.65l-24.73 9.36q.49 1.4.96 2.84z" fill="#f19432" opacity=".9"/><path d="M17.83 171.33c1.94 3.44 4.07 6.93 6.33 10.38 1.6 2.44 3.3 4.91 5.06 7.37l19-10-1.07-2c-1.95-3.66-3.77-7.43-5.41-11.21-1.21-2.77-2.35-5.6-3.4-8.45l-21.86 11.5q.66 1.2 1.35 2.41z" fill="#fde92b" opacity=".9"/><path d="M30.21 192.06l2.35 3.59 2.35 3.27 18.37-8.28c-1.69-3.13-3.45-6.44-4.73-8.86l-.78-1.7-19.58 8.82q1 1.58 2.02 3.16z" fill="#91be4a" opacity=".9"/><path d="M38.4 203.8c.22.27 4.89.28 10.39 0l2-.09c5.49-.26 8-3.68 5.66-7.59-1-1.61-2.2-3.65-3.47-5.77l-18 9.07z" fill="#009e54" opacity=".9"/></svg>