<svg xmlns="http://www.w3.org/2000/svg" width="63.35" height="200" viewBox="0 0 63.35 200"><title>_</title><path d="M5.26 12.94c1.07 1.59 2.41 3.61 3.8 5.72L29.85 6.94 27.36 4c-.23-.24-4.9 0-10.36.48l-6.42.61c-5.48.52-7.87 4.05-5.32 7.85z" fill="#00a8de" opacity=".9"/><path d="M13.92 27.57L15 29.44l21.89-12.69-1.84-2.28-2.52-3.1-3.46-4-20.64 12c1.96 2.9 4.01 5.95 5.49 8.2z" fill="#0070b4" opacity=".9"/><path d="M14.8 30c1.61 3.81 3.08 7.72 4.37 11.62 1 3.05 1.95 6.17 2.78 9.29l26.66-11.1q-.89-2-1.85-4c-1.52-3.17-3.2-6.45-5-9.75-1.37-2.48-2.83-5-4.37-7.58L14 28.13z" fill="#333391" opacity=".9"/><path d="M23 53.32c.77 3.07 1.46 6.2 2.05 9.33l28.44-11.94c-.7-1.93-1.43-3.85-2.2-5.76S49.8 41.39 49 39.57L22.35 50.76c.23.85.46 1.7.65 2.56z" fill="#932b8d" opacity=".9"/><path d="M25.68 66.93c.7 2.59 1.36 5.29 1.94 8s1.12 5.57 1.59 8.44c.29 1.75.55 3.55.79 5.37l30.56-16.39c-.19-.68-.37-1.35-.57-2a138.56 138.56 0 0 0-4.62-13.19c-1-2.5-2.13-5-3.31-7.49L24.92 64.23q.39 1.35.76 2.7z" fill="#e91388" opacity=".9"/><path d="M28.92 91.85c.24 3 .41 6.14.53 9.27v.22l32.61-15.95c0-.27-.07-.55-.11-.82-.55-3.8-1.28-7.64-2.18-11.43L28.6 88.37c.12 1.16.22 2.31.32 3.48z" fill="#ea245f" opacity=".9"/><path d="M27.84 113.67c-.68 4.34-1.52 8.64-2.49 12.8l36.22-12.81a132.74 132.74 0 0 0 1.78-13.44c.34-4.24.45-8.54.36-12.8l-34.22 12.1c-.38 4.8-.94 9.56-1.65 14.15z" fill="#eb2d2e" opacity=".9"/><path d="M26.75 127.08a154.4 154.4 0 0 1-4.07 12.87l-.11.3 37.28-12c1.33-4.1 2.47-8.23 3.4-12.33.11-.49.21-1 .31-1.48L27 126.21c-.1.29-.17.58-.25.87z" fill="#f19432" opacity=".9"/><path d="M20.47 154.85c-.8 2.42-1.77 5-2.89 7.82s-2.43 5.8-3.86 8.92q-.57 1.24-1.18 2.52L50.11 157c1.81-4.32 3.44-8.66 4.84-12.93a155.78 155.78 0 0 0 4.17-15.29c.18-.84.35-1.68.51-2.53L24 142.48c-1 4.2-2.19 8.36-3.53 12.37z" fill="#fde92b" opacity=".9"/><path d="M9.06 182.4l-1.6 3.6-3 6.35L41.9 173c1-2 1.93-4.15 2.9-6.43 1.09-2.57 2.21-5.35 3.32-8.27.32-.84.61-1.67.92-2.51l-36.69 19c-1.02 2.4-2.12 4.96-3.29 7.61z" fill="#91be4a" opacity=".9"/><path d="M2.2 195.3c-.51 1 3.57 1.67 9.06 1.38l6.07-.32c5.49-.29 11.57-3 13.51-5.94s4.51-6.89 5.71-8.7l1.09-1.9c1.09-1.89 2.19-4 3.29-6.19l.39-.8L3.79 192z" fill="#009e54" opacity=".9"/></svg>