<svg xmlns="http://www.w3.org/2000/svg" width="78.64" height="200" viewBox="0 0 78.64 200"><title>_</title><path d="M29.45 40.46l16.85-6.78a9.91 9.91 0 0 0-4.75-1.41l-1.89-.07a10 10 0 0 0-10.21 8.26z" fill="#00a8de" opacity=".9"/><path d="M29.33 41.31l-.21 2.58a9.73 9.73 0 0 1-.2 1.27l21.15-7.43a10.1 10.1 0 0 0-3.39-3.81l-17.14 6a9.92 9.92 0 0 0-.21 1.39zM8.27 55.72l9.52-4.82a10 10 0 0 0-9.52 4.82z" fill="#0070b4" opacity=".9"/><path d="M20 51.85l-.5-.15a9.91 9.91 0 0 0-1.59-.33l-9.67 4.54a9.88 9.88 0 0 0-1.14 2.51l-.1.28a9.89 9.89 0 0 0 1 7.76L51.45 46a9.53 9.53 0 0 1-.2-1.74l-.05-2.6a9.9 9.9 0 0 0-1.61-5.21L29.29 46c-.52 4.7-4.46 7.3-9.29 5.85z" fill="#333391" opacity=".9"/><path d="M12 71l41.28-22a7 7 0 0 1-2.58-4L8.26 67.61A9.91 9.91 0 0 0 12 71z" fill="#932b8d" opacity=".9"/><path d="M14 72.66l.82.19c3 .7 5 2.56 5.63 4.9l49.62-26.47a9.94 9.94 0 0 0-9.56-1.2l-.49.2a7.22 7.22 0 0 1-7.11-.54l-41.29 22a9.87 9.87 0 0 0 2.38.92z" fill="#e91388" opacity=".9"/><path d="M17.65 81.28L74 58.06a9.86 9.86 0 0 0-2.71-4l-52 21.44a7.58 7.58 0 0 1-1.64 5.78z" fill="#ea245f" opacity=".9"/><path d="M18.89 84.93l-1.36 2.46a10.06 10.06 0 0 0-.18 9.34L70.07 66A9.94 9.94 0 0 0 72 55.14l-.11-.26c-.1-.23-.22-.44-.33-.66L18.91 84.9z" fill="#eb2d2e" opacity=".9"/><path d="M19.09 99.54l41.78-22.67c-.62-3.19 1.08-6.25 4.76-7.71l.79-.31a9.86 9.86 0 0 0 3.31-2.16l-53.62 29.1a10 10 0 0 0 2.98 3.75z" fill="#f19432" opacity=".9"/><path d="M18.32 97l.19.15a10.44 10.44 0 0 0 14.31-1.35l1.41-1.65c3.58-4.18 9-3.83 12 .78l.25.39 19.25-7.29a9.94 9.94 0 0 0-1.06-2.4l-1.45-2.34a8.37 8.37 0 0 1-1.3-3.91L17.45 96.24a10 10 0 0 0 .87.76z" fill="#fde92b" opacity=".9"/><path d="M47.91 96.79a10 10 0 0 0 2.73 2.27l15.36-8a10.12 10.12 0 0 0-.78-4.91L47 95.65z" fill="#91be4a" opacity=".9"/><path d="M61.71 98.58l.22-.15a10.05 10.05 0 0 0 4.23-6.64l-16 6.75a10.25 10.25 0 0 0 11.55.04z" fill="#009e54" opacity=".9"/></svg>