<svg xmlns="http://www.w3.org/2000/svg" width="45.69" height="200" viewBox="0 0 45.69 200"><title>_</title><path d="M12.6 132.29A10 10 0 0 0 2.69 140l17.88-7.59z" fill="#00a8de" opacity=".9"/><path d="M28.2 133.5l-7.07-.75-18.47 6a9.93 9.93 0 0 0-.45 2.07L2 143.28 30.49 134a9.91 9.91 0 0 0-2.29-.5z" fill="#0070b4" opacity=".9"/><path d="M29.83 132.46L2.55 144.93v8.98l34.25-15.62a10.06 10.06 0 0 0-6.97-5.83z" fill="#333391" opacity=".9"/><path d="M37 140.73a9.9 9.9 0 0 0-1.1-3.73L3.09 155.28l.24 2.72a11.86 11.86 0 0 0 .28 1.68L37 141.07z" fill="#932b8d" opacity=".9"/><path d="M37.65 150.25v-2.94l.05-4.49L2.61 158a10.15 10.15 0 0 0 4.16 7.14l30.86-13.32.02-1.57z" fill="#e91388" opacity=".9"/><path d="M38.26 153.12L6.38 163.74a7.21 7.21 0 0 0 3.82 1.59c1.13.11 2.2.25 3.17.4l24.45-8.15c.18-1.39.29-2.91.44-4.46z" fill="#ea245f" opacity=".9"/><path d="M37.52 163.76l.1-1.18c0-.8.08-3.24.14-6.3L14 166.37c3 .23 5 .69 5 1.18l-.1.57a31 31 0 0 1-.9 3.78c-.22.71-.48 1.38-.75 2l20.13-8.57c.04-.51.1-1.04.14-1.57z" fill="#eb2d2e" opacity=".9"/><path d="M37.29 167.46c.1-.66.19-1.33.26-2l-20.19 8.41c-.17.39-.34.78-.52 1.15a16.59 16.59 0 0 1-1.6 2.58 14.72 14.72 0 0 1-2 2.12c-.25.22-.52.42-.79.63l24.35-10.12c.2-.94.35-1.87.49-2.77z" fill="#f19432" opacity=".9"/><path d="M33.91 180.94c.31-.61.61-1.23.89-1.87a33.49 33.49 0 0 0 1.35-3.71c.36-1.21.69-2.44 1-3.67.07-.29.13-.57.19-.86l-24.6 9.47a17.35 17.35 0 0 1-1.74 1.13 21.61 21.61 0 0 1-3.09 1.42l-1.13.42c-1.4.36-3 .75-3.46.86s-1.1 3.61-1.32 7.77v1.35z" fill="#fde92b" opacity=".9"/><path d="M2.21 197.06l28.14-9.65c.35-.38.7-.76 1-1.15a30.35 30.35 0 0 0 2.27-3.09c.32-.5.63-1 .92-1.55L2.19 192.73a29.54 29.54 0 0 0 .02 4.33z" fill="#91be4a" opacity=".9"/><path d="M3.59 200h2.55l.77-.13c.7-.12 1.51-.3 2.39-.53s1.81-.52 2.84-.87 2.14-.74 3.35-1.2a36.93 36.93 0 0 0 3.67-1.63 36 36 0 0 0 3.45-2 36.6 36.6 0 0 0 3.21-2.39 38 38 0 0 0 3-2.77c.53-.55 1-1.13 1.52-1.72L2.82 198.07c.18 1.19.46 1.93.77 1.93z" fill="#009e54" opacity=".9"/></svg>