<svg xmlns="http://www.w3.org/2000/svg" width="70.95" height="200" viewBox="0 0 70.95 200"><title>_</title><path d="M14.86 108.18A10 10 0 0 0 5 114.06l15.37-5.46z" fill="#00a8de" opacity=".9"/><path d="M20.17 108.07l-15 6.44a9.89 9.89 0 0 0-.64 3.36v.29l23.24-10z" fill="#0070b4" opacity=".9"/><path fill="#333391" opacity=".9" d="M34.54 107.05l-7.58.66-22.13 12.25.29 3.38.3 3.38 36.7-20.33-7.58.66z"/><path fill="#932b8d" opacity=".9" d="M43.55 109.01L4.22 123.62 4 127l47.15-17.51-7.6-.48z"/><path d="M5.41 133.15l55.64-21.28a9.94 9.94 0 0 0-6.27-2.68l-3.55-.19-47 18v.91a9.9 9.9 0 0 0 1.18 5.24z" fill="#e91388" opacity=".9"/><path d="M7.15 134.76l56.28-19.5a10.11 10.11 0 0 0-1.89-2.62l-56.28 19.5a10.11 10.11 0 0 0 1.89 2.62z" fill="#ea245f" opacity=".9"/><path d="M15.45 140.67l3.54-.21 44.62-23.2-.06-.91a9.9 9.9 0 0 0-1.8-5.11L8.91 138.71a9.94 9.94 0 0 0 6.54 1.96z" fill="#eb2d2e" opacity=".9"/><path fill="#f19432" opacity=".9" d="M25.72 139.32l38.4-16.91.02-3.39-46.03 20.27 7.61.03z"/><path fill="#fde92b" opacity=".9" d="M32.79 138.53l7.59.55 23.79-8.59.25-3.38.24-3.38-39.46 14.25 7.59.55z"/><path d="M48.05 138.92L63.59 134a9.89 9.89 0 0 0 1-3.28v-.29l-24.11 7.66z" fill="#91be4a" opacity=".9"/><path d="M54.42 139.56a10 10 0 0 0 8.73-7.49l-14.2 8z" fill="#009e54" opacity=".9"/></svg>