<svg xmlns="http://www.w3.org/2000/svg" width="47.63" height="200" viewBox="0 0 47.63 200"><title>_</title><path d="M16 148a10 10 0 0 0-9.58 5.23l13.82-4.9z" fill="#00a8de" opacity=".9"/><path d="M20.26 148l-13.68 5.3a9.89 9.89 0 0 0-1 3.16l21-8.14z" fill="#0070b4" opacity=".9"/><path d="M30 147.26l-3.95.21-20.11 10.26v.83l.11 2 .15 2.83 29.15-14.89a9.91 9.91 0 0 0-5.35-1.24z" fill="#333391" opacity=".9"/><path d="M35 148.27L6.24 163.85l.22 2.83L37.34 150a10.11 10.11 0 0 0-2.34-1.73z" fill="#932b8d" opacity=".9"/><path d="M36.74 149.67L6.33 167.25l.3 2.82.3 2.82 32.6-18.85a10 10 0 0 0-2.79-4.37z" fill="#e91388" opacity=".9"/><path d="M40.56 159.14v-.82a9.93 9.93 0 0 0-.13-1.94L5.59 170.59v.82a9.93 9.93 0 0 0 .13 1.94z" fill="#ea245f" opacity=".9"/><path d="M7.55 177.36l33.1-11.76.22-2.83.22-2.83-35.48 12.61a10 10 0 0 0 1.94 4.81z" fill="#eb2d2e" opacity=".9"/><path d="M10.33 180.16l30.14-12.77.05-2.84-32.35 13.71a10.11 10.11 0 0 0 2.16 1.9z" fill="#f19432" opacity=".9"/><path d="M15.4 181.44l3.95.21 21.05-8.06c0-.27.07-.55.09-.83l.11-2 .15-2.83-30.57 11.68a9.91 9.91 0 0 0 5.22 1.83z" fill="#fde92b" opacity=".9"/><path d="M26.58 182.33l12.75-7.25a9.89 9.89 0 0 0 .5-3.27l-19.6 11.14z" fill="#91be4a" opacity=".9"/><path d="M30.32 181.92a10 10 0 0 0 9.24-5.8l-13.5 5.73z" fill="#009e54" opacity=".9"/></svg>