<svg xmlns="http://www.w3.org/2000/svg" width="92.49" height="200" viewBox="0 0 92.49 200"><title>_</title><path d="M58.42 39.27L57 44.74l27.58-15.9a7.57 7.57 0 0 0-5.22-1.16l-8.46.88a15.57 15.57 0 0 0-12.48 10.71z" fill="#00a8de" opacity=".9"/><path d="M51.52 53l35-13.41.33-.74c1.36-3.09.87-5.93-1-7.72L56.11 42.55z" fill="#0070b4" opacity=".9"/><path fill="#333391" opacity=".9" d="M44.64 76.04l33.7-16.28 7.42-21.67-33.73 16.29-7.39 21.66z"/><path fill="#932b8d" opacity=".9" d="M39.27 84.9l35.04-13.1 4.7-10.44-35.06 13.1-4.68 10.44z"/><path fill="#e91388" opacity=".9" d="M30.9 106.2l34.99-13.11 9.38-20.9-35.03 13.12-9.34 20.89z"/><path fill="#ea245f" opacity=".9" d="M28.5 119l33.45-16.6 3.6-10.88-33.47 16.61L28.5 119z"/><path fill="#eb2d2e" opacity=".9" d="M19.77 139.5l34.18-14.97 8.21-21.39-34.2 15-8.19 21.36z"/><path fill="#f19432" opacity=".9" d="M15.01 149l35.02-12.81 4.77-10.41-35.04 12.82-4.75 10.4z"/><path d="M7.18 168.13l-.85 1.78 35.18-12.24L51.38 137l-35.22 12.25z" fill="#fde92b" opacity=".9"/><path d="M4.55 180.76c-.11.3.52.57 1.66.78l31.55-14.36 4-10.75-33.95 15.44z" fill="#91be4a" opacity=".9"/><path d="M13.45 181.38l8.27.62a15.6 15.6 0 0 0 14.16-8.38l2.37-5.14-32.58 11.8a45.12 45.12 0 0 0 7.78 1.1z" fill="#009e54" opacity=".9"/></svg>