<svg xmlns="http://www.w3.org/2000/svg" width="115.28" height="200" viewBox="0 0 115.28 200"><title>_</title><path d="M56.43 33.55a64.63 64.63 0 0 0-12.94 1.93 45.2 45.2 0 0 0-10.89 4.37 37.37 37.37 0 0 0-8.73 6.85 39.22 39.22 0 0 0-6.42 9.3c-.57 1.13-1.1 2.32-1.62 3.53l50.48-25.81a68 68 0 0 0-9.88-.17z" fill="#00a8de" opacity=".9"/><path d="M80 36.71a45.15 45.15 0 0 0-11.33-2.91q-1.56-.2-3.19-.31l-49.83 27a70.74 70.74 0 0 0-2.56 7.71c-.49 1.81-.91 3.7-1.3 5.64L80.2 36.78z" fill="#0070b4" opacity=".9"/><path d="M40.71 78.19a54.42 54.42 0 0 1 2-5.89 19.73 19.73 0 0 1 2.56-4.61 12.87 12.87 0 0 1 3.21-3 12.19 12.19 0 0 1 4-1.64 18.81 18.81 0 0 1 9.89.69A12 12 0 0 1 66 65.9a12.13 12.13 0 0 1 2 2.35l29.7-10.81a39.09 39.09 0 0 0-6-8.91 37.3 37.3 0 0 0-8.47-6.9L10.1 68.25c-.82 2.3-1.59 4.7-2.27 7.2a135.53 135.53 0 0 0-3.11 14.62c-.07.42-.12.86-.19 1.29z" fill="#333391" opacity=".9"/><path d="M68.09 67.41c.26.32.51.65.75 1a19.42 19.42 0 0 1 2.26 4.73c.34 1 .67 2.15 1 3.35l29.11-13.61A65.48 65.48 0 0 0 97 54.46c-.09-.15-.19-.28-.28-.43zM40 91.2c.11-.83.23-1.65.34-2.43.46-3.06 1-5.88 1.6-8.37.06-.23.06-.4.15-.67L6.26 93.81c-.44 3.52-.79 7.21-1 11.05z" fill="#932b8d" opacity=".9"/><path d="M72.14 75.18q.28 1.6.49 3.36c.31 2.54.53 5.4.65 8.5.11 2.72.14 5.69.1 8.82l32.81-12.22c-.14-1.4-.3-2.79-.48-4.13A94.73 94.73 0 0 0 103 66.45c-.24-.84-.5-1.67-.77-2.49zM39.06 113c0-.81 0-1.63.07-2.46.13-4.2.34-8.18.62-11.84.25-2.7.46-5.27.75-7.7L5.9 105.13q-.11 2.15-.18 4.36c-.19 5.89-.13 11.53.16 16.75v.28z" fill="#e91388" opacity=".9"/><path d="M74.7 98.68c.07.45.15.89.22 1.35.46 2.9.88 6 1.28 9.26L107.32 91c-.72-3.5-1.54-6.86-2.45-10.05zM39.5 123c0-.59-.08-1.18-.11-1.78-.16-2.81-.27-5.8-.33-8.91L6.5 127.23c.36 3.56.83 7 1.4 10.25z" fill="#ea245f" opacity=".9"/><path d="M74.89 106.7c0 .83-.07 1.66-.11 2.5-.2 4-.47 7.82-.81 11.35-.27 2.85-.59 5.57-1 8.11l35.18-13.58q.14-2.07.25-4.18c.3-5.88.35-11.52.15-16.76v-.45zM41.89 145q-.31-1.9-.54-4c-.28-2.59-.47-5.45-.55-8.49-.07-2.54-.06-5.28 0-8.15L8 136c.12 1.45.26 2.89.42 4.28a93.85 93.85 0 0 0 2.46 13.08c.22.81.45 1.6.69 2.39z" fill="#eb2d2e" opacity=".9"/><path d="M74.11 130.8v1.77c-.08 3-.26 5.9-.53 8.49 0 .47-.11.93-.16 1.39L107.6 124q0-5.32-.31-11.09zM46.17 154.35c-.23-.37-.45-.75-.65-1.15a21.46 21.46 0 0 1-1.77-5.26c-.2-1-.38-2-.54-3.05l-30.43 10.27a64.86 64.86 0 0 0 3.25 8.9c.06.13.13.26.19.39z" fill="#f19432" opacity=".9"/><path d="M106.05 143.28a134.85 134.85 0 0 0 2.67-14.69c.06-.48.11-1 .17-1.47l-36.13 14.39c-.48 2-1 3.84-1.58 5.49a21.16 21.16 0 0 1-2.39 5 13.12 13.12 0 0 1-3.1 3.28 11.7 11.7 0 0 1-3.87 1.84 17.8 17.8 0 0 1-9.83-.39 11.9 11.9 0 0 1-3.74-2.15 12.76 12.76 0 0 1-2.16-2.42l-29.36 11.67a39 39 0 0 0 6.33 8.75 37.33 37.33 0 0 0 8.66 6.61l72.33-28.81a97.38 97.38 0 0 0 2-7.1z" fill="#fde92b" opacity=".9"/><path d="M101 151.53c.48-1.85.91-3.8 1.28-5.8L34.1 183.4l.17.07a45.28 45.28 0 0 0 11.39 2.8c1.05.12 2.13.21 3.22.28l49.62-27.43a70.34 70.34 0 0 0 2.5-7.59z" fill="#91be4a" opacity=".9"/><path d="M80.86 180.87a37.33 37.33 0 0 0 9.38-5.87 39.06 39.06 0 0 0 7.33-8.5c.7-1.1 1.38-2.26 2-3.45l-52.84 20.46a68.39 68.39 0 0 0 9.79 1.17 64.86 64.86 0 0 0 13.06-.59 45.31 45.31 0 0 0 11.28-3.22z" fill="#009e54" opacity=".9"/></svg>