<svg xmlns="http://www.w3.org/2000/svg" width="79.21" height="200" viewBox="0 0 79.21 200"><title>_</title><path d="M14.37 60l-1.85.12-5.38.26c-.35 0-.67 1.32-.89 3.36L14.73 60zM44.09 37.55c.06.68.13 1.46.14 1.73v.28c0 .34 0 .71-.07 1.13s-.1.92-.18 1.44-.17 1.11-.28 1.7c-.19 1-.43 2-.69 2.86a24.41 24.41 0 0 1-.91 2.54v.08l24.81-13.95a9.91 9.91 0 0 0-4.77-.74l-8.21.76c-5.47.51-9.93 1.48-9.84 2.17z" fill="#00a8de" opacity=".9"/><path d="M39.81 50.13A16.89 16.89 0 0 1 38.46 52a21.69 21.69 0 0 1-2.38 2.45 22.17 22.17 0 0 1-2.76 2.06 24.56 24.56 0 0 1-3.17 1.68 29 29 0 0 1-3.6 1.3c-.8.23-1.77.47-2.89.7s-2.49.49-4 .72-3 .45-4.63.67l-8.2 4.31A65.48 65.48 0 0 0 7 72.61l.24 3.75 64.7-34a10 10 0 0 0-5.78-7.6L40.94 48a19.65 19.65 0 0 1-1.13 2.13z" fill="#0070b4" opacity=".9"/><path d="M5.21 71.36a10 10 0 0 0 9.09 10.83l13.25 1.16h.31L72.58 68l.9-10.27.82-9.39v-.87L5.22 71.28v.08z" fill="#333391" opacity=".9"/><path d="M37.94 90l34.92-13.57.49-10.29-44.07 17.14A10 10 0 0 1 37.94 90z" fill="#932b8d" opacity=".9"/><path d="M39.44 95.91l1.63 16.54L73 94.31l-1-10.25-1-10.26-32.63 18.53a9.89 9.89 0 0 1 1.07 3.58z" fill="#e91388" opacity=".9"/><path fill="#ea245f" opacity=".9" d="M38.63 120.37l34.23-13.21.52-10.29-34.22 13.21-.53 10.29z"/><path fill="#eb2d2e" opacity=".9" d="M40.6 143.03l32.33-17.35-.76-10.28-.76-10.27-32.32 17.34 1.51 20.56z"/><path fill="#f19432" opacity=".9" d="M38.79 151.52l34.05-13.67.38-10.29-34.04 13.66-.39 10.3z"/><path d="M37.75 170.34v.78l34.71-11.74 1-10.26 1-10.26-34.88 11.75z" fill="#fde92b" opacity=".9"/><path d="M45.54 181.73l27.06-15.07-.92-10.26-32 17.83a10 10 0 0 0 5.86 7.5z" fill="#91be4a" opacity=".9"/><path d="M49.81 182.67l13.48-1a10 10 0 0 0 9.2-10.74l-.3-3.81L45 181.82a9.91 9.91 0 0 0 4.81.85z" fill="#009e54" opacity=".9"/></svg>