<svg xmlns="http://www.w3.org/2000/svg" width="108.56" height="200" viewBox="0 0 108.56 200"><title>_</title><path d="M30.83 40.65a38.46 38.46 0 0 0-9.14 7.45A42.29 42.29 0 0 0 15 58.22c-.36.76-.7 1.54-1 2.35l53-26.15a72.71 72.71 0 0 0-11.06-.37A64 64 0 0 0 42.28 36a45.11 45.11 0 0 0-11.45 4.65z" fill="#00a8de" opacity=".9"/><path d="M11.11 60.29a62 62 0 0 0-2.7 6.93c-.22.69-.44 1.4-.65 2.11l76.15-25.67a48.82 48.82 0 0 0-5.12-2.73 56.58 56.58 0 0 0-9.69-3.36l-56 18.87a77.45 77.45 0 0 0-1.99 3.85z" fill="#0070b4" opacity=".9"/><path d="M8.91 80.16l-.25 2.78c-.08 3.32-.15 6.62-.15 7.34s4.49 1.15 10 1l4.71-.15 17.54-8.51c.11-1.6.26-3.1.46-4.45a34.47 34.47 0 0 1 .73-3.7 18.55 18.55 0 0 1 .95-2.79A14.3 14.3 0 0 1 45.15 68a12.64 12.64 0 0 1 3.1-2.57 15.75 15.75 0 0 1 4.12-1.66 24.56 24.56 0 0 1 5.28-.71 22 22 0 0 1 3.93.2 16 16 0 0 1 3.35.85 13.15 13.15 0 0 1 5.22 3.6c.12.13.22.28.33.41L100 53.85l-.29-.41a44.06 44.06 0 0 0-6.4-6.93A45 45 0 0 0 85.46 41c-1.14-.63-2.33-1.21-3.54-1.75L9.62 74.31c-.29 1.88-.54 3.84-.71 5.85z" fill="#333391" opacity=".9"/><path d="M29.4 89.93c5.48.43 10 .24 10.11-.41s.36-2.86.64-4.91l.29-1.61v-.12l-18.35 6.48zM71.62 69.39a18.37 18.37 0 0 1 1 3.25 21.13 21.13 0 0 1 .46 3.58v.8l32.06-10.43c-.14-.56-.27-1.11-.43-1.66a42.61 42.61 0 0 0-3.31-8.19L70.29 66.88a17.87 17.87 0 0 1 1.33 2.51z" fill="#932b8d" opacity=".9"/><path d="M74.17 82a24.16 24.16 0 0 1-1.49 9.7 28 28 0 0 1-2.27 4.68 35.21 35.21 0 0 1-3.31 4.59c-.84 1-2 2.15-3.35 3.48s-3.11 2.91-5.06 4.62c-.9.79-1.88 1.63-2.9 2.5l52-26.29v-4a57.83 57.83 0 0 0-1.37-10.14 47.56 47.56 0 0 0-2.41-7.52L73.82 78.83a26.83 26.83 0 0 1 .35 3.17z" fill="#e91388" opacity=".9"/><path d="M50.85 114.44c-2.44 2.15-5.19 4.52-8.18 7.05-3.51 3-6.73 5.9-9.56 8.74a101.68 101.68 0 0 0-7.59 8.44l-.39.51L104 96.07c.1-.35.2-.7.29-1.05a46.92 46.92 0 0 0 1.24-7.73c.1-1.34.15-2.71.14-4.1l-51.08 27.92q-1.76 1.59-3.74 3.33z" fill="#ea245f" opacity=".9"/><path d="M16.38 139.52l-2 2.39c-1.57 2.6-3.93 6.63-5.24 9l-1 2.21a66.85 66.85 0 0 0-2.69 6.85c-.13.41-.25.83-.37 1.24l56.12-19.26.8-.48 9.44-5.52c3.25-1.9 8.1-4.76 10.78-6.36l2.18-1.42c2.18-1.42 4.23-2.84 6.08-4.21s3.58-2.77 5.1-4.11a52.74 52.74 0 0 0 4.12-4 49.37 49.37 0 0 0 4.9-6.25 46.37 46.37 0 0 0 3.26-5.86l-85 29.18a65.34 65.34 0 0 0-6.48 6.6z" fill="#eb2d2e" opacity=".9"/><path d="M5.71 168.87l-.56 2.46c-.19 1.24-.37 2.48-.53 3.55l59.13-19.57-4.47-.44-9.94-1c.55-.54 1.13-1.06 1.73-1.55s1.22-1 1.86-1.41 1.48-1 2.43-1.61 2.09-1.31 3.34-2.07 2.68-1.6 4.23-2.51l.76-.44-56.32 18.61c-.63 1.95-1.2 3.95-1.66 5.98z" fill="#f19432" opacity=".9"/><path d="M5.65 178.64c0 .7 4.41 1.46 9.91 1.69l6.61.27L48 181.64l58.48-23.23a10 10 0 0 0-7.74-4.24l-35-1.42-57.88 23c-.09 1.39-.18 2.49-.21 2.89z" fill="#fde92b" opacity=".9"/><path d="M73.61 181.68l34.64-12.79.29-4.48a9.93 9.93 0 0 0-1.69-6.21l-59 21.8z" fill="#91be4a" opacity=".9"/><path d="M98.38 181.76a10 10 0 0 0 9.7-10.29l-.15-5-33.28 16z" fill="#009e54" opacity=".9"/></svg>