<svg xmlns="http://www.w3.org/2000/svg" width="116.04" height="200" viewBox="0 0 116.04 200"><title>_</title><path d="M60.78 34.5c-1.86 0-3.68.1-5.41.23s-3.42.32-5 .57-3.15.55-4.61.91a41.79 41.79 0 0 0-4.21 1.27c-1.32.48-2.6 1-3.83 1.59S35.28 40.3 34.14 41a38.62 38.62 0 0 0-3.31 2.23 38.08 38.08 0 0 0-3.08 2.59 54.419 54.419 0 0 0-3.54 3.8 49.52 49.52 0 0 0-3 4 45.26 45.26 0 0 0-2.54 4.17l-.71 1.32L70.42 35a71.24 71.24 0 0 0-9.64-.5z" fill="#00a8de" opacity=".9"/><path d="M79.56 36.61a55.69 55.69 0 0 0-9.14-1.82h-.37L18 59.65l-.06.11c-.7 1.7-1.7 4.6-2.23 6.43l-.39 1.68c-.34 1.47-.62 3-.87 4.5l70.63-33.76a47.68 47.68 0 0 0-5.52-2z" fill="#0070b4" opacity=".9"/><path d="M101.85 55.86a38.37 38.37 0 0 0-5.24-6.6 43.19 43.19 0 0 0-6.61-5.5c-.82-.55-1.67-1.06-2.53-1.56L13.28 67.42c-.06.21-.13.42-.19.63-.47 1.7-.88 3.43-1.22 5.16l-.35 1.74c-.29 2-.6 4.16-.69 4.87s4.31 1.7 9.79 2.2l9.09.83 12.4-4.22v-.41l.29-1.43a27.3 27.3 0 0 1 1.1-4 20.87 20.87 0 0 1 1.57-3.36 17.33 17.33 0 0 1 2-2.79 11.92 11.92 0 0 1 2.38-2.05 12.23 12.23 0 0 1 2.87-1.36 15.73 15.73 0 0 1 3.48-.7 24.19 24.19 0 0 1 7.75.64 16.08 16.08 0 0 1 3 1.1A12.88 12.88 0 0 1 69 65.83a12.33 12.33 0 0 1 2 2c.18.24.35.49.51.74L103 57.91c-.35-.7-.74-1.38-1.15-2.05z" fill="#333391" opacity=".9"/><path d="M105 58.25a35.46 35.46 0 0 0-3.06-5L72.18 68.08a14.2 14.2 0 0 1 1.25 1.58 14.67 14.67 0 0 1 1.38 2.6 17 17 0 0 1 .91 3c.13.65.23 1.33.3 2L106.56 62a36.57 36.57 0 0 0-1.56-3.75zM33.81 85.47c5.49-.26 10-1.05 9.9-1.75s-.12-2.4-.19-4.05l-11.7 5.9z" fill="#932b8d" opacity=".9"/><path d="M108.06 82.15a40.46 40.46 0 0 0 .47-6.41 46.34 46.34 0 0 0-.85-8.87 39.14 39.14 0 0 0-1.08-4.19l-31.14 14c0 .47.06.94.06 1.42a24 24 0 0 1-.5 5.19 14.82 14.82 0 0 1-1.46 4 11.46 11.46 0 0 1-2.36 3 13 13 0 0 1-3.41 2.18 16.64 16.64 0 0 1-2.79.93 37.14 37.14 0 0 1-3.94.76c-1.51.22-3.21.39-5 .52l-1.87.13-5.51.19c-.68 0-1.22 4.52-1.2 10v6.08l60.2-27c.16-.69.32-1.31.38-1.93z" fill="#e91388" opacity=".9"/><path d="M103 90.87a32 32 0 0 0 1.92-5.69 33.9 33.9 0 0 0 .7-4.2l-57.05 33.15c.6 4.91 1.55 8.69 2.18 8.63l3.35-.33 46.38-27a32.56 32.56 0 0 0 2.52-4.56zM20.09 133.66c-5.5-.19-10 .24-10 1 0 .45 0 1.84.08 3.58l11.12-4.5z" fill="#ea245f" opacity=".9"/><path d="M42.86 142.12a33.69 33.69 0 0 1-.72-3.4l-.19-1.2c-.13-1.44-.29-3.18-.34-3.87s-4.58-.92-10.06-.52l-11.22.87-10.57 5.62c.14 1 .29 2.2.45 3.36l.54 2.58a68.69 68.69 0 0 0 2 7.39 53.89 53.89 0 0 0 2.51 6.31l28.27-15.14c-.27-.64-.53-1.3-.67-2zM106.51 112.7a34.54 34.54 0 0 0-5.51-5.4c-1.31-1-2.57-1.94-3.73-2.71l-1.15-.76c-1.16-.64-2-1.27-1.82-1.41l.15-.13a30.55 30.55 0 0 0 2.45-2.43C97.73 99 98.51 98 99.27 97c.16-.21.3-.43.46-.65l-47.16 25.59 2.24-.15h1.95c1.94 0 3.74 0 5.36.06a42.53 42.53 0 0 1 4.39.44 22.69 22.69 0 0 1 3.37.77 16.89 16.89 0 0 1 4.49 2.2 13.65 13.65 0 0 1 3.24 3.21 14.77 14.77 0 0 1 1.17 1.94l29.12-15.79c-.44-.69-.9-1.32-1.39-1.92z" fill="#eb2d2e" opacity=".9"/><path d="M109.5 120.3a34.75 34.75 0 0 0-2.74-4.6L77.7 131.62a17.35 17.35 0 0 1 1 2.43 24.83 24.83 0 0 1 1.11 5.74c.06.67.08 1.31.09 2l31.35-17.18a37.69 37.69 0 0 0-1.75-4.31zM47.15 151.28a16.31 16.31 0 0 1-3-3.6 20.19 20.19 0 0 1-1.32-2.52c-.14-.31-.26-.64-.39-1l-27.86 15.91.13.26A43.29 43.29 0 0 0 18.2 166q.91 1.23 1.9 2.38l28.3-16.13a13.94 13.94 0 0 1-1.25-.97z" fill="#f19432" opacity=".9"/><path d="M112.56 151.2a50.74 50.74 0 0 0 1.66-9.05 49.89 49.89 0 0 0 .08-8.55c-.09-1.13-.24-2.24-.42-3.33L80 141.74c-.14.89-.3 1.76-.51 2.57a20.28 20.28 0 0 1-1.36 3.76 16 16 0 0 1-1.93 3.06 14.78 14.78 0 0 1-2.51 2.44 20.1 20.1 0 0 1-3 1.92 17.32 17.32 0 0 1-6.44 1.87 19.56 19.56 0 0 1-3.53 0 25.34 25.34 0 0 1-5.53-1.09 16.76 16.76 0 0 1-4.29-2.07 14.06 14.06 0 0 1-2.17-1.84L17.9 162.82a39.19 39.19 0 0 0 5.18 7.11 40.33 40.33 0 0 0 9.26 7.42c.58.34 1.19.65 1.79 1l78.24-26.54c.07-.22.13-.42.19-.61z" fill="#fde92b" opacity=".9"/><path d="M109.37 154.58a46.59 46.59 0 0 0 2.11-8.09L37 182.18A52.86 52.86 0 0 0 47.36 185c1.76.29 3.61.49 5.5.64l54.36-26a47.07 47.07 0 0 0 2.15-5.06z" fill="#91be4a" opacity=".9"/><path d="M83.79 181.78a43.67 43.67 0 0 0 8.8-4.84 39.9 39.9 0 0 0 7.19-6.63 53.83 53.83 0 0 0 5.43-7.63c.61-1 1.17-2.11 1.69-3.19L52.79 186a82.47 82.47 0 0 0 8.89.15 75.64 75.64 0 0 0 11.8-1.32 55.06 55.06 0 0 0 10.31-3.05z" fill="#009e54" opacity=".9"/></svg>