<svg xmlns="http://www.w3.org/2000/svg" width="118.44" height="200" viewBox="0 0 118.44 200"><title>_</title><path d="M87.22 38.16l-15.06-1.72c-5.46-.62-12.69 2.43-16.05 6.78l-7 9 41.46-13.05a9.89 9.89 0 0 0-3.35-1.01z" fill="#00a8de" opacity=".9"/><path d="M90.37 37.74L50 53.76l-9.14 13.76 55.57-22a10.05 10.05 0 0 0-6.06-7.78z" fill="#0070b4" opacity=".9"/><path d="M95.76 62.21l-1.41-18.62a9.94 9.94 0 0 0-.35-1.87L41.4 70.09 26.47 99.57z" fill="#333391" opacity=".9"/><path d="M52.92 94.41l6.2-10.17c2.86-4.7 5.1-4 5 1.46L64 89.77l32.56-13.65.23-10.32-72.6 30.43-8.87 13.94z" fill="#932b8d" opacity=".9"/><path fill="#e91388" opacity=".9" d="M64 99.81l-.07 10.32 32.34-14.15.14-20.64-32.34 14.14L64 99.81zM38.84 122a6.77 6.77 0 0 1 1.53-4.95L55 96.91l-38.72 12.66-2.74 3.62-6.2 8.2c-.09.12-.63 4.7-1.2 10.17l-.14 1.2z"/><path d="M64 109.45l-.24 4.48a10 10 0 0 1-3.5 7l36.16-13.83.58-10.26-33 12.61zM55.42 126.7h-.74l-8.47-.7c-3.3-.28-5.29-1.87-5.67-4.07L7.9 133.19l-.54 6.28a9.9 9.9 0 0 0 .4 3.75z" fill="#ea245f" opacity=".9"/><path d="M60.88 121.9a10 10 0 0 1-6.12 2.78L8.83 145.53a10 10 0 0 0 9.32 6.24l22.93-.16L102 124c-3.31-1.21-5.76-5-5.79-9.54l-.06-8.52z" fill="#eb2d2e" opacity=".9"/><path d="M55 153a9.92 9.92 0 0 1 5.94 1.47l49.88-26.6c-1.53-3.25-4.43-5.37-7.59-5.15a6.49 6.49 0 0 1-2.31-.26L41.91 154z" fill="#f19432" opacity=".9"/><path d="M63.92 161.22l-.13 10.47v.2l33.09-14.23c1.28-3.51 4.14-6 7.41-5.92 4.4.06 8.06-4.4 8.13-9.9v-1.14l.07-5.64a12 12 0 0 0-.75-4.34l-51.9 22.33a10 10 0 0 1 4.08 8.17z" fill="#fde92b" opacity=".9"/><path d="M68.79 180.48L96.29 168v-6.64a12 12 0 0 1 .65-4l-32.86 14.9a10 10 0 0 0 4.71 8.22z" fill="#91be4a" opacity=".9"/><path d="M74.68 182.67l12.2-1.07A10 10 0 0 0 96 170.77l-.36-3.77-26.4 14.63a9.91 9.91 0 0 0 5.44 1.04z" fill="#009e54" opacity=".9"/></svg>