<svg xmlns="http://www.w3.org/2000/svg" width="115.74" height="200" viewBox="0 0 115.74 200"><title>_</title><path d="M31.11 36.95a11.69 11.69 0 0 0-11.76 9.32l-1 5.49 35.48-13.62z" fill="#00a8de" opacity=".9"/><path fill="#0070b4" opacity=".9" d="M18.68 50.69l-2.3 11.67 62.93-23.03-24.94-1.7-35.69 13.06z"/><path d="M11.88 83.39l30.59-10a12.24 12.24 0 0 1 12.33-7.91l9 .92L104.53 53l.12-1.19a10 10 0 0 0-8.93-11l-14.78-1.45-63.68 20.86z" fill="#333391" opacity=".9"/><path d="M89.58 65.56l13-6.59a9.89 9.89 0 0 0 .68-4.13l-.38-7.43-38.27 19.44zM13.05 100.24l28.86-13.71c.08-1.72.35-4.4.77-7.47l.51-3.72c0-.25.09-.5.14-.75L14.26 88.41z" fill="#932b8d" opacity=".9"/><path d="M12.21 113.42a9.09 9.09 0 0 0 6.54 9.26l65.65-36a45.08 45.08 0 0 0-14.29-3.76 50.61 50.61 0 0 0-9 0c-1.49.12-2.94.29-4.32.51s-2.73.47-4 .78-2.52.66-3.68 1.06a33.3 33.3 0 0 0-3.36 1.35c-.64.3-1.34.68-2.1 1.12s-1.51.92-2.35 1.48l-.3.19c-.18.12-.28-.62-.29-2l-28 15.36zM93.33 65.86a10 10 0 0 0 9.08-6l-13.25 6z" fill="#e91388" opacity=".9"/><path d="M19.19 118.35l9.22 1.05c5.46.62 10.12.83 10.35.45s.93-1.45 1.56-2.39l.65-.73a14.92 14.92 0 0 1 2.03-1.94 14.44 14.44 0 0 1 2.38-1.48 15.68 15.68 0 0 1 2.68-1c.55-.15 1.13-.27 1.73-.37s1.25-.18 1.91-.23 1.38-.08 2.1-.08 1.49 0 2.28.08a23.37 23.37 0 0 1 3.95.6L95.62 99.2l-.12-.13a51 51 0 0 0-6.79-5.9c-.71-.51-1.43-1-2.17-1.46l-70.28 25.82a9.58 9.58 0 0 0 2.93.82z" fill="#ea245f" opacity=".9"/><path d="M61.09 110.8a16.07 16.07 0 0 1 3.65 1.42 13.33 13.33 0 0 1 2.91 2.14 14.16 14.16 0 0 1 2.29 2.91 24.72 24.72 0 0 1 1.8 3.73 26.77 26.77 0 0 1 1.26 4c.18.83.31 1.68.43 2.55L106 115.23c-.18-.69-.37-1.37-.58-2a41.33 41.33 0 0 0-3.86-8.67A38.67 38.67 0 0 0 96 97.28l-35.44 13.41zM38.19 139.46c-.13-.56-4.73-.84-10.22-.61l-12.5.5c-5.5.22-9.92 1-9.84 1.74s.62 4.36 1.19 8.05l.87 3a48.74 48.74 0 0 0 1.93 5.43L39.07 143c-.37-1.42-.75-3-.88-3.54z" fill="#eb2d2e" opacity=".9"/><path d="M42.78 153a21 21 0 0 1-1.31-3 27.79 27.79 0 0 1-1-3.56l-.26-1.28v-.18L9.13 155.47c.31 1.14.65 2.25 1 3.33a41.43 41.43 0 0 0 2.78 6.11l30.74-10.4a17.66 17.66 0 0 1-.87-1.51zM74.7 130.57a39.08 39.08 0 0 1 .45 4.88 38.14 38.14 0 0 1-.1 4.16l33.23-16.1c-.13-.81-.26-1.61-.42-2.39a52.1 52.1 0 0 0-2.13-7.68l-31.41 15.23c.14.63.27 1.26.38 1.9z" fill="#f19432" opacity=".9"/><path d="M75.58 141.06a29.74 29.74 0 0 1-1.31 4.34 24.7 24.7 0 0 1-1.87 3.8 22.72 22.72 0 0 1-2.4 3.29 15.6 15.6 0 0 1-2.84 2.51 14.38 14.38 0 0 1-3.24 1.66 16.47 16.47 0 0 1-3.77.86 22.39 22.39 0 0 1-4.38 0 24.92 24.92 0 0 1-3.79-.61 17.38 17.38 0 0 1-3.13-1.08 13.05 13.05 0 0 1-2.52-1.51 11.58 11.58 0 0 1-2-2c-.26-.32-.5-.67-.74-1L12.92 162q.54.95 1.12 1.86a40.76 40.76 0 0 0 5.57 6.89 46.23 46.23 0 0 0 6.88 5.63c.82.55 1.68 1.07 2.55 1.57l78.42-27.08c.47-1.36.89-2.73 1.25-4.12a59.91 59.91 0 0 0 1.68-9.86 70.84 70.84 0 0 0 .23-8.63l-34.9 12.05c-.04.23-.08.5-.14.75z" fill="#fde92b" opacity=".9"/><path d="M36.58 182.08a55.8 55.8 0 0 0 9.1 2.34l.32.06 55.89-23.33a55.88 55.88 0 0 0 4-8.18c.65-1.69 1.22-3.44 1.7-5.2L31 179.72a49 49 0 0 0 5.58 2.36z" fill="#91be4a" opacity=".9"/><path d="M56.06 185.57a70.84 70.84 0 0 0 12.19-.93 52.1 52.1 0 0 0 10.73-3 42.87 42.87 0 0 0 9.2-5.07 41.49 41.49 0 0 0 7.57-7.14 61.87 61.87 0 0 0 5.79-8.28c.12-.21.23-.42.35-.63l-55.48 24.33a69.27 69.27 0 0 0 9.65.72z" fill="#009e54" opacity=".9"/></svg>