<svg xmlns="http://www.w3.org/2000/svg" width="116.55" height="200" viewBox="0 0 116.55 200"><title>_</title><path d="M69.94 35.87a69.11 69.11 0 0 0-9.67-1.12 56.7 56.7 0 0 0-6.91.08 47.91 47.91 0 0 0-6.5.93 42.26 42.26 0 0 0-6.08 1.79 39.84 39.84 0 0 0-5.63 2.65 51.4 51.4 0 0 0-5.08 3.31 50.43 50.43 0 0 0-4.61 3.86 51.54 51.54 0 0 0-4.14 4.41 54.7 54.7 0 0 0-3.67 4.95l-.35.55L71.49 36.2c-.49-.12-1.03-.2-1.55-.33z" fill="#00a8de" opacity=".9"/><path d="M78.16 36.61a52.53 52.53 0 0 0-7.22-1.73L17.87 58.59a63.07 63.07 0 0 0-3 6.09A74.38 74.38 0 0 0 12.12 72L85 39.43a44.47 44.47 0 0 0-6.84-2.82z" fill="#0070b4" opacity=".9"/><path d="M42.48 80.33l.07-.33c.08-.36.48-.4.88-.08h.76l.63-.31a1.5 1.5 0 0 0-1-2.65h-.18c-.18.05-.21-.25-.08-.68l.12-.37a29.91 29.91 0 0 1 2.88-6.26 18.42 18.42 0 0 1 3.67-4.33 14.76 14.76 0 0 1 4.46-2.61 17.74 17.74 0 0 1 5.49-1 18.33 18.33 0 0 1 3.75.23 13.2 13.2 0 0 1 3.13.93 11.39 11.39 0 0 1 2.61 1.61 12.54 12.54 0 0 1 1.95 2l28.66-14A38.79 38.79 0 0 0 97.7 49a40.69 40.69 0 0 0-5.77-5.63 40 40 0 0 0-6.93-4.5c-.33-.17-.67-.32-1-.48l-71.69 35v.09c-.72 2.6-1.34 5.36-1.85 8.19s-.92 5.84-1.22 8.9c-.24 1.76-.36 3.64-.46 5.64v1l33.61-16.49z" fill="#333391" opacity=".9"/><path d="M51.66 86.91a36.59 36.59 0 0 0-3.84 1.2 32.25 32.25 0 0 0-3.66 1.64c-.5.26-1 .55-1.48.84l9.22-3.73zM39.72 90.49c0-2.36.14-4.58.3-6.62.14-1.84.33-3.58.56-5.19L8 97.14c0 1.71.07 3.49.16 5.35s.19 3.71.33 5.74l31.26-17.7zM44.37 79.17l-.62.33a1.48 1.48 0 0 0 .62-.33zM71.7 65.92a19.29 19.29 0 0 1 .87 1.86 13.8 13.8 0 0 1 .56 1.68 9.88 9.88 0 0 1 .25 1.54v.45c0 .47-.08 1.42-.14 2.1 0 .32 1 .71 2.59 1.07l29.06-10a41.21 41.21 0 0 0-1.79-6c-.44-1.13-.94-2.24-1.48-3.33L71.51 65.62c.06.1.13.19.19.3z" fill="#932b8d" opacity=".9"/><path d="M84.71 76.69l12.91-1.18c5.48-.5 9.85-1.51 9.72-2.25s-.81-3.89-1.51-7l-.94-2.58c-.21-.58-.44-1.16-.68-1.73L77.37 77a58.18 58.18 0 0 0 7.34-.31zM5.59 123.91L90.18 96a41.05 41.05 0 0 0-6.06-4 43.47 43.47 0 0 0-8.35-3.4 51.77 51.77 0 0 0-9.33-1.78c-1.52-.15-3-.24-4.48-.26s-2.9 0-4.3.13-2.61.28-3.87.5l-9.43 3.11c-.69.35-1.37.72-2 1.12l-.36.22c-.39.25-.66.2-.59-.12l.06-.25-34.15 11.25c-.06.43-.11.85-.17 1.29a310 310 0 0 0-.86 7.74c-.43 4.26-.66 8.45-.7 12.36z" fill="#e91388" opacity=".9"/><path d="M6.86 125.46v1.07c.13 3.17.38 6.25.75 9.2L41.21 123l.13-.3a18.25 18.25 0 0 1 2.48-3.94 16.37 16.37 0 0 1 3.3-3 18.34 18.34 0 0 1 2.59-1.51 16.9 16.9 0 0 1 2.71-1 17.38 17.38 0 0 1 2.88-.54 19.47 19.47 0 0 1 3.07-.06 18.68 18.68 0 0 1 3.7.58 16.3 16.3 0 0 1 2.57.94l33.55-12.68-.19-.25a44.19 44.19 0 0 0-6.49-6.32c-.42-.33-.86-.65-1.3-1z" fill="#ea245f" opacity=".9"/><path d="M64.58 115.47c.26.07.52.13.77.21a16.55 16.55 0 0 1 3.23 1.5 19.69 19.69 0 0 1 3.06 2.29 17.29 17.29 0 0 1 2.6 3 21 21 0 0 1 2 3.74 28.32 28.32 0 0 1 1.47 4.57l29.68-16.66c-.28-.65-.56-1.3-.86-1.92a45.1 45.1 0 0 0-4.73-7.78 45.79 45.79 0 0 0-6-6.46zM41.43 146.25c-.11-.36-.24-.71-.34-1.07a27.16 27.16 0 0 1-.79-4.56 34.94 34.94 0 0 1-.06-5.1 37.48 37.48 0 0 1 .84-6.14 25.05 25.05 0 0 1 1.56-4.71L9.07 137.3q.19 1.57.43 3.09a82.72 82.72 0 0 0 2.5 11.14q.8 2.62 1.77 5.11z" fill="#eb2d2e" opacity=".9"/><path d="M76.21 128a40.32 40.32 0 0 1-.26 5.5 38.21 38.21 0 0 1-.87 4.91c0 .11-.06.21-.09.33l34.64-11c0-1 0-1.9-.07-2.83a50.94 50.94 0 0 0-.9-7.23zM47.33 153.23a20.38 20.38 0 0 1-1.94-1.88 21.46 21.46 0 0 1-2.49-3.42 22.57 22.57 0 0 1-1.39-2.88l-26.7 12.6c.79 1.63 1.63 3.19 2.53 4.69.8 1.34 1.66 2.61 2.54 3.84z" fill="#f19432" opacity=".9"/><path d="M76.48 140.95a29 29 0 0 1-.93 4.06 23.7 23.7 0 0 1-1.55 3.83 21 21 0 0 1-2.14 3.31 16.19 16.19 0 0 1-2.56 2.6 14 14 0 0 1-2.92 1.8A14.76 14.76 0 0 1 63 157.6a20.19 20.19 0 0 1-7.89-.16 16.37 16.37 0 0 1-6.73-3.26c-.34-.28-.67-.59-1-.9l-28 11.84a48.72 48.72 0 0 0 5 6.48 42.31 42.31 0 0 0 9.41 7.6c.43.25.87.47 1.31.71L108.11 149c.46-1.68.85-3.39 1.15-5.12a64.22 64.22 0 0 0 1-10 62.71 62.71 0 0 0-.27-7.12z" fill="#fde92b" opacity=".9"/><path d="M47.21 186.22c1.33.21 2.7.35 4.09.45l51.11-27.8a56.43 56.43 0 0 0 3.13-9.06c.36-1.44.66-2.9.91-4.39l-69.58 37.85a44.29 44.29 0 0 0 10.34 2.95z" fill="#91be4a" opacity=".9"/><path d="M59.25 186.27a70.42 70.42 0 0 0 12-1.4 50.55 50.55 0 0 0 10.41-3.35 40.45 40.45 0 0 0 8.73-5.35 38.58 38.58 0 0 0 6.95-7.33 59.94 59.94 0 0 0 5.11-8.39v-.05l-52.3 25.49a58.94 58.94 0 0 0 9.1.38z" fill="#009e54" opacity=".9"/></svg>