<svg xmlns="http://www.w3.org/2000/svg" width="117.3" height="200" viewBox="0 0 117.3 200"><title>_</title><path d="M5.36 46.79l-.19 4.53 33-13.68-22.41-.58a10.22 10.22 0 0 0-10.4 9.73z" fill="#00a8de" opacity=".9"/><path d="M6.26 60.27A9.79 9.79 0 0 0 8 65.05l53-30.86-24.4 2.66-30.87 18z" fill="#0070b4" opacity=".9"/><path d="M15.91 69.27L45 67.82l61-30.91A9.93 9.93 0 0 0 99.74 35l-13.45.67-24.51 1.27-54.7 27.7a9.83 9.83 0 0 0 8.83 4.63z" fill="#333391" opacity=".9"/><path d="M61.4 66c2.25.17 4.24.42 5.76.7l43.66-15.55.11-1.4a10 10 0 0 0-3.19-8.1l-64.45 23z" fill="#932b8d" opacity=".9"/><path d="M71.41 68.3l-.55.64c-2 2.31-4.13 5-6.35 8s-4.55 6.25-7 9.84c-2 2.9-4 6.07-6.14 9.42l48.2-20.52c1-1.3 2-2.54 2.95-3.68 1.46-1.77 2.82-3.36 4-4.72l1.22-1.35 2.52-2.5c.21-.2.45-4.86.54-10.36l.06-3.92L68.3 67.26c2.21.26 3.46.64 3.11 1.04z" fill="#e91388" opacity=".9"/><path d="M50.22 98.57c-2.41 4-4.66 8-6.77 12l44.9-18.89c1.46-2.14 3-4.27 4.49-6.34 1.89-2.56 3.71-5 5.39-7.13l1.77-2.29-48.29 20.31z" fill="#ea245f" opacity=".9"/><path d="M39.54 118.63a189.09 189.09 0 0 0-8 18l41.09-16c.48-1 1-2 1.44-2.93 1.37-2.69 2.82-5.39 4.32-8s3.11-5.3 4.76-7.88 3.41-5.21 5.2-7.74c.33-.46.67-.91 1-1.37L44 110.33c-1.57 2.78-3.07 5.55-4.46 8.3z" fill="#eb2d2e" opacity=".9"/><path d="M31.9 139.5c-1.19 3.51-2.24 7-3.16 10.55l39.41-16.63c.19-.54.37-1.11.56-1.64.93-2.61 1.89-5.15 2.87-7.52q.8-2 1.63-3.81l-40.63 17.14c-.23.63-.47 1.27-.68 1.91z" fill="#f19432" opacity=".9"/><path d="M27.77 161.7c-.51 6.64-.42 9.7-.42 9.7 0 1.59.09 3.14.14 4.56l34.39-19.58c.3-2.87.7-5.95 1.18-9.15s1-6.28 1.54-9.27c.43-2.35.9-4.63 1.39-6.85l-37.17 21.12c-.45 3.19-.82 6.35-1.05 9.47z" fill="#fde92b" opacity=".9"/><path d="M23.92 178.73c-.08.58 2.86 1.38 6.94 2l28.61-9.34c.27-1.19.57-2.42.9-3.67.65-2.48 1.42-5.12 2.29-7.87L25 172.09c-.56 3.46-1 6.14-1.08 6.64z" fill="#91be4a" opacity=".9"/><path d="M35.53 183l13.93-1.33c5.48-.52 9.9-1.51 9.84-2.19s-.25-3.08-.41-5.31v-2.25-3.5l-26.2 14.77c.9-.06 1.85-.13 2.84-.19z" fill="#009e54" opacity=".9"/></svg>