<svg xmlns="http://www.w3.org/2000/svg" width="120.8" height="200" viewBox="0 0 120.8 200"><title>_</title><path d="M60.27 34.83a72.88 72.88 0 0 0-10.38.62 54.06 54.06 0 0 0-9.27 2.06 42.91 42.91 0 0 0-8.12 3.54 38 38 0 0 0-6.92 5 42.89 42.89 0 0 0-5.46 6 37 37 0 0 0-3.9 6.6l53.42-23.16a73.86 73.86 0 0 0-9.37-.66z" fill="#00a8de" opacity=".9"/><path d="M79.84 37.63a54.13 54.13 0 0 0-9.24-2.17l-1-.13-53.31 23.53-.05.14a36.06 36.06 0 0 0-2.37 7.37 38.6 38.6 0 0 0-.66 4.75l71.44-31.56a44.53 44.53 0 0 0-4.81-1.93z" fill="#0070b4" opacity=".9"/><path d="M46 77.34a1.49 1.49 0 0 0-1.35-1.87h-.22c-.18 0-.23-.68-.1-1.6l.18-.77a16.66 16.66 0 0 1 1-3 13.29 13.29 0 0 1 1.42-2.48A12.38 12.38 0 0 1 51.05 64a13.36 13.36 0 0 1 2.66-1.07 16.87 16.87 0 0 1 3.11-.56 24.79 24.79 0 0 1 7.21.49 16.78 16.78 0 0 1 3 1 13 13 0 0 1 2.47 1.41 11.88 11.88 0 0 1 2 1.85c.19.22.35.45.52.68l29.85-10.93c-.3-.53-.61-1.06-.94-1.58a42.82 42.82 0 0 0-5-6.44 38.22 38.22 0 0 0-6.51-5.55c-1-.68-2.06-1.31-3.15-1.91L13 68.21c-.15 1-.27 2.09-.35 3.16a35.66 35.66 0 0 0-.05 3.8c0 1.28.17 2.6.35 3.93s.43 2.69.74 4.06.69 2.76 1.13 4.19c.13.41.27.82.42 1.23z" fill="#333391" opacity=".9"/><path d="M72.43 68.44a12.33 12.33 0 0 1 1.27 1.39 13.4 13.4 0 0 1 1.48 2.44 16.86 16.86 0 0 1 1.06 3 22.07 22.07 0 0 1 .44 2.23l28.5-16.3a35.69 35.69 0 0 0-1.78-3.59 36.55 36.55 0 0 0-3.4-4.96zM48.56 87.15a13.82 13.82 0 0 1-1.69-1.89 13.63 13.63 0 0 1-1.41-2.43 15.39 15.39 0 0 1-.94-2.83l-.12-.49c-.1-.57 0-1 .13-1h.16a1.5 1.5 0 0 0 1.39-1.31l-29 15.17a25.65 25.65 0 0 0 1.9 3 31.15 31.15 0 0 0 3.4 3.9c.34.33.69.65 1 1z" fill="#932b8d" opacity=".9"/><path d="M105.46 79.09c.19-1.32.31-2.65.37-3.93a35.63 35.63 0 0 0 0-3.8 39.84 39.84 0 0 0-1.28-7.87 36.29 36.29 0 0 0-1.17-3.55L74.27 75.16c0 .43.1.86.13 1.32a20.16 20.16 0 0 1 0 3.28 15.84 15.84 0 0 1-.57 2.91 13.61 13.61 0 0 1-2.65 4.91 11.9 11.9 0 0 1-2 1.9 12.83 12.83 0 0 1-2.47 1.43 16.27 16.27 0 0 1-3 1 23.72 23.72 0 0 1-7.18.46 16.36 16.36 0 0 1-3.1-.6 13.2 13.2 0 0 1-2.65-1.12A12.43 12.43 0 0 1 48.43 89l-.21-.21-25.11 13.15c1 .9 2.08 1.78 3.24 2.63l.52.43a.85.85 0 0 1 .12 1.47l-.48.36a36.86 36.86 0 0 0-4.33 3.86 35.83 35.83 0 0 0-3.63 4.47 37.29 37.29 0 0 0-2.91 5.05 42.46 42.46 0 0 0-3.31 9.79L105 81.52c.21-.82.35-1.63.46-2.43z" fill="#e91388" opacity=".9"/><path d="M97.84 97.44l.27-.29a27.19 27.19 0 0 0 3.05-4.05 23.11 23.11 0 0 0 2.09-4.39c.49-1.4.92-2.79 1.28-4.14.14-.54.27-1.08.39-1.62L10.71 128.5c-.1.41-.22.81-.31 1.22a47 47 0 0 0-.88 5.88c-.13 1.5-.17 3.05-.17 4.61z" fill="#ea245f" opacity=".9"/><path d="M7.64 145a44 44 0 0 0 1.68 8.59c.12.4.26.8.4 1.2l32-11c-.11-.71-.19-1.44-.23-2.19a31.69 31.69 0 0 1 .09-4.58 33.24 33.24 0 0 1 .73-4.69 23.09 23.09 0 0 1 1.28-3.9 16.93 16.93 0 0 1 1.79-3.16 14.08 14.08 0 0 1 2.27-2.47 15.34 15.34 0 0 1 2.75-1.88 15.6 15.6 0 0 1 3.12-1.24 18.63 18.63 0 0 1 3.56-.62 25.85 25.85 0 0 1 8 .71 18.54 18.54 0 0 1 3.4 1.23 15.58 15.58 0 0 1 2.86 1.77 15.3 15.3 0 0 1 2.38 2.33 14.21 14.21 0 0 1 1.81 2.83 17 17 0 0 1 1.21 3.42c0 .12 0 .25.07.37l30-10.34a39.17 39.17 0 0 0-6-9.48 43.23 43.23 0 0 0-4.18-4.25l-.5-.45a.85.85 0 0 1 0-1.48l.49-.31a35 35 0 0 0 4.06-3l-92.93 32c-.06.5-.13 1-.18 1.5a50 50 0 0 0 .07 9.09z" fill="#eb2d2e" opacity=".9"/><path d="M77 130.27a23.18 23.18 0 0 1 .9 3.63 33.21 33.21 0 0 1 .41 4.73v2l31.55-14.74c-.37-1.19-.78-2.37-1.25-3.51a44.7 44.7 0 0 0-2.55-5.23c-.07-.13-.16-.25-.23-.37zM48 153.4c-.34-.29-.67-.58-1-.9a15.1 15.1 0 0 1-2.09-2.68 17.4 17.4 0 0 1-1.55-3.26c-.2-.55-.37-1.14-.53-1.74l-30.6 14.38a43.4 43.4 0 0 0 3.68 6.48c.48.7 1 1.39 1.52 2.07z" fill="#f19432" opacity=".9"/><path d="M79.33 141.75c-.14.87-.29 1.71-.49 2.5a22.44 22.44 0 0 1-1.29 3.81 17.4 17.4 0 0 1-1.79 3.13 15.15 15.15 0 0 1-2.29 2.52 14.73 14.73 0 0 1-2.74 1.9 15.08 15.08 0 0 1-3.13 1.25 18.4 18.4 0 0 1-3.6.6 26.08 26.08 0 0 1-8.18-.79 18.38 18.38 0 0 1-3.42-1.28 15.07 15.07 0 0 1-2.83-1.83 14.55 14.55 0 0 1-1.45-1.39l-32 10.7a48.67 48.67 0 0 0 3.67 5.25 38.92 38.92 0 0 0 6.7 6.54 42.9 42.9 0 0 0 5.88 3.76l79.38-26.52a47.25 47.25 0 0 0 1.23-7.08 53.24 53.24 0 0 0 .24-6.11 48.13 48.13 0 0 0-.48-5.91c-.1-.7-.24-1.39-.37-2.08z" fill="#fde92b" opacity=".9"/><path d="M37.17 181.79a56.54 56.54 0 0 0 10.12 2.64c1 .17 2.06.31 3.12.44l56.93-24.2c.41-.77.8-1.54 1.16-2.33a41.65 41.65 0 0 0 2.79-8.4c.14-.63.26-1.27.37-1.92l-77 32.74c.8.37 1.65.71 2.51 1.03z" fill="#91be4a" opacity=".9"/><path d="M57.86 183.43a79.34 79.34 0 0 0 11.61.46A59.55 59.55 0 0 0 80 182.58a47.94 47.94 0 0 0 9.46-3.12 43.44 43.44 0 0 0 8.31-4.95 48.66 48.66 0 0 0 6.83-6.26 42.83 42.83 0 0 0 3.84-5l-58.89 18.84a81.75 81.75 0 0 0 8.31 1.34z" fill="#009e54" opacity=".9"/></svg>