<svg xmlns="http://www.w3.org/2000/svg" width="116.67" height="200" viewBox="0 0 116.67 200"><title>_</title><path d="M55.55 33.07a57.58 57.58 0 0 0-10.37 1.66 47.76 47.76 0 0 0-9.3 3.46 44.52 44.52 0 0 0-8.17 5.27 47.44 47.44 0 0 0-7 7 49.16 49.16 0 0 0-5.47 8.41c-.33.64-.63 1.29-.93 1.94l51.95-27.65a65.37 65.37 0 0 0-10.71-.09z" fill="#00a8de" opacity=".9"/><path d="M73 37.71c-1.53-.5-3.13-.94-4.78-1.31l-55.1 20.69a50.65 50.65 0 0 0-3.68 7.05 55.3 55.3 0 0 0-2 5.63l74.6-28A46.5 46.5 0 0 0 73 37.71z" fill="#0070b4" opacity=".9"/><path d="M39.2 78.27c.06-.27.12-.54.18-.8a26.94 26.94 0 0 1 1.85-5.2 18.42 18.42 0 0 1 2.57-4 15.15 15.15 0 0 1 3.29-2.87 15.88 15.88 0 0 1 2.43-1.3 15.72 15.72 0 0 1 2.61-.84A17.23 17.23 0 0 1 55 62.9a20.61 20.61 0 0 1 3 .1 21 21 0 0 1 4.08.76 16.33 16.33 0 0 1 3.44 1.46 15 15 0 0 1 2.89 2.16c.25.23.47.5.71.76l29.34-10c-.56-1-1.14-2-1.74-2.88a43.43 43.43 0 0 0-9.51-10.39 42.52 42.52 0 0 0-3.61-2.52L8.17 68a59.85 59.85 0 0 0-1.3 4.37A71.57 71.57 0 0 0 5 83.45c-.2 2.24-.29 4.42-.28 6.55z" fill="#333391" opacity=".9"/><path d="M69.17 66.49a17 17 0 0 1 1.89 2 20 20 0 0 1 2.17 3.41 23.29 23.29 0 0 1 1.24 3l27.87-12.32A56.52 56.52 0 0 0 97.51 54zM40.25 92a49.86 49.86 0 0 1 .29-5.12 43.66 43.66 0 0 1 1-5.66L6.86 92.43c0 1.45 0 2.87.09 4.25a51.06 51.06 0 0 0 .7 5.86z" fill="#932b8d" opacity=".9"/><path d="M74.49 75c.11.33.24.64.34 1a30.76 30.76 0 0 1 1 4.68 41.89 41.89 0 0 1 .35 5.37 35.47 35.47 0 0 1-.53 6.46 24 24 0 0 1-1.13 4.13l33.55-15.07c-.53-2.88-1.15-5.64-1.87-8.23a72.64 72.64 0 0 0-3.13-9q-.38-.89-.78-1.76zM51.36 105.33c-.47-.11-.94-.21-1.38-.35a14.07 14.07 0 0 1-3.17-1.44 13 13 0 0 1-2.6-2.13 16 16 0 0 1-2.15-2.91 22.16 22.16 0 0 1-1.72-3.77A32.83 32.83 0 0 1 39.11 90c0-.16-.06-.33-.09-.49l-30.2 16.22c.47 1.27 1 2.51 1.54 3.69a40.38 40.38 0 0 0 5 7.94 38.54 38.54 0 0 0 4.61 4.81z" fill="#e91388" opacity=".9"/><path d="M73.68 95.72c-.11.39-.23.77-.36 1.14a17 17 0 0 1-2.21 4.3 16.34 16.34 0 0 1-3.33 3.42 19.39 19.39 0 0 1-2.17 1.48 17.13 17.13 0 0 1-2.24 1.1 16.3 16.3 0 0 1-2.33.74 16.88 16.88 0 0 1-2.45.39 27.39 27.39 0 0 1-4.57 0 19.61 19.61 0 0 1-2.47-.37l-31.2 17.28c.65.56 1.32 1.1 2 1.62a52.65 52.65 0 0 0 7.22 4.54l78.52-43.49c-.51-2.79-1.09-5.48-1.72-8-.17-.68-.35-1.35-.53-2z" fill="#ea245f" opacity=".9"/><path d="M27.32 128l.32.21a46.28 46.28 0 0 0 7.64 3.91 44.86 44.86 0 0 0 8.17 2.38 48.21 48.21 0 0 0 8.65.83 52.32 52.32 0 0 0 5.77-.27c1.38-.14 2.71-.36 4-.62l13.79-6a1 1 0 0 1 .8-.35l33.6-14.66c.06-1.69.1-3.41.11-5.15 0-4.45-.08-8.75-.34-12.77-.07-1.15-.16-2.28-.26-3.39zM31.55 143.76l-12.62.69c-5.49.3-9.89 1.16-9.77 1.91s.77 4.11 1.44 7.46l.95 2.73c.13.38.28.75.42 1.12l27.25-14a68.24 68.24 0 0 0-7.67.09z" fill="#eb2d2e" opacity=".9"/><path d="M43.34 149.71a14.56 14.56 0 0 1-1.16-2.19l-.34-.79c-.28-1-.63-2.22-.78-2.79-.07-.26-1-.4-2.57-.44l-26.66 15a40.71 40.71 0 0 0 3.43 6.5c.47.72 1 1.41 1.5 2.1l27.87-15.73a13.4 13.4 0 0 1-1.29-1.66zM76.52 126.38v.21c-.47 2.28-1 4.41-1.49 6.34a66.65 66.65 0 0 1-1.43 4.7l36-11.56c.25-1.22.49-2.45.72-3.7.42-2.33.79-4.77 1.13-7.25l-34.9 11.22a.07.07 0 0 1-.03.04zM63.58 134.59a36 36 0 0 0 4.81-1.89 32 32 0 0 0 4.32-2.5 26.83 26.83 0 0 0 2.23-1.7l.49-.41.14-.12-13.32 7c.44-.13.9-.24 1.33-.38z" fill="#f19432" opacity=".9"/><path d="M75.76 141.33a41.57 41.57 0 0 1-1.67 4.27 29 29 0 0 1-3.55 5.85 18 18 0 0 1-4.14 3.84 14.71 14.71 0 0 1-4.77 2 18.1 18.1 0 0 1-5.65.34 20.13 20.13 0 0 1-3-.48 15.05 15.05 0 0 1-2.54-.85 12.15 12.15 0 0 1-2.13-1.2 11.4 11.4 0 0 1-1.78-1.56 13.82 13.82 0 0 1-1.48-1.92l-.15-.25-30.26 10.4a36.47 36.47 0 0 0 2.93 4.84 37.63 37.63 0 0 0 5.56 6.14 52.14 52.14 0 0 0 6.3 4.8l75.55-26c.74-1.74 1.44-3.53 2.08-5.38 1.12-3.19 2.13-6.63 3-10.2.59-2.42 1.13-5 1.61-7.58L76 140.73z" fill="#fde92b" opacity=".9"/><path d="M32.32 181.34a48 48 0 0 0 13.48 4.35l53-25.16a70.59 70.59 0 0 0 4.22-9.63c.44-1.26.86-2.56 1.25-3.88l-72.13 34.23z" fill="#91be4a" opacity=".9"/><path d="M46.09 183.1a53.06 53.06 0 0 0 8.05 1.36 57.78 57.78 0 0 0 16.22-.66 44.7 44.7 0 0 0 14.07-5.23 46.87 46.87 0 0 0 11.69-9.77 57.19 57.19 0 0 0 3.89-5l-55.59 18.84c.58.16 1.11.36 1.67.46z" fill="#009e54" opacity=".9"/></svg>