<svg xmlns="http://www.w3.org/2000/svg" width="37.49" height="200" viewBox="0 0 37.49 200"><title>_</title><path d="M13.13 128.36A10 10 0 0 0 4.47 135l12.9-7z" fill="#00a8de" opacity=".9"/><path d="M18 128.85l-13.85 4.93a9.89 9.89 0 0 0-1.06 3.13l21.23-7.58z" fill="#0070b4" opacity=".9"/><path d="M28 128.57h-4l-20.6 9.09v5.69l29.95-13.22a9.91 9.91 0 0 0-5.35-1.56z" fill="#333391" opacity=".9"/><path d="M33.13 129.87l-29.68 13.8v2.84l31.85-14.82a10.1 10.1 0 0 0-2.17-1.82z" fill="#932b8d" opacity=".9"/><path d="M36 132.8L3.15 145.28 3 148.12 2.83 151 38 137.57a10 10 0 0 0-2-4.77z" fill="#e91388" opacity=".9"/><path d="M37.69 137.94a9.94 9.94 0 0 0-.26-1.93L3.59 152.52v.82a9.94 9.94 0 0 0 .26 1.93l33.84-16.5z" fill="#ea245f" opacity=".9"/><path d="M38.08 142.52l.05-2.84-34.67 14.68A10 10 0 0 0 5.68 159L38 145.36z" fill="#eb2d2e" opacity=".9"/><path d="M38.11 145.36L5.74 159a10.1 10.1 0 0 0 2.15 1.91l30.16-12.72z" fill="#f19432" opacity=".9"/><path d="M37.94 147.85L8.06 161.22a9.91 9.91 0 0 0 5.32 1.54h4l20.58-9.21v-5.69z" fill="#fde92b" opacity=".9"/><path d="M23.69 162.74l13.4-6a9.89 9.89 0 0 0 .82-3.2l-20.6 9.16h6.38z" fill="#91be4a" opacity=".9"/><path d="M28 162.78a10 10 0 0 0 9-6.1l-13.31 6.17z" fill="#009e54" opacity=".9"/><path d="M13.36 55.4a10 10 0 0 0-9.14 6l13.4-6h-4.26z" fill="#00a8de" opacity=".9"/><path d="M17.45 55.25L4.28 61.72a9.89 9.89 0 0 0-.7 3.28l20.24-10z" fill="#0070b4" opacity=".9"/><path d="M28.68 56.45L24.75 56 3.3 63c-.05.27-.1.54-.13.82L3 65.83l-.3 2.82 31.1-10.1a9.91 9.91 0 0 0-5.12-2.1z" fill="#333391" opacity=".9"/><path d="M33.81 58L3 69.1l-.2 2.83 33-12A10.1 10.1 0 0 0 33.81 58z" fill="#932b8d" opacity=".9"/><path d="M35.91 59.54L3.18 72.27 3 75.11l-.1 2.83L38 64.29a10 10 0 0 0-2.09-4.75z" fill="#e91388" opacity=".9"/><path d="M37.83 65.11a9.94 9.94 0 0 0-.22-1.93L3.47 79.07v.82a9.94 9.94 0 0 0 .22 1.93l34.16-15.89v-.82z" fill="#ea245f" opacity=".9"/><path d="M38.53 70.65l.26-2.83L3.14 79.94A10 10 0 0 0 5 84.78l33.26-11.3z" fill="#eb2d2e" opacity=".9"/><path d="M38.53 73.16L5.43 84.92a10.1 10.1 0 0 0 2 2L38.31 76z" fill="#f19432" opacity=".9"/><path d="M38.35 75.6L7.74 87.18A9.91 9.91 0 0 0 13 89l3.95.23 21.09-8c0-.27.07-.55.09-.83l.12-2z" fill="#fde92b" opacity=".9"/><path d="M23.61 89.53l13.51-5.72a9.89 9.89 0 0 0 .88-3.19l-20.77 8.79z" fill="#91be4a" opacity=".9"/><path d="M27.82 89.48a10 10 0 0 0 9.41-5.53l-13.67 5.33z" fill="#009e54" opacity=".9"/></svg>