<svg xmlns="http://www.w3.org/2000/svg" width="45.36" height="200" viewBox="0 0 45.36 200"><title>_</title><path d="M16 53.19A10 10 0 0 0 6.79 59l13.51-5.7z" fill="#00a8de" opacity=".9"/><path d="M20 53L6.92 59.54a9.89 9.89 0 0 0-.67 3.24l20.15-10.1z" fill="#0070b4" opacity=".9"/><path d="M31.25 54.12l-3.93-.38-21.4 7.12c0 .27-.1.54-.12.82l-.2 2-.27 2.84 31.06-10.34a9.91 9.91 0 0 0-5.14-2.06z" fill="#333391" opacity=".9"/><path d="M35.44 54L6.28 68.84l.15 2.83 31.3-15.94A10.1 10.1 0 0 0 35.44 54z" fill="#932b8d" opacity=".9"/><path d="M38.69 57.55l-33 12.17-.14 2.83-.18 2.84 35.32-13a10 10 0 0 0-2-4.84z" fill="#e91388" opacity=".9"/><path d="M40.81 63.76a9.94 9.94 0 0 0-.12-1.94L5.77 75.92v.82a9.94 9.94 0 0 0 .12 1.94l34.91-14.1z" fill="#ea245f" opacity=".9"/><path d="M40 65.5l-.22-2.83L6.63 80.59A10 10 0 0 0 9.29 85l30.9-16.71z" fill="#eb2d2e" opacity=".9"/><path d="M40.71 69.93L8.37 83.64a10.1 10.1 0 0 0 2.15 1.9l30.14-12.77z" fill="#f19432" opacity=".9"/><path d="M40.37 77.15v-.83l-.14-2-.23-2.85-28.89 15.34A9.91 9.91 0 0 0 16.52 88l3.94-.27z" fill="#fde92b" opacity=".9"/><path d="M26.19 87.24l13.55-5.61a9.89 9.89 0 0 0 .9-3.18l-20.82 8.62z" fill="#91be4a" opacity=".9"/><path d="M30.8 87.52a10 10 0 0 0 8.67-6.63l-12.92 6.94z" fill="#009e54" opacity=".9"/><path d="M16.27 126.37a10 10 0 0 0-10.33 7.16L24.22 127z" fill="#00a8de" opacity=".9"/><path d="M31.38 126.92l-7.1-.39-18.14 6.93a9.93 9.93 0 0 0-.34 2.08L5.66 138l28-10.7a9.91 9.91 0 0 0-2.28-.38z" fill="#0070b4" opacity=".9"/><path d="M32.47 125.76L6.17 140.2l.37 4.47.37 4.47 32.93-18.08a10.07 10.07 0 0 0-7.37-5.3z" fill="#333391" opacity=".9"/><path d="M41 136.21a9.9 9.9 0 0 0-.78-3.8L6 147.84v2.73a11.88 11.88 0 0 0 .14 1.7L41 136.56v-.34z" fill="#932b8d" opacity=".9"/><path d="M41.66 137.62L5.9 151.23a10.14 10.14 0 0 0 3.85 7.31l31.41-12 .09-1.54.16-2.93z" fill="#e91388" opacity=".9"/><path d="M15.16 161.68c1.16-.13 2.27-.22 3.28-.29l22.19-12.93c-.15-1.4-.31-2.92-.48-4.47l-29 16.92a7.17 7.17 0 0 0 4.01.77z" fill="#ea245f" opacity=".9"/><path d="M22.39 160.89l-.08.38c-.24 1.17-.52 2.27-.82 3.27a25.41 25.41 0 0 1-1 2.69c-.05.12-.11.23-.16.35l20.43-7.71c.08-.52.15-1 .22-1.56l.14-1.18c.06-.81.21-3.26.4-6.32l-24 9.07c2.92.29 4.93.68 4.87 1.01z" fill="#eb2d2e" opacity=".9"/><path d="M20.24 170.38a15.52 15.52 0 0 1-1.82 3 16.51 16.51 0 0 1-2.07 2.17L40 163.26c.1-.92.19-1.84.25-2.75 0-.68.07-1.37.1-2.05l-19.4 10.06a15.57 15.57 0 0 1-.71 1.86z" fill="#f19432" opacity=".9"/><path d="M15.36 175.35a20.75 20.75 0 0 1-3.36 2.06l-1.26.62c-1.59.56-3.3 1.14-3.79 1.29s-.83 3.68-.74 7.84v1.35l31-14.58c.27-.63.52-1.26.74-1.9a33.42 33.42 0 0 0 1.08-3.78c.28-1.25.52-2.5.72-3.72.05-.31.09-.62.14-.93l-24.1 11.34c-.12.14-.26.28-.43.41z" fill="#fde92b" opacity=".9"/><path d="M7.26 192.88l26.62-13.25c.3-.43.6-.85.88-1.29a30.19 30.19 0 0 0 1.85-3.34c.26-.54.5-1.1.72-1.66L6.67 188.59a29.43 29.43 0 0 0 .59 4.29z" fill="#91be4a" opacity=".9"/><path d="M7.94 194.59c.69 0 1.85-.1 2.58-.17l.77-.18a24.73 24.73 0 0 0 2.4-.7c.85-.29 1.8-.65 2.82-1.07s2.09-.89 3.3-1.44a37.87 37.87 0 0 0 3.56-1.88 35.43 35.43 0 0 0 3.29-2.23 35.11 35.11 0 0 0 3-2.58 35.73 35.73 0 0 0 2.7-2.9c.49-.58.95-1.18 1.4-1.8L7 192.72c.31 1.17.62 1.88.94 1.87z" fill="#009e54" opacity=".9"/></svg>