<svg xmlns="http://www.w3.org/2000/svg" width="120.62" height="200" viewBox="0 0 120.62 200"><title>_</title><path d="M114.61 74.86L11.13 104.4C6.19 105.81 1.75 110.89.79 116l119.13-40.92a7.56 7.56 0 0 0-5.31-.22z" fill="#00a8de" opacity=".9"/><path d="M1.31 117.93l-.52 7.28 122.66-44.35c.21-3.34-1.2-5.81-3.54-6.85L1.45 116.84c-.07.36-.11.73-.14 1.09z" fill="#0070b4" opacity=".9"/><path d="M3.83 133.49c.22 4.68 3.51 9.64 7.7 12.08l108.75-54.71a12.71 12.71 0 0 0 .62-4.38l-.21-4.38-.39-8.27v-.08L3.77 132.35z" fill="#333391" opacity=".9"/><path d="M11.24 142.23l7.41 3.17 37.9-15.17-1.95-.78c-5.1-2-5-5.07.26-6.72l58.3-18.3a15.29 15.29 0 0 0 8.94-8.67L9.07 141a12 12 0 0 0 2.17 1.23z" fill="#932b8d" opacity=".9"/><path fill="#e91388" opacity=".9" d="M40.65 155.46l36.77-19.33-21.3-6.08-36.13 19 20.66 6.41z"/><path fill="#ea245f" opacity=".9" d="M50.96 160.03l36.54-20.49-10.73-2.75-36.23 20.32 10.42 2.92z"/><path fill="#eb2d2e" opacity=".9" d="M70.88 167.05l37.84-19.56-21.24-6.23-37.22 19.23 20.62 6.56z"/><path d="M80.75 171l36.49-18.31a13.42 13.42 0 0 0-5.17-3.12l-3.51-1.07-38.08 19.11z" fill="#f19432" opacity=".9"/><path d="M100.74 178.15L122 168.09l-.11-4.77a15 15 0 0 0-4.63-9.9l-36.9 17.47z" fill="#fde92b" opacity=".9"/><path d="M109.44 181.65l.65.3 11.7-4.27v-.57l.54-7.78-22.09 8.06z" fill="#91be4a" opacity=".9"/><path d="M120.14 186.24c.69.34 1.65-3.55 2.19-8.74l-11.8 4z" fill="#009e54" opacity=".9"/></svg>