<svg xmlns="http://www.w3.org/2000/svg" width="111.34" height="200" viewBox="0 0 111.34 200"><title>_</title><path d="M9.79 87.34a10 10 0 0 0-9.22 9l18-9.63z" fill="#00a8de" opacity=".9"/><path d="M18.46 87.12L.39 96.64a9.94 9.94 0 0 0 0 1.7l.21 3.23L29.36 86.4z" fill="#0070b4" opacity=".9"/><path d="M40.92 87.58L30 87.43.07 100.25 0 105.11v2.58a9.92 9.92 0 0 0 .22 2.18l51.62-22.14z" fill="#333391" opacity=".9"/><path d="M53 89.58L-.48 106.89A10 10 0 0 0 1 111.08l62.86-20.34z" fill="#932b8d" opacity=".9"/><path d="M73.26 86.82L62.33 87 2.48 115a10 10 0 0 0 7.9 3.67l5.46-.1 68.34-31.94z" fill="#e91388" opacity=".9"/><path fill="#ea245f" opacity=".9" d="M83.42 85.53L16.63 120.6l10.9-.71 66.79-35.07-10.9.71z"/><path d="M101.24 88.23l-5.46-.14L26.09 117l10.91.27 10.92.28 61-25.3a10 10 0 0 0-7.68-4.02z" fill="#eb2d2e" opacity=".9"/><path d="M108.85 91.55l-60.68 26.11 10.93.14 51.63-22.22a10 10 0 0 0-1.88-4.03z" fill="#f19432" opacity=".9"/><path d="M110.5 98.69l-.13-2.57A9.92 9.92 0 0 0 110 94l-50.15 25.3 10.91-.53 10.91-.53 29.06-14.68z" fill="#fde92b" opacity=".9"/><path d="M80.9 117.56l10.92.36 18.92-7.69a9.93 9.93 0 0 0 .21-1.69l.11-3.24z" fill="#91be4a" opacity=".9"/><path d="M101.23 118.08a10 10 0 0 0 9.06-9.15l-17.84 9.94z" fill="#009e54" opacity=".9"/><path d="M9.74 132.95a10 10 0 0 0-9.11 9.1l17.89-9.84z" fill="#00a8de" opacity=".9"/><path d="M18.47 132.73l-18.08 9.5a9.94 9.94 0 0 0 0 1.7l.21 3.23L29.37 132z" fill="#0070b4" opacity=".9"/><path d="M41.21 133.58l-10.92-.44L0 145.18-.16 150l-.1 2.58a9.92 9.92 0 0 0 .16 2.22L52.12 134z" fill="#333391" opacity=".9"/><path d="M50.88 131.84l-50 25.76a10 10 0 0 0 2.15 3.89l58.72-30.28z" fill="#932b8d" opacity=".9"/><path d="M72.49 131.07l-10.9.7-58.51 30.69a10 10 0 0 0 8.06 3.3l5.45-.35 66.81-35z" fill="#e91388" opacity=".9"/><path fill="#ea245f" opacity=".9" d="M85.87 135.98l-71.66 23.57 10.87 1.11 71.66-23.58-10.87-1.1z"/><path d="M100.14 131.51l-5.45.24-67.49 33.73 10.92-.48 10.88-.5 59.13-29.5a10 10 0 0 0-7.99-3.49z" fill="#eb2d2e" opacity=".9"/><path d="M107.06 133.7L50 167l10.86-1.19 48.56-28.3a10 10 0 0 0-2.36-3.81z" fill="#f19432" opacity=".9"/><path d="M110.59 144.62l-.09-2.62a9.92 9.92 0 0 0-.33-2.17l-50.48 24.76 10.92-.4 10.92-.4 29.24-14.31z" fill="#fde92b" opacity=".9"/><path d="M111.08 154.87l.26-3.23-30.71 10.79 10.89.88 19.27-6.77a9.93 9.93 0 0 0 .29-1.67z" fill="#91be4a" opacity=".9"/><path d="M110.65 155.25l-18.56 8.52 8.81-.1a10 10 0 0 0 9.75-8.42z" fill="#009e54" opacity=".9"/></svg>