<svg xmlns="http://www.w3.org/2000/svg" width="118.48" height="200" viewBox="0 0 118.48 200"><title>_</title><path d="M9.78 51.44c-5-2.22-9.37.46-9.63 6L0 60.6l16.24-6.31z" fill="#00a8de" opacity=".9"/><path fill="#0070b4" opacity=".9" d="M16.38 54.01L.26 60.59l-.25 8.1 26.01-10.63-9.64-4.05z"/><path d="M25 57.47L.23 70.73l.1 1.36c.32 4.45 3.45 9 7.45 11.38L45 63.55z" fill="#333391" opacity=".9"/><path d="M45 64.61L7.13 83.29A12.13 12.13 0 0 0 10 84.64l6.82 2.12L54.89 68z" fill="#932b8d" opacity=".9"/><path fill="#e91388" opacity=".9" d="M56.5 70.1L16 82.87l19.29 9.43 39.74-12.53L56.5 70.1z"/><path fill="#ea245f" opacity=".9" d="M74.19 75.79L36.96 94.5l10.27 3.12 36.88-18.54-9.92-3.29z"/><path fill="#eb2d2e" opacity=".9" d="M84.83 80.5L46.59 96.05l19.99 7.84 37.51-15.25-19.26-8.14z"/><path d="M108.41 86.76l-6.24-2-35.89 18.79.34.1c5.29 1.51 5.48 4.53.43 6.7L12.09 134l-9.83 4.2c-.29.12-.35 3.18-.18 7.25l109.43-57.18a12.51 12.51 0 0 0-3.1-1.51z" fill="#f19432" opacity=".9"/><path d="M111.57 89.47L1.06 144.55c0 1 .05 2 .1 3l.22 5.09.33 7.47c0 .21 0 .41.06.61l116.71-58.17-.06-1.48c-.2-4.37-3.07-9.01-6.85-11.6z" fill="#fde92b" opacity=".9"/><path d="M7.73 169.52L117 107.63a11.49 11.49 0 0 0 0-1.38l-.65-6.73L2.81 163.81c.5 3.19 2.4 5.19 4.92 5.71z" fill="#91be4a" opacity=".9"/><path d="M11.55 167.74l97.4-45.74c4.56-2.14 8.08-7.7 8.33-12.84L6.63 168.46a7.72 7.72 0 0 0 4.92-.72z" fill="#009e54" opacity=".9"/></svg>