<svg xmlns="http://www.w3.org/2000/svg" width="103.86" height="200" viewBox="0 0 103.86 200"><title>_</title><path d="M46.78 29.54a70.28 70.28 0 0 0-8.27 1.39A57.66 57.66 0 0 0 31 33.22a49.67 49.67 0 0 0-6.81 3.2 45.14 45.14 0 0 0-6 4.11A40 40 0 0 0 6.64 55.2l44.66-26c-1.49.06-3 .18-4.52.34z" fill="#00a8de" opacity=".9"/><path d="M60.42 35.07c-2-.49-4.11-.9-6.27-1.24L4.92 49.6c-.77 1-1.52 2-2.21 3.12A49.53 49.53 0 0 0-.7 59.18l68.39-21.92a70.16 70.16 0 0 0-7.27-2.19z" fill="#0070b4" opacity=".9"/><path d="M76 34.33a58.41 58.41 0 0 0-9.38-2.56q-1.28-.24-2.59-.43L1.54 66.65C1.2 68.2.91 69.77.7 71.4l-.55 4.16c0 3.49.09 6.82.13 8.81l82.87-46.8A53.88 53.88 0 0 0 76 34.33z" fill="#333391" opacity=".9"/><path d="M84.59 39.54c-.47-.29-1-.57-1.44-.84l-83.84 45v1.8c0 .72 4.53 1 10 .56l1.44-.06L33.1 74a27.35 27.35 0 0 1 .93-3 31.47 31.47 0 0 1 1.65-3.65 12.31 12.31 0 0 1 5-5.09 16.33 16.33 0 0 1 3.73-1.5 25 25 0 0 1 4.72-.78 31.73 31.73 0 0 1 4.93 0 19.11 19.11 0 0 1 3.94.71l31.9-17.21a38.45 38.45 0 0 0-5.31-3.94z" fill="#932b8d" opacity=".9"/><path d="M21.1 83.42c5.5-.1 10-.74 10-1.43v-3.7l.16-1.21a25.5 25.5 0 0 1 .74-3.6c.06-.2.13-.39.19-.59L9.2 83.63zM98.23 58.78a35.44 35.44 0 0 0-4-8.22c-.5-.75-1-1.48-1.61-2.21L58 59.37a12.22 12.22 0 0 1 2.72 1.89 9.57 9.57 0 0 1 1.83 2.33 22.2 22.2 0 0 1 1.38 3 19.76 19.76 0 0 1 1.24 6L99.1 61.82a34.19 34.19 0 0 0-.87-3.04z" fill="#e91388" opacity=".9"/><path d="M100.68 65.1a41.06 41.06 0 0 0-1.92-6l-32 15.47v.16a21.61 21.61 0 0 1 .34 3.24 17.82 17.82 0 0 1-.1 2.74 16.83 16.83 0 0 1-.42 2.13l34.32-16.6c-.07-.38-.13-.76-.22-1.14z" fill="#ea245f" opacity=".9"/><path d="M101.13 74.3a53 53 0 0 0-1.22-9l-34 17.24c0 .17-.07.35-.12.51a17.29 17.29 0 0 1-.94 2.57 19.73 19.73 0 0 1-1.42 2.56c-.29.48-.61.95-1 1.4s-.72.92-1.12 1.37l-.18.2-2.88 1.91a5.64 5.64 0 0 1 .3.55l-3.44 3c-1.87 1.63-4.89 4.28-6.71 5.91l-1.39 1.4a55.6 55.6 0 0 0-3.67 4.08 34 34 0 0 0-2.79 3.93L101 81.35c0-.2.06-.4.07-.61a48.09 48.09 0 0 0 .06-6.44z" fill="#eb2d2e" opacity=".9"/><path d="M101.3 91.51a39.72 39.72 0 0 0 1.7-5.22l-64.36 21.17a20.57 20.57 0 0 0-2.34 3.46 28.4 28.4 0 0 0-1.67 4c-.2.57-.39 1.19-.58 1.83l65.44-21.52a35.57 35.57 0 0 0 1.81-3.72z" fill="#f19432" opacity=".9"/><path d="M71.13 120.05l.69-.72c.89-.76 3.15-2.62 5-4.13s4.93-4 6.77-5.5l1.49-1.31c1.5-1.31 2.85-2.56 4-3.71s2.28-2.32 3.22-3.38a33.09 33.09 0 0 0 2.39-3.06 33.44 33.44 0 0 0 2.91-5c.24-.52.45-1.07.67-1.61l-62.47 29c-.18 1.06-.35 2.2-.5 3.42-.23 1.92-.42 4.11-.57 6.5l-.14 2.36c0 1.69-.09 3.38-.13 4.66L70.32 121c.26-.35.53-.65.81-.95z" fill="#fde92b" opacity=".9"/><path d="M65.93 129.49c0-.77 0-1.48.08-2.12A15.17 15.17 0 0 1 67 123a17.16 17.16 0 0 1 1.17-2.46c.27-.47.58-.94.91-1.41L35 139c.06 1 .12 1.69.14 2 .05.71 4.57.8 10 .19l.94-.1z" fill="#91be4a" opacity=".9"/><path d="M56 140.33c5.47-.56 9.9-1.58 9.84-2.26s-.2-2.33-.31-3.67l-.05-1.1c-.05-1.07-.08-2.09-.07-3v-.34l-19.9 11.45z" fill="#009e54" opacity=".9"/><path d="M43.64 148.93a10 10 0 0 0-9.49 5.2l13.57-4.9z" fill="#00a8de" opacity=".9"/><path d="M47.69 148.89l-13.39 5.38a9.88 9.88 0 0 0-1 3.11l20.56-8.26z" fill="#0070b4" opacity=".9"/><path d="M58.35 149.79l-3.89-.42-21.08 6.81c-.07.32-.12.65-.15 1L33 159l-.29 2.75 30.61-9.89a9.9 9.9 0 0 0-4.97-2.07z" fill="#333391" opacity=".9"/><path d="M63.6 151.73L33 161.56l-.3 2.75 32.9-10.55a10.09 10.09 0 0 0-2-2.03z" fill="#932b8d" opacity=".9"/><path d="M63.84 150.48L34 167.88l.3 2.75.3 2.75 32.08-18.71a10 10 0 0 0-2.84-4.19z" fill="#e91388" opacity=".9"/><path d="M68.16 160.31a9.91 9.91 0 0 0-.07-2.28L32.94 170v.38a9.91 9.91 0 0 0 .07 2.28l35.15-12z" fill="#ea245f" opacity=".9"/><path d="M67.53 161.64v-2.76l-33.75 15.59a10 10 0 0 0 2.43 4.44l31.36-14.5z" fill="#eb2d2e" opacity=".9"/><path d="M67.27 164l-30.92 15.38a10.09 10.09 0 0 0 2.25 1.7l28.79-14.35z" fill="#f19432" opacity=".9"/><path d="M67.37 171.64v-1l-.16-1.79-.25-2.75-28.13 15.69a9.9 9.9 0 0 0 5.3 1l3.89-.35z" fill="#fde92b" opacity=".9"/><path d="M53.6 182l13.11-6a9.88 9.88 0 0 0 .82-3.15l-20.13 9.24z" fill="#91be4a" opacity=".9"/><path d="M57.94 182.2a10 10 0 0 0 8.46-6.74l-12.53 7.14z" fill="#009e54" opacity=".9"/></svg>