<svg xmlns="http://www.w3.org/2000/svg" width="172.67" height="200" viewBox="0 0 172.67 200"><title>_</title><path d="M92.31 27.65a110 110 0 0 0-18.43 1.93 90.38 90.38 0 0 0-16.71 4.92 82.38 82.38 0 0 0-14.94 7.93 86.71 86.71 0 0 0-21.69 21.08l75.87-35.88c-1.36-.01-2.72-.01-4.1.02z" fill="#00a8de" opacity=".9"/><path d="M105.94 26.36a103.6 103.6 0 0 0-11-.16l-74 39.58c-.48.75-1 1.49-1.42 2.24A73.73 73.73 0 0 0 13 81.94v.22l37-19.77c1.22-1.09 2.46-2.14 3.75-3.12a63.5 63.5 0 0 1 11.57-7 71.5 71.5 0 0 1 11.08-4l38.76-20.77a89.11 89.11 0 0 0-9.22-1.14z" fill="#0070b4" opacity=".9"/><path d="M7.86 95.09a81.33 81.33 0 0 0-.1 11.59l20.61-12.05a56.27 56.27 0 0 1 1.74-8.47 56.89 56.89 0 0 1 4.29-10.64 64.58 64.58 0 0 1 12.42-16.46L10.63 80.22a73.7 73.7 0 0 0-2.77 14.87zM93.6 63.8a34.2 34.2 0 0 0-5.2-.59 38.63 38.63 0 0 0-9 .68 36 36 0 0 0-8.4 2.79 39.53 39.53 0 0 0-7.7 4.85 50 50 0 0 0-7 6.84c-1 1.15-1.89 2.33-2.76 3.51l43.21-17.25a27 27 0 0 0-3.15-.83zM134.36 40a75.3 75.3 0 0 0-12-6.31c-1.48-.62-3-1.18-4.55-1.72L76.16 46.19c.79-.09 1.57-.18 2.36-.24a92.21 92.21 0 0 1 15.41.14 80 80 0 0 1 8.46 1.21 70.42 70.42 0 0 1 7.92 2.06 64.53 64.53 0 0 1 7.38 2.9c.93.44 1.85.9 2.77 1.39l22-7.53a71.76 71.76 0 0 0-8.1-6.12z" fill="#333391" opacity=".9"/><path d="M5 108.41c-.08 2.44-.06 4.87.07 7.25l20.26-8.25a62.93 62.93 0 0 1 1.35-9.64q.32-1.38.73-2.77L5.3 104c-.12 1.48-.21 2.94-.3 4.41zM144.59 44.25q-1.32-.85-2.69-1.65l-20.22 11.55c1.51.46 3 1 4.47 1.55a46.42 46.42 0 0 1 7.7 3.81l17.67-10.09a65 65 0 0 0-6.93-5.17zM110.69 69.34l5.75-2.93c-2.78.67-4.94 1.75-5.75 2.93zM106.49 68.89c-.49-.52-1-1-1.55-1.53a20.08 20.08 0 0 0-3.73-2.61A21.61 21.61 0 0 0 96.92 63c-.51-.15-1-.25-1.57-.37L54.09 84.11c-.93 1.56-1.79 3.14-2.55 4.71a57 57 0 0 0-3.4 8.73c-.19.66-.37 1.32-.54 2z" fill="#932b8d" opacity=".9"/><path d="M6.31 122.12a74.61 74.61 0 0 0 2.46 13.56c.09.33.2.65.3 1l18.88-6.58a53.21 53.21 0 0 1-1.33-6.91 64 64 0 0 1-.19-13.07c.06-.75.15-1.48.24-2.22L6 115.07c0 2.39.11 4.74.31 7.05zM161.94 65.53a55.14 55.14 0 0 0-7.14-11 57.94 57.94 0 0 0-3.38-3.68L133 59.44c.8.59 1.57 1.21 2.3 1.84a35.12 35.12 0 0 1 6.85 8 36 36 0 0 1 3.58 7.82l17.74-8.24c-.47-1.12-1-2.24-1.53-3.33zM69.52 109v-.26a42.14 42.14 0 0 1 1.73-5.61 50.34 50.34 0 0 1 2.62-5.69 62.36 62.36 0 0 1 3.53-5.78 35.81 35.81 0 0 1 4-4.88 21.5 21.5 0 0 1 4-3.25 14.48 14.48 0 0 1 4-1.73 12.93 12.93 0 0 1 4.15-.35 11.26 11.26 0 0 1 2 .33 8.48 8.48 0 0 1 1.68.64 7.39 7.39 0 0 1 1.4.93 8 8 0 0 1 1.2 1.26 9.8 9.8 0 0 1 1 1.56 9.39 9.39 0 0 1 .64 1.69 10.42 10.42 0 0 1 .33 1.87 12.87 12.87 0 0 1 0 2.08 30.15 30.15 0 0 1-.74 4.54c-.11.48-.24 1-.38 1.49l29.64-10.58 3.09-8.16c2-5.1-.9-9.69-6.41-10.1l-3.67-.28a26.35 26.35 0 0 0-4.84.07L112.44 71a2 2 0 0 0-.39.62c-.74 2-1.67 3-2.08 2.27l-.42-.65c-.21-.32-.44-.64-.67-1L46.35 94.55a53.52 53.52 0 0 0-3.76 23.35c0 .23 0 .46.06.68z" fill="#e91388" opacity=".9"/><path d="M166.09 78.39a57.47 57.47 0 0 0-2.63-9.19L145.5 77c.2.67.4 1.35.56 2a47 47 0 0 1 1.18 8.86l19.06-8.23c-.07-.41-.13-.83-.21-1.24zM14.51 146.6l18.62-7.28a48.66 48.66 0 0 1-2.47-5.07 49.79 49.79 0 0 1-1.66-4.79l-18.62 7.28a73 73 0 0 0 4.13 9.86zM101 96.48c-.29 1.27-.64 2.6-1.07 4-.6 2-1.36 4.14-2.25 6.4-.38 1-.79 2-1.22 3L125.75 98l4.42-13.33zM71.16 121.93c0-.14-.1-.27-.14-.42a18.28 18.28 0 0 1-.53-2.69 24.52 24.52 0 0 1-.17-3.08 37.21 37.21 0 0 1 .42-5.32l-26.1 11.5a39.33 39.33 0 0 0 1.44 6.08 32.79 32.79 0 0 0 1.7 4.19z" fill="#ea245f" opacity=".9"/><path d="M164.85 78.63l-18.19 10q.21 1.48.34 3a65.13 65.13 0 0 1 .19 8.33 49 49 0 0 1-.88 7.46 38.9 38.9 0 0 1-1.93 6.61l-.14.33 22.92-12.61a69.24 69.24 0 0 0-.09-10.64 68.32 68.32 0 0 0-2.22-12.48zM15.94 148.4a79.07 79.07 0 0 0 8.17 11.41c1.33 1.55 2.73 3 4.17 4.43l20.82-8.9c-1.16-.81-2.3-1.65-3.4-2.54a56 56 0 0 1-8.79-8.8 49.7 49.7 0 0 1-3.55-5.16L15 146.67c.3.58.6 1.16.94 1.73zM118.94 121.89v-.77c0-.27 0-.58.07-.88s.08-.65.14-1 .13-.72.21-1.1.19-.88.31-1.4.26-1.11.41-1.75l.15-.64c.19-.78 1.46-5.78 2.83-11.11l1.8-7-28.4 13.86q-.74 2.14-1.6 4.41a43.61 43.61 0 0 1-3.15 6.68 23 23 0 0 1-3.48 4.6 13 13 0 0 1-3.69 2.63 10.41 10.41 0 0 1-4 .94 11.3 11.3 0 0 1-2.31-.14 8.42 8.42 0 0 1-1.93-.56 7.63 7.63 0 0 1-1.65-1 8.75 8.75 0 0 1-1.45-1.45 12.1 12.1 0 0 1-1.25-1.92 14 14 0 0 1-.8-1.86l-23 11.2c.32.6.66 1.19 1 1.76a28.71 28.71 0 0 0 3.95 5 30.63 30.63 0 0 0 4.69 3.89 27 27 0 0 0 9.26 4l52-25.35a6 6 0 0 1-.11-1.04z" fill="#eb2d2e" opacity=".9"/><path d="M140 120.67a43.14 43.14 0 0 1-4.37 4.17 25.46 25.46 0 0 1-4.09 2.78 15.48 15.48 0 0 1-3.76 1.45 11 11 0 0 1-3.46.26 9.17 9.17 0 0 1-1.56-.26 5.59 5.59 0 0 1-1.15-.43 3.8 3.8 0 0 1-.81-.56 3.37 3.37 0 0 1-.58-.7 8.47 8.47 0 0 1-.57-1.07 6.71 6.71 0 0 1-.36-1 6 6 0 0 1-.17-1v-.06L64.48 143c.55.2 1.1.38 1.66.54a34.82 34.82 0 0 0 12.12 1.14 31.2 31.2 0 0 0 5.75-1 30.12 30.12 0 0 0 5.41-2.09 32.54 32.54 0 0 0 5-3.14 33.76 33.76 0 0 0 2.63-2.24l.83-.78c.9-1 1.78-1.2 2-.52l.22.61a19.24 19.24 0 0 0 1.47 3.12 24.55 24.55 0 0 0 1.62 2.4l60.48-20.76q.62-1.2 1.18-2.43a60.07 60.07 0 0 0 3.54-10.06c0-.16.07-.32.11-.48l-24.74 8.49a33.44 33.44 0 0 1-3.76 4.87zM37.58 171.92c.28.16.57.31.85.47l22.44-12.17c-2-.65-4-1.39-6-2.23a64 64 0 0 1-6.4-3.23l-19.89 10.81a72.55 72.55 0 0 0 9 6.35z" fill="#f19432" opacity=".9"/><path d="M104.23 139.85a17.39 17.39 0 0 0 2.86 2.89 18.52 18.52 0 0 0 3.49 2.19 22.3 22.3 0 0 0 4.06 1.48 29.4 29.4 0 0 0 4.57.8A37.63 37.63 0 0 0 137 144.7a44.64 44.64 0 0 0 8.37-4.45 58.58 58.58 0 0 0 8-6.5 59.85 59.85 0 0 0 7-8 57 57 0 0 0 4.11-6.64l-60.69 20.15c.13.16.27.37.44.59zM52.5 180.68a84.39 84.39 0 0 0 12.73 3.08l38.37-20.11c-1.65.36-3.31.69-5 1-2.88.46-5.85.79-8.84 1a87.6 87.6 0 0 1-12.76-.14 72.93 72.93 0 0 1-11.77-1.93c-1.65-.42-3.28-.9-4.89-1.44L37.78 174a74.22 74.22 0 0 0 14.72 6.68z" fill="#fde92b" opacity=".9"/><path d="M70.45 186.66a111 111 0 0 0 15.87.59l64.89-33.7q-.53-.76-1.12-1.55c-2.94-4-6.31-6.44-7.48-5.5s-3.45 2.74-5.06 4l-1.43 1c-1.44 1-2.89 2-4.29 2.95s-2.83 1.81-4.23 2.55-2.79 1.52-4.19 2.19a82 82 0 0 1-7.78 3.38 82.9 82.9 0 0 1-8.13 2.57c-1.15.3-2.32.56-3.49.82L65.57 186c1.6.24 3.23.47 4.88.66z" fill="#91be4a" opacity=".9"/><path d="M87.86 183.55c2.94.22 5.91.33 8.82.31s5.85-.16 8.73-.42 5.78-.64 8.63-1.15 5.72-1.13 8.53-1.87 5.62-1.61 8.35-2.58 5.46-2.06 8.11-3.25 5.3-2.51 7.86-3.93l2.57-1.42c2.77-1.75 5.48-3.47 6-3.82s-.62-3.22-2.46-6.82l-68.88 24.59c1.24.13 2.48.27 3.74.36z" fill="#009e54" opacity=".9"/></svg>