<svg xmlns="http://www.w3.org/2000/svg" width="140.11" height="200" viewBox="0 0 140.11 200"><title>_</title><path d="M79.47 32.9l-17.56.15a15.24 15.24 0 0 0-13.28 9.53l-3.11 9L86.21 33c-1.81-.08-4.21-.12-6.74-.1z" fill="#00a8de" opacity=".9"/><path d="M90.86 35.39c-.05-.2-1.39-.47-3.45-.74L45.36 49.86l-6.18 14 54.14-19.55z" fill="#0070b4" opacity=".9"/><path d="M100.14 62.42L92.65 43l-.52-1.36-51.92 24.89-9.5 29.17z" fill="#333391" opacity=".9"/><path d="M65.72 91l1.56-5c1.64-5.25 4.43-5.28 6.19-.07l.43 1.28 29.91-13.89-3.87-10.48L30.1 95.26l-4.93 14.53z" fill="#932b8d" opacity=".9"/><path fill="#e91388" opacity=".9" d="M74.08 86.5l5.89 21.53 31.3-12.32-6.51-21.3L74.08 86.5zM57.84 120.51a7.78 7.78 0 0 1 .57-5.41l9.67-21.15-42.59 13.57-13.43 27.58z"/><path d="M80.78 109.52l1.68 4.39c1.23 3.2.57 6.13-1.42 8l34-17.43-4.34-10.33zM76.41 121.13a9.54 9.54 0 0 1-1.72.23l-10 .38c-3.37.13-5.89-1.39-7-3.79l-43.12 21.2L10 153.78z" fill="#ea245f" opacity=".9"/><path d="M40.86 160.32a14.79 14.79 0 0 1 13.81-8.48l8.79.66 60.17-21.5-5.82-21.49-35.95 12.84a7.3 7.3 0 0 1-3.46 1.24L8.73 148.5.09 167.94c-1.21 2.72-1 5.26.35 7.1l40.29-14.41z" fill="#eb2d2e" opacity=".9"/><path d="M36.13 176.59a12.87 12.87 0 0 0 2.64-4.74l3-10.4-38.4 18.88a7.3 7.3 0 0 0 5.84 2.15l16.21-.62zM86.2 153.44a12.49 12.49 0 0 1 4.68.44l34.91-20.36-4.83-10-55.2 32.19z" fill="#f19432" opacity=".9"/><path d="M25.51 181.69a14.7 14.7 0 0 0 10.56-4.28l-11.16 4.25zM97.74 161.72l3.26 10.51 32.72-14.07-7.16-21.09L89.4 153a14.66 14.66 0 0 1 8.34 8.72z" fill="#fde92b" opacity=".9"/><path d="M101.2 172.33a14.61 14.61 0 0 0 8.07 8.49l28.18-12.34L133.8 158l-32.63 14.29z" fill="#91be4a" opacity=".9"/><path d="M113.84 181.27l17.94 1.2c5.49.37 8.76-3.66 7.28-9l-1.19-4.25L109 179.86a12.64 12.64 0 0 0 4.84 1.41z" fill="#009e54" opacity=".9"/></svg>