<svg xmlns="http://www.w3.org/2000/svg" width="123.9" height="200" viewBox="0 0 123.9 200"><title>_</title><path d="M36.83 31.36l-25.3 2.43a10 10 0 0 0-9 10.91l.55 5.74z" fill="#00a8de" opacity=".9"/><path d="M2.84 62.31L64.6 31.76h-.88L37.1 32.87 2.35 50.06z" fill="#0070b4" opacity=".9"/><path d="M1.36 69.56L.47 81.78l35.09-12.64a10 10 0 0 1 10.15-6.65l6.9.51 52.45-18.89a40.82 40.82 0 0 0-5.82-3.54 53.15 53.15 0 0 0-10.54-3.86l-3.81-1c-4.54-.54-12.33-1.31-17.81-1.71L2.26 57.33z" fill="#333391" opacity=".9"/><path d="M52 60.24l1.88.17c5.48.5 11.42 1.07 13.22 1.25l1.5.23c1.48.22 2.91.49 4.25.79s2.58.64 3.73 1l36.55-12.42a34.81 34.81 0 0 0-5.69-6.77c-.84-.77-1.75-1.5-2.68-2.21L52 60.24zM36.43 83.27a9.91 9.91 0 0 1-.32-2.88l.25-6.73a9.9 9.9 0 0 1 .47-2.66L2.21 84.92l-.47 12.25z" fill="#932b8d" opacity=".9"/><path d="M77.48 65.95l1.14.16a29.23 29.23 0 0 1 4.09 1.27l.8.62a8.66 8.66 0 0 1 2 2.09A11 11 0 0 1 87 73a18 18 0 0 1 .74 4 20.16 20.16 0 0 1 0 3.74 12.56 12.56 0 0 1-.68 3 9 9 0 0 1-1.3 2.26 8.74 8.74 0 0 1-1.85 1.8c-.32.23-.66.45-1 .66l37.79-20.54c-.16-1.12-.36-2.22-.6-3.29a40.85 40.85 0 0 0-1.8-6 37.15 37.15 0 0 0-2.66-5.46 36.35 36.35 0 0 0-3.52-4.93c-.23-.27-.49-.52-.73-.79zM79.6 88.89a23 23 0 0 1-2.94.83 30.45 30.45 0 0 1-3.73.53l-1.33.11c-1.58 0-7.38-.09-12.88-.22l-10.55-.23h-1.94a10 10 0 0 1-9.41-7.34L2.36 97l-.27 12.22-.27 12.26z" fill="#e91388" opacity=".9"/><path d="M82 88c-.56.26-1.14.5-1.75.72l-.32.1-78.52 30.87-.54 12.25L120.6 84.87c.24-.91.45-1.85.63-2.81a47.85 47.85 0 0 0 .73-6.59c0-1.07.06-2.14 0-3.19z" fill="#ea245f" opacity=".9"/><path d="M1.31 129.74L.3 142l-1 12.22 35-12.28a9.94 9.94 0 0 1 0-2.06l.83-10.08.27-3.25a10 10 0 0 1 10.79-9.15L59 118.42c5.48.45 11.26 1 12.84 1.13l1.3.21c1.28.21 2.49.46 3.59.74a27.61 27.61 0 0 1 3 .94 18 18 0 0 1 2.39 1.1 15 15 0 0 1 2.5 1.74l31.6-11.07a32.63 32.63 0 0 0-3.4-3.6 36.09 36.09 0 0 0-4.56-3.48L108 106c-.27-.17.25-.72 1.16-1.23l.76-.48a32.68 32.68 0 0 0 2.91-2 26.33 26.33 0 0 0 2.49-2.23 28.56 28.56 0 0 0 3.57-4.46 31.24 31.24 0 0 0 2.7-5.2c.41-1 .77-2 1.09-3.11z" fill="#eb2d2e" opacity=".9"/><path d="M45.64 151.18a10 10 0 0 1-10-7.6L2.31 159.89l.44 12.25zM85 123.18c.28.19.55.38.81.59a11.46 11.46 0 0 1 2.48 2.69 13.09 13.09 0 0 1 1.6 3.54 18.14 18.14 0 0 1 .58 3l31.21-15.67a34.93 34.93 0 0 0-2.69-4.47 32.14 32.14 0 0 0-3.61-4.23c-.15-.15-.32-.28-.47-.43z" fill="#f19432" opacity=".9"/><path d="M91 134v1.6a27 27 0 0 1-.89 5.54 17 17 0 0 1-1.82 4.28 13 13 0 0 1-2.68 3.16 14 14 0 0 1-3.65 2.21 17 17 0 0 1-2.56.81 25.85 25.85 0 0 1-3.13.52c-1.15.12-2.38.2-3.69.21h-1.32c-1.6-.07-7.41-.42-12.9-.77l-12.42-.79h-.17L1 167.43v.57a10 10 0 0 0 9.35 10.61L31.56 180l93.9-34.85a50.72 50.72 0 0 0 .62-5.19 51.8 51.8 0 0 0 0-6.28 43.22 43.22 0 0 0-.74-5.9 37.74 37.74 0 0 0-1.53-5.51c0-.12-.1-.23-.14-.35z" fill="#fde92b" opacity=".9"/><path d="M61.35 183.51l1.45-.12 57.83-31.68.16-.43a43.23 43.23 0 0 0 1.63-6.07 45.42 45.42 0 0 0 .75-6.33v-1.35l-87.81 48.13z" fill="#91be4a" opacity=".9"/><path d="M74.55 183.42l1.77-.24c1.78-.24 3.54-.52 5.26-.84s3.4-.67 5-1.07 3.26-.83 4.83-1.31a48.38 48.38 0 0 0 4.65-1.66 43.66 43.66 0 0 0 4.31-2.08 40.42 40.42 0 0 0 4-2.5 38.87 38.87 0 0 0 3.59-2.91c1-.9 2-1.86 2.88-2.84s1.78-2 2.59-3.11 1.58-2.2 2.29-3.36 1.38-2.37 2-3.57a43.8 43.8 0 0 0 2.32-5.37l-57.68 32c5.06-.48 10.34-.95 12.19-1.14z" fill="#009e54" opacity=".9"/></svg>