<svg xmlns="http://www.w3.org/2000/svg" width="131.6" height="200" viewBox="0 0 131.6 200"><title>_</title><path d="M66.3 30.73a74.71 74.71 0 0 0-13.3.89 62.72 62.72 0 0 0-12.21 3.23 58.75 58.75 0 0 0-11 5.59 62.5 62.5 0 0 0-9.83 7.91 64.65 64.65 0 0 0-8.28 10l64-27c-3.06-.35-6.17-.56-9.38-.62z" fill="#00a8de" opacity=".9"/><path d="M84.54 34.18a84.72 84.72 0 0 0-7.81-1.63l-65.2 23.93c-.38.5-.76 1-1.13 1.51a71.84 71.84 0 0 0-7 12.48l90.38-33.15a69.67 69.67 0 0 0-9.24-3.14z" fill="#0070b4" opacity=".9"/><path d="M40.75 80.83a39.33 39.33 0 0 1 3.47-7 32 32 0 0 1 4.42-5.6 25.45 25.45 0 0 1 11.24-6.61 31.5 31.5 0 0 1 7-1.12 42.08 42.08 0 0 1 7 .2 30.28 30.28 0 0 1 5.32 1.11l33.9-17.2c-1.17-1.05-2.36-2.07-3.6-3a54.94 54.94 0 0 0-12.87-7.17c-1.8-.71-3.63-1.31-5.63-1.86L5.21 76.06c-.11.35-.23.68-.33 1a90.83 90.83 0 0 0-3.05 16.25c-.25 2.55-.4 5.2-.48 7.9l39.22-19.86c.06-.17.12-.35.18-.52z" fill="#333391" opacity=".9"/><path d="M80 62.66a23.52 23.52 0 0 1 4.88 2.76 22.12 22.12 0 0 1 4 3.77l.25.34 32-13.33-.34-.54a56.49 56.49 0 0 0-6.33-7.89L79.32 62.4zM36 92c.14-1.81.33-3.57.58-5.24a52.78 52.78 0 0 1 1.85-8L0 100.17c0 3.33.21 6.76.52 10.26 0 .41.09.81.13 1.22z" fill="#932b8d" opacity=".9"/><path d="M.36 125.46c.29 2.07.65 4.08 1.05 6.07l33.88-15c-.16-2.36-.25-4.81-.24-7.37A104.64 104.64 0 0 1 35.64 98c.17-1.56.39-3.07.64-4.55l-37 16.34a120.17 120.17 0 0 0 1.08 15.67zM91.12 73.15a32.45 32.45 0 0 1 2 3.22c.65 1.19 1.28 2.51 1.87 3.91l.6 1.41c.63 1.75 1.27 3.58 1.44 4.07s3.48.59 7.82.45l25-12.84a51.15 51.15 0 0 0-1.94-5.27 58.21 58.21 0 0 0-3.52-6.82 69.43 69.43 0 0 0-4.22-6.2L89.32 70.93a22.81 22.81 0 0 1 1.8 2.22z" fill="#e91388" opacity=".9"/><path d="M4.58 141.56c.15.37.31.73.46 1.1L36.62 126a68.9 68.9 0 0 1-1.62-6.85c-.22-1.18-.4-2.41-.58-3.67L1.67 132.74a87.13 87.13 0 0 0 2.91 8.82zM106.34 85.74l14.61.26c5.5.11 10-.39 10-1.11s-.19-3.46-.37-6.08l-.44-2.37q-.16-.85-.35-1.71l-25.87 10.9c.74.07 1.57.1 2.42.11z" fill="#ea245f" opacity=".9"/><path d="M9.64 154.07a66.08 66.08 0 0 0 4.15 6.31L46 145.43c-.58-.6-1.15-1.22-1.7-1.88a32.73 32.73 0 0 1-4.08-6.24 44.58 44.58 0 0 1-3-7.82c-.23-.8-.44-1.64-.65-2.49L4.15 142a73 73 0 0 0 5.49 12.07z" fill="#eb2d2e" opacity=".9"/><path d="M106.63 128.24c-5.48-.43-10.11-.38-10.29.12s-.89 2.44-1.58 4.31l-.66 1.51c-.12.28-.25.54-.37.81l18-6.36zM17 164.14c.91 1.17 1.88 2.29 2.86 3.38l36-13.49c-.38-.19-.76-.38-1.13-.59a27.84 27.84 0 0 1-5.18-3.78 32.41 32.41 0 0 1-3-3.2l-33.18 12.45c1.14 1.81 2.35 3.56 3.63 5.23z" fill="#f19432" opacity=".9"/><path d="M26.23 170.77a58.56 58.56 0 0 0 11.26 7.33c.73.37 1.49.71 2.25 1l88.43-32c.14-.33.29-.65.42-1l1.44-3.56c1.19-4.28 2.31-8.43 2.5-9.22s-4.14-1.76-9.63-2.15l-9.65-.7-17.92 6.47a56.12 56.12 0 0 1-1.62 3.37 35.66 35.66 0 0 1-2.08 3.43 25.41 25.41 0 0 1-6.54 6.5 23 23 0 0 1-5.1 2.56 27.08 27.08 0 0 1-5.93 1.35 36.76 36.76 0 0 1-6.84.11 31.31 31.31 0 0 1-6.61-1.18 27.21 27.21 0 0 1-4.71-1.89l-36.2 13.2a59.17 59.17 0 0 0 6.53 6.38z" fill="#fde92b" opacity=".9"/><path d="M52.12 183.78c1.87.39 3.81.7 5.79 1l63-25.94q1.56-2.32 2.92-4.78a69 69 0 0 0 4.26-9.37l-86.96 35.77a67.38 67.38 0 0 0 10.99 3.32z" fill="#91be4a" opacity=".9"/><path d="M67.08 185a76.48 76.48 0 0 0 12.29-.43 62.56 62.56 0 0 0 11.3-2.4 55.34 55.34 0 0 0 19.45-10.75 64.86 64.86 0 0 0 7.83-7.91q1.75-2.11 3.33-4.39l-63.35 25a88.76 88.76 0 0 0 9.15.88z" fill="#009e54" opacity=".9"/></svg>