<svg xmlns="http://www.w3.org/2000/svg" width="125.62" height="200" viewBox="0 0 125.62 200"><title>_</title><path d="M9.65 33a10 10 0 0 0-10 10v5.55L34.57 33H9.65z" fill="#00a8de" opacity=".9"/><path d="M52.87 30.95l-19.56 1.77L-.07 51.35 1 63.33l59.16-33z" fill="#0070b4" opacity=".9"/><path d="M35.79 70.48a10 10 0 0 1 8.51-7l4.42-.48 46.86-27c-1-.46-2-.9-3-1.29a52.28 52.28 0 0 0-7.86-2.36c-1.59-.35-3.3-.63-5.08-.84s-3.63-.35-5.56-.42-4-.07-6.05 0l-2.03.12c-1.4.11-4.09.35-7.15.64L.09 65.65l1.24 12 1.24 12z" fill="#333391" opacity=".9"/><path d="M47.81 61.51h.83c5.49.28 12.81.75 16.26 1.06l2.68.6a36.08 36.08 0 0 1 3.69 1l36.33-14a50 50 0 0 0-5.49-5.31c-1.23-1-2.53-2-3.86-2.87L47.81 61.51zM33.72 80.42L33.18 72a9.9 9.9 0 0 1 .56-4L-.21 85.79l.77 12 33.16-17.37z" fill="#932b8d" opacity=".9"/><path d="M71.93 63.16a28.18 28.18 0 0 1 3.33 1.39 20.87 20.87 0 0 1 5.16 3.59 17.68 17.68 0 0 1 3.5 4.73 36.85 36.85 0 0 1 2.46 6.26c.18.61.35 1.25.51 1.89l32.66-12.31-.08-.25c-.76-2-1.64-4.09-2.62-6.09s-2.07-4-3.26-5.89a54.64 54.64 0 0 0-4.91-6.72l-.31-.34zM34.58 95.44l1.31-11.96L.23 94.86l-1.32 11.97-1.31 11.96 35.66-11.38 1.32-11.97z" fill="#e91388" opacity=".9"/><path fill="#ea245f" opacity=".9" d="M33.91 118.53l.65-12.02-34.98 13.34-.65 12.02 34.98-13.34zM87.79 80.58a56.47 56.47 0 0 1 1.14 5.66c.26 1.72.45 3.56.6 5.46l33.84-13c-.3-1.55-.64-3.09-1-4.61-.55-2-1.2-4.05-1.94-6z"/><path d="M90 93.11c.18 1.1.34 2.21.48 3.36.38 3.14.63 6.54.75 10.11.08 2.57.07 5.1 0 7.49 0 1-.12 2-.2 3l35.53-17.22c-.05-.78-.11-1.56-.18-2.34-.18-2-.42-4-.72-6s-.66-4.08-1.07-6.13-.89-4.15-1.42-6.25c-.15-.61-.34-1.21-.51-1.82zM33.31 143.37l1.22-11.97 1.21-11.98-35.56 11.7-1.22 11.97-1.21 11.98 35.56-11.7z" fill="#eb2d2e" opacity=".9"/><path d="M90.59 118.12c0 1.36-.07 2.69-.15 4a64.41 64.41 0 0 1-.76 6.44q-.27 1.58-.62 3.1l36.84-20.96c-.1-2.81-.28-5.67-.56-8.58-.11-1.16-.26-2.33-.42-3.51zM40.09 153.24a10 10 0 0 1-4.9-9.69v-.29l-35.6 11.48-1.29 12z" fill="#f19432" opacity=".9"/><path d="M12.88 186.49l14.74-1.29 92.77-51.46c.61-2.58 1.13-5.22 1.52-7.91a106.52 106.52 0 0 0 1.09-13.16v-5.5l-37.09 20.55c-.23 1-.48 1.9-.75 2.81a38.79 38.79 0 0 1-3.93 9 26.76 26.76 0 0 1-5.51 6.47 25.05 25.05 0 0 1-7.15 4.22l-2.7 1c-3.48.53-10.8 1.36-16.28 1.84l-5.26.46a9.89 9.89 0 0 1-4.15-.53l-38.4 21.4.27 3a10 10 0 0 0 10.83 9.1z" fill="#fde92b" opacity=".9"/><path d="M50.91 181.39l63.91-26.44a79.48 79.48 0 0 0 5.48-10.68c.57-1.35 1.1-2.74 1.61-4.15l-98 40.55z" fill="#91be4a" opacity=".9"/><path d="M52.82 178.65c5.47.61 14.43 1.38 19.92 1.7a50.33 50.33 0 0 0 5.95-.55A53.82 53.82 0 0 0 93 176.09a51.32 51.32 0 0 0 12.48-7.48A61.28 61.28 0 0 0 116 157.47l-65.89 20.88z" fill="#009e54" opacity=".9"/></svg>