<svg xmlns="http://www.w3.org/2000/svg" width="115.88" height="200" viewBox="0 0 115.88 200"><title>_</title><path d="M11.9 32.54a10 10 0 0 0-10.57 9.39L1 48.24l37.49-14.13z" fill="#00a8de" opacity=".9"/><path fill="#0070b4" opacity=".9" d="M37.24 32.82L1.55 51.13l.71 12.78 63.69-32.67-28.71 1.58z"/><path d="M46.06 64.22l10-.74 52-27.92a10 10 0 0 0-9.8-5.77l-4.85.36-28.66 2.12L1.68 66.12l.95 12.77.94 12.77 33.24-17.85a10 10 0 0 1 9.25-9.59z" fill="#333391" opacity=".9"/><path d="M85.85 63.28l24.46-14.2-1-8.93a9.89 9.89 0 0 0-1-3.43L57.26 66.36zM36.12 79.82l.25-5.56a10 10 0 0 1 .12-1.11L1.37 86.92.79 99.71l36.7-14.39a9.92 9.92 0 0 1-1.37-5.5z" fill="#932b8d" opacity=".9"/><path d="M100.13 63.64a10 10 0 0 0 10.47-9.5l.07-1.5-26.36 10.23zM46.31 89.17a10 10 0 0 1-8.23-4.83L1.58 99.23 1.17 112l-.4 12.79 84.38-34.4z" fill="#e91388" opacity=".9"/><path d="M45.67 118.91h.23l57.26-23.77a10 10 0 0 0-8.38-5l-9.5-.24-84.17 34.95-.33 12.8 37.27-15.47a10 10 0 0 1 7.62-3.27z" fill="#ea245f" opacity=".9"/><path d="M95.05 117.61a10 10 0 0 0 9.22-10.72l-.75-10a9.9 9.9 0 0 0-1.88-5.09l-54.59 29.4zM36 142.76l1.26-11.95a9.94 9.94 0 0 1 3.14-6.25L2 137 .65 149.74-.7 162.47 38 149.92a10 10 0 0 1-2-7.16z" fill="#eb2d2e" opacity=".9"/><path d="M45.79 151.07a10 10 0 0 1-7.21-3.07L1.41 164.56V172a9.91 9.91 0 0 0 1.26 4.82l57.71-25.74H45.79z" fill="#f19432" opacity=".9"/><path d="M103.3 149.3L59.79 151l-56.7 27.85a10 10 0 0 0 8.91 4.84l8.37-.32 28.73-1.1 61.43-30.21a10 10 0 0 0-7.23-2.76z" fill="#fde92b" opacity=".9"/><path d="M114 168.48l.39-4.55a10 10 0 0 0-2.24-7.19l-64.69 22.35 28.64 2.48z" fill="#91be4a" opacity=".9"/><path d="M104.09 181.79a10 10 0 0 0 9.79-10.2l-.13-6.31-36.3 17.06z" fill="#009e54" opacity=".9"/></svg>