<svg xmlns="http://www.w3.org/2000/svg" width="107.82" height="200" viewBox="0 0 107.82 200"><title>_</title><path d="M9.13 33.47A10 10 0 0 0-.43 43.89l.17 4 30.8-15.33z" fill="#00a8de" opacity=".9"/><path fill="#0070b4" opacity=".9" d="M30.19 33.02L-.44 48.68l.56 10.47 53.59-27.39-23.52 1.26z"/><path d="M99.21 38.36l-19-2-23.41-2.5L-.48 52.32l-1.11 10.42-1.12 10.43 105.06-33.92a9.9 9.9 0 0 0-3.14-.89z" fill="#333391" opacity=".9"/><path d="M35.51 75.21a10 10 0 0 1 9-10.89l12.64-1.19 47.57-26.76a10.06 10.06 0 0 0-7.27-6.9L1.26 83.6 2.24 94l33.28-18.68v-.11z" fill="#932b8d" opacity=".9"/><path d="M97 63.6a10 10 0 0 0 10.06-9.94v-1.8l.05-8.49a9.94 9.94 0 0 0-.18-1.91l-50 21.88zM34.37 81.7l.05-8L-.56 89l-.07 10.49L-.7 110l42.45-18.59a10 10 0 0 1-7.38-9.71z" fill="#e91388" opacity=".9"/><path d="M42.9 90.51a9.9 9.9 0 0 1-2.58-.1L0 113.17l1 10.43 62-35z" fill="#ea245f" opacity=".9"/><path d="M44.71 122l50.72-28.5a10 10 0 0 0-9.85-5.5l-23.45 2.22L0 125.13l1 10.44L2 146l35.84-20.14a10 10 0 0 1 6.87-3.86z" fill="#eb2d2e" opacity=".9"/><path d="M45.09 123.26l23.43-1.46 29.39-15.35-.4-6.45a9.89 9.89 0 0 0-.93-3.61L45 123.27h.08zM34.54 132.19a10 10 0 0 1 2.91-6.67L-.68 140.89-1 151.37l35.41-14.28z" fill="#f19432" opacity=".9"/><path d="M88.16 121.55A10 10 0 0 0 98 111.43v-3.49L67.87 121.8zM34.37 136.58L-.57 152v19.91a10 10 0 0 0 0 1l34.87-15.36z" fill="#fde92b" opacity=".9"/><path d="M35.48 159.44L-.83 171.08a10 10 0 0 0 4.74 8.54l30.43-9.75z" fill="#91be4a" opacity=".9"/><path d="M34.49 173.11l.31-4-30.11 10.7a9.89 9.89 0 0 0 4.22 1.33l14.84 1.16a10 10 0 0 0 10.74-9.19z" fill="#009e54" opacity=".9"/></svg>