<svg xmlns="http://www.w3.org/2000/svg" width="138.79" height="200" viewBox="0 0 138.79 200"><title>_</title><path d="M71.76 28.52a85.61 85.61 0 0 0-15.45 1.85 69.72 69.72 0 0 0-13.86 4.54 63.83 63.83 0 0 0-12.21 7.24 67.28 67.28 0 0 0-10.49 9.91 70.67 70.67 0 0 0-7 9.78l68.6-33.17c-3.09-.2-6.35-.25-9.59-.15z" fill="#00a8de" opacity=".9"/><path d="M96.87 31a75.12 75.12 0 0 0-12.2-2.19 92.64 92.64 0 0 0-3.82-.28L12.58 62.44c-.45.77-.9 1.54-1.32 2.32a74.71 74.71 0 0 0-5.63 13.8l94.07-46.7q-1.4-.44-2.83-.86z" fill="#0070b4" opacity=".9"/><path d="M41.18 77.71a35.48 35.48 0 0 1 4.75-6.77 37.57 37.57 0 0 1 5.74-5.23A32 32 0 0 1 65.09 60a38.51 38.51 0 0 1 7.81-.56c1.44 0 2.85.14 4.2.3s2.68.39 4 .67a36.65 36.65 0 0 1 3.74 1 34.09 34.09 0 0 1 3.51 1.4c.76.36 1.49.75 2.2 1.16l33.12-13.71a63.61 63.61 0 0 0-5-5 56.67 56.67 0 0 0-9.24-6.62 61.14 61.14 0 0 0-7.89-3.79l-97 40.18A88.29 88.29 0 0 0 .29 90.32a108.26 108.26 0 0 0-1.41 11.61l38.89-16.1a46.81 46.81 0 0 1 3.41-8.12z" fill="#333391" opacity=".9"/><path d="M35.83 100.75q.2-1.44.43-2.82a67.93 67.93 0 0 1 2.51-10.19l.13-.36-39.22 15.27c-.16 1.75-.3 3.53-.38 5.33-.11 2.39-.14 4.73-.11 7zM94.2 66.74a23.67 23.67 0 0 1 6.36 5.72L130 56.15a54.78 54.78 0 0 0-5.13-5.94c-.89-.9-1.84-1.77-2.82-2.63L90.72 64.94a27.1 27.1 0 0 1 3.48 1.8z" fill="#932b8d" opacity=".9"/><path d="M.42 124.21a85.33 85.33 0 0 0 2 13.51l33.75-11.83c-.11-1.09-.21-2.19-.26-3.33a91.15 91.15 0 0 1 .24-12c.26-3.2.64-6.26 1.13-9.13l-37.11 13c-.03 3.37.02 6.64.25 9.78zM101.83 76.53l1.1 1.8c.95 2.34 1.87 4.67 2 5.18s4.8.46 10.27-.13l14.31-1.54 1.56-.19 7.52-4.37c-.43-1.61-1-3.89-1.69-6.2l-1.39-3.19a52.56 52.56 0 0 0-5.08-9.07q-.76-1.08-1.57-2.13L99.77 73.62a26 26 0 0 1 2.06 2.91zM83.61 99.74a10 10 0 0 0-10.1 7.88L92.24 100z" fill="#e91388" opacity=".9"/><path d="M4.34 139.48a71.52 71.52 0 0 0 3.2 9l32.51-12a40.51 40.51 0 0 1-1.39-4.43 53.54 53.54 0 0 1-1.21-6.71L3.91 137.77c.15.57.28 1.15.43 1.71zM138.09 81.62c0-.3-.13-1.09-.28-2.17l-8 3.39c4.74-.02 8.35-.53 8.28-1.22zM92.79 99.44l-19 7a9.9 9.9 0 0 0-.29 1.76l-.59 9a9.92 9.92 0 0 0 0 1.63l47.64-17.56z" fill="#ea245f" opacity=".9"/><path d="M10.81 154.57a65.22 65.22 0 0 0 9 11c1 1 2 2 3.06 2.89l35-17.09a37.91 37.91 0 0 1-5.39-2.63 44.3 44.3 0 0 1-6.08-4.35 27 27 0 0 1-5-5.75 33.5 33.5 0 0 1-2-3.49L8.26 150.3c.81 1.46 1.65 2.9 2.55 4.27zM138.77 112.19a10 10 0 0 0-9.21-10.73l-8.41-.64-47.82 17.08a10 10 0 0 0 9.19 9.1l12.74 1c5.29.4 9.33 1.69 9.23 2.91l33.78-12.06z" fill="#eb2d2e" opacity=".9"/><path d="M138.55 116.51l-32.87 14.36a.54.54 0 0 1 0 .13l-.36 1.1a36 36 0 0 1-2.39 5.62 33 33 0 0 1-3.23 5 33.69 33.69 0 0 1-4.1 4.33c-.56.5-1.15 1-1.75 1.42l44.62-19.49zM28.87 172.5q1.33 1.1 2.73 2.12l49.84-18.14c-.48.06-1 .12-1.47.16a42.39 42.39 0 0 1-13.84-1.1 35.66 35.66 0 0 1-6.48-2.39l-.93-.48L22.1 166a64.58 64.58 0 0 0 6.77 6.5z" fill="#f19432" opacity=".9"/><path d="M40.63 179.68a63.74 63.74 0 0 0 12.79 4.11A75 75 0 0 0 66 185.28l72.53-30.66.24-12.42.23-12.42-44.85 19a29.74 29.74 0 0 1-3.08 2 30.46 30.46 0 0 1-5.46 2.4 34.29 34.29 0 0 1-4.68 1.17L32 175a60.39 60.39 0 0 0 8.63 4.68z" fill="#fde92b" opacity=".9"/><path d="M69.68 188.77a76.51 76.51 0 0 0 8.55-1.26 62.52 62.52 0 0 0 7.82-2.15 52.85 52.85 0 0 0 7.08-3.06 47.16 47.16 0 0 0 6.3-4 41 41 0 0 0 3.56-3c1.18-1.1 2.41-2.35 3.64-3.71s2.49-2.86 3.74-4.45l.24-.31c.27-.35 1.37 2.64 2.43 6.66a6.63 6.63 0 0 0 1.27 2.43L138 162.74l-1.14-12.37-68.69 38.5c.47-.03.99-.05 1.51-.1z" fill="#91be4a" opacity=".9"/><path d="M124.44 182.09l4.53-.31a10 10 0 0 0 9.3-10.65l-.4-5.92-23.95 12.67c2.08 2.72 6.23 4.5 10.52 4.21z" fill="#009e54" opacity=".9"/></svg>