<svg xmlns="http://www.w3.org/2000/svg" width="120.2" height="200" viewBox="0 0 120.2 200"><title>_</title><path d="M23.75 33.4l-14.87-.61a10 10 0 0 0-10.4 9.57l-.28 6.55 32.05-12.7a9.94 9.94 0 0 0-6.5-2.81z" fill="#00a8de" opacity=".9"/><path d="M33.91 44.66a10 10 0 0 0-2.68-7.75L-1.43 48l-1.21 13 36.17-12.29z" fill="#0070b4" opacity=".9"/><path d="M110.16 34l-14.8-1.59a10 10 0 0 0-11 8.85l-.81 7.43L117 38a10 10 0 0 0-6.84-4zM33.14 46.86L-1.53 62.85l.17 13.05.18 13.04 34.67-16-.35-26.08z" fill="#333391" opacity=".9"/><path d="M118.46 41.26a10 10 0 0 0-3.46-6.53L84.53 52.29l1.35 13 33.1-19zM32.9 77.09l-.24-4.72-34 17.32.68 13L36.17 84a10 10 0 0 1-3.27-6.91z" fill="#932b8d" opacity=".9"/><path d="M119.09 60.67l-.08-13-34.79 15.7.09 14.37a10 10 0 0 1-9.94 10.06l-31 .2a10 10 0 0 1-7.11-2.93l-37.64 17.06.08 13 .08 13 120.39-54.42z" fill="#e91388" opacity=".9"/><path d="M42.7 116.53l7.17.53 70.73-25.4 1-13-124.41 44.66-1 13 36.28-13a10 10 0 0 1 10.23-6.79z" fill="#ea245f" opacity=".9"/><path d="M74.26 117.58a10 10 0 0 1 9.88 10.12v1.05l35.06-15.12.15-13 .15-13-69 29.76zM32.16 126.6a9.9 9.9 0 0 1 .16-2.51l-34.1 18 .86 13L0 168.1l33.78-17.81z" fill="#eb2d2e" opacity=".9"/><path d="M33.42 165.77l1-13-35.97 12.92-.37 5a10 10 0 0 0 2.23 7zM84.97 142.5l34.22-16.93-.52-13.04-34.23 16.93.53 13.04z" fill="#f19432" opacity=".9"/><path fill="#fde92b" opacity=".9" d="M83.05 166.71l35.83-13.22.85-13.02.85-13.01-35.82 13.22-1.71 26.03zM8.18 181.59l14.82.62a10 10 0 0 0 10.41-9.57l.31-7.47-32.72 13a10 10 0 0 0 7.18 3.42z"/><path d="M84.44 172.16a10 10 0 0 0 3.47 7.43l31.34-14.38-.15-13-34.7 15.88z" fill="#91be4a" opacity=".9"/><path d="M94.24 181.81l14.88.25a10 10 0 0 0 10.16-9.83l.11-6.55-31.73 13.5a9.94 9.94 0 0 0 6.58 2.63z" fill="#009e54" opacity=".9"/></svg>