<svg xmlns="http://www.w3.org/2000/svg" width="69.35" height="200" viewBox="0 0 69.35 200"><title>_</title><path d="M42.84 33.67L28 32.75a10 10 0 0 0-10.6 9.36l-.25 4 30-11.18a9.89 9.89 0 0 0-4.31-1.26z" fill="#00a8de" opacity=".9"/><path d="M45.88 33.2l-28.2 15.08.75 10.47 33.63-18a10 10 0 0 0-6.18-7.55z" fill="#0070b4" opacity=".9"/><path d="M53.17 54.43l1-9.41a10 10 0 0 0 .06-1L18 55.64l-1.19 10.43-1.15 10.44L52 64.87z" fill="#333391" opacity=".9"/><path fill="#932b8d" opacity=".9" d="M52.95 63.71l-35.49 14.1-.43 10.48 35.49-14.1.43-10.48z"/><path fill="#e91388" opacity=".9" d="M52.04 83.15l-.5-10.48-34.1 17.18.5 10.49.5 10.48 34.1-17.18-.5-10.49z"/><path fill="#ea245f" opacity=".9" d="M51.24 93.02L17.83 111.5l.91 10.46 33.41-18.48-.91-10.46z"/><path fill="#eb2d2e" opacity=".9" d="M53.11 117.23l1.04-10.44L17.9 118.8l-1.03 10.44-1.04 10.45 36.25-12.01 1.03-10.45z"/><path fill="#f19432" opacity=".9" d="M53.25 127.14l-35.83 13.2-.69 10.48 35.83-13.2.69-10.48z"/><path d="M52.89 148.09l.67-10.48-35.8 13.28-.67 10.48-.6 9.45a10 10 0 0 0 0 1l35.75-13.26z" fill="#fde92b" opacity=".9"/><path d="M51.59 156.3l-33.7 17.84a10 10 0 0 0 6.11 7.59l28.26-15z" fill="#91be4a" opacity=".9"/><path d="M52 170.33l-.45-4L24 182.57a9.89 9.89 0 0 0 4.41.51l14.79-1.68a10 10 0 0 0 8.8-11.07z" fill="#009e54" opacity=".9"/></svg>