<svg xmlns="http://www.w3.org/2000/svg" width="95.6" height="200" viewBox="0 0 95.6 200"><title>_</title><path d="M59.73 43.46l.11 3.54 28.33-13.71a9.89 9.89 0 0 0-3.68-.59l-15.07.46a10 10 0 0 0-9.69 10.3z" fill="#00a8de" opacity=".9"/><path d="M58.46 54.48L94.85 43a10.06 10.06 0 0 0-5.28-7.9l-30 9.49z" fill="#0070b4" opacity=".9"/><path d="M58.45 75.24l36.07-13.17.69-10 .54-7.84a9.94 9.94 0 0 0-.07-2L59.82 55.31z" fill="#333391" opacity=".9"/><path fill="#932b8d" opacity=".9" d="M60.03 87.01l34.58-16.69-.31-9.99-34.58 16.7.31 9.98z"/><path fill="#e91388" opacity=".9" d="M59.85 106.68l34.88-16.06-.12-9.99-.13-9.99L59.6 86.7l.25 19.98zM22.39 121.45L9 122.58c-5.48.46-9.85 2.15-9.72 3.74.1 1.2.42 4.39.79 7.86l23.26-12.8z"/><path fill="#ea245f" opacity=".9" d="M58.36 114.5l36.55-11.78 1.06-9.94-36.54 11.79-1.07 9.93zM32.13 123.75c-.14-1.5-4.23-2.37-9.28-2l-23.13 13c.13 1.13.27 2.29.4 3.42L.88 142c.16.79.33 1.56.5 2.33l31.08-17.5c-.15-1.29-.27-2.38-.33-3.08z"/><path d="M59.19 125.09c-.23 3.65-.48 7.51-.66 10.21l36-13.4.62-10 .62-10-36 13.4zM34.77 147.71a47.93 47.93 0 0 1-.78-5c-.2-1.91-.35-4-.43-6.33l-.08-2.38c0-1.62 0-3.48.06-5.09L.43 142.17a86 86 0 0 0 1.19 8.69 66.51 66.51 0 0 0 2.54 9.47l30.7-12.27z" fill="#eb2d2e" opacity=".9"/><path d="M39.43 153.12a8.09 8.09 0 0 1-2.31-1.43 8.2 8.2 0 0 1-1.7-2.14A21.87 21.87 0 0 1 34 146.4L5 162.35l.17.34a52.29 52.29 0 0 0 4.58 7.46l30.44-16.77c-.19-.08-.5-.16-.76-.26zM59.08 137.61l-.24 1.39c-.23 1.39-.48 2.69-.76 3.84-.17.69-.34 1.31-.52 1.9l37.34-12c.2-1.74.39-3.47.56-5.06l.54-4.88-36.58 11.78c-.15 1.36-.27 2.42-.34 3.03z" fill="#f19432" opacity=".9"/><path d="M57.89 147.34a13.35 13.35 0 0 1-.52 2.23 9.73 9.73 0 0 1-1.37 2.7 8.52 8.52 0 0 1-2.07 2 11.2 11.2 0 0 1-2.93 1.36 18.63 18.63 0 0 1-4 .74 20.79 20.79 0 0 1-4.12 0 12.53 12.53 0 0 1-2.33-.52l-30.49 16.7.41.57a28.64 28.64 0 0 0 6.93 6.49 34.53 34.53 0 0 0 9.07 4.22l.65.17 65.68-36.07c.23-2.16.36-4.43.38-6.78v-2.82c-.15-2.39-.46-6.73-.8-11L58 146.2c0 .4-.06.8-.11 1.14z" fill="#fde92b" opacity=".9"/><path d="M34.51 183.59c1.55.31 3.18.56 4.87.78l50.56-20.22q.76-1.49 1.42-3.08a52.36 52.36 0 0 0 2.31-7.07c.11-.43.21-.87.31-1.3L24.4 180.53a51.83 51.83 0 0 0 10.11 3.06z" fill="#91be4a" opacity=".9"/><path d="M49.21 187a68.69 68.69 0 0 0 13-2.39A46.45 46.45 0 0 0 72.92 180a35.72 35.72 0 0 0 14.39-16c.47-1 .91-2.11 1.3-3.23l-47.48 26.61c2.57-.01 5.27-.13 8.08-.38z" fill="#009e54" opacity=".9"/></svg>