<svg xmlns="http://www.w3.org/2000/svg" width="128.67" height="200" viewBox="0 0 128.67 200"><title>_</title><path d="M26.47 33.9l-14.52-1.4A10 10 0 0 0 1 41.49l-.64 6.93 32.81-11a10 10 0 0 0-6.7-3.52z" fill="#00a8de" opacity=".9"/><path d="M36 43.72a10 10 0 0 0-2.7-7.22L1.11 49.28.56 62.72l35.18-14z" fill="#0070b4" opacity=".9"/><path fill="#333391" opacity=".9" d="M36.38 48.61L1.3 62.87.86 76.31.42 89.75 35.5 75.5l.88-26.89zM123.69 33h-26c-5.5 0-13.08 3.29-16.84 7.3L57.56 65.22l70.15-31.28a7.15 7.15 0 0 0-4.02-.94z"/><path d="M124.61 36.09c2.43-2.78 2.53-5.09.67-6.19l-68 35.8-13.92 17c-3.49 4.25-6.64 3.24-7-2.25l-.24-3.57L2.66 94.5l.89 13.42L111.57 51z" fill="#932b8d" opacity=".9"/><path d="M114.45 56.9L.62 101 0 114.48l-.7 13.43 76.16-29.53A12 12 0 0 1 79.15 89z" fill="#e91388" opacity=".9"/><path d="M-.67 140.75l42.44-14.85a6.16 6.16 0 0 1 2.85-1l37.91-13.27-3.4-5.54a11.3 11.3 0 0 1-1.61-5.72l-77.1 27z" fill="#ea245f" opacity=".9"/><path d="M1.75 158.92l.88 13.42 33.5-17.64-.87-13.27c-.36-5.49 1.79-12.81 4.78-16.26a6.78 6.78 0 0 1 .61-.62L.87 145.5zM53 128l9.76 15 33.59-13.49-14.07-20.81L45 123.66c2.83-.38 6 1.18 8 4.34z" fill="#eb2d2e" opacity=".9"/><path d="M1 171.34a10 10 0 0 0 6.5 9.72l28.17-11.34.48-13.44L1 170.41zM71.6 154.43l32.12-17.18-8.15-9.58-31.92 17.08 7.95 9.68z" fill="#f19432" opacity=".9"/><path d="M10.67 181.17l14.55 1.06a10 10 0 0 0 10.7-9.23l.21-2.87-28.57 10.29a9.9 9.9 0 0 0 3.11.75zM86 174.31l.16.18 32.8-16.85-16-19.42-32.4 16.65z" fill="#fde92b" opacity=".9"/><path d="M97.81 181.54l28.44-12-7.25-10.3-34 14.34c2.7 3.76 8 6.96 12.81 7.96z" fill="#91be4a" opacity=".9"/><path d="M101.19 182.87l24.81-1.64c5.49-.36 7.09-4.11 3.55-8.32l-3.8-4.53-27.28 14.39a14.93 14.93 0 0 0 2.72.1z" fill="#009e54" opacity=".9"/></svg>