<svg xmlns="http://www.w3.org/2000/svg" width="105" height="200" viewBox="0 0 105 200"><title>_</title><path d="M25.12 33.74l-15-1.12A10 10 0 0 0-.63 41.85L-1.08 48l32.26-11.6a9.94 9.94 0 0 0-6.06-2.66z" fill="#00a8de" opacity=".9"/><path d="M35.06 45a10 10 0 0 0-2.87-8.17L-.49 47.2l-1.42 12.55L34.7 48.16z" fill="#0070b4" opacity=".9"/><path fill="#333391" opacity=".9" d="M33.1 45.02l-33.92 18 .87 12.61.87 12.6 33.92-17.99-1.74-25.22z"/><path fill="#932b8d" opacity=".9" d="M35.96 73.41L-.58 85.19l-1.36 12.56 36.55-11.77 1.35-12.57z"/><path fill="#e91388" opacity=".9" d="M35.01 84.5L-.41 99.31l-.29 12.63-.29 12.64 35.43-14.82.57-25.26z"/><path fill="#ea245f" opacity=".9" d="M35.1 110.07L-.57 124.28l-.5 12.63L34.6 122.7l.5-12.63z"/><path d="M34.56 141.26l.2-19.08-35.24 15.25-.13 12.64-.13 12.63 36.88-16a9.92 9.92 0 0 1-1.58-5.44z" fill="#eb2d2e" opacity=".9"/><path d="M45.21 152.37a10 10 0 0 1-8-5.13L-.6 160.92l-.65 9a9.89 9.89 0 0 0 .34 3.34L55 153.07z" fill="#f19432" opacity=".9"/><path d="M97.09 153.15l-42-1.94L-.3 172.87A10 10 0 0 0 8.81 180l3.92.18 28.35 1.31 63.22-24.72a10 10 0 0 0-7.21-3.62z" fill="#fde92b" opacity=".9"/><path d="M106.2 160.13a10 10 0 0 0-2.83-6.65L42.2 182.91l28.37-.84 35.77-17.21z" fill="#91be4a" opacity=".9"/><path d="M70.42 182.53l26.25-.82a10 10 0 0 0 9.68-10.31l-.19-6.14z" fill="#009e54" opacity=".9"/></svg>