<svg xmlns="http://www.w3.org/2000/svg" width="145.36" height="200" viewBox="0 0 145.36 200"><title>_</title><path d="M38.55 34.17l-28.2-1.7A10 10 0 0 0-.24 41.85l-.44 7.24L39 34.2z" fill="#00a8de" opacity=".9"/><path d="M48.83 34.76c-.08-.42-4.37-.93-9.65-1.17L-.24 49.24-.81 63l51.13-20.32z" fill="#0070b4" opacity=".9"/><path d="M105.73 33.4a13.19 13.19 0 0 0-11.56 10.55l-1.23 7.65 37.6-19.86zM49.79 43.44l-.72-2.64L-.27 65.11l.53 13.73.54 13.73 55-27.1z" fill="#333391" opacity=".9"/><path d="M34.85 89.27l23-13.11L53.8 64 .5 94.37 1.85 108l31.46-17.85c-.17-3.15.45-3.51 1.54-.88zM135.51 34.74l-2.89-.27-40.29 13.6L87.4 63l57.12-19.3a10 10 0 0 0-9.01-8.96z" fill="#932b8d" opacity=".9"/><path d="M34.85 92.4l6 22.7 23.91-11.72L58 78.69 34.24 90.36c.19.56.39 1.23.61 2.04zM112.12 82.11l.1 1.21L143.95 66l-1.11-13.7-.95-11.71a9.93 9.93 0 0 0-.34-1.89L88.63 67.58l-4.54 31.08 27.83-15.19c.08-.87.2-1.37.2-1.36zM31 90.71c-.05-.59-.09-1.11-.11-1.58L-.7 106.75l1.23 13.69 1.23 13.69 31.58-17.61z" fill="#e91388" opacity=".9"/><path d="M109 92l2-8.3L81.79 96 78 111.2l29.29-12.3zM33.28 118.56L-.2 132.21l-.44 13.74 33.48-13.66.44-13.73zM42.37 126.69l24.94-9.59-2.24-12.59-24.85 9.55 2.15 12.63zM111.16 92.31l.06 4.85L144.06 82l-.18-13.7L111 83.42z" fill="#ea245f" opacity=".9"/><path d="M48.57 152.27l51.8-23.09 6.89-30.56-29 12.93-3.73 16.28c-1.23 5.36-3.25 5.36-4.49 0l-2.68-11.43L43 127.28zM113.45 126.12l31.21-18.23-1.5-13.66-1.51-13.67-31.21 18.24 3.01 27.32zM33 158.87l-.64-27.48-32.7 15.48L0 160.6l.28 11.74a9.93 9.93 0 0 0 .23 1.91z" fill="#eb2d2e" opacity=".9"/><path fill="#f19432" opacity=".9" d="M112.04 139.27l31.95-16.91-.93-13.71-31.95 16.91.93 13.71zM9.71 181.91h2.9l20.14-8.76a10 10 0 0 0 .07-1.06l.11-12.7L0 173.74a10 10 0 0 0 9.71 8.17zM49.94 162.73l47.11-16.35 4.73-14.93-53.58 18.59 1.74 12.69z"/><path d="M23 182a10 10 0 0 0 9.66-9.24l-19.78 9.55zM53.12 172.42a13.11 13.11 0 0 0 12.29 9.63l9.22-.09 14.93-6.83a11.23 11.23 0 0 0 1.19-3.13l6-27.8L51.38 165zM109.73 164.58L143.62 152l.88-13.71.87-13.72-33.89 12.58-1.75 27.43z" fill="#fde92b" opacity=".9"/><path d="M110.76 171.31a9.94 9.94 0 0 0 2.09 6.49L144 165.36l.54-13.73L111 165zM78.52 182a13.23 13.23 0 0 0 10.85-6.89l-14.86 7z" fill="#91be4a" opacity=".9"/><path d="M120.22 181.16l13 1.28a10 10 0 0 0 10.94-9l.72-7.22L113 176.83a10 10 0 0 0 7.22 4.33z" fill="#009e54" opacity=".9"/></svg>