<svg xmlns="http://www.w3.org/2000/svg" width="141.87" height="200" viewBox="0 0 141.87 200"><title>_</title><path d="M70.92 30.8A98.24 98.24 0 0 0 56 30.67a72.15 72.15 0 0 0-13.38 2.18 57.37 57.37 0 0 0-11.79 4.55l-3.67 1.9c-3.49 2.7-9.74 7.87-13.88 11.49 0 0-.18.15-3.35 4.19-.13.16-.25.34-.37.5l68.13-23.9c-2.2-.32-4.46-.58-6.77-.78z" fill="#00a8de" opacity=".9"/><path d="M95.95 33.8A74.07 74.07 0 0 0 85.44 31c-2.57-.49-5.27-.87-8.05-1.15l-67 27a68.47 68.47 0 0 0-7.23 13.31c-.16.39-.3.84-.45 1.18z" fill="#0070b4" opacity=".9"/><path d="M37.88 81.4c.38-1 .78-1.94 1.22-2.85a37.81 37.81 0 0 1 4.24-6.91 34.72 34.72 0 0 1 5.28-5.48 30.61 30.61 0 0 1 6.1-3.92 32.23 32.23 0 0 1 7-2.42 41.46 41.46 0 0 1 15.95-.29 32.57 32.57 0 0 1 4.48 1.18l35.16-16.44c-1.9-1.78-3.7-3.42-5.06-4.62l-3.51-2.13a57.37 57.37 0 0 0-11.48-5.28c-.84-.28-1.7-.54-2.57-.79L3.62 74A88.16 88.16 0 0 0 .09 89.43C-.36 92.65-.66 96-.82 99.49z" fill="#333391" opacity=".9"/><path d="M82.66 62.88c.89.24 1.77.51 2.62.83a30.09 30.09 0 0 1 6.4 3.29c.79.54 1.56 1.13 2.31 1.75l31.4-17.11c-2.46-2.16-5.68-4.89-8.64-7.33zM33.89 92.86a62.92 62.92 0 0 1 1-7.87 49.52 49.52 0 0 1 1.43-5.55L-1.14 100c0 2.9.19 5.86.44 8.88.08.95.19 1.88.29 2.81z" fill="#932b8d" opacity=".9"/><path d="M93 68.09a35.48 35.48 0 0 1 3.18 3.44 38.23 38.23 0 0 1 4.36 6.82 48.06 48.06 0 0 1 3.16 8.16l32-14.54-.11-.31a68.52 68.52 0 0 0-7.17-14.07c-2.4-3.58-2.81-4.18-2.88-4.28zM33.14 119.38a92.8 92.8 0 0 1 .52-10.28 91.72 91.72 0 0 1 1.81-11c.15-.64.31-1.27.48-1.9l-37.22 12.1a116.58 116.58 0 0 0-.31 15.87c.12 2.15.32 4.25.58 6.33z" fill="#e91388" opacity=".9"/><path d="M103.56 85.71v.06a65.3 65.3 0 0 1 1.49 9.75c0 .32 0 .65.06 1l33.66-13.33a84 84 0 0 0-2.52-10.4zM35.8 129v-.12a64.69 64.69 0 0 1-1.53-9.76c0-.29 0-.59-.06-.88L.81 131.47a83.66 83.66 0 0 0 2.58 10.33z" fill="#ea245f" opacity=".9"/><path d="M105.66 97a93.46 93.46 0 0 1 .47 10.15 92.84 92.84 0 0 1-.71 11.16c-.09.7-.19 1.38-.3 2.06l36.05-15.78a119.87 119.87 0 0 0-1.24-16.16c-.31-2-.69-4-1.11-6zM46.47 146.33a36 36 0 0 1-3.27-3.42 37.84 37.84 0 0 1-4.48-6.76 47.33 47.33 0 0 1-3.26-8.07l-31.6 14.73a70.74 70.74 0 0 0 7.31 14c2.91 4.29 3.09 4.48 3.09 4.48z" fill="#eb2d2e" opacity=".9"/><path d="M105.46 122.14a63.34 63.34 0 0 1-.84 7.76 50.22 50.22 0 0 1-1.34 5.7l37.26-21.28c-.09-2.91-.28-5.89-.58-8.92-.09-.93-.22-1.84-.33-2.76zM57.19 152.76c-.89-.28-1.76-.59-2.6-1a30.63 30.63 0 0 1-6.29-3.61c-.76-.57-1.5-1.19-2.23-1.84l-32 15.47c2.32 2.31 5.38 5.22 8.19 7.81z" fill="#f19432" opacity=".9"/><path d="M101.32 133.17c-.36.94-.73 1.86-1.14 2.74a37.94 37.94 0 0 1-4.13 6.94 34.18 34.18 0 0 1-5.18 5.51 30 30 0 0 1-6 4 31.86 31.86 0 0 1-6.94 2.47 41.57 41.57 0 0 1-15.95.41 33.06 33.06 0 0 1-4.5-1.14l-35 16.67c1.9 1.77 3.69 3.4 5.07 4.59l3.53 2.11a57.32 57.32 0 0 0 11.52 5.2c.84.28 1.71.53 2.58.77l90.51-43.12a88.63 88.63 0 0 0 3.56-15.84c.41-3.12.68-6.38.83-9.73z" fill="#fde92b" opacity=".9"/><path d="M44.2 182.22a74 74 0 0 0 10.59 2.48c2.58.41 5.29.7 8.09.9l65.8-28.88a71.07 71.07 0 0 0 7.08-14.09c.08-.23.16-.47.24-.7z" fill="#91be4a" opacity=".9"/><path d="M69.06 184.59a98.21 98.21 0 0 0 14.94-.3 72 72 0 0 0 13.31-2.57 57.33 57.33 0 0 0 11.69-4.89l3.58-2c3.44-2.83 9.51-8.26 13.47-12.07 0 0 .25-.24 3.29-4.42l.05-.08L62.27 184c2.21.26 4.47.46 6.79.59z" fill="#009e54" opacity=".9"/></svg>