<svg xmlns="http://www.w3.org/2000/svg" width="113.92" height="200" viewBox="0 0 113.92 200"><title>_</title><path d="M9.27 33a10 10 0 0 0-10 10v4l31.47-14z" fill="#00a8de" opacity=".9"/><path d="M54.17 34.35l-22.82-1.12L-.76 45.67l-.51 10.49L54.9 34.38z" fill="#0070b4" opacity=".9"/><path d="M83.43 35.63a56.9 56.9 0 0 0-9.5-2.11l-3.31-.45c-3.79-.1-11-.15-16.47-.12L-.69 57.87l.08 10.5.08 10.5L89.42 38a48.15 48.15 0 0 0-5.99-2.37z" fill="#333391" opacity=".9"/><path d="M33.85 73v-.46a10 10 0 0 1 10.35-9.7l4.61.16c3.08.11 6.29.23 8.82.34l42.11-17a43.28 43.28 0 0 0-6.91-5.22c-.78-.47-1.59-.92-2.41-1.35l-91.6 37-.38 10.49L33.85 73z" fill="#932b8d" opacity=".9"/><path d="M57.88 64.79c2-.12 3.54-.2 4.3-.23l1.42.09a25 25 0 0 1 3.94.55 18.57 18.57 0 0 1 3.35 1.09 15.17 15.17 0 0 1 2.81 1.61 10.79 10.79 0 0 1 2.17 2.1 13.85 13.85 0 0 1 1.71 3 20 20 0 0 1 .89 2.62L109.84 59c-.11-.26-.22-.54-.33-.8a39.53 39.53 0 0 0-4.79-8.08 35 35 0 0 0-6.43-6.4l-.29-.14zM35 93.15a9.9 9.9 0 0 1-.95-3.7L33.72 83l-.59-10.44L-.83 90l.58 10.48L.34 111z" fill="#e91388" opacity=".9"/><path d="M44.16 100.35a10 10 0 0 1-9.27-6.23L-.7 110.06v10.5l45.11-20.2h-.25zM77.45 75.39c.09.41.19.82.26 1.25a33.37 33.37 0 0 1 .38 4.84 34.09 34.09 0 0 1-.23 4.26l34.23-15.64c0-.14 0-.3-.06-.44a52.3 52.3 0 0 0-2.32-9z" fill="#ea245f" opacity=".9"/><path d="M113.22 81.89A74 74 0 0 0 112.6 71L78 85.87c0 .2 0 .42-.07.61a21.89 21.89 0 0 1-1 4 15.12 15.12 0 0 1-1.57 3.17 12.22 12.22 0 0 1-2.11 2.43A15.08 15.08 0 0 1 70.53 98a17.67 17.67 0 0 1-3.27 1.37 23.26 23.26 0 0 1-3.88.82l-1.4.18c-1.71 0-7.61 0-13.11-.08l-4.33-.06L-.9 119.74l-.1 10.49-.14 10.5 113.71-48.8a88.56 88.56 0 0 0 .65-10.04z" fill="#eb2d2e" opacity=".9"/><path d="M44.56 130.7l4.05-.18L109 100.43a56.86 56.86 0 0 0 1.77-9.55c.07-.7.12-1.41.17-2.13L.21 143.92l.45 10.49 35.08-17.47a10 10 0 0 1 8.82-6.24z" fill="#f19432" opacity=".9"/><path d="M52.89 132.45c5.48-.46 13.46-1.23 17.74-1.72l3.5-.75a65.72 65.72 0 0 0 9.87-2.89 49.62 49.62 0 0 0 8.47-4.2 40.84 40.84 0 0 0 7-5.52 31.32 31.32 0 0 0 5.43-7.22 38.88 38.88 0 0 0 3.49-9c.08-.32.15-.65.22-1l-59.15 32.5zM33.82 159.07l1.65-17.17a9.89 9.89 0 0 1 1.31-4L-.38 150.29l-1 10.45-.91 9.43a10 10 0 0 0 0 1z" fill="#fde92b" opacity=".9"/><path d="M5.09 181.08l29.08-13.3-.11-10.5-34.67 15.86a10 10 0 0 0 5.7 7.94z" fill="#91be4a" opacity=".9"/><path d="M8.69 181l14.82 1.39a10 10 0 0 0 10.89-9l.37-4-30.3 10.18A9.89 9.89 0 0 0 8.69 181z" fill="#009e54" opacity=".9"/></svg>