<svg xmlns="http://www.w3.org/2000/svg" width="140.43" height="200" viewBox="0 0 140.43 200"><title>_</title><path d="M71.94 29.65a85.94 85.94 0 0 0-13.73.51 72.07 72.07 0 0 0-12.72 2.7 66.1 66.1 0 0 0-11.67 4.89 67.11 67.11 0 0 0-10.57 7.08 64.06 64.06 0 0 0-10.88 11.34q-1.15 1.55-2.22 3.18l72.07-28.66a84.85 84.85 0 0 0-10.28-1.04z" fill="#00a8de" opacity=".9"/><path d="M97.91 29.54c-.7-.21-1.4-.43-2.11-.63a70.16 70.16 0 0 0-13-2.19c-1.16-.09-2.34-.14-3.54-.18L11.68 64.61A69.86 69.86 0 0 0 7.41 76c-.47 1.68-.86 3.41-1.23 5.17z" fill="#0070b4" opacity=".9"/><path d="M37.69 89.45c.13-.73.26-1.46.41-2.16a45.93 45.93 0 0 1 2.63-8.44 34.52 34.52 0 0 1 3.92-6.91 34.06 34.06 0 0 1 5-5.5 30.83 30.83 0 0 1 5.94-4 33.16 33.16 0 0 1 6.9-2.64 41.39 41.39 0 0 1 7.94-1.24 43.9 43.9 0 0 1 8.5.25 32.7 32.7 0 0 1 7.38 1.85 28.67 28.67 0 0 1 3.49 1.62l31.54-16.46q-1.46-1.35-3-2.61a68.82 68.82 0 0 0-10.89-7.27 65.68 65.68 0 0 0-9.83-4.26L4.33 80.33a89.09 89.09 0 0 0-2 11.72 114.49 114.49 0 0 0-.41 16.06z" fill="#333391" opacity=".9"/><path d="M90.44 65.34a28.07 28.07 0 0 1 2.87 1.78 30.32 30.32 0 0 1 5.44 5q.62.72 1.21 1.49l30.14-15.87c-.18-.23-.34-.48-.52-.71a66.1 66.1 0 0 0-7.66-8.27zM34.62 102.73c.24-2 .53-4 .88-5.88a69.3 69.3 0 0 1 1.87-7.67l-37.83 14c-.08 1-.18 1.93-.24 2.92-.22 3.35-.3 6.62-.27 9.8z" fill="#932b8d" opacity=".9"/><path d="M99.54 71.45a39.46 39.46 0 0 1 2.57 5.49 49.89 49.89 0 0 1 2.34 8.45 68.25 68.25 0 0 1 1 8.92l33.88-12.22a77.1 77.1 0 0 0-2.1-8.86 68.51 68.51 0 0 0-5.67-13.34zM37 124.59q-1-2.72-1.76-5.72a90.81 90.81 0 0 1-2.33-13.2q-.3-2.88-.45-5.62L-.39 119c.56 3.06 1.23 6 2 8.83a87.44 87.44 0 0 0 5.18 14.18z" fill="#e91388" opacity=".9"/><path d="M106.87 96.42c.06.29.12.57.17.87a97.68 97.68 0 0 1 1.33 11.07v.54l33.29-17.53c-.3-1.66-.63-3.3-1-4.9-.56-2.34-1.22-4.61-1.94-6.84zM40.72 138.44a43.11 43.11 0 0 1-2.27-5.85 53 53 0 0 1-1.33-5.37L4.6 139.86c.18.63.35 1.28.55 1.89a70.89 70.89 0 0 0 3.64 9.09z" fill="#ea245f" opacity=".9"/><path d="M140.27 90.68l-33.47 17.2c.08 1.5.12 3 .12 4.43 0 1.61 0 3.18-.13 4.64s-.22 2.92-.4 4.3-.41 2.71-.68 4c-.17.84-.38 1.72-.62 2.63s-.54 1.89-.86 2.89-.71 2.1-1.11 3.15v.08c0 .08-3.35-2.62-7.37-6a9.92 9.92 0 0 0-13.82 1.44L77.14 135c-3.58 4.18-3.3 10.32.63 13.66l.41.34 63.63-32.69c.05-1.21.09-2.44.1-3.69 0-3 0-6.16-.23-9.4a110.35 110.35 0 0 0-1.41-12.54zM61 156.09c-.73-.26-1.46-.53-2.16-.84a31.54 31.54 0 0 1-5.06-2.77 33.24 33.24 0 0 1-10.25-11.08 37.42 37.42 0 0 1-1.69-3.4L9.63 149.65c.85 1.88 1.76 3.72 2.76 5.48a63.78 63.78 0 0 0 9.27 12.45c.65.69 1.32 1.35 2 2z" fill="#eb2d2e" opacity=".9"/><path d="M76.59 147.41c3.59 3.32 6.46 6 6.44 6q-.79.3-1.49.53a30.806 30.806 0 0 1-3.54.95c-.77.16-1.52.29-2.3.4s-1.56.2-2.35.26a39.58 39.58 0 0 1-8.65-.29 34.19 34.19 0 0 1-3.53-.72l-36 16.67a64.61 64.61 0 0 0 8.14 5.67c1.15.67 2.32 1.29 3.52 1.9l102.57-47.46.24-1.06c.56-2.48 1-5.15 1.39-7.92.21-1.61.38-3.27.52-5z" fill="#f19432" opacity=".9"/><path d="M37.94 182a65 65 0 0 0 8.22 2.9 71.32 71.32 0 0 0 12.9 2.3 86.42 86.42 0 0 0 13.91 0c2.06-.16 4.06-.37 6-.63L131.85 158c-2.33-2.36-3.65-4.42-3.16-5.16l.59-1a53 53 0 0 0 2.78-5.35 59.7 59.7 0 0 0 2.25-5.83l.66-2c.58-2.3 1.57-6.32 2.21-8.92l.24-1.46z" fill="#fde92b" opacity=".9"/><path d="M76.71 183.4c2.16 0 4.26 0 6.24-.15s4-.33 5.83-.61 3.69-.64 5.42-1.08c1-.27 2.14-.6 3.27-1s2.31-.82 3.53-1.31 2.48-1 3.8-1.64l.76-.35c.79-.38 3.91 2 7.22 5.47l27-9.63a9.85 9.85 0 0 0-2.31-4.37l-1.91-2.1a40.2 40.2 0 0 1-2.85-3.49l-56.64 20.25z" fill="#91be4a" opacity=".9"/><path d="M115.1 184.81l3.53 2.67a10.09 10.09 0 0 0 14-1.93l4.66-6.11a9.92 9.92 0 0 0 1.15-10.09l-24.68 14.51c.48.31.91.62 1.34.95z" fill="#009e54" opacity=".9"/></svg>