<svg xmlns="http://www.w3.org/2000/svg" width="114.6" height="200" viewBox="0 0 114.6 200"><title>_</title><path d="M-.44 42.49l-.19 6.67 37.92-15.61-27.45-.77A10 10 0 0 0-.44 42.49z" fill="#00a8de" opacity=".9"/><path d="M.74 65.19l64.71-34.47-5.61.37L36 32.78-.19 52.05z" fill="#0070b4" opacity=".9"/><path d="M-.08 77.09l.27 13.16 34.07-16v-.86A10 10 0 0 1 44 63.18L54.74 63l3.68-.07 45.25-21.26c-.52-.41-1-.82-1.58-1.2A38 38 0 0 0 98.27 38a39.49 39.49 0 0 0-4.12-2 36.15 36.15 0 0 0-4.76-1.53 54.48 54.48 0 0 0-5.53-1.07c-2-.28-4.08-.49-6.31-.63l-2.23-.14h-9.31L-.35 63.93z" fill="#333391" opacity=".9"/><path d="M58 61.7c4.19.21 8 .41 9.18.49l1.27.16a35 35 0 0 1 3.49.61 21.71 21.71 0 0 1 2.82.85 13 13 0 0 1 2.15 1A11.86 11.86 0 0 1 79 66.46l33.47-13c-.31-.53-.63-1-1-1.55-.67-1-1.39-2.08-2.13-3.06a39.44 39.44 0 0 0-2.95-3.48c-.58-.61-1.19-1.19-1.81-1.76zM33.81 85.23c0-.12 0-.23-.05-.34L32.4 72.15-.19 91l1.39 13.09z" fill="#932b8d" opacity=".9"/><path d="M79.13 68.58a11.2 11.2 0 0 1 .89.71 12.49 12.49 0 0 1 2.43 3 18.16 18.16 0 0 1 1.74 4.19 30.21 30.21 0 0 1 1 5.48 24.53 24.53 0 0 1 0 5.06 15.07 15.07 0 0 1-1 4 11.19 11.19 0 0 1-1.91 3.09c-.17.2-.36.39-.54.57l38-21.22c-.12-1-.26-2.08-.43-3.08-.24-1.39-.55-2.76-.9-4.06s-.77-2.59-1.24-3.82a36.48 36.48 0 0 0-1.63-3.5c-.56-1.1-1.18-2.21-1.83-3.28s-1.36-2.12-2.07-3.1q-.56-.77-1.15-1.52zM72.35 93.22c-.45.13-.91.26-1.39.37-1.11.26-2.34.49-3.65.68l-1.31.19c-1.65.15-7.49.59-13 1l-9.84.72a10 10 0 0 1-10.66-8.9L-.7 105.05l1 13.13 1 13.13z" fill="#e91388" opacity=".9"/><path d="M80.35 93.81a12.34 12.34 0 0 1-2.57 1.49 14.77 14.77 0 0 1-2.35.78c-.5.13-1 .23-1.61.33l-75 29.89-.52 13.16 120-47.83c.23-.66.46-1.32.66-2a44 44 0 0 0 1.24-5.33 43.15 43.15 0 0 0 .56-5.4v-1.23z" fill="#ea245f" opacity=".9"/><path d="M-.24 155.37l.08 13.17L34.14 153 34 135.66a10 10 0 0 1 10-10.06h20.73l1.67.17a29.46 29.46 0 0 1 4.41.76 16 16 0 0 1 3.28 1.22 8.85 8.85 0 0 1 2.18 1.54 8.75 8.75 0 0 1 1.57 2.22 14.75 14.75 0 0 1 .65 1.49l31.42-14.21a24.58 24.58 0 0 0-1.6-2.07 26.58 26.58 0 0 0-3.51-3.35l-1.23-1c-1.55-1-2.62-1.86-2.37-2l.23-.12a32.53 32.53 0 0 0 5.07-3.43 29.62 29.62 0 0 0 4.18-4.25 30.18 30.18 0 0 0 3.25-5 52.38 52.38 0 0 0 2.35-5.24c.42-1.09.78-2.2 1.11-3.31L-.32 142.2z" fill="#eb2d2e" opacity=".9"/><path d="M78.87 133.38a34.44 34.44 0 0 1 .37 4.87v1.83c-.06.91-.15 2.22-.27 3.7l35.45-11.71a40.13 40.13 0 0 0-.76-4.91 26.72 26.72 0 0 0-1.54-4.78c-.28-.65-.61-1.28-.95-1.9L78.44 131.3a20.67 20.67 0 0 1 .43 2.08zM-.76 170.73a10 10 0 0 0 3.14 8L34 167.26l.94-13.13L-.49 167z" fill="#f19432" opacity=".9"/><path d="M80.35 152.55c0 3.68.06 7.67.08 8.87l.05 1.08c.06 1.12.14 2.2.23 3.23s.23 2.16.37 3.2c.1.69.22 1.4.34 2.11l34.08-14.83v-6.63-9.86l-.16-2.26a61.73 61.73 0 0 0-.76-6.38c0-.23-.09-.45-.13-.68l-34.23 14.9c.08 2.31.12 5.01.13 7.25zM9.38 181.7l14.39.42a10 10 0 0 0 10.28-9.71l.17-5.92-31.08 12.77a9.94 9.94 0 0 0 6.24 2.44z" fill="#fde92b" opacity=".9"/><path d="M81.91 172.83c.12.51.26 1 .41 1.64s.33 1.19.51 1.84.4 1.34.62 2.07l.22.73.79 2.46c.08.26 1.42.45 3.46.55l28.79-14a13.35 13.35 0 0 1-.51-1.59 18.53 18.53 0 0 1-.36-1.88c-.12-.8-.23-1.75-.33-2.8s-.19-2.31-.27-3.65l-.08-1.36c0-.36 0-.82-.05-1.32l-33.42 16.25c.07.36.13.7.22 1.06z" fill="#91be4a" opacity=".9"/><path d="M94.1 181.64l17.58.54c5.5.17 10-1.38 10.11-3.45s-.15-3.93-.48-4.14-1.08-.73-1.67-1.16l-.44-.43a8.7 8.7 0 0 1-1.19-1.49 9.75 9.75 0 0 1-.89-1.81c-.07-.19-.13-.4-.19-.6L87.3 181.19c1.81.2 4.2.37 6.8.45z" fill="#009e54" opacity=".9"/></svg>