<svg xmlns="http://www.w3.org/2000/svg" width="121.86" height="200" viewBox="0 0 121.86 200"><title>_</title><path d="M61.21 30.8a102.13 102.13 0 0 0-13.31-.27A72.56 72.56 0 0 0 36 32.05a54.19 54.19 0 0 0-10.4 3.35 44.52 44.52 0 0 0-8.88 5.22 48.47 48.47 0 0 0-7.13 6.62 42.92 42.92 0 0 0-4.7 6.52l63.19-22.1c-2.24-.37-4.53-.66-6.87-.86z" fill="#00a8de" opacity=".9"/><path d="M83.29 34.5a69.42 69.42 0 0 0-10.46-3c-1.46-.3-3-.56-4.49-.78L5.59 53.87c-.22.39-.45.77-.65 1.17a43.11 43.11 0 0 0-3.41 8.76C1.25 64.83 1 65.9.8 67l85.08-31.45Q84.6 35 83.29 34.5z" fill="#0070b4" opacity=".9"/><path d="M35 77.31a11.9 11.9 0 0 1-.39-3 14.7 14.7 0 0 1 .33-3.39A11.77 11.77 0 0 1 36 68a11.91 11.91 0 0 1 1.81-2.53 15.26 15.26 0 0 1 2.65-2.24 21.47 21.47 0 0 1 3.43-1.88A27.19 27.19 0 0 1 47.93 60a36.36 36.36 0 0 1 4.72-.88 53.79 53.79 0 0 1 10.29-.19 41.73 41.73 0 0 1 4.44.58 33.18 33.18 0 0 1 4 1c.6.19 1.18.4 1.75.63l33.38-15.36a45.22 45.22 0 0 0-5.8-5 61.39 61.39 0 0 0-9-5.39 62.52 62.52 0 0 0-7.17-3L2.13 70.36a51.16 51.16 0 0 0-.34 6.53 53.72 53.72 0 0 0 1.08 10.36 41.48 41.48 0 0 0 1.56 5.48l31-14.25a9.41 9.41 0 0 1-.43-1.17z" fill="#333391" opacity=".9"/><path d="M42.32 83.32a21.1 21.1 0 0 1-2.68-1 13.15 13.15 0 0 1-2.7-1.61 9.53 9.53 0 0 1-1.88-2 8.92 8.92 0 0 1-.72-1.23L4.27 93.6A37 37 0 0 0 5.95 97a34 34 0 0 0 3.93 5.62L44.78 84c-.9-.23-1.78-.46-2.46-.68zM74.92 62.37a20.11 20.11 0 0 1 4.29 2.8 16.66 16.66 0 0 1 3.11 3.57l.17.26 30.61-14a42 42 0 0 0-4.66-6.67c-.6-.7-1.23-1.37-1.88-2L73.16 61.6c.61.24 1.2.5 1.76.77z" fill="#932b8d" opacity=".9"/><path d="M84.1 72.79l.46 1.67c.2 2.1.39 4.34.42 5a1.17 1.17 0 0 0 1 1.19l23.69-.52 9-3.82c-.09-1.57-.2-3.49-.32-5.45l-.75-3.52a46.75 46.75 0 0 0-3.31-10c-.3-.63-.62-1.26-.94-1.87l-31 13.16a18.14 18.14 0 0 1 1.75 4.16zM74.27 93.19l-5.78-1.44-14.35-3.6-1.94-.54c-2-.55-3.75-1.08-5.29-1.58l-1.57-.53L9 101.13q.66.91 1.38 1.78a35 35 0 0 0 6.76 6.2 39 39 0 0 0 5.51 3.2 76 76 0 0 0 7.2 3l48.87-21z" fill="#e91388" opacity=".9"/><path d="M118.85 80.09c0-.38.09-1.76.16-3.62l-9.31 3zM91.28 95.64L88.77 95c-2.25-.44-6.58-1.24-10.88-2l-47.31 24.3c2.7.78 5.75 1.53 9.07 2.24l3.3.71 3.88.67 47.54-24.44c-1.01-.29-2.03-.58-3.09-.84zM18.21 133.11l-8.69-.54c-5.49-.34-10-.06-10.06.63s-.1 3.53-.16 7z" fill="#ea245f" opacity=".9"/><path d="M-.5 143.27l.82 3.47a45.41 45.41 0 0 0 3.55 9.87 42.24 42.24 0 0 0 2.85 4.83l30.48-14.77a16.07 16.07 0 0 1-1-1.44 22 22 0 0 1-1.48-3 32.25 32.25 0 0 1-1.23-3.67l-.37-1.35c-.33-1.66-.68-3.49-.78-4.08s-4.68-.92-10.18-.75l-4.67.15-18.17 8.8zM115.78 115.61a35.51 35.51 0 0 0-5.41-6.66 39.73 39.73 0 0 0-4.62-3.8 56.45 56.45 0 0 0-5.65-3.49c-1.18-.64-2.44-1.28-3.76-1.9l-50.77 16.7c3.69 1.24 8.06 2.7 11.1 3.7 4.17 1.37 9.49 3.13 11.81 3.9l1.85.7a78.8 78.8 0 0 1 5.11 2.11q1.42.64 2.66 1.29l37.74-12.42z" fill="#eb2d2e" opacity=".9"/><path d="M8.84 164.47a45.21 45.21 0 0 0 4.26 4.77l34.6-14.49-.7-.23a23.39 23.39 0 0 1-5.13-2.62 17.86 17.86 0 0 1-3.78-3.49c-.23-.28-.44-.6-.66-.91L6.21 160.59a42.5 42.5 0 0 0 2.63 3.88zM120.43 120.69a34.45 34.45 0 0 0-3.77-7.44L79.4 127c.52.25 1 .49 1.5.74a29.42 29.42 0 0 1 3.19 1.89 12.89 12.89 0 0 1 2.19 1.94 9.62 9.62 0 0 1 1.43 2.12 9 9 0 0 1 .52 1.38l32.93-12.19c-.22-.71-.46-1.46-.73-2.19z" fill="#f19432" opacity=".9"/><path d="M17.22 174a54.07 54.07 0 0 0 9.53 5.58 64 64 0 0 0 11 3.81h.13l85-41.32a49.82 49.82 0 0 0 .22-6.6 51.3 51.3 0 0 0-1.17-9.48 40.55 40.55 0 0 0-1.92-6.2l-31.6 15.41a9.36 9.36 0 0 1 .35 1 11.39 11.39 0 0 1 .41 2.74 16.35 16.35 0 0 1-.53 4.9 12.4 12.4 0 0 1-1.87 3.94 14.27 14.27 0 0 1-3.32 3.22 22.58 22.58 0 0 1-5 2.61 31.72 31.72 0 0 1-3.34 1.06c-1.22.32-2.53.59-3.91.83s-2.9.43-4.47.57-3.27.25-5 .31a57.06 57.06 0 0 1-8.07-.26 36.49 36.49 0 0 1-6-1.14L14 171.39c1 .91 2.08 1.8 3.22 2.61z" fill="#fde92b" opacity=".9"/><path d="M51 187.62c2.29.08 4.66.07 7.09 0l60.17-33.75c.13-.33.26-.65.38-1a42.52 42.52 0 0 0 2.18-9.39c.13-1.12.2-2.26.25-3.41L38.63 186.3A82.1 82.1 0 0 0 51 187.62z" fill="#91be4a" opacity=".9"/><path d="M61.57 183.34a103.32 103.32 0 0 0 13.48.4 75.63 75.63 0 0 0 12.14-1.42A58.16 58.16 0 0 0 98 179a49.12 49.12 0 0 0 9.38-5.17 50.25 50.25 0 0 0 7.66-6.63 43.25 43.25 0 0 0 5.24-6.86l-65.37 22.19q3.25.47 6.66.81z" fill="#009e54" opacity=".9"/></svg>