<svg xmlns="http://www.w3.org/2000/svg" width="120.58" height="200" viewBox="0 0 120.58 200"><title>_</title><path d="M10.76 32.35a10 10 0 0 0-10.93 9L-.7 46.6 35 34.74z" fill="#00a8de" opacity=".9"/><path d="M33.3 32.75l-33.06 18 .41 5.17A9.92 9.92 0 0 0 3 61.49l56.7-30.82z" fill="#0070b4" opacity=".9"/><path d="M59.47 32.81l-56.64 31a10 10 0 0 0 8.46 3.54l23.18-1.91a9.94 9.94 0 0 1 6.73 1.92l70.69-38.71a9.92 9.92 0 0 0-1.84 0l-24.17 2z" fill="#333391" opacity=".9"/><path d="M42.55 72.09l-.1 2.72L121.9 43a10 10 0 0 0-7.71-8.52l-74.81 30a10 10 0 0 1 3.17 7.61z" fill="#932b8d" opacity=".9"/><path d="M46.07 103.28l33.69-18.87-1-10.56a10 10 0 0 1 9-10.87l23-2.11a10 10 0 0 0 9-10.87v-.36l-.93-10.08a9.92 9.92 0 0 0-.29-1.58L43.91 79.8z" fill="#e91388" opacity=".9"/><path fill="#ea245f" opacity=".9" d="M43.03 111.35l35.5-15.18.18-11.8L43.2 99.56l-.17 11.79z"/><path fill="#eb2d2e" opacity=".9" d="M42.78 134.78l35.63-14.89.54-23.58-35.62 14.89-.55 23.58z"/><path fill="#f19432" opacity=".9" d="M42.16 145.5l36.45-12.77.96-11.75-36.44 12.76-.97 11.76z"/><path fill="#fde92b" opacity=".9" d="M41.96 169.35l36.24-13.32 1.57-23.53-36.24 13.32-1.57 23.53z"/><path d="M42.9 170.31a10 10 0 0 0 3.77 8.76l31.85-10.78 1.09-11.74L43 168.93z" fill="#91be4a" opacity=".9"/><path d="M52.57 181l15.21 1.41a10 10 0 0 0 10.88-9l.49-5.28-31.85 10.76a9.92 9.92 0 0 0 5.27 2.11z" fill="#009e54" opacity=".9"/></svg>