<svg xmlns="http://www.w3.org/2000/svg" width="123.9" height="200" viewBox="0 0 123.9 200"><title>_</title><path d="M23.47 33.54L6 32.54c-5.49-.31-8.79 3.77-7.32 9.07l1.12 4.07 30.52-11.55c-1.82-.23-4.23-.44-6.85-.59z" fill="#00a8de" opacity=".9"/><path d="M34.41 35.41c0-.21-1.3-.53-3.26-.88L.1 44.61l2.4 10.67L36 44.41z" fill="#0070b4" opacity=".9"/><path d="M37.49 45.2l-.32-1.59L4 55.34l5.34 21.2 32.18-11.37zM102 33a14.13 14.13 0 0 0-12.48 9.81l21-10z" fill="#333391" opacity=".9"/><path fill="#932b8d" opacity=".9" d="M43.04 65.18L10.57 75.79l2.42 10.66L44.96 76l-1.92-10.82zM89.43 42.29v.12l-4.09 13.5L126 38.44c-.58-3.06-3.2-5.2-7.06-5.25l-8.05-.11z"/><path d="M79.69 85.61L118 64.24l5.79-23.82a8.22 8.22 0 0 0 0-4.32l-38.7 21.57zM44.55 74L14.1 88.27l7.4 20.57 29.51-13.82L44.55 74z" fill="#e91388" opacity=".9"/><path fill="#ea245f" opacity=".9" d="M51.41 95.94l-30.29 12 3.07 10.49 29.8-11.8-2.58-10.69zM73.27 96.72l39.59-16.62 5.09-13.94-40.44 16.98-4.24 13.58z"/><path fill="#eb2d2e" opacity=".9" d="M65.86 124.7l37.42-16.97 9.39-28.16-39.1 17.73-7.71 27.4zM59.7 126.25L54.07 106 24.7 118.85l6.86 20.76L60 127.19q-.16-.44-.3-.94z"/><path d="M65.46 126c-1.79 4.83-4.08 5-5.28.54L31 137l2.72 10.59L98.9 124.2l5.82-13.65L66 124.42z" fill="#f19432" opacity=".9"/><path fill="#fde92b" opacity=".9" d="M44.08 172.53l45.01-24.22 7.45-28.74-60.99 32.84 8.53 20.12z"/><path d="M42.25 170.71a14.37 14.37 0 0 0 5.45 7.68l36.4-12.95 5.9-13.63-48.2 17.13z" fill="#91be4a" opacity=".9"/><path d="M57 183.05l11.93-1.31a15 15 0 0 0 12.12-10.85l1.95-8.74-33.37 19.47a13.76 13.76 0 0 0 7.37 1.43z" fill="#009e54" opacity=".9"/></svg>