<svg xmlns="http://www.w3.org/2000/svg" width="185.42" height="200" viewBox="0 0 185.42 200"><title>_</title><path d="M-.41 42.12L1 48l30.2-12.21a12.38 12.38 0 0 0-6.8-2.47l-17.23-.57c-5.49-.19-8.91 4.03-7.58 9.37z" fill="#00a8de" opacity=".9"/><path d="M6.28 62.31l30.64-17.93-1.22-3.47A12.84 12.84 0 0 0 29.54 34L1.46 50.47z" fill="#0070b4" opacity=".9"/><path fill="#333391" opacity=".9" d="M11.19 85.02l31.65-12.98-5.05-25.28L4.95 60.23l6.24 24.79zM109.74 34c-.09-.44-4.66-.83-10.16-.88h-1.2L83.76 33a12.68 12.68 0 0 0-12 9.72L68.21 60l43-18.74z"/><path d="M112.3 45.17l-.57-3.29-43.47 17.6-3.49 15.06 49.16-19.9zM151.86 37.33l8.43-4.68a13 13 0 0 0-8.43 4.68zM15.98 98.41l29.87-15.3-3.58-12.39-30.44 15.6 4.15 12.09z" fill="#932b8d" opacity=".9"/><path d="M20.23 121l30.71-9.88-.18-1.55-2.87-24.09-31.95 10.28zM89.15 88.6c1.15-3.84 2.32-3.7 2.61.32 0 .63.1 1.36.16 2.15l27-8.61-2.43-25.78L66 72.77l-9.27 29.51L88 92.31c.45-1.41.84-2.69 1.15-3.71zM184.21 43.8c1.78-5.2-1.26-9.71-6.75-10l-15.89-.88h-.09l-9 3.43a12.24 12.24 0 0 0-3.66 5.62l-7.43 25.67 39.87-15.16z" fill="#e91388" opacity=".9"/><path d="M86.74 105c.67-4 1.51-9.18 2.13-13.24l-29.5 14.46-.37 2.45c-.71 4.52-1.53 9.75-2 12.82l29.4-14.41zM25.95 134.81l28.44-13.3c-.53-2.55-1.76-7.84-2.93-12.6l-29.23 13.67zM95.89 103.68l25.8-12.12-2.89-12.62L93.13 91c.75 3.55 1.87 8.5 2.76 12.68zM180.91 50.96l-38.55 18.26-3.19 15.52 37.66-17.85 4.08-15.93z" fill="#ea245f" opacity=".9"/><path d="M96.63 104.1l2.47 23.59 27.06-9c-.3-3-.67-6.61-1-9.73l-1.69-16-27.07 9c.08.72.16 1.45.23 2.14zM30.58 157.1l49-17 8.87-29.86L57.51 121l-.43 1.55c-.67 2.43-1.42 2.24-1.67-.43v-.38L25.72 132zM176.45 66.92L138.66 84.5l-5.21 24.44c-.45 2.1-.92 4.37-1.37 6.53l36-16.73z" fill="#eb2d2e" opacity=".9"/><path fill="#f19432" opacity=".9" d="M36.12 171.41l40.8-18.01 3.2-15.25-47.45 20.95 3.45 12.31zM102.24 139.54l61.53-22.93 5.43-15.53-37.2 13.86c-1 3.31-1.81 6.32-2.23 7.9-.69 2.59-1.56 2.33-1.93-.57-.16-1.25-.42-3.22-.73-5.5l-26.71 10z"/><path fill="#fde92b" opacity=".9" d="M111.56 169.28l43.48-25.03 5.6-32.41-56.91 32.75 7.83 24.69zM36.2 171.28a14 14 0 0 0 12.21 10.27l11.84.62A12.84 12.84 0 0 0 72.77 173l4.87-18.61L36 170.4z"/><path d="M109.67 171.78a12.15 12.15 0 0 0 3.65 6.45l36.8-15.61 4.73-15.75-46.19 19.6z" fill="#91be4a" opacity=".9"/><path d="M121.53 181.62l12.72.38a14 14 0 0 0 13-9.19l3.16-9.94-37 15a12.47 12.47 0 0 0 8.12 3.75z" fill="#009e54" opacity=".9"/></svg>