<svg xmlns="http://www.w3.org/2000/svg" width="130.93" height="200" viewBox="0 0 130.93 200"><title>_</title><path d="M32.22 33.88L10.35 32.3c-5.49-.4-7.87 3.26-5.35 8.12l2.66 5L36.69 35a14.75 14.75 0 0 0-4.47-1.12z" fill="#00a8de" opacity=".9"/><path d="M46.56 41.74c-1.95-3.53-6.06-6.58-10.29-8L8.16 46.4l6.59 10.5L47 42.45z" fill="#0070b4" opacity=".9"/><path fill="#333391" opacity=".9" d="M46.81 42.42L14.69 57.06 28 77.99l30.84-14.06-12.03-21.51zM122.78 35.27L102.14 33c-5.47-.61-12.57 2.53-15.78 7l-9.22 12.73L127 36.95a7.19 7.19 0 0 0-4.22-1.68z"/><path d="M127.27 44c2.11-3 2-5.67.07-7.25L78.55 55.51l-8 12.65c-2.95 4.64-7.31 4.39-9.69-.57l-2.15-4.47L27 75.27l6 10.85 88.43-33.93z" fill="#932b8d" opacity=".9"/><path d="M121.64 50.91L34.25 87.43l5.52 9.33c2.38 4 2.59 10.12.73 14.68L97 87.83z" fill="#e91388" opacity=".9"/><path d="M91.46 96.72l5.86-9.09-56.12 24.5a12.82 12.82 0 0 1-1.13 2.27l-10.36 16.15 59.49-26a15.87 15.87 0 0 1 2.26-7.83z" fill="#ea245f" opacity=".9"/><path d="M67.11 142.12l33.16-11.54-7.15-13.85a16.36 16.36 0 0 1-1.4-9.19l-61.31 21.33-26.66 35.29 56.54-19.67c2.07-2.81 4.65-3.57 6.82-2.37z" fill="#eb2d2e" opacity=".9"/><path d="M7.72 184.08l42.34-23.75L59 141.38l.1-.2-52.24 29.3-2.86 5.6c-2.2 4.35-.52 7.67 3.72 8zM70.74 144l3.87 7 31.61-13.85-6.53-10.45-32.16 14.09a7.25 7.25 0 0 1 3.21 3.21z" fill="#f19432" opacity=".9"/><path d="M7.6 182h20.93c5.5 0 12.27-3.92 15-8.67l6.6-11.3-44.24 19.86a10 10 0 0 0 1.71.11zM87.4 172.78l.32.5 31.84-16.4-14.37-20.23-30.68 15.8z" fill="#fde92b" opacity=".9"/><path d="M92.94 183c.12.17 2 .11 4.78-.11l28-16.48-7.74-9.7-30.86 18.2z" fill="#91be4a" opacity=".9"/><path d="M101.51 181.35l22.49 1.18c5.49.29 7.8-3.41 5.12-8.21l-2.78-5L96 181c1.6.11 3.49.24 5.51.35z" fill="#009e54" opacity=".9"/></svg>