<svg xmlns="http://www.w3.org/2000/svg" width="131.32" height="200" viewBox="0 0 131.32 200"><title>_</title><path d="M1.52 42.24l2.21 3.71 27.64-13.4c-1.16 0-2.41 0-3.72.09l-21.26.69c-5.5.17-7.69 4.18-4.87 8.91z" fill="#00a8de" opacity=".9"/><path d="M7.85 53.81l33.9-11.28L39 35c-.07-.19-2.73-.6-6.41-1L3.47 43.69z" fill="#0070b4" opacity=".9"/><path d="M17.74 73.24l32.77-10.43-6.4-18.42L43.3 42l-34 10.84zM103.06 33c-5.5.11-11.78 4.33-14 9.38l-.76 1.79 24.28-11.4z" fill="#333391" opacity=".9"/><path d="M132.75 35.68c.47-.79-3.64-1.64-9.13-1.9l-10.33-.48-25 9.77-7.56 14.76L131.34 38zM23.77 82.81l32.02-10.57-3.72-10.34-32.65 10.78 4.35 10.13z" fill="#932b8d" opacity=".9"/><path d="M35.89 103.84L114 68.16l12.47-23.84 4.13-7.9L81.19 59l-10.8 24.28c-2.24 5-6 5.09-8.45.15l-6.25-12.79L25 84.65z" fill="#e91388" opacity=".9"/><path fill="#ea245f" opacity=".9" d="M40.76 112.85l64.88-28.34 8.56-15.73-78.72 34.38 5.28 9.69z"/><path d="M43.48 118.05a47 47 0 0 1 5.11 16.48l40.24-19L105 83.58l-64 30.23z" fill="#eb2d2e" opacity=".9"/><path d="M47.87 134.95l-.57 9.81L83.85 131a46.7 46.7 0 0 1 4.84-12.51l.85-1.38-41.64 15.67c.02.76.01 1.49-.03 2.17z" fill="#f19432" opacity=".9"/><path d="M47.15 169.09L83 155.26l.9-18.26a35.54 35.54 0 0 1 .92-6l-36.45 14.06z" fill="#fde92b" opacity=".9"/><path d="M47.85 170.72a10 10 0 0 0 3.69 8.46l31.69-11.52.84-12L48 168.78z" fill="#91be4a" opacity=".9"/><path d="M59 182.92l15-1.55a10 10 0 0 0 8.92-11l-.57-5.51-29.25 16.83a9.92 9.92 0 0 0 5.9 1.23z" fill="#009e54" opacity=".9"/></svg>