<svg xmlns="http://www.w3.org/2000/svg" width="116.85" height="200" viewBox="0 0 116.85 200"><title>_</title><path d="M11.68 33.63a10 10 0 0 0-9.27 10.68l.45 6.35 35.51-18.92z" fill="#00a8de" opacity=".9"/><path d="M39.83 33.28L2.15 47.4l-.25 4.12A10 10 0 0 0 4.66 59l64-24z" fill="#0070b4" opacity=".9"/><path d="M107 35.3l-9.58-.47-28.82-1.41L4.89 58.11a10 10 0 0 0 6.66 3l44.83 2.2 58.9-22.83A10 10 0 0 0 107 35.3z" fill="#333391" opacity=".9"/><path d="M116.08 42.46a9.9 9.9 0 0 0-1.58-5.18L57.28 64.06l4.17-.06c5.5-.1 7.27 3.39 3.95 7.77L63.65 74l52.55-24.6z" fill="#932b8d" opacity=".9"/><path d="M109.4 66.54a33.67 33.67 0 0 0 5.28-18.14v-.5L62.92 74.17l-29.3 41.21 64.29-32.64z" fill="#e91388" opacity=".9"/><path fill="#ea245f" opacity=".9" d="M97.88 84.04l-65.94 29.18-15.73 19.79 65.98-29.19 15.69-19.78z"/><path d="M79.24 100.23l-63 35.13L8 147.84l-5.62 8.66c-.1.16.21 4.77.71 10.25l.24 2.67 48.3-26.92z" fill="#eb2d2e" opacity=".9"/><path d="M62.2 154.86l-6.92-.74c-5.47-.58-6.8-4.28-3-8.21l.29-.3L0 162.63l-.64 6a9.92 9.92 0 0 0 1.32 6.08z" fill="#f19432" opacity=".9"/><path d="M12.24 186.86l11.57-1.22 28.71-3 59.09-34.16a10 10 0 0 0-7-1.91l-44.86 4.74-56 32.36a10 10 0 0 0 8.49 3.19z" fill="#fde92b" opacity=".9"/><path d="M78.86 181.67l37.75-13.92.26-4a10 10 0 0 0-2.78-7.57l-64 23.61z" fill="#91be4a" opacity=".9"/><path d="M106.44 182a10 10 0 0 0 10.09-9.91l.06-6.36-36.91 16z" fill="#009e54" opacity=".9"/></svg>