<svg xmlns="http://www.w3.org/2000/svg" width="64.14" height="200" viewBox="0 0 64.14 200"><title>_</title><path d="M42.82 15.18L14.2 13a10 10 0 0 0-10.73 9.24l-.54 7.21z" fill="#00a8de" opacity=".9"/><path d="M3.83 45.17l53.11-24.9a10 10 0 0 0-9.7-6.91l-5.32.1-38.36 18z" fill="#0070b4" opacity=".9"/><path d="M2.92 56.9l-.74 13.7 32.07-12.25.49-9.1a10 10 0 0 1 10.53-9.45l2.65.14a10 10 0 0 0 10.53-9.45l.29-5.3a9.91 9.91 0 0 0-.28-2.92L3.66 43.19z" fill="#333391" opacity=".9"/><path fill="#932b8d" opacity=".9" d="M2.2 84.16l32.62-10.72 1.39-13.65L3.59 70.5 2.2 84.16z"/><path fill="#e91388" opacity=".9" d="M3.88 100.29l.66 13.7L35.2 98.53l-1.33-27.42L3.21 86.58l.67 13.71z"/><path fill="#ea245f" opacity=".9" d="M4.27 127.79l30.59-15.6-.72-13.71-30.59 15.6.72 13.71z"/><path fill="#eb2d2e" opacity=".9" d="M3.04 139.51l-1.02 13.68 32.32-11.58 2.06-27.36-32.33 11.57-1.03 13.69z"/><path fill="#f19432" opacity=".9" d="M3.06 167.6l31.82-12.89.47-13.71-31.82 12.89-.47 13.71z"/><path d="M4.13 183.44L4.94 194a9.91 9.91 0 0 0 .66 2.86l39.61-21.42h-.2a10 10 0 0 1-10.74-9.2l-1-12.86-30.2 16.38z" fill="#fde92b" opacity=".9"/><path d="M12.85 201.53l5.31.29 39.42-15a10 10 0 0 0-9.37-8.82l-2.45-.13-42.08 16a10 10 0 0 0 9.17 7.66z" fill="#91be4a" opacity=".9"/><path d="M48 202a10 10 0 0 0 9.48-10.49l-.27-5.4a9.93 9.93 0 0 0-.25-1.74L19.3 203.46z" fill="#009e54" opacity=".9"/></svg>