<svg xmlns="http://www.w3.org/2000/svg" width="79.19" height="200" viewBox="0 0 79.19 200"><title>_</title><path d="M13.72 27.91l-8.24-.74c-5.48-.5-8.77 3.43-7.3 8.73l1.21 4.37 23.22-7.93a15.09 15.09 0 0 0-8.89-4.43z" fill="#00a8de" opacity=".9"/><path d="M26.15 35.76a14.11 14.11 0 0 0-4.82-5.28L0 42.58l5 10.1 23-13.09z" fill="#0070b4" opacity=".9"/><path fill="#333391" opacity=".9" d="M29.38 41.64l-25 8.87 6.25 21.63 25.03-8.88-6.28-21.62z"/><path fill="#932b8d" opacity=".9" d="M35.08 61.12L11.93 74.14l4.93 10.12 23.16-13.02-4.94-10.12z"/><path fill="#e91388" opacity=".9" d="M40.73 72.9l-24.69 9.82 7.07 21.37 24.72-9.83-7.1-21.36z"/><path fill="#ea245f" opacity=".9" d="M48.34 93.91l-24.59 10.13 3.66 10.64 24.61-10.13-3.68-10.64z"/><path fill="#eb2d2e" opacity=".9" d="M52.15 104.22l-24.4 10.63 7.76 21.14 24.42-10.65-7.78-21.12z"/><path fill="#f19432" opacity=".9" d="M60.08 125.31l-24.45 10.61 3.87 10.57 24.45-10.61-3.87-10.57z"/><path fill="#fde92b" opacity=".9" d="M64.17 135.86l-24.5 10.51 7.64 21.18 24.52-10.52-7.66-21.17z"/><path d="M71.78 156.69l-24.25 11.14 1.52 3.9a14.13 14.13 0 0 0 4.41 5.74l22.42-10.29z" fill="#91be4a" opacity=".9"/><path d="M77.28 170.79l-1.89-4.13-21.79 11.55a15 15 0 0 0 9.4 2.93l8.47-.58c5.53-.37 8.1-4.77 5.81-9.77z" fill="#009e54" opacity=".9"/></svg>