<svg xmlns="http://www.w3.org/2000/svg" width="75.51" height="200" viewBox="0 0 75.51 200"><title>_</title><path d="M18 7.9a10 10 0 0 0-10.07 9.91v4.92a9.92 9.92 0 0 0 .23 2.2L46.72 8.17z" fill="#00a8de" opacity=".9"/><path d="M52.48 8.73l-5.32-.23L8 24a10 10 0 0 0 9.41 8.21l2.65.11c.27 0 .53 0 .8.07l40.87-16.17a10 10 0 0 0-9.25-7.49z" fill="#0070b4" opacity=".9"/><path d="M21.64 31.51a10 10 0 0 1 8.47 10.59l-1 13.35 32.33-11.68 1-13.69.76-10.59a9.91 9.91 0 0 0-.2-2.93z" fill="#333391" opacity=".9"/><path fill="#932b8d" opacity=".9" d="M30.51 69.92l31.45-13.77.09-13.72L30.6 56.2l-.09 13.72z"/><path fill="#e91388" opacity=".9" d="M31.48 98.11l30.75-15.28-.57-13.71-.58-13.71-30.75 15.28 1.15 27.42z"/><path fill="#ea245f" opacity=".9" d="M31.18 111.82l30.77-15.25-.57-13.71-30.77 15.25.57 13.71z"/><path fill="#eb2d2e" opacity=".9" d="M30.34 138.43l31.54-13.58.17-13.72.17-13.72-31.54 13.58-.34 27.44z"/><path fill="#f19432" opacity=".9" d="M31.24 153.05l30.7-15.38-.62-13.71-30.7 15.38.62 13.71z"/><path d="M30.89 160.94a10 10 0 0 1-11 8.93l-2.64-.27a10 10 0 0 0-11 8.93l-.55 5.38a9.91 9.91 0 0 0 .14 2.93l55.73-18.3L63 154.9l1.39-13.65L31.8 152z" fill="#fde92b" opacity=".9"/><path d="M18.39 197.26l5.32-.15 38.2-18.32-.39-13.72-52.9 25.37a10 10 0 0 0 9.77 6.82z" fill="#91be4a" opacity=".9"/><path d="M51 197.74a10 10 0 0 0 11-8.86l.78-7.19-40.34 13z" fill="#009e54" opacity=".9"/></svg>