<svg xmlns="http://www.w3.org/2000/svg" width="92.8" height="200" viewBox="0 0 92.8 200"><title>_</title><path d="M49.93 32.89l-5.3.11c-5.5.11-11.63 4.39-13.63 9.51l-1.57 4 28.88-13.58c-1.85-.09-4.93-.11-8.38-.04z" fill="#00a8de" opacity=".9"/><path d="M59.36 32.24a5.36 5.36 0 0 0-1.83-.11L29.46 47.36l-3.1 9.49L62 37.48z" fill="#0070b4" opacity=".9"/><path d="M65.31 45l-1.41-4.39L25.57 54l-9.18 17.74 51.7-18.06z" fill="#333391" opacity=".9"/><path fill="#932b8d" opacity=".9" d="M69.4 54.59L17.17 71.07l-4.85 8.73L71.3 61.19l-1.9-6.6z"/><path d="M43.65 82.69c2-4.73 5.05-5 7.06-.84L75.8 71.08l-5.09-12.74-56.84 24.38-7.92 18.33 36.58-15.7z" fill="#e91388" opacity=".9"/><path fill="#ea245f" opacity=".9" d="M42.68 85.45L6.22 101.43l-3.89 9.2 36.59-16.04 3.76-9.14zM51 82l1.89 5.51 25.51-9.8-2.3-6.47L50.64 81c.13.29.26.61.36 1z"/><path fill="#eb2d2e" opacity=".9" d="M57.39 99.82l26.05-8.78-4.06-13.12-25.89 8.74 3.9 13.16zM39.85 95.84l-37.5 13.77-2.11 4.24c-2.29 4.61-.26 8.69 4.5 9.5l26.48-9.72z"/><path d="M30.24 114.11l.76-2.32-24.78 13.54a10.15 10.15 0 0 0 1 0l10-.82c5.55-.51 11.38-5.15 13.02-10.4zM61.92 108.22l23.99-13.58-3.23-6.05-23.92 13.54 3.16 6.09z" fill="#f19432" opacity=".9"/><path d="M63.85 114.48A13.57 13.57 0 0 0 66.6 119l24.8-9.64-4.64-12.9-25.69 10z" fill="#fde92b" opacity=".9"/><path d="M73.87 123.39l20.28-7.58-2.24-6.49L67 118.64a17.09 17.09 0 0 0 6.87 4.75z" fill="#91be4a" opacity=".9"/><path d="M78.12 124.63l10.06-.43c5.49-.24 8.09-4.51 5.76-9.49l-.06-.13-19.38 9.64a12.75 12.75 0 0 0 3.62.41z" fill="#009e54" opacity=".9"/></svg>