<svg xmlns="http://www.w3.org/2000/svg" width="115.95" height="200" viewBox="0 0 115.95 200"><title>_</title><path d="M9.63 188.08c-5.41.06-9.81 3.36-9.9 7.36L15.91 188z" fill="#00a8de" opacity=".9"/><path d="M16.31 188.36l-16.72 6.13v.19a5.89 5.89 0 0 0 .87 3.42l24.86-9.1z" fill="#0070b4" opacity=".9"/><path d="M34.72 189.39l-9-.93-25.2 8.24c1.4 2.57 4.58 4.57 8.44 5H9l34.7-11.38z" fill="#333391" opacity=".9"/><path fill="#932b8d" opacity=".9" d="M42.59 187.39l-32.44 16.82 9.02-.54 32.44-16.82-9.02.54z"/><path fill="#e91388" opacity=".9" d="M19.4 205.04l9-.73 9-.74 32.06-17.55-9.01.74-9 .74-32.05 17.54z"/><path fill="#ea245f" opacity=".9" d="M46.54 204.05l31.88-17.87-9 .83-31.88 17.87 9-.83z"/><path fill="#eb2d2e" opacity=".9" d="M54.59 202.38l9.03.31L97.5 189l-9.03-.32-9.03-.31-33.88 13.7 9.03.31z"/><path fill="#f19432" opacity=".9" d="M72.57 202.39l34.04-13.3-9.02-.42-34.04 13.3 9.02.42z"/><path d="M81.82 202.76l9 .15 24.4-10.38c-1.62-2.44-5-4.16-8.84-4.23l-33.6 14.31z" fill="#fde92b" opacity=".9"/><path d="M100.4 203.21l15.71-8.39v-.19a5.89 5.89 0 0 0-1.33-3.27l-23.39 12.5z" fill="#91be4a" opacity=".9"/><path d="M106.65 203.13c5.39-.53 9.49-4.19 9.23-8.18l-15.49 8.8z" fill="#009e54" opacity=".9"/></svg>