<svg xmlns="http://www.w3.org/2000/svg" width="53.22" height="200" viewBox="0 0 53.22 200"><title>_</title><path d="M4.17 27c-4.34.38-5.87 2.51-4.21 5.13l10.19-5.65z" fill="#00a8de" opacity=".9"/><path d="M10.19 26.9L-.2 32.17a9.31 9.31 0 0 0 1.87 2.19l.39.35 16.2-8.21z" fill="#0070b4" opacity=".9"/><path d="M2 35.52l5.38 4.57 25.36-13.64-.13-.17c-.18-.24-4.82-.1-10.3.31l-4.31.32z" fill="#333391" opacity=".9"/><path d="M8.68 40.47L35.38 32l-1.48-3-27.44 8.73z" fill="#932b8d" opacity=".9"/><path d="M14.34 46.65l24.27-10.5-3.54-5.63-25.7 11.12z" fill="#e91388" opacity=".9"/><path d="M16.59 48.66l24-9.16-1.49-2.58-.18-.31L14.22 46z" fill="#ea245f" opacity=".9"/><path d="M21.59 53.77l.05.05L44.05 45l-3.35-5.78-23.87 9.43z" fill="#eb2d2e" opacity=".9"/><path d="M25 56.72l20.65-9.83-1.87-2.75-21.72 10.35A19.51 19.51 0 0 0 25 56.72z" fill="#f19432" opacity=".9"/><path d="M32.44 59.86l17-6.3-3.21-5.78-21.44 8a31 31 0 0 0 7.65 4.08z" fill="#fde92b" opacity=".9"/><path d="M38.6 61.11l12-5.16a8.34 8.34 0 0 0-1.21-3.06L32.8 60a22.8 22.8 0 0 0 5.8 1.11z" fill="#91be4a" opacity=".9"/><path d="M38.87 60.8l5.71.36c4.2.26 6.52-1.81 6.19-5l-12.26 4.61z" fill="#009e54" opacity=".9"/></svg>