<svg xmlns="http://www.w3.org/2000/svg" width="95.22" height="200" viewBox="0 0 95.22 200"><title>_</title><path d="M22 71.76a39.9 39.9 0 0 0-9 4.93 33.3 33.3 0 0 0-6.9 6.85A36.27 36.27 0 0 0 3 88.79c-.32.64-.6 1.31-.89 2L50.88 67.5c-1.67-.05-3.37-.07-5.09 0a85.77 85.77 0 0 0-12.84 1.25A56.26 56.26 0 0 0 22 71.76z" fill="#00a8de" opacity=".9"/><path d="M-.21 92.33a46.58 46.58 0 0 0-2 6.3l-.18.75 69.81-27c-1.16-.39-2.34-.75-3.53-1.08a73.83 73.83 0 0 0-8.24-1.76c-1.2-.19-2.44-.34-3.69-.47L1.54 88.58a40.43 40.43 0 0 0-1.75 3.75z" fill="#0070b4" opacity=".9"/><path d="M-.7 106.16v6.12c0 .73 4.51 1 10 .5l11.61-1 1.95-.18 8.34-4.6.15-.84a20.13 20.13 0 0 1 .57-2.37 15.36 15.36 0 0 1 .79-2 12.19 12.19 0 0 1 1-1.69 8.81 8.81 0 0 1 1.76-1.81A11.91 11.91 0 0 1 38 96.77a18.77 18.77 0 0 1 3.36-1.09 30.38 30.38 0 0 1 4.24-.64c1.41-.12 2.75-.18 4-.19A33.55 33.55 0 0 1 53 95h.09l32.08-17.61c-.39-.37-.79-.74-1.2-1.08A26.62 26.62 0 0 0 77 72.19a62.33 62.33 0 0 0-7.6-2.54c-1.43-.38-2.89-.71-4.37-1l-65.6 36z" fill="#333391" opacity=".9"/><path d="M55.2 96.24a13.35 13.35 0 0 1 2.14 1 6 6 0 0 1 1.4 1.09 5.57 5.57 0 0 1 1 1.41 7.53 7.53 0 0 1 .6 1.9L90.79 88.9c-.3-.76-.61-1.51-1-2.22a25.5 25.5 0 0 0-3.5-5.31L52.53 95.51a21.25 21.25 0 0 1 2.67.73zM29.33 109c.1-.57.34-1.84.53-2.85l-8.76 3.79c4.59-.06 8.14-.45 8.23-.94zM30.88 114l-2.42.49c-2.43.49-4.72 1-6.83 1.65a58.61 58.61 0 0 0-5.89 2 39.61 39.61 0 0 0-5 2.42 34.21 34.21 0 0 0-7.15 5.54c-.65.66-1.25 1.36-1.83 2.07l32.07-14.62z" fill="#932b8d" opacity=".9"/><path d="M59.27 102.83a5.66 5.66 0 0 1-.09 1.76 4.71 4.71 0 0 1-.6 1.47 6.3 6.3 0 0 1-1.22 1.41 11.13 11.13 0 0 1-2 1.38 15.08 15.08 0 0 1-1.6.75c-.67.27-1.43.54-2.25.81s-1.82.56-2.86.83l-1.07.28c-1.31.3-4.49 1-7.07 1.59-1.81.4-4.55 1-7 1.61L2.74 132a30 30 0 0 0-2.86 5.25A33.21 33.21 0 0 0-2.41 146a43.77 43.77 0 0 0-.14 9l94.43-53.3c-.4-3.59-.81-7-1.11-9.13l-.87-2.78a32.46 32.46 0 0 0-2.31-5.56L58.8 100.4a12.43 12.43 0 0 1 .47 2.43z" fill="#e91388" opacity=".9"/><path d="M-6.47 148.06c0 .26 0 .51-.06.77a43.69 43.69 0 0 0 .28 7.59c0 .27.08.53.12.8l33.32-13a9.7 9.7 0 0 1 .76-1.58 9.43 9.43 0 0 1 1.72-2 11.88 11.88 0 0 1 2.46-1.67 15.75 15.75 0 0 1 2-.84c.79-.28 1.7-.54 2.7-.79s2.16-.49 3.39-.71l1.27-.22 6-.83 3-.42L94.15 118l.1-2.14c.1-2.25.2-4.82.28-7.31z" fill="#ea245f" opacity=".9"/><path d="M50.84 136.67l1.7-.48.71-.22c.72-.23 1.4-.45 2-.67s1.25-.45 1.81-.68 1.1-.47 1.58-.7 1-.47 1.42-.73l.17-.09c.19-.11.46 1.18.61 2.85s.33 4.95.41 7.27l-.17 1.85a23.71 23.71 0 0 1-.95 4.94 17.2 17.2 0 0 1-.62 1.64l33.91-18.87-1.69-18.89zM36.52 161.93l-.62-.13a13.52 13.52 0 0 1-2.09-.7 11.61 11.61 0 0 1-3.47-2.3 6.72 6.72 0 0 1-1.15-1.45 7.93 7.93 0 0 1-.78-1.85 11.55 11.55 0 0 1-.39-2.37 18.12 18.12 0 0 1 .06-2.92 13.75 13.75 0 0 1 .64-3.12c.11-.33.25-.63.39-.93l-33.92 11.4a33.36 33.36 0 0 0 1.19 6.13 29 29 0 0 0 2.67 6.21 28.38 28.38 0 0 0 2.62 3.77z" fill="#eb2d2e" opacity=".9"/><path d="M57.82 150.29a14.77 14.77 0 0 1-1.32 2.13 12.74 12.74 0 0 1-2.78 2.71 29.11 29.11 0 0 1-3.58 2.19 26.49 26.49 0 0 1-3.73 1.58 26.1 26.1 0 0 1-3.9 1 23.91 23.91 0 0 1-5.86.32L3.36 175.78c.52.5 1 1 1.6 1.46a34.7 34.7 0 0 0 5.52 3.76c.33.18.66.35 1 .52l81.66-38.22v-1.76l-.14-7.7z" fill="#f19432" opacity=".9"/><path d="M12.95 185.07a35.35 35.35 0 0 0 5.34 1.69 39.5 39.5 0 0 0 6.89.94 48.11 48.11 0 0 0 7.35-.22 49.3 49.3 0 0 0 5.78-1 43.9 43.9 0 0 0 5.43-1.61 40.62 40.62 0 0 0 9.78-5.19c1.22-.89 2.41-1.83 3.55-2.8s2.25-2 3.3-3l.86-.85c.9-1 1.76-1.33 1.9-.8l.13.46c.14.51.31 1 .49 1.54s.3.81.46 1.21l29-16.71-.24-1.87q-.21-1.65-.39-3.17c-.12-1-.24-2-.34-2.91l-.11-.92c-.09-.84-.54-5.11-1-9.91z" fill="#fde92b" opacity=".9"/><path d="M63.41 178c.19.53.4 1.08.62 1.62l.22.54.87 1.84c.17.36 3.56.47 7.94.29l22.51-11.68c-.11-.09-.23-.17-.33-.26a5.44 5.44 0 0 1-.56-.61 3.18 3.18 0 0 1-.38-.65 9 9 0 0 1-.45-1.25c-.15-.53-.29-1.14-.41-1.81s-.24-1.48-.33-2.27l-.11-1.52-29.7 15.4c.04.12.07.23.11.36z" fill="#91be4a" opacity=".9"/><path d="M74.84 181.85l14.47.15c5.5.06 10-1.74 10-4s-.28-4.25-.68-4.44l-1.44-.71-.32-.2a8.39 8.39 0 0 1-.84-.59c-.14-.11-.25-.22-.37-.34L72.44 181.8z" fill="#009e54" opacity=".9"/></svg>