<svg xmlns="http://www.w3.org/2000/svg" width="100.01" height="200" viewBox="0 0 100.01 200"><title>_</title><path d="M49.29 65.93a65.28 65.28 0 0 0-11.41 2.29 51.27 51.27 0 0 0-10 4.16 45.16 45.16 0 0 0-8.48 6 46.2 46.2 0 0 0-6.91 7.88 48.85 48.85 0 0 0-3.77 6.46l46.37-27.24c-1.89.08-3.83.23-5.8.45z" fill="#00a8de" opacity=".9"/><path d="M70.57 73a63.61 63.61 0 0 0-8.84-2.46c-1.3-.27-2.64-.5-4-.7L7 87.74c-.66.87-1.31 1.77-1.91 2.69a55.89 55.89 0 0 0-4.26 7.82l70.59-24.91z" fill="#0070b4" opacity=".9"/><path d="M40.88 99.45a15.06 15.06 0 0 1 4.7-2.07 20.13 20.13 0 0 1 5.08-.56l37.89-15.17a30.81 30.81 0 0 0-3-2.63 46.43 46.43 0 0 0-7.06-4.43 52.11 52.11 0 0 0-7.15-3L1.84 99.46c-.29.72-.57 1.45-.84 2.19a72.47 72.47 0 0 0-3 11.72c-.28 1.57-.5 3.2-.7 4.85l40.83-16.36a15.52 15.52 0 0 1 2.75-2.41z" fill="#333391" opacity=".9"/><path d="M51 94.89a22.88 22.88 0 0 1 4.12.68 15.82 15.82 0 0 1 3.33 1.3 12.47 12.47 0 0 1 2.62 1.88l.46.44 32-11.33a34.75 34.75 0 0 0-1.91-3.12 32 32 0 0 0-2.85-3.53L50.26 94.86zM33.45 113.86c0-.1.06-.21.09-.31a32.55 32.55 0 0 1 1.35-3.64 24.06 24.06 0 0 1 3.2-5.34c.34-.43.71-.82 1.08-1.2l-41.26 15.27c-.4 2.69-.7 5.48-.89 8.36v.35z" fill="#932b8d" opacity=".9"/><path d="M-2.21 138.92c.1 1.68.27 3.33.48 5l33.53-11.95c0-1 .1-2 .18-3 .15-2 .35-3.88.6-5.65s.54-3.42.88-5 .67-2.76 1.06-4l-36.61 13a87.36 87.36 0 0 0-.12 11.6zM62.62 100.68a35 35 0 0 1 2.34 3l.41.74a21.76 21.76 0 0 1 1.09 2.31 22.77 22.77 0 0 1 .82 2.46l.23.85c.18 1 .4 2.26.49 2.86 0 .3 1.24.55 3.11.7l28.21-13.37-.17-.62a51.2 51.2 0 0 0-3.51-9.17 39.2 39.2 0 0 0-2.71-4.56l-30.64 14.55z" fill="#e91388" opacity=".9"/><path d="M77.85 113.71H89.4l11.32-5c-.21-1.54-.46-3.39-.72-5.28l-.69-2.69L70.8 113.4a70.57 70.57 0 0 0 7.05.31zM2 152.65c.24.56.5 1.12.76 1.67l29.55-17.17c-.1-.35-.2-.69-.3-1.05-.38-1.47-.71-3-1-4.71-.13-.76-.25-1.55-.37-2.35L-.09 146.92c.64 1.98 1.35 3.9 2.09 5.73z" fill="#ea245f" opacity=".9"/><path d="M91.6 114.09c5.47-.56 9.82-1.63 9.67-2.37-.08-.41-.4-1.78-.84-3.6l-10.75 6.17zM5.66 162.13a53.61 53.61 0 0 0 4.2 5.71l29.44-16.29a16 16 0 0 1-2.3-2.19 22.43 22.43 0 0 1-3.18-5 30.16 30.16 0 0 1-1.41-3.44c-.32-.94-.61-2-.89-3L1.59 154.46a57.6 57.6 0 0 0 4.07 7.67zM67.5 139.23c0 .27-.14.74-.25 1.3l5.25-1.88c-2.92-.02-4.93.18-5 .58z" fill="#eb2d2e" opacity=".9"/><path d="M91.33 139.13L78 138.26c-1.88-.12-3.65-.18-5.18-.17L67.59 140c-.13.71-.3 1.56-.45 2.34l-.34 1.15a26 26 0 0 1-1.16 3.23 21.09 21.09 0 0 1-1.48 2.79l-.12.18 28.41-10.51zM10.09 168.09A39.2 39.2 0 0 0 13.2 172L50 158.64a19.69 19.69 0 0 1-4.28-1 14.84 14.84 0 0 1-4.34-2.43 14.42 14.42 0 0 1-1.38-1.3L8.39 165.43c.55.91 1.11 1.8 1.7 2.66z" fill="#f19432" opacity=".9"/><path d="M18.32 177.6a41.75 41.75 0 0 0 9.29 4.81c1.17.43 2.39.81 3.64 1.16l66.8-32a46.87 46.87 0 0 0 1.33-5.16l.43-2.18c.21-2.46.41-5.07.45-5.81s-3.84-1.16-8.82-1.09l-27.32 13.1a18.3 18.3 0 0 1-1.46 2.35 9.11 9.11 0 0 1-1.84 1.86 11.26 11.26 0 0 1-2.51 1.41A16.72 16.72 0 0 1 55 157a26.77 26.77 0 0 1-4.14.41h-1.32l-35.32 16.91a38.65 38.65 0 0 0 4.1 3.28z" fill="#fde92b" opacity=".9"/><path d="M37.61 184.19c2.06.38 4.22.67 6.46.86l48.83-20.87c.77-1.14 1.49-2.3 2.15-3.46a50.31 50.31 0 0 0 3-6.18c.17-.43.34-.87.5-1.3l-68.11 29.1a55.38 55.38 0 0 0 7.17 1.85z" fill="#91be4a" opacity=".9"/><path d="M49.28 183.73a63.55 63.55 0 0 0 12.62 0 48.63 48.63 0 0 0 11.36-2.51 43.28 43.28 0 0 0 10-5.1 46.32 46.32 0 0 0 8.54-7.63c.68-.77 1.34-1.55 2-2.35l-50.4 16.74c1.88.37 3.85.65 5.88.85z" fill="#009e54" opacity=".9"/></svg>