<svg xmlns="http://www.w3.org/2000/svg" width="107.96" height="200" viewBox="0 0 107.96 200"><title>_</title><path d="M98.24 33.66L85 33a10 10 0 0 0-10.47 9.5l-.19 3.94 28.82-11.19a9.9 9.9 0 0 0-4.92-1.59z" fill="#00a8de" opacity=".9"/><path d="M103 34.62L74.68 47.11v10.43l33.22-14.68a10 10 0 0 0-4.9-8.24zM48.27 68.93a51.85 51.85 0 0 0-10.52.43 43.11 43.11 0 0 0-9.62 2.57 41.45 41.45 0 0 0-8.64 4.71 46.62 46.62 0 0 0-7.59 6.8c-.35.39-.69.8-1 1.2l40.62-15.39c-1.07-.14-2.15-.25-3.25-.32z" fill="#0070b4" opacity=".9"/><path d="M105.16 47.83l-1-10c0-.14 0-.26-.06-.4L72.56 55.59l1.2 11.51c.57 5.47.65 9.63.19 9.24l-.44-.34a35.91 35.91 0 0 0-3.76-2.57 37.14 37.14 0 0 0-4.08-2.09 34.25 34.25 0 0 0-4.39-1.56 34.83 34.83 0 0 0-4.61-1 38.23 38.23 0 0 0-4.81-.36h-1.73L12.47 90.19a52.28 52.28 0 0 0-4 8.17 60.92 60.92 0 0 0-3 10.79 73.93 73.93 0 0 0-1 7.62l101.77-58.56z" fill="#333391" opacity=".9"/><path d="M37.47 103.67a17.44 17.44 0 0 1 2.92-3 15.46 15.46 0 0 1 3.7-2.17 17.52 17.52 0 0 1 4.39-1.13 24.4 24.4 0 0 1 5.19-.07c.55 0 1.09.12 1.62.21l54.05-18.64.9-10.4-111 38.26c-.38 1.4-.75 2.82-1.06 4.28-.46 2.11-.86 4.32-1.19 6.58z" fill="#932b8d" opacity=".9"/><path d="M55.8 98c.62 0 1.24.09 1.84.17a18.77 18.77 0 0 1 3.22.76 18.52 18.52 0 0 1 3 1.33 20.29 20.29 0 0 1 2.83 1.9 20.81 20.81 0 0 1 4 4.28 25.5 25.5 0 0 1 2.44 4.46L108 94.37l-.24-10.43-.24-10.43zM.33 141c.12.74.27 1.48.42 2.21L33 128.1v-1.43a55.74 55.74 0 0 1 .23-6.28 44.14 44.14 0 0 1 .91-5.7 36.12 36.12 0 0 1 1.58-5.13A31.69 31.69 0 0 1 37.9 105l.2-.31-38.73 18.09q-.13 3.22-.07 6.56A79.55 79.55 0 0 0 .33 141z" fill="#e91388" opacity=".9"/><path d="M72.65 110.55c.16.4.32.81.46 1.23A38.43 38.43 0 0 1 74.8 119c0 .31.08.64.12 1l33-14.43.08-10.48zM33.75 136.67a46.9 46.9 0 0 1-1.21-4.55c-.35-1.65-.63-3.41-.85-5.24l-31 17.6a63.13 63.13 0 0 0 2.93 8.16c.13.3.28.6.42.9z" fill="#ea245f" opacity=".9"/><path d="M74.89 120.61a61.35 61.35 0 0 1 .74 7.72 53 53 0 0 1-.14 6.37 40.46 40.46 0 0 1-.89 5.69c-.14.62-.32 1.22-.5 1.82l33.9-16.54-.37-10.43-.37-10.43zM44.21 153.83a15.58 15.58 0 0 1-3.09-2 17.66 17.66 0 0 1-3-3.27 27.23 27.23 0 0 1-2.5-4.29 34.36 34.36 0 0 1-1.9-5.08c-.12-.41-.21-.85-.32-1.28L2.8 153a55.32 55.32 0 0 0 4.2 8.5 53 53 0 0 0 5.83 7.84z" fill="#eb2d2e" opacity=".9"/><path d="M74.45 143.2a31.14 31.14 0 0 1-1.57 3 27.49 27.49 0 0 1-2.94 4 18.85 18.85 0 0 1-3.39 3 16.56 16.56 0 0 1-3.84 2 18.41 18.41 0 0 1-4.4 1 25.75 25.75 0 0 1-10-1.14 17.51 17.51 0 0 1-4-1.91l-.43-.3-33.38 10.52.28.45a50.62 50.62 0 0 0 6.1 7.53l92.35-29.14 1.18-10.37z" fill="#f19432" opacity=".9"/><path d="M19.07 175l.18.16a42.23 42.23 0 0 0 7.82 5.22 40.17 40.17 0 0 0 8.68 3.24 44.24 44.24 0 0 0 9.33 1.24L108 158.73l.27-10.43.27-10.43z" fill="#fde92b" opacity=".9"/><path d="M46.11 185.87a55.34 55.34 0 0 0 5.68-.39 44.72 44.72 0 0 0 5.25-1 36.71 36.71 0 0 0 4.81-1.48 31.72 31.72 0 0 0 4.35-2.12 33.12 33.12 0 0 0 4-2.75 38.11 38.11 0 0 0 3.68-3.41l.69-.73c.75-.88 1.4.57 1.45 3.2 0 1.43 1.38 2.69 3.49 3.53l28.38-13.29-.25-10.43L46 185.87h.14z" fill="#91be4a" opacity=".9"/><path d="M85.4 181.42l12 .82a10 10 0 0 0 10.66-9.3l.27-3.94-29.41 10.78a17.3 17.3 0 0 0 6.48 1.64z" fill="#009e54" opacity=".9"/></svg>