<svg xmlns="http://www.w3.org/2000/svg" width="107.75" height="200" viewBox="0 0 107.75 200"><title>_</title><path d="M32.35 71.63a50.4 50.4 0 0 0-9.22 5.25 51.78 51.78 0 0 0-8 7.13 47.16 47.16 0 0 0-5.79 7.9l50.46-25.1c-1.81-.05-3.66-.06-5.53 0a67.74 67.74 0 0 0-11.53 1.46 55.37 55.37 0 0 0-10.39 3.36z" fill="#00a8de" opacity=".9"/><path d="M8.15 91.63a52.66 52.66 0 0 0-4.82 10.11l71-31.08a59.59 59.59 0 0 0-5.74-1.49 65.84 65.84 0 0 0-6.68-1c-.49 0-1-.07-1.49-.11L8.8 90.63c-.21.37-.44.66-.65 1z" fill="#0070b4" opacity=".9"/><path d="M3 99a66.61 66.61 0 0 0-3.7 11.59c-.51 2.24-.92 4.59-1.26 7l38.69-13.92c.1-.13.18-.27.28-.39a21.38 21.38 0 0 1 2.6-2.78 15.86 15.86 0 0 1 3-2.09A17.09 17.09 0 0 1 46.07 97a21.47 21.47 0 0 1 4.05-.72 30.64 30.64 0 0 1 6.58.21L93 83.45l-.31-.34a44.36 44.36 0 0 0-10.24-7.59 56.08 56.08 0 0 0-5.82-2.72l-.63-.21L3.09 98.83z" fill="#333391" opacity=".9"/><path d="M56.9 96.27c.84 0 1.66.09 2.43.19a22.51 22.51 0 0 1 3.92.86 20.43 20.43 0 0 1 3.54 1.5c.49.27 1 .56 1.44.87l29.47-14.1c-.53-.63-1.07-1.27-1.62-1.86a46.8 46.8 0 0 0-4.38-4.11zM37.41 112c-2.27-.1-3.69-.37-3.62-.75l.13-.58a28.92 28.92 0 0 1 1.25-4.11 23.93 23.93 0 0 1 1.51-3.15L0 122c0 2.06 0 4.16.11 6.3 0 .85.11 1.67.17 2.5z" fill="#932b8d" opacity=".9"/><path d="M68.1 99.57a20.89 20.89 0 0 1 1.72 1.34 16.75 16.75 0 0 1 2.55 2.81 18.27 18.27 0 0 1 1.92 3.42 22.81 22.81 0 0 1 1.3 4.1l.15.69c.13.81-4.27 1.43-9.77 1.38l-9.27-.08-12.9-.11c-2.34 0-4.47-.13-6.13-.31L-.49 129.42a87.34 87.34 0 0 0 .9 11.63c.26 1.7.59 3.35 1 5L106 100.48a52.94 52.94 0 0 0-2.39-5.36 51 51 0 0 0-3.08-5.19c-.78-1.18-1.61-2.3-2.47-3.39z" fill="#e91388" opacity=".9"/><path d="M2.71 151.47c.05.16.12.31.17.46l30-11.87v-.08l-.25-1.37c-.14-1.65 4.24-2.82 9.73-2.58h.67L109 110c-.1-.5-.18-1-.29-1.5a56.51 56.51 0 0 0-1.66-6l-.09-.24L.84 144.16a57.54 57.54 0 0 0 1.87 7.31z" fill="#ea245f" opacity=".9"/><path d="M9.73 164.64a40.49 40.49 0 0 0 3.46 3.8l29.36-15.12a18.84 18.84 0 0 1-4.27-3.13 19.48 19.48 0 0 1-3.28-4.3 25.47 25.47 0 0 1-2.27-5.46L4 155.22a45.69 45.69 0 0 0 5.73 9.42zM82.69 136.55l27.4-12.22c0-.88-.05-1.75-.09-2.58-.08-1.81-.19-3.49-.32-5s-.31-3-.5-4.23c-.26-1.65-.59-3.26-1-4.83l-64.72 28.89z" fill="#eb2d2e" opacity=".9"/><path d="M16.82 172.08q1.11.88 2.25 1.7l35.14-16c-.58 0-1.16-.07-1.72-.13a27.9 27.9 0 0 1-3.67-.65 23.64 23.64 0 0 1-3.33-1.1 21.6 21.6 0 0 1-3-1.53L12.44 168a40.09 40.09 0 0 0 4.38 4.08zM99.65 136.8q1.17.08 2.28.13l8-2.9c.08-1 .19-2.28.28-3.51l.12-2q.1-1.63.17-3.18l-28.22 10.22zM75.83 146.65c-.16.38-.59 1.35-1 2.16l-.2.38 6.5-3.57c-3.03.38-5.19.77-5.3 1.03z" fill="#f19432" opacity=".9"/><path d="M26.23 179.74a59.38 59.38 0 0 0 9.66 3.81q1.19.35 2.41.65l69.2-34.94c.21-1.74.4-3.54.44-4.22s-4.4-1.18-9.89-.92l-12.72.62c-1.78.09-3.46.2-4.94.33l-6.62 3.34-.16.27c-.37.65-.76 1.26-1.16 1.83a18.83 18.83 0 0 1-1.23 1.56 16.14 16.14 0 0 1-1.31 1.32 17.28 17.28 0 0 1-2.69 2 19 19 0 0 1-3.14 1.5 23.17 23.17 0 0 1-3.64 1 32.48 32.48 0 0 1-6.47.51l-34.48 17.42a63 63 0 0 0 6.74 3.92zM110.07 135.54c0-.34.08-1.18.16-2.25l-8 3c4.46.13 7.77-.17 7.84-.75z" fill="#fde92b" opacity=".9"/><path d="M44.18 183.07c2 .46 4.11.8 6.23 1.07l53.14-20c.8-1.05 1.53-2.11 2.18-3.17a32.38 32.38 0 0 0 2.55-5.05l.68-1.71.16-.69-72.55 27.3a60.57 60.57 0 0 0 7.61 2.25z" fill="#91be4a" opacity=".9"/><path d="M55.29 184.55a75.44 75.44 0 0 0 12.61-.41 57.73 57.73 0 0 0 11.34-2.51 49 49 0 0 0 10-4.65 47.75 47.75 0 0 0 8.61-6.75 56.71 56.71 0 0 0 4.52-4.88c.48-.59.94-1.19 1.38-1.78l-52.9 20.63c1.48.15 2.95.28 4.44.35z" fill="#009e54" opacity=".9"/></svg>