<svg xmlns="http://www.w3.org/2000/svg" width="65.77" height="200" viewBox="0 0 65.77 200"><title>_</title><path d="M56.8 30.33H55.19l-1.27.07-1.32.09A87.14 87.14 0 0 0 41.86 32a48 48 0 0 0-8.66 2.5 26.49 26.49 0 0 0-6.61 3.82l-1.86 1.51a291.02 291.02 0 0 0-4.23 6.34l-.68 1.73a28.92 28.92 0 0 0-1.34 4.78l41.61-22.36H56.8z" fill="#00a8de" opacity=".9"/><path d="M62.64 32.33l-1.57-.14-43.43 18.57c-.1.34-.2.67-.29 1a49.74 49.74 0 0 0-1.24 6.88l-.28 2.47v.44l50.63-21.64c-.46-4.2-1.97-7.41-3.82-7.58z" fill="#0070b4" opacity=".9"/><path d="M-1 85.89l49.64-17.1c.13-1.49.26-2.84.31-3.18l.05-.35a6.18 6.18 0 0 1 .37-1 6.44 6.44 0 0 1 .56-1 8 8 0 0 1 .79-.94 2.84 2.84 0 0 1 .72-.53 4.65 4.65 0 0 1 1.14-.4 8.52 8.52 0 0 1 1.66-.19 16.17 16.17 0 0 1 2.19.11l2.52.3 2.05.31 1.68.26.48.08 2.16.45c.76.16 1.78-4.19 2.26-9.66l.68-7.78a23.79 23.79 0 0 0 .08-2.79L16.29 60.42c-.33 3-.66 6.21-.76 7.35s-3.6 1.86-7.78 1.5-8 3.82-8.46 9.3l-.4 4.61A12.5 12.5 0 0 0-1 85.89z" fill="#333391" opacity=".9"/><path d="M8.77 98l51.46-28.45a8.34 8.34 0 0 0-3.15-.34c-5 .43-9.22-.67-9.38-2.44l-.06-.77L1.69 91.39c1.16 3.7 3.94 6.35 7.08 6.61z" fill="#932b8d" opacity=".9"/><path d="M8.24 93.33c4.28.41 7.34 5.23 6.82 10.7l-.59 6.12 52.12-17.42a10.72 10.72 0 0 0 1-3.71l.44-4.61A10 10 0 0 0 63 74.49L7.22 93.14a6.11 6.11 0 0 0 1.02.19z" fill="#e91388" opacity=".9"/><path d="M17.73 124.39L49 107.2l-.14-1.7c-.46-5.48 3.26-10.31 8.27-10.72a9.2 9.2 0 0 0 7.9-6.89l-48.14 26.44z" fill="#ea245f" opacity=".9"/><path fill="#eb2d2e" opacity=".9" d="M15.95 142.2l32.92-13.86.41-20.18-32.92 13.87-.41 20.17z"/><path fill="#f19432" opacity=".9" d="M15.64 151.7L49.03 139l.56-10.07-33.39 12.7-.56 10.07z"/><path d="M16 171.68v.82l32.84-14 .34-20.18-32.88 14z" fill="#fde92b" opacity=".9"/><path d="M20.4 179.59l28.6-9.76.9-10-33.79 11.48a10 10 0 0 0 4.29 8.28z" fill="#91be4a" opacity=".9"/><path d="M26.29 182h12.64a10 10 0 0 0 10-10v-3.6l-27.57 12.23a9.9 9.9 0 0 0 4.93 1.37z" fill="#009e54" opacity=".9"/></svg>