<svg xmlns="http://www.w3.org/2000/svg" width="109.42" height="200" viewBox="0 0 109.42 200"><title>_</title><path d="M60.87 48.63a36.05 36.05 0 0 0-3.57-1c-1.22-.28-2.5-.51-3.81-.68s-2.67-.3-4.06-.37a52.25 52.25 0 0 0-10.77.52A41.82 41.82 0 0 0 29 49.84a39 39 0 0 0-8.54 5A43.45 43.45 0 0 0 13.14 62a59.71 59.71 0 0 0-5 7.18l52.94-20.47z" fill="#00a8de" opacity=".9"/><path d="M77.44 51.47l6.25-2.91c-2.84.44-5.14 1.56-6.25 2.91zM67.63 48.68a30.69 30.69 0 0 0-8.69-3.13L9.24 72.89c-.22.52-.45 1-.65 1.57a63.33 63.33 0 0 0-3 10.18q-.26 1.25-.47 2.53l66-36.31a32.85 32.85 0 0 0-3.49-2.18z" fill="#0070b4" opacity=".9"/><path d="M35.17 91.59c.18-.64.38-1.27.58-1.87a31.84 31.84 0 0 1 1.41-3.5A23.69 23.69 0 0 1 40.53 81a16.68 16.68 0 0 1 4.12-3.48 16.4 16.4 0 0 1 5-1.91 22.6 22.6 0 0 1 6.09-.37 22.9 22.9 0 0 1 4.53.74 18.28 18.28 0 0 1 3.9 1.57 17.21 17.21 0 0 1 3.15 2.22l42.55-15.66L110 62a10 10 0 0 0-9.32-10.64l-12.12-.8a19.76 19.76 0 0 0-3 0L79.15 53a2.85 2.85 0 0 0-.88 1.79c-.18 2.67-1.14 3.8-2.13 2.52l-1-1c-.42-.45-.86-.89-1.3-1.32l-70.7 26A73.8 73.8 0 0 0 1 89.14a87.91 87.91 0 0 0-1.53 11.65c-.09 1.35-.14 2.68-.17 4z" fill="#333391" opacity=".9"/><path d="M67.48 79.32l.2.14a19.73 19.73 0 0 1 3.12 3 21.28 21.28 0 0 1 2.57 3.89c.25.48.47 1 .7 1.49l34.7-16.24-.22-11.5zM35 104.85v-.37c0-1.73.05-3.41.17-5s.28-3.08.51-4.51q.18-1.1.4-2.15L1.17 108.44c.12 2.77.35 5.46.71 8 .14 1 .31 2 .49 3z" fill="#932b8d" opacity=".9"/><path d="M73.8 87.65A29.62 29.62 0 0 1 75 91a40.08 40.08 0 0 1 1.14 5.84 58.06 58.06 0 0 1 .4 6.82c0 2.09-.08 4.08-.25 6L108.82 95V71.96zM41 124.59a23.42 23.42 0 0 1-3.19-5.16 32.94 32.94 0 0 1-1.4-3.43 36.37 36.37 0 0 1-1-3.7c-.29-1.27-.52-2.61-.69-4s-.26-2.57-.32-3.91L2.26 120.11a64.75 64.75 0 0 0 2.19 7.73 54 54 0 0 0 4.36 9.41c.48.81 1 1.59 1.5 2.36z" fill="#e91388" opacity=".9"/><path d="M76.22 110.06c0 .43-.05.85-.09 1.27a39.11 39.11 0 0 1-1 6.06 25.46 25.46 0 0 1-1.74 4.91c-.19.38-.38.75-.59 1.11L108.72 106l-.39-11.52zM52.1 130.93a20.68 20.68 0 0 1-2.57-.41 16.26 16.26 0 0 1-9-5.52l-.06-.07L9.8 140a48 48 0 0 0 4.47 5.68c.83.91 1.7 1.76 2.59 2.58z" fill="#ea245f" opacity=".9"/><path d="M71.71 122.24a17.21 17.21 0 0 1-1.79 2.76 22 22 0 0 1-3 3.09 18.57 18.57 0 0 1-3.33 2.23 18.11 18.11 0 0 1-3.7 1.44 20.74 20.74 0 0 1-4.14.66 25.38 25.38 0 0 1-3.53 0l-34.86 18.1a43.16 43.16 0 0 0 4.79 3.72 40.9 40.9 0 0 0 8.45 4.3 43.88 43.88 0 0 0 9.4 2.25c.87.12 1.76.2 2.65.27l65.87-34.2-.69-11.5-.69-11.5zM12.87 166.65c-5.47.61-9.82 1.71-9.67 2.45s.88 3.76 1.62 6.72l.53 1.18 20.14-11.81z" fill="#eb2d2e" opacity=".9"/><path d="M39.7 171.33l-.19-.61c-.16-.77-.37-1.84-.47-2.38s-4.67-1.22-10.16-1.53l-2.27-.13L4.79 175l.3 1.22a32 32 0 0 0 2.69 7.19c.25.48.52 1 .8 1.42l31.66-12a12.16 12.16 0 0 1-.54-1.5zM47.65 158.57a51.31 51.31 0 0 0 6.67 0 40.46 40.46 0 0 0 6.15-.87 33.49 33.49 0 0 0 5.62-1.78 30.08 30.08 0 0 0 5-2.69 26.32 26.32 0 0 0 2.63-2l.75-.63c.82-.8 1.33.36 1.14 2.57l-.2 1.83c0 .26-.07.52-.11.78l33.7-12.4.75-11.5-69.64 25.69a55.35 55.35 0 0 0 7.54 1z" fill="#f19432" opacity=".9"/><path d="M75.72 161.15a37.11 37.11 0 0 1-1.09 4.53 18.54 18.54 0 0 1-1.37 3.3 14.07 14.07 0 0 1-6.62 6.27 20 20 0 0 1-5.07 1.54 32.81 32.81 0 0 1-6.42.41 45.11 45.11 0 0 1-4.67-.35 27.32 27.32 0 0 1-3.8-.75 15.93 15.93 0 0 1-2.91-1.1 9.51 9.51 0 0 1-2.08-1.4 5.71 5.71 0 0 1-.84-.9 8 8 0 0 1-.76-1.23l-.09-.2-31.29 13a30.74 30.74 0 0 0 3.67 4.73 34.62 34.62 0 0 0 6 5 48.48 48.48 0 0 0 7.19 3.88c.87.38 1.77.73 2.68 1.08l79.88-33.11c.14-.9.28-1.82.39-2.75l.37-3.07c.18-3.75.44-11.32.59-16.82v-.72l-33.1 13.71c-.17 1.8-.38 3.44-.66 4.95z" fill="#fde92b" opacity=".9"/><path d="M33.81 199.79a72.53 72.53 0 0 0 9 2c1.13.17 2.29.32 3.47.45l58.87-23.12a49.72 49.72 0 0 0 2.39-6.87c.5-1.84.93-3.82 1.29-5.89l-80.45 31.57a59.7 59.7 0 0 0 5.43 1.86z" fill="#91be4a" opacity=".9"/><path d="M54.5 204.73a102.38 102.38 0 0 0 15.82-2.12 63.89 63.89 0 0 0 13.08-4.32 43.2 43.2 0 0 0 10.3-6.6 35.66 35.66 0 0 0 7.35-8.92 34.8 34.8 0 0 0 2.88-6.5c.06-.18.11-.37.17-.56L48 204.9c2.1.02 4.28-.04 6.5-.17z" fill="#009e54" opacity=".9"/></svg>