<svg xmlns="http://www.w3.org/2000/svg" width="100.92" height="200" viewBox="0 0 100.92 200"><title>_</title><path d="M21.95 33.77l-12.83-.41A10 10 0 0 0-1.19 43l-.19 6 30.07-12.29a10 10 0 0 0-6.74-2.94z" fill="#00a8de" opacity=".9"/><path d="M32.14 45.06a10 10 0 0 0-2.48-7.54L-1.1 47.91l-1.15 12.37 34-11.5z" fill="#0070b4" opacity=".9"/><path d="M31.86 67.69l-2.32-22-31.12 18L-.28 76 1 88.31l31.18-18c-.11-.81-.18-1.69-.32-2.62z" fill="#333391" opacity=".9"/><path d="M64.67 67.54a49.9 49.9 0 0 0-9.62.13 41.62 41.62 0 0 0-8.85 2.05 43.24 43.24 0 0 0-4.2 1.76 29.59 29.59 0 0 0-4.17 2.43 33.38 33.38 0 0 0-3.86 3.16l-.77.73c-.69.74-1.3-1.73-1.53-5.73l-32.72 15 .15 12.42 68.77-31.57c-1.05-.16-2.12-.29-3.2-.38z" fill="#932b8d" opacity=".9"/><path d="M35.53 106.79a20.1 20.1 0 0 1 1.88-3.79 16 16 0 0 1 2.48-3A15.28 15.28 0 0 1 43 97.7a18.13 18.13 0 0 1 3.82-1.55 25.08 25.08 0 0 1 4.62-.82 21.37 21.37 0 0 1 4.36 0 13.41 13.41 0 0 1 3.09.75L91.2 78.22a35.33 35.33 0 0 0-3-2.95 33.56 33.56 0 0 0-3.62-2.76 33.21 33.21 0 0 0-4-2.25 35.15 35.15 0 0 0-4.29-1.72 42.93 42.93 0 0 0-4.5-1.2 45.66 45.66 0 0 0-4.68-.73c-.54-.05-1.09-.09-1.63-.13L-.7 103.18l1.08 12.37 1.08 12.37 33.26-18.42a25.08 25.08 0 0 1 .81-2.71z" fill="#e91388" opacity=".9"/><path d="M59.35 98.21A10 10 0 0 1 62 100a10.9 10.9 0 0 1 2 2.62 17.08 17.08 0 0 1 1.19 2.38 22.17 22.17 0 0 1 .76 2.27L97.72 91.5a28.63 28.63 0 0 0-1.31-3.15 31.82 31.82 0 0 0-1.82-3.23A37.23 37.23 0 0 0 92.35 82l-.29-.34L59 98.07c.1.05.24.09.35.14zM31.79 117.47l.21-1.92a36.93 36.93 0 0 1 1-5.3c.17-.63.37-1.23.57-1.82L-1.13 124l.05 12.42 32.82-14.78c.01-1.78.03-3.28.05-4.17z" fill="#ea245f" opacity=".9"/><path d="M66.1 105.72a30.69 30.69 0 0 1 .16 3.43v1.22c-.11 1.45-.65 7.12-1.2 12.59l-.66 6.55L99.12 118c.17-1.71.31-3.14.39-4.05l.17-2.06c.16-2.06.29-4 .38-5.7s.15-3.36.16-4.76 0-2.74-.06-3.84a26.47 26.47 0 0 0-.42-3.51v-.18L66 105.07c0 .22.07.43.1.65zM30.6 130.13c-.35-3.37-.72-7.08-1-10l-31.18 18 1.29 12.35L1 162.83l31.13-18z" fill="#eb2d2e" opacity=".9"/><path d="M32.27 147.34l-33.44 13.17-.47 10.73a9.94 9.94 0 0 0 .07 1.62l33.29-13.11zM65.46 142.63l34.25-12.86.11-1.86c.21-3.52.44-7.48.62-10.54L66.2 130.23z" fill="#f19432" opacity=".9"/><path fill="#fde92b" opacity=".9" d="M67.35 169.37l32.56-16.68-.67-12.4-.68-12.4L66 144.56l1.35 24.81zM31.7 171.95V159L-1 173.6a10 10 0 0 0 9.88 8.4h12.83a10 10 0 0 0 9.99-10.05z"/><path d="M65.9 170.73a10 10 0 0 0 2.81 7.67l30.95-11.16.9-12.39-34.41 12.42z" fill="#91be4a" opacity=".9"/><path d="M75.46 181l13.34 1.41a10 10 0 0 0 11-8.89l.62-5.9-31.3 10.18a9.94 9.94 0 0 0 6.34 3.2z" fill="#009e54" opacity=".9"/></svg>