<svg xmlns="http://www.w3.org/2000/svg" width="42.27" height="200" viewBox="0 0 42.27 200"><title>_</title><path d="M14.2 32.31a10 10 0 0 0-9.3 5l12.94-4.82z" fill="#00a8de" opacity=".9"/><path d="M18.07 32.54L5 36.9a9.89 9.89 0 0 0-1.2 2.87l20-6.68z" fill="#0070b4" opacity=".9"/><path d="M3.81 45.42l28.48-11.53a9.91 9.91 0 0 0-4.8-1.43l-3.82-.13-19.58 7.92a9.92 9.92 0 0 0-.16 1.41v1.2z" fill="#333391" opacity=".9"/><path d="M3.35 46.92l31.42-10.36a10.09 10.09 0 0 0-2-1.82L3.61 44.36z" fill="#932b8d" opacity=".9"/><path d="M4.54 52.15l.12 1.79c0 .25.05.5.09.75l31.6-16.78a10 10 0 0 0-2.77-3.83L4.36 49.59z" fill="#e91388" opacity=".9"/><path d="M3.74 54.21l34-11.07a9.89 9.89 0 0 0-.22-2.39l-34 11.07a9.89 9.89 0 0 0 .22 2.39z" fill="#ea245f" opacity=".9"/><path d="M6.45 59l31-11.42.22-2.58.12-1.79v-.76L4.22 54.84A10 10 0 0 0 6.45 59z" fill="#eb2d2e" opacity=".9"/><path d="M9.13 61.45l28.16-12.27v-2.56L7 59.83a10.09 10.09 0 0 0 2.13 1.62z" fill="#f19432" opacity=".9"/><path d="M14.6 63.52l3.81-.3L37 53.15a9.92 9.92 0 0 0 0-1.42l-.09-1.2-.24-2.53-27 14.66a9.91 9.91 0 0 0 4.93.86z" fill="#fde92b" opacity=".9"/><path d="M23.61 62.82l12.62-5.6a9.89 9.89 0 0 0 .92-3l-19.3 8.56h5.76z" fill="#91be4a" opacity=".9"/><path d="M27.54 63.07a10 10 0 0 0 8.38-6.46l-12 6.81z" fill="#009e54" opacity=".9"/><path d="M28.88 69.87a10 10 0 0 0-2-.07l-13.19.92a10 10 0 0 0-9.33 10.66l.1 1.46z" fill="#00a8de" opacity=".9"/><path d="M3.23 88.44l33.12-11.28a10.06 10.06 0 0 0-6.23-5.55L3.95 80.52z" fill="#0070b4" opacity=".9"/><path d="M4.8 99.45l.77 7.91L37.2 89.42l-.77-7.91-.24-2.51a9.91 9.91 0 0 0-1.72-4.68L4 91.53z" fill="#333391" opacity=".9"/><path fill="#932b8d" opacity=".9" d="M4.48 114.4l32.63-16.06-.3-7.94-32.63 16.05.3 7.95z"/><path fill="#e91388" opacity=".9" d="M4.67 123l.62 7.92 31.96-17.36-.63-7.92-.63-7.92-31.95 17.36.63 7.92z"/><path fill="#ea245f" opacity=".9" d="M3.96 137.5l33.32-14.57.05-7.95-33.32 14.58-.05 7.94z"/><path fill="#eb2d2e" opacity=".9" d="M3.93 145.33l-.11 7.95 33.43-14.34.1-7.94.11-7.95-33.42 14.33-.11 7.95z"/><path fill="#f19432" opacity=".9" d="M4.8 162.5L37 145.6l-.51-7.93-32.2 16.9.51 7.93z"/><path d="M3.71 168.65l-.11 2.56a9.91 9.91 0 0 0 1 4.88l32.6-12.79.35-7.94.35-7.94-33.84 13.29z" fill="#fde92b" opacity=".9"/><path d="M11.43 181.17l25.9-9.69.48-7.93L5 175.81a10.06 10.06 0 0 0 6.43 5.36z" fill="#91be4a" opacity=".9"/><path d="M14.15 182.17l13.22-.26a10 10 0 0 0 9.8-10.19v-1.46L12.1 182a10 10 0 0 0 2.05.17z" fill="#009e54" opacity=".9"/></svg>