<svg xmlns="http://www.w3.org/2000/svg" width="42.38" height="200" viewBox="0 0 42.38 200"><title>_</title><path d="M4.84 60.67l.26 3.86 27-14.33a9.9 9.9 0 0 0-5.2-1.08L14.13 50a10 10 0 0 0-9.29 10.67z" fill="#00a8de" opacity=".9"/><path d="M4.18 73.33L37.52 60A10 10 0 0 0 33 51.58L4.57 63z" fill="#0070b4" opacity=".9"/><path d="M3.61 93.7L37.22 81l.6-10.34.57-10v-.37L4.8 73z" fill="#333391" opacity=".9"/><path fill="#932b8d" opacity=".9" d="M4.65 105.11l32.77-14.77-.05-10.36L4.61 94.75l.04 10.36z"/><path fill="#e91388" opacity=".9" d="M4.7 125.85l32.74-14.8-.06-10.36-.05-10.36-32.75 14.8.12 20.72z"/><path fill="#ea245f" opacity=".9" d="M3.95 135.23l33.57-12.84.55-10.35L4.5 124.88l-.55 10.35z"/><path fill="#eb2d2e" opacity=".9" d="M3.51 155.78l33.69-12.52.65-10.35.66-10.34-33.69 12.52-1.31 20.69z"/><path d="M4.7 159.49c.07 3 .13 5.91.17 8.1l32.5-15.38-.24-10.36-32.48 15.38z" fill="#f19432" opacity=".9"/><path d="M4.36 171.76v.71a11.94 11.94 0 0 1-.14 1.81 5.67 5.67 0 0 1-.33 1.22 2.41 2.41 0 0 1-.38.65 3.61 3.61 0 0 1-.64.59 4.94 4.94 0 0 1-.9.5 7.54 7.54 0 0 1-1.22.4l-.47.11c-.55.08-1.5.16-2.11.2s-2.34.05-3.85 0-2.3 4.47-1.75 9.94l.74 7.41c0 .24.06.48.09.72l43.82-25c-.28-3.42-.8-9.07-1.27-13.71l-.7-7L4 168.21c.21 1.79.33 3.14.36 3.55z" fill="#fde92b" opacity=".9"/><path d="M-5.93 202.1l41.74-16.94.06-.19a47.67 47.67 0 0 0 1.49-6.8l.35-2.41c0-.45.06-1 .09-1.63l-46.74 19c0 4.07 1.23 7.58 3.01 8.97z" fill="#91be4a" opacity=".9"/><path d="M-3.87 203.43l5.6.22h1.98a72.15 72.15 0 0 0 8.82-.54 43.15 43.15 0 0 0 7.41-1.57 26.48 26.48 0 0 0 6-2.69 18.27 18.27 0 0 0 4.57-3.85 24.52 24.52 0 0 0 3.08-4.89 32.91 32.91 0 0 0 2.07-5.7l-41.08 18.44a2.81 2.81 0 0 0 1.55.58z" fill="#009e54" opacity=".9"/><path d="M14.83 11.09a10 10 0 0 0-9.41 4.8l13-4.49z" fill="#00a8de" opacity=".9"/><path d="M18.4 11L5.58 16a9.89 9.89 0 0 0-1.05 3l19.6-7.7z" fill="#0070b4" opacity=".9"/><path d="M4.62 18.25a9.92 9.92 0 0 0-.24 1.42l-.1 1.16-.21 2.55 28.74-10A9.9 9.9 0 0 0 28 11.62l-3.47-.29z" fill="#333391" opacity=".9"/><path d="M4.67 27.27l29.77-13.62a10.1 10.1 0 0 0-2.13-1.59L4.65 24.72z" fill="#932b8d" opacity=".9"/><path d="M4.27 28.82l-.1 1.86v.68l33-12.69A10 10 0 0 0 35 14.53L4.4 26.27z" fill="#e91388" opacity=".9"/><path d="M4.43 33.2l33.41-11.64a9.9 9.9 0 0 0-.24-2.38L4.18 30.81a9.91 9.91 0 0 0 .25 2.39z" fill="#ea245f" opacity=".9"/><path d="M6.74 37.3l31-10.56.26-2.54.17-1.85v-.68L4.67 33.08a10 10 0 0 0 2.07 4.22z" fill="#eb2d2e" opacity=".9"/><path d="M9.3 39.6l28.33-11.1.12-2.55L7.27 37.89A10.1 10.1 0 0 0 9.3 39.6z" fill="#f19432" opacity=".9"/><path d="M14 40.72l3.49.28 19.91-6.83a9.92 9.92 0 0 0 .24-1.42l.1-1.16.26-2.52-28.81 9.87A9.9 9.9 0 0 0 14 40.72z" fill="#fde92b" opacity=".9"/><path d="M23.7 41.43l12.72-5.27a9.89 9.89 0 0 0 1-2.94L18 41.28z" fill="#91be4a" opacity=".9"/><path d="M27.29 41.4a10 10 0 0 0 9.23-5.15l-12.84 5z" fill="#009e54" opacity=".9"/></svg>