<svg xmlns="http://www.w3.org/2000/svg" width="101.75" height="200" viewBox="0 0 101.75 200"><title>_</title><path d="M-.71 42l-.64 6L29.3 38a10 10 0 0 0-6.74-3.69l-12.28-1.3A10 10 0 0 0-.71 42z" fill="#00a8de" opacity=".9"/><path d="M-.51 62.22l32.26-14.59v-4.22a10 10 0 0 0-3-7L-.58 49.67z" fill="#0070b4" opacity=".9"/><path fill="#333391" opacity=".9" d="M-.32 75.24l.44 12.55 31.82-15.52-.88-25.1L-.76 62.69l.44 12.55z"/><path fill="#932b8d" opacity=".9" d="M-.7 99.65l32.47-14.12.11-12.56L-.59 87.09-.7 99.65z"/><path d="M-.13 113.85l.38 12.55 92.44-44.54 4.61-5.09c3.69-4.08 2.21-7.28-3.28-7.11l-21.61.65c-5.5.17-12.85 3.78-16.35 8L38.39 99.82c-3.49 4.25-6.49 3.23-6.65-2.27l-.35-11.61-31.9 15.37z" fill="#e91388" opacity=".9"/><path fill="#ea245f" opacity=".9" d="M2.79 142.57l68.48-40.32 18.51-24.21L1.37 130.1l1.42 12.47z"/><path d="M-.25 150.76L0 163.31l33.66-15.82a13.82 13.82 0 0 1 2.52-4.93c1.61-1.74 4.15-1.34 6.5.69l30.76-14.45-4.61-7.37a13.86 13.86 0 0 1 1.48-15.82l1.12-1.21L-.5 138.21z" fill="#eb2d2e" opacity=".9"/><path d="M-.32 172.37a9.92 9.92 0 0 0 .52 2.93l31.55-15-.09-3.74a30.56 30.56 0 0 1 1.4-9.58L-.55 163zM45.43 147.46l3.83 6.16 30.11-14.89-6.32-9.67-30.46 15.06a13.86 13.86 0 0 1 2.84 3.34z" fill="#f19432" opacity=".9"/><path d="M8.8 181.57l2.81.16 9.52.56a10 10 0 0 0 10.57-9.4l.66-11.23L-.32 174a10 10 0 0 0 9.12 7.57zM59.73 172.94l31.5-13.11-11.36-20.12-31.01 12.91 10.87 20.32z" fill="#fde92b" opacity=".9"/><path d="M60.05 172.28c1.79 3.58 5.71 6.81 9.84 8.41l27.38-10.48L91.88 160 60 172.19z" fill="#91be4a" opacity=".9"/><path d="M75.57 182.66l19.69-1.32c5.49-.37 7.42-4.37 4.29-8.89l-2.76-4-25.93 13.7a15.05 15.05 0 0 0 4.71.51z" fill="#009e54" opacity=".9"/></svg>