<svg xmlns="http://www.w3.org/2000/svg" width="42.77" height="200" viewBox="0 0 42.77 200"><title>_</title><path d="M2.84 42.66l-.1 3.95 28.33-11.76a9.9 9.9 0 0 0-5.15-1.6l-12.83-.33a10 10 0 0 0-10.25 9.74z" fill="#00a8de" opacity=".9"/><path d="M3.22 57.82l32.43-15.45a10 10 0 0 0-5-8.17L2.95 47.39z" fill="#0070b4" opacity=".9"/><path d="M2.86 67.72l-.07 10.44 32.93-14.39.08-10.43.07-10.2v-.23L2.94 57.29z" fill="#333391" opacity=".9"/><path fill="#932b8d" opacity=".9" d="M2.25 87.78L35.84 75l.57-10.42L2.82 77.36l-.57 10.42z"/><path fill="#e91388" opacity=".9" d="M3.65 100.61l.96 10.4 31.35-17.56-.95-10.39-.95-10.39L2.7 90.22l.95 10.39z"/><path fill="#ea245f" opacity=".9" d="M1.81 118.42l34.06-11.46.98-10.39-34.06 11.46-.98 10.39z"/><path fill="#eb2d2e" opacity=".9" d="M3.71 132.03l1.02 10.38 31.24-17.76-1.02-10.39-1.02-10.38-31.24 17.76 1.02 10.39z"/><path fill="#f19432" opacity=".9" d="M2.64 150.96l33.15-13.89.23-10.43-33.15 13.89-.23 10.43z"/><path d="M3.54 163l.8 10.17v.23l31.57-17.15-.82-10.4-.82-10.4-31.55 17.18z" fill="#fde92b" opacity=".9"/><path d="M7 179.71l28.77-10.62.68-10.41-33.69 12.43a10 10 0 0 0 4.24 8.6z" fill="#91be4a" opacity=".9"/><path d="M12.24 181L25 182.34a10 10 0 0 0 11-8.91l.41-3.93L7.24 179a9.9 9.9 0 0 0 5 2z" fill="#009e54" opacity=".9"/></svg>