<svg xmlns="http://www.w3.org/2000/svg" width="157.23" height="200" viewBox="0 0 157.23 200"><title>_</title><path d="M20.77 70.09l-12 1.1a10 10 0 0 0-9 10.87l.47 5.11 28.42-15.92a15.22 15.22 0 0 0-7.89-1.16z" fill="#00a8de" opacity=".9"/><path d="M52.72 67.8a39.06 39.06 0 0 0-5.88 1.47 32.68 32.68 0 0 0-5.28 2.32 29.69 29.69 0 0 0-4.63 3.16 27 27 0 0 0-2.49 2.36C33.63 78 32.8 79 32 80l-.19.25c-.21.28-.47-1.75-.57-4.52 0-1.2-.93-2.27-2.37-3.08L-.43 87.07 0 98.69 64.15 67.2a51.93 51.93 0 0 0-11.43.6z" fill="#0070b4" opacity=".9"/><path d="M87.73 81.77L87 80.68a33 33 0 0 0-2.65-3.3l-.95-1-2.2-2-2.89-1.9-1.58-.75a32.3 32.3 0 0 0-5-1.87 39.27 39.27 0 0 0-5.57-1.13L65 68.61-.59 97.06l-.11 11.63-.11 11.62 34.56-15a12.67 12.67 0 0 1 .78-1.9 10.8 10.8 0 0 1 2.08-2.72 11.21 11.21 0 0 1 2.89-1.94 16 16 0 0 1 3.9-1.21 26.42 26.42 0 0 1 5-.39 19.88 19.88 0 0 1 3.43.32l35.95-15.6zM115.95 68.47a45.26 45.26 0 0 0-5.2.87 42.35 42.35 0 0 0-5 1.46 41.51 41.51 0 0 0-4.75 2.07 33.13 33.13 0 0 0-4.21 2.71A35.48 35.48 0 0 0 93 78.95l-.17.19L117 68.38z" fill="#333391" opacity=".9"/><path d="M-.9 131.91l33.6-14c.07-2.3.12-4.09.15-4.83l.15-1.16c.12-1.18.28-2.29.48-3.29a21.38 21.38 0 0 1 .7-2.67v-.12L-.61 120.29zM137.25 74.41a40.952 40.952 0 0 0-7.14-2.74c-1.2-.33-2.44-.62-3.67-.84a44.28 44.28 0 0 0-8.07-.62l-25 8.85a40.13 40.13 0 0 0-3.56 3.55l-.21.23c-.22.26-.92-.59-1.57-1.89L51.15 94l.71.2a11.77 11.77 0 0 1 3.09 1.43 9.32 9.32 0 0 1 2.23 2.08 10.75 10.75 0 0 1 1.54 2.87 12.76 12.76 0 0 1 .49 1.84l78.46-27.83z" fill="#932b8d" opacity=".9"/><path d="M-.93 143.1l-.6 11.61 33.95-13 .8-15.38c.14-2.75.29-5.54.42-7.84l-34 13.05zM153.22 89.71a29.39 29.39 0 0 0-1.89-3.46 41.76 41.76 0 0 0-2.65-3.68 35.33 35.33 0 0 0-2.91-3.19 31.12 31.12 0 0 0-3.18-2.7 28.51 28.51 0 0 0-3-1.93L60.21 100c0 .1 0 .19.05.29a25.45 25.45 0 0 1 .24 2.88c0 1.08 0 2.28-.05 3.58l-.07 1.25c-.16 1.62-.79 7.42-1.4 12.89l-.2 1.8 34.57-11 .06-.28c.2-1 .44-2 .71-2.88A24.9 24.9 0 0 1 95 106a20.44 20.44 0 0 1 1.12-2.24 15.27 15.27 0 0 1 2.65-3.32 12 12 0 0 1 3.23-2.15 13.49 13.49 0 0 1 3.88-1.09 19.93 19.93 0 0 1 4.75 0 18.92 18.92 0 0 1 4 .85 12 12 0 0 1 3 1.49 9.63 9.63 0 0 1 2.19 2.1 10.25 10.25 0 0 1 .88 1.39l33.61-10.68c-.31-.89-.69-1.78-1.09-2.64z" fill="#e91388" opacity=".9"/><path d="M155.12 92a34.78 34.78 0 0 0-1.43-3.86c-.15-.35-.33-.69-.49-1L121 101.48a11.78 11.78 0 0 1 .8 1.36 13.09 13.09 0 0 1 .72 1.75 17.14 17.14 0 0 1 .53 2.05 22.9 22.9 0 0 1 .33 2.37l.07.84V112l32.91-14.63c-.06-.41-.12-.81-.19-1.18a40.09 40.09 0 0 0-1.05-4.19zM.28 168.22l32.25-16.81-.72-11.6-32.25 16.81.72 11.6zM60.88 138.5l33.85-12.69c.31-5 .61-9.8.7-10.91l.11-.74-34 12.73z" fill="#ea245f" opacity=".9"/><path d="M63.89 164.51L95 146.18l-2.48-21.84-.14-1.26-31.11 18.33zM123.93 123l1.07 13.5 32.42-17.57c-.37-4.83-.74-9.61-.87-11.24l-.16-1.53c-.16-1.54-.34-3-.52-4.3s-.39-2.59-.61-3.7c-.13-.7-.28-1.35-.42-2l-31.66 17.16c.16 2.28.46 5.93.75 9.68zM0 173.49a10 10 0 0 0 10.89 9l9.06-.85 12.61-7.09a9.89 9.89 0 0 0 .51-4.18l-1.82-19.45-31.7 17.83z" fill="#eb2d2e" opacity=".9"/><path d="M22.83 182.1a10 10 0 0 0 8.75-6.39l-12.86 6.62zM62 172.5a9.91 9.91 0 0 0 .36 2.3l32.25-15.65-.38-11.62-32.53 15.79zM124.94 148.56l31.91-18.41-1-9.47-.22-2.11-31.9 18.43z" fill="#f19432" opacity=".9"/><path d="M71.29 181.74l13 .42a10 10 0 0 0 10.32-9.67l.39-12.27-33.2 13.52a10 10 0 0 0 9.49 8zM125.72 171.9l31.69-18.65-2.56-23.14-31.75 18.69 2.62 23.1z" fill="#fde92b" opacity=".9"/><path d="M123.24 171a10 10 0 0 0 3.57 8.21L157 167.76l.69-11.62-34.38 13z" fill="#91be4a" opacity=".9"/><path d="M133.88 182.43l13.49-.74a10.06 10.06 0 0 0 9.47-10.53l-.27-5.16-28.76 14.74a9.92 9.92 0 0 0 6.07 1.69z" fill="#009e54" opacity=".9"/></svg>