<svg xmlns="http://www.w3.org/2000/svg" width="102.24" height="200" viewBox="0 0 102.24 200"><title>_</title><path d="M23.55 71.3l-11.92-.86A10 10 0 0 0 .94 79.7l-.25 3.45 28.74-10.39a16.79 16.79 0 0 0-5.88-1.46z" fill="#00a8de" opacity=".9"/><path d="M55.89 68.59a40.22 40.22 0 0 0-6.11 1.16 34.56 34.56 0 0 0-5.58 2.06 31.83 31.83 0 0 0-5 3A29 29 0 0 0 36.47 77c-.63.59-1.28 1.25-1.92 1.93l25.23-10.6c-1.33.04-2.64.12-3.89.26zM32.93 75.52c0-1.68-1.67-3.14-4.13-4l-27.63 13 .22 9.95 31.85-15a25.8 25.8 0 0 1-.31-3.95z" fill="#0070b4" opacity=".9"/><path d="M85.28 74.1a39.7 39.7 0 0 0-6.71-3 46.25 46.25 0 0 0-7.46-1.89 57.66 57.66 0 0 0-8.18-.76H60.2L34.95 79c-.26.28-.53.55-.79.85l-.27.31c-.12.14-.22-.09-.29-.58L1.07 93.09.84 103 .6 113l88-36.72a37.44 37.44 0 0 0-3.32-2.18z" fill="#333391" opacity=".9"/><path d="M90.18 75.93a35.58 35.58 0 0 0-2.67-1.88L1.59 115.43l.3 9.94L36 108.92c.2-.68.41-1.33.65-1.94a19.61 19.61 0 0 1 2.66-4.74 15.1 15.1 0 0 1 3.57-3.33 16.39 16.39 0 0 1 4.61-2.09 23.92 23.92 0 0 1 5.88-.82 22.79 22.79 0 0 1 4.75.32 15.1 15.1 0 0 1 2.65.73l34.06-16.44a26.72 26.72 0 0 0-4.65-4.68z" fill="#932b8d" opacity=".9"/><path d="M1.16 134v9.95L34 129.2v-10.5l.1-1.43c.1-1.42.26-2.78.47-4a33.68 33.68 0 0 1 .78-3.57c.11-.4.23-.78.36-1.15L1.13 124zM101.55 97.59a43.58 43.58 0 0 0-2.29-8.3 31.64 31.64 0 0 0-3.73-6.92c-.18-.25-.37-.48-.56-.72L60.83 97.91c.37.14.74.3 1.08.47a10.92 10.92 0 0 1 2.83 2 11.92 11.92 0 0 1 2.14 2.92 13.83 13.83 0 0 1 .88 2.09 22 22 0 0 1 .69 2.66c.2 1 .35 2.07.47 3.22l.08 1.17c0 .34 0 .92.06 1.67l32.63-15.54z" fill="#e91388" opacity=".9"/><path d="M1 153.69l33-14.36V132v-2.6L1.12 143.74zM101.3 100l-.43-2-32 16.78c.16 2.24.41 6 .66 9.91l32.43-17c-.23-2.97-.47-5.8-.66-7.69z" fill="#ea245f" opacity=".9"/><path d="M.48 162.09l-.82 8.16a9.92 9.92 0 0 0 0 1.69l34-11.2 2-19.8-34.18 11.25zM102.81 120.23l.08-1c.23-2.71.49-5.92.7-8.92L69 122.3l-.08 1-1.63 18.84 34.67-12z" fill="#eb2d2e" opacity=".9"/><path d="M8.24 182.13l25.53-14.82-1.06-9.89-30.94 18a10 10 0 0 0 6.47 6.71zM101.53 127.81l-32.65 16.73.54 9.94 32.65-16.74-.54-9.93z" fill="#f19432" opacity=".9"/><path d="M11.75 182.77l12.78-1.15a10 10 0 0 0 9.06-10.86l-.26-2.9-25.78 14.38a9.89 9.89 0 0 0 4.2.53zM101.84 147.79l-.49-9.94-32.74 16.56.91 18.36a9.93 9.93 0 0 0 .19 1.45l32.62-16.49z" fill="#fde92b" opacity=".9"/><path d="M102.73 159.34l-34 13.31a10 10 0 0 0 5.14 7.75l28.45-11.12z" fill="#91be4a" opacity=".9"/><path d="M102.13 171.58l-.1-3.46-27.55 13.19a9.89 9.89 0 0 0 4.42.91l13.51-.37a10 10 0 0 0 9.72-10.27z" fill="#009e54" opacity=".9"/></svg>