<svg xmlns="http://www.w3.org/2000/svg" width="106.89" height="200" viewBox="0 0 106.89 200"><title>_</title><path d="M51.09 65.73a77 77 0 0 0-13.18 2 56.05 56.05 0 0 0-11.37 4.08A45.6 45.6 0 0 0 17 78a44 44 0 0 0-7.5 8.36C8.33 88 7.25 89.78 6.25 91.55l49.26-26c-1.45.03-2.92.08-4.42.18z" fill="#00a8de" opacity=".9"/><path d="M63.64 65.61a73.07 73.07 0 0 0-8.9-.18L6 92.49c-.78 1.46-1.51 2.94-2.17 4.43a62.28 62.28 0 0 0-2.72 7.48l68.35-38c-1.85-.34-3.81-.61-5.82-.79z" fill="#0070b4" opacity=".9"/><path d="M35.81 103.53a19.56 19.56 0 0 1 2.78-3.31 18.06 18.06 0 0 1 3.63-2.65 20.47 20.47 0 0 1 4.38-1.78 27 27 0 0 1 5.2-.89l35.93-19.39c-.83-.61-1.67-1.2-2.53-1.75a45.59 45.59 0 0 0-10.3-4.81 52.36 52.36 0 0 0-6-1.55L.11 104.53c-.29.95-.56 1.9-.81 2.85a65.57 65.57 0 0 0-1.8 10.94c-.16 2-.22 4-.22 6z" fill="#333391" opacity=".9"/><path d="M51.26 93.61a26.91 26.91 0 0 1 5.19 1 20.34 20.34 0 0 1 4.34 1.85 17.93 17.93 0 0 1 2.36 1.64l32.08-10.89-.23-.29a44.4 44.4 0 0 0-5.11-6.4zM30 113.29c.07-.4.15-.8.23-1.18a31.24 31.24 0 0 1 1.64-5.36 24.06 24.06 0 0 1 2.39-4.45l.2-.27-39 19.8c0 1.83 0 3.69.08 5.56.06 1.1.14 2.2.24 3.29z" fill="#932b8d" opacity=".9"/><path d="M64.05 98.07c.43.32.86.65 1.26 1a19.48 19.48 0 0 1 3.05 3.49 24.06 24.06 0 0 1 2.39 4.44 31.27 31.27 0 0 1 1.58 5.08l31-12.11c-.66-1.72-1.4-3.42-2.21-5.08a64.59 64.59 0 0 0-5.5-9.17zM29 133.18c0-1.82 0-3.74.13-5.72a62.83 62.83 0 0 1 .87-7.21 45.16 45.16 0 0 1 1.21-5l-36.06 13.3a74.75 74.75 0 0 0 .25 8.41 66.85 66.85 0 0 0 1.24 8.17z" fill="#e91388" opacity=".9"/><path d="M30.43 139.5l-.12-.35a43.79 43.79 0 0 1-1.46-6.21c-.08-.5-.16-1-.23-1.53L-2.19 146.9q.47 1.39 1 2.73c.62 1.6 1.32 3.18 2.08 4.72zM72.87 112l.07.28a44.17 44.17 0 0 1 .94 6.3c0 .53.08 1.08.11 1.64l32.2-13q-.33-1.3-.71-2.57-.77-2.58-1.77-5.09z" fill="#ea245f" opacity=".9"/><path d="M74.3 121.35c.21 1.78.36 3.66.43 5.61a63.61 63.61 0 0 1-.14 7.26 45.57 45.57 0 0 1-.72 5.22l34.85-17a73 73 0 0 0-1.08-8.16 66.28 66.28 0 0 0-2.11-8.16zM39.51 154.56c-.43-.32-.86-.64-1.27-1a19.71 19.71 0 0 1-3.11-3.48 24.32 24.32 0 0 1-2.46-4.44 31.35 31.35 0 0 1-1.63-5L.37 153c.71 1.8 1.49 3.56 2.35 5.27a62.47 62.47 0 0 0 5.51 8.88z" fill="#eb2d2e" opacity=".9"/><path d="M73.32 139c-.08.36-.16.73-.25 1.08a31.67 31.67 0 0 1-1.85 5.31 24.42 24.42 0 0 1-2.56 4.37l-.23.3 40.12-18.28c.11-1.82.16-3.66.15-5.53 0-1.11 0-2.22-.1-3.32zM51.88 157.76a27.15 27.15 0 0 1-5.18-.62 20.24 20.24 0 0 1-4.46-1.56 17.92 17.92 0 0 1-2.48-1.49l-31.15 13 .32.43a44 44 0 0 0 5.45 5.87z" fill="#f19432" opacity=".9"/><path d="M68.31 149.84a19.48 19.48 0 0 1-3 3.08 17.76 17.76 0 0 1-3.8 2.38 20.09 20.09 0 0 1-4.51 1.45 27.08 27.08 0 0 1-5.32.49l-37.04 16.55c.81.69 1.63 1.35 2.48 2a45.73 45.73 0 0 0 9.9 5.49 52.82 52.82 0 0 0 5.89 2l71.48-31.9q.47-1.23.89-2.47A65.6 65.6 0 0 0 107.9 138c.31-2 .53-4 .67-6.14z" fill="#fde92b" opacity=".9"/><path d="M39.67 186.34a73.92 73.92 0 0 0 9 .4l49.45-25.81c.75-1.32 1.46-2.65 2.1-4a61 61 0 0 0 3-7.73l-69.35 36.21c1.88.39 3.81.71 5.8.93z" fill="#91be4a" opacity=".9"/><path d="M51.09 183.93a77.8 77.8 0 0 0 13.32-.07 56.39 56.39 0 0 0 11.83-2.37 45.89 45.89 0 0 0 10.28-4.73 43.79 43.79 0 0 0 8.64-7.09 63.35 63.35 0 0 0 4.19-4.94l-52.54 18.76c1.4.18 2.82.33 4.28.44z" fill="#009e54" opacity=".9"/></svg>