<svg xmlns="http://www.w3.org/2000/svg" width="105.55" height="200" viewBox="0 0 105.55 200"><title>_</title><path d="M21.79 51.35L10.2 50.09A10 10 0 0 0-.82 59l-.46 4.21 29.79-9.56a15.41 15.41 0 0 0-6.72-2.3z" fill="#00a8de" opacity=".9"/><path d="M59.85 47a44.69 44.69 0 0 0-6.56.73 39 39 0 0 0-6.11 1.67 36.25 36.25 0 0 0-10.76 6.19c-.9.77-1.78 1.59-2.6 2.45s-1.68 1.82-2.49 2.81l-.09.11a31.36 31.36 0 0 1-.4-5.11c-.06-1.51-1.3-2.82-3.23-3.72L-.45 66 0 76.66 60.13 47h-.28z" fill="#0070b4" opacity=".9"/><path d="M89.24 61.12L88 60a43.2 43.2 0 0 0-16.2-8.67 49 49 0 0 0-9.12-1.66L-.68 71.78l-.89 10.69-.89 10.68z" fill="#333391" opacity=".9"/><path d="M33 92.77c.25-.85.51-1.68.8-2.43a24.61 24.61 0 0 1 3.1-5.72 17.41 17.41 0 0 1 4.05-3.95A17.19 17.19 0 0 1 46 78.3a23.82 23.82 0 0 1 6.37-.84 25.72 25.72 0 0 1 5.4.51 18 18 0 0 1 4.43 1.53h.07l33.42-15.03c-.57-.68-1.16-1.35-1.77-2A51 51 0 0 0 88 57.19l-88.53 40 .06 10.72z" fill="#932b8d" opacity=".9"/><path d="M62.33 81.59a15.34 15.34 0 0 1 3.73 2.17 17.26 17.26 0 0 1 3.18 3.34A36.08 36.08 0 0 1 72 91.46a37.21 37.21 0 0 1 2.11 4.76c.12.34.22.7.34 1l30.42-17.09c-.19-.48-.37-1-.57-1.44a51.16 51.16 0 0 0-5.17-9.34 43.83 43.83 0 0 0-4.84-5.74zM31.43 114.33a56.27 56.27 0 0 1-.54-6.18c-.07-1.89-.07-3.72 0-5.43s.18-3.35.36-4.9.42-3 .72-4.36c.1-.46.22-.9.33-1.34l-33 16.11.38 10.71.38 10.71z" fill="#e91388" opacity=".9"/><path d="M72.82 95.25a41.41 41.41 0 0 1 .49 4.27 47.13 47.13 0 0 1 0 5.68v.34L107 93a68.43 68.43 0 0 0-1.46-9.9zM33.57 123.9c-.15-.31-.29-.61-.43-.93a33.46 33.46 0 0 1-2-6.64c-.13-.65-.24-1.31-.34-2L-.52 129.69l.39 10.71z" fill="#ea245f" opacity=".9"/><path d="M74.5 105.49a60.06 60.06 0 0 1-.91 6.42 44.53 44.53 0 0 1-1.6 5.9 34.16 34.16 0 0 1-2.23 5 27.62 27.62 0 0 1-2.85 4.23 19.58 19.58 0 0 1-2.65 2.67l43-14.87c.42-2.64.77-5.38 1-8.21a93.87 93.87 0 0 0 .27-12.89v-.01zM54.49 135c-.79.12-1.6.21-2.43.25a24.79 24.79 0 0 1-3.56-.05 20.9 20.9 0 0 1-3.29-.56 19.07 19.07 0 0 1-5.85-2.59 18.63 18.63 0 0 1-4.05-3.71 22.16 22.16 0 0 1-2.64-4.17L-.72 141.32-.13 152l.59 10.7z" fill="#eb2d2e" opacity=".9"/><path d="M32 153.41c.8.91 1.62 1.76 2.43 2.53l.25.23 71.2-31.6q.61-3 1-6.12c.22-1.7.39-3.47.52-5.28l-41.51 18.48c-.21.2-.41.4-.62.59a16.48 16.48 0 0 1-3.59 2.44 17.84 17.84 0 0 1-4.23 1.47 22.1 22.1 0 0 1-2.55.38L-.6 161.16v10.72l32.57-14.45c.03-2.43.03-4.05.03-4.02z" fill="#f19432" opacity=".9"/><path d="M38.46 161.35a31.83 31.83 0 0 0 5.15 2.52 34.08 34.08 0 0 0 5.62 1.6 39.49 39.49 0 0 0 6.05.68 48.3 48.3 0 0 0 6.47-.22c1.28-.13 2.54-.31 3.78-.52l26.68-15.19c.87-1 1.71-2.11 2.5-3.24a46.52 46.52 0 0 0 5-9.21 56.89 56.89 0 0 0 3.12-10.7c.37-1.9.66-3.89.87-5.94L36 159.67c.83.61 1.65 1.18 2.46 1.68zM31.91 163.32v-5.91L-.6 172v21.44L32 178.86z" fill="#fde92b" opacity=".9"/><path d="M69.4 163.42a43.4 43.4 0 0 0 9.38-2.24 42.54 42.54 0 0 0 8.57-4.27 46.24 46.24 0 0 0 4.65-3.5l-28.9 10.36a49 49 0 0 0 6.3-.35zM31.88 178.81L-.58 193.48v.46a10 10 0 0 0 4.47 8.26l28-12.68z" fill="#91be4a" opacity=".9"/><path d="M31.82 193.31l-.16-4.23L4 202.68a9.93 9.93 0 0 0 5.64 1.49l12.53-.49a10 10 0 0 0 9.65-10.37z" fill="#009e54" opacity=".9"/></svg>