<svg xmlns="http://www.w3.org/2000/svg" width="108.58" height="200" viewBox="0 0 108.58 200"><title>_</title><path d="M59 48a38.93 38.93 0 0 0-6.14-1 49.54 49.54 0 0 0-6.7 0 44.18 44.18 0 0 0-9.67 1.6 40.21 40.21 0 0 0-8.79 3.68A42.88 42.88 0 0 0 19.87 58 52.27 52.27 0 0 0 13 65.68a53.86 53.86 0 0 0-5.47 9.37l-.05.12 52.44-26.91z" fill="#00a8de" opacity=".9"/><path d="M71.23 58.24a29.61 29.61 0 0 0-4.48-3.61 32.35 32.35 0 0 0-4.33-2.37L6.43 70.6a60.25 60.25 0 0 0-5.22 9.79C.63 81.76.1 83.18-.4 84.63L73.3 60.5a26.26 26.26 0 0 0-2.07-2.26zM85.82 51.1c-5.19-.41-9.65 1.26-10.29 3.76l10.58-3.74z" fill="#0070b4" opacity=".9"/><path d="M34.91 99.93A42.91 42.91 0 0 1 35.5 95a30 30 0 0 1 1.5-5.32 21.22 21.22 0 0 1 2.2-4.27A20.5 20.5 0 0 1 42 82a17.31 17.31 0 0 1 3.31-2.47 17.62 17.62 0 0 1 3.84-1.62 21.55 21.55 0 0 1 4.46-.78 23.86 23.86 0 0 1 6.31.32 17.47 17.47 0 0 1 5.23 1.9 17.26 17.26 0 0 1 3.39 2.52l37.61-20.17-.36-4.93a10 10 0 0 0-10.71-9.24l-11.53.85-9.89 5.3a2.53 2.53 0 0 0 0 .43c.2 2.74.21 4.81 0 4.59l-.17-.19a38.76 38.76 0 0 0-2.81-2.75l-.36-.3L2 92.15c-.41 2.39-.69 4.85-.85 7.39a96.51 96.51 0 0 0 .12 13c.13 1.75.32 3.47.54 5.15z" fill="#333391" opacity=".9"/><path d="M68.65 83.63c.32.33.63.66.92 1A24.52 24.52 0 0 1 73 90.06a35.49 35.49 0 0 1 1.33 3.29l33.15-16.06-.42-12.29zM33.21 111.46v-3.56a68.08 68.08 0 0 1 .58-7.45c.07-.5.15-1 .23-1.46L-.7 113.35c.07 2.37.23 4.68.5 6.9.2 1.6.44 3.17.74 4.75z" fill="#932b8d" opacity=".9"/><path d="M73.52 94.39l.16.38A38.92 38.92 0 0 1 75 98.66c.38 1.33.7 2.75 1 4.19s.46 3 .59 4.5c.17 2 .26 3.9.27 5.73a51.11 51.11 0 0 1-.25 5.19v.06L107.88 101l-1.07-12.22-1.07-12.22zM41 131.39a16.88 16.88 0 0 1-2.18-2.16 22.3 22.3 0 0 1-3.18-5.18 28.85 28.85 0 0 1-1.3-3.42 39.13 39.13 0 0 1-1-4c-.28-1.42-.51-2.95-.69-4.53-.05-.5-.09-1-.14-1.53L.79 126.11a62.1 62.1 0 0 0 1.89 6.12 54.11 54.11 0 0 0 4.6 9.52 50.24 50.24 0 0 0 3.19 4.58z" fill="#e91388" opacity=".9"/><path d="M60 132.82c-.32.13-.63.27-1 .39a25 25 0 0 1-6 1.33 24.07 24.07 0 0 1-6.25-.1 16.87 16.87 0 0 1-5.15-1.65 15.71 15.71 0 0 1-1.94-1.2l-29.45 17c1.06 1.18 2.17 2.32 3.34 3.39a53.06 53.06 0 0 0 5.52 4.44zM74.75 118.16a39 39 0 0 1-.68 4.6 30.69 30.69 0 0 1-1.17 4.12 22 22 0 0 1-2.7 5.12 17.14 17.14 0 0 1-3.56 3.67l40.44-23-1.21-12.21z" fill="#ea245f" opacity=".9"/><path d="M65.14 133.72l-.1.06a17.67 17.67 0 0 1-4 1.65L17.5 153.66c.7.64 1.41 1.26 2.13 1.83a43.2 43.2 0 0 0 7.87 5.08 40.84 40.84 0 0 0 8.67 3.14 44.65 44.65 0 0 0 9.39 1.19h3.16l58.79-24.61.28-12.29.28-12.27z" fill="#eb2d2e" opacity=".9"/><path d="M51.37 162a45 45 0 0 0 5.91-.34 34.57 34.57 0 0 0 5.36-1.1 27.55 27.55 0 0 0 4.78-1.89 42.63 42.63 0 0 0 4-2.33l1.22-.8c1.2-1 1.67 2.74 1 8.21l-.21 1.86 34-10.73 1.38-12.19-60.76 19.15c1.14.08 2.25.16 3.32.16z" fill="#f19432" opacity=".9"/><path fill="#fde92b" opacity=".9" d="M74.22 189.93l33.08-13.21.47-12.26.48-12.27-33.08 13.22-.95 24.52z"/><path d="M74.68 193.18a10 10 0 0 0 2.75 7.46l30.07-11.32.72-12.25-33.33 12.55z" fill="#91be4a" opacity=".9"/><path d="M85 204.19l12.54-.07a10 10 0 0 0 9.94-10.06v-5.78l-29.3 13.24a10 10 0 0 0 6.82 2.67z" fill="#009e54" opacity=".9"/></svg>