<svg xmlns="http://www.w3.org/2000/svg" width="66.72" height="200" viewBox="0 0 66.72 200"><title>_</title><path d="M21.33 71.39L9.81 70.32a10 10 0 0 0-10.88 9l-.13 1.45 25.81-8.73a15.14 15.14 0 0 0-3.28-.65z" fill="#00a8de" opacity=".9"/><path d="M24.41 71.14L-.77 81.55-1 89.49l31.8-13.15c-.46-2.34-2.98-4.34-6.39-5.2z" fill="#0070b4" opacity=".9"/><path d="M62.85 67.93c-1.71-.08-5-.06-7.42 0l-2 .3a35.5 35.5 0 0 0-5.77 1.36 30.25 30.25 0 0 0-5.2 2.27 28.82 28.82 0 0 0-7.29 5.78c-.9 1-1.86 2.13-2.83 3.41l-.5.66c-.57.8-1.06-1.4-1.08-4.88a4 4 0 0 0-.13-.93L-.71 90.14l.05 7.94.06 7.92 66.53-30.15c-.34-4.45-1.61-7.85-3.08-7.92z" fill="#333391" opacity=".9"/><path d="M65.52 77.21c0-.76-.08-1.5-.15-2.21L-.35 106.9l.26 7.94 65.8-31.94z" fill="#932b8d" opacity=".9"/><path d="M34 113.87a18.44 18.44 0 0 1 1.22-3.07 16.24 16.24 0 0 1 3.08-4.16 16.66 16.66 0 0 1 4.29-3 23.36 23.36 0 0 1 5.71-1.87 38 38 0 0 1 7.23-.67h1.91l2 .07h.35l1.1.08 1.18.1h.22l3.17-1.35a45.38 45.38 0 0 0 .54-8.16v-7.99l-66.69 30v15.88l34.62-15.53z" fill="#e91388" opacity=".9"/><path d="M32.25 116.36a32.08 32.08 0 0 1 .49-3.73l-33 18.59.74 7.91 31.65-17.83c-.03-1.78 0-3.44.12-4.94zM62.52 101.7l2.24.06c.29 0 .51-.64.64-1.75l-3.07 1.68h.18z" fill="#ea245f" opacity=".9"/><path d="M32.27 137c-.53-5.47-1.11-11.75-1.29-13.95v-1.8L-.7 139.17l.77 7.9.76 7.93 31.45-17.83z" fill="#eb2d2e" opacity=".9"/><path fill="#f19432" opacity=".9" d="M32.63 139.25l-33.45 13.7-.24 7.93 33.45-13.69.24-7.94z"/><path d="M33.76 148.47L-.61 159.69l-.82 7.9-.27 2.62a9.91 9.91 0 0 0 .7 4.86l33.1-10.81z" fill="#fde92b" opacity=".9"/><path d="M6.59 181.18l25.77-9.77.45-7.93L.26 175.83a10.06 10.06 0 0 0 6.33 5.35z" fill="#91be4a" opacity=".9"/><path d="M9 181.41l13 .68a10 10 0 0 0 10.51-9.47l.08-1.45-25.74 9.89a9.92 9.92 0 0 0 2.15.35z" fill="#009e54" opacity=".9"/></svg>