<svg xmlns="http://www.w3.org/2000/svg" width="101.1" height="200" viewBox="0 0 101.1 200"><title>_</title><path d="M49.54 65.47a73.85 73.85 0 0 0-10.14 1.84 54.55 54.55 0 0 0-8.88 3.11 43.3 43.3 0 0 0-7.59 4.4 38.12 38.12 0 0 0-6.23 5.7A42.73 42.73 0 0 0 12 87a36.52 36.52 0 0 0-2.32 4.8L55.19 65c-1.84.1-3.73.25-5.65.47z" fill="#00a8de" opacity=".9"/><path d="M70.58 72a70 70 0 0 0-8.77-2.22c-1.32-.25-2.69-.46-4.09-.65L8 86.87c-.41.64-.81 1.29-1.18 2a34.16 34.16 0 0 0-2.88 6.92c-.12.42-.23.86-.34 1.29l68.58-24.53c-.53-.19-1.06-.37-1.6-.55z" fill="#0070b4" opacity=".9"/><path d="M36.22 101.23a6.72 6.72 0 0 1 0-1.63 4.55 4.55 0 0 1 .29-1.16 4.64 4.64 0 0 1 .6-1.06 6.32 6.32 0 0 1 1-1 9.94 9.94 0 0 1 1.48-1 8.17 8.17 0 0 1 1.83-.74 15 15 0 0 1 2.58-.53 26.53 26.53 0 0 1 3.3-.11c1.22 0 2.57.12 4 .28a32.29 32.29 0 0 1 4.69.86l.52.16 34.3-10.85a30.12 30.12 0 0 0-4.31-4.24 47 47 0 0 0-6.67-4.46 54.45 54.45 0 0 0-6.11-2.88l-69.46 22A37.41 37.41 0 0 0 3 101a38.12 38.12 0 0 0-.21 6.31 29.52 29.52 0 0 0 .63 4.71l32.88-10.39c-.02-.1-.06-.25-.08-.4z" fill="#333391" opacity=".9"/><path d="M42.9 107.05a18.68 18.68 0 0 1-2.95-1.24 6 6 0 0 1-1.25-.9 4 4 0 0 1-1.13-1.82L5.73 116.32c.11.35.22.7.34 1a24.08 24.08 0 0 0 2.47 5c.27.41.55.81.85 1.21l37-15.37c-1.39-.38-2.52-.76-3.49-1.11zM60 95.36a13.21 13.21 0 0 1 3 1.43 10.16 10.16 0 0 1 2.18 1.91c.16.2.32.41.47.63l28.96-13.59a31.4 31.4 0 0 0-3.89-5.08q-.72-.66-1.4-1.38l-32.6 15.31a19.89 19.89 0 0 1 3.28.77z" fill="#932b8d" opacity=".9"/><path d="M66.09 100.79a12.12 12.12 0 0 1 .82 1.6 16.21 16.21 0 0 1 .67 1.92l.2.71c.17.85.38 2 .49 2.66s4.68.85 10.17.53l7.67-.44 14-7.22-.55-2.87-1-2.85a40.28 40.28 0 0 0-3.6-7.9c-.3-.5-.62-1-.94-1.46l-28.4 14.66q.25.31.47.66zM6.56 143.32c-3.28 0-5.58.23-5.61.71 0 .22 0 .69-.06 1.34zM67.28 110.37c-4.2-.51-8-1-11.32-1.44s-6.25-.89-8.66-1.29l-2.36-.41L10.06 127a23.1 23.1 0 0 0 3 2.66 31.62 31.62 0 0 0 5.07 3 50.51 50.51 0 0 0 6.29 2.51c.82.27 1.7.53 2.59.79l44.14-25q-1.87-.32-3.87-.59z" fill="#e91388" opacity=".9"/><path d="M1.47 152.24l.75 2.59.08.24 23.75-13.13c-.86 0-1.77.11-2.7.19l-12.89 1.11c-1.59.14-3.09.32-4.43.51l-5.28 2.92c.17 1.33.44 3.46.72 5.57zM75.54 113.91c-1.38-.37-2.82-.72-4.32-1l-45 23.43c1.54.5 3.17 1 4.89 1.43 2.15.56 4.47 1.08 6.9 1.56l44.39-23.12a65.06 65.06 0 0 0-6.86-2.3zM90.49 107.84c5.5.22 10-.22 9.92-1 0-.55-.21-2.59-.43-5.05l-14.62 5.83z" fill="#ea245f" opacity=".9"/><path d="M3.62 159.62a35.79 35.79 0 0 0 3.23 7.28l.31.5 31.31-9.91a9.64 9.64 0 0 1-1.1-1.24 7.42 7.42 0 0 1-.84-1.47 12.41 12.41 0 0 1-.67-2.06 20.77 20.77 0 0 1-.44-2.65l-.1-1c0-1.24-.07-2.75-.07-3.36s-3.09-1.28-7.26-1.88L2.11 152a36.51 36.51 0 0 0 1.51 7.62zM94.63 127.05a36.93 36.93 0 0 0-4.76-4.27 48.31 48.31 0 0 0-5.81-3.78l-.29-.16-46.88 17.59 1.78.57c4.08 1.23 7.8 2.38 11 3.42s6.05 2 8.38 2.81c1.27.45 2.4.87 3.41 1.26L97.65 131a31.24 31.24 0 0 0-3.02-3.95z" fill="#eb2d2e" opacity=".9"/><path d="M100.79 134.25a28.33 28.33 0 0 0-3.09-5.06c-.23-.3-.47-.6-.72-.89l-34.37 17.58c.88.23 1.68.45 2.36.65a16 16 0 0 1 2.87 1.06 6.69 6.69 0 0 1 1.3.92 5 5 0 0 1 .88 1.05 5.16 5.16 0 0 1 .56 1.27v.06l30.63-15.66c-.13-.33-.27-.66-.42-.98zM13.41 173.71c.23.22.48.43.72.65l36.62-14.56c-.67-.08-1.33-.16-2-.26a31 31 0 0 1-4.92-1.16 17.61 17.61 0 0 1-3.66-1.66 11.78 11.78 0 0 1-1.29-.92L8.4 167.92a40.33 40.33 0 0 0 5.01 5.79z" fill="#f19432" opacity=".9"/><path d="M19.7 176.35a47.87 47.87 0 0 0 8.63 4.18c1.34.5 2.75 1 4.21 1.37l70.69-25.13a41.24 41.24 0 0 0 .92-6.07 34.07 34.07 0 0 0-.07-6.24 29.64 29.64 0 0 0-.94-4.84l-32.41 11.53a7.13 7.13 0 0 1 0 1.57 5.89 5.89 0 0 1-.33 1.58 4.61 4.61 0 0 1-.69 1.23 5.41 5.41 0 0 1-1.13 1.06 8.47 8.47 0 0 1-1.72.92 15.92 15.92 0 0 1-2.35.74 22.67 22.67 0 0 1-2.8.47c-1 .11-2.1.17-3.26.17s-2.41 0-3.71-.14a61.25 61.25 0 0 1-4.18-.47L13.49 171.5a36.71 36.71 0 0 0 6.21 4.85z" fill="#fde92b" opacity=".9"/><path d="M40.47 184.84a98 98 0 0 0 9.95.67l49.22-21.8c.17-.34.34-.67.5-1a34.34 34.34 0 0 0 2.4-7.35q.2-.95.35-1.93l-68.6 30.38c1.97.42 4.03.77 6.18 1.03z" fill="#91be4a" opacity=".9"/><path d="M51.86 184a103 103 0 0 0 11.83.17 69.68 69.68 0 0 0 10.4-1.24 48.26 48.26 0 0 0 9-2.7 36 36 0 0 0 7.5-4.21 38.17 38.17 0 0 0 5.9-5.36 33.79 33.79 0 0 0 3.85-5.32l-50.58 18.51z" fill="#009e54" opacity=".9"/></svg>