<svg xmlns="http://www.w3.org/2000/svg" width="59.16" height="200" viewBox="0 0 59.16 200"><title>_</title><path d="M32.55 41.55L20 41.93a10 10 0 0 0-9.69 10.3l.12 4 27.51-13.28a9.91 9.91 0 0 0-5.39-1.4z" fill="#00a8de" opacity=".9"/><path d="M36.77 42.12L10.4 57.49l.6 5.67a12.55 12.55 0 0 1-.55 5.35L42.31 50a10 10 0 0 0-5.54-7.88z" fill="#0070b4" opacity=".9"/><path d="M2.79 72.24c-4.08.16-7.24 4.79-7 10.29l.07 1.84.12 3a12.08 12.08 0 0 0 2.13 6.53l49.5-24.43a10.24 10.24 0 0 1-5.29-8.81L41.94 51l-33 16.31c-1.25 2.83-3.5 4.82-6.15 4.93z" fill="#333391" opacity=".9"/><path d="M3.36 97.45a6.43 6.43 0 0 1 5 2.25l49.91-25a8.44 8.44 0 0 0-7.46-4.26 7.61 7.61 0 0 1-3.81-.81L-2.31 94.34a6.78 6.78 0 0 0 5.67 3.11z" fill="#932b8d" opacity=".9"/><path d="M10.73 107.54l.64 12.26 32-16.29c.68-4.43 3.93-7.9 8-8.11 4.75-.25 8.4-4.94 8.11-10.44v-.37l-.23-4.44a11.06 11.06 0 0 0-1.67-5.32L7.79 100.16a11.68 11.68 0 0 1 2.94 7.38z" fill="#e91388" opacity=".9"/><path d="M10.09 128.88l32.7-14.13.09-8.26a11.39 11.39 0 0 1 .27-2.32l-32.94 14.25z" fill="#ea245f" opacity=".9"/><path d="M8.57 147.59l-.07.65 33.85-11.08 2.14-20.83-33.84 11.09z" fill="#eb2d2e" opacity=".9"/><path d="M11.61 162l30.89-17.62c-.18-1.8-.39-3.83-.59-5.88l-.46-4.5-30.94 17.6c.38 3.81.8 7.78 1.1 10.4z" fill="#f19432" opacity=".9"/><path d="M10.53 165.13l.36 1.52a26.38 26.38 0 0 0 1.4 4.32 19.52 19.52 0 0 0 2 3.68 16 16 0 0 0 2.71 2.94 18.33 18.33 0 0 0 2.62 1.86l38.79-22c-.87-1.57-1.92-2.47-3-2.33-2.17.3-5.12.64-6.55.76H45.05a9.74 9.74 0 0 1-1.69-.22l-.25-.06a.74.74 0 0 1-.22-.16l-.11-.19a6.13 6.13 0 0 1-.47-1.18 17.16 17.16 0 0 1-.47-2l-.14-.8c-.08-.67-.31-3-.61-6L10.26 162.8c.11 1.01.21 1.83.27 2.33z" fill="#fde92b" opacity=".9"/><path d="M20.37 178.91a29.48 29.48 0 0 0 6.42 2.66c1.13.33 2.33.62 3.59.87l29.71-12 .09-2.66a18.93 18.93 0 0 0-1-7.28l-41.35 16.69a21.36 21.36 0 0 0 2.54 1.72z" fill="#91be4a" opacity=".9"/><path d="M35.25 183.5c1.9.11 4 .14 6.11.09h1.06c1.22-.06 5.71-.33 10-.59s7.68-5 7.54-10.48l-.08-3.16-29 13.74q2.12.26 4.37.4z" fill="#009e54" opacity=".9"/></svg>