<svg xmlns="http://www.w3.org/2000/svg" width="100.8" height="200" viewBox="0 0 100.8 200"><title>_</title><path d="M23.21 71.07l-13.49-.76A10 10 0 0 0-.83 79.73L-1 83.19l28.54-10.84a9.89 9.89 0 0 0-4.33-1.28z" fill="#00a8de" opacity=".9"/><path d="M27.22 71.53L-.67 84v10l33.39-15a10 10 0 0 0-5.5-7.47z" fill="#0070b4" opacity=".9"/><path d="M90.08 70.31l-13.22.29a10 10 0 0 0-9.78 10.22l.08 3.18 27.2-12.84a9.89 9.89 0 0 0-4.28-.85zM32.91 80.59a9.92 9.92 0 0 0-.11-1.45L-.66 93.87v20L32.84 99z" fill="#333391" opacity=".9"/><path fill="#932b8d" opacity=".9" d="M33.89 100.48L-.82 112.35l-.89 9.91L33 110.4l.89-9.92zM94.91 71.92L67 83.08 66.59 93l33.63-13.44a10 10 0 0 0-5.31-7.64z"/><path d="M100.91 90.6l.86-8.28a9.91 9.91 0 0 0 0-1.57L67.36 92l-2.05 19.81 34.57-11.31zM32.8 127.86l.74-18.27-34.09 13.54-.14 3.36c-.22 5.5-.47 12.71-.55 16v.51l34-13.5z" fill="#e91388" opacity=".9"/><path d="M99.63 98l-32.49 16.37.34 7.33c0 .87.08 1.75.12 2.62L100.1 108zM32.26 128L-.39 144.44l.27 2.25c.3 2.57.7 5 1.16 7.21L32.75 138c-.11-2.15-.3-6-.49-10z" fill="#ea245f" opacity=".9"/><path d="M100.27 118.79v-10L67 123.48c0 4.65-.07 9.11-.1 10.6l-.12 1.47c-.12 1.46-.28 2.86-.5 4.15a33.45 33.45 0 0 1-.81 3.6c-.08.29-.18.56-.27.84l35-15.39zM39.22 156.14a10.17 10.17 0 0 1-2.46-2.22 11.39 11.39 0 0 1-1.7-3 14.62 14.62 0 0 1-.63-2.25 25 25 0 0 1-.39-2.89 38.79 38.79 0 0 1-.11-3.5V141c0-.29 0-.72.08-1.26l-33.43 12v.45a55.58 55.58 0 0 0 1 6.75 36.45 36.45 0 0 0 1.72 5.76 33.42 33.42 0 0 0 2.21 4.59l34.79-12.46a11.69 11.69 0 0 1-1.08-.69z" fill="#eb2d2e" opacity=".9"/><path d="M100.54 129.28l-35.12 15.1a23 23 0 0 1-.82 2.17 18.5 18.5 0 0 1-2.86 4.4A15 15 0 0 1 58 154a17.13 17.13 0 0 1-4.75 1.82 25.43 25.43 0 0 1-6 .57 21.46 21.46 0 0 1-4.54-.51 14 14 0 0 1-2.33-.76l-34 14.59a30.16 30.16 0 0 0 2.89 3.69 29.2 29.2 0 0 0 3.7 3.38l87.34-37.53z" fill="#f19432" opacity=".9"/><path d="M45 185.35l22.9-12.92c.33-.35.65-.7 1-1.07l.1-.13a.79.79 0 0 1 .16.51l30.67-17.31-.94-9.91-.94-9.91-82.87 46.73a30.27 30.27 0 0 0 4.08 2.09 36.38 36.38 0 0 0 9.83 2.5 54 54 0 0 0 11.4 0c1.41-.13 2.79-.31 4.1-.53z" fill="#fde92b" opacity=".9"/><path d="M68 176.58c0 1.61 1.5 3.08 3.91 4.05L100.26 169l.28-10L68 172.4v4.18zM46.63 184.44c1.24-.29 2.45-.64 3.58-1s2.26-.82 3.32-1.29a30.22 30.22 0 0 0 3.22-1.7 37 37 0 0 0 3.18-2.17c1-.79 2.1-1.68 3.15-2.63s2.09-2 3.1-3.06l.11-.12-23 12.67c1.13-.22 2.27-.44 3.34-.7z" fill="#91be4a" opacity=".9"/><path d="M77.82 181.52l12 .66a10 10 0 0 0 10.53-9.44l.19-3.46-28.63 10.92a17.47 17.47 0 0 0 5.91 1.32z" fill="#009e54" opacity=".9"/></svg>