<svg xmlns="http://www.w3.org/2000/svg" width="100.33" height="200" viewBox="0 0 100.33 200"><title>_</title><path d="M19.77 71.7L3.17 70c-5.47-.57-8.88 3.33-7.57 8.67l.4 1.56 25.6-8.33z" fill="#00a8de" opacity=".9"/><path d="M30 72.29c-.08-.36-3.67-.89-8.3-1.25l-25.27 9.34 2.31 8L30.9 76.53z" fill="#0070b4" opacity=".9"/><path d="M80.29 70.49a14.19 14.19 0 0 0-10.89 6l13.24-6zM32 81l-2-6.11L-.7 90.06l6.26 15.52 29.7-14.64z" fill="#333391" opacity=".9"/><path fill="#932b8d" opacity=".9" d="M35.43 91.92L4.92 104.79l2.67 7.93 29.97-12.65-2.13-8.15zM95 69.57l-13 .99-12.8 6.91a12 12 0 0 0-1.55 3.82l-1.52 7.32 33.51-18.08a7.91 7.91 0 0 0-4.64-.96z"/><path d="M103.08 81.89c1.55-3.31.92-6.39-1.27-8.24l-36 12.24-7.94 20.32 40.22-13.67zM37.4 99.66L7.79 113.12l5.76 15.71 28.56-12.98-4.71-16.19z" fill="#e91388" opacity=".9"/><path fill="#ea245f" opacity=".9" d="M98.07 90.72l-38.61 17.77L56.57 119l37.71-17.34 3.79-10.94zM41.68 115.47l-28.13 13.87 3.13 7.76 27.61-13.61-2.61-8.02z"/><path d="M94.27 101.79l-37.89 17-4 14.08c-1.52 5.29-4 5.28-5.49 0l-2.47-8.7-28.1 12.57L22 152.43l64.49-28.85z" fill="#eb2d2e" opacity=".9"/><path fill="#f19432" opacity=".9" d="M87.48 125.57l-66.12 24.87 2.35 8.03 59.21-22.27 4.56-10.63z"/><path d="M81.35 133l-56.28 28.82 5.09 12a12.38 12.38 0 0 0 1.94 3.1l42.6-21.8z" fill="#fde92b" opacity=".9"/><path d="M38.36 180.81l32.43-12.95 4.35-10.72-44.48 17.76a16.17 16.17 0 0 0 7.7 5.91z" fill="#91be4a" opacity=".9"/><path d="M42.62 182.12l12.86-.12a15.31 15.31 0 0 0 13.28-9.57l1.88-5.43-31.72 14.6a12.42 12.42 0 0 0 3.7.52z" fill="#009e54" opacity=".9"/></svg>