<svg xmlns="http://www.w3.org/2000/svg" width="147.84" height="200" viewBox="0 0 147.84 200"><title>_</title><path d="M22.13 70.49H6.94c-5.5 0-8.77 4.36-7.27 9.65l.87 3.07L26.76 71.5a11.57 11.57 0 0 0-4.63-1.01z" fill="#00a8de" opacity=".9"/><path d="M27.67 72.42L.49 81.74l1.81 9.73 31.83-10.92a13.25 13.25 0 0 0-6.46-8.13z" fill="#0070b4" opacity=".9"/><path d="M34.72 80.7a10.64 10.64 0 0 0-.32-1.23L3.28 92.22 8 111.42l30.14-12.33zM91.48 69.75c-.13-.43-4.72-.37-10.2.12l-5 .45-7.13.68a12.76 12.76 0 0 0-11 10.83L57 92.28l35.35-19.72z" fill="#333391" opacity=".9"/><path fill="#932b8d" opacity=".9" d="M38.43 98.8L8.5 111.53l2.51 9.57 29.39-12.5-1.97-9.8zM94.66 82l-1.61-7.7L56 90.59l-2.41 11.76L95.1 84.06z"/><path d="M144.73 69.94l-14.33.77a13 13 0 0 0-11.57 10.41l-2.6 16.18 36.3-18.56c.97-5.16-2.45-9.09-7.8-8.8zM44.35 128.21L41.14 109l-29.78 11.51 4.4 19.29 28.67-11.12c-.02-.16-.05-.31-.08-.47zM93.43 82.44l-39.94 21.55-2.94 23.82 48.51-26.17-5.63-19.2z" fill="#e91388" opacity=".9"/><path d="M97.77 101.16l-48.9 25.42-.2 1.42c-.73 5.28-2.48 5.55-3.95.74l-27.28 14.17 3.24 9.35L73.21 125l.37-2.38c.84-5.43 2.75-5.55 4.24-.25l.06.2 22.57-11.73zM113.71 109.19l35.37-18 2.82-12.09c0-.14 0-.27.07-.4l-36.32 18.52z" fill="#ea245f" opacity=".9"/><path fill="#eb2d2e" opacity=".9" d="M24.92 169.32l43.23-20.16 4.76-23.81-53.66 25.02 5.67 18.95zM109.45 128.35c-.75 5.45-2.63 5.59-4.19.31L101 114.29l-22.34 12.09 5.72 19.16 57.54-31.09 5.23-25.07-34.93 18.88z"/><path d="M24.63 169.28l1.56 7.72 39.48-14.17 3.46-11.64-44.9 16.12zM86.16 155.38l51.73-28.77 2.46-12.56-57.16 31.78 2.97 9.55z" fill="#f19432" opacity=".9"/><path d="M88.5 172.07c0 .11.06.22.09.33l42.78-18.79 7.25-24.56-54.19 23.8zM27.93 181.12c.11.4 4.7.76 10.2.79h5.24L51 182a13 13 0 0 0 12.19-9.7l2.42-10.77-38.44 16.82z" fill="#fde92b" opacity=".9"/><path d="M93.69 178.76l34.15-11.05 4.84-11.86-44.45 14.39a12.93 12.93 0 0 0 5.46 8.52z" fill="#91be4a" opacity=".9"/><path d="M101.21 182.58l12.4-.73a14.14 14.14 0 0 0 12.2-10.34l1.51-6.64-31.88 16.5a11.88 11.88 0 0 0 5.77 1.21z" fill="#009e54" opacity=".9"/></svg>