<svg xmlns="http://www.w3.org/2000/svg" width="101.36" height="200" viewBox="0 0 101.36 200"><title>_</title><path d="M24.93 70.36l-20.18.57c-5.5.16-7.4 4-4.23 8.45l1.64 2.33 23.65-11.34c-.3-.01-.59-.02-.88-.01z" fill="#00a8de" opacity=".9"/><path d="M26.45 71.1L2 80.47l4.8 8.22 30.72-11.75a19.8 19.8 0 0 0-11.07-5.84z" fill="#0070b4" opacity=".9"/><path d="M77.31 70.71c-5.5 0-12.2 4-14.88 8.76l-4.47 8 37.43-16.82zM46.3 88.67L39 78.31a14.89 14.89 0 0 0-3-3.13l-28.75 16L19.16 106l28.49-15.78a9.6 9.6 0 0 1-1.35-1.55z" fill="#333391" opacity=".9"/><path d="M98.73 74.89l-1.17-.13-39.11 12.43-1.93 2.68c-2.78 3.86-6.46 4-8.84.74l-31.06 9.87L21 109l81.69-26c2.9-4 1.24-7.53-3.96-8.11z" fill="#932b8d" opacity=".9"/><path d="M99.23 76.55c.14-.23.25-.46.36-.69l-75.88 39.86 2.92 3.83c3 3.89 3.65 10.23 1.81 14.93l53.32-28z" fill="#e91388" opacity=".9"/><path d="M76.56 119.8l7.08-8.31-57.43 18.16a11.9 11.9 0 0 1-1.07 1.5L15 143.06l59.08-18.68a13.61 13.61 0 0 1 2.48-4.58z" fill="#ea245f" opacity=".9"/><path d="M77 137.49a16.09 16.09 0 0 1-.63-11.91l-59 18.9-20.95 24.72A9.18 9.18 0 0 0-5 171.37L80.37 144z" fill="#eb2d2e" opacity=".9"/><path d="M41.86 166.54l3.38-5.19c2.92-4.48 7.23-4.35 9.74.17l30.57-11.69-4.87-8.21L-3 173.63c-1.29 3.38.71 6 5.23 6.27l4.12.22z" fill="#f19432" opacity=".9"/><path d="M55.22 163.07l7.4 10.46 3.26 4.61 29.63-16.74-12.06-14.79-28.5 16.1c.05.12.18.23.27.36zM23.11 181.94c5.5.08 12.31-3.71 15.14-8.43l4-6.75L7.3 181.7z" fill="#fde92b" opacity=".9"/><path d="M67.53 182.55c.17.26 4.62.17 9.95-.2L100.66 170l-5.85-7.54-30 16z" fill="#91be4a" opacity=".9"/><path d="M77.62 183l20.73-1.67c5.48-.44 7.18-4.33 3.76-8.65l-1.77-2.24L77.27 183z" fill="#009e54" opacity=".9"/></svg>