<svg xmlns="http://www.w3.org/2000/svg" width="101.9" height="200" viewBox="0 0 101.9 200"><title>_</title><path d="M18.77 47.14L2.5 48.77c-5.47.55-8 5.07-5.71 10l1.57 3.35L23.7 47.71a12.36 12.36 0 0 0-4.93-.57z" fill="#00a8de" opacity=".9"/><path d="M24.66 49.42l-27 11 3.13 9.93 31.38-12.77a14.4 14.4 0 0 0-7.51-8.16z" fill="#0070b4" opacity=".9"/><path d="M96.67 49.21l-14.93-1.47a14 14 0 0 0-13.58 8.33l-2.57 6.6 37.58-12.47a55.23 55.23 0 0 0-6.5-.99zM31.48 57c-.07-.21-.16-.41-.25-.62L1 71.72 8.88 91 38.2 76.14z" fill="#333391" opacity=".9"/><path d="M106.69 51.54c.17-.38-1-.84-2.87-1.27L66.24 62.73l-4.89 12.56 40.56-13.45zM39.26 78.64L7.94 88.6l2.34 10.14 30.82-9.8-1.84-10.3z" fill="#932b8d" opacity=".9"/><path fill="#e91388" opacity=".9" d="M39.85 86.32L11.3 101.51l8.28 19.12 27.61-14.69-7.34-19.62zM102.35 60.86v-.06L62.82 77l-8.06 25.73 37.41-15.3z"/><path d="M91.29 85.26l-36.11 18.17-1.62 7c-1.23 5.36-3.72 5.5-5.53.3l-1.11-3.19L19 121.65l3.92 9.65 64.32-32.38z" fill="#ea245f" opacity=".9"/><path fill="#eb2d2e" opacity=".9" d="M89.13 102.57l-67.51 25.08 5.67 20.04 50.78-18.87 11.06-26.25z"/><path d="M79.34 129.13l-50.93 18.49.94 3.38 1.82 6.63 42.54-15.44z" fill="#f19432" opacity=".9"/><path d="M64.68 163.07c1.32-5.34 3.42-14.07 4.69-19.44l1.42-6-39.25 22.56 1.34 2.81v.52l-.09.53q-.13.75-.37 1.76t-.63 2.37c-.23.82-.49 1.6-.75 2.3a17.3 17.3 0 0 1-.79 1.8 9.44 9.44 0 0 1-.78 1.27 4.67 4.67 0 0 1-.7.77 9.28 9.28 0 0 1-1 .73 10.55 10.55 0 0 1-1.15.64 12.64 12.64 0 0 1-1.31.54c-.47.16-1 .31-1.5.43s-1.15.26-1.73.37-1.19.21-1.8.29-1.21.17-1.85.22l-.63.06-4.35.23c-1.69.08-2.62 4.62-2.05 10.09l.74 7.21v.13L64 165.47c.64-2.23.68-2.4.68-2.4z" fill="#fde92b" opacity=".9"/><path d="M58.13 178.41c1.05-3.28 2.16-7.11 3.3-11.37l.57-2.11-51.74 30.12c.6 5.41 1.6 9.79 2.24 9.76l1.76-.08 43.55-25.36z" fill="#91be4a" opacity=".9"/><path d="M46.34 198.57A17.49 17.49 0 0 0 51 195a35 35 0 0 0 3.85-5.32c1.2-2 2.5-4.34 3.88-7.07l-46.84 18.6.87.09.66.06 1.84.18 1.57.14h.48l1.44.09 1.07.06 2.62.17c.92 0 4.43.12 7.8.17l2.65-.21a44.33 44.33 0 0 0 7.4-1.15 26.49 26.49 0 0 0 6.05-2.24z" fill="#009e54" opacity=".9"/></svg>