<svg xmlns="http://www.w3.org/2000/svg" width="95.22" height="200" viewBox="0 0 95.22 200"><title>_</title><path d="M13.44 70.56a10 10 0 0 0-9.91 10.1v3.17L33 70.38z" fill="#00a8de" opacity=".9"/><path d="M33.26 70.58L3.47 83.31l-.07 4.48a9.91 9.91 0 0 0 1.1 4.68L55 70.9z" fill="#0070b4" opacity=".9"/><path d="M82.15 69.23l-6.15.23-21.69.8L5 94.41a10 10 0 0 0 9 5l22.57-.83 53.3-26.1a10 10 0 0 0-7.72-3.25z" fill="#333391" opacity=".9"/><path d="M91.61 77.57a9.94 9.94 0 0 0-3.07-6.18l-51.33 29.73 3.54-.38c4.74-.51 6.83 1.87 5.28 5.47l45.8-26.53z" fill="#932b8d" opacity=".9"/><path d="M92.25 96.8c.13-.16.17-4.79.08-10.28l-.07-4.45-48 22.29a10.34 10.34 0 0 1-1.13 1.64l-24.42 29.68 67.06-31.14z" fill="#e91388" opacity=".9"/><path d="M86.93 107.67l.19-.2-69.22 26-12.34 12.86-1.77 1.85 68.85-25.84z" fill="#ea245f" opacity=".9"/><path d="M49.94 147.08l23.28-24.95-68.27 27.32-5.28 5.75c-.14.15-.42 4.77-.63 10.26l-.2 5.1v.35l49-19.61a6.43 6.43 0 0 1 2.1-4.22z" fill="#eb2d2e" opacity=".9"/><path d="M54.35 156.17c-3.38-.31-5.14-1.77-5.07-3.74l-50 17a10 10 0 0 0 3.52 8.17L63.28 157z" fill="#f19432" opacity=".9"/><path d="M85.82 158l-22-2.38L3 175.23a9.92 9.92 0 0 0 5.54 2.47l11.65 1.3 21.58 2.33 52.32-16.83a10 10 0 0 0-8.27-6.5z" fill="#fde92b" opacity=".9"/><path d="M94.52 168.6v-4.68a9.89 9.89 0 0 0-1.12-4.49l-50 22.73L65 182z" fill="#91be4a" opacity=".9"/><path d="M84.83 181.74a10 10 0 0 0 9.54-10.44l-.14-3.17-29 14.5z" fill="#009e54" opacity=".9"/></svg>