<svg xmlns="http://www.w3.org/2000/svg" width="66.17" height="200" viewBox="0 0 66.17 200"><title>_</title><path d="M64.56 9.25l-4.44.36-1.51.16c-1.46.16-2.85.33-4.13.52s-2.48.4-3.58.61-2.15.46-3 .71A41.81 41.81 0 0 0 43.5 13a37.65 37.65 0 0 0-4.08 1.85 35.22 35.22 0 0 0-7.2 5 30.43 30.43 0 0 0-6 7.55 33.27 33.27 0 0 0-2.11 4.48 38 38 0 0 0-1.51 4.94c0 .19-.07.39-.12.59L66 14.43c-.4-3.11-1-5.22-1.44-5.18z" fill="#00a8de" opacity=".9"/><path d="M65.37 14.38L21.8 37.45c-.17.77-.33 1.55-.46 2.33-.15 1-.27 1.92-.36 2.85s-.13 1.89-.14 2.78v.91c0 .57.15 2.52.32 5.1L66 27.68a66.63 66.63 0 0 0-.13-8.43v-.16c-.15-1.7-.31-3.31-.5-4.71z" fill="#0070b4" opacity=".9"/><path d="M20.07 57.36l.21 6.17c.17 5 .31 10.79.34 13.53l31-15.06v-.45l-.11-2.65c-.19-5.5-.35-11.53-.37-13.41l.13-1.49a25.11 25.11 0 0 1 .62-4A14.79 14.79 0 0 1 53 37a9.11 9.11 0 0 1 1.46-2.14 7.57 7.57 0 0 1 1.3-1.08 14.83 14.83 0 0 1 2-1.13 27.67 27.67 0 0 1 2.77-1.1l1.05-.36 3.42-.92c.2-.05.36-.72.48-1.81L19.85 50.65c.07 1.98.15 4.35.22 6.71z" fill="#333391" opacity=".9"/><path d="M19.79 78.15l-.09 1.91a29.13 29.13 0 0 1-.7 5.24 20.81 20.81 0 0 1-1.52 4.37 17.07 17.07 0 0 1-2.33 3.59 14.54 14.54 0 0 1-1.32 1.37l37.1-21c-.16-2-.69-7.81-1.21-13.15l-30 17c.05.22.06.46.07.67z" fill="#932b8d" opacity=".9"/><path d="M11.92 92.71a26 26 0 0 1-2.79 1.56c-1.07.52-2.26 1-3.54 1.51l-1.32.5-3.82 1.2c-.47.14-1 3.74-1.14 8s.12 7.88.62 8l3.47 1.16 1.14.47a34.88 34.88 0 0 1 3.18 1.5 25.41 25.41 0 0 1 2.65 1.64c.25.18.48.36.71.54L35.51 109c-.75-.48-1.52-1-2.33-1.42l-.46-.26c-.53-.29-.26-.9.6-1.36l.74-.43a44.45 44.45 0 0 0 6-4.16 35.18 35.18 0 0 0 4.79-4.83 30.67 30.67 0 0 0 3.57-5.5 28.63 28.63 0 0 0 1.55-3.78A38.66 38.66 0 0 0 51.08 83c.31-1.51.57-3.13.76-4.83l.16-1.7-39.54 15.86c-.18.13-.35.26-.54.38z" fill="#e91388" opacity=".9"/><path d="M13.51 121.7a17.89 17.89 0 0 1 3.08 3 18.68 18.68 0 0 1 2.33 3.67c.28.58.53 1.2.76 1.83l26-14a23.29 23.29 0 0 0-3.09-3.19 32.58 32.58 0 0 0-4.47-3.17c-.93-.56-1.94-1.1-3-1.62L12 120.65a18.17 18.17 0 0 1 1.51 1.05z" fill="#ea245f" opacity=".9"/><path d="M19.39 132.54l.33 1.65c.13 2 .36 8.21.51 13.7l.21 7.81 30.95-14.78c-.11-2.92-.22-5.44-.3-6.72l-.27-1.94a46.8 46.8 0 0 0-1.11-5.54 34.58 34.58 0 0 0-1.7-4.9 27 27 0 0 0-2.32-4.24l-.33-.45-26.67 12.72a24.29 24.29 0 0 1 .7 2.69z" fill="#eb2d2e" opacity=".9"/><path d="M20.37 159.76c.37 3.34.83 7.18 1.24 10.31l29.55-17.27-.1-.93-.52-4.69c-.27-2.46-.58-5.1-.87-7.47L20.07 157z" fill="#f19432" opacity=".9"/><path d="M20.16 172.32l.34 2.41a31.12 31.12 0 0 0 1.77 6.91 27.47 27.47 0 0 0 3.28 6.07 27.88 27.88 0 0 0 2.19 2.68l28.9-11a9.68 9.68 0 0 1-1.19-1.07 10.78 10.78 0 0 1-1.73-2.34 14.29 14.29 0 0 1-1.23-3.07 21.65 21.65 0 0 1-.67-3.87l-.12-1.44c0-1.69.29-7.09.56-12.31l-32 12.22c-.04 1.96-.09 3.69-.1 4.81z" fill="#fde92b" opacity=".9"/><path d="M31.71 194.24a43.34 43.34 0 0 0 6 3.35c1.24.57 2.51 1.07 3.79 1.51l25-13c-.34-3-.76-5.07-1.09-5.15l-3.17-.77-1-.3c-1-.29-1.85-.61-2.66-.94a17.12 17.12 0 0 1-2.05-1l-.18-.12-27.46 14.28a29.8 29.8 0 0 0 2.82 2.14z" fill="#91be4a" opacity=".9"/><path d="M43.33 199.47a44.18 44.18 0 0 0 6.67 1.85l2.27.44c2.65.22 7 .51 9.56.63s4.83-4.27 4.94-9.77v-.07-5.06l-26 10.94c.86.38 1.71.73 2.56 1.04z" fill="#009e54" opacity=".9"/></svg>