<svg xmlns="http://www.w3.org/2000/svg" width="43.53" height="200" viewBox="0 0 43.53 200"><title>_</title><path d="M28.16 31l-10.67-.56A10 10 0 0 0 7 39.92l-.21 4 27.3-10.51A9.93 9.93 0 0 0 28.16 31z" fill="#00a8de" opacity=".9"/><path d="M38.06 42.34A10 10 0 0 0 35 34L7.13 42.91 6 53.31l32-10.19z" fill="#0070b4" opacity=".9"/><path fill="#333391" opacity=".9" d="M38.21 52.88l.67-10.44-31.5 11.64-.67 10.45-.68 10.44 31.5-11.65.68-10.44z"/><path fill="#932b8d" opacity=".9" d="M36.98 61.36L7.25 76.99l.68 10.44L37.66 71.8l-.68-10.44z"/><path fill="#e91388" opacity=".9" d="M37.88 83.45l.13-10.47-30.85 13.3-.13 10.46-.12 10.46 30.84-13.29.13-10.46z"/><path fill="#ea245f" opacity=".9" d="M37.56 93.44L7.15 107.68l.2 10.46 30.42-14.24-.21-10.46z"/><path fill="#eb2d2e" opacity=".9" d="M38.05 115.26l.41-10.46-31.19 12.45-.41 10.46-.41 10.45 31.19-12.45.41-10.45z"/><path fill="#f19432" opacity=".9" d="M37.51 124.76L7.16 139.14l.25 10.46 30.35-14.38-.25-10.46z"/><path fill="#fde92b" opacity=".9" d="M37.14 144.72l-.93-10.43-29.36 16.32.93 10.42.92 10.42 29.36-16.31-.92-10.42z"/><path d="M38 156.76L7.08 169.92v.78a10 10 0 0 0 3.81 8l26.93-11.47z" fill="#91be4a" opacity=".9"/><path d="M37.69 170.51l-.13-4-26.33 12.8a9.93 9.93 0 0 0 6.12 1.87l10.65-.35a10 10 0 0 0 9.69-10.32z" fill="#009e54" opacity=".9"/></svg>