<svg xmlns="http://www.w3.org/2000/svg" width="83.46" height="200" viewBox="0 0 83.46 200"><title>_</title><path d="M30.38 6a41.79 41.79 0 0 0-4.55-.68c-1-.1-2-.17-3.13-.21s-2.35 0-3.63 0-2.67.07-4.15.16l-1.44.08L9 5.71c-.69.06-.83 4.59-.31 10.06v.19c.12 1.26.26 2.47.41 3.59L32.28 6.47c-.63-.17-1.28-.32-1.9-.47z" fill="#00a8de" opacity=".9"/><path d="M42.15 11.49a36.4 36.4 0 0 0-8-3.73c-.8-.26-1.63-.49-2.46-.7L8.57 20.3c.53 3.7 1.17 6.42 1.6 6.46l3.63.44 1.15.24a24.21 24.21 0 0 1 3.09.85l.59.24 26.29-15.1a32.53 32.53 0 0 0-2.77-1.94z" fill="#0070b4" opacity=".9"/><path d="M55.31 36.5c-.16-1.07-.39-2.19-.67-3.32s-.61-2.29-1-3.51-.84-2.44-1.33-3.67a28.63 28.63 0 0 0-1.85-3.82 27.91 27.91 0 0 0-2.39-3.48 29.33 29.33 0 0 0-2.92-3.13c-.24-.23-.51-.44-.76-.66l-27.08 13.6a14.59 14.59 0 0 1 1.78.95 9.67 9.67 0 0 1 1.69 1.36A7.19 7.19 0 0 1 22 32.54a14.74 14.74 0 0 1 1 2.72 28.45 28.45 0 0 1 .8 3.74l.2 1.43c.11 1.63.37 6.6.61 11.56l30.71-15.44v-.05z" fill="#333391" opacity=".9"/><path d="M55.32 50.82c.09-5.5.16-10.93.15-12.08l-.09-1-31.63 13.41v4.37c-.05 2.95-.09 6.17-.12 8.89l31.69-13.49v-.1z" fill="#932b8d" opacity=".9"/><path d="M55.85 72.06l-.35-1.88c-.2-2.36-.61-8.78-.91-14.27l-.33-6.07-30.72 15.74c.15 2.35.28 4.34.37 5.45l.32 2a47.17 47.17 0 0 0 1.28 5.73 37.33 37.33 0 0 0 1.91 5.14A30.86 30.86 0 0 0 30 88.4c.19.28.4.55.6.83l26.17-13.42a33.34 33.34 0 0 1-.92-3.75z" fill="#e91388" opacity=".9"/><path d="M61 86.05a15.8 15.8 0 0 1-2.27-3.32 21.14 21.14 0 0 1-1.61-4.23c-.12-.45-.23-.92-.33-1.4L29.49 88A28.79 28.79 0 0 0 32 91.52a37.1 37.1 0 0 0 4.05 4.08q1.11 1 2.37 1.92l24.48-9.79a14.46 14.46 0 0 1-1.9-1.68z" fill="#ea245f" opacity=".9"/><path d="M64.23 112.85a25.88 25.88 0 0 1 2.66-1.42c1-.46 2.06-.89 3.2-1.29l1.16-.41 3.28-.93.31-.13c.46-.55.86-3.95.91-7.93.06-4.27-.28-7.89-.76-8l-4-1.42-1.36-.57c-1.3-.61-2.53-1.19-3.63-1.75a26.75 26.75 0 0 1-2.81-1.72L39 97.67q1.29.93 2.71 1.83l.51.33c.59.36.76.8.38 1l-.34.17a52.86 52.86 0 0 0-5 2.88A39.23 39.23 0 0 0 33.1 107a30.34 30.34 0 0 0-3.42 3.48 21.61 21.61 0 0 0-2.68 4.3 29.07 29.07 0 0 0-1.91 5.1 41.84 41.84 0 0 0-1.15 5.92l-.26 2.09c0 .68-.06 1.66-.08 2.82l39.2-16.87c.44-.34.91-.67 1.43-.99z" fill="#eb2d2e" opacity=".9"/><path d="M74.72 108.42a.22.22 0 0 0 .1-.07l-.31.12zM55.5 128.07l.35-1.68a23.11 23.11 0 0 1 1.44-4.61 18.8 18.8 0 0 1 2.24-3.84 18.38 18.38 0 0 1 3.07-3.16c.22-.18.47-.35.71-.53l-39.54 16.21c-.14 3.19-.3 7.8-.42 11.84v1.46l32.05-13.14c.01-1.09.06-1.98.1-2.55z" fill="#f19432" opacity=".9"/><path d="M55 149.74l-1-10.51c-.4-4-.79-8.29-1-11.16l-30.15 17.16.31 3.15c.55 5.47 1.07 11.4 1.16 13.16l-.07 1.46a23 23 0 0 1-.51 3.89 15.38 15.38 0 0 1-1.06 3.11 11.51 11.51 0 0 1-1.58 2.48 9.58 9.58 0 0 1-1.26 1.24 16.69 16.69 0 0 1-1.84 1.35c-.74.46-1.57.92-2.48 1.37l-.94.46-3 1.26a2.74 2.74 0 0 0-.3 1.61l44.24-25.24c-.2-1.61-.35-3.26-.52-4.79z" fill="#fde92b" opacity=".9"/><path d="M7.81 189.33L54.57 172c.1-.33.2-.67.29-1l.6-2.31c.22-2 .56-6.1.86-10.27L8.57 176.11a70.07 70.07 0 0 0-1 8.65v.07a19.07 19.07 0 0 0 .24 4.5z" fill="#91be4a" opacity=".9"/><path d="M14.11 197.58c2.6-.27 7-.81 9.69-1.18l2.31-.58a44.14 44.14 0 0 0 6.69-2.26A40.51 40.51 0 0 0 44.33 186a29.68 29.68 0 0 0 4.52-5.27 28 28 0 0 0 3.07-6.11 30.6 30.6 0 0 0 1.44-5.81L9.47 192.53c1.03 3.17 2.8 5.24 4.64 5.05z" fill="#009e54" opacity=".9"/></svg>