<svg xmlns="http://www.w3.org/2000/svg" width="123.21" height="200" viewBox="0 0 123.21 200"><title>_</title><path d="M38.34 102.53c-.61 0-1.18-.06-1.74-.08s-1.08 0-1.55 0-1 0-1.41.05a27.42 27.42 0 0 0-5.8 1 28.59 28.59 0 0 0-2.81 1 30.09 30.09 0 0 0-2.73 1.29 24 24 0 0 0-2.72 1.71 28.88 28.88 0 0 0-2.6 2.13 35.36 35.36 0 0 0-2.48 2.54c-.79.89-1.59 1.88-2.39 3-.47.64-.93 1.34-1.38 2l27.67-14.64h-.06z" fill="#00a8de" opacity=".9"/><path d="M46.43 104.17a63.287 63.287 0 0 0-6.14-1.01l-1.86-.16-28 13.93c-.26.38-.52.77-.76 1.17-.69 1.12-1.35 2.31-2 3.53-.38.76-.75 1.57-1.11 2.4l39.91-19.83z" fill="#0070b4" opacity=".9"/><path d="M50 105.28l-1-.25c-.92-.25-1.9-.48-2.9-.69L6.28 124.23c-.21.49-.43 1-.63 1.49-.54 1.36-1.05 2.79-1.52 4.25s-.91 3-1.31 4.61c-.16.65-.32 1.32-.47 2l56.75-28.32c-4.36-1.44-8.21-2.71-9.1-2.98z" fill="#333391" opacity=".9"/><path d="M60.3 107.74l-2.3-.64-55.26 31.12c-.17 1-.33 2-.48 3S2 143.08 1.92 144l62.42-35.16z" fill="#932b8d" opacity=".9"/><path d="M112.43 101.4c-5.49-.31-10.11-.15-10.27.36s-.62 1.9-1 3.09l-.41 1-.12.27 12.37-4.69zM26.4 138.94a14.23 14.23 0 0 1 1.86-1.65 11.49 11.49 0 0 1 1.94-1.16 10.53 10.53 0 0 1 2.06-.71 11.44 11.44 0 0 1 2.23-.29h.9l1.06.09 41.18-20-.8-.22-.63-.19-10.75-3.71-.4-.1L.63 142.31q-.22 1.28-.43 2.6l-.27 1.8c-.26 2.17-.54 4.59-.63 5.38 0 .25.4.47 1.16.65l24.44-11.89a14.13 14.13 0 0 1 1.5-1.91z" fill="#e91388" opacity=".9"/><path d="M113.1 100.73l-.87.09-11.48 6.6c-.23 1-.5 1.89-.8 2.76a28.58 28.58 0 0 1-1.13 2.8c-.2.43-.41.86-.64 1.27l23.74-13.65a37.72 37.72 0 0 0-8.82.13zM35.87 133q.71.17 1.54.4l1.83.53 1.87.6 1.71.61.38.15 43.48-14.93-1.45-.36-1.7-.42c-.58-.15-1.16-.32-1.74-.51s-1.17-.39-1.77-.61l-1-.42-43.35 14.9zM9.84 152.31l11.7-6 .12-.46a26.87 26.87 0 0 1 1.11-3.27 19.2 19.2 0 0 1 1.36-2.69l.13-.19L.05 152.08a39.3 39.3 0 0 0 8.68.29z" fill="#ea245f" opacity=".9"/><path d="M10.42 152.54c5.49-.39 10-1.15 10.12-1.7s.35-2.2.59-3.68l.19-.74-11.59 6.17zM44.88 136.38l.49.17 10.19 4 .62.25 65.72-27.66.61-2.33c.64-3.35 1.26-6.74 1.39-7.52 0-.23-.32-.46-1-.66l-25.22 10.66c-.29.41-.59.81-.9 1.2a11.2 11.2 0 0 1-1.78 1.77 9.36 9.36 0 0 1-1.93 1.2 9.67 9.67 0 0 1-2.2.7 12.2 12.2 0 0 1-2.56.21c-.3 0-.63 0-1-.06l-1.25-.13L43.72 136z" fill="#eb2d2e" opacity=".9"/><path d="M58 142.45l5.06 1.8 56.86-26.63c.49-1.73 1-3.49 1.35-5.3l.11-.52L56.85 142z" fill="#f19432" opacity=".9"/><path d="M69.74 146.23l1.26.46c1.28.47 2.54.91 3.75 1.28l.53.16 39.94-17.3c.28-.53.57-1 .83-1.59a75.57 75.57 0 0 0 3.24-7.68c.36-1 .69-2 1-3.07l-57.61 25c3.32 1.23 6.05 2.32 7.06 2.74z" fill="#fde92b" opacity=".9"/><path d="M77.88 148c1.12.33 2.2.61 3.2.82l1.52.31 28.71-10.7c.34-.43.68-.87 1-1.33 1.21-1.67 2.33-3.45 3.41-5.28L75 147c1 .4 1.94.73 2.88 1z" fill="#91be4a" opacity=".9"/><path d="M82.67 148.4c.52.12 1 .23 1.53.33s1 .19 1.52.27a30.16 30.16 0 0 0 8.78.08 25.77 25.77 0 0 0 6.78-2 27.92 27.92 0 0 0 6.13-3.82 34.94 34.94 0 0 0 4.35-4.27l-29.16 9.39h.05z" fill="#009e54" opacity=".9"/></svg>