<svg xmlns="http://www.w3.org/2000/svg" width="50.66" height="200" viewBox="0 0 50.66 200"><title>_</title><path d="M37.88 72.12c0-.49-4.29-1.31-9.52-1.82s-10.46 3.46-11.62 8.84l-.34 1.57 21.52-7.15c-.02-.78-.03-1.3-.04-1.44z" fill="#00a8de" opacity=".9"/><path d="M38.51 73.73l-21.6 6.88-1.81 7.87L38.58 81c-.03-3-.05-5.7-.07-7.27z" fill="#0070b4" opacity=".9"/><path d="M39.89 83.26v-2.18l-23.51 7.47-3.63 15.72L40 95.61z" fill="#333391" opacity=".9"/><path fill="#932b8d" opacity=".9" d="M39.58 93.35l-25.32 13.28-.42 8.06 27.07-14.19-1.33-7.15z"/><path d="M40.61 100.92l-27.48 13.37-1.31 15.94v.14l31-15.1z" fill="#e91388" opacity=".9"/><path d="M43.33 116.53L11.2 129.12c-.36 2.21-.72 5-1 7.86l33.72-13.21z" fill="#ea245f" opacity=".9"/><path d="M45.3 131.54l-.11-6.79L10.76 136c-.71 4.17-1.35 8.56-1.69 11.77l-.36 3.5 36.49-11.9c.09-2.87.14-5.63.1-7.83z" fill="#eb2d2e" opacity=".9"/><path d="M44.93 137.11L10.28 153.6l.19 7.6 35-16.68c-.1-2.37-.3-4.93-.54-7.41z" fill="#f19432" opacity=".9"/><path d="M45.47 149.26c0-1.39-.11-3-.21-4.72L10.2 161.18l.19 8.07a9.93 9.93 0 0 0 2.3 6.11l33-15.68z" fill="#fde92b" opacity=".9"/><path d="M45.72 167.56l-.08-7.56-33.27 15.16a10 10 0 0 0 7.88 3.76h.61z" fill="#91be4a" opacity=".9"/><path d="M35.24 179a10 10 0 0 0 10.83-9.1l.1-1.11-25.82 8.9z" fill="#009e54" opacity=".9"/><path d="M21 30.49a10 10 0 0 0-9.34 5.46l13.43-5.28z" fill="#00a8de" opacity=".9"/><path d="M24.46 30l-12.51 7.18a9.88 9.88 0 0 0-.53 3.22l19.22-11z" fill="#0070b4" opacity=".9"/><path d="M10.24 43.54l30.47-10.31a9.9 9.9 0 0 0-5-1.95l-3.89-.36L10.8 38c-.06.32-.11.65-.14 1l-.16 1.79z" fill="#333391" opacity=".9"/><path d="M10.44 46.8l32.3-12.27a10.09 10.09 0 0 0-2.07-1.91L10.59 44z" fill="#932b8d" opacity=".9"/><path d="M11.67 52.17l.33 2.75 32.14-18.53a10 10 0 0 0-2.82-4.2L11.38 49.42z" fill="#e91388" opacity=".9"/><path d="M10.73 53.26a9.91 9.91 0 0 0 .27 2.27l34.17-14.44v-.38a9.91 9.91 0 0 0-.17-2.27L10.73 52.88v.38z" fill="#ea245f" opacity=".9"/><path d="M14.43 61.61L44.6 44.76 44.35 42l-.25-2.74-32.43 18.11a10 10 0 0 0 2.76 4.24z" fill="#eb2d2e" opacity=".9"/><path d="M15 60.92l30.4-10.51.24-2.75L13 59a10.09 10.09 0 0 0 2 1.92z" fill="#f19432" opacity=".9"/><path d="M20.43 63l3.9.23 20.75-7.78c.05-.32.09-.65.11-1l.11-1.79.17-2.76-30.13 11.33A9.9 9.9 0 0 0 20.43 63z" fill="#fde92b" opacity=".9"/><path d="M30.65 63.31l13.56-4.92a9.88 9.88 0 0 0 1.08-3.08l-20.83 7.56z" fill="#91be4a" opacity=".9"/><path d="M35.17 63.69A10 10 0 0 0 44 57.47l-12.92 6.39z" fill="#009e54" opacity=".9"/></svg>