<svg xmlns="http://www.w3.org/2000/svg" width="102.28" height="200" viewBox="0 0 102.28 200"><title>_</title><path d="M61.44 32a65.73 65.73 0 0 0-9.64 0 78.25 78.25 0 0 0-11.15 1.5 57.61 57.61 0 0 0-9.79 3 45.5 45.5 0 0 0-8.4 4.5 40.45 40.45 0 0 0-6.95 6 50.29 50.29 0 0 0-5.28 6.85A40.49 40.49 0 0 0 6.63 61l54.82-29z" fill="#00a8de" opacity=".9"/><path d="M72.84 39a57.19 57.19 0 0 0-8.76-2.92L5.26 55.82l-.08.18A35.67 35.67 0 0 0 .7 68.47l78.38-26.26A54 54 0 0 0 72.84 39z" fill="#0070b4" opacity=".9"/><path d="M35.55 78.86a19.22 19.22 0 0 1-.13-2 16.51 16.51 0 0 1 .25-3.09 15.21 15.21 0 0 1 .81-2.88 16 16 0 0 1 1.39-2.72 18.84 18.84 0 0 1 2-2.59A14.38 14.38 0 0 1 45.16 62a17.26 17.26 0 0 1 3.33-1 22.84 22.84 0 0 1 3.87-.36 27.12 27.12 0 0 1 5.23.41 18.09 18.09 0 0 1 4.24 1.31 13.54 13.54 0 0 1 5.06 4l28.86-13.29c-.57-.89-1.17-1.76-1.8-2.58a34.16 34.16 0 0 0-6.78-6.62 54.73 54.73 0 0 0-7.76-4.77c-.61-.31-1.24-.6-1.86-.89L2.43 72.71c0 .8-.07 1.61-.06 2.42 0 1.34.08 2.68.19 4s.27 2.6.47 3.85.45 2.51.75 3.73.65 2.42 1 3.6.83 2.36 1.3 3.58l.13.32 29.62-13.63c-.11-.58-.22-1.16-.28-1.72z" fill="#333391" opacity=".9"/><path d="M38.51 89.1q-.62-1.75-1-3c-.24-.75-.44-1.51-.61-2.24s-.3-1.45-.4-2.15v-.31L6 92.82a107.462 107.462 0 0 0 2.8 7.79l.09.24c.11.26-2 .34-4.6.18-2.19-.14-4.2 2.23-5 5.54l40.12-15c-.32-.88-.63-1.72-.9-2.47zM67.62 66.85a23.7 23.7 0 0 1 1.28 3 31.16 31.16 0 0 1 1 3.46c.16.72.3 1.47.43 2.24l30.05-11.41c-.33-1.26-.69-2.49-1.11-3.67a40.82 40.82 0 0 0-2.76-6.15L66.83 65.59a14.39 14.39 0 0 1 .79 1.26z" fill="#932b8d" opacity=".9"/><path d="M71.69 79.26l.37 1.36c.34 1.64.71 3.48.82 4.09s4.68.73 10.12.29l11.32-1c5.48-.46 9.9-1.41 9.81-2.12s-.73-5-1.43-9.58l-1-3.63a56.38 56.38 0 0 0-2.3-6.58L71.2 77.61c.17.54.33 1.08.49 1.65zM63.59 102.87l-8.94-.26c-5.5-.16-10.65-1.81-11.46-3.67l-.65-1.52q-1.23-2.89-2.2-5.22l-.66-1.61-39.6 16.27A12.81 12.81 0 0 0-.17 109c-.13 4.38 3.85 8.08 8.85 8.23s9.17.53 9.28.86l.1.29q.4 1.17.72 2.21c.14.44.26.85.38 1.25L65 103a12.4 12.4 0 0 0-1.41-.13z" fill="#e91388" opacity=".9"/><path d="M50.29 119.37c-.12-.63 1.62-1.36 4.33-1.94l18-10.13c-.46-3.91-4.46-6.8-9.26-6.89L20.19 124.7l.28.65c.24.56.45 1.08.64 1.57.33.84.62 1.67.88 2.46s.48 1.56.68 2.31.35 1.46.47 2.15c.07.4.13.8.18 1.19l27.06-15.22z" fill="#ea245f" opacity=".9"/><path d="M60.35 118.32l3.55-.38c5.47-.58 9.56-4.63 9.1-9v-.15l-17.91 10.37a46.76 46.76 0 0 1 5.26-.84zM44 147.7a35.78 35.78 0 0 0 3.11-4.11 32.36 32.36 0 0 0 2.39-4.41 31.35 31.35 0 0 0 1.65-4.68 32.45 32.45 0 0 0 .9-4.93c0-.44.09-.88.12-1.33s.07-.88.09-1.33 0-.89.06-1.33v-.45-2.26l-29.52 9.61c0 .28 0 .55-.07.81a15.81 15.81 0 0 1-.77 3.46 19.34 19.34 0 0 1-1.62 3.5 26.31 26.31 0 0 1-2.53 3.56 37.51 37.51 0 0 1-3.48 3.61c-1.35 1.23-2.69 2.38-4 3.43s-2.58 2-3.84 2.84S4 155.32 2.84 156l-1.18.65c-1.28.57-2.84 1.25-3.48 1.52-.39.16-.08 1.87.71 4.33l45-14.64z" fill="#eb2d2e" opacity=".9"/><path d="M55.3 154.82q-.9-.18-1.81-.32a46.34 46.34 0 0 0-4.85-.47c-1 0-2-.05-3.06 0s-2.06.08-3.11.16-2.08.2-3.11.35l-.42.05c-.53.08-.5-.24.08-.7l.49-.4c1.38-1.15 2.61-2.22 3.66-3.18s1.89-1.81 2.62-2.6L.71 162a62.22 62.22 0 0 0 2 5.38l1.85 4.47 52.4-16.71c-.56-.14-1.11-.22-1.66-.32z" fill="#f19432" opacity=".9"/><path d="M95.7 148.9l-3 1.69-.7.41q-1.17.64-2.24 1.19c-.7.36-1.37.69-2 1s-1.21.56-1.77.79c-1 .4-1.89.76-2.76 1.05s-1.71.54-2.52.74a22.28 22.28 0 0 1-2.28.44 15.19 15.19 0 0 1-2.57.14h-.67l-.71-.06-.83-.09c-.25 0-.51-.07-.8-.13l-.93-.2-1.06-.28-.38-.11-2.89-.88c-1.12-.34-2.63-.77-3.35-1l-.63-.15-1.93-.45-1.83-.38-1.79-.32q-.9-.15-1.8-.25h-.14L6 174.81l1 1.8c2.69 4.8 5.36 8.51 5.94 8.24l3.88-1.79 1.24-.57 3.41-1.49 2.66-1.15c.75-.32 1.4-.58 1.85-.76.78-.27 1.56-.52 2.32-.72s1.49-.38 2.22-.51 1.42-.24 2.11-.31a27.28 27.28 0 0 1 3.92-.08c.63 0 1.27.07 1.9.12s1.25.13 1.87.21l.62.09c.61.1 1.45.28 1.88.38l.43.11 1.37.38 1.54.45.54.16.24.07 52.76-24c-1.7-4.06-3.39-6.89-4-6.54z" fill="#fde92b" opacity=".9"/><path d="M103.44 165.91l-2.65-7.6q-.38-1.08-.76-2.07l-53.35 22.63 3.67 1.27 4.6 1.58.89.28 2.62.81q1.29.39 2.52.73l1 .28 41.51-17.61z" fill="#91be4a" opacity=".9"/><path d="M90.87 182.48c1.49-.5 2.93-1 4.27-1.52s2.61-1 3.8-1.56 2.31-1.07 3.34-1.62l1-.55c1-.62 2.23-1.37 2.68-1.67s-.64-4.61-2.43-9.66l-41.34 17.92 1.39.36q1.23.31 2.44.54c.81.16 1.62.29 2.41.39s1.6.19 2.37.25 1.57.09 2.33.1c1.41 0 2.87 0 4.32-.15s2.92-.3 4.4-.55 3-.57 4.47-.94 3.03-.82 4.55-1.34z" fill="#009e54" opacity=".9"/></svg>