<svg xmlns="http://www.w3.org/2000/svg" width="111.67" height="200" viewBox="0 0 111.67 200"><title>_</title><path d="M21.79 37L3 37.37c-5.5.1-7.89 4.16-5.31 9l1.8 3.38 26.08-12.2a13.08 13.08 0 0 0-3.78-.55z" fill="#00a8de" opacity=".9"/><path d="M26.47 38.5L-.7 48.16l4 9.75 32-11.39a17.09 17.09 0 0 0-8.83-8.02z" fill="#0070b4" opacity=".9"/><path d="M36.21 46.72a11.81 11.81 0 0 0-.63-1.31l-31.4 13L11.59 74a13.61 13.61 0 0 1 1.2 3.7L43.47 65zM89.77 37.24c-5.49-.3-11.91 3.52-14.26 8.49l-2.08 4.41 31.65-12.06z" fill="#333391" opacity=".9"/><path d="M43.56 64.47L13.2 78c.56 3.08-.56 5.24-3.12 5.24-3.49 0-6.35 4.09-6.36 9.09a8.22 8.22 0 0 0 .12 1.35L47.7 74.16zM73.85 52.61l-4.37 14.57L112.18 43c1.11-4.57-1.75-7.78-6.82-7.3l-2 .19z" fill="#932b8d" opacity=".9"/><path d="M60.52 84.72c-1.77 5.21-5.23 5.44-7.69.52l-5.21-10.47L5 96.81c1 4.31 5.33 7.44 10.31 7.15l1.64-.1a17.84 17.84 0 0 1 12 4.29l69.69-36 .1-.27 11.88-28.73A10.08 10.08 0 0 0 111 42L67.41 64.53z" fill="#e91388" opacity=".9"/><path d="M30 110.84c2.48 4.39 0 8.2-5.48 8.47l-5.78.28c-5.34.26-9.54 4.34-9.55 9.16l93.24-47a4.59 4.59 0 0 0-2.55-.66c-3.36.16-4.42-3.7-2.41-8.64l-70 35.33a12.22 12.22 0 0 1 2.53 3.06z" fill="#ea245f" opacity=".9"/><path d="M7.31 125.16c-.17 5 4.18 9.24 9.68 9.43L28 135a9.93 9.93 0 0 1 5.52 1.91l48.88-19.79c-1.76-1.55-2.16-4-.71-6.7 2.37-4.43 8.8-7.89 14.3-7.7h1.3c5.48.28 10.12-3.72 10.29-8.72.13-3.69-1.3-6.94-3.43-8.43l-96.8 39.18c-.02.14-.04.25-.04.41z" fill="#eb2d2e" opacity=".9"/><path d="M39.64 147.39l.06 1.28 59.8-30.34a10.54 10.54 0 0 0-6.59-1.86l-6 .3a7.83 7.83 0 0 1-5.1-1.27l-47 23.83a10 10 0 0 1 4.83 8.06z" fill="#f19432" opacity=".9"/><path d="M41 172.77l32.25-17.5-.74-9.39a10 10 0 0 1 9.19-10.75l11.22-.88c5.48-.43 9.65-4.86 9.26-9.85a8.76 8.76 0 0 0-4-6.6l-58.93 32z" fill="#fde92b" opacity=".9"/><path d="M39.22 173.11a10 10 0 0 0 4.65 7.75l28.43-15.1-.8-11.5-32.4 17.21z" fill="#91be4a" opacity=".9"/><path d="M48.57 181.57l13.5.59a10 10 0 0 0 10.43-9.55l.22-5-30 11.8a9.92 9.92 0 0 0 5.85 2.16z" fill="#009e54" opacity=".9"/></svg>