<svg xmlns="http://www.w3.org/2000/svg" width="72.45" height="200" viewBox="0 0 72.45 200"><title>_</title><path d="M50.72 30.41a10 10 0 0 0-9.26 4.48l12.32-4.2z" fill="#00a8de" opacity=".9"/><path d="M53.84 30.42l-12.23 4.46a9.92 9.92 0 0 0-1.18 2.68L59 30.78z" fill="#0070b4" opacity=".9"/><path d="M60.51 29.61l-2.21.16-17.46 9.31a9.93 9.93 0 0 0-.06 2v.45l.22 2.26 24.65-13.14a9.9 9.9 0 0 0-5.14-1.04z" fill="#333391" opacity=".9"/><path d="M66 31.52L40.5 42.93v2.31L67.94 33A10.1 10.1 0 0 0 66 31.52z" fill="#932b8d" opacity=".9"/><path d="M68 33.13L40.45 45.05v3.06a9.92 9.92 0 0 0 .11 1.5l29.8-12.87A10.06 10.06 0 0 0 68 33.13z" fill="#e91388" opacity=".9"/><path d="M70.29 36.54L40.63 49.83a9.9 9.9 0 0 0 .55 2.07l29.66-13.3a9.9 9.9 0 0 0-.55-2.06z" fill="#ea245f" opacity=".9"/><path d="M71.08 41.14v-.76a9.93 9.93 0 0 0-.1-1.5L41.09 51.62a10.05 10.05 0 0 0 2.3 3.61L71 43.45z" fill="#eb2d2e" opacity=".9"/><path d="M70.64 42.57L43.79 56.08a10.1 10.1 0 0 0 2 1.37l25-12.57z" fill="#f19432" opacity=".9"/><path d="M71.11 45.8L45.34 56.62a9.9 9.9 0 0 0 5 1.5h2.21l18.25-7.66a9.93 9.93 0 0 0 .24-1.94v-.41z" fill="#fde92b" opacity=".9"/><path d="M58 58.4l11.73-5.65a9.92 9.92 0 0 0 .93-2.75l-17.83 8.55z" fill="#91be4a" opacity=".9"/><path d="M60.7 57.95a10 10 0 0 0 9.35-4.27L57.64 57.6z" fill="#009e54" opacity=".9"/><path d="M11.62 30.36A10 10 0 0 0 2.44 35l12.25-4.4z" fill="#00a8de" opacity=".9"/><path d="M14.33 30L2.68 35.79a9.92 9.92 0 0 0-.87 2.8l17.71-8.84z" fill="#0070b4" opacity=".9"/><path d="M21.28 29.45l-2.2.21-17.24 9.71a9.93 9.93 0 0 0 0 2v.45l.22 2.3 24.39-13.76a9.9 9.9 0 0 0-5.17-.91z" fill="#333391" opacity=".9"/><path d="M26.64 31l-25 12.54.11 2.31 26.87-13.48A10.1 10.1 0 0 0 26.64 31z" fill="#932b8d" opacity=".9"/><path d="M29.69 34.35L1.11 43.64l-.24 2.3-.08.75a9.92 9.92 0 0 0 0 1.51l30.91-10a10.06 10.06 0 0 0-2.01-3.85z" fill="#e91388" opacity=".9"/><path d="M31.54 37.16l-30.19 12a9.9 9.9 0 0 0 .46 2.09l30.19-12a9.9 9.9 0 0 0-.46-2.09z" fill="#ea245f" opacity=".9"/><path d="M32.23 41.73v-.75a9.93 9.93 0 0 0 0-1.51L1.86 51A10.05 10.05 0 0 0 4 54.73L32.11 44z" fill="#eb2d2e" opacity=".9"/><path d="M32.52 44.58L4 54.07a10.1 10.1 0 0 0 1.76 1.64l26.53-8.83z" fill="#f19432" opacity=".9"/><path d="M31.27 44.37L6.89 58.05a9.9 9.9 0 0 0 5.16.92l2.2-.2 17.26-9.69a9.93 9.93 0 0 0 0-2v-.45z" fill="#fde92b" opacity=".9"/><path d="M18.45 57.88l12.37-4.07a9.92 9.92 0 0 0 1.26-2.64l-18.8 6.18z" fill="#91be4a" opacity=".9"/><path d="M21.77 58.11a10 10 0 0 0 9.11-4.77l-12.19 4.59z" fill="#009e54" opacity=".9"/></svg>