<svg xmlns="http://www.w3.org/2000/svg" width="60.49" height="200" viewBox="0 0 60.49 200"><title>_</title><path d="M25.34 26.45c-4.88-.37-11.12 2.16-14.77 5.82l16-5.72z" fill="#00a8de" opacity=".9"/><path d="M26.43 26l-15.64 6.76a13.62 13.62 0 0 0-1.14 1.47l-1 1.45L31 26.08z" fill="#0070b4" opacity=".9"/><path fill="#333391" opacity=".9" d="M35.51 25.97l-4.56-.01-22.2 9.84-3.66 5.68 34.98-15.51h-4.56z"/><path d="M4.91 40.91L3 43.69l41.82-17.05c-.29 0-.6-.05-.92-.06l-3.56-.11z" fill="#932b8d" opacity=".9"/><path d="M-.86 49L49 29.25c-.32-1.25-1.68-2.14-4-2.4L3 43.47z" fill="#e91388" opacity=".9"/><path d="M-1.18 52.33a10.43 10.43 0 0 0-.58 1.11l49.92-23.7a3.07 3.07 0 0 0 .18-2.14l-48.48 23z" fill="#ea245f" opacity=".9"/><path d="M-3.51 55.19l46.15-16.56 4.59-3.89a8.72 8.72 0 0 0 2.11-2.46L-2.68 51a5.59 5.59 0 0 0-.83 4.19z" fill="#eb2d2e" opacity=".9"/><path d="M-1.95 57.83L38.7 41.62l3.92-3.56-45.55 18.16a3.82 3.82 0 0 0 .98 1.61z" fill="#f19432" opacity=".9"/><path d="M3.46 60.64h1.16l26.19-12.75 7.29-7.67-39.36 19.12a6.82 6.82 0 0 0 4.72 1.3z" fill="#fde92b" opacity=".9"/><path fill="#91be4a" opacity=".9" d="M8.56 59.69h.01l18.64-7.19 3.96-3.52L4.01 59.46l4.55.23z"/><path d="M25.94 53l1.12-1.13-18.15 8.39c5.5-.07 13.16-3.33 17.03-7.26z" fill="#009e54" opacity=".9"/></svg>