<svg xmlns="http://www.w3.org/2000/svg" width="54.64" height="200" viewBox="0 0 54.64 200"><title>_</title><path d="M31.06 149.5c-4.39.17-11.85 2.59-16.6 5.38l-6.13 3.6a7.33 7.33 0 0 0-3.75 4.9l28-13.82a9.13 9.13 0 0 0-1.52-.06z" fill="#00a8de" opacity=".9"/><path d="M33.32 150.87l-29.24 11a6 6 0 0 0 .08 3.54l32.26-12.17a3.84 3.84 0 0 0-3.1-2.37z" fill="#0070b4" opacity=".9"/><path d="M34.87 154.78a3.94 3.94 0 0 0 .48-3.57L5 167.51a8.39 8.39 0 0 0 2.47 3L9 171.73l.9.7 21.73-11.66c.2-.51 1.54-3 3.24-5.99z" fill="#333391" opacity=".9"/><path d="M37 160.64a29.52 29.52 0 0 0-5 .21l-.83.13h-.13v-.1L9.6 173c1.05.78 2.06 1.51 3 2.15l25.63-14.4c-.41-.05-.8-.09-1.23-.11z" fill="#932b8d" opacity=".9"/><path d="M45.21 165.48a19.62 19.62 0 0 0-3.21-1.69 23.28 23.28 0 0 0-2.49-.83l-27.84 9.47c2.22 2.26 3.89 3.77 4.15 3.71l1.5-.33.38-.08 1.1-.21 1-.18 1-.14.86-.09h1.63c.38 0 .75 0 1.1.09l23.15-7.87a17.54 17.54 0 0 0-2.33-1.85zM6.87 182.21c-.34-.08-1 .85-1.82 2.35l3.72-1.89z" fill="#e91388" opacity=".9"/><path d="M47.66 165.93c-.17-.13-.35-.25-.52-.38l-22.22 10.2c.33 0 .65 0 .95.06a9.11 9.11 0 0 1 1.2.23 9.36 9.36 0 0 1 1.18.39l.35.14a.67.67 0 0 1 .16 1l21-9.65a14.85 14.85 0 0 0-2.1-1.99zM12.65 183.91l-2.1-.62-.77-.23-1-.29L5 184.43a37.7 37.7 0 0 0-2 3.85c-.12.28-.24.55-.36.82l11.14-4.85z" fill="#ea245f" opacity=".9"/><path d="M51.78 171.29a14.74 14.74 0 0 0-1.78-3.06c-.12-.16-.27-.3-.39-.45l-21 9.75v.41a1.5 1.5 0 0 0 1.52 1.48h.24c.23-.09.47.18.53.59v.43a3.37 3.37 0 0 1-.08.77 4 4 0 0 1-.28.81 5.62 5.62 0 0 1-.53.9 8.45 8.45 0 0 1-.84 1 4.37 4.37 0 0 1-.93.7 7 7 0 0 1-1.38.59 12 12 0 0 1-1.89.42 17.68 17.68 0 0 1-3.77.13q-.77-.05-1.63-.17t-1.89-.31c-.68-.13-1.39-.28-2.17-.46l-1.19-.28-.5-.13-11 5.13c-1.26 3.2-1.78 5.86-1.14 6.09l2.23.77 48.72-22.66a16.55 16.55 0 0 0-.85-2.45z" fill="#eb2d2e" opacity=".9"/><path d="M53.6 176.74c0-.36-.12-.71-.18-1.06L3.08 194.46l.92.41.85.36 2.4 1 .28.12 46.18-17.23a20.44 20.44 0 0 0-.11-2.38z" fill="#f19432" opacity=".9"/><path d="M7.72 196.17l1.81.74 1.81.7c1.19.43 2.35.82 3.44 1.15s2 .57 3 .81l34.87-12.92c.17-.45.33-.9.47-1.37a21.69 21.69 0 0 0 .83-4.77v-1.48z" fill="#fde92b" opacity=".9"/><path d="M19.44 201.87c1.08.09 2.12.14 3.09.14s2 0 2.85-.11l.7-.08 23.83-13.21a18.12 18.12 0 0 0 .82-1.72 18.35 18.35 0 0 0 .94-3.08l-32.52 18z" fill="#91be4a" opacity=".9"/><path d="M30.9 201.21a37.33 37.33 0 0 0 5.23-1.47 31 31 0 0 0 4.69-2.15 27.68 27.68 0 0 0 4.11-2.85 21.89 21.89 0 0 0 3.35-3.5 18.9 18.9 0 0 0 1.5-2.32l-23.94 13a46.56 46.56 0 0 0 5.06-.71z" fill="#009e54" opacity=".9"/></svg>