<svg xmlns="http://www.w3.org/2000/svg" width="105.78" height="200" viewBox="0 0 105.78 200"><title>_</title><path d="M47.25 74.51c-5.47.62-9.88 1.68-9.81 2.35s.22 2.32.34 3.64l.06 1.07c.06 1.06.09 2.06.09 3v.4l19.76-11.64z" fill="#00a8de" opacity=".9"/><path d="M70 77.78c.1-.71-4.29-1.77-9.75-2.36l-.92-.1-21.82 7a44 44 0 0 1-.52 2A15.16 15.16 0 0 1 35 88.37a17.06 17.06 0 0 1-1.67 2.14c-.4.44-.85.86-1.31 1.28l37.64-12.07c.14-.93.25-1.64.34-1.94z" fill="#0070b4" opacity=".9"/><path d="M67.73 90.16c.21-1.93.38-4.09.5-6.42l.11-2.33c0-1.67.05-3.34.07-4.6l-35.6 17.11c-.23.27-.45.54-.69.8l-.68.73c-.88.77-3.13 2.65-5 4.18l-6.75 5.57-1.45 1.29c-1.46 1.3-2.81 2.56-4 3.75s-2.29 2.36-3.21 3.43a33.53 33.53 0 0 0-2.42 3.16 34.12 34.12 0 0 0-2.8 5.09c-.24.55-.47 1.1-.68 1.67l62.11-29.87q.27-1.66.49-3.56z" fill="#333391" opacity=".9"/><path d="M64 105.22a21.23 21.23 0 0 0 2.14-3.68 29 29 0 0 0 1.42-4.12c.14-.53.28-1.11.42-1.69L4.15 121.62a36.33 36.33 0 0 0-1.5 3.81 40.44 40.44 0 0 0-1.31 5.28L64 105.32z" fill="#932b8d" opacity=".9"/><path d="M4.63 150.93l32.94-19.05v-.14a14 14 0 0 1 .36-1.53 16.29 16.29 0 0 1 .89-2.4 20.2 20.2 0 0 1 1.35-2.44 25.84 25.84 0 0 1 1.83-2.49l.69-.83c.9-.92 3.09-3.09 4.88-4.82s4.64-4.54 6.35-6.26l1.3-1.47a55.47 55.47 0 0 0 3.48-4.33 34.35 34.35 0 0 0 2.5-4L2.72 135v.67a48.84 48.84 0 0 0 .27 6.44 52 52 0 0 0 1.64 8.82z" fill="#e91388" opacity=".9"/><path d="M2.49 149.37a40.85 40.85 0 0 0 1.85 6l32.1-15.11a24.14 24.14 0 0 1-.27-3.09v-1.93c0-.62.1-1.2.19-1.77s.19-1 .31-1.48l-34.4 16.23c.07.38.14.78.22 1.15z" fill="#ea245f" opacity=".9"/><path d="M5.76 159.87a35.61 35.61 0 0 0 5.63 7.13c.65.64 1.34 1.25 2.05 1.85l31.48-18a14.49 14.49 0 0 1-2-.82 14.2 14.2 0 0 1-2.6-1.71 14.48 14.48 0 0 1-2.18-2.23 15 15 0 0 1-1.67-2.68 17.85 17.85 0 0 1-1.19-3.2c-.06-.23-.1-.47-.16-.71L4.3 157.13c.45.94.93 1.87 1.46 2.74zM82.72 131.33c-5.47-.55-10-.45-10.08.24s-.24 2.14-.38 3.24l-.21 1a25.37 25.37 0 0 1-.77 2.81c-.18.54-.39 1.08-.61 1.61l23.43-7.71z" fill="#eb2d2e" opacity=".9"/><path d="M16.21 170.35c.43.35.88.68 1.33 1L106.05 136c.08-.78.14-1.32.16-1.53.06-.72-4.39-1.47-9.89-1.68l-1.89-.07-22.9 9.16c-.13.36-.25.73-.4 1.08a25.18 25.18 0 0 1-1.21 2.6 18.48 18.48 0 0 1-3 4 15.08 15.08 0 0 1-3.7 2.74 16.78 16.78 0 0 1-4.56 1.58 24.14 24.14 0 0 1-5.58.39 23.84 23.84 0 0 1-3.83-.44 17.75 17.75 0 0 1-3.28-1c-.3-.12-.58-.28-.87-.42l-33.66 13.45a39.09 39.09 0 0 0 4.77 4.49z" fill="#f19432" opacity=".9"/><path d="M25.34 177.36a57.74 57.74 0 0 0 9.17 3.35q1.15.31 2.33.59l65.95-30.46c.39-1.47.74-3 1-4.55l.72-3.94c.22-3.52.43-6.88.53-8.79l-86.54 40a52.7 52.7 0 0 0 6.84 3.8z" fill="#fde92b" opacity=".9"/><path d="M43.38 180.81c1.89.37 3.84.66 5.84.9L99.32 163c.67-1.07 1.31-2.18 1.9-3.35a50.84 50.84 0 0 0 2.56-6.18l-68.05 25.41a70.14 70.14 0 0 0 7.65 1.93z" fill="#91be4a" opacity=".9"/><path d="M54.42 181.41a60.93 60.93 0 0 0 8.82.12 58 58 0 0 0 17-3.64 64 64 0 0 0 8.14-3.74 30.87 30.87 0 0 0 7.62-5.87 35.8 35.8 0 0 0 3.89-5l-50.56 17.55c1.67.24 3.36.44 5.09.58z" fill="#009e54" opacity=".9"/><path d="M45.47 32.58a10 10 0 0 0-8.83 6.25l12.91-6.43z" fill="#00a8de" opacity=".9"/><path d="M49.83 32.81l-13.36 5.44a9.88 9.88 0 0 0-1 3.11L56 33z" fill="#0070b4" opacity=".9"/><path d="M60.09 33.08l-3.9-.16-20.6 8.17c0 .32-.08.65-.09 1l-.07 1.79-.11 2.76 29.9-11.86a9.9 9.9 0 0 0-5.13-1.7z" fill="#333391" opacity=".9"/><path d="M64.62 33.57L35.84 47.93l.16 2.76 30.88-15.42a10.1 10.1 0 0 0-2.26-1.7z" fill="#932b8d" opacity=".9"/><path d="M66.3 34.77L36 51.4l.23 2.75.23 2.75L69 39a10 10 0 0 0-2.7-4.23z" fill="#e91388" opacity=".9"/><path d="M69.19 41.28a9.91 9.91 0 0 0-.46-2.28L36.18 56.93v.38a9.91 9.91 0 0 0 .46 2.23l32.58-17.88z" fill="#ea245f" opacity=".9"/><path d="M69.13 44.4l-.23-2.75-32.51 18a10 10 0 0 0 2.74 4.25l30.25-16.7z" fill="#eb2d2e" opacity=".9"/><path d="M70.27 49.62l-32.4 12a10.1 10.1 0 0 0 2.06 1.93L70.1 52.37z" fill="#f19432" opacity=".9"/><path d="M69.77 57.12c0-.32.06-.65.07-1v-4.56L40.32 64.21a9.9 9.9 0 0 0 5.17 1.55l3.91.06z" fill="#fde92b" opacity=".9"/><path d="M56.1 66.22l12.64-6.95a9.88 9.88 0 0 0 .59-3.21L49.92 66.74z" fill="#91be4a" opacity=".9"/><path d="M60.11 66.15a10 10 0 0 0 8.44-6.78L56 66.57z" fill="#009e54" opacity=".9"/></svg>