<svg xmlns="http://www.w3.org/2000/svg" width="133.22" height="200" viewBox="0 0 133.22 200"><title>_</title><path d="M76.45 30.55L59 32.48a15.24 15.24 0 0 0-12.25 10.83l-2.19 9.24L83.16 30c-1.81.07-4.16.26-6.71.55z" fill="#00a8de" opacity=".9"/><path d="M87.64 32.46c-.07-.2-1.43-.36-3.5-.46l-40.7 18.55L38.41 65 90.8 41.16z" fill="#0070b4" opacity=".9"/><path d="M98.47 63.8l-6.15-19.88-.43-1.39L38.4 63.81 26.93 92.26z" fill="#333391" opacity=".9"/><path d="M63.59 90l1.69-5c1.78-5.21 4.56-5.17 6.19.09l.4 1.29 30.26-13.11-3.61-10.52-70.65 30.6-5.3 14.39z" fill="#932b8d" opacity=".9"/><path fill="#e91388" opacity=".9" d="M71.61 87.92l8.62 20.6 29.45-16.27-9.2-20.28-28.87 15.95zM55.9 119.27a7.78 7.78 0 0 1 .5-5.42l9.42-21.27-42.43 14.1-13.09 27.74z"/><path d="M78.75 108.32l1.64 4.4c1.19 3.21.51 6.13-1.51 7.94L113 103.59l-4.18-10.32zM75.59 123.26a9.53 9.53 0 0 1-1.73.07l-10-.55c-3.37-.18-5.73-1.93-6.6-4.42l-44.9 17.11-5.91 14.14z" fill="#ea245f" opacity=".9"/><path d="M39.32 159.85A14.79 14.79 0 0 1 52.91 151l8.8.44 59.59-23.07-6.38-21.37-35.6 13.82a7.3 7.3 0 0 1-3.42 1.33l-69 26.72-8.14 19.66c-1.14 2.75-.84 5.29.54 7.09l39.9-15.45z" fill="#eb2d2e" opacity=".9"/><path d="M34.14 175.51a12.87 12.87 0 0 0 2.62-4.76l2.94-10.41-38.3 19.07a7.3 7.3 0 0 0 5.85 2.12l16.21-.7zM84.18 152.41a12.49 12.49 0 0 1 4.68.44l34.93-20.33-4.83-10-55.23 32.11z" fill="#f19432" opacity=".9"/><path d="M95.53 160.29l2.92 10.6 33.11-13.11-6.56-21.29-37.56 14.88a14.66 14.66 0 0 1 8.09 8.92zM23.68 181a14.7 14.7 0 0 0 10.21-5l-10.81 5.07h.6z" fill="#fde92b" opacity=".9"/><path d="M99.46 172.66a14.61 14.61 0 0 0 8.68 7.86l27.18-14.42-4.43-10.22-31.46 16.7z" fill="#91be4a" opacity=".9"/><path d="M112.22 180.88l18 .11c5.5 0 8.52-4.19 6.72-9.39l-1.45-4.17-28.18 12.35a12.63 12.63 0 0 0 4.91 1.1z" fill="#009e54" opacity=".9"/><path d="M67.39-9.71c-.19-.24-4.82 0-10.29.51l-4.31.41L37 .14l5.43 4.46L67.52-9.54z" fill="#333391" opacity=".9"/><path d="M68.61-7.16L41.5 2.57l2.32 2.66 26.37-9.46z" fill="#932b8d" opacity=".9"/><path d="M70.4-4.59L44.14 5.19l4.71 5.26 24.79-9.23z" fill="#e91388" opacity=".9"/><path d="M74.18 1.56L74 1.24 49 10l2.3 2.68 24.27-8.5z" fill="#ea245f" opacity=".9"/><path d="M75.32 3.13L51.85 13.51l5 4.92.06.05 22-9.75z" fill="#eb2d2e" opacity=".9"/><path d="M78.64 8.29L57 19a19.5 19.5 0 0 0 3 2.18L80.55 11z" fill="#f19432" opacity=".9"/><path d="M84.26 17.08l-3.56-5.57-20.9 9.28a31 31 0 0 0 8 3.66l16.53-7.34z" fill="#fde92b" opacity=".9"/><path d="M84.58 17.69l-17 6.07a22.81 22.81 0 0 0 5.72 1.45l12.33-4.39a8.34 8.34 0 0 0-1.05-3.13z" fill="#91be4a" opacity=".9"/><path d="M85.35 19.76l-11.58 6.1h.37l5.71-.38c4.15-.29 6.23-2.65 5.5-5.72z" fill="#009e54" opacity=".9"/></svg>