<svg xmlns="http://www.w3.org/2000/svg" width="141.78" height="200" viewBox="0 0 141.78 200"><title>_</title><path d="M79.34 31.92L61.78 32a15.24 15.24 0 0 0-13.31 9.49l-3.14 9 40.75-18.44c-1.82-.05-4.18-.14-6.74-.13z" fill="#00a8de" opacity=".9"/><path d="M90.71 34.39c-.05-.2-1.39-.47-3.45-.75L45.19 48.82 39 62.86l54.16-19.55z" fill="#0070b4" opacity=".9"/><path d="M100.47 65.61l-5.13-20.17L95 44 40.47 62.55l-12.9 27.83z" fill="#333391" opacity=".9"/><path d="M65.76 89.88l1.35-5.07c1.41-5.32 4.19-5.47 6.18-.34l.49 1.26 29.28-15.17-4.33-10.26-68.37 35.42-4.3 14.73z" fill="#932b8d" opacity=".9"/><path fill="#e91388" opacity=".9" d="M73.47 87.8l8.5 20.65 29.55-16.08-9.08-20.34L73.47 87.8zM58.45 116.3a7.78 7.78 0 0 1-.38-5.43l5.84-22.51-39.58 20.79-8.42 29.5z"/><path d="M78 125.15a9.53 9.53 0 0 1-1.73 0L66.35 124c-3.35-.37-5.62-2.24-6.35-4.78L14.23 133.9l-6.7 13.8zM80.55 107.39l1.39 4.49c1 3.27.17 6.15-1.94 7.85l35-15.19L111.41 94z" fill="#ea245f" opacity=".9"/><path d="M116.66 106.88l-35.55 13.88a7.3 7.3 0 0 1-3.42 1.34L8.77 149 .69 168.71c-1.13 2.75-.82 5.29.56 7.08l39.85-15.57.12-.32a14.79 14.79 0 0 1 13.56-8.9l8.81.41 59.52-23.25z" fill="#eb2d2e" opacity=".9"/><path d="M123.52 127.86l-60.47 20.66 20.48 1.84a12.49 12.49 0 0 1 4.5 1.35l38.24-13.07zM8.95 181.33l16.21-.46 10.77-5.16a12.87 12.87 0 0 0 2.68-4.71l3.1-10.37-38.58 18.5a7.3 7.3 0 0 0 5.82 2.2z" fill="#f19432" opacity=".9"/><path d="M25.27 180.47A14.7 14.7 0 0 0 36 176.62l-11.32 3.79zM127.72 137.3l-38.28 12.95a14.66 14.66 0 0 1 7.62 9.32l2.37 10.73 33.74-11.41z" fill="#fde92b" opacity=".9"/><path d="M132.64 155.78l-31.33 16.94v.08a14.61 14.61 0 0 0 8.74 7.8l27.1-14.6z" fill="#91be4a" opacity=".9"/><path d="M138.94 172.9l-1.07-4.29-29.16 9.81a12.63 12.63 0 0 0 4.82 1.54l17.9 1.69c5.46.52 8.85-3.42 7.51-8.75z" fill="#009e54" opacity=".9"/><path d="M83-8.14L66.9-2.59a13.62 13.62 0 0 0-1.25 1.39L64.59.17l23-7.91z" fill="#0070b4" opacity=".9"/><path fill="#333391" opacity=".9" d="M91.88-8.46l-4.56-.09L64.94.87l-3.77 5.61L96.44-8.36l-4.56-.1z"/><path d="M99.42-9.59l-3.56.16-34.23 17.1-1.7 2.92L100.34-9.6c-.34-.01-.6-.01-.92.01z" fill="#932b8d" opacity=".9"/><path d="M100.37-9.34L59.71 10.35l-3.47 5.8 48.3-23.39c-.41-1.22-1.83-2.01-4.17-2.1z" fill="#e91388" opacity=".9"/><path d="M106-3.68L55 12.78l-1.3 1.56a10.43 10.43 0 0 0-.72 1l52.6-16.94a3.07 3.07 0 0 0 .42-2.08z" fill="#ea245f" opacity=".9"/><path d="M102-3.11a8.72 8.72 0 0 0 1.76-2.72L54.74 19.62a5.59 5.59 0 0 0-.26 4.31L98 1.36z" fill="#eb2d2e" opacity=".9"/><path d="M98.94 3.65L53.2 21.3a3.82 3.82 0 0 0 1 1.62L95 7.17z" fill="#f19432" opacity=".9"/><path d="M95 6.95L54.4 23.28a6.82 6.82 0 0 0 4.6 1.63h1.16l27-10.87z" fill="#fde92b" opacity=".9"/><path fill="#91be4a" opacity=".9" d="M64.6 24.7l18.9-6.52 4.07-3.38-27.51 9.5 4.53.4h.01z"/><path d="M82.25 18.58l1.15-1.1L65 25.34c5.52.08 13.27-2.96 17.25-6.76z" fill="#009e54" opacity=".9"/></svg>