<svg xmlns="http://www.w3.org/2000/svg" width="138.82" height="200" viewBox="0 0 138.82 200"><title>_</title><path d="M66-9c-5.5.22-12.63 4-15.85 8.5l-1.27 1.83L70.1-9.15z" fill="#00a8de" opacity=".9"/><path d="M74.2-7.74L70.83-8 48.55 0 44 5 77.64-7.07a16.42 16.42 0 0 0-3.44-.67z" fill="#0070b4" opacity=".9"/><path d="M78.23-6.76L44.38 4.76l-9.31 9.86 50.82-17.3a25.32 25.32 0 0 0-7.66-4.08z" fill="#333391" opacity=".9"/><path d="M84.7-5.75L36.42 17.72l-.54.74a7.35 7.35 0 0 0-1.6 3.82l53.37-26a21.75 21.75 0 0 0-2.95-2.03z" fill="#932b8d" opacity=".9"/><path d="M90.28.16a15.58 15.58 0 0 0-1.73-2L33.46 20.28c-.3 2.43 1.63 4.16 5.39 4.3h.82L92.6 3.38z" fill="#e91388" opacity=".9"/><path d="M92.67 3.15L39.79 24.53l7.78.27 16.17-6.54L64 18a7.1 7.1 0 0 1 7.12-2.68l23.47-9.53z" fill="#ea245f" opacity=".9"/><path d="M48.31 25.32c5.35.11 12.28-2.91 15.65-6.77l-16.07 6.76h.42zM93.84 4.28L71.39 15.95a7.58 7.58 0 0 1 4.67 2.65 13.24 13.24 0 0 0 1.38 1.34L98.16 9.17z" fill="#eb2d2e" opacity=".9"/><path d="M98.6 10.48l-21.79 8.41a19 19 0 0 0 2.7 2.35l21-8.1z" fill="#f19432" opacity=".9"/><path d="M104.26 17.42l-4-5-20.41 9.46a24.73 24.73 0 0 0 8.07 3.24l16.41-7.6z" fill="#fde92b" opacity=".9"/><path d="M105.88 21a8.34 8.34 0 0 0-1.32-2.89l-16.93 6.4a17.22 17.22 0 0 0 3.57.63l3.23.19z" fill="#91be4a" opacity=".9"/><path d="M100.62 25.46c4.19-.3 6-2.51 5-5.35l-10.77 5.77z" fill="#009e54" opacity=".9"/><path d="M79 32.1L61.42 32A15.24 15.24 0 0 0 48 41.28l-3.28 8.92 41-17.87c-1.81-.12-4.17-.21-6.72-.23z" fill="#00a8de" opacity=".9"/><path d="M90.63 35.1c0-.2-1.38-.51-3.43-.85l-42.49 14-6.59 13.81 54.7-18z" fill="#0070b4" opacity=".9"/><path d="M99 58.94L90.14 40.1l-.62-1.31-50 28.49L32.07 97z" fill="#333391" opacity=".9"/><path d="M64.93 90l1.72-5c1.8-5.2 4.59-5.14 6.19.12l.39 1.29 30.33-13L100 62.92 29.2 93.18l-5.37 14.37z" fill="#932b8d" opacity=".9"/><path fill="#e91388" opacity=".9" d="M72.97 87.99l8.7 20.57 29.39-16.38-9.28-20.25-28.81 16.06zM57.7 117.72a7.78 7.78 0 0 1 0-5.44l7.55-22L24.23 108l-10.66 28.73z"/><path d="M80.21 109.13l1.85 4.32c1.35 3.15.8 6.1-1.12 8l33.27-18.7-4.67-10.11zM74.77 118a9.54 9.54 0 0 1-1.7.34l-9.93 1c-3.35.35-6-1-7.22-3.33L14.27 140l-3.65 14.9z" fill="#ea245f" opacity=".9"/><path d="M115.64 106l-35.33 14.47a7.3 7.3 0 0 1-3.4 1.39l-68.5 28-7.77 19.79c-1.09 2.77-.74 5.3.67 7.07l39.61-16.18.12-.32a14.79 14.79 0 0 1 13.42-9.09l8.81.27 59.15-24.17z" fill="#eb2d2e" opacity=".9"/><path d="M7.27 179.53l16.14 1.6 11.34-3.75A12.87 12.87 0 0 0 38 173l4.39-9.89-40.61 13.5a7.3 7.3 0 0 0 5.49 2.92zM121.2 123.94L64.27 153l20.53-1.08a12.49 12.49 0 0 1 4.65.7l36-18.36z" fill="#f19432" opacity=".9"/><path d="M25.28 181.44a14.7 14.7 0 0 0 9.72-5.92l-10.33 6zM126.42 136.53l-37.61 14.8a14.66 14.66 0 0 1 8.07 8.94l2.9 10.6 33.14-13z" fill="#fde92b" opacity=".9"/><path d="M132.94 156.67l-32.35 14.91v.08a14.61 14.61 0 0 0 8.23 8.34l27.94-12.88z" fill="#91be4a" opacity=".9"/><path d="M138.24 171.34l-1.52-4.15-28 12.85a12.63 12.63 0 0 0 5 1l18-.22c5.47-.04 8.42-4.32 6.52-9.48z" fill="#009e54" opacity=".9"/></svg>