<svg xmlns="http://www.w3.org/2000/svg" width="140.66" height="200" viewBox="0 0 140.66 200"><title>_</title><path d="M81.51 33.25L64 31.69a15.24 15.24 0 0 0-14.15 8.19l-4 8.63L88.21 34c-1.8-.25-4.14-.52-6.7-.75z" fill="#00a8de" opacity=".9"/><path d="M90.62 32.13c-.07-.19-1.43-.34-3.51-.41L46.68 50.85l-4.82 14.56 52-24.63z" fill="#0070b4" opacity=".9"/><path d="M101.48 62.22l-7-19.59-.48-1.37-52.54 23.66-10.17 28.94z" fill="#333391" opacity=".9"/><path d="M66.87 90l1.61-5c1.69-5.23 4.48-5.24 6.19 0l.42 1.28 30-13.59-3.78-10.47-70.1 31.68-5.07 14.48z" fill="#932b8d" opacity=".9"/><path fill="#e91388" opacity=".9" d="M75.24 85.63l6.07 21.49 31.19-12.59-6.68-21.24-30.58 12.34zM59.79 116.4a7.78 7.78 0 0 1-.35-5.43l6-22.48-39.72 20.57-8.58 29.45z"/><path d="M81.93 105.83l1 4.6c.71 3.35-.39 6.14-2.65 7.64l36.26-11.92-2.63-10.82zM78.51 122.4a9.54 9.54 0 0 1-1.73.11l-10-.3c-3.37-.1-5.78-1.78-6.71-4.26l-44.44 18.23L10 150.47z" fill="#ea245f" opacity=".9"/><path d="M43.8 161.19a14.79 14.79 0 0 1 13-9.72l8.81-.15 57.92-27-7.79-20.86-34.63 16.12a7.3 7.3 0 0 1-3.33 1.55L10.72 152.4l-6.81 20.16c-1 2.82-.48 5.33 1 7l38.79-18.04z" fill="#eb2d2e" opacity=".9"/><path d="M85.71 151.13a12.5 12.5 0 0 1 4.58 1l37.26-15.65-3.49-10.57-58.91 24.78zM37.48 175.09a12.87 12.87 0 0 0 2.52-4.83l2.62-10.5L4.87 180a7.3 7.3 0 0 0 5.91 1.94l16.22-1.2z" fill="#f19432" opacity=".9"/><path d="M99.42 161.57l3.89 10.28 31.75-16.14-8.5-20.58-36 18.31a14.66 14.66 0 0 1 8.86 8.13zM27 181.27a14.7 14.7 0 0 0 10-5.56l-10.55 5.6z" fill="#fde92b" opacity=".9"/><path d="M102.37 171.16a14.61 14.61 0 0 0 8 8.56l28.29-12.1-3.56-10.55-32.74 14z" fill="#91be4a" opacity=".9"/><path d="M115.74 181.32l18-.68c5.5-.21 8.33-4.56 6.31-9.67l-1.63-4.11-27.62 13.56a12.64 12.64 0 0 0 4.94.9z" fill="#009e54" opacity=".9"/><path d="M52.9-4.86a23.63 23.63 0 0 0-5.61 2A22 22 0 0 0 42.47.38a23.73 23.73 0 0 0-2.9 3.15l20.23-9a29.07 29.07 0 0 0-6.9.61z" fill="#00a8de" opacity=".9"/><path d="M64.72-5.32c-.47-.09-.95-.17-1.42-.24s-1-.12-1.44-.16-1-.06-1.44-.07h-.85l-19.9 9.72c-.34.47-.66.95-1 1.45a27.66 27.66 0 0 0-1.45 2.82L64.88-5.29z" fill="#0070b4" opacity=".9"/><path d="M68.28-4.72l-.37-.1-1.13-.28-1.22-.26-1.16-.2L37.2 8.82c-.07.18-.13.29-.2.44-.47 1.17-.91 2.47-1.31 3.85-.29 1-.55 2.08-.81 3.2L72.33-3.5z" fill="#333391" opacity=".9"/><path d="M74.73-.52l-1.26-.57-39.68 14.82c-.14.38-.28.76-.42 1.15l-.51 1.49-.22.74L77.08.52z" fill="#932b8d" opacity=".9"/><path d="M80.63-.62c-1-.27-3-.81-4.9-1.39l-42 22.09c-.27 1.68-.54 3.46-.65 4.18-.06.45 1 .78 2.79.94L83.55.13z" fill="#e91388" opacity=".9"/><path d="M50.59 18.45l.18-.31a9 9 0 0 1 .78-1.1 7.46 7.46 0 0 1 .83-.86 5.28 5.28 0 0 1 1.89-1 6.32 6.32 0 0 1 1.16-.23 10.49 10.49 0 0 1 2.07 0l.66.05.68.1.27.05L109.27-4a40 40 0 0 0-5.86-.72L92.5-.53c-.2.36-.4.7-.62 1a12.09 12.09 0 0 1-.79 1 2.82 2.82 0 0 1-.62.54 3.94 3.94 0 0 1-.93.42 6.53 6.53 0 0 1-1.34.26 11.18 11.18 0 0 1-2.39 0l-.55-.09-.48-.11h-.15L34.29 21.73a39 39 0 0 0 5.8.7h.1z" fill="#ea245f" opacity=".9"/><path d="M60.43 17.24l.67.09.68.12.71.16.25.06L67.29 19l.94.26L109.95-2c.25-1.74.49-3.53.57-4.23 0-.42-1-.74-2.65-.92L60 17.2zM50 23.08c.12-.53.34-1.45.49-2.06l.18-.51c.13-.37.27-.71.43-1L41 24.21c4.84-.1 8.88-.61 9-1.13z" fill="#eb2d2e" opacity=".9"/><path d="M70.92 18.65l38.84-14.82c.12-.33.25-.65.36-1l.55-1.62.2-.78-43.75 16.71z" fill="#f19432" opacity=".9"/><path d="M71 18l.51.21 1.52.61 1.56.59 1.55.55q1.4.51 2.65.91l.28.09 27.41-9.42a38.86 38.86 0 0 0 2-3.47c.59-1.16 1.13-2.39 1.64-3.64L70.88 17.92z" fill="#fde92b" opacity=".9"/><path d="M81.83 21.87c.75.16 1.48.3 2.15.39l.72.09 19.16-7.6a35 35 0 0 0 2.36-3.35c.14-.23.28-.49.42-.72L79.7 21.35c.75.2 1.47.38 2.13.52z" fill="#91be4a" opacity=".9"/><path d="M86.63 23.56a27.22 27.22 0 0 0 5.13-1 21.25 21.25 0 0 0 4.5-2A18.82 18.82 0 0 0 100 17.7a19.7 19.7 0 0 0 3-3.8c.11-.17.2-.36.3-.54L85.43 23.64c.42-.02.83-.04 1.2-.08z" fill="#009e54" opacity=".9"/></svg>