<svg xmlns="http://www.w3.org/2000/svg" width="134.93" height="200" viewBox="0 0 134.93 200"><title>_</title><path d="M82.45-4.37A10 10 0 0 0 73.37.46l12.16-4.67z" fill="#00a8de" opacity=".9"/><path d="M85.71-4.2L73.43.11a9.91 9.91 0 0 0-1.21 2.66l18.67-6.55z" fill="#0070b4" opacity=".9"/><path d="M93.35-3.8l-2.2-.2-18.74 6.38A9.93 9.93 0 0 0 72 4.3v.45l-.21 2.3L98.26-2a9.9 9.9 0 0 0-4.91-1.8z" fill="#333391" opacity=".9"/><path d="M97.54-3.65l-25 12.49.1 2.31L99.52-2.28a10.09 10.09 0 0 0-1.98-1.37z" fill="#932b8d" opacity=".9"/><path d="M99.86-1.54L72.28 10.39v3.06a9.91 9.91 0 0 0 .11 1.5l29.83-12.9a10.05 10.05 0 0 0-2.36-3.59z" fill="#e91388" opacity=".9"/><path d="M101.39.63L73 16.45a9.88 9.88 0 0 0 .73 2l28.39-15.81a9.88 9.88 0 0 0-.73-2.01z" fill="#ea245f" opacity=".9"/><path d="M103 6.75V6a9.92 9.92 0 0 0 0-1.51L72.83 16.68a10.05 10.05 0 0 0 2.23 3.66l27.87-11.28z" fill="#eb2d2e" opacity=".9"/><path d="M102.94 11.29L103 9 75.19 20.33a10.09 10.09 0 0 0 1.87 1.52z" fill="#f19432" opacity=".9"/><path d="M82.56 23.9l2.21-.08 17.77-8.72a9.93 9.93 0 0 0 .12-2v-.45l-.09-2.31L77.46 22.7a9.9 9.9 0 0 0 5.1 1.2z" fill="#fde92b" opacity=".9"/><path d="M89.74 23.64l11.87-5.34a9.92 9.92 0 0 0 1-2.76l-18 8.12z" fill="#91be4a" opacity=".9"/><path d="M93.08 23.89a10 10 0 0 0 8.25-6.13L90 24.19z" fill="#009e54" opacity=".9"/><path d="M43.2-4.58A10 10 0 0 0 34.5.9l11.78-5.55z" fill="#00a8de" opacity=".9"/><path d="M46.06-4.77L34.54 1.31a9.91 9.91 0 0 0-.81 2.81l17.5-9.24z" fill="#0070b4" opacity=".9"/><path d="M54.2-3.92L52-4.09 33.36 2.57A9.93 9.93 0 0 0 33 4.5V5l-.19 2.26 26.33-9.42a9.9 9.9 0 0 0-4.94-1.76z" fill="#333391" opacity=".9"/><path d="M58.83-3.08L33.23 8.17v2.31L60.74-1.61a10.09 10.09 0 0 0-1.91-1.47z" fill="#932b8d" opacity=".9"/><path d="M60.65-1.77L33.28 10.67v3.06a9.91 9.91 0 0 0 .14 1.5L63 1.79a10.05 10.05 0 0 0-2.35-3.56z" fill="#e91388" opacity=".9"/><path d="M62.74 1.31L33.62 15.74a9.88 9.88 0 0 0 .63 2L63.38 3.36a9.88 9.88 0 0 0-.64-2.05z" fill="#ea245f" opacity=".9"/><path d="M64 6.77V6a9.92 9.92 0 0 0-.07-1.51L33.77 16.65A10.05 10.05 0 0 0 36 20.31L63.87 9.08z" fill="#eb2d2e" opacity=".9"/><path d="M64 9L36.1 20.28A10.09 10.09 0 0 0 38 21.8l25.89-10.45z" fill="#f19432" opacity=".9"/><path d="M63.8 11L38.15 22.1a9.9 9.9 0 0 0 5 1.44h2.21l18.16-7.87a9.93 9.93 0 0 0 .21-1.95v-.43z" fill="#fde92b" opacity=".9"/><path d="M50.77 23.72l11.75-5.6a9.92 9.92 0 0 0 .92-2.78l-17.87 8.51z" fill="#91be4a" opacity=".9"/><path d="M53.5 23.33a10 10 0 0 0 9.28-4.43L50.44 23z" fill="#009e54" opacity=".9"/><path d="M76.24 30.91l-17.5 1.43a15.24 15.24 0 0 0-12.55 10.48L43.73 52 83 30.53c-1.85.04-4.21.17-6.76.38z" fill="#00a8de" opacity=".9"/><path d="M88.14 34c-.06-.2-1.4-.45-3.46-.69L42.84 49.14l-6 14.13 53.88-20.36z" fill="#0070b4" opacity=".9"/><path d="M97.45 60.46l-8-19.21-.57-1.35-51.23 26.28-8.71 29.41z" fill="#333391" opacity=".9"/><path d="M63 90l1.76-4.94c1.84-5.18 4.63-5.11 6.19.17l.38 1.29 30.43-12.72-3.46-10.59-71 29.7-5.48 14.32z" fill="#932b8d" opacity=".9"/><path fill="#e91388" opacity=".9" d="M71.06 88.24l8.98 20.45 29.16-16.77-9.54-20.11-28.6 16.43zM56.16 115.78a7.78 7.78 0 0 1-.54-5.42l5.21-22.66-39 21.89-7.59 29.72z"/><path d="M75.38 124.23a9.54 9.54 0 0 1-1.73 0l-9.95-.82c-3.36-.28-5.68-2.09-6.48-4.61l-45.36 15.86-6.33 14zM78.34 109.17l1.85 4.32c1.35 3.15.81 6.1-1.11 8l33.24-18.76-4.69-10.1z" fill="#ea245f" opacity=".9"/><path d="M111.65 103L77.2 119.43a7.3 7.3 0 0 1-3.32 1.57L7.1 152.86.47 173.08c-.93 2.83-.44 5.33 1.07 7l38.62-18.42.1-.32a14.79 14.79 0 0 1 12.88-9.84l8.81-.23 57.68-27.5z" fill="#eb2d2e" opacity=".9"/><path d="M6.91 181.74l16.19-1 10.6-5.49a12.87 12.87 0 0 0 2.54-4.8L39 160 1 179.71a7.3 7.3 0 0 0 5.91 2.03zM119.06 123.48l-56.41 30 20.51-1.44a12.5 12.5 0 0 1 4.66.62l35.68-19z" fill="#f19432" opacity=".9"/><path d="M22.88 180.4a14.7 14.7 0 0 0 10.78-3.71l-11.37 3.65zM124.62 136.59l-37.67 14.64a14.66 14.66 0 0 1 8 9l2.85 10.61 33.2-12.9z" fill="#fde92b" opacity=".9"/><path d="M131.36 157l-32.73 14.1v.08a14.61 14.61 0 0 0 8 8.55l28.27-12.14z" fill="#91be4a" opacity=".9"/><path d="M136.41 171.59l-1.41-4.17-28.17 12.37a12.64 12.64 0 0 0 4.93 1.1l18 .09c5.43.02 8.46-4.19 6.65-9.39z" fill="#009e54" opacity=".9"/></svg>