<svg xmlns="http://www.w3.org/2000/svg" width="177.74" height="200" viewBox="0 0 177.74 200"><title>_</title><path d="M66.66 38.48l-12.55.11a10.9 10.9 0 0 0-9.49 6.82l-2.23 6.41 29.08-13.26c-1.29-.07-2.98-.1-4.81-.08z" fill="#00a8de" opacity=".9"/><path d="M74.8 40.26a7 7 0 0 0-2.47-.53L42.27 50.6l-4.42 10 38.7-14z" fill="#0070b4" opacity=".9"/><path d="M81.43 59.58L76.08 45.7l-.37-1-37.12 17.82-6.79 20.85z" fill="#333391" opacity=".9"/><path d="M56.82 80l1.12-3.58c1.17-3.75 3.16-3.78 4.42-.05l.31.91 21.38-9.93-2.77-7.46-49.92 23.17-3.52 10.38z" fill="#932b8d" opacity=".9"/><path fill="#e91388" opacity=".9" d="M62.8 76.79l4.21 15.4 22.37-8.81-4.65-15.23-21.93 8.64zM51.19 101.11a5.56 5.56 0 0 1 .41-3.87l6.92-15.12-30.45 9.7-9.6 19.72z"/><path d="M67.59 93.25l1.2 3.14a5 5 0 0 1-1 5.69L92 89.61l-3-7.34zM64.47 101.55a6.82 6.82 0 0 1-1.23.16l-7.13.27a5 5 0 0 1-5-2.71l-30.82 15.16L17 124.89z" fill="#ea245f" opacity=".9"/><path d="M39.05 129.56a10.57 10.57 0 0 1 9.87-6.06l6.29.5 43-15.38-4.15-15.39-25.69 9.19a5.22 5.22 0 0 1-2.47.88l-49.81 17.82L9.91 135a5 5 0 0 0 .25 5.07L39 129.79z" fill="#eb2d2e" opacity=".9"/><path d="M35.67 141.2a9.2 9.2 0 0 0 1.89-3.39l2.14-7.43-27.45 13.5a5.22 5.22 0 0 0 4.17 1.53L28 145zM71.46 124.65a8.93 8.93 0 0 1 3.35.31l25-14.55-3.46-7.17-39.46 23z" fill="#f19432" opacity=".9"/><path d="M28.08 144.84a10.51 10.51 0 0 0 7.55-3.06l-8 3zM79.71 130.57l2.29 7.51L105.41 128l-5.12-15.07-26.54 11.43a10.48 10.48 0 0 1 5.96 6.21z" fill="#fde92b" opacity=".9"/><path d="M82.19 138.15a10.45 10.45 0 0 0 5.81 6.07l20.15-8.82-2.61-7.52-23.37 10.21z" fill="#91be4a" opacity=".9"/><path d="M91.22 144.54l12.78.86c3.92.26 6.26-2.62 5.2-6.41l-.85-3-20.65 7.58a9 9 0 0 0 3.52.97z" fill="#009e54" opacity=".9"/><path d="M104.44 59.91a7.17 7.17 0 0 0-7.56 6.71l-.27 4.5L123.45 61z" fill="#00a8de" opacity=".9"/><path fill="#0070b4" opacity=".9" d="M122.55 60.12L97.04 73.2l.51 9.14 45.52-23.36-20.52 1.14z"/><path d="M128.86 82.56L136 82l37.18-20a7.17 7.17 0 0 0-7-4.12l-3.47.26-20.5 1.52-45.07 24.26.67 9.08.67 9.13 23.76-12.75a7.17 7.17 0 0 1 6.62-6.82z" fill="#333391" opacity=".9"/><path d="M157.3 81.89l17.48-10.15-.69-6.39a7.07 7.07 0 0 0-.74-2.45l-36.48 21.19zM121.75 93.71l.18-4a7.14 7.14 0 0 1 .08-.79l-25.1 9.84-.41 9.14 26.24-10.29a7.09 7.09 0 0 1-.99-3.9z" fill="#932b8d" opacity=".9"/><path d="M167.51 82.15a7.17 7.17 0 0 0 7.49-6.8v-1.07l-18.8 7.32zM129 100.39a7.15 7.15 0 0 1-5.88-3.46l-26.06 10.65-.29 9.15-.29 9.15 60.32-24.61z" fill="#e91388" opacity=".9"/><path d="M128.58 121.66h.16l40.93-17a7.15 7.15 0 0 0-6-3.57l-6.79-.17-60.17 25-.21 9.08 26.64-11a7.13 7.13 0 0 1 5.44-2.34z" fill="#ea245f" opacity=".9"/><path d="M163.88 120.72a7.17 7.17 0 0 0 6.59-7.67l-.54-7.13a7.08 7.08 0 0 0-1.34-3.64l-39 21zM121.65 138.7l.9-8.54a7.11 7.11 0 0 1 2.25-4.47l-27.44 8.9-1 9.1-1 9.1 27.68-9a7.12 7.12 0 0 1-1.39-5.09z" fill="#eb2d2e" opacity=".9"/><path d="M128.67 144.65a7.12 7.12 0 0 1-5.15-2.21l-26.58 11.85v5.3a7.08 7.08 0 0 0 .9 3.45l41.25-18.4h-10.42z" fill="#f19432" opacity=".9"/><path d="M169.78 143.38l-31.1 1.19-40.54 19.93a7.16 7.16 0 0 0 6.39 3.46l6-.23 20.54-.78 43.93-21.6a7.12 7.12 0 0 0-5.22-1.97z" fill="#fde92b" opacity=".9"/><path d="M177.43 157.09l.28-3.25a7.12 7.12 0 0 0-1.6-5.14l-46.26 16 20.48 1.77z" fill="#91be4a" opacity=".9"/><path d="M170.34 166.6a7.17 7.17 0 0 0 7-7.29l-.09-4.51L151.3 167z" fill="#009e54" opacity=".9"/></svg>