<svg xmlns="http://www.w3.org/2000/svg" width="143.06" height="200" viewBox="0 0 143.06 200"><title>_</title><path d="M68.69 28.76a74.64 74.64 0 0 0-13.25 1.47A62.65 62.65 0 0 0 43.38 34a58.64 58.64 0 0 0-10.79 6.06 62.33 62.33 0 0 0-9.48 8.33 64.76 64.76 0 0 0-8.82 12c-.34.59-.65 1.21-1 1.82l69.12-32.83a95.71 95.71 0 0 0-13.72-.62z" fill="#00a8de" opacity=".9"/><path d="M102.65 39.56a66.36 66.36 0 0 0-14.46-5.9c-1.13-.32-2.29-.6-3.46-.88l-72.26 25A72.82 72.82 0 0 0 6 69.43c-.66 1.48-1.27 3-1.85 4.6L103 39.78z" fill="#0070b4" opacity=".9"/><path d="M40.63 87.67a52.49 52.49 0 0 1 2.61-8.33 39.44 39.44 0 0 1 3.69-6.93 32 32 0 0 1 4.6-5.45A25.47 25.47 0 0 1 63 60.71a31.49 31.49 0 0 1 7-.89 42.1 42.1 0 0 1 7 .42 29.89 29.89 0 0 1 6 1.51 23.62 23.62 0 0 1 5 2.56 22.1 22.1 0 0 1 3.44 2.9l31.51-14.72a53.79 53.79 0 0 0-22-17.55L6.15 79.23a94.32 94.32 0 0 0-2.2 11.35A122.86 122.86 0 0 0 3 108.52l36.93-17.26c.2-1.26.43-2.43.7-3.59z" fill="#333391" opacity=".9"/><path d="M38.13 105.6c.12-2.89.35-5.67.69-8.29.27-2.12.62-4.15 1-6.11L2.31 107.07v.22a126.29 126.29 0 0 0 .43 13.28zM92.07 67.79a22.72 22.72 0 0 1 1.83 2.72 32.87 32.87 0 0 1 1.68 3.39c.54 1.25 1 2.61 1.51 4.06l.11.35 32.42-13.08q-.71-1.75-1.55-3.5a69.92 69.92 0 0 0-4-7.11c-.13-.2-.28-.39-.41-.59l-32.25 13c.25.27.46.51.66.76z" fill="#932b8d" opacity=".9"/><path d="M3.47 124.1a92 92 0 0 0 3 15.13 73.84 73.84 0 0 0 2.16 6.29l32.5-13.66c-.28-.92-.56-1.85-.8-2.81a65.22 65.22 0 0 1-1.56-9.5 96.92 96.92 0 0 1-.36-11.07q0-1.44.09-2.85L3.11 120.52c.11 1.21.22 2.41.36 3.58zM98 79.69c.51 1.78 1 3.66 1.17 4.16s4.74 1 10.24 1L124 85c5.5.06 10-.48 9.95-1.21s-.22-3.46-.43-6.09l-.46-2.35a50.67 50.67 0 0 0-2-7.09c-.42-1.19-.9-2.39-1.42-3.59L97.6 78.59z" fill="#e91388" opacity=".9"/><path d="M11.58 151c.62 1.51 1.32 3 2 4.44l33.61-10.63a32.85 32.85 0 0 1-3.12-6.51 42.36 42.36 0 0 1-1.41-5.3L9 143.65a70.79 70.79 0 0 0 2.58 7.35z" fill="#ea245f" opacity=".9"/><path d="M19.59 160.16a72.57 72.57 0 0 0 8.69 9.69c1.26 1.16 2.55 2.24 3.87 3.26l102.37-36.82c.48-1.76.84-3.08.93-3.48.19-.79-4.14-1.76-9.63-2.17l-14.71-1.08c-5.49-.4-10.12-.33-10.29.17s-.88 2.44-1.56 4.32l-.65 1.52c-.64 1.5-1.32 2.91-2 4.18a35.44 35.44 0 0 1-2.09 3.43 25.4 25.4 0 0 1-6.52 6.49 23 23 0 0 1-5.11 2.55 27.07 27.07 0 0 1-5.93 1.34 36.88 36.88 0 0 1-6.84.1 31.32 31.32 0 0 1-6.61-1.19 26.93 26.93 0 0 1-5.83-2.5 27.74 27.74 0 0 1-5.13-3.84 33.85 33.85 0 0 1-4.55-5.27l-.13-.2-33.14 11.93a64.57 64.57 0 0 0 4.86 7.57z" fill="#eb2d2e" opacity=".9"/><path d="M37.89 175.12a50.58 50.58 0 0 0 8.77 4.38l82.56-27c1.11-2 2.15-4 3.08-6.15l1.55-3.51c.64-2 1.26-4.06 1.75-5.69L32.2 171a55.08 55.08 0 0 0 5.69 4.12z" fill="#f19432" opacity=".9"/><path d="M51.42 185.83l2.37.4c2.69.16 3.27 3.2 1.28 6.74s-2 7.78 0 9.41 3.89 2.84 4.26 2.69l1.44-.55.36-.13 1.05-.37 1-.33.92-.28.84-.22.81-.16.8-.12a10.71 10.71 0 0 1 2-.06 8.81 8.81 0 0 1 1.22.17c.15 0 .31.09.47.13l20.41-10.55c-.26-.22-.51-.45-.79-.65a17.43 17.43 0 0 0-3.08-1.79 19.57 19.57 0 0 0-3.42-1.16 23.62 23.62 0 0 0-3.79-.59 29.42 29.42 0 0 0-5 0l-.84.1h-.12a2.62 2.62 0 0 1 .6-1.38c.46-.78 3.84-1.77 7.51-2.19l3.13-.75a56.54 56.54 0 0 0 10.23-3.49 55.17 55.17 0 0 0 9.29-5.38 60 60 0 0 0 8.31-7.23 63.93 63.93 0 0 0 12.37-18.38c.6-1.36 1.15-2.76 1.67-4.17l-77.11 39.93c.6.12 1.21.26 1.81.36z" fill="#fde92b" opacity=".9"/><path d="M69.83 202.37a10.35 10.35 0 0 1 1.11.67 3 3 0 0 1 .63.58 2.82 2.82 0 0 1 .42.72 4 4 0 0 1 .25 1 7 7 0 0 1 0 1.4 3.32 3.32 0 0 1-.15.76 4 4 0 0 1-.35.78 5.69 5.69 0 0 1-.62.85 8.33 8.33 0 0 1-.92.9 4.39 4.39 0 0 1-1 .62 7 7 0 0 1-1.43.47 11.91 11.91 0 0 1-1.93.25 17.64 17.64 0 0 1-3.77-.2q-.76-.12-1.61-.32t-1.86-.48c-.67-.19-1.37-.4-2.12-.65l-1.16-.39-1.61-.57-1.58-.58-7.4 2.68c-.3.52-.61 1.07-.92 1.64-1.81 3.41-2.74 6.45-2.07 6.75l3.07 1.38.92.37 2.39 1 1.3.55 45.31-16.4a21.2 21.2 0 0 0-.08-3.2 16.84 16.84 0 0 0-.78-3.57 13.83 13.83 0 0 0-3.11-5.19l-21.61 7.82c.22.15.46.24.68.36z" fill="#91be4a" opacity=".9"/></svg>