<svg xmlns="http://www.w3.org/2000/svg" width="137.48" height="200" viewBox="0 0 137.48 200"><title>_</title><path d="M71.32-9.68c-.19-.24-4.82 0-10.29.49l-4.31.4L40.87.11l5.46 4.47L71.45-9.51z" fill="#333391" opacity=".9"/><path d="M72.14-7.88L45.64 3.39l2.47 2.52 25.78-11z" fill="#932b8d" opacity=".9"/><path d="M73.27-6L48.47 7l5.34 4.62L77.22-.64z" fill="#e91388" opacity=".9"/><path d="M77.3.08l-.21-.3-23.62 11.89L56.1 14 79 2.49z" fill="#ea245f" opacity=".9"/><path d="M78.63 2.4L56 14.52l5.32 4.53h.06L82.62 7.72z" fill="#eb2d2e" opacity=".9"/><path d="M82.45 8.14L61 19.17a19.5 19.5 0 0 0 3 2.13l20.4-10.47z" fill="#f19432" opacity=".9"/><path d="M88.09 16.26l-3.93-5.32L63.93 21.6a31 31 0 0 0 8.18 3.13l16-8.42z" fill="#fde92b" opacity=".9"/><path d="M88.53 17.77l-17.1 5.91a22.81 22.81 0 0 0 5.71 1.5l12.37-4.27a8.34 8.34 0 0 0-.98-3.14z" fill="#91be4a" opacity=".9"/><path d="M89.34 19.92L77.6 25.69h.4l5.72-.22c4.17-.16 6.28-2.47 5.62-5.55z" fill="#009e54" opacity=".9"/><path d="M27.68 31.6a10 10 0 0 0-10.48 9.49l-.31 6.3 37.4-14.48z" fill="#00a8de" opacity=".9"/><path fill="#0070b4" opacity=".9" d="M53.3 31.85l-35.93 17.8.52 12.79 64.14-31.77-28.73 1.18z"/><path d="M61.38 61.41l10 1.09 56.22-18A10 10 0 0 0 119 37l-4.83-.53-28.61-3.09L17.4 55.21 16 67.94l-1.39 12.72 35.93-11.5a10 10 0 0 1 10.84-7.75z" fill="#333391" opacity=".9"/><path d="M99.46 62.57l26.68-9.38.73-9a9.89 9.89 0 0 0-.37-3.56L70.8 60.24zM52.07 79l.33-5.56a10 10 0 0 1 .13-1.11L17.22 85.65l-.75 12.78 36.9-13.89a9.92 9.92 0 0 1-1.3-5.54z" fill="#932b8d" opacity=".9"/><path d="M116.51 62.36a10 10 0 0 0 9.57-10.41l-.08-1.5L100.69 63zM61.11 88a10 10 0 0 1-8.53-4.29l-35.45 17.22.43 12.79.44 12.8 81.94-39.87z" fill="#e91388" opacity=".9"/><path d="M61.14 117.33h.23l59.08-18.8a10 10 0 0 0-7.93-5.69l-9.44-1.05-86.84 27.66-1.41 12.72 38.45-12.24a10 10 0 0 1 7.86-2.6z" fill="#ea245f" opacity=".9"/><path d="M109.77 118.42a10 10 0 0 0 10.23-9.81l.19-10a9.9 9.9 0 0 0-1.39-5.25l-57.15 24.13zM51.39 138.72l-1-12a9.94 9.94 0 0 1 1.9-6.73l-35.35 19.54L18 152.29 19.14 165l35.63-19.69a10 10 0 0 1-3.38-6.59z" fill="#eb2d2e" opacity=".9"/><path d="M62.51 151.28a10 10 0 0 1-6.94-3.66l-38.38 13.56-.59 7.4a9.91 9.91 0 0 0 .87 4.91L77 152.43z" fill="#f19432" opacity=".9"/><path d="M120.91 154l-43.39-3.63-59.67 20.85a10 10 0 0 0 8.29 5.89l8.35.7 28.65 2.39 64.64-22.54a10 10 0 0 0-6.87-3.66z" fill="#fde92b" opacity=".9"/><path d="M129.29 158.06a10 10 0 0 0-3.27-6.78l-60.7 31.66L94 181.16l35.56-18.55z" fill="#91be4a" opacity=".9"/><path d="M93 180.65l26.63.43a10 10 0 0 0 10.16-9.84l.1-6.31z" fill="#009e54" opacity=".9"/></svg>