<svg xmlns="http://www.w3.org/2000/svg" width="134.89" height="200" viewBox="0 0 134.89 200"><title>_</title><path d="M21.77 31.9a10 10 0 0 0-10.12 9.88l-.08 6.31 36.84-15.87z" fill="#00a8de" opacity=".9"/><path fill="#0070b4" opacity=".9" d="M48.41 32.03L11.66 48.09l-.09 12.8 65.59-28.67-28.75-.19z"/><path d="M55.88 61.83l10 .67 55.41-20.37A10 10 0 0 0 112.4 35l-4.85-.32-28.69-1.87L11.68 57.5l-.86 12.77L10 83l35.38-13a10 10 0 0 1 10.5-8.17z" fill="#333391" opacity=".9"/><path d="M93.82 62.57l26.71-9.28.76-9a9.89 9.89 0 0 0-.36-3.57L65.17 60.14zM46.24 78.44l.13-5.56a10 10 0 0 1 .09-1.11L11.65 86.29l-.3 12.8 36.38-15.18a9.92 9.92 0 0 1-1.49-5.47z" fill="#932b8d" opacity=".9"/><path d="M110.8 62.42a10 10 0 0 0 9.79-10.21v-1.5L95 62.76zM57.56 88.38a10 10 0 0 1-7.92-5.33L12.3 95.67l-1.19 12.75-1.19 12.74L96.25 92z" fill="#e91388" opacity=".9"/><path d="M56.06 118h.23L113 92.94a10 10 0 0 0-8.5-4.8H95L11.65 125v12.8l36.89-16.34a10 10 0 0 1 7.52-3.46z" fill="#ea245f" opacity=".9"/><path d="M104.87 117.35A10 10 0 0 0 114.5 107l-.36-10a9.9 9.9 0 0 0-1.68-5.16L56.77 119.1zM45.94 139.33l-.56-12a9.94 9.94 0 0 1 2.16-6.65l-36.06 18.11.6 12.79.6 12.79L49 146.1a10 10 0 0 1-3.06-6.77z" fill="#eb2d2e" opacity=".9"/><path d="M55.29 149.11a10 10 0 0 1-7.4-2.62l-36 19 .49 7.4a9.91 9.91 0 0 0 1.57 4.73l55.91-29.45z" fill="#f19432" opacity=".9"/><path d="M115 152.94l-43.46-2.63-59.14 22.16a10 10 0 0 0 8.42 5.7l8.36.51 28.7 1.74 64.11-24a10 10 0 0 0-6.99-3.48z" fill="#fde92b" opacity=".9"/><path d="M124.64 162.64a10 10 0 0 0-2.3-7.17l-64.53 22.87 28.66 2.25 37.8-13.4z" fill="#91be4a" opacity=".9"/><path d="M88 181.94l26.6-1.47a10 10 0 0 0 9.43-10.54l-.35-6.3z" fill="#009e54" opacity=".9"/><path d="M79.22-8.51L63.45-2.08a13.62 13.62 0 0 0-1.17 1.45l-1 1.43 22.5-9.17z" fill="#0070b4" opacity=".9"/><path fill="#333391" opacity=".9" d="M88.17-8.76l-4.56.01-22.16 9.94-3.63 5.7L92.73-8.77l-4.56.01z"/><path d="M96.2-9h-3.56L57.88 7l-1.8 2.93 41-18.87C96.83-9 96.52-9 96.2-9z" fill="#932b8d" opacity=".9"/><path d="M96.93-9.19L56.13 10.2 52.62 16l48.47-23c-.4-1.29-1.82-2.08-4.16-2.19z" fill="#e91388" opacity=".9"/><path d="M100.77-7.57l-48 24-1 1.74a10.43 10.43 0 0 0-.56 1.12l49.42-24.72a3.07 3.07 0 0 0 .14-2.14z" fill="#ea245f" opacity=".9"/><path d="M99.29-1.49a8.72 8.72 0 0 0 1.95-2.59l-50.7 22A5.59 5.59 0 0 0 50 22.2L95 2.69z" fill="#eb2d2e" opacity=".9"/><path d="M94.39 1.5l-43.84 22a3.82 3.82 0 0 0 1.11 1.5L90.79 5.38z" fill="#f19432" opacity=".9"/><path d="M83.73 14.81l8.21-6.68-41.47 14A6.82 6.82 0 0 0 55 24l1.16.11z" fill="#fde92b" opacity=".9"/><path fill="#91be4a" opacity=".9" d="M61.05 24.68h.01l18.91-6.48 4.09-3.36-27.54 9.43 4.53.41z"/><path d="M78.67 18.46l1.14-1.12-18.26 8.14c5.5-.01 13.2-3.16 17.12-7.02z" fill="#009e54" opacity=".9"/></svg>