<svg xmlns="http://www.w3.org/2000/svg" width="141.03" height="200" viewBox="0 0 141.03 200"><title>_</title><path d="M27.31 32.84a10 10 0 0 0-9 10.92l.61 6.28 34.91-19.78z" fill="#00a8de" opacity=".9"/><path fill="#0070b4" opacity=".9" d="M55.24 32.16L18.02 47.09l-.47 12.8 66.43-26.67-28.74-1.06z"/><path d="M62.28 61.84l10 .66 55.39-20.41a10 10 0 0 0-8.9-7.08l-4.85-.32-28.68-1.89-67.17 24.74-.84 12.77-.85 12.78 35.4-13a10 10 0 0 1 10.5-8.25z" fill="#333391" opacity=".9"/><path d="M102.2 62.33L127 48.78l-.73-9a9.89 9.89 0 0 0-.94-3.46L73.54 64.65zM51.9 76.92l-.39-5.55a10 10 0 0 1 0-1.12L18.2 88l.9 12.77 34.8-18.55a9.92 9.92 0 0 1-2-5.3z" fill="#932b8d" opacity=".9"/><path d="M117.55 62.22a10 10 0 0 0 9.11-10.81l-.13-1.5-24.76 13.66zM61.23 87.89a10 10 0 0 1-8.7-3.89l-34.71 18.7 1 12.77 1 12.77L100 85z" fill="#e91388" opacity=".9"/><path d="M63.06 118.71h.23l53.52-31.3a10 10 0 0 0-9-3.82l-9.45 1-78.67 46 1.41 12.72L55.95 123a10 10 0 0 1 7.11-4.29z" fill="#ea245f" opacity=".9"/><path d="M111.13 117.57a10 10 0 0 0 9.75-10.25l-.25-10a9.9 9.9 0 0 0-1.63-5.17l-56 26.62zM52.6 141.23l.88-12a9.94 9.94 0 0 1 2.94-6.35l-38 13.67-.94 12.77-.94 12.77 38.3-13.79a10 10 0 0 1-2.24-7.07z" fill="#eb2d2e" opacity=".9"/><path d="M63.56 151.69a10 10 0 0 1-6.84-3.84L18 160.42l-.78 7.38a9.91 9.91 0 0 0 .74 4.93l60.1-19.52z" fill="#f19432" opacity=".9"/><path d="M119.87 148l-43.5 1.89-56.55 28.22a10 10 0 0 0 9 4.79l8.37-.36 28.73-1.25 61.27-30.54a10 10 0 0 0-7.32-2.75z" fill="#fde92b" opacity=".9"/><path d="M129.85 157.22a10 10 0 0 0-3.45-6.69l-59.85 33.24 28.64-2.53 35.06-19.47z" fill="#91be4a" opacity=".9"/><path d="M93.55 180l26.6 1.39a10 10 0 0 0 10.51-9.46l.33-6.3z" fill="#009e54" opacity=".9"/><path d="M69-9.41c-5.43.58-12.3 4.87-15.22 9.53L52.59 2 73.07-9.84z" fill="#00a8de" opacity=".9"/><path d="M77.59-7.65l-3.37-.28L51.89-.1l-4.61 5L81-7a16.41 16.41 0 0 0-3.41-.65z" fill="#0070b4" opacity=".9"/><path d="M79.28-9.77L48.08 7.69 40.7 19.07 87.56-7.14a25.32 25.32 0 0 0-8.28-2.63z" fill="#333391" opacity=".9"/><path d="M88.36-5.2L39.55 17.16l-.55.72a7.35 7.35 0 0 0-1.69 3.78L91.26-3a21.74 21.74 0 0 0-2.9-2.2z" fill="#932b8d" opacity=".9"/><path d="M93.77.54a15.58 15.58 0 0 0-1.71-2L36.68 19.87c-.33 2.42 1.57 4.18 5.33 4.37h.82L96.06 3.78z" fill="#e91388" opacity=".9"/><path d="M95 .92l-50.76 26 7.76-.41 15.52-8 .26-.34a7.1 7.1 0 0 1 6.85-3.3L97.11 3.38z" fill="#ea245f" opacity=".9"/><path d="M51.58 25.13c5.35.24 12.34-2.61 15.81-6.38l-16.23 6.36zM97.74 5L74.49 15a7.58 7.58 0 0 1 4.46 3 13.27 13.27 0 0 0 1.27 1.44l21.46-9.21z" fill="#eb2d2e" opacity=".9"/><path d="M101.69 10l-21.38 9.43a19 19 0 0 0 2.81 2.22l20.57-9z" fill="#f19432" opacity=".9"/><path d="M107.67 18.19L104 13l-21 8.1a24.73 24.73 0 0 0 7.85 3.74l16.86-6.55z" fill="#fde92b" opacity=".9"/><path d="M109.23 21.18a8.34 8.34 0 0 0-1.23-2.91l-17 6.1a17.22 17.22 0 0 0 3.56.69l3.22.24z" fill="#91be4a" opacity=".9"/><path d="M103.57 25.48c4.18.36 6.35-1.53 5.8-4.49L97.81 25z" fill="#009e54" opacity=".9"/></svg>