<svg xmlns="http://www.w3.org/2000/svg" width="137.7" height="200" viewBox="0 0 137.7 200"><title>_</title><path d="M23.69 32.93a10 10 0 0 0-8.88 11l.67 6.28 34.7-20.1z" fill="#00a8de" opacity=".9"/><path fill="#0070b4" opacity=".9" d="M51.99 32.26L14.46 46.38l-.76 12.78 67-25.21-28.71-1.69z"/><path d="M59.27 63.46l10-1 51.21-29.37a10 10 0 0 0-10-5.49l-4.84.49L77.06 31 15 66.61l1.3 12.73 1.3 12.73 32.69-18.76a10 10 0 0 1 8.98-9.85z" fill="#333391" opacity=".9"/><path d="M48.25 76.75l-.45-5.54a10 10 0 0 1 0-1.12L14.67 88.17l1 12.76L50.3 82a9.92 9.92 0 0 1-2.05-5.25zM98.87 62.28l24.55-14-.9-8.94a9.89 9.89 0 0 0-1-3.44L70.26 65.17z" fill="#932b8d" opacity=".9"/><path d="M113.65 62.41a10 10 0 0 0 9.76-10.24v-1.5L97.82 62.8zM59.82 88.24a10 10 0 0 1-8.11-5l-36.87 14-.73 12.78-.73 12.78 85.23-32.35z" fill="#e91388" opacity=".9"/><path d="M58.62 117.69h.23l58-22a10 10 0 0 0-8.22-5.26l-9.49-.54-85.24 32.33-.73 12.78 37.73-14.29a10 10 0 0 1 7.72-3.02z" fill="#ea245f" opacity=".9"/><path d="M106.12 119.62a10 10 0 0 0 10.81-9.12l.85-10a9.9 9.9 0 0 0-1-5.32l-58.62 20.37zM49 140.89l.63-12a9.94 9.94 0 0 1 2.8-6.41L14.77 137l-.67 12.74-.67 12.78 38-14.59a10 10 0 0 1-2.43-7.04z" fill="#eb2d2e" opacity=".9"/><path d="M59.83 151.42a10 10 0 0 1-6.91-3.72l-38.5 13.23-.65 7.39a9.91 9.91 0 0 0 .82 4.91l59.77-20.53z" fill="#f19432" opacity=".9"/><path d="M115.42 145.83l-43.36 4-55.14 30.84A10 10 0 0 0 26.1 185l8.34-.77 28.63-2.63 59.74-33.44a10 10 0 0 0-7.39-2.33z" fill="#fde92b" opacity=".9"/><path d="M127 164.93v-4.57a10 10 0 0 0-2.79-7l-62.7 27.29 28.75.26z" fill="#91be4a" opacity=".9"/><path d="M116.48 181.46a10 10 0 0 0 10.62-9.33l.41-6.3-37.61 13.92z" fill="#009e54" opacity=".9"/><path d="M44.77-4.67a10 10 0 0 0-8.52 5.75l11.6-5.91z" fill="#00a8de" opacity=".9"/><path d="M47.73-4.76L36.2 1.29a9.92 9.92 0 0 0-.81 2.81l17.52-9.2z" fill="#0070b4" opacity=".9"/><path d="M55.26-4.7L53-4.65 35.15 3.81a9.94 9.94 0 0 0-.15 2v.4l.05 2.31L60.34-3.42a9.9 9.9 0 0 0-5.08-1.28z" fill="#333391" opacity=".9"/><path d="M60.4-3.23L35 8.35v2.31L62.33-1.78a10.09 10.09 0 0 0-1.93-1.45z" fill="#932b8d" opacity=".9"/><path d="M63-.72L34.67 9.44l-.17 2.3-.06.75a9.91 9.91 0 0 0 0 1.51L65 3a10.05 10.05 0 0 0-2-3.72z" fill="#e91388" opacity=".9"/><path d="M64 .72L35.55 16.35a9.88 9.88 0 0 0 .72 2L64.76 2.74A9.88 9.88 0 0 0 64 .72z" fill="#ea245f" opacity=".9"/><path d="M65.41 6.25v-.76A9.92 9.92 0 0 0 65.29 4L35.58 17.17a10.05 10.05 0 0 0 2.35 3.58L65.41 8.56V6.25z" fill="#eb2d2e" opacity=".9"/><path d="M65.2 8.15l-27.09 13a10.09 10.09 0 0 0 2 1.4l25.2-12.11z" fill="#f19432" opacity=".9"/><path d="M65.9 12l-26.42 9.12a9.9 9.9 0 0 0 4.92 1.82l2.2.19 18.7-6.48a9.94 9.94 0 0 0 .36-1.93v-.45z" fill="#fde92b" opacity=".9"/><path d="M52.08 23.38l12.2-4.56a9.92 9.92 0 0 0 1.16-2.69L46.9 23.06z" fill="#91be4a" opacity=".9"/><path d="M55.6 23.82a10 10 0 0 0 8.4-5.93L52.53 24z" fill="#009e54" opacity=".9"/><path d="M84-4.53a10 10 0 0 0-8.84 5.3l11.89-5.3H84z" fill="#00a8de" opacity=".9"/><path d="M87.31-4.26L75.1.24a9.92 9.92 0 0 0-1.17 2.68L92.5-3.92z" fill="#0070b4" opacity=".9"/><path d="M94.75-4.16l-2.21-.1-18.43 7.2a9.94 9.94 0 0 0-.29 1.94v.45l-.13 2.31 26-10.17a9.9 9.9 0 0 0-4.94-1.63z" fill="#333391" opacity=".9"/><path d="M99.42-3.29L74 8.42v2.31l27.29-12.6a10.09 10.09 0 0 0-1.87-1.42z" fill="#932b8d" opacity=".9"/><path d="M101.28-1.9L74 10.82v3.06a9.91 9.91 0 0 0 .15 1.5L103.7 1.63a10.05 10.05 0 0 0-2.42-3.53z" fill="#e91388" opacity=".9"/><path d="M103.07.66L74.65 16.42a9.88 9.88 0 0 0 .73 2l28.41-15.75a9.88 9.88 0 0 0-.72-2.01z" fill="#ea245f" opacity=".9"/><path d="M104.72 6.9v-.75a9.92 9.92 0 0 0-.06-1.51L74.45 16.52a10.05 10.05 0 0 0 2.19 3.68l28-11z" fill="#eb2d2e" opacity=".9"/><path d="M104.52 8.65L77 20.66a10.09 10.09 0 0 0 1.9 1.48L104.5 11z" fill="#f19432" opacity=".9"/><path d="M103.8 9.67L79.46 23.42a9.9 9.9 0 0 0 5.16.9l2.2-.21 17.23-9.74a9.94 9.94 0 0 0 0-2v-.45z" fill="#fde92b" opacity=".9"/><path d="M91.36 23.6l11.93-5.23a9.92 9.92 0 0 0 1-2.75l-18.13 7.95z" fill="#91be4a" opacity=".9"/><path d="M94.62 23.77a10 10 0 0 0 8.5-5.77l-11.58 5.95z" fill="#009e54" opacity=".9"/></svg>