<svg xmlns="http://www.w3.org/2000/svg" width="56.91" height="200" viewBox="0 0 56.91 200"><title>_</title><path d="M1.12 3.22L27.85-7.5l-.11-.18c-.15-.26-4.74-.64-10.27-.84l-4.32-.16-16.87 6.76z" fill="#333391" opacity=".9"/><path d="M4.47 7L29.05-6.42 27-9.06 1.76 4.76z" fill="#932b8d" opacity=".9"/><path d="M9.67 11.91L32.74-1l-4.09-5.27L4.21 7.43z" fill="#e91388" opacity=".9"/><path d="M11.74 14.06l22.89-11.6L32.9 0l-.2-.25L9.1 11.71z" fill="#ea245f" opacity=".9"/><path d="M16.79 18.9h.06L38.3 8l-3.89-5.42-22.85 11.69z" fill="#eb2d2e" opacity=".9"/><path d="M19.9 21.56l20-11.09-2-2.63-21.11 11.69a19.5 19.5 0 0 0 3.11 2.03z" fill="#f19432" opacity=".9"/><path d="M27.06 24.29l16.79-6.73-3.36-5.69-21.25 8.47a31 31 0 0 0 7.82 3.95z" fill="#fde92b" opacity=".9"/><path d="M33.43 25.67L45 19.5a8.34 8.34 0 0 0-1.47-2.94l-15.98 8.53a22.81 22.81 0 0 0 5.88.58z" fill="#91be4a" opacity=".9"/><path d="M33.45 25.4l5.72.08c4.21.06 6.43-2.13 5.94-5.25l-12 5.16z" fill="#009e54" opacity=".9"/><path d="M10.51 41l-.28 4 30-11A9.89 9.89 0 0 0 36 32.73l-14.85-1A10 10 0 0 0 10.51 41z" fill="#00a8de" opacity=".9"/><path d="M11.06 57l34.32-16.6a10 10 0 0 0-5.87-7.81L10.73 46.56z" fill="#0070b4" opacity=".9"/><path d="M10.31 66.11L9.79 76.6l35.62-13.76.53-10.48.48-9.46a10 10 0 0 0 0-1L10.84 55.63z" fill="#333391" opacity=".9"/><path fill="#932b8d" opacity=".9" d="M10.72 88.05l34.84-15.64-.04-10.5-34.83 15.64.03 10.5z"/><path fill="#e91388" opacity=".9" d="M11.66 100.39l1.17 10.43 32.93-19.33-1.17-10.43-1.17-10.43-32.93 19.33 1.17 10.43z"/><path fill="#ea245f" opacity=".9" d="M11.54 120.56l33.83-17.7-.66-10.48-33.83 17.7.66 10.48z"/><path fill="#eb2d2e" opacity=".9" d="M10.61 129.81l-.11 10.5 35.04-15.19.1-10.5.1-10.49-35.03 15.18-.1 10.5z"/><path fill="#f19432" opacity=".9" d="M10.59 150.85l34.99-15.28.08-10.5-35 15.28-.07 10.5z"/><path d="M11.09 162.33l.47 9.46a10 10 0 0 0 .1 1l34-17.21-.52-10.48-.5-10.5-34.07 17.24z" fill="#fde92b" opacity=".9"/><path d="M16.4 180l29.16-13.11v-10.5L10.75 172a10 10 0 0 0 5.65 8z" fill="#91be4a" opacity=".9"/><path d="M20 179.89l14.81 1.48a10 10 0 0 0 10.94-9l.4-4-30.36 10a9.89 9.89 0 0 0 4.21 1.52z" fill="#009e54" opacity=".9"/></svg>