<svg xmlns="http://www.w3.org/2000/svg" width="68.87" height="200" viewBox="0 0 68.87 200"><title>_</title><path d="M45.78 32.82l-14.84-1.16a10 10 0 0 0-10.75 9.19l-.31 4L50 34.16a9.89 9.89 0 0 0-4.22-1.34z" fill="#00a8de" opacity=".9"/><path d="M48.73 32.2l-28.22 15 .74 10.5L54.9 39.78a10 10 0 0 0-6.17-7.58z" fill="#0070b4" opacity=".9"/><path d="M55.71 52.56l.59-9.45a10 10 0 0 0 0-1L20.58 55.43l-.65 10.48-.64 10.47L55.06 63z" fill="#333391" opacity=".9"/><path fill="#932b8d" opacity=".9" d="M54.88 61.47L20.46 78l.3 10.49 34.42-16.52-.3-10.5z"/><path fill="#e91388" opacity=".9" d="M55.19 82.81l-.09-10.5-34.74 15.84.09 10.5.1 10.49L55.29 93.3l-.1-10.49z"/><path fill="#ea245f" opacity=".9" d="M56.61 95.5l-36.4 11.51-1.18 10.43 36.41-11.51 1.17-10.43z"/><path fill="#eb2d2e" opacity=".9" d="M54.55 113l-.89-10.45-33.45 18.42.89 10.46.89 10.46 33.44-18.42-.88-10.47z"/><path fill="#f19432" opacity=".9" d="M54.81 124.36l-34.33 16.71.36 10.49 34.33-16.71-.36-10.49z"/><path d="M54.64 144.66l-.78-10.46-33.63 18.08.77 10.47.71 9.44a10 10 0 0 0 .13 1l33.58-18.06z" fill="#fde92b" opacity=".9"/><path d="M54.46 155.32l-33.74 17.76a10 10 0 0 0 6.13 7.61l28.29-14.89z" fill="#91be4a" opacity=".9"/><path d="M55.31 171.19l.07-4L26 179.7a9.89 9.89 0 0 0 4.31 1.08l14.84.22a10 10 0 0 0 10.16-9.81z" fill="#009e54" opacity=".9"/><path fill="#333391" opacity=".9" d="M59.57-7.88l-4.55-.3L32.26.27l-4.01 5.44 35.88-13.3-4.56-.29z"/><path d="M67.15-8.89h-3.57L28.76 7 27 9.85 68.07-8.86c-.29-.02-.6-.03-.92-.03z" fill="#932b8d" opacity=".9"/><path d="M69.08-6.95L26.43 7.92l-4.11 5.36L73-4.38c-.28-1.26-1.6-2.2-3.92-2.57z" fill="#e91388" opacity=".9"/><path d="M72.64-5.63L22.93 14.6l-1.14 1.65a10.41 10.41 0 0 0-.64 1.07L72.34-3.5a3.07 3.07 0 0 0 .3-2.13z" fill="#ea245f" opacity=".9"/><path d="M69.6-2.76a8.72 8.72 0 0 0 1.8-2.7L22 19.26a5.59 5.59 0 0 0-.32 4.31L65.5 1.64z" fill="#eb2d2e" opacity=".9"/><path d="M65.32 1.53L21.45 23.42a3.82 3.82 0 0 0 1.11 1.52L61.71 5.4z" fill="#f19432" opacity=".9"/><path d="M61.87 5.87L22.21 24.35a6.82 6.82 0 0 0 4.7 1.38h1.16l26.39-12.3z" fill="#fde92b" opacity=".9"/><path fill="#91be4a" opacity=".9" d="M32.89 26.06l17.66-9.36 3.51-3.97-25.72 13.65 4.55-.32z"/><path d="M49.27 17.72l1-1.22-17.4 9.83c5.5-.53 12.87-4.4 16.4-8.61z" fill="#009e54" opacity=".9"/></svg>