<svg xmlns="http://www.w3.org/2000/svg" width="63.88" height="200" viewBox="0 0 63.88 200"><title>_</title><path d="M27.42-9c-5.49.26-12.6 4.13-15.79 8.61L10.32 1.4 31.47-9.22z" fill="#00a8de" opacity=".9"/><path d="M34.42-9.73l-3.36.28L10.31 1.94 6.58 7.6l32.15-17.66c-1.32.06-2.78.2-4.31.33z" fill="#0070b4" opacity=".9"/><path d="M44-10.6a35.67 35.67 0 0 0-6 .27L6.2 7.92-1 19.38 46.56-7.94z" fill="#333391" opacity=".9"/><path d="M47.31-6.07l-49.56 23.6-.55.73a7.35 7.35 0 0 0-1.63 3.81L49.39-3.56z" fill="#932b8d" opacity=".9"/><path d="M53.17.74l-2-2.26-2.29-2.66-53.08 27.1c-.08 2.44 2 4 5.76 3.79h.82z" fill="#e91388" opacity=".9"/><path d="M8.3 23.47L24.86 18l.31-.29a7.1 7.1 0 0 1 7.28-2.2l24-7.9-1.71-2.74L.56 22.68z" fill="#ea245f" opacity=".9"/><path d="M37.1 18.06a13.25 13.25 0 0 0 1.29 1.43L59.73 10l-4-5.14L32.6 15.13a7.58 7.58 0 0 1 4.5 2.93zM9.59 25c5.35.34 12.41-2.41 15.91-6.13L9.17 25z" fill="#eb2d2e" opacity=".9"/><path d="M41.49 22.1L61.58 12l-2.13-2.45L38.57 20a19 19 0 0 0 2.92 2.1z" fill="#f19432" opacity=".9"/><path d="M49.43 25.19l16.28-7.88-.07-.09-4.1-4.92-20.23 9.78a24.74 24.74 0 0 0 8.12 3.11z" fill="#fde92b" opacity=".9"/><path d="M53.11 25.83l3.23-.22 10.81-5.71a8.34 8.34 0 0 0-1.67-2.7l-16 8.45a17.22 17.22 0 0 0 3.63.18z" fill="#91be4a" opacity=".9"/><path d="M61.73 25.48c4.19.2 6.28-1.76 5.63-4.71L56 25.2z" fill="#009e54" opacity=".9"/><path d="M39.07 32.4l-14.87-.57a10 10 0 0 0-10.38 9.61l-.15 4 29.68-11.87a9.89 9.89 0 0 0-4.28-1.17z" fill="#00a8de" opacity=".9"/><path d="M42.45 32.36L14 47l.59 10.48L48.52 40a10 10 0 0 0-6.07-7.64z" fill="#0070b4" opacity=".9"/><path d="M48.92 51.72l.08-9.47a10 10 0 0 0 0-1l-35 15-.15 10.5-.15 10.5 35.1-15z" fill="#333391" opacity=".9"/><path fill="#932b8d" opacity=".9" d="M49.09 62.35L13.87 77.12l-.23 10.49 35.22-14.77.23-10.49z"/><path fill="#e91388" opacity=".9" d="M48.63 82.56l-.24-10.49-34.52 16.32.24 10.5.24 10.49 34.52-16.32-.24-10.5z"/><path fill="#ea245f" opacity=".9" d="M49.73 94.79l-35.94 12.9-.78 10.46 35.94-12.89.78-10.47z"/><path fill="#eb2d2e" opacity=".9" d="M48.75 114.32l-.09-10.5-34.76 15.8.09 10.5.08 10.49 34.76-15.8-.08-10.49z"/><path fill="#f19432" opacity=".9" d="M47.65 123.52L14.2 141.94l.89 10.46 33.44-18.42-.88-10.46z"/><path d="M48 144.35l-1-10.45-33.25 18.72 1 10.45.89 9.43a10 10 0 0 0 .14 1L49 154.8z" fill="#fde92b" opacity=".9"/><path d="M48.09 155.43L14.23 173a10 10 0 0 0 6.08 7.65l28.39-14.7z" fill="#91be4a" opacity=".9"/><path d="M48.74 170.64l-.08-4-28.93 13.61a9.89 9.89 0 0 0 4.35.91l14.92-.31a10 10 0 0 0 9.74-10.21z" fill="#009e54" opacity=".9"/></svg>