<svg xmlns="http://www.w3.org/2000/svg" width="74.26" height="200" viewBox="0 0 74.26 200"><title>_</title><path d="M50.77 32.28a9.89 9.89 0 0 0-4.37-.79l-14.86.74A10 10 0 0 0 22 42.72l.2 4z" fill="#00a8de" opacity=".9"/><path d="M22.52 57.4l34-17.32a10 10 0 0 0-6-7.69L22 46.92z" fill="#0070b4" opacity=".9"/><path d="M21.14 65.06L20 75.49l36.36-11.64 1.14-10.43 1-9.41a10 10 0 0 0 .06-1L22.28 54.62z" fill="#333391" opacity=".9"/><path fill="#932b8d" opacity=".9" d="M22.21 88.42L56.7 72.03l-.26-10.49-34.49 16.39.26 10.49z"/><path fill="#e91388" opacity=".9" d="M21.19 96.7l-1.06 10.44L56.4 95.2l1.06-10.45 1.05-10.44-36.27 11.94-1.05 10.45z"/><path fill="#ea245f" opacity=".9" d="M23.45 121.36l32.92-19.35-1.18-10.43-32.92 19.35 1.18 10.43z"/><path fill="#eb2d2e" opacity=".9" d="M21.64 129.41l-.34 10.49 35.36-14.39.35-10.49.34-10.49-35.37 14.39-.34 10.49z"/><path fill="#f19432" opacity=".9" d="M21.5 150.44l35.33-14.47.32-10.49-35.34 14.47-.31 10.49z"/><path d="M22.48 162.69l.67 9.45a10 10 0 0 0 .12 1l33.64-17.95-.75-10.47-.75-10.47-33.69 18z" fill="#fde92b" opacity=".9"/><path d="M26.45 178.72l30.35-10.06 1-10.45-36.19 12a10 10 0 0 0 4.84 8.51z" fill="#91be4a" opacity=".9"/><path d="M32.46 181.72l14.84-1.16a10 10 0 0 0 9.19-10.75l-.31-4-28.11 15.25a9.89 9.89 0 0 0 4.39.66z" fill="#009e54" opacity=".9"/><path d="M53.57-4.52A10 10 0 0 0 44.74.75l11.91-5.26h-3.08z" fill="#00a8de" opacity=".9"/><path d="M56.62-4.55L44.75.82a9.91 9.91 0 0 0-1 2.76l18-8.17z" fill="#0070b4" opacity=".9"/><path d="M43.75 3.52a9.93 9.93 0 0 0-.2 1.95v2.77L69.1-3.13A9.9 9.9 0 0 0 64-4.52h-2.16z" fill="#333391" opacity=".9"/><path d="M44.31 11.88L70.41-3a10.09 10.09 0 0 0-2.05-1.26L44.08 9.58z" fill="#932b8d" opacity=".9"/><path d="M43.24 12v.75a9.91 9.91 0 0 0 0 1.51L73.62 2.75a10.05 10.05 0 0 0-2.15-3.7L43.37 9.7z" fill="#e91388" opacity=".9"/><path d="M44 16.66L74.11 4.52a9.88 9.88 0 0 0-.47-2.09L43.5 14.57a9.88 9.88 0 0 0 .5 2.09z" fill="#ea245f" opacity=".9"/><path d="M46.5 20.63L74.09 8.7V5.64A9.92 9.92 0 0 0 74 4.13L44.18 17a10.05 10.05 0 0 0 2.32 3.63z" fill="#eb2d2e" opacity=".9"/><path d="M47.88 21l26.56-8.73.23-2.27-28.55 9.35A10.09 10.09 0 0 0 47.88 21z" fill="#f19432" opacity=".9"/><path d="M53.93 24l2.21-.13 17.6-9.06a9.93 9.93 0 0 0 .08-2v-.45l-.13-2.31-24.88 12.89A9.9 9.9 0 0 0 53.93 24z" fill="#fde92b" opacity=".9"/><path d="M61.31 23.92l11.43-6.24a9.92 9.92 0 0 0 .77-2.83l-17.38 9.49z" fill="#91be4a" opacity=".9"/><path d="M64.32 23.89a10 10 0 0 0 8.25-6.14l-11.31 6.44z" fill="#009e54" opacity=".9"/><path d="M14.58-4.44a10 10 0 0 0-9 5l12-4.94z" fill="#00a8de" opacity=".9"/><path d="M17.71-4.4L5.65.51a9.91 9.91 0 0 0-1.08 2.72L22.9-4.23z" fill="#0070b4" opacity=".9"/><path d="M3.89 6.84L30.5-1.74a9.9 9.9 0 0 0-4.88-1.92l-2.2-.24L4.59 2.17a9.93 9.93 0 0 0-.4 1.92v.45z" fill="#333391" opacity=".9"/><path d="M4.95 11.39L31.6-2.51a10.09 10.09 0 0 0-2-1.34L4.8 9.08z" fill="#932b8d" opacity=".9"/><path d="M5 13.94v.76a9.91 9.91 0 0 0 .24 1.49L33.92.82a10.05 10.05 0 0 0-2.62-3.39L4.82 11.64z" fill="#e91388" opacity=".9"/><path d="M4.51 15.78L35.32 5.43A9.88 9.88 0 0 0 35 3.32L4.16 13.66a9.88 9.88 0 0 0 .35 2.12z" fill="#ea245f" opacity=".9"/><path d="M8 21.38L34.78 7.8l-.12-2.31v-.75a9.92 9.92 0 0 0-.2-1.49l-29 14.68A10.05 10.05 0 0 0 8 21.38z" fill="#eb2d2e" opacity=".9"/><path d="M9.42 22.18L35 10.91V8.6L7.51 20.71a10.09 10.09 0 0 0 1.91 1.47z" fill="#f19432" opacity=".9"/><path d="M14.75 23.91l2.25-.08 17.76-8.75a9.93 9.93 0 0 0 .12-2v-.45l-.09-2.31-25.14 12.4a9.9 9.9 0 0 0 5.1 1.19z" fill="#fde92b" opacity=".9"/><path d="M22.22 23.9l11.46-6.18a9.92 9.92 0 0 0 .78-2.82L17 24.29z" fill="#91be4a" opacity=".9"/><path d="M24.76 23.35A10 10 0 0 0 34 18.87l-12.31 4.2z" fill="#009e54" opacity=".9"/></svg>