<svg xmlns="http://www.w3.org/2000/svg" width="131.07" height="200" viewBox="0 0 131.07 200"><title>_</title><path d="M43.9 38.57c-3.19.45-6.42 1-9.59 1.54s-6 1.16-9 1.82l-2.8.63-6.48 1.69c-.51.15-.54 4.75-.03 10.23l.13 1.31 31.26-17.67c-1.16.14-2.33.28-3.49.45z" fill="#00a8de" opacity=".9"/><path d="M54.88 39.56c-2.21 0-4.46 0-6.71.1l-32.8 14.57v11l55.72-24.72a135.93 135.93 0 0 0-16.21-.95z" fill="#0070b4" opacity=".9"/><path d="M37.31 68.05c.5-5.48 1.42-10 2.06-10.05H40c1.43-.09 3-.13 4.58-.14s3.53 0 5.4.11 4.08.23 6.21.42a76.38 76.38 0 0 1 19 4l26.61-9.08a67.6 67.6 0 0 0-12.33-6.61 92.79 92.79 0 0 0-14.89-4.65l-1.43-.3-57.73 19.69-2 22 23.22-7.94z" fill="#333391" opacity=".9"/><path d="M37.75 88.31l-.06-11-22.34 10.06v3.19c0 5.5-3.68 10-8.25 10a8.19 8.19 0 0 0-7.1 4.81l37.75-17.06zM75.32 62.47c1.39.23 2.76.49 4.07.8a46.21 46.21 0 0 1 9.24 3.27l21.33-12a54.55 54.55 0 0 0-10.13-5.84z" fill="#932b8d" opacity=".9"/><path d="M88.13 64.65a37.82 37.82 0 0 1 13.12 16.78L122.76 74a56.49 56.49 0 0 0-10.61-16.41c-.29-.32-.6-.62-.9-.93zM60.36 103.06l-12.28-1a10 10 0 0 1-9.15-10.78l.17-2.12L0 102.86a10.46 10.46 0 0 0-1.53 4.67c-.47 5.2 2.95 9.77 7.53 10.14a7.46 7.46 0 0 1 5 2.69z" fill="#e91388" opacity=".9"/><path d="M102.38 80.55a44 44 0 0 1 1.79 5.62c.33 1.34.59 2.73.81 4.14l22-7.36c-.28-1.24-.59-2.46-.94-3.65a60.17 60.17 0 0 0-2.1-6zM72.28 104.59a10.07 10.07 0 0 0-9.23-5l-3.68.17-46.76 23.4a10.88 10.88 0 0 1 3.4 7.59l.09 1.94z" fill="#ea245f" opacity=".9"/><path d="M106.07 90.76a66 66 0 0 1 1.31 16.9c-.05 1.5-.15 3-.27 4.42l23.49-9.46a87.26 87.26 0 0 0-.77-10.27 71.5 71.5 0 0 0-2.2-10.27zM36.54 142.9l1-11 .27-3a10 10 0 0 1 10.87-9l15.93 1.46a9.79 9.79 0 0 0 10.83-8.55 9 9 0 0 0-.62-4.19l-59.49 20.2-2 22 23.22-7.89z" fill="#eb2d2e" opacity=".9"/><path d="M107.68 112.19A78.4 78.4 0 0 1 106 123.8l24.8-10.3c.13-1.76.24-3.53.29-5.34s0-3.82 0-5.68zM37.78 154.79v-1.8l.15-9.23-22.56 9.61-.18 11z" fill="#f19432" opacity=".9"/><path d="M105.77 124.25a60.42 60.42 0 0 1-1.68 7.94 44.81 44.81 0 0 1-9.5 17.7 41.47 41.47 0 0 1-7.06 6.26l38.91-19.8a80.08 80.08 0 0 0 2.69-13.35 95.19 95.19 0 0 0 .58-10.93zM74.41 162.41A75.79 75.79 0 0 1 53 163.85c-1.63-.1-3.25-.22-4.83-.34s-3.1-.26-4.56-.42-2.86-.32-4.11-.5l-.5-.06c-.43-.07-.56-3.67-.34-8.32l-23 8.56-.38 6.07c-.34 5.49-.13 10.07.47 10.18l5.63 1 2.38.33 1.9.25z" fill="#fde92b" opacity=".9"/><path d="M85.88 154a47.83 47.83 0 0 1-9.19 5.63q-1.27.6-2.61 1.14L29 186.7c1.82-.07 3.72-.16 5.66-.27 2.64-.16 5.42-.36 8.25-.6s5.86-.52 9-.85h.38l66.18-38a68.06 68.06 0 0 0 4.94-13.26c.12-.46.21-.93.32-1.39z" fill="#91be4a" opacity=".9"/><path d="M50.05 182.78a133.23 133.23 0 0 0 18.46-1.51 100.48 100.48 0 0 0 16.68-4l3.7-1.27 6.73-3.12 2.56-1.37 1.21-.72a56 56 0 0 0 11.37-8.89 63.68 63.68 0 0 0 8.55-10.95v-.08z" fill="#009e54" opacity=".9"/></svg>