<svg xmlns="http://www.w3.org/2000/svg" width="122.44" height="200" viewBox="0 0 122.44 200"><title>_</title><path d="M35.34 31.68c-.17-.27-4.81-.28-10.3 0l-15.47.72A10 10 0 0 0 0 42.83l.31 6.58 35.1-17.61z" fill="#00a8de" opacity=".9"/><path d="M40.81 41.19l-5.4-8.94L0 49.12l.32 13.07 41.29-19.67z" fill="#0070b4" opacity=".9"/><path d="M111.63 32h-13a10 10 0 0 0-10 10v6.33l30.06-13.43a10 10 0 0 0-7.06-2.9zM42.58 43.65L.11 60.63l-.5 13.06-.5 13.07 54.53-21.81-11.06-21.3z" fill="#333391" opacity=".9"/><path fill="#932b8d" opacity=".9" d="M51.38 61.35L.74 91.11l1.47 13 56.24-33.06-7.07-9.7zM121.59 41.85a10 10 0 0 0-3-7l-30 13.67.12 13.07 32.89-15z"/><path fill="#e91388" opacity=".9" d="M121.2 58.85l-.74-13.06-32.14 16.55 1.48 26.11 32.14-16.55-.74-13.05zM61.09 75.84L0 98.71l-.79 13-.79 13 33.86-12.68 1-16.6c.33-5.49 2.6-5.95 5-1l6.42 13 26.98-10.05z"/><path fill="#ea245f" opacity=".9" d="M121.53 72.71l-32.9 14.97.1 13.07 32.91-14.97-.11-13.07zM70.29 94.27l-25.01 14.2 6.96 9.78 24.98-14.18-6.93-9.8zM1.28 141.55l31.55-17.66-1.19-13.01L.09 128.53l1.19 13.02z"/><path fill="#eb2d2e" opacity=".9" d="M.12 153.56l.31 13.07 32.67-15.47-.61-26.14-32.67 15.47.3 13.07zM122.44 101.39l.88-13-33.94 12.41-1 14.77c-.37 5.49-2.63 5.93-5 1L77.8 105l-27 9.89 10.52 21.58 60.2-22.08z"/><path fill="#f19432" opacity=".9" d="M119.54 109.05l-55.47 32.16 7.05 9.72 49.81-28.88-1.39-13zM-.14 170.72a10 10 0 0 0 2.85 7.11l30.26-13 .18-13.07L-.07 166z"/><path d="M9.5 180.49l13 .73a10 10 0 0 0 10.54-9.43l.35-6.32-30.77 11.69a10 10 0 0 0 6.88 3.33zM122.09 139.63l.7-13.05-53.78 20.57 10.82 21.44 41.56-15.9.7-13.06z" fill="#fde92b" opacity=".9"/><path d="M121.92 151.69l-41 17.31 1 1.9 4.73 8.63 35-14.75z" fill="#91be4a" opacity=".9"/><path d="M87 179.82l.37.64c.16.28 4.79.5 10.29.49h14a10 10 0 0 0 10-10v-6.58z" fill="#009e54" opacity=".9"/><path d="M43.18-4.73A23.63 23.63 0 0 0 37.49-3 22 22 0 0 0 32.55.08a23.75 23.75 0 0 0-3 3l20.56-8.13a29.37 29.37 0 0 0-6.93.32z" fill="#00a8de" opacity=".9"/><path d="M28.7 5a27.66 27.66 0 0 0-1.56 2.78L55.19-4.87 55-4.91c-.47-.11-.94-.2-1.41-.28s-.95-.15-1.43-.2-1-.09-1.44-.12h-.82L29.71 3.58C29.36 4 29 4.51 28.7 5z" fill="#0070b4" opacity=".9"/><path d="M27 8.52c-.52 1.15-1 2.42-1.48 3.78-.33 1-.65 2.05-.95 3.16L62.82-2.65l-4-1.4-.36-.11-1.11-.34-1.21-.31L55-5.07 27.17 8.09c-.07.15-.17.28-.17.43z" fill="#333391" opacity=".9"/><path d="M24.86 18.27l-.26 1.56-.09.77L65.68-3l-2.48-.61L61.86-4 25.09 17c-.09.47-.16.86-.23 1.27z" fill="#932b8d" opacity=".9"/><path d="M21.47 20c-.14.43.88.93 2.6 1.38l51.1-17-2.76-1.21c-1-.43-2.79-1.28-4.61-2.16l-45 15c-.55 1.61-1.1 3.32-1.33 3.99z" fill="#e91388" opacity=".9"/><path d="M30.14 22.26h.1l10.42-3.92.18-.34a9 9 0 0 1 .78-1.09 7.46 7.46 0 0 1 .83-.85 5.28 5.28 0 0 1 1.9-1 6.32 6.32 0 0 1 1.16-.22 10.47 10.47 0 0 1 2.07 0l.66.16.68.11.27.05L99.46-3.78a40 40 0 0 0-5.86-.75L82.67-.42c-.2.36-.41.7-.63 1a12.09 12.09 0 0 1-.8 1 2.82 2.82 0 0 1-.63.54 3.94 3.94 0 0 1-.93.42 6.52 6.52 0 0 1-1.34.26 10.84 10.84 0 0 1-2.38 0l-.55-.09-.48-.12h-.15l-50.41 19a38.94 38.94 0 0 0 5.77.67z" fill="#ea245f" opacity=".9"/><path d="M40.14 23c.1-.53.3-1.46.44-2.07l.16-.51c.12-.37.26-.72.4-1.05l-10 5c4.86-.26 8.86-.87 9-1.37zM50.68 17.52l.67.08.65.12.71.16.29.05 4.57 1.23.94.25L100-2.3c.23-1.74.45-3.53.52-4.24 0-.42-1-.73-2.66-.89L50.25 17.49z" fill="#eb2d2e" opacity=".9"/><path d="M61.67 19.79l37.8-17.28c.1-.34.21-.67.3-1l.44-1.65.15-.79-42.57 19.46z" fill="#f19432" opacity=".9"/><path d="M62.35 21.07l.54.13 1.6.35 1.64.32 1.62.29q1.47.28 2.76.47h.29L96.31 8.92a38.89 38.89 0 0 0 1.43-3.75c.4-1.24.73-2.54 1-3.86L62.17 21z" fill="#fde92b" opacity=".9"/><path d="M72.19 22.35c.76.13 1.49.23 2.17.3l.72.06 18.82-8.42a35 35 0 0 0 2.22-3.45c.13-.24.25-.5.38-.74L70.05 21.93c.76.16 1.48.31 2.14.42z" fill="#91be4a" opacity=".9"/><path d="M76.61 23.35a27.22 27.22 0 0 0 5.15-.87 21.25 21.25 0 0 0 4.55-1.82 18.82 18.82 0 0 0 3.86-2.8 19.7 19.7 0 0 0 3.07-3.71c.11-.17.21-.36.32-.53l-18.15 9.77c.43-.01.83-.02 1.2-.04z" fill="#009e54" opacity=".9"/></svg>