<svg xmlns="http://www.w3.org/2000/svg" width="164.99" height="200" viewBox="0 0 164.99 200"><title>_</title><path d="M80.19 25a98.32 98.32 0 0 0-14.71 2.62 72 72 0 0 0-12.75 4.58A57.35 57.35 0 0 0 42 38.84l-3.23 2.55c-2.93 3.3-8.12 9.53-11.53 13.84 0 0-.14.18-2.53 4.74-.1.18-.18.38-.27.56L87 24.49c-2.23.09-4.5.24-6.81.51z" fill="#00a8de" opacity=".9"/><path d="M108.84 35.23a74.05 74.05 0 0 0-10.34-3.35c-2.54-.62-5.22-1.14-8-1.56L22.22 53.76a68.57 68.57 0 0 0-7.94 12.94c-.18.38-.34.78-.51 1.16z" fill="#0070b4" opacity=".9"/><path d="M50.43 81c.35-1 .73-2 1.14-2.89a37.73 37.73 0 0 1 4-7 34.59 34.59 0 0 1 5.12-5.63 30.56 30.56 0 0 1 6-4.1 32.2 32.2 0 0 1 6.92-2.63 41.48 41.48 0 0 1 15.93-.77A32.63 32.63 0 0 1 94.07 59l34.66-17.47c-2-1.72-3.79-3.3-5.2-4.47L120 35a57.35 57.35 0 0 0-11.63-4.94c-.85-.26-1.72-.49-2.6-.71L16 74.61a88.24 88.24 0 0 0-3.08 15.51c-.35 3.23-.55 6.6-.61 10.08z" fill="#333391" opacity=".9"/><path d="M94 58.48c.84.38 1.67.78 2.46 1.22a30.05 30.05 0 0 1 5.82 4.3c.69.65 1.36 1.36 2 2.09L138 54c-2.09-2.52-4.85-5.71-7.4-8.58zM46.09 92.83A62.81 62.81 0 0 1 47.56 85a49.68 49.68 0 0 1 1.77-5.46L10.69 97.81c-.13 2.89-.17 5.86-.11 8.89 0 1 .07 1.88.11 2.82z" fill="#932b8d" opacity=".9"/><path d="M105.07 67.51a35.53 35.53 0 0 1 3.25 3.37 38.27 38.27 0 0 1 4.5 6.73 48 48 0 0 1 3.32 8.1l31.73-15.2-.11-.31a68.47 68.47 0 0 0-7.46-13.93c-2.46-3.52-2.89-4.12-3-4.22zM45.26 118.18a92.75 92.75 0 0 1 .42-10.28 91.61 91.61 0 0 1 1.69-11c.14-.64.3-1.27.46-1.9l-37.09 12.43a116.36 116.36 0 0 0-.15 15.88c.14 2.15.37 4.25.64 6.32z" fill="#e91388" opacity=".9"/><path d="M115.61 84.43v.06a65.51 65.51 0 0 1 1.39 9.77v1l33.85-12.85a83.83 83.83 0 0 0-2.37-10.44zM47.84 127.62v-.12a64.69 64.69 0 0 1-1.71-9.73c0-.29 0-.59-.07-.88l-33.11 13.9a83.79 83.79 0 0 0 2.77 10.28z" fill="#ea245f" opacity=".9"/><path d="M117.33 98.06a93.56 93.56 0 0 1 1.64 10 93 93 0 0 1 .58 11.16c0 .7 0 1.4-.06 2.09l34-19.82a120 120 0 0 0-3.09-15.91c-.54-2-1.15-3.9-1.79-5.79zM58.57 144.73a35.91 35.91 0 0 1-3.37-3.33 37.73 37.73 0 0 1-4.67-6.63 47.36 47.36 0 0 1-3.48-8l-31.17 15.6a70.84 70.84 0 0 0 7.69 13.83c3 4.21 3.21 4.4 3.21 4.4z" fill="#eb2d2e" opacity=".9"/><path d="M117.25 118.44a63.73 63.73 0 0 1-2.1 7.51 50.24 50.24 0 0 1-2.26 5.4l40.26-14.86c.39-2.89.7-5.85.9-8.9.06-.94.09-1.85.13-2.78zM69.57 153.27c-.86-.35-1.71-.72-2.52-1.13a30.54 30.54 0 0 1-6-4c-.72-.62-1.41-1.29-2.09-2l-33 13.18c2.15 2.47 5 5.58 7.62 8.37z" fill="#f19432" opacity=".9"/><path d="M114.13 133.12c-.4.92-.82 1.83-1.27 2.69a37.93 37.93 0 0 1-4.46 6.74 34 34 0 0 1-5.4 5.25 30.05 30.05 0 0 1-6.2 3.67 31.91 31.91 0 0 1-7.05 2.13 41.52 41.52 0 0 1-15.95-.36 32.92 32.92 0 0 1-4.44-1.36l-35.76 15c1.81 1.86 3.53 3.57 4.84 4.83l3.4 2.29a57.33 57.33 0 0 0 11.25 5.74c.83.32 1.68.61 2.54.9l92.47-38.72a88.4 88.4 0 0 0 4.32-15.66c.56-3.1 1-6.34 1.3-9.68z" fill="#fde92b" opacity=".9"/><path d="M55.52 179.22A74.07 74.07 0 0 0 66 182.16c2.56.52 5.26.93 8 1.24l67-26a71 71 0 0 0 7.67-13.77c.09-.22.18-.46.27-.69z" fill="#91be4a" opacity=".9"/><path d="M82.73 186.39a98.29 98.29 0 0 0 14.82-1.92 72 72 0 0 0 13-4 57.35 57.35 0 0 0 11.05-6.12l3.3-2.35c3.12-3.18 8.55-9.24 12.09-13.46 0 0 .23-.27 2.79-4.76v-.09l-63.9 32.88c2.26 0 4.53-.05 6.85-.18z" fill="#009e54" opacity=".9"/><path d="M82.07-11.15l-27.4 8.87L56.91.45l26.65-8.63z" fill="#932b8d" opacity=".9"/><path d="M83-9.87L57.65 2l5.11 4.87 24-11.17z" fill="#e91388" opacity=".9"/><path d="M87.2-3.35l-.2-.31-24.53 9.84 2.42 2.57L88.71-.8z" fill="#ea245f" opacity=".9"/><path d="M89-.77L65 8.45l4.71 5.16.05.05L92.26 5z" fill="#eb2d2e" opacity=".9"/><path d="M92.54 5l-22.6 8.35a19.5 19.5 0 0 0 2.76 2.48l21.45-7.94z" fill="#f19432" opacity=".9"/><path d="M97.5 12.1l-3.86-5.41L73.23 17a31 31 0 0 0 8.13 3.26z" fill="#fde92b" opacity=".9"/><path d="M87.15 21.27l11.56-6.12a8.33 8.33 0 0 0-1.45-3l-16 8.46a22.8 22.8 0 0 0 5.89.66z" fill="#91be4a" opacity=".9"/><path d="M87 20.45l5.69.62c4.18.45 6.6-1.52 6.41-4.67l-12.46 4z" fill="#009e54" opacity=".9"/></svg>