<svg xmlns="http://www.w3.org/2000/svg" width="152.42" height="200" viewBox="0 0 152.42 200"><title>_</title><path d="M82.71 30.55a98.31 98.31 0 0 0-14.92.79 72 72 0 0 0-13.22 3 57.25 57.25 0 0 0-11.48 5.26l-3.52 2.13c-3.32 2.91-9.24 8.46-13.15 12.32 0 0-.17.16-3.09 4.39-.12.17-.22.35-.34.53l66.53-28.06c-2.22-.18-4.52-.31-6.81-.36z" fill="#00a8de" opacity=".9"/><path d="M108.82 35.9a74 74 0 0 0-10.46-3c-2.56-.53-5.26-.94-8-1.26L23 57.65a68.48 68.48 0 0 0-7.5 13.24c-.16.38-.31.79-.47 1.18z" fill="#0070b4" opacity=".9"/><path d="M49.78 81.85c.43-1 .87-1.9 1.35-2.79a37.73 37.73 0 0 1 4.56-6.71 34.69 34.69 0 0 1 5.53-5.22 30.58 30.58 0 0 1 6.28-3.63 32.08 32.08 0 0 1 7.1-2.09 41.47 41.47 0 0 1 15.94.45A32.8 32.8 0 0 1 95 63.25l35.89-14.77c-1.82-1.87-3.53-3.59-4.84-4.85l-3.41-2.29a57.28 57.28 0 0 0-11.22-5.81c-.83-.32-1.68-.62-2.54-.91L15.9 72.87a88.25 88.25 0 0 0-4.25 15.24c-.6 3.19-1 6.54-1.38 10z" fill="#333391" opacity=".9"/><path d="M95.5 65c.9.21 1.78.45 2.64.74a30.09 30.09 0 0 1 6.51 3.11c.8.51 1.59 1.08 2.37 1.68l30.83-18.12c-2.53-2.08-5.84-4.71-8.87-7zM46.53 94.37a62.85 62.85 0 0 1 1-7.86A49.47 49.47 0 0 1 49 81l-37.54 20.31c0 2.9.15 5.86.38 8.89.07.95.18 1.88.27 2.81z" fill="#932b8d" opacity=".9"/><path d="M105.69 69.31a35.59 35.59 0 0 1 3.14 3.47 38.27 38.27 0 0 1 4.3 6.86 48.06 48.06 0 0 1 3.08 8.19l32.16-14.25-.1-.31a68.52 68.52 0 0 0-7-14.14c-2.36-3.59-2.77-4.2-2.84-4.31zM46.06 119.92a92.79 92.79 0 0 1 0-10.29 91.7 91.7 0 0 1 1.24-11.1c.12-.65.25-1.29.38-1.92l-36.55 14a116.58 116.58 0 0 0 .5 15.87c.23 2.14.54 4.23.9 6.29z" fill="#e91388" opacity=".9"/><path d="M116.51 89.62v.06a65.32 65.32 0 0 1 2.86 9.44c.07.31.13.64.2 1l31.42-18a83.77 83.77 0 0 0-4-9.94zM48.42 130.36v-.12a64.66 64.66 0 0 1-1.54-9.76c0-.29 0-.59-.06-.88l-33.38 13.3A83.8 83.8 0 0 0 16 143.23z" fill="#ea245f" opacity=".9"/><path d="M118.38 98.07a93.5 93.5 0 0 1 .25 10.16 92.82 92.82 0 0 1-.95 11.14c-.1.7-.22 1.38-.35 2.06l36.39-15a119.9 119.9 0 0 0-.89-16.18c-.26-2-.61-4-1-6zM59.05 148.27a35.89 35.89 0 0 1-3.19-3.5 37.69 37.69 0 0 1-4.31-6.87 47.19 47.19 0 0 1-3.06-8.15l-31.95 13.94a70.69 70.69 0 0 0 7 14.22c2.8 4.36 3 4.56 3 4.56z" fill="#eb2d2e" opacity=".9"/><path d="M118.06 123.4a63.45 63.45 0 0 1-.91 7.75 50.24 50.24 0 0 1-1.4 5.68l37.46-20.93c-.06-2.91-.22-5.89-.5-8.93-.08-.94-.2-1.85-.3-2.77zM69.78 154c-.89-.28-1.76-.58-2.6-.93a30.58 30.58 0 0 1-6.32-3.56c-.77-.56-1.51-1.17-2.24-1.82l-31.86 15.73c2.34 2.29 5.42 5.17 8.26 7.74z" fill="#f19432" opacity=".9"/><path d="M115.26 136.35c-.44.91-.89 1.79-1.37 2.64a37.81 37.81 0 0 1-4.71 6.57 34 34 0 0 1-5.63 5 30.15 30.15 0 0 1-6.34 3.44 31.89 31.89 0 0 1-7.13 1.87 41.52 41.52 0 0 1-15.93-1 32.75 32.75 0 0 1-4.38-1.52L33.48 167c1.74 1.93 3.39 3.7 4.65 5l3.34 2.4a57.27 57.27 0 0 0 11 6.16c.82.35 1.66.67 2.51 1l93.87-35.21a88.55 88.55 0 0 0 4.91-15.48c.68-3.07 1.23-6.29 1.66-9.62z" fill="#fde92b" opacity=".9"/><path d="M55.94 181.25a74 74 0 0 0 10.44 3c2.56.54 5.25 1 8 1.31l67.2-25.47a71.08 71.08 0 0 0 7.8-13.71c.1-.22.18-.46.28-.69z" fill="#91be4a" opacity=".9"/><path d="M82.06 186.72A98.28 98.28 0 0 0 97 186a72.13 72.13 0 0 0 13.24-2.93 57.26 57.26 0 0 0 11.51-5.2l3.53-2.1c3.37-2.92 9.28-8.51 13.15-12.43 0 0 .25-.25 3.17-4.51l.05-.08-66.39 27.57c2.21.2 4.48.34 6.8.4z" fill="#009e54" opacity=".9"/><path fill="#333391" opacity=".9" d="M102.74-12.1l-4.53.52L77.29.74 74.3 6.8l32.98-19.41-4.54.51z"/><path d="M111.85-10.66h-3.57L73.3 4.85l-1.83 2.84 41.29-18.31c-.29-.02-.59-.04-.91-.04z" fill="#932b8d" opacity=".9"/><path d="M112.9-10.4L71.41 7.47l-3.72 5.64L117-8.12c-.38-1.24-1.77-2.08-4.1-2.28z" fill="#e91388" opacity=".9"/><path d="M117.53-6.94L67.32 12l-1.18 1.62a10.41 10.41 0 0 0-.67 1.06l51.7-19.52a3.07 3.07 0 0 0 .36-2.1z" fill="#ea245f" opacity=".9"/><path d="M114.42-4.28a8.72 8.72 0 0 0 1.86-2.66l-49.9 23.78a5.59 5.59 0 0 0-.4 4.3L110.24 0z" fill="#eb2d2e" opacity=".9"/><path d="M110.27.24L65.75 20.79a3.82 3.82 0 0 0 1.07 1.55L106.55 4z" fill="#f19432" opacity=".9"/><path d="M105.76 2.59L67.43 23.71a6.82 6.82 0 0 0 4.78 1.06l1.16-.1 25.5-14.05z" fill="#fde92b" opacity=".9"/><path fill="#91be4a" opacity=".9" d="M99.61 13l-27.62 9.19 4.54.44 18.97-6.31L99.61 13z"/><path d="M95.49 15.78L76.9 23.12c5.49.23 13.33-2.59 17.41-6.27z" fill="#009e54" opacity=".9"/></svg>