<svg xmlns="http://www.w3.org/2000/svg" width="152.32" height="200" viewBox="0 0 152.32 200"><title>_</title><path d="M80.76 26.56a98.32 98.32 0 0 0-14.85 1.68A72 72 0 0 0 52.9 32a57.35 57.35 0 0 0-11.15 6l-3.39 2.34c-3.14 3.1-8.71 9-12.38 13.09 0 0-.16.17-2.82 4.57-.11.18-.2.37-.31.55l64.73-32c-2.23-.09-4.5-.08-6.82.01z" fill="#00a8de" opacity=".9"/><path d="M104.51 26.15a74.05 74.05 0 0 0-10.8-1.24c-2.61-.11-5.34-.09-8.13 0L23.26 61.43A68.57 68.57 0 0 0 18 75.69c-.1.4-.18.83-.27 1.24z" fill="#0070b4" opacity=".9"/><path d="M50.41 81.51c.33-1 .67-2 1.06-2.92a37.73 37.73 0 0 1 3.84-7.14 34.59 34.59 0 0 1 5-5.77 30.56 30.56 0 0 1 5.87-4.26A32.2 32.2 0 0 1 73 58.6a41.48 41.48 0 0 1 15.9-1.2 32.63 32.63 0 0 1 4.54.93l34.17-18.42c-2-1.67-3.88-3.2-5.32-4.32l-3.63-1.93A57.35 57.35 0 0 0 106.88 29c-.86-.23-1.73-.44-2.62-.64L15.79 76.1a88.24 88.24 0 0 0-2.65 15.59c-.26 3.23-.37 6.62-.33 10.1z" fill="#333391" opacity=".9"/><path d="M93.56 58.7c.85.37 1.67.76 2.47 1.2a30.05 30.05 0 0 1 5.86 4.21c.7.64 1.38 1.34 2 2.07l33.58-12.38c-2.12-2.5-4.91-5.67-7.48-8.51zM45.52 92.22a62.81 62.81 0 0 1 1.18-7.84 49.68 49.68 0 0 1 1.56-5.52L10.34 98.54c0 2.9 0 5.86.23 8.89.06 1 .14 1.88.22 2.82z" fill="#932b8d" opacity=".9"/><path d="M104.66 66.66a35.53 35.53 0 0 1 3.11 3.5 38.27 38.27 0 0 1 4.23 6.9 48 48 0 0 1 3 8.22l32.3-13.91-.1-.31a68.47 68.47 0 0 0-6.89-14.21c-2.32-3.61-2.73-4.23-2.8-4.34zM45 117.56a92.75 92.75 0 0 1 0-10.29 91.61 91.61 0 0 1 1.29-11.1c.12-.65.25-1.28.39-1.92l-36.59 13.82a116.36 116.36 0 0 0 .43 15.87c.22 2.14.52 4.23.87 6.3z" fill="#e91388" opacity=".9"/><path d="M115.11 84.35v.06a65.51 65.51 0 0 1 1.3 9.77v1l33.9-12.69A83.83 83.83 0 0 0 148.06 72zM47.4 129v-.12a64.69 64.69 0 0 1-.92-9.84v-.89l-34.15 11.21a83.79 83.79 0 0 0 1.93 10.47v.05z" fill="#ea245f" opacity=".9"/><path d="M117.17 96.27a93.56 93.56 0 0 1 .62 10.15 93 93 0 0 1-.55 11.16c-.08.7-.17 1.39-.27 2.07l35.82-16.3a120 120 0 0 0-1.47-16.14c-.34-2-.75-4-1.2-5.94zM58 145.86a35.91 35.91 0 0 1-3.18-3.5 37.73 37.73 0 0 1-4.31-6.87 47.36 47.36 0 0 1-3.05-8.16l-32 13.91a70.84 70.84 0 0 0 6.95 14.22c2.79 4.36 3 4.56 3 4.56z" fill="#eb2d2e" opacity=".9"/><path d="M116.87 120a63.73 63.73 0 0 1-1.37 7.68 50.24 50.24 0 0 1-1.74 5.59l38.66-18.63c.11-2.91.13-5.89 0-8.94 0-.94-.09-1.85-.13-2.78zM68.49 150.69c-.9-.24-1.78-.51-2.64-.82a30.54 30.54 0 0 1-6.46-3.3c-.79-.53-1.56-1.11-2.32-1.72l-31.18 17c2.43 2.2 5.63 4.95 8.57 7.4z" fill="#f19432" opacity=".9"/><path d="M113.58 133c-.4.92-.81 1.83-1.26 2.69a37.93 37.93 0 0 1-4.43 6.76 34 34 0 0 1-5.41 5.28 30.05 30.05 0 0 1-6.19 3.7 31.91 31.91 0 0 1-7 2.17 41.52 41.52 0 0 1-16-.28 32.92 32.92 0 0 1-4.43-1.32l-35.69 15.14C35 169 36.71 170.7 38 172l3.44 2.26a57.33 57.33 0 0 0 11.28 5.69c.83.31 1.69.6 2.55.88l92.29-39.15a88.4 88.4 0 0 0 4.27-15.68c.55-3.1 1-6.34 1.25-9.68z" fill="#fde92b" opacity=".9"/><path d="M55.7 181a74.07 74.07 0 0 0 10.58 2.53c2.58.42 5.29.73 8.08.93l65.92-28.62a71 71 0 0 0 7.14-14.06c.09-.23.16-.47.24-.7z" fill="#91be4a" opacity=".9"/><path d="M82.6 186.93a98.29 98.29 0 0 0 14.77-2.23 72 72 0 0 0 12.86-4.28 57.35 57.35 0 0 0 10.92-6.36l3.29-2.46c3-3.25 8.35-9.42 11.79-13.71 0 0 .22-.28 2.69-4.81v-.09l-63.13 34.24c2.21-.03 4.49-.12 6.81-.3z" fill="#009e54" opacity=".9"/><path d="M84.39-14.22l-3.36.3-20.7 11.49-3.7 5.68 31.26-17.37a16.41 16.41 0 0 0-3.5-.1z" fill="#0070b4" opacity=".9"/><path d="M89.39-11.56L55.81.74l-9.08 10.08L97.14-7.66a25.32 25.32 0 0 0-7.75-3.9z" fill="#333391" opacity=".9"/><path d="M96.07-10.22L47.86 13.41l-.54.74A7.35 7.35 0 0 0 45.73 18L99-8.14a21.74 21.74 0 0 0-2.93-2.08z" fill="#932b8d" opacity=".9"/><path d="M100.48-6.82a15.58 15.58 0 0 0-1.92-1.8L45.88 18.71c-.06 2.44 2 4 5.78 3.76h.82l50.63-26.32z" fill="#e91388" opacity=".9"/><path d="M104.76.52L50.55 18.23l7.74.77 16.58-5.42.3-.29a7.1 7.1 0 0 1 7.28-2.19l24-7.86z" fill="#ea245f" opacity=".9"/><path d="M59.49 20.33c5.33.52 12.46-2 16.13-5.54l-16.55 5.5zM105.66.39l-23 10.45a7.58 7.58 0 0 1 4.52 2.89 13.27 13.27 0 0 0 1.3 1.42l21.24-9.65z" fill="#eb2d2e" opacity=".9"/><path d="M110.29 6.62l-22.2 7.25a19 19 0 0 0 2.58 2.49l21.36-7z" fill="#f19432" opacity=".9"/><path d="M115.64 12.75l-4.13-4.89-20.17 9.9a24.73 24.73 0 0 0 8.14 3.06l16.24-8z" fill="#fde92b" opacity=".9"/><path d="M117.31 16.95a8.34 8.34 0 0 0-1.22-2.95L99 19.81a17.22 17.22 0 0 0 3.55.75l3.22.3z" fill="#91be4a" opacity=".9"/><path d="M111.63 21.08c4.18.38 6.35-1.5 5.82-4.46l-11.58 3.94z" fill="#009e54" opacity=".9"/></svg>