<svg xmlns="http://www.w3.org/2000/svg" width="141.67" height="200" viewBox="0 0 141.67 200"><title>_</title><path d="M64.24-8.84c-.47-.16-.94-.24-1.41-.33s-.95-.18-1.43-.25-1-.12-1.44-.16h-.85L38.65-1.19c-.36.45-.72.9-1.06 1.38a27.35 27.35 0 0 0-1.65 2.73L64.39-8.8z" fill="#0070b4" opacity=".9"/><path d="M68.1-8l-.36-.12-1.11-.36-1.2-.35-1.14-.29L36.1 3.21c-.07.14-.15.27-.22.42a40.56 40.56 0 0 0-1.59 3.74c-.36 1-.71 2-1 3.13L72-6.48z" fill="#333391" opacity=".9"/><path d="M74-4.58l-1.25-.59L32.83 9c-.15.38-.3.75-.44 1.15l-.54 1.49-.23.73L76.33-3.5z" fill="#932b8d" opacity=".9"/><path d="M80.34-3.86c-1-.32-2.91-1-4.83-1.63l-43 19.93c-.35 1.67-.72 3.42-.86 4.15-.09.45 1 .83 2.74 1.08L83.22-3z" fill="#e91388" opacity=".9"/><path d="M102.59-9L91.66-4.85c-.2.35-.4.7-.62 1a12.33 12.33 0 0 1-.8 1 2.86 2.86 0 0 1-.63.54 3.94 3.94 0 0 1-.94.42 6.6 6.6 0 0 1-1.33.26 11.43 11.43 0 0 1-2.39 0l-.55-.09-.48-.12h-.15L33.38 17.21a38.94 38.94 0 0 0 5.8.72h.1L49.69 14l.18-.31a9.11 9.11 0 0 1 .78-1.1 7.56 7.56 0 0 1 .83-.85 5.27 5.27 0 0 1 1.89-1 6.32 6.32 0 0 1 1.16-.23 10.4 10.4 0 0 1 2.06 0l.67.08.68.11.27.05 50.23-19a40 40 0 0 0-5.85-.75z" fill="#ea245f" opacity=".9"/><path d="M49.07 18.85c.14-.52.4-1.44.58-2l.19-.49c.14-.36.3-.7.47-1L40 19.6c4.88.1 8.93-.24 9.07-.75zM109.44-11.07c0-.42-1-.72-2.67-.87L59.33 13.23h.42l.67.08.69.11.71.15.25.06 4.57 1.2.94.25 41.36-21.91c.22-1.74.43-3.53.5-4.24z" fill="#eb2d2e" opacity=".9"/><path d="M109.35-1.23l.57-1.61.21-.78-44 16L69.92 14 109-.25c.1-.33.23-.65.35-.98z" fill="#f19432" opacity=".9"/><path d="M107.18 1.91c.48-1.21.89-2.49 1.27-3.79l-37.8 17.3.17.06.53.16 1.57.46 1.61.43 1.6.39q1.45.37 2.72.64l.29.06L105.5 5.56a39.29 39.29 0 0 0 1.68-3.65z" fill="#fde92b" opacity=".9"/><path d="M82.93 17.56l.72.11 19.4-7a35.19 35.19 0 0 0 2.47-3.28c.15-.23.29-.48.44-.71l-27.27 9.8c.74.22 1.45.42 2.1.58s1.46.39 2.14.5z" fill="#91be4a" opacity=".9"/><path d="M85 17.77a27.23 27.23 0 0 0 5.23-.12A21.16 21.16 0 0 0 95 16.5a18.79 18.79 0 0 0 4.22-2.21 19.7 19.7 0 0 0 3.57-3.23c.13-.15.26-.32.39-.48l-19.36 7.06c.42.05.82.1 1.18.13z" fill="#009e54" opacity=".9"/><path d="M71.33 28.34a98.32 98.32 0 0 0-14.92.66 72 72 0 0 0-13.24 2.9 57.35 57.35 0 0 0-11.53 5.17l-3.54 2.1c-3.34 2.88-9.3 8.38-13.25 12.21 0 0-.17.16-3.13 4.36-.12.17-.23.35-.34.52l66.76-27.5c-2.22-.21-4.48-.35-6.81-.42z" fill="#00a8de" opacity=".9"/><path d="M97.34 33.52a74.05 74.05 0 0 0-10.46-3c-2.56-.53-5.25-1-8-1.27l-67.4 25.9A68.57 68.57 0 0 0 4 68.4c-.16.38-.31.79-.47 1.18z" fill="#0070b4" opacity=".9"/><path d="M38.87 80.2c.39-1 .8-1.93 1.25-2.84a37.73 37.73 0 0 1 4.3-6.87 34.59 34.59 0 0 1 5.33-5.43 30.56 30.56 0 0 1 6.14-3.87 32.2 32.2 0 0 1 7-2.36 41.48 41.48 0 0 1 15.95-.15 32.63 32.63 0 0 1 4.47 1.23l35.31-16.12a313.41 313.41 0 0 0-5-4.66l-3.5-2.13a57.35 57.35 0 0 0-11.43-5.38c-.84-.29-1.7-.55-2.57-.81L4.68 72.5A88.24 88.24 0 0 0 1 87.89C.53 91.1.2 94.46 0 97.94z" fill="#333391" opacity=".9"/><path d="M35.24 94.09a62.81 62.81 0 0 1 2.08-7.65 49.68 49.68 0 0 1 2.19-5.3L-.44 96.3c-.35 2.87-.63 5.82-.8 8.86-.05 1-.07 1.88-.11 2.82zM83.93 62.32c.89.22 1.78.47 2.63.77A30.05 30.05 0 0 1 93 66.27a31 31 0 0 1 2.35 1.7l31-17.79c-2.51-2.11-5.79-4.77-8.8-7.14z" fill="#932b8d" opacity=".9"/><path d="M94.11 68a35.53 35.53 0 0 1 3.33 3.29 38.27 38.27 0 0 1 4.66 6.62 48 48 0 0 1 3.52 8L137 70l-.12-.31a68.47 68.47 0 0 0-7.8-13.74c-2.55-3.46-3-4-3.07-4.15zM35.16 114.84a92.75 92.75 0 0 1-1.54-10.17 91.61 91.61 0 0 1-.44-11.17c0-.66.05-1.31.09-2l-34 19.3a116.36 116.36 0 0 0 2.87 15.62c.54 2.08 1.17 4.1 1.83 6.09z" fill="#e91388" opacity=".9"/><path d="M104.91 86.59v.06a65.51 65.51 0 0 1 2.54 9.53c.06.31.11.64.17 1l32-16.91A83.83 83.83 0 0 0 136 70.16zM36.68 125.87v-.11a64.69 64.69 0 0 1-2.68-9.52c-.06-.28-.11-.58-.16-.87l-31.6 17.16A83.79 83.79 0 0 0 6 142.47z" fill="#ea245f" opacity=".9"/><path d="M106.39 98.13a93.56 93.56 0 0 1 1.68 10 93 93 0 0 1 .62 11.16c0 .7 0 1.4-.05 2.09l33.92-20a120 120 0 0 0-3.15-15.9c-.55-2-1.16-3.9-1.81-5.78zM47.64 144.72a35.91 35.91 0 0 1-3.37-3.33 37.73 37.73 0 0 1-4.67-6.63 47.36 47.36 0 0 1-3.48-8L4.95 142.38a70.84 70.84 0 0 0 7.7 13.83c3 4.21 3.22 4.39 3.22 4.39z" fill="#eb2d2e" opacity=".9"/><path d="M106.48 120.42a63.73 63.73 0 0 1-1.17 7.71 50.24 50.24 0 0 1-1.59 5.63l38.15-19.65c0-2.91 0-5.9-.19-8.94-.05-.94-.14-1.85-.21-2.77zM58.41 152.1c-.88-.3-1.75-.62-2.58-1a30.58 30.58 0 0 1-6.23-3.71c-.75-.58-1.48-1.21-2.2-1.87l-32.22 14.94c2.28 2.35 5.29 5.31 8.06 7.95z" fill="#f19432" opacity=".9"/><path d="M102.89 132.71c-.38.93-.78 1.84-1.21 2.71a37.93 37.93 0 0 1-4.32 6.83 34 34 0 0 1-5.36 5.36 30.05 30.05 0 0 1-6.13 3.79 31.91 31.91 0 0 1-7 2.28 41.52 41.52 0 0 1-16 0 32.92 32.92 0 0 1-4.47-1.27L23 168.08c1.85 1.82 3.6 3.5 4.94 4.73l3.47 2.2a57.33 57.33 0 0 0 11.37 5.51c.83.3 1.69.57 2.56.84L137 140.77a88.4 88.4 0 0 0 4-15.77c.5-3.11.86-6.35 1.1-9.7z" fill="#fde92b" opacity=".9"/><path d="M46.76 184.4a74.07 74.07 0 0 0 10.73 1.73c2.61.23 5.33.33 8.13.32l63.6-33.45a71 71 0 0 0 6.06-14.56c.07-.23.12-.48.19-.71z" fill="#91be4a" opacity=".9"/><path d="M71.38 185.72a98.29 98.29 0 0 0 14.86-1.52 72 72 0 0 0 13.05-3.66 57.35 57.35 0 0 0 11.21-5.83l3.41-2.3c3.2-3.1 8.8-9 12.44-13.13 0 0 .24-.27 2.92-4.68v-.08l-64.7 31.18c2.22.07 4.49.09 6.81.02z" fill="#009e54" opacity=".9"/></svg>