<svg xmlns="http://www.w3.org/2000/svg" width="164.99" height="200" viewBox="0 0 164.99 200"><title>_</title><path d="M49.19 4.94L73.63-8.63a9.9 9.9 0 0 0-5.16-.94l-2.2.19L49 .23a9.94 9.94 0 0 0 0 2v.45z" fill="#333391" opacity=".9"/><path d="M48.06 5l28.37-9.93a10.09 10.09 0 0 0-1.79-1.61L48.25 2.71z" fill="#932b8d" opacity=".9"/><path d="M48.14 7.27l-.06.73a9.91 9.91 0 0 0 0 1.51L78.72-1.3A10.05 10.05 0 0 0 76.66-5L48.32 5z" fill="#e91388" opacity=".9"/><path d="M48.67 11.58L79.34.83A9.88 9.88 0 0 0 79-1.28L48.3 9.48a9.88 9.88 0 0 0 .37 2.1z" fill="#ea245f" opacity=".9"/><path d="M51.09 15.55L79.28 5.11l.15-2.31v-.75a9.92 9.92 0 0 0 0-1.51L49 11.83a10.05 10.05 0 0 0 2.09 3.72z" fill="#eb2d2e" opacity=".9"/><path d="M52.86 16.53L79.47 8l.25-2.3-28.61 9.17a10.09 10.09 0 0 0 1.75 1.66z" fill="#f19432" opacity=".9"/><path d="M59.34 20l2.2-.25 17.07-10a9.94 9.94 0 0 0 0-2l-.05-.45L78.3 5 54.16 19.23a9.9 9.9 0 0 0 5.18.77z" fill="#fde92b" opacity=".9"/><path d="M65.88 19.12l12-5A9.92 9.92 0 0 0 79 11.41L60.69 19z" fill="#91be4a" opacity=".9"/><path d="M69 19.18A10 10 0 0 0 77.92 14l-12 5.09z" fill="#009e54" opacity=".9"/><path d="M108.74-8.1l-2.2-.23-18.81 6.17a9.94 9.94 0 0 0-.39 1.92v.45l-.29 2.29 26.57-8.7a9.9 9.9 0 0 0-4.88-1.9z" fill="#333391" opacity=".9"/><path d="M112.94-7.92L87.8 4.31l.08 2.31 27-13.15a10.09 10.09 0 0 0-1.94-1.39z" fill="#932b8d" opacity=".9"/><path d="M115.86-4.8L87.33 4.68 87.11 7l-.11.73a9.91 9.91 0 0 0 0 1.51L117.85-1a10.05 10.05 0 0 0-1.99-3.8z" fill="#e91388" opacity=".9"/><path d="M118-1.28L87.36 9.48a9.88 9.88 0 0 0 .38 2.11L118.4.82a9.88 9.88 0 0 0-.4-2.1z" fill="#ea245f" opacity=".9"/><path d="M118.59 3.12l.06-.75a9.92 9.92 0 0 0 0-1.51L88 11.52a10.05 10.05 0 0 0 2 3.76l28.4-9.85z" fill="#eb2d2e" opacity=".9"/><path d="M118.48 4.91L90.4 15.61a10.09 10.09 0 0 0 1.83 1.56l26.12-10z" fill="#f19432" opacity=".9"/><path d="M118.5 7.27L92.3 17a9.9 9.9 0 0 0 5 1.71l2.21.14L118 12a9.94 9.94 0 0 0 .32-1.93v-.45z" fill="#fde92b" opacity=".9"/><path d="M105.28 19.44l11.57-6a9.92 9.92 0 0 0 .83-2.81l-17.58 9.11z" fill="#91be4a" opacity=".9"/><path d="M108 19a10 10 0 0 0 9.12-4.75l-12.2 4.56z" fill="#009e54" opacity=".9"/><path d="M84 28.8a98.32 98.32 0 0 0-14.94.4 72 72 0 0 0-13.29 2.67 57.35 57.35 0 0 0-11.62 5l-3.58 2c-3.39 2.83-9.45 8.22-13.46 12 0 0-.17.16-3.2 4.31-.12.17-.23.35-.35.52l67.28-26.36c-2.22-.25-4.48-.43-6.84-.54z" fill="#00a8de" opacity=".9"/><path d="M107 27a74.05 74.05 0 0 0-10.78-1.45c-2.61-.16-5.34-.19-8.13-.11l-63 35.27a68.57 68.57 0 0 0-5.5 14.16c-.11.4-.19.83-.29 1.23z" fill="#0070b4" opacity=".9"/><path d="M52.28 81.33c.34-1 .69-2 1.08-2.91a37.73 37.73 0 0 1 3.91-7.11 34.59 34.59 0 0 1 5-5.72 30.56 30.56 0 0 1 5.91-4.21 32.18 32.18 0 0 1 6.87-2.75A41.47 41.47 0 0 1 91 57.58a32.63 32.63 0 0 1 4.54 1l34.34-18.1c-2-1.68-3.85-3.23-5.28-4.37l-3.61-2a57.35 57.35 0 0 0-11.72-4.73c-.85-.24-1.73-.46-2.61-.67L17.7 75.59a88.24 88.24 0 0 0-2.79 15.57c-.29 3.23-.43 6.61-.43 10.09z" fill="#333391" opacity=".9"/><path d="M96.31 62c.89.23 1.77.49 2.62.8a30.05 30.05 0 0 1 6.43 3.26c.79.53 1.57 1.12 2.33 1.73L139 50.46c-2.48-2.14-5.72-4.85-8.7-7.26zM47.71 94.23a62.81 62.81 0 0 1 2.14-7.63 49.68 49.68 0 0 1 2.23-5.28L12 96.13c-.38 2.87-.68 5.82-.88 8.85-.06 1-.09 1.88-.13 2.82z" fill="#932b8d" opacity=".9"/><path d="M106.63 67.28a35.53 35.53 0 0 1 3.21 3.41 38.27 38.27 0 0 1 4.43 6.78 48 48 0 0 1 3.24 8.13l31.89-14.86-.11-.31a68.47 68.47 0 0 0-7.31-14c-2.43-3.54-2.85-4.15-2.92-4.25zM47.09 117.29A92.75 92.75 0 0 1 47 107a91.61 91.61 0 0 1 1.12-11.12c.11-.65.23-1.29.36-1.92l-36.43 14.39a116.34 116.34 0 0 0 .68 15.86c.25 2.14.59 4.22 1 6.28z" fill="#e91388" opacity=".9"/><path d="M117.15 84.61v.06a65.51 65.51 0 0 1 1.45 9.75c0 .32 0 .65.06 1l33.72-13.19a83.83 83.83 0 0 0-2.47-10.41zM49.17 126v-.11a64.69 64.69 0 0 1-2.6-9.53c-.06-.28-.1-.58-.16-.87l-31.72 16.9a83.92 83.92 0 0 0 3.71 10z" fill="#ea245f" opacity=".9"/><path d="M119.31 95.82a93.56 93.56 0 0 1 .36 10.16 93 93 0 0 1-.83 11.15c-.1.7-.21 1.38-.32 2.06l36.22-15.39a120 120 0 0 0-1.06-16.17c-.28-2-.65-4-1-6zM59.94 146.56a35.91 35.91 0 0 1-3.07-3.56 37.73 37.73 0 0 1-4.08-7 47.36 47.36 0 0 1-2.79-8.31l-32.4 12.85A70.84 70.84 0 0 0 24.09 155c2.65 4.45 2.83 4.65 2.83 4.65z" fill="#eb2d2e" opacity=".9"/><path d="M118.81 119.16a63.73 63.73 0 0 1-1.77 7.6 50.2 50.2 0 0 1-2 5.49l39.56-16.62c.26-2.9.44-5.88.5-8.93v-2.78zM71.28 154.52c-.84-.4-1.67-.81-2.46-1.27a30.54 30.54 0 0 1-5.82-4.38c-.68-.66-1.34-1.37-2-2.1L27.39 158c2 2.59 4.67 5.86 7.13 8.79z" fill="#f19432" opacity=".9"/><path d="M115.38 132.74c-.39.93-.79 1.84-1.22 2.71a37.9 37.9 0 0 1-4.33 6.82 34 34 0 0 1-5.34 5.35 30.05 30.05 0 0 1-6.13 3.78 32 32 0 0 1-7 2.27 41.52 41.52 0 0 1-16-.06 32.92 32.92 0 0 1-4.46-1.27L35.47 168c1.85 1.83 3.59 3.51 4.93 4.74l3.47 2.21a57.33 57.33 0 0 0 11.36 5.53c.83.3 1.69.58 2.56.85l91.72-40.46a88.4 88.4 0 0 0 4-15.74c.51-3.11.87-6.35 1.11-9.7z" fill="#fde92b" opacity=".9"/><path d="M57.57 180.63a74.07 74.07 0 0 0 10.55 2.61c2.58.44 5.29.77 8.07 1l66.16-28.06a71 71 0 0 0 7.25-14c.09-.23.16-.47.25-.7z" fill="#91be4a" opacity=".9"/><path d="M84.42 186.62a98.29 98.29 0 0 0 14.8-2.05 72 72 0 0 0 12.92-4.12 57.35 57.35 0 0 0 11-6.22l3.32-2.42c3.09-3.21 8.47-9.32 12-13.57 0 0 .23-.27 2.75-4.78v-.09l-63.6 33.48c2.23-.01 4.49-.07 6.81-.23z" fill="#009e54" opacity=".9"/></svg>