<svg xmlns="http://www.w3.org/2000/svg" width="115.78" height="200" viewBox="0 0 115.78 200"><title>_</title><path d="M22.58 76.38c-4.1-3.67-10-3.71-13.19-.1a8.9 8.9 0 0 0-.86 9.85l15.69-8.29z" fill="#00a8de" opacity=".9"/><path d="M24.61 78.62l-16.5 6.52a11.19 11.19 0 0 0 2.19 3.65l3.29 3.66 17.3-6.83z" fill="#0070b4" opacity=".9"/><path fill="#333391" opacity=".9" d="M30.37 85.05l-16.61 8.37 13.76 12.8 16.61-8.37-13.76-12.8zM96.12 75.21L99.54 74a10.59 10.59 0 0 0-3.42 1.21z"/><path fill="#932b8d" opacity=".9" d="M43.89 98.49l-16.87 7.84 6.68 6.61 16.87-7.84-6.68-6.61zM107 74.91a8.35 8.35 0 0 0-8.15-1.4l-3.2 1.71a11.23 11.23 0 0 0-1.7 1.62L79.6 93.78 109.1 78a7.77 7.77 0 0 0-2.1-3.09z"/><path d="M108 92.88a10.3 10.3 0 0 0 3.79-9.74L80 93.5l-14.67 12.16a9.75 9.75 0 0 1-13.9-1.45l-.89-1.12-17.69 5.76 5.06 6.4a10.29 10.29 0 0 1 1.51 10L88 109.43z" fill="#e91388" opacity=".9"/><path d="M77 117.05l9.8-11.91-44.69 24.79a10.07 10.07 0 0 1-2.11 4.72l-9.81 12 44.65-24.78a10 10 0 0 1 2.16-4.82z" fill="#ea245f" opacity=".9"/><path d="M51.72 145.75a9.75 9.75 0 0 1 14 .83l.94 1.08 17.32-6.51-5.42-6.22a10.23 10.23 0 0 1-2-9.82l-47.8 18-19.12 17.3a10.33 10.33 0 0 0-3.34 9.91l31.33-11.77z" fill="#eb2d2e" opacity=".9"/><path fill="#f19432" opacity=".9" d="M73.06 153.07l16.99-7.38-6.53-6.77-16.97 7.38 6.51 6.77zM17.8 177.91l3.3-1.54a11.24 11.24 0 0 0 1.79-1.52l15.22-16.12-30.34 14.13a7.78 7.78 0 0 0 2 3.2 8.35 8.35 0 0 0 8.03 1.85z"/><path fill="#fde92b" opacity=".9" d="M86.74 166.64l16.6-8.33-13.77-12.8-16.57 8.3 13.74 12.83zM21 176.45l-3.41 1.26a10.58 10.58 0 0 0 3.41-1.26z"/><path d="M92.65 173.16l16.35-6.82a11.18 11.18 0 0 0-2.26-3.6l-3.37-3.6-17.15 7.14z" fill="#91be4a" opacity=".9"/><path d="M94.58 175.36c4.13 3.64 10.06 3.64 13.19 0a8.88 8.88 0 0 0 .78-9.85l-15.62 8.4z" fill="#009e54" opacity=".9"/></svg>