<svg xmlns="http://www.w3.org/2000/svg" width="142.05" height="200" viewBox="0 0 142.05 200"><title>_</title><path d="M77.88 28.82c-2.16-.25-4.37-.41-6.57-.47a85.76 85.76 0 0 0-14.42.74 69.79 69.79 0 0 0-13.17 3.15 62.79 62.79 0 0 0-11.87 5.56L28.14 40l-6.88 5.81-6.53 7.64s-.36.43-1.81 2.63L79.07 29z" fill="#00a8de" opacity=".9"/><path d="M96.71 33.74a77.845 77.845 0 0 0-11.86-3.59c-1.74-.38-3.51-.68-5.28-.93L13.06 55.48c-.45.67-1 1.49-1.69 2.53A84.6 84.6 0 0 0 4.8 70z" fill="#0070b4" opacity=".9"/><path d="M129.45 38.82l-2.84 2.55c-4.09 3.68-8.33 5.85-9.41 4.82l-1-.87c-1.62-1.4-3.34-2.74-5.09-4s-3.61-2.43-5.49-3.52-3.87-2.12-5.89-3.06l-.73-.32-93.81 31.2c-.33.65-.68 1.29-1 2a87.82 87.82 0 0 0-5.6 15.07c-.7 2.56-1.29 5.2-1.78 7.9L36.7 77.27c.41-.87.83-1.72 1.27-2.53a44.43 44.43 0 0 1 4.43-6.68 25.8 25.8 0 0 1 11.85-8.34 33.41 33.41 0 0 1 7.86-1.65 49 49 0 0 1 9.27.09 47.59 47.59 0 0 1 4.71.69 37.22 37.22 0 0 1 4.2 1.1A29.78 29.78 0 0 1 84 61.43l.12.06 59.72-19.88a7.13 7.13 0 0 0-1.56-3.23c-2.96-3.43-8.74-3.23-12.83.44z" fill="#333391" opacity=".9"/><path d="M83.92 60.39l1.08.38L89.36 63l.94.56c.93.56 1.82 1.14 2.63 1.74s1.39 1.09 2 1.65l39.9-18.15.62-.7 3.25-3.66a10.65 10.65 0 0 0 2.52-10.07zM35 92.29a70.83 70.83 0 0 1 .89-7.29 57.84 57.84 0 0 1 1.33-5.72L0 98.84c-.05 2.86 0 5.76.21 8.68.06 1 .16 2 .24 2.94z" fill="#932b8d" opacity=".9"/><path d="M94.84 66.77l.23.23.14.13c.15.15-2.76 3.59-6.46 7.66l-27 29.65 37.53-16.67c2.9-2.84 5.24-4.3 5.54-3.32l.2.78 31.89-14.15c-.47-1.17-.94-2.32-1.42-3.41-.81-1.83-1.66-3.58-2.51-5.18s-1.76-3.15-2.66-4.55l-.5-.77c-.53-.75 1.71-4.34 5.06-8.16zM35.22 114.64c-.09-.42-.19-.84-.28-1.26-.28-1.39-.54-2.83-.76-4.31s-.41-3-.57-4.53a98.25 98.25 0 0 1-.54-10.67v-2.24L-.74 111.07c.26 2.05.54 4.08.89 6 .52 2.93 1.14 5.72 1.85 8.4.64 2.42 1.38 4.76 2.18 7z" fill="#e91388" opacity=".9"/><path d="M37 128.48c-.09-.48-.18-.94-.26-1.39-.15-.85-.27-1.65-.36-2.42-.17-1.3-.31-2.65-.41-4-.07-.94-.11-1.92-.14-2.89L2 129.56c0 .27.07.55.12.82A77 77 0 0 0 3.84 138c.18.63.36 1.24.55 1.86zM105.24 86.7l.13.36c.45 1.27.87 2.59 1.25 3.93s.76 2.8 1.09 4.26c.14.62.25 1.24.37 1.87l31.68-17.47-.21-.65a65.37 65.37 0 0 0-2.61-6.8c-.38-.79-.76-1.56-1.14-2.32zM43 120.17l-.56.48 39-12.46L99 92.6c.7-.62 1.39-1.19 2-1.71l-39 12.5z" fill="#ea245f" opacity=".9"/><path d="M107.4 94.36v4.09q0 1.49-.12 3.08-.09 1.55-.22 3.12a74.39 74.39 0 0 1-1.34 9c-.27 1.26-.58 2.51-.92 3.75l37.24-12.86c.14-2.14.24-4.24.29-6.25.07-3 0-5.92-.1-8.65-.13-2.48-.35-4.88-.65-7.16zM47.59 145.25a45.73 45.73 0 0 1 6.13-6.91l29.62-28.73L45 123.84c-3.72 3.53-6.84 5.69-7.05 4.86l-.18-.75q-.16-.68-.3-1.32L5 138.63c.43 1.37.88 2.71 1.34 4 .66 1.83 1.42 3.63 2.17 5.37s1.54 3.35 2.36 4.89l.48.89c.45.78-1.44 3.53-4.41 6.57z" fill="#eb2d2e" opacity=".9"/><path d="M58 152.29l-.55-.2a26.58 26.58 0 0 1-3.09-1.46 29 29 0 0 1-3-1.9 33.15 33.15 0 0 1-2.87-2.36l-.38-.37a1 1 0 0 1 .23-.92L8.64 162.5c-.58.66-1.19 1.34-1.85 2l-4.28 4.41a10.45 10.45 0 0 0-3 9.05zM106.33 118.29c-.38 1.62-.81 3.22-1.3 4.78a64.6 64.6 0 0 1-3.15 8.07l-.08.15 40.41-15.65c.34-2.74.58-5.54.72-8.4.05-1.08.09-2.14.12-3.19z" fill="#f19432" opacity=".9"/><path d="M100.44 128.9a65 65 0 0 1-2.91 8 29.8 29.8 0 0 1-4.15 6.86 26.35 26.35 0 0 1-5.65 5.15 30.54 30.54 0 0 1-7.27 3.55 43.08 43.08 0 0 1-9 1.94c-1.16.13-2.32.21-3.45.23s-2.29 0-3.42-.09-2.28-.22-3.4-.41c-.93-.16-1.87-.36-2.81-.6L3.2 185.85a7 7 0 0 0 2.45 3.53c3.61 2.71 9.28 1.34 12.59-3l3-4c3.31-4.39 7.24-7.23 8.73-6.3l1.34.75c2 1.12 4.08 2.14 6.14 3a62.24 62.24 0 0 0 6.24 2.31c1.71.53 3.44 1 5.17 1.33l86.29-50.53c.21-.81.43-1.61.62-2.43a86.22 86.22 0 0 0 2-15.33c.12-2.65.13-5.37 0-8.14z" fill="#fde92b" opacity=".9"/><path d="M45.33 181c.38.12.75.26 1.13.38 2 .61 4.08 1.16 6.12 1.62s4.1.84 6.13 1.14c1.36.2 2.73.36 4.09.49l66-29.79c.84-1.26 1.66-2.54 2.42-3.84a75.21 75.21 0 0 0 5.28-11.15z" fill="#91be4a" opacity=".9"/><path d="M63.62 182.11c2 .32 4.07.57 6.11.74a82 82 0 0 0 15.21-.11 67.38 67.38 0 0 0 14-2.95 62.69 62.69 0 0 0 12.7-5.79 67.14 67.14 0 0 0 11.36-8.66 74.38 74.38 0 0 0 6.91-7.5l-68.32 23.9c.68.13 1.36.26 2.03.37z" fill="#009e54" opacity=".9"/></svg>