<svg xmlns="http://www.w3.org/2000/svg" width="129.33" height="200" viewBox="0 0 129.33 200"><title>_</title><path d="M40.74 3l24-9a18.06 18.06 0 0 0-7.37-2.3L53-8.57 36-2.21z" fill="#333391" opacity=".9"/><path d="M43.44 5.8L68.13-4.38a22.78 22.78 0 0 0-3.4-2.15L41 3.25z" fill="#932b8d" opacity=".9"/><path d="M48 10.21l25-8.64-.34-.65a17 17 0 0 0-4-4.81L43.41 4.84z" fill="#e91388" opacity=".9"/><path fill="#ea245f" opacity=".9" d="M51.43 13.96l23-11.38-1.9-2.72-23.71 11.73 2.61 2.37z"/><path d="M55.4 17.55v.06l22.89-7.52-3-5.93-24.38 8z" fill="#eb2d2e" opacity=".9"/><path d="M59.13 20.85L80 11.43l-1.84-2.79-22 9.93a19.5 19.5 0 0 0 2.97 2.28z" fill="#f19432" opacity=".9"/><path d="M66.83 24.3l16.77-6.77-3.37-5.68L59 20.37a31 31 0 0 0 7.83 3.93z" fill="#fde92b" opacity=".9"/><path d="M73.18 25.67l11.55-6.14a8.34 8.34 0 0 0-1.46-2.95l-16 8.49a22.81 22.81 0 0 0 5.91.6z" fill="#91be4a" opacity=".9"/><path d="M73.2 25.38l5.72.09c4.21.07 6.43-2.11 6-5.24l-12 5.12z" fill="#009e54" opacity=".9"/><path d="M33.36 32.29l-15.56-.45a10 10 0 0 0-10.29 9.7l-.17 5.8 31.72-13a9.92 9.92 0 0 0-5.7-2.05z" fill="#00a8de" opacity=".9"/><path d="M42.68 40.58a10 10 0 0 0-4.88-7.78L7.7 49.23l1 12.25 34.16-18.65z" fill="#0070b4" opacity=".9"/><path fill="#333391" opacity=".9" d="M41.33 42.79L7.26 61.64l1.06 12.24 1.06 12.24 34.07-18.84-2.12-24.49zM117.46 31.18l-15.52 1.26a10 10 0 0 0-9.16 10.78l.4 4.78 29.24-16a9.9 9.9 0 0 0-4.96-.82z"/><path d="M123.19 33.5l-30.67 13-.21 12.32 35.84-15.22v-1.29a10 10 0 0 0-4.96-8.81zM41.67 67.15L7.83 86.4l1.21 12.23 33.84-19.25-1.21-12.23z" fill="#932b8d" opacity=".9"/><path fill="#e91388" opacity=".9" d="M91.37 82.61l36.44-13.7.72-12.27.73-12.26-36.44 13.7-1.45 24.53zM44.59 82.5L7.94 95.64 7 107.89l-.28 3.72c-.19 2.53-.4 5.56-.6 8.52L42.76 107z"/><path d="M43.72 114.69l.71-7.18-36.92 12.24c-.31 3.45-.6 6.78-.78 9v3.07l36.53-12.1c.13-1.67.3-3.4.46-5.03zM92.29 95.68l35.84-15.22.21-12.29L92.5 83.39l-.21 12.29z" fill="#ea245f" opacity=".9"/><path d="M91.73 111.69c-.17 2.49-.35 5.19-.53 7.65l36.56-13.43.82-12.26.82-12.26-36.54 13.42zM45.63 140.12l-.47-1.3a36.93 36.93 0 0 1-1.3-4.53c-.38-1.71-.71-3.61-1-5.64l-.27-2.07c-.14-1.8-.39-5.58-.65-9.57L7.82 134.78l.06.4a90.89 90.89 0 0 0 2 9.74 64.71 64.71 0 0 0 2.84 8.48c.48 1.16 1 2.27 1.55 3.35l31.51-16.4z" fill="#eb2d2e" opacity=".9"/><path d="M49.64 148.67l-1.2-1.34c-.91-1.79-2-4.14-2.56-5.42L13 155.32c.56 1.42 1.17 2.78 1.83 4.06a45.24 45.24 0 0 0 3.67 5.82l34.18-13.93a16 16 0 0 1-3.04-2.6zM91.74 125.91L91.4 128q-.29 1.78-.64 3.4l37.42-12.67c.14-1.42.27-2.79.38-4l.76-8.21-36.88 12.43c-.29 2.96-.55 5.56-.7 6.96z" fill="#f19432" opacity=".9"/><path d="M92.26 136.14A37 37 0 0 1 91 140.7l-.41 1.3c-.62 1.23-2 3.69-3.08 5.46l-1.29 1.25a16.42 16.42 0 0 1-4.58 3.08 23.48 23.48 0 0 1-6.14 1.78 39.89 39.89 0 0 1-7.83.37 40.32 40.32 0 0 1-7.81-1 23.69 23.69 0 0 1-6-2.31c-.46-.26-.9-.54-1.32-.83l-34.36 13.46a43.23 43.23 0 0 0 4.59 5.37 46.53 46.53 0 0 0 11.46 8.25c1.57.81 3.25 1.54 5 2.23l87.57-34.51c.58-2.59 1.06-5.33 1.44-8.19l.45-3.44c.21-3.22.5-8.68.73-13.53l-36.76 14.47c-.12.77-.26 1.52-.4 2.23z" fill="#fde92b" opacity=".9"/><path d="M50.53 183.6a87.46 87.46 0 0 0 9.47 1.07l62.32-28.79q.81-1.89 1.49-3.93a64.9 64.9 0 0 0 2.19-8.66c.1-.52.18-1.06.27-1.6L40.8 181.16a66.8 66.8 0 0 0 9.73 2.44z" fill="#91be4a" opacity=".9"/><path d="M69.05 186.41a96.5 96.5 0 0 0 17.45-2.87 62.52 62.52 0 0 0 14.35-5.72 46.33 46.33 0 0 0 11.15-8.63 43.93 43.93 0 0 0 7.76-11.52c.53-1.16 1-2.38 1.47-3.64l-60.36 32.71c2.65-.01 5.37-.11 8.18-.33z" fill="#009e54" opacity=".9"/></svg>