<svg xmlns="http://www.w3.org/2000/svg" width="121.23" height="200" viewBox="0 0 121.23 200"><title>_</title><path d="M25.74 31.88l-15.57.19A10 10 0 0 0 .3 42.19L.37 48l31.16-14.34a9.92 9.92 0 0 0-5.79-1.78z" fill="#00a8de" opacity=".9"/><path d="M35.93 42.33a10 10 0 0 0-4.09-8.23L.26 47.47 0 59.76l35.89-15.18z" fill="#0070b4" opacity=".9"/><path d="M110.38 31.45l-15.54.85a10 10 0 0 0-9.44 10.52l.26 4.83 29.66-15.19a9.9 9.9 0 0 0-4.94-1.01zM37.98 46.36L.87 58.13-.5 70.34l-1.37 12.21 37.11-11.77 2.74-24.42z" fill="#333391" opacity=".9"/><path d="M115.16 32.8L85.27 47.53l.48 12.28 34.92-17.22-.05-1.29a10 10 0 0 0-5.46-8.5zM36.4 69.57L.22 83.93l-.51 12.28L35.9 81.85l.5-12.28z" fill="#932b8d" opacity=".9"/><path fill="#e91388" opacity=".9" d="M83.24 81.75l37.01-12.06 1.28-12.23 1.27-12.22L85.78 57.3l-2.54 24.45zM34.29 79.85L0 98.28l.91 12.25.28 3.72c.19 2.53.43 5.56.67 8.51l34.26-18.41z"/><path fill="#ea245f" opacity=".9" d="M86.4 97.35l34.21-18.6-.97-12.25-34.21 18.6.97 12.25zM35.46 112l-.38-7.2L.44 122.45c.21 3.46.43 6.79.59 9l.43 3L35.73 117c-.09-1.65-.18-3.39-.27-5z"/><path d="M85.67 113.5c.08 2.49.17 5.2.24 7.67l35-17-.42-12.28-.39-12.33-35 17zM37.59 143.07l-.26-1.35a36.93 36.93 0 0 1-.57-4.68c-.11-1.75-.13-3.67-.07-5.72l.06-2.08c.15-1.8.5-5.57.88-9.55L1.11 131.81v.4a90.89 90.89 0 0 0 .4 9.93A64.71 64.71 0 0 0 3 151c.3 1.22.63 2.41 1 3.56l33.71-11.2z" fill="#eb2d2e" opacity=".9"/><path d="M42.62 149.73l-1.11-1.41c-.8-1.85-1.75-4.26-2.21-5.57L5.63 154.07c.47 1.45 1 2.85 1.57 4.17a45.24 45.24 0 0 0 3.29 6l35-11.76a16 16 0 0 1-2.87-2.75zM84.91 127l-.21 2.1c-.12 1.2-.26 2.34-.43 3.43l36.56-15c.05-1.42.1-2.8.13-4l.25-8.24L85.18 120c-.11 3-.18 5.63-.27 7z" fill="#f19432" opacity=".9"/><path d="M84.68 135.73a37 37 0 0 1-1.13 4.58l-.42 1.3c-.59 1.25-1.92 3.73-3 5.52l-1.27 1.27a16.42 16.42 0 0 1-4.51 3.18 23.48 23.48 0 0 1-6.1 1.91 39.89 39.89 0 0 1-7.82.54 40.32 40.32 0 0 1-7.84-.88 23.69 23.69 0 0 1-6-2.18c-.46-.25-.91-.52-1.34-.8l-34 14.28a43.23 43.23 0 0 0 4.71 5.27 46.53 46.53 0 0 0 11.64 8c1.59.78 3.28 1.47 5 2.12l86.81-36.41c.52-2.6.95-5.35 1.26-8.22l.38-3.45c.14-3.23.31-8.69.44-13.54L85 133.5c-.07.77-.19 1.5-.32 2.23z" fill="#fde92b" opacity=".9"/><path d="M43.78 184.46a87.46 87.46 0 0 0 9.48.81l61.55-30.4q.76-1.91 1.39-4a64.9 64.9 0 0 0 2-8.72c.08-.52.15-1.07.23-1.6L34 182.27a66.8 66.8 0 0 0 9.78 2.19z" fill="#91be4a" opacity=".9"/><path d="M59.81 183.29a96.5 96.5 0 0 0 17.68-.48 62.52 62.52 0 0 0 15-3.72 46.33 46.33 0 0 0 12.19-7.09 43.93 43.93 0 0 0 9.25-10.37c.68-1.08 1.33-2.21 1.95-3.41L51.65 182.5c2.63.35 5.35.62 8.16.79z" fill="#009e54" opacity=".9"/><path d="M72.77-8.68l-15.6 6.83A13.64 13.64 0 0 0 56-.37l-.9 1.45 22.24-9.74z" fill="#0070b4" opacity=".9"/><path fill="#333391" opacity=".9" d="M82.63-7.28l-4.53-.49L54.98-.36 50.73 4.9 87.17-6.79l-4.54-.49z"/><path d="M90.14-8.42l-3.57-.06-35.19 15-1.87 2.84L91.05-8.37c-.29-.03-.59-.04-.91-.05z" fill="#932b8d" opacity=".9"/><path d="M89.65-10.61L50.36 11.68l-3.08 6L94-8.79c-.53-1.21-2-1.88-4.35-1.82z" fill="#e91388" opacity=".9"/><path d="M44.07 15a10.41 10.41 0 0 0-.7 1L95.54-2.22a3.07 3.07 0 0 0 .41-2.11L45.29 13.38z" fill="#ea245f" opacity=".9"/><path d="M43.17 21.2L88.88 3.45l4.49-4a8.72 8.72 0 0 0 2-2.51l-51.52 20a5.59 5.59 0 0 0-.68 4.26z" fill="#eb2d2e" opacity=".9"/><path d="M45.73 25.63L84.21 4.79l3.47-4-43.11 23.36a3.82 3.82 0 0 0 1.16 1.48z" fill="#f19432" opacity=".9"/><path d="M49.63 25.66h1.16l26.44-12.18L84.69 6 44.94 24.26a6.82 6.82 0 0 0 4.69 1.4z" fill="#fde92b" opacity=".9"/><path fill="#91be4a" opacity=".9" d="M55.7 26.13h.01l17.58-9.51 3.48-3.99-25.61 13.85 4.54-.35z"/><path d="M72.17 18l1.07-1.18L55.49 26c5.51-.32 12.99-3.92 16.68-8z" fill="#009e54" opacity=".9"/></svg>