<svg xmlns="http://www.w3.org/2000/svg" width="121.25" height="200" viewBox="0 0 121.25 200"><title>_</title><path d="M27 33l-15.5-1.54a10 10 0 0 0-11 8.93l-.59 5.77 32.62-10.68A9.92 9.92 0 0 0 27 33z" fill="#00a8de" opacity=".9"/><path d="M36.4 42.62a10 10 0 0 0-3.95-8.29L.65 47.18.22 59.46l36.1-14.59z" fill="#0070b4" opacity=".9"/><path d="M111.72 32.79L96.2 31.63a10 10 0 0 0-10.72 9.22l-.36 4.82 31.37-11.24a9.9 9.9 0 0 0-4.77-1.64zM36.89 44.85L.82 59.5.41 71.78l-.4 12.29 36.07-14.66.81-24.56z" fill="#333391" opacity=".9"/><path d="M117.16 34.45L85.64 45.27l-1.08 12.24 36.82-12.65.11-1.29a10 10 0 0 0-4.33-9.12zM36.18 68.76L.67 84.73l.05 12.29 35.51-15.97-.05-12.29z" fill="#932b8d" opacity=".9"/><path fill="#e91388" opacity=".9" d="M87.75 85.39l33.79-19.33-1.23-12.23-1.24-12.22-33.79 19.32 2.47 24.46zM38.05 82.88L1.16 95.3 0 107.53l-.35 3.72c-.24 2.52-.51 5.56-.76 8.5l36.86-12.41z"/><path fill="#ea245f" opacity=".9" d="M85.27 95.52l35.96-14.9.33-12.28-35.97 14.89-.32 12.29zM36.69 114.26l.54-7.19L.62 120.16c-.23 3.46-.45 6.79-.57 9v3.07l36.24-13c.15-1.6.28-3.33.4-4.97z"/><path d="M87.13 114.8c.28 2.48.57 5.17.83 7.62l33.61-19.69-1.37-12.21-1.36-12.21L85.25 98zM38.76 139.88l-.49-1.29a36.93 36.93 0 0 1-1.36-4.51c-.4-1.71-.76-3.6-1-5.63l-.29-2.07c-.16-1.79-.46-5.57-.77-9.56L.89 135l.11.41a90.89 90.89 0 0 0 2 9.71 64.71 64.71 0 0 0 3 8.45c.5 1.15 1 2.26 1.59 3.34l31.31-16.78z" fill="#eb2d2e" opacity=".9"/><path d="M85.52 127.5l-.15 2.08q-.13 1.8-.34 3.44l36.16-15.92v-12.24L85.6 120.5c-.02 2.98-.05 5.59-.08 7zM42.92 149.36L41.78 148c-.84-1.83-1.85-4.22-2.33-5.52L6 154.51c.5 1.44 1.05 2.83 1.66 4.13a45.24 45.24 0 0 0 3.43 6l34.71-12.53a16 16 0 0 1-2.88-2.75z" fill="#f19432" opacity=".9"/><path d="M83.59 133.86a37 37 0 0 1-.64 4.67l-.28 1.34c-.46 1.3-1.52 3.92-2.36 5.81l-1.13 1.4a16.42 16.42 0 0 1-4.18 3.63 23.48 23.48 0 0 1-5.87 2.54 39.89 39.89 0 0 1-7.72 1.36 40.32 40.32 0 0 1-7.88 0 23.69 23.69 0 0 1-6.21-1.61c-.49-.2-1-.42-1.42-.66l-32.34 17.82a43.22 43.22 0 0 0 5.23 4.75 46.53 46.53 0 0 0 12.41 6.73c1.66.61 3.42 1.11 5.22 1.58l82.5-45.35c.24-2.64.38-5.42.39-8.31v-3.47c-.21-3.22-.61-8.67-1-13.51l-34.62 19c0 .8-.04 1.56-.1 2.28z" fill="#fde92b" opacity=".9"/><path d="M41.66 180a87.46 87.46 0 0 0 9.34 2l65-22q1-1.79 1.9-3.75a64.9 64.9 0 0 0 3.1-8.38c.15-.51.29-1 .44-1.56l-89.2 30.21a66.8 66.8 0 0 0 9.42 3.48z" fill="#91be4a" opacity=".9"/><path d="M60.26 183.41a96.5 96.5 0 0 0 17.68-.57 62.52 62.52 0 0 0 15-3.79 46.33 46.33 0 0 0 12.17-7.11 43.93 43.93 0 0 0 9.2-10.41c.68-1.08 1.32-2.22 1.93-3.42l-64.13 24.55c2.62.34 5.34.6 8.15.75z" fill="#009e54" opacity=".9"/><path d="M57.41-8.52C51.91-8.68 44.52-5.37 41-1.15L39.56.57l21.9-9z" fill="#00a8de" opacity=".9"/><path d="M65.29-7.64l-3.36-.29L39.56-.18l-4.63 5 34.66-12c-1.31-.19-2.77-.33-4.3-.46z" fill="#0070b4" opacity=".9"/><path d="M75.81-6.71a35.68 35.68 0 0 0-5.94-.76L35.4 5.06l-9.11 10L77.88-3.65z" fill="#333391" opacity=".9"/><path d="M77.89-4.19L26.72 15.67l-.6.69a7.35 7.35 0 0 0-1.9 3.64L79.78-1.53z" fill="#932b8d" opacity=".9"/><path d="M82.43-.19l-2-2.19L78-5 25.8 23.84c0 2.44 2.12 3.93 5.88 3.61l.82-.07z" fill="#e91388" opacity=".9"/><path d="M38.35 24.34l16.31-6.16.34-.3a7.1 7.1 0 0 1 7.18-2.51l23.61-8.94-1.85-2.69-53.36 20.15z" fill="#ea245f" opacity=".9"/><path d="M39.34 25.34c5.36.1 12.27-2.94 15.66-6.81l-16.08 6.8h.42zM66.78 18.18a13.25 13.25 0 0 0 1.31 1.41l21.22-9.78-4.09-5.08-23 10.58a7.58 7.58 0 0 1 4.56 2.87z" fill="#eb2d2e" opacity=".9"/><path d="M70.75 21.59l20.64-8.89-2-2.59L68 19.34a19 19 0 0 0 2.75 2.25z" fill="#f19432" opacity=".9"/><path d="M78.17 24.54l17.25-5.46-.06-.08L92 13.52 70.58 20.3a24.74 24.74 0 0 0 7.59 4.24z" fill="#fde92b" opacity=".9"/><path d="M82.64 25.73l3.23-.15 10.92-5.5a8.33 8.33 0 0 0-1.62-2.73L79 25.48a17.22 17.22 0 0 0 3.64.25z" fill="#91be4a" opacity=".9"/><path d="M91.24 25.47c4.18.38 6.35-1.5 5.82-4.47l-11.58 4z" fill="#009e54" opacity=".9"/></svg>