<svg xmlns="http://www.w3.org/2000/svg" width="119.3" height="200" viewBox="0 0 119.3 200"><title>_</title><path d="M25.5 32.12l-15.57-.19A10 10 0 0 0-.19 41.81l-.07 5.8L31.24 34a9.92 9.92 0 0 0-5.74-1.88z" fill="#00a8de" opacity=".9"/><path d="M35.27 41.54a10 10 0 0 0-4.44-8l-31 14.75.35 12.25 35.15-16.75z" fill="#0070b4" opacity=".9"/><path fill="#333391" opacity=".9" d="M37.29 46.08L.35 58.38l-1.2 12.23-1.19 12.23 36.94-12.3 2.39-24.46zM110.8 32.65l-15.54-1a10 10 0 0 0-10.6 9.36l-.3 4.83 31.22-11.65a9.9 9.9 0 0 0-4.78-1.54z"/><path d="M119.88 40.32a10 10 0 0 0-5.94-8.19l-29 16.41 1.18 12.23L120 41.6zM34.69 67.96L-.05 85.54l.61 12.28 34.73-17.58-.6-12.28z" fill="#932b8d" opacity=".9"/><path d="M36.09 81.75L0 96.34l-.43 12.28-.13 3.73c-.09 2.53-.18 5.58-.26 8.53l36.06-14.57zM119.85 54.5l-.76-12.26-34.53 17.98 1.51 24.53 34.53-17.98-.75-12.27z" fill="#e91388" opacity=".9"/><path fill="#ea245f" opacity=".9" d="M118.78 66.06L85.09 85.57l1.3 12.22 33.69-19.51-1.3-12.22zM35.45 113v-7.21L-.14 121.4c0 3.46 0 6.81.05 9.06l.25 3.06 35.26-15.42.03-5.1z"/><path d="M120 91.76l-.47-12.28-34.89 17.2.65 16.9c.1 2.49.19 5.2.28 7.66L120.52 104zM37.62 141.44l-.38-1.32a37 37 0 0 1-1-4.61 63.81 63.81 0 0 1-.58-5.69l-.12-2.08v-9.59L.29 133.45v.4a90.91 90.91 0 0 0 1.28 9.85 64.71 64.71 0 0 0 2.23 8.66c.4 1.19.84 2.34 1.31 3.46l32.59-14.14z" fill="#eb2d2e" opacity=".9"/><path d="M41.7 148l-1.25-1.29c-1-1.76-2.18-4.06-2.77-5.31L5.34 156.09c.61 1.39 1.27 2.73 2 4a45.24 45.24 0 0 0 3.89 5.67l33.6-15.26a16 16 0 0 1-3.13-2.5zM84.95 121.83c.2 3 .37 5.58.45 7v2.09c0 1.2 0 2.35-.07 3.46l34.84-18.63c-.1-1.42-.19-2.79-.28-4l-.59-8.22z" fill="#f19432" opacity=".9"/><path d="M83.9 135.26a37 37 0 0 1-1 4.61l-.38 1.31c-.56 1.26-1.83 3.78-2.82 5.6l-1.23 1.31a16.42 16.42 0 0 1-4.43 3.3 23.48 23.48 0 0 1-6.04 2.06 39.89 39.89 0 0 1-7.81.74 40.32 40.32 0 0 1-7.86-.67 23.69 23.69 0 0 1-6.1-2c-.47-.24-.92-.5-1.36-.77L11.2 165.89A43.22 43.22 0 0 0 16 171a46.53 46.53 0 0 0 11.84 7.69c1.61.74 3.32 1.38 5.08 2l85.84-38.66c.45-2.61.81-5.38 1-8.25l.29-3.46c.05-3.23.08-8.69.09-13.55L84.2 133c-.09.79-.2 1.54-.3 2.26z" fill="#fde92b" opacity=".9"/><path d="M43 183.89a87.46 87.46 0 0 0 9.47 1l62.08-29.32q.79-1.89 1.46-3.94a64.9 64.9 0 0 0 2.12-8.68c.09-.52.17-1.06.26-1.6l-85.13 40.2a66.92 66.92 0 0 0 9.74 2.34z" fill="#91be4a" opacity=".9"/><path d="M60.65 185.45a96.5 96.5 0 0 0 17.56-2.12 62.52 62.52 0 0 0 14.58-5.09 46.33 46.33 0 0 0 11.5-8.15 43.93 43.93 0 0 0 8.25-11.18 45.48 45.48 0 0 0 1.63-3.58l-61.71 30.09c2.65.1 5.37.13 8.19.03z" fill="#009e54" opacity=".9"/><path d="M74.56-4.33a10 10 0 0 0-9.15 4.7l12.22-4.49z" fill="#00a8de" opacity=".9"/><path d="M77.9-4.07L65.48-.15a9.92 9.92 0 0 0-1.3 2.62l18.87-6z" fill="#0070b4" opacity=".9"/><path d="M85.09-4.26l-2.21-.07L64.53 3.1a9.93 9.93 0 0 0-.26 1.9v.45l-.09 2.35L90.09-2.7a9.9 9.9 0 0 0-5-1.56z" fill="#333391" opacity=".9"/><path d="M90.56-1.9L64 6.82l-.24 2.3L92.32-.25a10.1 10.1 0 0 0-1.76-1.65z" fill="#932b8d" opacity=".9"/><path d="M91.85-1.67L64.39 10.55v3.07a9.92 9.92 0 0 0 .13 1.5L94.2 1.91a10.06 10.06 0 0 0-2.35-3.58z" fill="#e91388" opacity=".9"/><path d="M93.4.54l-28.29 16a9.9 9.9 0 0 0 .74 2l28.29-16a9.9 9.9 0 0 0-.74-2z" fill="#ea245f" opacity=".9"/><path d="M95.34 7.51l.06-.75a9.93 9.93 0 0 0 0-1.51L64.71 15.91a10.05 10.05 0 0 0 2 3.76l28.44-9.85z" fill="#eb2d2e" opacity=".9"/><path d="M95.41 9.73L67 19.58a10.1 10.1 0 0 0 1.8 1.62L95.21 12z" fill="#f19432" opacity=".9"/><path d="M95.32 11.83L69 21.25A9.9 9.9 0 0 0 73.93 23l2.21.17 18.64-6.67a9.93 9.93 0 0 0 .34-1.93v-.45z" fill="#fde92b" opacity=".9"/><path d="M81.81 23.63l11.88-5.33a9.92 9.92 0 0 0 1-2.76l-18.08 8.11z" fill="#91be4a" opacity=".9"/><path d="M84.63 23.32a10 10 0 0 0 9.29-4.4L81.56 23z" fill="#009e54" opacity=".9"/><path d="M35-4.83a10 10 0 0 0-8.17 6.25l11.24-6.59z" fill="#00a8de" opacity=".9"/><path d="M38.08-4.82L26.64 1.41a9.92 9.92 0 0 0-.77 2.82l17.38-9.46z" fill="#0070b4" opacity=".9"/><path d="M46.08-4.19l-2.21-.09L25.46 3a9.93 9.93 0 0 0-.28 1.94v.45l-.1 2.31 26-10.28a9.9 9.9 0 0 0-5-1.61z" fill="#333391" opacity=".9"/><path d="M50.07-4.36l-24.18 14 .25 2.36 26-15.09a10.1 10.1 0 0 0-2.07-1.27z" fill="#932b8d" opacity=".9"/><path d="M53.25-.92L25.13 9.67 25 12v.75a9.92 9.92 0 0 0 0 1.51L55.4 2.79a10.06 10.06 0 0 0-2.15-3.71z" fill="#e91388" opacity=".9"/><path d="M54.91 1.48L25.62 15.56a9.9 9.9 0 0 0 .61 2.05L55.52 3.53a9.9 9.9 0 0 0-.61-2.05z" fill="#ea245f" opacity=".9"/><path d="M55.89 6.42v-.75a9.93 9.93 0 0 0-.11-1.5L25.94 17a10.05 10.05 0 0 0 2.31 3.61L55.86 8.74z" fill="#eb2d2e" opacity=".9"/><path d="M55 7.07L29 22.25a10.1 10.1 0 0 0 2.06 1.24L55.23 9.37z" fill="#f19432" opacity=".9"/><path d="M56.16 11.59L30 21.49a9.9 9.9 0 0 0 5 1.68l2.21.13 18.51-7a9.93 9.93 0 0 0 .28-1.95v-.45z" fill="#fde92b" opacity=".9"/><path d="M42.88 23.76L54.58 18a9.92 9.92 0 0 0 .89-2.79l-17.78 8.7z" fill="#91be4a" opacity=".9"/><path d="M45.56 23.32a10 10 0 0 0 9.3-4.39L42.5 23z" fill="#009e54" opacity=".9"/></svg>