<svg xmlns="http://www.w3.org/2000/svg" width="107.57" height="200" viewBox="0 0 107.57 200"><title>_</title><path d="M58.81 19l13.79-8a24.28 24.28 0 0 0-13.79 8z" fill="#00a8de" opacity=".9"/><path d="M57.07 19.06l-1 1.07 20.53-7.85-2.88-.15h-.49l-14.9 5.71a14.89 14.89 0 0 0-1.26 1.22z" fill="#0070b4" opacity=".9"/><path d="M52 23.72l31.58-10.39-.64-.09-2.62-.24-3.32-.36-20.82 6.86z" fill="#333391" opacity=".9"/><path d="M50.22 26.18l35.7-12.59a8.38 8.38 0 0 0-2.35-.59L52.24 24z" fill="#932b8d" opacity=".9"/><path d="M46.15 29.83l42-13.29a2.58 2.58 0 0 0-1.73-2.29L50.29 25.71z" fill="#e91388" opacity=".9"/><path d="M45.15 32.68l42.42-15.24a3.11 3.11 0 0 0 .43-1.6L46.57 30.73a9.45 9.45 0 0 0-1.42 1.95z" fill="#ea245f" opacity=".9"/><path d="M46.7 39.32l34.84-19.83 2.52-2.8a8.77 8.77 0 0 0 1.79-2.77L46.68 36.2a4.21 4.21 0 0 0 .02 3.12z" fill="#eb2d2e" opacity=".9"/><path d="M45.69 37.21L79.38 25l3.37-2.66L45 36a3 3 0 0 0 .69 1.21z" fill="#f19432" opacity=".9"/><path d="M49.7 39.73l23-9.89 6.41-5.71-32.92 14.16a5.64 5.64 0 0 0 3.51 1.44z" fill="#fde92b" opacity=".9"/><path d="M50.55 39.22h.58a17.78 17.78 0 0 0 1.78 0l16.72-6.09L73 30.52l-23.52 8.57c.34.06.69.1 1.07.13z" fill="#91be4a" opacity=".9"/><path d="M69.12 34l.71-.52L52.9 39c5.33 0 12.25-2.06 16.22-5z" fill="#009e54" opacity=".9"/><path d="M14.35 41.1l-5.55.26c-5.49.26-7.64 4.31-4.77 9l1.68 2.74 18.22-9.15a17.17 17.17 0 0 0-9.58-2.85z" fill="#00a8de" opacity=".9"/><path d="M28.83 48.95a16.07 16.07 0 0 0-5.65-5.08L5.47 54l5.62 8.19 19.2-10.95z" fill="#0070b4" opacity=".9"/><path fill="#333391" opacity=".9" d="M30.9 52.67l-20.52 8.21 8.88 17.76 19.97-7.98-8.33-17.99zM102.71 40.53l-5.66.36c-5.49.35-11.8 4.75-14 9.78l-.47 1.06 21.39-11.2a10.24 10.24 0 0 0-1.26 0z"/><path d="M104.73 41.71L82.3 50.66l-7.9 13.81 33.21-13.25.52-.81c2.72-4.27 1.16-7.97-3.4-8.7zM39.11 70.2l-.41-.67-18.9 10.26 5.45 8.3L43.88 78z" fill="#932b8d" opacity=".9"/><path d="M71.84 71.71c-2.19 5-4.71 10.9-5.6 13l-3.69 8.74L62 94.9l29-15.49 15-30.43-31.61 16.84zM51.32 94.5c-1-2.3-2-4.64-3.09-7l-1.07-2.4-2.69-5.89L24.74 87l8.8 17.81 18.94-7.48c-.38-.97-.76-1.9-1.16-2.83z" fill="#e91388" opacity=".9"/><path d="M60.11 94c-1.43 2.44-2.66 4.59-3.76 6.56l-.37.67c-.39.71-1 .59-1.31-.27l-.3-.78c-.53-1.39-1.09-2.77-1.64-4.16l-19.13 7 3.91 8.44c.09.18.17.38.25.57L82 95.87l9.53-14-30.92 11.28z" fill="#ea245f" opacity=".9"/><path d="M42.75 131.26l-.05 1.44 24.3-9.79a39.75 39.75 0 0 1 4-9.44l11.5-18.16-43.61 17.59a46.74 46.74 0 0 1 3.86 18.36z" fill="#eb2d2e" opacity=".9"/><path d="M43.08 143.8L66 134.41V132a38.16 38.16 0 0 1 1.61-9L43.4 133z" fill="#f19432" opacity=".9"/><path fill="#fde92b" opacity=".9" d="M42.25 164.95l23.28-8.37 1.6-21.61-23.28 8.37-1.6 21.61z"/><path d="M43.38 170.92a9.9 9.9 0 0 0 1.4 5.09L66 166.62v-10.83l-22.62 10v5.12z" fill="#91be4a" opacity=".9"/><path d="M53.89 181.06l2.59-.18a10 10 0 0 0 9.29-10.67l-.3-4.33L45 176.76a10 10 0 0 0 8.89 4.3z" fill="#009e54" opacity=".9"/></svg>