<svg xmlns="http://www.w3.org/2000/svg" width="84.83" height="200" viewBox="0 0 84.83 200"><title>_</title><path d="M19.92 45.13a10 10 0 0 0-8-4H9.71a10 10 0 0 0-10 10v3z" fill="#00a8de" opacity=".9"/><path d="M-.64 63.2L22 54.26l.11-2.65a9.92 9.92 0 0 0-1.75-6L-.24 53.7z" fill="#0070b4" opacity=".9"/><path d="M.23 74.79L1 84.26l36-19.9c-1.35.13-2.7.26-4 .43-1.74.22-3.44.48-5.06.76s-3.2.59-4.71.92l-.48.11c-.52.12-1.33-4.26-1.8-9.74l-.28-3.29L-.59 65.31z" fill="#333391" opacity=".9"/><path d="M.3 93.33l54.3-26.9q-2.47-.43-5.08-.68a84.91 84.91 0 0 0-11.43-.26l-1.33.08L-.09 83.83z" fill="#932b8d" opacity=".9"/><path d="M.62 104.16l.62 9.49 21.51-11.31-.36-5.46c-.36-5.49-.4-10-.09-10.11l.3-.07c1.17-.27 2.46-.52 3.84-.75s3.12-.48 4.77-.66c1.8-.21 3.66-.37 5.53-.5a46.43 46.43 0 0 1 12 .63 29.46 29.46 0 0 1 4.06 1.13l21.82-11.48c-1.54-1.21-3.14-2.4-4.44-3.29l-2.71-1.27a47.15 47.15 0 0 0-8.83-3.07c-1.61-.39-3.28-.71-5-1L0 94.67z" fill="#e91388" opacity=".9"/><path fill="#ea245f" opacity=".9" d="M22.75 102.37l-22.99 7.88-.84 9.47 22.99-7.88.84-9.47zM53 87.93a22.64 22.64 0 0 1 5 2.63 18.31 18.31 0 0 1 3.3 3.05l20.2-9.68c-.2-.29-.4-.59-.61-.87l-1.51-2c-1-1-2.56-2.39-4.13-3.72z"/><path d="M61.08 93.31a18 18 0 0 1 2.26 3.78 24.56 24.56 0 0 1 1.89 10.26 29.21 29.21 0 0 1-.21 3.19l22.38-9.69c-.11-1.05-.26-2.09-.45-3.12a38.4 38.4 0 0 0-2.21-7.48 37.15 37.15 0 0 0-3.06-5.86zM21.82 130.93a67.09 67.09 0 0 1 .53-8.7l.07-.6 1.07-9.45-23.17 7.31-1.07 9.45-1.07 9.45z" fill="#eb2d2e" opacity=".9"/><path d="M65.12 111.51a23.44 23.44 0 0 1-1.11 7 20.08 20.08 0 0 1-2.42 4.94l25.77-14.62c0-1.49-.1-3-.25-4.53a41.81 41.81 0 0 0-.78-4.87zM40.12 132.91q-2.51.05-5.19-.13c-1.27-.09-2.55-.19-3.81-.31s-2.54-.27-3.71-.43-2.45-.38-3.54-.6l-.47-.09a2.27 2.27 0 0 1-.35-1.46l-23.29 8.5-.66 9.49z" fill="#f19432" opacity=".9"/><path d="M58.92 120.82a20.73 20.73 0 0 1-2.57 3.07 27.14 27.14 0 0 1-9.13 5.72A43.19 43.19 0 0 1 39 131.9L.78 153.07l.83 9.47.83 9.46 21.26-11.77c-.38-4.69-.53-8.3-.33-8.29h4.02c1.33 0 2.66-.07 4.07-.15s2.84-.18 4.22-.3c1.63-.14 3.23-.34 4.8-.56l37.84-21a38.41 38.41 0 0 0 4-8.06 44.6 44.6 0 0 0 2.5-15.43z" fill="#fde92b" opacity=".9"/><path d="M-.23 171.07A9.92 9.92 0 0 0 1.85 177l20.09-9.22-.09-7.78v-1.67L-.26 168.42zM55 147.63a49.2 49.2 0 0 0 17.56-6.89 39.4 39.4 0 0 0 7.12-5.94l-40.95 14A71.9 71.9 0 0 0 55 147.63z" fill="#91be4a" opacity=".9"/><path d="M9.14 180.72l2.19.21a10 10 0 0 0 10.89-9l.28-3L1.55 176a10 10 0 0 0 7.59 4.72z" fill="#009e54" opacity=".9"/></svg>