<svg xmlns="http://www.w3.org/2000/svg" width="109.8" height="200" viewBox="0 0 109.8 200"><title>_</title><path d="M23.43 33.66a37.73 37.73 0 0 0-9.94 5.1 33.15 33.15 0 0 0-7.56 7.64A33.54 33.54 0 0 0 2.76 52l-.11.25L58.27 32a79.73 79.73 0 0 0-8.41-1 85.07 85.07 0 0 0-14.29.1 53.76 53.76 0 0 0-12.14 2.56z" fill="#00a8de" opacity=".9"/><path d="M2.57 63.2c-.26 1.92-.44 4-.53 6.12L72.75 31.6a51.17 51.17 0 0 0-5.28-1.49A60.32 60.32 0 0 0 58 28.79c-.61 0-1.24-.06-1.86-.08L3.94 56.55a47.46 47.46 0 0 0-1.37 6.65z" fill="#0070b4" opacity=".9"/><path d="M.85 70.81l-.11 2.76c.1 3.35.41 10.59.69 16.08L1.55 92l31.88-16.17v-.35c0-1.73.06-3.32.18-4.74a32 32 0 0 1 .48-3.67 13.85 13.85 0 0 1 .74-2.56 10.75 10.75 0 0 1 1.8-3 10.41 10.41 0 0 1 2.68-2.23 14.82 14.82 0 0 1 3.78-1.52 25.2 25.2 0 0 1 5-.72 23.1 23.1 0 0 1 3.35.07 19.18 19.18 0 0 1 3.06.55 17.33 17.33 0 0 1 2.8 1 17 17 0 0 1 2.58 1.5 10 10 0 0 1 1.62 1.45l29.94-15.2c-.6-.81-1.22-1.6-1.89-2.35a37.92 37.92 0 0 0-6.29-5.61 44.61 44.61 0 0 0-7.56-4.33c-1.06-.48-2.15-.91-3.27-1.31L.95 69c-.04.63-.07 1.21-.1 1.81z" fill="#333391" opacity=".9"/><path d="M62 63.61a11.29 11.29 0 0 1 1.51 2.46 15.75 15.75 0 0 1 1 3.17 24 24 0 0 1 .49 3.85l31.4-15.81a35 35 0 0 0-2.06-4.8 33.85 33.85 0 0 0-2.76-4.38l-30 15.1c.16.14.3.26.42.41zM-.56 100.2l33.25-12.79c.23-4.26.45-8.3.56-10l.14-1.41L0 88.87z" fill="#932b8d" opacity=".9"/><path d="M.25 112.77l.25 11.35 32.21-15.21-.41-18.68c0-1.32-.06-2.68-.09-4L0 101.43zM65.24 72a25.43 25.43 0 0 1-.79 4.59A14.94 14.94 0 0 1 63 80a9.94 9.94 0 0 1-1.95 2.44 9.09 9.09 0 0 1-2.49 1.59 11.51 11.51 0 0 1-2.11.59 24.85 24.85 0 0 1-3 .37c-1.14.08-2.43.1-3.83.08h-1.41l-4.45-.3c-.68-.05-1.62 4.39-2.1 9.87l-.37 4.2c-.1 1.16-.17 2.28-.22 3.32L96.6 83c.18-.43.35-.88.51-1.32a35.127 35.127 0 0 0 1.54-6.09c.18-1.07.31-2.19.41-3.34A43.48 43.48 0 0 0 99 63.5c-.12-1-.3-2-.5-3L65.24 71.91V72z" fill="#e91388" opacity=".9"/><path d="M42.66 108.57l5.54 1.12 1.8.45L86.77 98.3c-.48-.42-.62-.87-.3-1.07l.33-.23a33 33 0 0 0 4.3-3.36 30 30 0 0 0 6.41-8.51c.23-.46.45-.93.65-1.41l-55.86 18c-.3 3.89-.13 6.76.36 6.85zM.87 136.04l31.64-16.37-.67-11.33L.21 124.71l.66 11.33z" fill="#ea245f" opacity=".9"/><path d="M51.85 114c2 .13 3.79.31 5.41.55a40 40 0 0 1 4.31.84 19.84 19.84 0 0 1 3.16 1.08 15.83 15.83 0 0 1 4 2.57 15.23 15.23 0 0 1 2.94 3.6 19 19 0 0 1 1.56 3.4l28.92-15.46c-.55-1-1.12-1.92-1.74-2.82a31.78 31.78 0 0 0-3.71-4.48 34.65 34.65 0 0 0-4.57-3.84 40.79 40.79 0 0 0-5.38-3.19l-.65-.32-.28-.14L51.73 114h.12zM.14 146.59l.09 11.35 32.43-14.74-.18-22.7L.06 135.24l.08 11.35z" fill="#eb2d2e" opacity=".9"/><path fill="#f19432" opacity=".9" d="M1.26 170.52l31.17-17.24-.98-11.31L.28 159.21l.98 11.31zM72.72 128.44a31.06 31.06 0 0 1 1.06 6.1c.09 1.19.12 2.32.12 3.43L105.06 121c-.2-.7-.39-1.41-.62-2.09a42.24 42.24 0 0 0-2.22-5.42c-.36-.72-.75-1.43-1.15-2.13L72.27 127c.16.5.31 1 .45 1.44z"/><path d="M73.43 137.64a29.31 29.31 0 0 1-.9 3.77 21.92 21.92 0 0 1-1.28 3.22 17.25 17.25 0 0 1-1.62 2.65 15.52 15.52 0 0 1-3.32 3.19 17.49 17.49 0 0 1-4.31 2.19 24.85 24.85 0 0 1-5.46 1.19l-2 .23c-2.52-.06-5.17-.15-5.87-.21l-1.67-.14-.62-.07-.61-.08-.57-.07H44.62l-2-.31c-.75-.12-1.63 4.28-2 9.77l-.43 7c0 .49-.05 1-.08 1.43L105 147.12c.33-1.13.63-2.27.89-3.41a58.73 58.73 0 0 0 1.28-9.15 56.21 56.21 0 0 0 0-6.38c-.07-1.32-.21-2.61-.38-3.88l-33.22 12.41c-.05.29-.08.63-.14.93zM.33 172A10 10 0 0 0 11 181.33l12.51-.84a9.89 9.89 0 0 0 3.13-.74l1.66-.88a10 10 0 0 0 4.52-9l-1.09-16.23L.21 170.25z" fill="#fde92b" opacity=".9"/><path d="M42.89 182.65l2.14.4.56.09.67.1 53.62-24.94a58.74 58.74 0 0 0 3.27-8.17c.56-1.78 1-3.6 1.4-5.44L41.76 173.9c.15 4.84.63 8.66 1.13 8.75zM27.49 179.6l-1.67.87a10 10 0 0 0 1.67-.87z" fill="#91be4a" opacity=".9"/><path d="M46.9 182.93l1.59.22 1.51.15 1.37.11 1.19.08H54.42a80.45 80.45 0 0 0 13-1 53.31 53.31 0 0 0 11.09-3 38.93 38.93 0 0 0 9.14-5.1 34.2 34.2 0 0 0 7-7.21 65.39 65.39 0 0 0 5-8.12l.2-.4-54 24z" fill="#009e54" opacity=".9"/></svg>