<svg xmlns="http://www.w3.org/2000/svg" width="96" height="200" viewBox="0 0 96 200"><title>_</title><path d="M19.12 26.22c-4.35-.26-6.17 1.63-4.91 4.46l10.91-4.1z" fill="#00a8de" opacity=".9"/><path d="M24.67 26.14l-10.21 5.62a9.31 9.31 0 0 0 1.94 2.13l.4.33 15.92-8.76z" fill="#0070b4" opacity=".9"/><path d="M48.13 28.07c-.14-.27-4.74-.87-10.22-1.35l-4.31-.38-17.18 5.92L21 37.64l27.23-9.39z" fill="#333391" opacity=".9"/><path d="M21.16 37.39l2.3 2.68 26.46-9.21-1.56-2.94z" fill="#932b8d" opacity=".9"/><path d="M29.21 46.23L53.14 35l-3.71-5.52-25.35 11.9z" fill="#e91388" opacity=".9"/><path d="M31.73 48.79l23.15-11.07-1.67-2.45L53 35 29.15 46.37z" fill="#ea245f" opacity=".9"/><path d="M35.95 52.72l.05.05 22.71-8-3.14-5.86-24.2 8.53z" fill="#eb2d2e" opacity=".9"/><path d="M39 54.92l21.65-7.35-1.53-3-22.84 7.79A19.5 19.5 0 0 0 39 54.92z" fill="#f19432" opacity=".9"/><path d="M47.25 59.28L64 52.44l-3.4-5.67-21.19 8.61a31 31 0 0 0 7.84 3.9z" fill="#fde92b" opacity=".9"/><path d="M53.35 60.48l11.85-5.55a8.33 8.33 0 0 0-1.31-3l-16.38 7.65a22.8 22.8 0 0 0 5.84.9z" fill="#91be4a" opacity=".9"/><path d="M53.89 60.92l5.7-.5c4.19-.37 6.18-2.77 5.38-5.83l-11.45 6.35z" fill="#009e54" opacity=".9"/><path d="M48 69.07a85.77 85.77 0 0 0-12.9-.44 56.26 56.26 0 0 0-11.22 1.6 39.9 39.9 0 0 0-9.53 3.72 33.31 33.31 0 0 0-7.73 5.89 36.38 36.38 0 0 0-3.86 4.78c-.4.59-.77 1.22-1.14 1.85L53 69.76c-1.65-.27-3.33-.51-5-.69z" fill="#00a8de" opacity=".9"/><path d="M63.65 68a74 74 0 0 0-8.35-1.14c-1.21-.1-2.46-.15-3.71-.19L2.75 89.88a40.39 40.39 0 0 0-1.46 3.87 46.57 46.57 0 0 0-1.51 6.43l-.12.76 67.59-32.13c-1.19-.3-2.39-.58-3.6-.81z" fill="#0070b4" opacity=".9"/><path d="M85.06 76.13a26.62 26.62 0 0 0-6.86-4.25 62.1 62.1 0 0 0-7.54-2.69c-1.42-.41-2.88-.76-4.35-1.08L0 102.83l-.18 1.46c-.08 2.63-.14 5.39-.14 6.12s4.49 1 10 .7l11.62-.74 1.95-.14 8.46-4.43.17-.84a19.8 19.8 0 0 1 .62-2.35 15.4 15.4 0 0 1 .83-2 12.21 12.21 0 0 1 1-1.67 8.82 8.82 0 0 1 1.79-1.78 12 12 0 0 1 2.54-1.42 18.67 18.67 0 0 1 3.39-1 30.51 30.51 0 0 1 4.25-.55C47.7 94 49 94 50.28 94a33.55 33.55 0 0 1 3.42.22h.09l32.46-17c-.39-.36-.78-.73-1.19-1.09z" fill="#333391" opacity=".9"/><path d="M90.62 85.51a25.51 25.51 0 0 0-3.54-5.28L53.39 94.65a21.23 21.23 0 0 1 2.68.71 13.39 13.39 0 0 1 2.15.94 6 6 0 0 1 1.41 1.08 5.56 5.56 0 0 1 1 1.4 7.55 7.55 0 0 1 .62 1.89l30.38-13c-.34-.67-.63-1.45-1.01-2.16zM35.52 113.44v-.25a1.5 1.5 0 1 0-3-.22v.41c.21.37-.59.77-1.79.88l-1 .12c-2.46.29-4.79.65-6.94 1.08a58.72 58.72 0 0 0-6 1.53 39.61 39.61 0 0 0-5.16 2A34.21 34.21 0 0 0 4 123.94a32.9 32.9 0 0 0-2 1.92l33.82-12.19c-.21-.06-.35-.14-.3-.23zM30.08 108.22c.14-.56.46-1.82.72-2.8l-9 3.19c4.59.26 8.2.11 8.28-.39z" fill="#932b8d" opacity=".9"/><path d="M95.28 110.53c.32-3.6.6-7.05.72-9.17l-.3-2.9a32.47 32.47 0 0 0-1.16-5.91l-31.42 10.19a12.46 12.46 0 0 1 0 2.47 5.68 5.68 0 0 1-.44 1.71 4.71 4.71 0 0 1-.88 1.32 6.29 6.29 0 0 1-1.47 1.13 11 11 0 0 1-2.28 1 15.06 15.06 0 0 1-1.72.42c-.71.13-1.51.25-2.37.35s-1.9.18-3 .24l-1.08.06-7.27.15-5.56.1a3.62 3.62 0 0 1-1-.14L1.87 122.6A30 30 0 0 0-2 127.17a33.23 33.23 0 0 0-4 8A43.78 43.78 0 0 0-7.87 144z" fill="#e91388" opacity=".9"/><path d="M27.6 142.53a9.72 9.72 0 0 1 .82-1.55 9.41 9.41 0 0 1 1.8-2 11.85 11.85 0 0 1 2.52-1.58 15.37 15.37 0 0 1 2-.76c.8-.25 1.72-.48 2.73-.69s2.15-.4 3.41-.58l1.24-.17 6.06-.6 3.06-.3L95.51 119l.18-2.13c.19-2.24.39-4.8.56-7.3L-6.19 145.08c0 .26-.06.51-.08.77a43.69 43.69 0 0 0 0 7.6c0 .27.06.54.09.8z" fill="#ea245f" opacity=".9"/><path d="M51.4 133.23l1.74-.29.73-.14a53.636 53.636 0 0 0 3.96-.91c.58-.16 1.15-.34 1.65-.51s1-.36 1.49-.56l.18-.07c.2-.09.33 1.22.29 2.9s-.23 5-.42 7.27l-.38 1.82a23.72 23.72 0 0 1-1.5 4.81 17.26 17.26 0 0 1-.8 1.56l35.82-14.91.46-19zM37.44 159.4l-.63-.09a13.5 13.5 0 0 1-2.14-.55 12 12 0 0 1-1.91-.86 11.7 11.7 0 0 1-1.76-1.18 6.69 6.69 0 0 1-1.25-1.36 7.94 7.94 0 0 1-.91-1.79 11.5 11.5 0 0 1-.57-2.33 18.12 18.12 0 0 1-.16-2.92 13.76 13.76 0 0 1 .41-3.16c.09-.33.2-.65.32-1L-4.1 158a33.33 33.33 0 0 0 1.63 6 28.92 28.92 0 0 0 3.12 6 28.33 28.33 0 0 0 2.89 3.56z" fill="#eb2d2e" opacity=".9"/><path d="M95 146.17l.12-1.76.51-7.71-36.41 13.4a14.71 14.71 0 0 1-1.49 2 12.74 12.74 0 0 1-3 2.47 29.11 29.11 0 0 1-3.73 1.9 26.49 26.49 0 0 1-3.85 1.25 26.09 26.09 0 0 1-4 .64 23.89 23.89 0 0 1-5.86-.18l-34.5 12.7c.47.54 1 1.08 1.47 1.59a34.77 34.77 0 0 0 5.18 4.24c.31.21.63.4.95.6z" fill="#f19432" opacity=".9"/><path d="M94.47 162.28q0-1.66.1-3.19c0-1 .07-2 .11-2.92v-.93c0-.84.26-5.13.51-9.95l-84.14 32.4a35.37 35.37 0 0 0 5 2.5 39.2 39.2 0 0 0 6.66 2 48.11 48.11 0 0 0 7.3.92 49.33 49.33 0 0 0 5.86 0 43.94 43.94 0 0 0 5.62-.74A40.55 40.55 0 0 0 52 178.71c1.34-.69 2.67-1.44 3.94-2.21s2.52-1.6 3.73-2.47l1-.7c1-.82 1.94-1 2-.49l.06.47c.06.52.14 1.06.24 1.6s.17.84.26 1.27l31.2-12c0-.65.02-1.28.04-1.9z" fill="#fde92b" opacity=".9"/><path d="M96.2 171.41a5.31 5.31 0 0 1-.48-.67 3.2 3.2 0 0 1-.29-.69 8.91 8.91 0 0 1-.28-1.29c-.08-.54-.14-1.16-.18-1.85s-.05-1.5 0-2.29c0-.53 0-1.06.07-1.58L63.6 174.53c0 .12 0 .25.07.37.12.55.26 1.12.41 1.68l.15.57c.2.64.47 1.53.61 2s3.47.92 7.84 1.3l23.81-8.71c-.09-.12-.2-.22-.29-.33z" fill="#91be4a" opacity=".9"/><path d="M97.9 171.42l-.33-.18a8.14 8.14 0 0 1-.87-.56c-.14-.1-.25-.21-.37-.32l-22.88 10.91h2.4l14.47-.38c5.5-.14 9.95-2.1 9.89-4.36s-.44-4.24-.84-4.42z" fill="#009e54" opacity=".9"/></svg>