<svg xmlns="http://www.w3.org/2000/svg" width="110.09" height="200" viewBox="0 0 110.09 200"><title>_</title><path d="M72.82 25.61c-4.87.48-10.57 4.07-13.53 8.31l14.8-8.43z" fill="#00a8de" opacity=".9"/><path d="M74.68 26.53l-15.85 6.23a13.63 13.63 0 0 0-1.19 1.44l-1 1.42 22.6-8.88z" fill="#0070b4" opacity=".9"/><path fill="#333391" opacity=".9" d="M83.94 26.84l-4.56-.21-22.61 8.84-3.91 5.51L88.5 27.05l-4.56-.21z"/><path d="M91.57 25.93L88 26 53.3 42.09 51.52 45l41-19c-.32-.07-.62-.07-.95-.07z" fill="#932b8d" opacity=".9"/><path d="M91.61 24.67L51.95 46.3l-3.18 6 47.11-25.73c-.47-1.2-1.88-1.92-4.27-1.9z" fill="#e91388" opacity=".9"/><path d="M97 29L47.6 50l-1.11 1.67a10.4 10.4 0 0 0-.63 1.08l50.83-21.67A3.07 3.07 0 0 0 97 29z" fill="#ea245f" opacity=".9"/><path d="M94 32.1a8.72 8.72 0 0 0 1.79-2.7L46.5 54.32a5.59 5.59 0 0 0-.3 4.31L90 36.52z" fill="#eb2d2e" opacity=".9"/><path d="M90.64 38.19L45.23 56.68a3.82 3.82 0 0 0 1 1.6l40.53-16.5z" fill="#f19432" opacity=".9"/><path d="M51.53 60.89h1.16l26.23-12.66 7.32-7.64-39.42 19a6.82 6.82 0 0 0 4.71 1.3z" fill="#fde92b" opacity=".9"/><path fill="#91be4a" opacity=".9" d="M57.16 60.74h.01l17.96-8.77 3.64-3.84L52.61 60.9l4.55-.16z"/><path d="M74.18 53.7l1.17-1.08-18.53 7.49c5.5.19 13.3-2.69 17.36-6.41z" fill="#009e54" opacity=".9"/><path d="M61.06 67.17a85.77 85.77 0 0 0-12.88.77 56.26 56.26 0 0 0-11 2.65A39.9 39.9 0 0 0 28 75.18a33.31 33.31 0 0 0-7.15 6.59 36.38 36.38 0 0 0-3.39 5.13c-.34.63-.65 1.29-1 2l49.69-21.52c-1.67-.11-3.37-.19-5.09-.21z" fill="#00a8de" opacity=".9"/><path d="M76.92 66.6a74 74 0 0 0-8.4-.75H64.8L17.12 91.31a40.42 40.42 0 0 0-1.28 3.93 46.57 46.57 0 0 0-1.21 6.5l-.09.77 66-35.26c-1.19-.25-2.4-.47-3.62-.65z" fill="#0070b4" opacity=".9"/><path d="M100.38 81.32a26.62 26.62 0 0 0-6.3-5 62.1 62.1 0 0 0-7.16-3.58c-1.36-.57-2.76-1.1-4.19-1.59l-70 26.48-.36 1.37c-.39 2.6-.79 5.33-.87 6.06s4.33 1.58 9.82 1.89l11.63.67 2 .09 8.93-3.38.27-.82a19.8 19.8 0 0 1 .9-2.26 15.4 15.4 0 0 1 1.07-1.91 12.21 12.21 0 0 1 1.19-1.54 8.82 8.82 0 0 1 2-1.55A12 12 0 0 1 52 95.14a18.67 18.67 0 0 1 3.48-.61 30.51 30.51 0 0 1 4.29 0c1.41.08 2.75.21 4 .37a33.55 33.55 0 0 1 3.37.63h.09l34.27-13c-.42-.39-.76-.81-1.12-1.21z" fill="#333391" opacity=".9"/><path d="M44.13 108.18c.13-.56.45-1.82.7-2.81l-9 3.27c4.62.23 8.17.05 8.3-.46zM104.43 84.74a25.51 25.51 0 0 0-3.76-5.12l-33 15.84a21.23 21.23 0 0 1 2.71.6 13.39 13.39 0 0 1 2.19.85 6 6 0 0 1 1.45 1 5.56 5.56 0 0 1 1 1.36 7.55 7.55 0 0 1 .7 1.86l29.8-14.28c-.36-.69-.71-1.41-1.09-2.11zM48.72 111.32v-.25a1.5 1.5 0 1 0-3 .17v.41c.26.34-.49.84-1.66 1.1l-1 .26c-2.4.61-4.67 1.27-6.74 2a58.72 58.72 0 0 0-5.79 2.3 39.61 39.61 0 0 0-4.85 2.69 34.21 34.21 0 0 0-6.87 5.88c-.61.69-1.18 1.42-1.72 2.16L49 111.51c-.17-.03-.32-.09-.28-.19z" fill="#932b8d" opacity=".9"/><path d="M109.34 110.68c.34-3.6.62-7.05.75-9.17l-.29-2.9a32.47 32.47 0 0 0-1.14-5.91L77.2 102.8a12.46 12.46 0 0 1 0 2.47 5.68 5.68 0 0 1-.44 1.71 4.71 4.71 0 0 1-.89 1.32 6.29 6.29 0 0 1-1.48 1.13 11 11 0 0 1-2.28.94 15.06 15.06 0 0 1-1.72.41c-.71.13-1.51.25-2.37.34s-1.9.18-3 .23l-1.08.06-7.27.13-5.56.08a3.62 3.62 0 0 1-1-.14l-34.23 11A30 30 0 0 0 12 127a33.23 33.23 0 0 0-4 8 43.78 43.78 0 0 0-2 8.75z" fill="#e91388" opacity=".9"/><path d="M9 156.82l33.2-13.43a9.72 9.72 0 0 1 .74-1.59 9.41 9.41 0 0 1 1.69-2.07 11.85 11.85 0 0 1 2.43-1.7 15.37 15.37 0 0 1 2-.86c.79-.29 1.69-.57 2.69-.83s2.13-.51 3.38-.75l1.23-.23 6-.91 3-.46 43.42-17.59.07-2.14c.08-2.25.14-4.82.19-7.32L8.58 147.66v.77a43.69 43.69 0 0 0 .33 7.57c.04.29.09.55.09.82z" fill="#ea245f" opacity=".9"/><path d="M65.45 133.36l1.74-.3.73-.14c.74-.15 1.44-.3 2.09-.45s1.29-.32 1.87-.48 1.15-.35 1.65-.52 1-.37 1.49-.57l.18-.07c.2-.09.34 1.22.31 2.9s-.2 5-.37 7.27l-.37 1.82a23.72 23.72 0 0 1-1.47 4.81 17.28 17.28 0 0 1-.79 1.57l35.73-15.13.35-19zM51.39 157h-.64a13.5 13.5 0 0 1-2.18-.3 12 12 0 0 1-2-.64 11.7 11.7 0 0 1-1.85-1 6.69 6.69 0 0 1-1.4-1.21 7.94 7.94 0 0 1-1.11-1.68 11.5 11.5 0 0 1-.81-2.17 18.12 18.12 0 0 1-.49-2.88 13.76 13.76 0 0 1 .09-3.22c0-.34.13-.66.21-1L10 160.41a33.34 33.34 0 0 0 2.31 5.8 28.92 28.92 0 0 0 3.78 5.6 28.34 28.34 0 0 0 3.24 3.19z" fill="#eb2d2e" opacity=".9"/><path d="M73.56 150.57a14.72 14.72 0 0 1-1.56 1.94 12.74 12.74 0 0 1-3.1 2.33 29.11 29.11 0 0 1-3.9 1.72 26.49 26.49 0 0 1-3.9 1.08 26.09 26.09 0 0 1-4 .47 23.82 23.82 0 0 1-5.85-.44l-35 11.17c.45.56.91 1.12 1.4 1.65a34.77 34.77 0 0 0 5 4.47c.3.22.61.43.92.64l85.9-27.4.19-1.75.85-7.68z" fill="#f19432" opacity=".9"/><path d="M25.2 177.89a35.37 35.37 0 0 0 5 2.47 39.2 39.2 0 0 0 6.67 2 48.11 48.11 0 0 0 7.3.89 49.33 49.33 0 0 0 5.86-.07 43.94 43.94 0 0 0 5.61-.77 40.55 40.55 0 0 0 10.45-3.66c1.34-.7 2.66-1.45 3.93-2.23s2.51-1.61 3.72-2.48l1-.71c1-.83 1.94-1.05 2-.5l.06.47c.06.52.15 1.06.25 1.6s.17.84.27 1.27L108.46 164v-1.89q0-1.66.09-3.19c0-1 .06-2 .1-2.92v-.93c0-.84.24-5.13.46-10z" fill="#fde92b" opacity=".9"/><path d="M77.69 174.81c.12.55.25 1.12.4 1.69l.15.57c.19.64.46 1.53.6 2s3.46.94 7.83 1.35l23.86-8.58c-.1-.1-.21-.2-.3-.31a5.31 5.31 0 0 1-.48-.67 3.2 3.2 0 0 1-.28-.69 8.91 8.91 0 0 1-.28-1.3c-.08-.54-.14-1.16-.17-1.85s0-1.5 0-2.29c0-.53.05-1.06.08-1.57l-31.48 11.28c.02.12.04.24.07.37z" fill="#91be4a" opacity=".9"/><path d="M90.4 182.14l14.38-1.61c5.47-.61 9.73-2.94 9.48-5.18s-.8-4.19-1.21-4.33l-1.52-.53-.34-.16a8.14 8.14 0 0 1-.91-.49c-.15-.09-.27-.19-.4-.29L88 182.38z" fill="#009e54" opacity=".9"/></svg>