<svg xmlns="http://www.w3.org/2000/svg" width="102.56" height="200" viewBox="0 0 102.56 200"><title>_</title><path d="M53.77 25.7c-5.48.45-12.45 4.57-15.48 9.16L37 36.73l20.81-11.36z" fill="#00a8de" opacity=".9"/><path d="M36.71 36.35l-4 5.49 32.93-16.21c-1.32 0-2.79.07-4.32.13l-3.37.13z" fill="#0070b4" opacity=".9"/><path d="M23.92 51.6l50.37-21.82L72 26.85a35.67 35.67 0 0 0-6-.41L32.41 41z" fill="#333391" opacity=".9"/><path d="M23.75 53.25a7.35 7.35 0 0 0-1.63 3.81l53.79-25.68-2.08-2.52-49.54 23.65z" fill="#932b8d" opacity=".9"/><path d="M26.34 58.68l.82.06 53.65-19.35-1.67-2.49-2-2.93L21.1 54.19c-.38 2.41 1.48 4.21 5.24 4.49z" fill="#e91388" opacity=".9"/><path d="M37.18 62.32l15.13-8.66.24-.35a7.1 7.1 0 0 1 6.69-3.62l22-12.57-2.26-2.35-49.55 28.34z" fill="#ea245f" opacity=".9"/><path d="M64.3 53.95a13.25 13.25 0 0 0 1.44 1.28L86 43.52l-4.54-4.69-21.94 12.68a7.58 7.58 0 0 1 4.78 2.44zM36.39 60.56c5.35-.09 12.16-3.36 15.39-7.34L36 60.57h.42z" fill="#eb2d2e" opacity=".9"/><path d="M68.12 57.19L88 46.81l-2.16-2.44-20.67 10.79a19 19 0 0 0 2.95 2.03z" fill="#f19432" opacity=".9"/><path d="M76.28 60.34l15.88-8.66-.08-.09-4.34-4.71L68 57.63a24.74 24.74 0 0 0 8.28 2.71z" fill="#fde92b" opacity=".9"/><path d="M79.34 60.39h3.23l11.21-4.88a8.34 8.34 0 0 0-1.46-2.82l-16.58 7.25a17.22 17.22 0 0 0 3.6.45z" fill="#91be4a" opacity=".9"/><path d="M88.33 60.44c4.2.09 6.23-1.93 5.5-4.85l-11.28 4.72z" fill="#009e54" opacity=".9"/><path d="M55.55 65.37a85.73 85.73 0 0 0-12.75 2A56.24 56.24 0 0 0 32.07 71a40 40 0 0 0-8.67 5.43 33.28 33.28 0 0 0-6.5 7.24A36.28 36.28 0 0 0 14 89.1c-.28.66-.53 1.35-.77 2l47.39-26c-1.62.04-3.36.12-5.07.27z" fill="#00a8de" opacity=".9"/><path d="M75.05 72.08a74.07 74.07 0 0 0-8.13-2.22c-1.19-.25-2.42-.47-3.65-.68L11.82 85.81a40.23 40.23 0 0 0-2 3.64 46.27 46.27 0 0 0-2.34 6.18l-.22.74 71.22-23c-1.1-.47-2.25-.9-3.43-1.29z" fill="#0070b4" opacity=".9"/><path d="M95 77a26.64 26.64 0 0 0-6.77-4.4 62.42 62.42 0 0 0-7.48-2.85c-1.41-.44-2.86-.82-4.33-1.17l-67 33.3-.21 1.47c-.21 2.65-.33 5.41-.34 6.14s4.47 1.14 10 .91l11.64-.49 1.95-.1 8.54-4.25.19-.84a19.88 19.88 0 0 1 .67-2.34 15.24 15.24 0 0 1 .87-2 12.09 12.09 0 0 1 1-1.65A8.83 8.83 0 0 1 45.58 97a11.84 11.84 0 0 1 2.57-1.37 18.72 18.72 0 0 1 3.41-.95 30.49 30.49 0 0 1 4.26-.46c1.41-.06 2.75-.07 4 0a33.71 33.71 0 0 1 3.41.29h.09l32.81-16.3c-.39-.43-.77-.82-1.13-1.21z" fill="#333391" opacity=".9"/><path d="M41.45 113.28l-2.42.44c-2.45.44-4.76 1-6.86 1.52a59 59 0 0 0-5.93 1.91 39.89 39.89 0 0 0-5 2.33 34.23 34.23 0 0 0-7.25 5.4c-.66.65-1.27 1.33-1.87 2l32.34-14zM39.73 108.13c.12-.57.42-1.83.66-2.82l-8.92 3.41c4.59.14 8.16-.09 8.26-.59zM99.82 84.17a25.44 25.44 0 0 0-3.93-5l-32.51 16.9a21.29 21.29 0 0 1 2.72.51 13.2 13.2 0 0 1 2.22.78 6 6 0 0 1 1.48 1 5.55 5.55 0 0 1 1.07 1.32 7.53 7.53 0 0 1 .76 1.84L101 86.3c-.4-.74-.77-1.45-1.18-2.13z" fill="#932b8d" opacity=".9"/><path d="M102.56 101.27c-.35-3.6-.72-7-1-9.14l-.83-2.8a32.46 32.46 0 0 0-2.24-5.59l-29 15.85a12.43 12.43 0 0 1 .43 2.44 5.72 5.72 0 0 1-.11 1.76 4.71 4.71 0 0 1-.62 1.47 6.3 6.3 0 0 1-1.19 1.37 11.05 11.05 0 0 1-2.09 1.37 15.13 15.13 0 0 1-1.61.73c-.67.26-1.43.53-2.26.78s-1.83.53-2.87.79l-1 .26c-1.32.29-4.53 1-7.12 1.5-1.82.37-4.56 1-7 1.51L13 130.46a30 30 0 0 0-2.94 5.21 33.13 33.13 0 0 0-2.4 8.64 43.68 43.68 0 0 0-.27 9z" fill="#e91388" opacity=".9"/><path d="M3 153.33l34.19-11.17.62-1a17 17 0 0 1 1.64-2.16l.27-.22a11.8 11.8 0 0 1 2.54-1.53 15.57 15.57 0 0 1 2-.72c.84-.27 1.74-.53 2.74-.68s2.18-.37 3.42-.52l1.24-.15 6.07-.49 3.07-.25 44.53-14.55.22-2.13c.23-2.24.47-4.8.69-7.29L3.2 144.16c0 .26-.07.51-.1.77a43.8 43.8 0 0 0-.15 7.6c.05.27.05.53.05.8z" fill="#ea245f" opacity=".9"/><path d="M61.09 134.07l1.73-.35.73-.17q1.11-.25 2.07-.52c.66-.18 1.28-.36 1.85-.54s1.13-.38 1.63-.58 1-.4 1.47-.62l.18-.08c.2-.09.38 1.21.4 2.89s0 5-.13 7.27l-.31 1.84a23.79 23.79 0 0 1-1.31 4.86 17.42 17.42 0 0 1-.74 1.59l35.21-16.3-.28-19zM47 160.23l-.63-.11a13.47 13.47 0 0 1-2.11-.63 11.65 11.65 0 0 1-3.55-2.19 6.7 6.7 0 0 1-1.19-1.41 7.89 7.89 0 0 1-.84-1.83 11.63 11.63 0 0 1-.47-2.35 18.32 18.32 0 0 1 0-2.92 13.79 13.79 0 0 1 .54-3.14v-.07c0-.05.22-.42.51-.94L5.57 157.21A33.38 33.38 0 0 0 7 163.3a29 29 0 0 0 2.87 6.12 28.39 28.39 0 0 0 2.75 3.68z" fill="#eb2d2e" opacity=".9"/><path d="M67.93 148.85a14.71 14.71 0 0 1-1.22 2.15 12.78 12.78 0 0 1-2.65 2.84 29.05 29.05 0 0 1-3.48 2.35 26.49 26.49 0 0 1-3.66 1.81 26 26 0 0 1-3.85 1.15 23.86 23.86 0 0 1-5.84.58l-32.57 17.02c.54.48 1.09.95 1.67 1.39a34.84 34.84 0 0 0 5.67 3.53c.33.17.68.32 1 .47l79.87-41.83-.11-1.76-.49-7.71z" fill="#f19432" opacity=".9"/><path d="M23 183.27a35.36 35.36 0 0 0 5.3 1.79 39.27 39.27 0 0 0 6.87 1.08 48.13 48.13 0 0 0 7.36-.08 49.35 49.35 0 0 0 5.8-.84 44 44 0 0 0 5.46-1.5 41.31 41.31 0 0 0 5.12-2.16 40.83 40.83 0 0 0 4.76-2.84c1.23-.86 2.45-1.78 3.6-2.72s2.28-1.93 3.36-3l.87-.82c.93-1 1.79-1.31 1.92-.77l.12.47q.2.76.46 1.55c.13.4.28.81.43 1.22l29.28-16.14-.2-1.88q-.18-1.65-.33-3.18t-.28-2.91l-.09-.93c-.07-.84-.44-5.12-.85-9.93z" fill="#fde92b" opacity=".9"/><path d="M73.45 175.57c.14.55.3 1.1.48 1.66l.17.56.69 2c.14.37 3.5.78 7.88 1l23.44-9.67c-.1-.1-.21-.19-.31-.29a5.34 5.34 0 0 1-.51-.66 3.17 3.17 0 0 1-.31-.67 9.08 9.08 0 0 1-.34-1.29c-.11-.54-.19-1.16-.25-1.84s-.11-1.49-.13-2.29v-1.58l-30.9 12.7c.03.12.05.24.09.37z" fill="#91be4a" opacity=".9"/><path d="M84.95 180l14.42 1.21c5.48.46 10.12-1 10.31-3.25s0-4.26-.35-4.48l-1.39-.82-.3-.21a8.39 8.39 0 0 1-.81-.66c-.12-.11-.22-.24-.33-.36l-23.94 8.34z" fill="#009e54" opacity=".9"/></svg>