<svg xmlns="http://www.w3.org/2000/svg" width="104.86" height="200" viewBox="0 0 104.86 200"><title>_</title><path d="M32.32 144.25a1.49 1.49 0 0 0-1.26.48l1.4-.45z" fill="#00a8de" opacity=".9"/><path d="M32.44 144.22l-1.36.57a1.5 1.5 0 0 0-.18.29l1.87-.78a1.49 1.49 0 0 0-.33-.08z" fill="#0070b4" opacity=".9"/><path d="M32.74 144.24l-1.82.9a1.49 1.49 0 0 0-.09.49l2.36-1.17a1.49 1.49 0 0 0-.45-.22z" fill="#333391" opacity=".9"/><path d="M33.25 144.59l-2.48.91v.22l2.64-1z" fill="#932b8d" opacity=".9"/><path d="M33.4 144.69l-2.61 1.07a1.49 1.49 0 0 0 .07.4l2.77-1.16a1.51 1.51 0 0 0-.23-.31z" fill="#e91388" opacity=".9"/><path d="M33.65 145.07l-2.79 1.06a1.46 1.46 0 0 0 .07.19l2.79-1.06a1.48 1.48 0 0 0-.07-.19z" fill="#ea245f" opacity=".9"/><path d="M33.75 145.27l-2.8 1a1.49 1.49 0 0 0 .21.35l2.65-1a1.49 1.49 0 0 0-.06-.35z" fill="#eb2d2e" opacity=".9"/><path d="M31.2 146.69l.16.15 2.43-1v-.1-.12z" fill="#f19432" opacity=".9"/><path d="M31.85 147.15l1.81-.92a1.49 1.49 0 0 0 .09-.49l-2.35 1.2a1.49 1.49 0 0 0 .45.21z" fill="#fde92b" opacity=".9"/><path d="M32.15 147.17l1.35-.59a1.49 1.49 0 0 0 .18-.3l-1.86.82a1.5 1.5 0 0 0 .33.07z" fill="#91be4a" opacity=".9"/><path d="M32.26 147.13a1.49 1.49 0 0 0 1.26-.47l-1.4.44z" fill="#009e54" opacity=".9"/><path d="M49.65 68.24a85.73 85.73 0 0 0-12.9.08 56.24 56.24 0 0 0-11.15 2 40 40 0 0 0-9.37 4.1 33.28 33.28 0 0 0-7.49 6.2 36.28 36.28 0 0 0-3.66 4.94c-.38.61-.72 1.25-1.06 1.89l50.7-18.77c-1.66-.15-3.35-.33-5.07-.44z" fill="#00a8de" opacity=".9"/><path d="M67.47 72a74.07 74.07 0 0 0-8.14-2.2c-1.19-.25-2.42-.47-3.66-.67L4.27 85.89a40.23 40.23 0 0 0-1.95 3.65A46.27 46.27 0 0 0 0 95.72l-.22.74 71.16-23.19c-1.14-.45-2.29-.87-3.47-1.27z" fill="#0070b4" opacity=".9"/><path d="M87.78 78.42a26.64 26.64 0 0 0-6.63-4.61 62.26 62.26 0 0 0-7.38-3.09 62.98 62.98 0 0 0-4.29-1.31L1.41 100.52 1.15 102c-.22 2.62-.43 5.36-.46 6.09s4.43 1.29 9.93 1.23l11.65-.11h2l8.68-4 .21-.83a19.88 19.88 0 0 1 .75-2.32 15.24 15.24 0 0 1 .94-2 12.09 12.09 0 0 1 1.09-1.61 8.83 8.83 0 0 1 1.89-1.68 11.84 11.84 0 0 1 2.61-1.28 18.72 18.72 0 0 1 3.44-.84 30.49 30.49 0 0 1 4.28-.32c1.41 0 2.75 0 4 .11a33.71 33.71 0 0 1 3.4.4h.09L88.9 79.59c-.36-.4-.73-.79-1.12-1.17z" fill="#333391" opacity=".9"/><path d="M92.91 86.41A25.44 25.44 0 0 0 89.63 81L55.28 93.71a21.29 21.29 0 0 1 2.64.84A13.2 13.2 0 0 1 60 95.6a6 6 0 0 1 1.35 1.14 5.55 5.55 0 0 1 .9 1.44 7.55 7.55 0 0 1 .52 1.92l31-11.49c-.26-.72-.54-1.48-.86-2.2zM32.12 108.31c.15-.56.5-1.81.79-2.79l-9.07 3c4.58.35 8.16.28 8.28-.21zM34.23 114l-2.44.31c-2.47.32-4.8.71-6.93 1.16a58.79 58.79 0 0 0-6 1.59 39.75 39.75 0 0 0-5.14 2.06 34.23 34.23 0 0 0-7.52 5c-.69.61-1.34 1.27-2 1.94l33-12.3z" fill="#932b8d" opacity=".9"/><path d="M94.44 99.73c-.46-3.58-.94-7-1.28-9.11l-.92-2.77a32.46 32.46 0 0 0-2.41-5.52L61.35 99.11a12.43 12.43 0 0 1 .51 2.42 5.72 5.72 0 0 1-.06 1.76 4.71 4.71 0 0 1-.57 1.49A6.3 6.3 0 0 1 60 106.2a11.05 11.05 0 0 1-2 1.42 15.13 15.13 0 0 1-1.59.78c-.66.28-1.42.57-2.23.85s-1.82.59-2.85.88l-1 .29c-1.31.33-4.49 1.11-7.07 1.72-1.8.43-4.53 1.11-7 1.73l-30.39 17.9a30 30 0 0 0-2.77 5.3 33.13 33.13 0 0 0-2.1 8.71 43.68 43.68 0 0 0 0 9z" fill="#e91388" opacity=".9"/><path d="M1.23 163.77l30.85-18.11a9.77 9.77 0 0 1 .5-1.68 9.4 9.4 0 0 1 1.38-2.3 11.8 11.8 0 0 1 2.16-2 15.57 15.57 0 0 1 1.88-1.16c.74-.4 1.6-.81 2.54-1.21s2-.82 3.23-1.24l1.18-.41 5.83-1.78 2.94-.9 40.4-23.71-.24-2.12c-.25-2.23-.56-4.79-.88-7.27L-.56 154.77c0 .26 0 .51.07.77A43.8 43.8 0 0 0 1 163c.06.26.15.51.23.77z" fill="#ea245f" opacity=".9"/><path d="M53.45 131.53l1.76-.15.79-.08q1.13-.12 2.12-.27c.68-.1 1.31-.21 1.9-.32s1.17-.25 1.69-.38 1-.28 1.53-.44l.19-.06c.21-.07.23 1.24.06 2.92s-.62 4.92-1 7.21l-.52 1.79a23.81 23.81 0 0 1-1.97 4.66 17.42 17.42 0 0 1-.92 1.49l36.89-12L98 117zM39.51 159l-.63-.08a13.47 13.47 0 0 1-2.15-.5 11.65 11.65 0 0 1-3.67-2 6.7 6.7 0 0 1-1.28-1.34 7.89 7.89 0 0 1-.95-1.77 11.63 11.63 0 0 1-.61-2.32 18.32 18.32 0 0 1-.21-2.92 13.79 13.79 0 0 1 .35-3.17c.08-.33.19-.65.3-1L-2 158.45a33.3 33.3 0 0 0 1.75 6 29 29 0 0 0 3.23 5.93 28.39 28.39 0 0 0 3 3.51z" fill="#eb2d2e" opacity=".9"/><path d="M60.27 148.73a14.71 14.71 0 0 1-1.19 2.2 12.78 12.78 0 0 1-2.62 2.87 29.05 29.05 0 0 1-3.45 2.4 26.49 26.49 0 0 1-3.63 1.8 26 26 0 0 1-3.83 1.2 23.88 23.88 0 0 1-5.83.65L7.37 177.31c.54.47 1.1.93 1.68 1.36a34.84 34.84 0 0 0 5.73 3.46c.34.16.68.31 1 .46l79.33-42.86L95 138l-.59-7.7z" fill="#f19432" opacity=".9"/><path d="M14.36 180.86a35.36 35.36 0 0 0 5.18 2.14 39.27 39.27 0 0 0 6.79 1.48 48.13 48.13 0 0 0 7.35.36 49.35 49.35 0 0 0 5.84-.49 44 44 0 0 0 5.54-1.17 41.31 41.31 0 0 0 5.24-1.85 40.83 40.83 0 0 0 4.92-2.55c1.28-.79 2.55-1.63 3.76-2.5s2.39-1.79 3.53-2.74l.92-.77c1-.9 1.87-1.2 2-.65l.09.47q.15.77.36 1.57c.11.41.23.83.36 1.25L96.4 161c0-.64-.06-1.27-.09-1.89q-.08-1.66-.14-3.19t-.11-2.92v-.93c0-.85-.13-5.14-.25-10z" fill="#fde92b" opacity=".9"/><path d="M65.74 174.9c.12.55.26 1.11.41 1.68l.15.57c.2.64.47 1.53.61 2s3.47.92 7.84 1.3l23.81-8.71c-.1-.1-.2-.2-.29-.3a5.34 5.34 0 0 1-.48-.68 3.17 3.17 0 0 1-.29-.68 9.08 9.08 0 0 1-.29-1.3c-.08-.54-.14-1.16-.18-1.85s-.05-1.5 0-2.29c0-.53 0-1.06.07-1.57l-31.4 11.48c0 .11.01.23.04.35z" fill="#91be4a" opacity=".9"/><path d="M77.73 180.83l14.48.17c5.5.06 10-1.74 10-4s-.28-4.25-.68-4.44l-1.45-.71-.31-.19A8.39 8.39 0 0 1 99 171c-.13-.1-.24-.22-.36-.33l-23.31 10.11z" fill="#009e54" opacity=".9"/><path d="M31.73 30.35A23.67 23.67 0 0 0 26 31.88a22 22 0 0 0-5 2.92 23.75 23.75 0 0 0-3.12 2.92l20.84-7.48a29.24 29.24 0 0 0-6.99.11z" fill="#00a8de" opacity=".9"/><path d="M41.31 28.49h-2.9l-.84.07-19.1 11.18c-.3.49-.59 1-.86 1.52a27.57 27.57 0 0 0-1.26 2.93L42.9 28.63h-.16c-.48-.07-.96-.12-1.43-.14z" fill="#0070b4" opacity=".9"/><path d="M15.21 42.47c-.59 1.12-1.17 2.36-1.71 3.69-.39 1-.77 2-1.14 3.1l39.32-15.79-3.9-1.64-.36-.14-1.1-.4-1.19-.38-1.13-.32-28.55 11.47z" fill="#333391" opacity=".9"/><path d="M11.69 49.09l-.57 1.47-.24.73 45-15-2.31-1.12-1.24-.61-40.17 13.39c-.16.38-.32.74-.47 1.14z" fill="#932b8d" opacity=".9"/><path d="M10.81 57.44c-.1.44 1 .85 2.72 1.13l49.3-21.68-2.86-1c-1-.34-2.89-1-4.79-1.73L11.75 53.31c-.39 1.69-.75 3.41-.94 4.13zM81.07 28.77c-4.92-.18-9.06.09-9.21.6s-.41 1.36-.58 1.89l-.18.46a13.68 13.68 0 0 1-.59 1.28l-.08.13 10.84-4.36h-.2z" fill="#e91388" opacity=".9"/><path d="M19.92 60.06H20l10-4.86c0-.1.08-.22.13-.32a9 9 0 0 1 .68-1.16 7.46 7.46 0 0 1 .75-.92 5.28 5.28 0 0 1 1.8-1.17 6.3 6.3 0 0 1 1.14-.33 10.42 10.42 0 0 1 2.06-.16h1.64l48.38-23.33a40 40 0 0 0-5.9-.21l-10.52 5.09c-.17.37-.34.74-.53 1.07a12.09 12.09 0 0 1-.7 1.1 2.82 2.82 0 0 1-.58.6 3.94 3.94 0 0 1-.89.5 6.55 6.55 0 0 1-1.31.38 11.31 11.31 0 0 1-2.38.18h-.56l-.49-.07h-.15L14.08 59.86a39 39 0 0 0 5.84.2z" fill="#ea245f" opacity=".9"/><path d="M28.64 57.68c.07-.53.21-1.48.31-2.09l.13-.52a11.23 11.23 0 0 1 .35-1.07l-9.64 5.62c4.81-.54 8.78-1.41 8.85-1.94zM39.7 53.69h.67l.69.08.72.12.22.11 4.62 1 1 .21L88 31.46c.14-1.75.27-3.55.31-4.26 0-.42-1-.68-2.71-.75L39.27 53.68h.43z" fill="#eb2d2e" opacity=".9"/><path d="M49.51 53.68l38.78-15c.12-.33.25-.65.36-1l.54-1.62.19-.78-43.68 16.9z" fill="#f19432" opacity=".9"/><path d="M49.9 53.9l.52.19 1.58.53 1.59.51 1.58.47q1.43.44 2.69.78l.29.07L85 45.7a38.89 38.89 0 0 0 1.85-3.56c.54-1.18 1-2.44 1.46-3.72L49.73 53.83z" fill="#fde92b" opacity=".9"/><path d="M60.24 56.55c.75.18 1.47.33 2.14.45l.72.11L82.45 50a35 35 0 0 0 2.45-3.29c.15-.23.29-.48.43-.71L58.14 56c.74.2 1.45.39 2.1.55z" fill="#91be4a" opacity=".9"/><path d="M64.67 57.63a27.22 27.22 0 0 0 5.21-.44 21.25 21.25 0 0 0 4.69-1.44 18.82 18.82 0 0 0 4.08-2.47A19.7 19.7 0 0 0 82 49.85c.12-.16.24-.34.36-.5l-18.9 8.23c.43.03.84.05 1.21.05z" fill="#009e54" opacity=".9"/></svg>