<svg xmlns="http://www.w3.org/2000/svg" width="105.7" height="200" viewBox="0 0 105.7 200"><title>_</title><path d="M35.95 30.65a10 10 0 0 0-9.18 4.63L39 30.88z" fill="#00a8de" opacity=".9"/><path d="M39.07 30.66l-12.18 4.6A9.91 9.91 0 0 0 25.74 38l18.51-7z" fill="#0070b4" opacity=".9"/><path d="M26.3 44.17l24.58-13.32a9.9 9.9 0 0 0-5.15-1l-2.2.17-17.4 9.43a9.93 9.93 0 0 0 0 2v.45z" fill="#333391" opacity=".9"/><path d="M26.35 46.58l26.4-14.37a10.09 10.09 0 0 0-2-1.3L26.17 44.27z" fill="#932b8d" opacity=".9"/><path d="M25.19 46.18l-.08.75a9.91 9.91 0 0 0 0 1.51L56 38.5a10.05 10.05 0 0 0-2-3.81l-28.56 9.19z" fill="#e91388" opacity=".9"/><path d="M27.19 53.44l28.37-15.85a9.88 9.88 0 0 0-.73-2L26.45 51.43a9.88 9.88 0 0 0 .74 2.01z" fill="#ea245f" opacity=".9"/><path d="M29.11 56.19L56.1 43l-.1-2.36v-.75a9.92 9.92 0 0 0-.18-1.5L26.63 52.7a10.05 10.05 0 0 0 2.48 3.49z" fill="#eb2d2e" opacity=".9"/><path d="M30.32 56.47l26.18-9.82.14-2.31L28.5 54.89a10.09 10.09 0 0 0 1.82 1.58z" fill="#f19432" opacity=".9"/><path d="M35.87 58.71h2.21L56 50.32a9.93 9.93 0 0 0 .16-2V45.6L30.8 57.41a9.9 9.9 0 0 0 5.07 1.3z" fill="#fde92b" opacity=".9"/><path d="M43.37 58.76L55 52.89a9.92 9.92 0 0 0 .85-2.8L38.18 59z" fill="#91be4a" opacity=".9"/><path d="M46.11 58.42a10 10 0 0 0 9.09-4.82L43 58.26z" fill="#009e54" opacity=".9"/><path d="M59.27 67a85.73 85.73 0 0 0-12.87.85 56.24 56.24 0 0 0-11 2.71 40 40 0 0 0-9.11 4.65 33.37 33.37 0 0 0-7.11 6.64A36.36 36.36 0 0 0 15.82 87c-.34.63-.64 1.29-.95 2l49.49-21.77c-1.67-.1-3.36-.17-5.09-.23z" fill="#00a8de" opacity=".9"/><path d="M77.58 71.64a74.07 74.07 0 0 0-8.16-2.11c-1.19-.24-2.42-.44-3.66-.63L14.54 86.25a40.23 40.23 0 0 0-1.91 3.67 46.27 46.27 0 0 0-2.26 6.21l-.21.74 70.89-24c-1.13-.44-2.29-.87-3.47-1.23z" fill="#0070b4" opacity=".9"/><path d="M99 83.32A26.64 26.64 0 0 0 92.9 78a62.42 62.42 0 0 0-7-3.9c-1.33-.63-2.71-1.23-4.11-1.78L10.67 95.59 10.24 97c-.51 2.58-1 5.28-1.14 6s4.26 1.77 9.73 2.34l11.59 1.19 1.94.18 9.42-3.08a2.59 2.59 0 0 1 .34-.42l.05-.51v-.23a3 3 0 0 1 .33-1.36l.23-.43a15.24 15.24 0 0 1 1.15-1.85 12.09 12.09 0 0 1 1.26-1.48 8.83 8.83 0 0 1 2.07-1.46 11.84 11.84 0 0 1 2.74-1 18.63 18.63 0 0 1 3.51-.45 30.49 30.49 0 0 1 4.28.16c1.41.14 2.73.33 3.95.55A33.71 33.71 0 0 1 65 96h.09L100 84.6c-.36-.43-.69-.87-1-1.28z" fill="#333391" opacity=".9"/><path d="M102.58 84.37a25.44 25.44 0 0 0-3.87-5L66 95.85a21.29 21.29 0 0 1 2.72.54 13.2 13.2 0 0 1 2.21.81 6 6 0 0 1 1.47 1 5.55 5.55 0 0 1 1.06 1.33 7.53 7.53 0 0 1 .74 1.85l29.49-14.9c-.35-.7-.69-1.42-1.11-2.11zM43.46 112.07l-2.37.66c-2.4.67-4.65 1.4-6.68 2.16a59 59 0 0 0-5.73 2.45 39.89 39.89 0 0 0-4.78 2.79 34.23 34.23 0 0 0-6.71 6.06c-.6.71-1.14 1.45-1.67 2.2l30.88-17zM42.46 108c.1-.58.23-1.3.29-1.61a6.37 6.37 0 0 1 .59-1.37l-9.12 3.88c4.6-.04 8.15-.41 8.24-.9z" fill="#932b8d" opacity=".9"/><path d="M105.7 102.59c-.25-3.6-.53-7.06-.74-9.17l-.75-2.82a32.46 32.46 0 0 0-2.09-5.6l-29.41 15a12.43 12.43 0 0 1 .36 2.45 5.72 5.72 0 0 1-.16 1.75 4.71 4.71 0 0 1-.66 1.45A6.3 6.3 0 0 1 71 107a11.05 11.05 0 0 1-2.1 1.3 15.13 15.13 0 0 1-1.63.69c-.68.25-1.45.49-2.28.72s-1.85.48-2.89.71l-1.05.23c-1.33.25-4.55.84-7.16 1.3-1.83.33-4.59.84-7.09 1.32l-31.41 16.06a29.91 29.91 0 0 0-3.08 5.12A33.13 33.13 0 0 0 9.68 143a43.68 43.68 0 0 0-.51 9z" fill="#e91388" opacity=".9"/><path d="M40.29 143.09a.84.84 0 0 1 .3-.41h.08a1.5 1.5 0 0 0 1.58-1.42v-.36a1.11 1.11 0 0 1 .22-1.16l.29-.26a11.8 11.8 0 0 1 2.46-1.66 15.57 15.57 0 0 1 2-.82c.8-.28 1.71-.54 2.7-.78s2.15-.48 3.39-.69l1.23-.21 6-.8 3-.41 43.72-16.82.11-2.14c.12-2.25.23-4.81.32-7.31L6.59 146.77c0 .26 0 .51-.06.77a43.8 43.8 0 0 0 .24 7.6c0 .27.08.53.12.8z" fill="#ea245f" opacity=".9"/><path d="M63.71 133.11l1.74-.28.74-.14q1.12-.21 2.1-.42c.67-.15 1.29-.3 1.88-.46s1.15-.33 1.65-.51 1-.36 1.49-.55l.18-.07c.2-.08.32 1.22.27 2.9s-.26 4.95-.46 7.26l-.39 1.82a23.81 23.81 0 0 1-1.53 4.8 17.42 17.42 0 0 1-.81 1.56l35.91-14.71.57-19zM49.72 157.79h-.64a13.47 13.47 0 0 1-2.17-.38 11.65 11.65 0 0 1-3.78-1.76 6.7 6.7 0 0 1-1.35-1.26 7.89 7.89 0 0 1-1-1.72 11.63 11.63 0 0 1-.74-2.28 18.32 18.32 0 0 1-.38-2.9 13.79 13.79 0 0 1 .17-3.18l.09-.5c.05-.18.11-.35.17-.49L8.2 159.65a33.3 33.3 0 0 0 2.09 5.88 29 29 0 0 0 3.57 5.74A28.39 28.39 0 0 0 17 174.6z" fill="#eb2d2e" opacity=".9"/><path d="M105.82 140.94l-.09-1.76-.38-7.71L70.72 149a14.71 14.71 0 0 1-1.25 2.16 12.78 12.78 0 0 1-2.69 2.8 29.05 29.05 0 0 1-3.51 2.3 26.49 26.49 0 0 1-3.68 1.69 26 26 0 0 1-3.87 1.05 23.89 23.89 0 0 1-5.85.5l-32.81 16.6c.53.49 1.08 1 1.65 1.41a34.84 34.84 0 0 0 5.63 3.62c.33.17.67.33 1 .49z" fill="#f19432" opacity=".9"/><path d="M106.8 163.08q.08-1.66.17-3.19t.17-2.92l.06-.93c.06-.84.36-5.13.7-9.94l-84.76 30.77a35.36 35.36 0 0 0 5 2.59 39.27 39.27 0 0 0 6.62 2.13 48.13 48.13 0 0 0 7.24 1.07 49.35 49.35 0 0 0 5.86.07 44 44 0 0 0 5.63-.63 41.31 41.31 0 0 0 5.39-1.34 40.83 40.83 0 0 0 5.12-2.07c1.35-.66 2.69-1.38 4-2.13s2.55-1.55 3.78-2.39l1-.68c1.06-.81 2-1 2-.46v.48q.08.79.21 1.6c.07.42.15.84.24 1.28L106.71 165c.03-.67.06-1.3.09-1.92z" fill="#fde92b" opacity=".9"/><path d="M108.43 169.86a5.34 5.34 0 0 1-.55-.63 3.17 3.17 0 0 1-.35-.65 9.08 9.08 0 0 1-.41-1.27c-.14-.53-.26-1.14-.36-1.82s-.2-1.49-.26-2.28c0-.53-.06-1.06-.09-1.57l-30.12 14.48c0 .12.07.24.11.37.17.54.36 1.08.57 1.63l.21.55.8 1.91c.16.37 3.54.58 7.93.54l22.85-11c-.11-.12-.23-.12-.33-.26z" fill="#91be4a" opacity=".9"/><path d="M110.14 171.24l-.32-.18a8.39 8.39 0 0 1-.88-.55c-.13-.1-.25-.21-.38-.31l-22.71 11.28 2.4-.08 14.46-.61c5.5-.23 9.91-2.27 9.82-4.52s-.51-4.23-.91-4.4z" fill="#009e54" opacity=".9"/><path d="M74.82 30.44A10 10 0 0 0 66 35.73l11.89-5.3h-3.07z" fill="#00a8de" opacity=".9"/><path d="M78.21 30.75l-12.27 4.34a9.91 9.91 0 0 0-1.21 2.67l18.66-6.59z" fill="#0070b4" opacity=".9"/><path d="M64.78 43.1l25.63-11.17a9.9 9.9 0 0 0-5-1.43H83.2L65 38.39a9.93 9.93 0 0 0-.21 1.95v.45z" fill="#333391" opacity=".9"/><path d="M64.39 44.56l28.23-10.32a10.09 10.09 0 0 0-1.81-1.59l-26.26 9.6z" fill="#932b8d" opacity=".9"/><path d="M64.23 46.12l-.08.75a9.91 9.91 0 0 0 0 1.51l31-9.81a10.05 10.05 0 0 0-1.94-3.82l-28.72 9.07z" fill="#e91388" opacity=".9"/><path d="M65.26 51.68l30.1-12.26a9.88 9.88 0 0 0-.48-2.09L64.78 49.6a9.88 9.88 0 0 0 .48 2.08z" fill="#ea245f" opacity=".9"/><path d="M68.61 56.76l26.33-14.5-.2-2.26-.06-.75a9.92 9.92 0 0 0-.25-1.49L66 53.4a10.05 10.05 0 0 0 2.61 3.36z" fill="#eb2d2e" opacity=".9"/><path d="M70.4 58.18l24.47-13.53-.2-2.3-26.3 14.54a10.09 10.09 0 0 0 2.03 1.29z" fill="#f19432" opacity=".9"/><path d="M75 58.74h2.21l17.91-8.42a9.93 9.93 0 0 0 .15-2V45.56l-25.3 11.9A9.9 9.9 0 0 0 75 58.74z" fill="#fde92b" opacity=".9"/><path d="M82.52 58.84L94 52.73a9.92 9.92 0 0 0 .8-2.82l-17.47 9.28z" fill="#91be4a" opacity=".9"/><path d="M85.2 58.46a10 10 0 0 0 9-4.92l-12.07 4.79z" fill="#009e54" opacity=".9"/></svg>