<svg xmlns="http://www.w3.org/2000/svg" width="100.7" height="200" viewBox="0 0 100.7 200"><title>_</title><path d="M54.57 68.94a85.73 85.73 0 0 0-12.9-.36 56.24 56.24 0 0 0-11.21 1.67A40 40 0 0 0 21 74a33.28 33.28 0 0 0-7.74 6 36.28 36.28 0 0 0-3.82 4.81c-.4.6-.76 1.23-1.13 1.86l51.32-17c-1.63-.33-3.34-.56-5.06-.73z" fill="#00a8de" opacity=".9"/><path d="M69.84 67.11a74.07 74.07 0 0 0-8.39-.89c-1.22-.06-2.46-.08-3.72-.08L9.62 90.78a40.26 40.26 0 0 0-1.35 3.91 46.27 46.27 0 0 0-1.32 6.48l-.1.77 66.62-34.12c-1.2-.27-2.41-.51-3.63-.71z" fill="#0070b4" opacity=".9"/><path d="M91.83 76.45a26.64 26.64 0 0 0-6.83-4.3 62.42 62.42 0 0 0-7.52-2.74c-1.41-.42-2.87-.78-4.34-1.11L6.57 102.51 6.38 104c-.1 2.63-.18 5.38-.18 6.11s4.48 1.08 10 .77l11.63-.65 1.95-.13 8.49-4.36.18-.84a19.88 19.88 0 0 1 .64-2.35 15.32 15.32 0 0 1 .84-2 12.26 12.26 0 0 1 1-1.66 8.83 8.83 0 0 1 1.8-1.89 11.84 11.84 0 0 1 2.55-1.4 18.63 18.63 0 0 1 3.39-1 30.49 30.49 0 0 1 4.26-.52c1.41-.08 2.75-.1 4-.08a33.71 33.71 0 0 1 3.42.25h.09L93 77.57c-.38-.39-.76-.76-1.17-1.12z" fill="#333391" opacity=".9"/><path d="M97.35 85.75a25.44 25.44 0 0 0-3.47-5.33L60 94.4a21.3 21.3 0 0 1 2.67.75 13.2 13.2 0 0 1 2.14 1 6 6 0 0 1 1.39 1.09 5.55 5.55 0 0 1 1 1.41 7.53 7.53 0 0 1 .59 1.9L98.3 88c-.3-.79-.61-1.54-.95-2.25zM38.47 113.22l-2.42.45c-2.45.46-4.75 1-6.85 1.55a59 59 0 0 0-5.92 1.93 39.89 39.89 0 0 0-5 2.35 34.26 34.26 0 0 0-7.28 5.44c-.66.65-1.27 1.34-1.86 2l32.27-14.17zM36.78 108.13c.12-.57.42-1.83.66-2.82l-8.92 3.4c4.59.15 8.15-.08 8.26-.58z" fill="#932b8d" opacity=".9"/><path d="M99.18 100.1c-.44-3.59-.89-7-1.21-9.12l-.9-2.77a32.46 32.46 0 0 0-2.37-5.53L66.1 99.22a12.42 12.42 0 0 1 .49 2.42 5.72 5.72 0 0 1-.07 1.76 4.71 4.71 0 0 1-.59 1.48 6.3 6.3 0 0 1-1.2 1.42 11.05 11.05 0 0 1-2 1.41 15.13 15.13 0 0 1-1.6.77c-.67.28-1.42.56-2.24.83s-1.82.58-2.85.86l-1 .29c-1.32.32-4.5 1.07-7.08 1.67-1.81.42-4.54 1.07-7 1.68l-30.59 17.65a30.05 30.05 0 0 0-2.81 5.28 33.13 33.13 0 0 0-2.19 8.69 43.68 43.68 0 0 0-.05 9z" fill="#e91388" opacity=".9"/><path d="M35.3 144a9.77 9.77 0 0 1 .68-1.61 9.4 9.4 0 0 1 1.61-2.14 11.8 11.8 0 0 1 2.36-1.8 15.57 15.57 0 0 1 1.94-.94c.78-.32 1.68-.63 2.66-.93s2.12-.6 3.35-.89l1.22-.28 6-1.15 3-.58 42.69-19.28v-2.1c0-2.25 0-4.82-.1-7.32L1.87 149.61v.77a43.8 43.8 0 0 0 .66 7.62c0 .27.11.53.16.79z" fill="#ea245f" opacity=".9"/><path d="M58.19 134.62l1.72-.4.72-.19q1.1-.29 2.06-.57c.65-.19 1.27-.39 1.84-.59s1.12-.41 1.61-.62 1-.43 1.45-.66l.18-.09c.19-.1.41 1.2.48 2.88s.09 5 .06 7.27L68 143.5a23.73 23.73 0 0 1-1.19 4.89 17.32 17.32 0 0 1-.69 1.61l34.78-17.21-.77-19zM44.11 159.21l-.63-.08a13.47 13.47 0 0 1-2.14-.53 11.67 11.67 0 0 1-3.65-2 6.7 6.7 0 0 1-1.26-1.35 7.89 7.89 0 0 1-.93-1.78 11.63 11.63 0 0 1-.59-2.32 18.32 18.32 0 0 1-.18-2.92 13.79 13.79 0 0 1 .38-3.16c.08-.33.2-.65.31-1L2.56 158.23a33.32 33.32 0 0 0 1.69 6 29 29 0 0 0 3.17 6 28.38 28.38 0 0 0 2.92 3.54z" fill="#eb2d2e" opacity=".9"/><path d="M100 140.45l-.11-1.76-.47-7.69L65 148.88a14.67 14.67 0 0 1-1.23 2.18 12.78 12.78 0 0 1-2.66 2.83 29.05 29.05 0 0 1-3.49 2.34A26.49 26.49 0 0 1 54 158a26 26 0 0 1-3.85 1.14 23.84 23.84 0 0 1-5.84.56l-32.62 17c.54.48 1.09.95 1.66 1.39a34.78 34.78 0 0 0 5.65 3.46c.33.17.68.32 1 .48z" fill="#f19432" opacity=".9"/><path d="M100.35 155.54q-.22-1.65-.42-3.17t-.37-2.9l-.11-.92c-.1-.84-.58-5.11-1.13-9.9l-77.71 45.72A35.37 35.37 0 0 0 26 186a39.27 39.27 0 0 0 6.89.88 48.13 48.13 0 0 0 7.35-.29 49.35 49.35 0 0 0 5.77-1A44.13 44.13 0 0 0 51.4 184a41.31 41.31 0 0 0 5.06-2.31 40.83 40.83 0 0 0 4.68-3c1.21-.9 2.4-1.85 3.53-2.82s2.23-2 3.28-3l.85-.85c.9-1 1.75-1.35 1.9-.82l.13.46q.22.76.5 1.53c.14.4.3.8.47 1.21l28.81-17z" fill="#fde92b" opacity=".9"/><path d="M102.87 171.58a5.34 5.34 0 0 1-.48-.68 3.17 3.17 0 0 1-.28-.68 9.08 9.08 0 0 1-.27-1.31c-.08-.54-.13-1.17-.16-1.85s0-1.5 0-2.29c0-.53.05-1.06.08-1.57l-31.52 11.17c0 .13 0 .25.07.37.12.55.25 1.12.39 1.68l.15.58c.19.64.46 1.54.6 2s3.46 1 7.83 1.38l23.9-8.47c-.11-.13-.18-.23-.31-.33z" fill="#91be4a" opacity=".9"/><path d="M105 172.82l-.29-.22a8.39 8.39 0 0 1-.8-.67c-.12-.11-.22-.24-.33-.36l-24.05 8 2.39.26 14.41 1.4c5.47.53 10.13-.87 10.35-3.11s.09-4.26-.29-4.48z" fill="#009e54" opacity=".9"/><path d="M50.37 14.63a22.48 22.48 0 0 0-8.62 3.14A25.47 25.47 0 0 0 38 20.64a25.82 25.82 0 0 0-2.51 2.64l22-8.67a26.05 26.05 0 0 0-7.12.02z" fill="#00a8de" opacity=".9"/><path d="M59.38 14.08c-.77-.12-1.56-.2-2.36-.25L35.75 24.15c-.21.3-.42.61-.62.92a22.69 22.69 0 0 0-2 3.87l29.22-14.16a23 23 0 0 0-2.97-.7z" fill="#0070b4" opacity=".9"/><path d="M69.9 20.08c-.47-.42-1-.82-1.45-1.19a22.82 22.82 0 0 0-3.94-2.4c-.47-.22-1-.41-1.44-.6L32.81 27.56l-.12.24a22.66 22.66 0 0 0-1.54 4.34 24.58 24.58 0 0 0-.52 3.08z" fill="#333391" opacity=".9"/><path d="M47.63 32.55a10.37 10.37 0 0 1 .85-1.06 10 10 0 0 1 1.39-1.24 8.5 8.5 0 0 1 1.49-.88 8.29 8.29 0 0 1 1.64-.56 9.86 9.86 0 0 1 1.83-.24h.9l16.11-7.92-.43-.41a26.28 26.28 0 0 0-2.22-1.83L31.4 37v1.6c0 .54.09 1.25.16 1.87z" fill="#932b8d" opacity=".9"/><path d="M55.67 28.22a9.26 9.26 0 0 1 .93.17 8.28 8.28 0 0 1 3.06 1.47A9.77 9.77 0 0 1 61 31.12a10.09 10.09 0 0 1 1.08 1.45L76 27.2a23 23 0 0 0-1.13-2.09 25.38 25.38 0 0 0-2.46-3.35zM46 39.7c0-.15-.1-.29-.13-.44a9.9 9.9 0 0 1-.18-3.64 8.33 8.33 0 0 1 .44-1.62 8.59 8.59 0 0 1 .75-1.55c.09-.14.19-.28.29-.42l-16 8.1a24.38 24.38 0 0 0 .49 2.81 22.6 22.6 0 0 0 1.16 3.48z" fill="#e91388" opacity=".9"/><path d="M62.56 33.45a8.52 8.52 0 0 1 1 1.42 8.4 8.4 0 0 1 .55 1.32l13-7.35c-.11-.24-.26-.53-.4-.84a22.43 22.43 0 0 0-1.16-1.92zM47.18 42.21L47 42a8.26 8.26 0 0 1-1-1.41 7.91 7.91 0 0 1-.49-1.13l-12.85 7.3c.14.28.27.56.42.84a22.36 22.36 0 0 0 1.16 1.92z" fill="#ea245f" opacity=".9"/><path d="M63.66 35.53c0 .09 0 .18.06.27a10.1 10.1 0 0 1-.08 3.66 8.34 8.34 0 0 1-.52 1.62 8.19 8.19 0 0 1-.84 1.47c-.16.23-.35.46-.54.68l16.92-7.11a24.38 24.38 0 0 0-.29-2.84 22.64 22.64 0 0 0-.93-3.54zM54.47 47a9.89 9.89 0 0 1-1.47-.22 8.47 8.47 0 0 1-3.14-1.37 10.1 10.1 0 0 1-1.41-1.21 9.89 9.89 0 0 1-1-1.22l-13.67 5.75A23 23 0 0 0 35 50.78a25.1 25.1 0 0 0 2.56 3.27z" fill="#eb2d2e" opacity=".9"/><path d="M79.23 41.45c.08-.53.18-1.05.23-1.59s.08-1.25.1-1.87l-17.42 5.79c-.22.22-.46.44-.71.64a9.75 9.75 0 0 1-1.52 1 8.27 8.27 0 0 1-1.57.66 8.48 8.48 0 0 1-1.68.32 10.19 10.19 0 0 1-2.25-.07L37 52.16l.36.46a26.14 26.14 0 0 0 2 2.12z" fill="#f19432" opacity=".9"/><path d="M76.84 46.21A22.57 22.57 0 0 0 78 41.75a24.57 24.57 0 0 0 .23-3.12L40.5 57.33c.51.37 1 .73 1.55 1.06a22.77 22.77 0 0 0 4.14 2c.48.18 1 .33 1.46.47l29.08-14.39c.03-.08.08-.17.11-.26z" fill="#fde92b" opacity=".9"/><path d="M74.35 49.66a22.84 22.84 0 0 0 1.67-4L47.93 61.92a22.93 22.93 0 0 0 3 .47c.78.06 1.57.09 2.37.08l20.5-11.85c.2-.32.37-.62.55-.96z" fill="#91be4a" opacity=".9"/><path d="M63.74 59.91A22.85 22.85 0 0 0 68 58.09a25.57 25.57 0 0 0 3.91-2.69 26 26 0 0 0 2.63-2.52l-22.4 7.63c.77.14 1.55.25 2.35.32a25.22 25.22 0 0 0 4.74 0 22.73 22.73 0 0 0 4.51-.92z" fill="#009e54" opacity=".9"/></svg>