<svg xmlns="http://www.w3.org/2000/svg" width="186.96" height="200" viewBox="0 0 186.96 200"><title>_</title><path d="M69.77 69.82c-2-.37-4.18-.65-6.35-.84-3-.27-6-.4-8.76-.38a73.28 73.28 0 0 0-8.09.47 58.1 58.1 0 0 0-7.41 1.33 47.57 47.57 0 0 0-6.72 2.21 38 38 0 0 0-8.67 5 33.66 33.66 0 0 0-6.71 7A35.56 35.56 0 0 0 14.32 89l55.77-19.12z" fill="#00a8de" opacity=".9"/><path d="M80.86 70.26a53.75 53.75 0 0 0-5.68-1.52 66.12 66.12 0 0 0-5.71-.91l-54.28 23a39.53 39.53 0 0 0-1.6 4.44l-1 3.27c-.17 1.46-.34 2.89-.48 4.17L85 71.84c-1.36-.58-2.74-1.12-4.14-1.58z" fill="#0070b4" opacity=".9"/><path d="M127.56 66c-1.77 0-3.51.15-5.16.32s-3.31.42-4.87.73a46.15 46.15 0 0 0-4.53 1.19 40.92 40.92 0 0 0-4.27 1.58c-1.33.58-2.64 1.21-3.91 1.88s-2.5 1.38-3.68 2.13-2.34 1.55-3.45 2.38l-.55.42a1.83 1.83 0 0 1-2.07.17l-.48-.33c-1-.71-2.05-1.37-3-2s-2-1.16-3-1.66-2-1-2.94-1.35c-.39-.16-.8-.3-1.2-.46l-71.66 33.75c-.17 2.31-.29 4.11-.3 4.57 0 .72 4.46 1.22 10 1.1l12.15-.26c5.5-.12 10-.75 10-1.4s.08-2 .13-2.91l.1-.78a17.19 17.19 0 0 1 .41-2.12 12.06 12.06 0 0 1 .6-1.74 8.66 8.66 0 0 1 .76-1.39 9.59 9.59 0 0 1 2-2.13 11.84 11.84 0 0 1 2.77-1.61A18.07 18.07 0 0 1 55.09 95a29.51 29.51 0 0 1 4.66-.44h3.27c1.02 0 2 .1 2.88.2s1.7.21 2.47.36a18.79 18.79 0 0 1 2 .51 12.86 12.86 0 0 1 3 1.37c.21.14.39.29.59.44l65.25-30.75a70 70 0 0 0-11.65-.69z" fill="#333391" opacity=".9"/><path d="M144.42 70.21c-1.27-.37-2.58-.69-3.93-1L73.38 95.68A7.66 7.66 0 0 1 74.64 97a6.9 6.9 0 0 1 1 2.2 9.49 9.49 0 0 1 .26 2.81 6.58 6.58 0 0 1-.29 1.7 5 5 0 0 1-.61 1.39 5.26 5.26 0 0 1-.53.64l79.85-31.46a48 48 0 0 0-9.9-4.07zM68 112.94l-.95.12-10.8.82c-4.79.36-11 .87-13.81 1.13l-2.28.33c-2.32.33-4.5.72-6.47 1.16a55.3 55.3 0 0 0-5.64 1.5 35.86 35.86 0 0 0-4.73 2 31.36 31.36 0 0 0-6.78 4.7 28.49 28.49 0 0 0-5.09 6.21 30.21 30.21 0 0 0-1.68 3.23l58.79-21.28z" fill="#932b8d" opacity=".9"/><path d="M10.13 159.57l32.7-15.28v-.09a8.69 8.69 0 0 1 1.26-2.05 8.81 8.81 0 0 1 1.82-1.64 10.05 10.05 0 0 1 1.56-.86 25.44 25.44 0 0 1 2.48-1c1-.33 2.11-.67 3.35-1l1.26-.34 6-1.33 53.25-24.89c-3.7-.17-6.3-.72-6.22-1.41l.13-.76a26.32 26.32 0 0 1 1-4.22 18.52 18.52 0 0 1 1.56-3.44 14.47 14.47 0 0 1 2.05-2.7 14 14 0 0 1 2.67-2.07 16.56 16.56 0 0 1 3.23-1.56 22.41 22.41 0 0 1 3.93-1 32.27 32.27 0 0 1 9.24-.14 19.29 19.29 0 0 1 3.83.94 14.68 14.68 0 0 1 3.14 1.57 13.31 13.31 0 0 1 2.51 2.18l28.41-13.28a44.84 44.84 0 0 0-2.81-3.59 41.48 41.48 0 0 0-10.5-8.67q-1.48-.86-3.05-1.6l-77.81 36.34a5.86 5.86 0 0 1-.52.55 8.3 8.3 0 0 1-1.6 1.12 11.77 11.77 0 0 1-1.45.67c-.58.23-1.25.45-2 .67-.58.17-1.23.33-1.9.48L11 137.64a33.44 33.44 0 0 0-1.22 4.5 42.43 42.43 0 0 0-.74 9 39 39 0 0 0 .72 6.84q.17.78.37 1.59z" fill="#e91388" opacity=".9"/><path d="M141.22 100.1a19 19 0 0 1 2.19 2.84 22 22 0 0 1 1.73 3.37c.3.73.56 1.5.8 2.3l28.41-14a52.1 52.1 0 0 0-5-8.39zM42.59 155.71a10.76 10.76 0 0 1-.48-1.3 9.62 9.62 0 0 1-.34-1.77 9.32 9.32 0 0 1 0-1.78 17.49 17.49 0 0 1 .63-3.24 11.38 11.38 0 0 1 1-2.44L9.13 156.4a34.4 34.4 0 0 0 1 4.9 33.88 33.88 0 0 0 1.59 4.52zM62.12 133.23l7.4-1.11.83-.13 2.24-.39c.68-.13 1.26-.25 1.75-.36s1-.24 1.33-.35h.14c.16-.05.21 1.35.13 3.11 0 1-.14 2.4-.26 3.9l62.57-24.28-1.39-.05-18.73-.91c-1.27-.06-2.48-.16-3.58-.29l-54.8 21.27z" fill="#ea245f" opacity=".9"/><path d="M144.14 106c.16.53.33 1.07.46 1.63l.15.6c.13.64-3.53 1.33-8.35 1.63l-60.06 30v3.76l-.31 1.94a20.27 20.27 0 0 1-1.5 5.15 15.62 15.62 0 0 1-2.61 4 16.29 16.29 0 0 1-3.79 3.09 20 20 0 0 1-2.67 1.31 25 25 0 0 1-3.07 1 31.2 31.2 0 0 1-3.49.68 33.79 33.79 0 0 1-7.43.28 15.57 15.57 0 0 1-2.84-.52 9.74 9.74 0 0 1-2.16-.9 6.89 6.89 0 0 1-1.56-1.21 14.08 14.08 0 0 1-1.37-1.67c-.11-.15-.2-.31-.29-.46l-29.06 14.54c.32.52.66 1 1 1.54a37.13 37.13 0 0 0 4.39 5.19 27.08 27.08 0 0 0 5.85 4.36 32.66 32.66 0 0 0 5.41 2.37l78-38.9c-.09-.24-.18-.47-.27-.73a32.77 32.77 0 0 1-.93-3.61c-.27-1.32-.49-2.77-.67-4.33l-.09-.81c-.08-1 4.35-1.94 9.85-2.18l17-.75 44.63-22.27q-.21-1.21-.45-2.39a79.25 79.25 0 0 0-2.28-8.68 62.21 62.21 0 0 0-3.1-7.74v-.05z" fill="#eb2d2e" opacity=".9"/><path d="M158.28 134.62l22.08-10.9-.31-3c-.25-2.48-.59-4.91-1-7.23l-44.72 22.09zM31.23 183.44a47.2 47.2 0 0 0 8.4 1.56 66.56 66.56 0 0 0 6.95.34l67.09-32.69a14 14 0 0 1-2.18-1.85 16.41 16.41 0 0 1-2.78-4 19.51 19.51 0 0 1-.88-2.14l-78.35 38.21c.58.2 1.16.39 1.75.57z" fill="#f19432" opacity=".9"/><path d="M48.5 184.28c2.26 0 4.49-.07 6.63-.25s4.25-.45 6.28-.81a58.34 58.34 0 0 0 5.93-1.38 52.33 52.33 0 0 0 5.57-1.95A44.64 44.64 0 0 0 83 174.07a47.42 47.42 0 0 0 4.45-3.89l.66-.65c.71-.76 1.62-1 2-.47l.38.44a40 40 0 0 0 3.63 3.64 43.8 43.8 0 0 0 4.17 3.24 49.63 49.63 0 0 0 4.71 2.84c.39.21.81.39 1.22.59l75.1-33.05c.06-.41.11-.75.14-1 .1-.77-4.32-1.42-9.82-1.44l-12.83-.06c-5.5 0-10.13.33-10.29.79s-.7 1.87-1.2 3.14l-.53 1a16.5 16.5 0 0 1-1.71 2.59 12.48 12.48 0 0 1-2 1.94 11.1 11.1 0 0 1-2.24 1.36 23.47 23.47 0 0 1-2.77 1.06 27.37 27.37 0 0 1-3 .76 33 33 0 0 1-3.33.46c-1.15.1-2.37.15-3.61.14a26.63 26.63 0 0 1-5.91-.64 17.18 17.18 0 0 1-4.65-1.79 14.23 14.23 0 0 1-1.44-1l-68.3 30.06q1.3.14 2.67.15zM170.6 134.59c5.49-.28 10-1.06 9.95-1.73s-.21-4.48-.41-8.45v-.32l-22 11.14z" fill="#fde92b" opacity=".9"/><path d="M108.45 181.75a47 47 0 0 0 5.78 1.62c1.51.33 3.1.57 4.71.77l56.19-25.33c.27-.49.53-1 .77-1.48a35.14 35.14 0 0 0 2.1-5.27l.54-1.76c.23-1.41.47-2.95.62-4L104.35 180a42 42 0 0 0 4.1 1.75z" fill="#91be4a" opacity=".9"/><path d="M119.13 181.15a66.39 66.39 0 0 0 6.58 1.07 74.05 74.05 0 0 0 12.67.39 56.57 56.57 0 0 0 11.51-1.84 47.92 47.92 0 0 0 10.29-4.12 47.08 47.08 0 0 0 9-6.39 55.86 55.86 0 0 0 4.55-4.63c1-1.12 1.88-2.27 2.7-3.43l-58.77 18.57c.48.14.96.23 1.47.38z" fill="#009e54" opacity=".9"/></svg>