<svg xmlns="http://www.w3.org/2000/svg" width="100.54" height="200" viewBox="0 0 100.54 200"><title>_</title><path d="M59.68 67.55a81 81 0 0 0-9.87-.55 65.29 65.29 0 0 0-11.59 1 51.17 51.17 0 0 0-10.38 3 45.12 45.12 0 0 0-9.11 5A46.17 46.17 0 0 0 11 83a49.29 49.29 0 0 0-6.17 8.82c-.12.22-.23.44-.34.66l55.86-24.84z" fill="#00a8de" opacity=".9"/><path d="M69.18 70.2a63.23 63.23 0 0 0-8.29-1.9L4.32 91.55A57.26 57.26 0 0 0 0 101.12c-.41 1.2-.79 2.44-1.14 3.71L76.36 73a52.91 52.91 0 0 0-7.18-2.8z" fill="#0070b4" opacity=".9"/><path d="M90 81.59a31.45 31.45 0 0 0-6.31-5.73 46.44 46.44 0 0 0-7.28-4.05l-.88-.37-76.06 35.14A75.74 75.74 0 0 0-2 114.69 98 98 0 0 0-2.66 128c0 .68 0 1.36.06 2l35-16.15c.13-.75.27-1.47.42-2.17a32.78 32.78 0 0 1 1.03-3.68 24 24 0 0 1 2.76-5.56 16.13 16.13 0 0 1 3.63-3.83 15.08 15.08 0 0 1 4.57-2.31 20.51 20.51 0 0 1 5.76-.85 22.75 22.75 0 0 1 4.15.3 15.64 15.64 0 0 1 3.43 1 12.36 12.36 0 0 1 2.78 1.63l.82.62c.24.27.5.6.77.94L93 85.83a35.54 35.54 0 0 0-3-4.24z" fill="#333391" opacity=".9"/><path d="M94.39 88.73c-.63-1.11-1.3-2.15-2-3.16l-29.66 15.86c.63.7 1.27 1.48 1.66 2l.44.73a21.63 21.63 0 0 1 1.2 2.26 22.64 22.64 0 0 1 .94 2.42l.27.84.19.82 29.74-15.9a48.44 48.44 0 0 0-2.78-5.87zM-3.24 137.76c0 .3 0 .6.06.89l34.44-11.93c.15-1.5.32-3 .52-4.32.26-1.75.57-3.43.92-5q.26-1.13.55-2.19l-36.39 12.63a86.11 86.11 0 0 0-.1 9.92z" fill="#932b8d" opacity=".9"/><path d="M.82 151.44a58.09 58.09 0 0 0 4.75 9.28l29.1-16.12c-.29-.51-.56-1-.83-1.58a30.2 30.2 0 0 1-1.41-3.44c-.43-1.26-.83-2.64-1.17-4.09s-.65-3.07-.91-4.73-.47-3.49-.63-5.37c0-.45-.06-.89-.1-1.33l-31.87 17.66a68.81 68.81 0 0 0 3.07 9.72zM98.14 98.6c-.32-1.09-.67-2.15-1-3.18l-30.41 14.65c.14.79.29 1.59.36 2 .1.59 4.67.94 10.17.78l13.47-.41c5.5-.17 9.91-.92 9.81-1.68s-.75-4.76-1.45-8.9z" fill="#e91388" opacity=".9"/><path d="M4 159.16a53.25 53.25 0 0 0 5.26 8.77l32.3-13a14.1 14.1 0 0 1-1.41-.93 15.32 15.32 0 0 1-3.43-3.69 20.85 20.85 0 0 1-1.92-3.66L4 159.08zM77 137.68c-5.47-.53-10.05-.47-10.18.14s-.46 2.18-.82 3.6l-.37 1.14v.13l14.22-4.74z" fill="#ea245f" opacity=".9"/><path d="M18.34 179.46a40 40 0 0 0 8.22 4.21 37.82 37.82 0 0 0 4.57 1.33l65.21-37.92a46.87 46.87 0 0 0 .9-5.2l.25-2.21v-5.83c0-.74-4.52-.86-10-.27L77 134.74l-13 7.54a26.22 26.22 0 0 1-.57 3.25 21.43 21.43 0 0 1-1 3 18.65 18.65 0 0 1-1.35 2.65 9.12 9.12 0 0 1-1.68 2 11.11 11.11 0 0 1-2.38 1.61 16.69 16.69 0 0 1-3.15 1.21 26.61 26.61 0 0 1-4.08.74 20.55 20.55 0 0 1-5.69-.12 15.13 15.13 0 0 1-3.15-.91l-30.12 17.51a48.34 48.34 0 0 0 7.51 6.24z" fill="#eb2d2e" opacity=".9"/><path d="M32.58 183.13l1.57.38c1.81.26 1.36 3.32-1 6.8-.19.28-.36.56-.52.84l56.8-24.36c.3-.38.61-.76.9-1.15a57.14 57.14 0 0 0 3.9-6 50.56 50.56 0 0 0 3-6.19c.18-.45.35-.9.51-1.36L28.4 181.86a38.33 38.33 0 0 0 4.18 1.27z" fill="#f19432" opacity=".9"/><path d="M33.81 202.37c2 1.6 3.95 2.78 4.32 2.63l1.44-.58.36-.14 1.06-.4 1-.35.93-.3.82-.23.81-.18.79-.13a10.63 10.63 0 0 1 2.05-.1 8.83 8.83 0 0 1 1.21.15 9.3 9.3 0 0 1 1.2.32 10.15 10.15 0 0 1 1.2.49 3 3 0 0 1 .72.49 2.85 2.85 0 0 1 .52.65 4.19 4.19 0 0 1 .4 1 6.4 6.4 0 0 1 .16.74l19.79-10.71a14.64 14.64 0 0 0-1.44-2 14.91 14.91 0 0 0-2.66-2.38 17.58 17.58 0 0 0-3.12-1.74 19.79 19.79 0 0 0-3.49-1.12 23.79 23.79 0 0 0-3.8-.52 28.92 28.92 0 0 0-5 .13l-.83.12h-.12a3.19 3.19 0 0 1 .66-1.55c.5-.87 3.94-2 7.66-2.59l3.08-.95A42.29 42.29 0 0 0 81.71 172a49.78 49.78 0 0 0 6.06-7.72l-54.36 29.38c-1.57 3.46-1.41 7.24.4 8.71z" fill="#fde92b" opacity=".9"/><path d="M51.59 206.72a3.41 3.41 0 0 1-.15.78 4 4 0 0 1-.36.79 5.73 5.73 0 0 1-.62.85 8.61 8.61 0 0 1-.93.91 4.38 4.38 0 0 1-1 .62 7 7 0 0 1-1.43.46 11.93 11.93 0 0 1-1.92.24 17.63 17.63 0 0 1-3.77-.22q-.76-.13-1.61-.33l-.94-.25-17.69 6.28c-.4 1.25-.48 2.11-.14 2.27l3.07 1.4.9.37 2.39 1.05 2.08.88 1.8.73.73.29L73.77 209c.11-.66.2-1.33.25-2a21.48 21.48 0 0 0 0-3.88 16.83 16.83 0 0 0-.76-3.58c-.12-.35-.27-.68-.41-1L51.62 206c0 .26-.01.49-.03.72z" fill="#91be4a" opacity=".9"/></svg>