<svg xmlns="http://www.w3.org/2000/svg" width="104.37" height="200" viewBox="0 0 104.37 200"><title>_</title><path d="M25.38 25.93c-4.36-.1-6.11 1.85-4.75 4.63l10.75-4.49z" fill="#00a8de" opacity=".9"/><path d="M31 25.85l-10.2 5.63a9.31 9.31 0 0 0 1.95 2.13l.4.33 15.91-8.78z" fill="#0070b4" opacity=".9"/><path d="M54.5 27.89c-.14-.27-4.73-.91-10.21-1.42L40 26.06l-17.22 5.8 4.54 5.41 27.28-9.19z" fill="#333391" opacity=".9"/><path d="M53.51 25.59L28.27 39.45 31 41.71l24.54-13.49z" fill="#932b8d" opacity=".9"/><path d="M55.41 28.7l-24.83 13 5.33 4.63 23.44-12.26z" fill="#e91388" opacity=".9"/><path d="M60.2 36.2l-.2-.31-24.94 8.8 2.31 2.67 24.2-8.54z" fill="#ea245f" opacity=".9"/><path d="M60.83 37.17L38.09 49.05l5.27 4.59h.06l21.35-11.11z" fill="#eb2d2e" opacity=".9"/><path d="M65.13 43.73l-22.34 9a19.5 19.5 0 0 0 2.84 2.4l21.2-8.57z" fill="#f19432" opacity=".9"/><path d="M70.35 52.76l-3.11-5.83-21.59 7.54a31 31 0 0 0 7.64 4.29z" fill="#fde92b" opacity=".9"/><path d="M59.84 60.28l11.66-5.93a8.33 8.33 0 0 0-1.41-3L54 59.58a22.8 22.8 0 0 0 5.84.7z" fill="#91be4a" opacity=".9"/><path d="M59.94 60.06l5.72.09c4.21.06 6.43-2.12 5.95-5.24L59.57 60z" fill="#009e54" opacity=".9"/><path d="M51.34 64.75a67.65 67.65 0 0 0-11.43 2.08 55.4 55.4 0 0 0-10.21 3.92 50.41 50.41 0 0 0-8.92 5.75 51.83 51.83 0 0 0-7.58 7.56 47.18 47.18 0 0 0-5.35 8.2l49-27.83c-1.85.05-3.65.14-5.51.32z" fill="#00a8de" opacity=".9"/><path d="M67.38 70.26a65.88 65.88 0 0 0-6.59-1.48c-.48-.08-1-.14-1.47-.22L6.24 87.51c-.24.32-.49.62-.73.95A52.84 52.84 0 0 0 0 98.21l73-26.06c-1.8-.71-3.69-1.35-5.62-1.89z" fill="#0070b4" opacity=".9"/><path d="M35.94 104.07c.07-.14.14-.3.21-.44a21.26 21.26 0 0 1 2.11-3.17 15.75 15.75 0 0 1 2.58-2.55A17 17 0 0 1 44 96a21.3 21.3 0 0 1 3.88-1.38 30.41 30.41 0 0 1 6.52-.88l33.68-18.93-.37-.28a44.35 44.35 0 0 0-11.36-5.79A56.22 56.22 0 0 0 70.16 67l-.61-.11-67.6 37.95v.15a66.79 66.79 0 0 0-1.8 12.07c-.15 2.29-.15 4.68-.07 7.13z" fill="#333391" opacity=".9"/><path d="M54.08 93.07c.83.12 1.64.26 2.39.44a22.74 22.74 0 0 1 3.81 1.27 20.41 20.41 0 0 1 3.36 1.86c.46.32.91.66 1.34 1l30.8-10.89c-.46-.69-.93-1.37-1.42-2a46.75 46.75 0 0 0-3.92-4.55zM35.44 112.07c-2.26-.24-3.67-.58-3.57-1l.16-.57a28.87 28.87 0 0 1 1.48-4 23.9 23.9 0 0 1 1.69-3.05l-37.7 16.43c-.15 2.05-.24 4.15-.26 6.3v2.5z" fill="#932b8d" opacity=".9"/><path d="M101.56 94.56a50.87 50.87 0 0 0-3-5.22c-.77-1.19-1.59-2.32-2.44-3.42L66 98.69a20.92 20.92 0 0 1 1.72 1.31 16.75 16.75 0 0 1 2.53 2.83 18.11 18.11 0 0 1 1.89 3.43 22.77 22.77 0 0 1 1.26 4.11l.15.69c.12.81-4.28 1.39-9.78 1.29l-9.27-.16-12.9-.19c-2.34 0-4.46-.18-6.13-.37l-38.32 16.29a87.42 87.42 0 0 0 .8 11.64c.24 1.71.56 3.35.91 5l105-44.58a52.59 52.59 0 0 0-2.3-5.42z" fill="#e91388" opacity=".9"/><path d="M103.91 101.28a56.36 56.36 0 0 0-2.36-5.79l-.12-.23L1 149.38a57.76 57.76 0 0 0 2.72 7c.07.15.15.29.22.44l28.44-15.32v-.07l-.41-1.33c-.34-1.63 3.88-3.3 9.36-3.71l.67-.05 62.42-33.63c-.2-.46-.34-.96-.51-1.43z" fill="#ea245f" opacity=".9"/><path d="M6.57 162.27a40.55 40.55 0 0 0 3.08 4.11l30.68-12.24a18.87 18.87 0 0 1-3.95-3.53 19.46 19.46 0 0 1-2.87-4.61 25.55 25.55 0 0 1-1.73-5.66l-30 12a45.74 45.74 0 0 0 4.79 9.93zM107.74 122.29c0-1.79 0-3.47-.09-5s-.17-3-.3-4.25c-.18-1.66-.44-3.28-.74-4.87L40.58 134l39.19 1.82 27.94-10.92c.02-.9.03-1.79.03-2.61z" fill="#eb2d2e" opacity=".9"/><path d="M73.62 145.55c-.18.37-.64 1.32-1 2.11l-.22.38 6.6-3.31c-3.09.27-5.26.57-5.38.82zM107.45 122.5l-26.61 13.87 17.38-1.07q1.17-.07 2.27-.17l7.51-3.93c-.05-1-.12-2.27-.18-3.5l-.15-2q-.09-1.7-.22-3.2zM15.38 172.52q1.18.77 2.39 1.49l33.55-19.14H49.6a27.94 27.94 0 0 1-3.72-.32 23.86 23.86 0 0 1-3.42-.8 22 22 0 0 1-3.13-1.26l-28.68 16.39a40.13 40.13 0 0 0 4.73 3.64z" fill="#f19432" opacity=".9"/><path d="M107.79 134.74l.28-2.24L100 135c4.36.42 7.71.31 7.79-.26zM22.41 174.05a59.18 59.18 0 0 0 9.12 4.95q1.14.49 2.31.94l72.92-26.31c.42-1.71.82-3.47 1-4.14s-4.22-1.71-9.71-2.11l-12.7-.92c-1.78-.13-3.46-.22-4.94-.27l-7 2.52-.21.29c-.45.6-.91 1.16-1.37 1.67a19 19 0 0 1-1.41 1.4 15.58 15.58 0 0 1-1.42 1.12 17.2 17.2 0 0 1-3 1.65 19 19 0 0 1-3.3 1.11 23.19 23.19 0 0 1-3.74.55 32.38 32.38 0 0 1-6.49-.27l-36.28 13.12a62.82 62.82 0 0 0 6.22 4.7z" fill="#fde92b" opacity=".9"/><path d="M41.79 181.74c2 .48 4.1.85 6.22 1.13l53.35-19.43c.81-1 1.56-2.1 2.21-3.14a32.55 32.55 0 0 0 2.6-5l.69-1.69.17-.7-72.84 26.5a60.69 60.69 0 0 0 7.6 2.33z" fill="#91be4a" opacity=".9"/><path d="M54 185.35a75.43 75.43 0 0 0 12.53-1.47 57.77 57.77 0 0 0 11.09-3.46 49 49 0 0 0 9.6-5.47 47.78 47.78 0 0 0 8-7.45 56.72 56.72 0 0 0 4.09-5.25c.43-.63.83-1.26 1.22-1.89l-51 25c1.52.04 3 .04 4.47-.01z" fill="#009e54" opacity=".9"/></svg>