<svg xmlns="http://www.w3.org/2000/svg" width="102.01" height="200" viewBox="0 0 102.01 200"><title>_</title><path d="M63 25.79c-4.89.12-10.84 3.27-14.11 7.27l15.39-7.3z" fill="#00a8de" opacity=".9"/><path d="M64.83 26.59L48.67 32a13.62 13.62 0 0 0-1.26 1.37l-1.07 1.36 23-7.71z" fill="#0070b4" opacity=".9"/><path fill="#333391" opacity=".9" d="M73.78 26.43l-4.55-.17-22.53 9.05-3.86 5.54 35.5-14.26-4.56-.16z"/><path d="M80.64 24.06l-3.55.35-33.27 18.91-1.54 3L81.56 24c-.3 0-.56 0-.92.06z" fill="#932b8d" opacity=".9"/><path d="M82 25.11L41.58 45.24l-3.4 5.84 48-23.92c-.39-1.21-1.82-1.98-4.18-2.05z" fill="#e91388" opacity=".9"/><path d="M86 26.87L38.18 51.3l-1 1.75a10.43 10.43 0 0 0-.55 1.13L85.84 29a3.07 3.07 0 0 0 .16-2.13z" fill="#ea245f" opacity=".9"/><path d="M84.66 33.31a8.72 8.72 0 0 0 2-2.58L35.81 52.45a5.59 5.59 0 0 0-.58 4.28l45.08-19.27z" fill="#eb2d2e" opacity=".9"/><path d="M79.42 35.66l-43.31 23a3.82 3.82 0 0 0 1.15 1.49l38.66-20.5z" fill="#f19432" opacity=".9"/><path d="M69 49l8-7-41 15.53a6.82 6.82 0 0 0 4.58 1.73l1.16.07z" fill="#fde92b" opacity=".9"/><path fill="#91be4a" opacity=".9" d="M47.17 60.58h.01L65 51.53l3.58-3.89-25.96 13.17 4.55-.23z"/><path d="M64.15 53.62l1.2-1-18.72 7c5.5.29 13.37-2.39 17.52-6z" fill="#009e54" opacity=".9"/><path d="M49 64.79a67.65 67.65 0 0 0-11.44 2.06 55.4 55.4 0 0 0-10.21 3.89 50.41 50.41 0 0 0-8.93 5.73A51.83 51.83 0 0 0 10.79 84a47.18 47.18 0 0 0-5.37 8.19l49.07-27.71c-1.82.04-3.66.13-5.49.31z" fill="#00a8de" opacity=".9"/><path d="M62.74 66a65.88 65.88 0 0 0-6.74-.49h-1.49L4.66 91.78c-.19.35-.4.69-.58 1A52.84 52.84 0 0 0 0 103.26l68.58-36.15c-1.9-.45-3.85-.81-5.84-1.11z" fill="#0070b4" opacity=".9"/><path d="M33.64 104.15c.07-.14.13-.3.21-.44a21.26 21.26 0 0 1 2.08-3.19 15.75 15.75 0 0 1 2.56-2.57 17 17 0 0 1 3.17-2 21.3 21.3 0 0 1 3.86-1.42 30.33 30.33 0 0 1 6.51-1l33.44-19.19-.37-.27a44.35 44.35 0 0 0-11.42-5.67 56.22 56.22 0 0 0-6.21-1.65l-.61-.11-67.2 38.66v.15A66.79 66.79 0 0 0-2 117.52c-.1 2.29-.1 4.68 0 7.13z" fill="#333391" opacity=".9"/><path d="M52.84 96.82h2.43a22.74 22.74 0 0 1 4 .55 20.41 20.41 0 0 1 3.64 1.22c.51.23 1 .49 1.51.76L92.68 83c-.58-.59-1.16-1.18-1.76-1.73a46.75 46.75 0 0 0-4.69-3.76zM33.17 112.69c-2.25-.31-3.65-.7-3.54-1.07l.18-.56a28.87 28.87 0 0 1 1.62-4 23.9 23.9 0 0 1 1.79-3L-5 119.27c-.21 2-.37 4.14-.46 6.29 0 .85 0 1.67-.06 2.5z" fill="#932b8d" opacity=".9"/><path d="M98.79 93.68a50.87 50.87 0 0 0-3.12-5.17c-.79-1.17-1.63-2.29-2.5-3.37L63.32 98.42a20.92 20.92 0 0 1 1.73 1.33 16.75 16.75 0 0 1 2.57 2.79 18.11 18.11 0 0 1 2 3.4 22.77 22.77 0 0 1 1.29 4.06l.16.69c.14.8-4.25 1.46-9.75 1.46H39.15c-2.34 0-4.47-.1-6.14-.26L-5 128.84a87.42 87.42 0 0 0 1 11.62c.27 1.7.62 3.34 1 5L101.22 99a52.59 52.59 0 0 0-2.43-5.32z" fill="#e91388" opacity=".9"/><path d="M103.77 106.61a56.36 56.36 0 0 0-1.76-6l-.09-.24L-3.51 144a57.76 57.76 0 0 0 2 7.28c.05.16.12.3.18.46l29.83-12.35v-.08l-.27-1.37c-.17-1.65 4.19-2.89 9.69-2.74h.67l65.51-27.11c-.1-.48-.22-.99-.33-1.48z" fill="#ea245f" opacity=".9"/><path d="M4.47 162.73a40.55 40.55 0 0 0 3.21 4l30.26-13.22a18.87 18.87 0 0 1-4.06-3.4 19.46 19.46 0 0 1-3-4.47A25.55 25.55 0 0 1 29 140L-.65 153a45.74 45.74 0 0 0 5.12 9.73zM105.36 121.73c0-1.79-.08-3.47-.17-5s-.22-3-.37-4.25a63.13 63.13 0 0 0-.82-4.86l-65.6 26.92 39.21 1.16 27.76-11.39c.01-.89 0-1.75-.01-2.58z" fill="#eb2d2e" opacity=".9"/><path d="M12.93 172.44q1.18.78 2.39 1.5L49 155h-1.72a27.94 27.94 0 0 1-3.71-.34 23.86 23.86 0 0 1-3.42-.81 22 22 0 0 1-3.15-1.29L8.23 168.78a40.13 40.13 0 0 0 4.7 3.66zM105.75 124l-28 10.78 17.39.89q1.18.06 2.28.08l7.93-3.05c.06-1 .14-2.27.21-3.49l.08-2q.07-1.63.11-3.21zM71.26 145.47c-.19.37-.69 1.3-1.12 2.07l-.24.37 6.75-3.06c-3.08.15-5.26.37-5.39.62z" fill="#f19432" opacity=".9"/><path d="M21.34 178.08a59.18 59.18 0 0 0 9.59 4q1.19.37 2.39.69L103.11 149c.24-1.74.46-3.53.51-4.21s-4.38-1.26-9.87-1.08l-12.75.38c-1.78.06-3.47.14-4.94.24l-6.67 3.23-.16.27a29.9 29.9 0 0 1-1.19 1.81 19 19 0 0 1-1.26 1.54 15.58 15.58 0 0 1-1.33 1.3 17.2 17.2 0 0 1-2.73 2 19 19 0 0 1-3.17 1.45 23.2 23.2 0 0 1-3.66.94 32.48 32.48 0 0 1-6.48.4l-34.75 16.78a62.82 62.82 0 0 0 6.68 4.03zM105.4 134.7c0-.34.14-1.18.26-2.24l-8.08 2.63c4.42.33 7.75.19 7.82-.39z" fill="#fde92b" opacity=".9"/><path d="M40.85 184.35c2.05.29 4.16.46 6.3.55l51.31-24.3a40.89 40.89 0 0 0 1.91-3.33 32.55 32.55 0 0 0 2.13-5.27l.53-1.75.1-.71-70.06 33.2a60.69 60.69 0 0 0 7.78 1.61z" fill="#91be4a" opacity=".9"/><path d="M50.42 183a75.43 75.43 0 0 0 12.58-.09 57.77 57.77 0 0 0 11.4-2.26 49 49 0 0 0 10.13-4.42 47.78 47.78 0 0 0 8.76-6.56 56.72 56.72 0 0 0 4.62-4.78c.5-.58 1-1.16 1.41-1.75L46 182.58c1.47.2 2.94.36 4.42.42z" fill="#009e54" opacity=".9"/></svg>