<svg xmlns="http://www.w3.org/2000/svg" width="100.65" height="200" viewBox="0 0 100.65 200"><title>_</title><path d="M48.54 25.25c-5.47.59-12.33 4.89-15.24 9.56l-1.19 1.9 20.46-11.9z" fill="#00a8de" opacity=".9"/><path d="M57 26.73l-3.37-.2-22.21 8.3-4.5 5.07 33.49-12.55a16.41 16.41 0 0 0-3.41-.62z" fill="#0070b4" opacity=".9"/><path d="M59.67 25.92L27.4 41.33l-8.09 10.88 48.44-23.14a25.32 25.32 0 0 0-8.08-3.15z" fill="#333391" opacity=".9"/><path d="M69 31.76L18.33 49.5l-.62.67a7.35 7.35 0 0 0-2 3.61l56-19.61A21.74 21.74 0 0 0 69 31.76z" fill="#932b8d" opacity=".9"/><path d="M72.59 33.6a15.58 15.58 0 0 0-1.82-1.9l-54 24.58c-.19 2.44 1.81 4.08 5.58 4.05h.82l51.89-23.62z" fill="#e91388" opacity=".9"/><path d="M74.11 34.94l-50 27.38 7.76-.64 15.3-8.37.2-.31a7.1 7.1 0 0 1 6.76-3.49l22.19-12.18z" fill="#ea245f" opacity=".9"/><path d="M30.93 59.39c5.33.52 12.46-2 16.12-5.56l-16.54 5.52zM76.64 38.9L54.27 50.7A7.58 7.58 0 0 1 59 53.32a13.27 13.27 0 0 0 1.39 1.34L81 43.76z" fill="#eb2d2e" opacity=".9"/><path d="M81.64 45.51l-22.08 7.62a19 19 0 0 0 2.62 2.45l21.24-7.33z" fill="#f19432" opacity=".9"/><path d="M87.19 53.51l-3.42-5.42-21.35 7a24.73 24.73 0 0 0 7.64 4.15l17.18-5.65z" fill="#fde92b" opacity=".9"/><path d="M88.74 55.82a8.34 8.34 0 0 0-1.28-2.9l-17 6.16a17.22 17.22 0 0 0 3.57.68l3.21.24z" fill="#91be4a" opacity=".9"/><path d="M83.21 60.15c4.2.13 6.25-1.87 5.55-4.8L77.44 60z" fill="#009e54" opacity=".9"/><path d="M50.73 66.62a67.65 67.65 0 0 0-11.58 1 55.4 55.4 0 0 0-10.53 2.92 50.41 50.41 0 0 0-9.43 4.87 51.83 51.83 0 0 0-8.26 6.8 47.18 47.18 0 0 0-6.11 7.66l51.44-23c-1.82-.17-3.66-.25-5.53-.25z" fill="#00a8de" opacity=".9"/><path d="M64.38 67.83a65.88 65.88 0 0 0-6.69-.94c-.49 0-1-.06-1.49-.1L4.82 89.94c-.21.34-.44.66-.65 1A52.84 52.84 0 0 0-.54 101.1l70.68-31.83c-1.86-.56-3.79-1.05-5.76-1.44z" fill="#0070b4" opacity=".9"/><path d="M34 104c.08-.14.14-.3.22-.43a21.26 21.26 0 0 1 2.15-3.14A15.75 15.75 0 0 1 39 97.87 17 17 0 0 1 42.21 96a21.3 21.3 0 0 1 3.9-1.33 30.41 30.41 0 0 1 6.53-.79l33.9-18.4-.36-.28a44.35 44.35 0 0 0-11.27-6 56.22 56.22 0 0 0-6.17-1.81l-.61-.12L0 104.26v.15a66.79 66.79 0 0 0-1.92 12c-.16 2.29-.22 4.68-.18 7.13z" fill="#333391" opacity=".9"/><path d="M52.52 94.12c.83.08 1.65.18 2.41.32a22.74 22.74 0 0 1 3.87 1.08 20.41 20.41 0 0 1 3.45 1.69c.48.29.94.62 1.39 1l30.2-12.47c-.5-.66-1-1.32-1.52-1.95a46.75 46.75 0 0 0-4.15-4.34zM33.85 113.33c-2.24-.38-3.62-.82-3.5-1.19l.2-.55a28.87 28.87 0 0 1 1.75-3.92 23.9 23.9 0 0 1 1.89-2.94l-38.7 13.91c-.28 2-.51 4.13-.67 6.27-.06.84-.1 1.67-.14 2.5z" fill="#932b8d" opacity=".9"/><path d="M97.88 90.45a50.87 50.87 0 0 0-3.45-5c-.86-1.12-1.78-2.18-2.71-3.2L62.79 97.48a20.92 20.92 0 0 1 1.81 1.21 16.75 16.75 0 0 1 2.75 2.62 18.11 18.11 0 0 1 2.17 3.27 22.77 22.77 0 0 1 1.6 4l.2.68c.19.79-4.15 1.73-9.64 2.09l-9.25.6-12.87.83c-2.33.15-4.46.19-6.14.14l-36.87 19.32a87.42 87.42 0 0 0 1.75 11.53c.38 1.68.83 3.3 1.31 4.88l101-53a52.59 52.59 0 0 0-2.73-5.2z" fill="#e91388" opacity=".9"/><path d="M105.49 110.07a56.36 56.36 0 0 0-1.37-6.1l-.08-.24L-4 140.53a57.76 57.76 0 0 0 1.52 7.39c0 .16.1.31.15.47L28.28 138v-.08l-.19-1.38c-.06-1.66 4.37-2.61 9.84-2.11l.67.06 67.11-22.87c-.08-.53-.14-1.05-.22-1.55z" fill="#ea245f" opacity=".9"/><path d="M4.16 161.2a40.55 40.55 0 0 0 2.77 4.32l31.48-10a18.87 18.87 0 0 1-3.68-3.8A19.46 19.46 0 0 1 32.2 147a25.55 25.55 0 0 1-1.32-5.77L.09 151a45.74 45.74 0 0 0 4.07 10.2zM105.81 124.15c.11-1.79.17-3.47.19-5s0-3-.06-4.26c-.09-1.66-.25-3.3-.46-4.9L38.1 132.05l39 4 28.51-9.34c.1-.87.16-1.71.2-2.56z" fill="#eb2d2e" opacity=".9"/><path d="M105.6 122.44l-26.54 14 17.37-1.16q1.17-.08 2.27-.19l7.52-4c-.06-1-.13-2.27-.2-3.49l-.16-2q-.11-1.6-.26-3.16zM71.87 145.43c-.2.36-.72 1.29-1.16 2l-.24.37 6.81-2.93c-3.1.13-5.28.32-5.41.56zM13 171.52q1.13.85 2.3 1.64l34.68-17c-.58 0-1.16 0-1.72-.09a27.94 27.94 0 0 1-3.69-.55 23.86 23.86 0 0 1-3.36-1 22 22 0 0 1-3-1.45L8.52 167.59a40.13 40.13 0 0 0 4.48 3.93z" fill="#f19432" opacity=".9"/><path d="M106.08 134.12c0-.34 0-1.19-.08-2.26l-7.59 3.83c4.4-.35 7.69-.99 7.67-1.57zM20.81 174.78a59.18 59.18 0 0 0 9.19 4.78q1.15.47 2.33.9l72.41-27.68c.38-1.71.76-3.48.87-4.15s-4.25-1.63-9.74-1.92l-12.7-.71c-1.78-.1-3.47-.15-4.95-.18l-6.92 2.65-.18.26c-.44.61-.89 1.18-1.34 1.7a19 19 0 0 1-1.38 1.43 15.58 15.58 0 0 1-1.4 1.19 17.2 17.2 0 0 1-2.88 1.71 19 19 0 0 1-3.28 1.17 23.2 23.2 0 0 1-3.72.62 32.48 32.48 0 0 1-6.49-.15L14.5 170.2a62.82 62.82 0 0 0 6.31 4.58z" fill="#fde92b" opacity=".9"/><path d="M42.91 186.51c2.07.12 4.19.12 6.32 0l49.17-28.4c.62-1.17 1.17-2.34 1.63-3.48a32.55 32.55 0 0 0 1.69-5.4l.39-1.79v-.72L35 185.54a60.69 60.69 0 0 0 7.91.97z" fill="#91be4a" opacity=".9"/><path d="M51 183a75.43 75.43 0 0 0 12.61-.11A57.77 57.77 0 0 0 75 180.65a49 49 0 0 0 10.14-4.4 47.78 47.78 0 0 0 8.77-6.54 56.72 56.72 0 0 0 4.64-4.77c.5-.58 1-1.16 1.42-1.75l-53.39 19.33c1.42.2 2.92.37 4.42.48z" fill="#009e54" opacity=".9"/></svg>