<svg xmlns="http://www.w3.org/2000/svg" width="110.67" height="200" viewBox="0 0 110.67 200"><title>_</title><path d="M76.41 30a10 10 0 0 0-8.5 5.79l11.57-6z" fill="#00a8de" opacity=".9"/><path d="M79.46 30l-11.64 5.8a9.91 9.91 0 0 0-.87 2.8l17.71-8.85z" fill="#0070b4" opacity=".9"/><path d="M86.55 29.58l-2.21.17-17.42 9.38a9.93 9.93 0 0 0 0 2v.45l.17 2.31 24.61-13.3a9.9 9.9 0 0 0-5.15-1.01z" fill="#333391" opacity=".9"/><path d="M92.57 32.4l-26.3 9.51-.17 2.31L94.37 34a10.09 10.09 0 0 0-1.8-1.6z" fill="#932b8d" opacity=".9"/><path d="M93.92 32.85L66.61 45.39v3.06a9.91 9.91 0 0 0 .14 1.5L96.32 36.4a10.05 10.05 0 0 0-2.4-3.55z" fill="#e91388" opacity=".9"/><path d="M96.44 36.68l-29.79 13a9.88 9.88 0 0 0 .53 2.07L97 38.76a9.88 9.88 0 0 0-.56-2.08z" fill="#ea245f" opacity=".9"/><path d="M97.39 41.79v-.75a9.92 9.92 0 0 0 0-1.51L67 51a10.05 10.05 0 0 0 2.14 3.71L97.25 44.1z" fill="#eb2d2e" opacity=".9"/><path d="M96.71 42.57L69.87 56.08a10.09 10.09 0 0 0 2 1.37l25-12.57z" fill="#f19432" opacity=".9"/><path d="M97.29 46l-26 10.39a9.9 9.9 0 0 0 5 1.58l2.21.08 18.37-7.36a9.93 9.93 0 0 0 .27-1.94v-.45z" fill="#fde92b" opacity=".9"/><path d="M84.33 58.6l11.4-6.28a9.92 9.92 0 0 0 .75-2.83L79.15 59z" fill="#91be4a" opacity=".9"/><path d="M86.9 58.12a10 10 0 0 0 9.1-4.78l-12.17 4.59z" fill="#009e54" opacity=".9"/><path d="M37.23 29.88A10 10 0 0 0 29 36l11.3-6.42z" fill="#00a8de" opacity=".9"/><path d="M40.39 30l-11.63 5.81a9.91 9.91 0 0 0-.86 2.8l17.69-8.88z" fill="#0070b4" opacity=".9"/><path d="M47.86 30h-2.21l-17.92 8.44a9.93 9.93 0 0 0-.16 2V43.2l25.37-11.92A9.9 9.9 0 0 0 47.86 30z" fill="#333391" opacity=".9"/><path d="M52.94 31.36L27.57 43.11v2.31l27.31-12.63a10.09 10.09 0 0 0-1.94-1.43z" fill="#932b8d" opacity=".9"/><path d="M54.12 31.85L27.93 46.6l.22 2.3.07.75a9.91 9.91 0 0 0 .27 1.48L56.8 35.19a10.05 10.05 0 0 0-2.68-3.34z" fill="#e91388" opacity=".9"/><path d="M57.31 36.57L27.63 49.79a9.88 9.88 0 0 0 .55 2.07l29.68-13.22a9.88 9.88 0 0 0-.55-2.07z" fill="#ea245f" opacity=".9"/><path d="M58.16 41.34v-.75a9.92 9.92 0 0 0-.08-1.51L28 51.42a10.05 10.05 0 0 0 2.25 3.64L58.1 43.65z" fill="#eb2d2e" opacity=".9"/><path d="M57.25 41.9L31.13 56.75a10.09 10.09 0 0 0 2 1.27L57.48 44.2z" fill="#f19432" opacity=".9"/><path d="M57.86 50.8a9.93 9.93 0 0 0 .28-1.94v-.45l.1-2.31-26 10.22a9.9 9.9 0 0 0 5 1.62l2.19.06z" fill="#fde92b" opacity=".9"/><path d="M44.65 58l12.22-4.49A9.92 9.92 0 0 0 58 50.85l-18.54 6.82z" fill="#91be4a" opacity=".9"/><path d="M48 58.29A10 10 0 0 0 56.8 53l-11.9 5.29H48z" fill="#009e54" opacity=".9"/><path d="M59.57 65.52a67.65 67.65 0 0 0-11.51 1.63 55.42 55.42 0 0 0-10.35 3.5A50.41 50.41 0 0 0 28.56 76a51.83 51.83 0 0 0-7.87 7.25 47.18 47.18 0 0 0-5.67 8l50.07-25.83c-1.81-.03-3.65-.01-5.52.1z" fill="#00a8de" opacity=".9"/><path d="M73.4 66.95a66.06 66.06 0 0 0-6.71-.74c-.49 0-1 0-1.49-.05L14.53 90.84c-.2.34-.42.68-.62 1a52.85 52.85 0 0 0-4.41 10.3l69.69-34c-1.87-.44-3.81-.87-5.79-1.19z" fill="#0070b4" opacity=".9"/><path d="M42.56 103.06c.09-.13.17-.28.27-.41a21.26 21.26 0 0 1 2.48-2.89 15.75 15.75 0 0 1 2.88-2.21 17 17 0 0 1 3.4-1.55 21.3 21.3 0 0 1 4-.9 30.41 30.41 0 0 1 6.6-.1l35.69-14.62-.33-.32A44.35 44.35 0 0 0 87 72.93a56.22 56.22 0 0 0-5.94-2.46l-.59-.19-71.74 29.4-.06.14a66.79 66.79 0 0 0-3.21 11.76c-.41 2.26-.72 4.63-.95 7.07z" fill="#333391" opacity=".9"/><path d="M43.17 112.16c-2.26-.25-3.66-.6-3.57-1l.17-.56a28.87 28.87 0 0 1 1.51-4 23.91 23.91 0 0 1 1.71-3L5.2 119.8c-.16 2.05-.26 4.15-.29 6.3v2.5zM62.86 96.61h2.43a22.74 22.74 0 0 1 4 .59 20.41 20.41 0 0 1 3.63 1.26c.51.23 1 .5 1.5.77l28.42-16.03c-.58-.6-1.15-1.19-1.74-1.75a46.75 46.75 0 0 0-4.65-3.81z" fill="#932b8d" opacity=".9"/><path d="M74.91 99.89a20.93 20.93 0 0 1 1.6 1.48 16.75 16.75 0 0 1 2.31 3 18.11 18.11 0 0 1 1.63 3.63 22.77 22.77 0 0 1 1 4.19l.09.7c.06.81-4.37 1.06-9.85.56l-9.23-.85-12.84-1.19c-2.33-.22-4.44-.51-6.09-.82L4.06 123.9A87.43 87.43 0 0 0 4 135.56c.11 1.72.3 3.39.54 5L112.59 104a52.56 52.56 0 0 0-1.93-5.54A50.87 50.87 0 0 0 108 93c-.68-1.24-1.42-2.43-2.18-3.59z" fill="#e91388" opacity=".9"/><path d="M6.81 147.27c0 .16.1.31.14.47l30.7-10v-.08l-.17-1.38c0-1.66 4.4-2.56 9.87-2l.65.03 67.39-22.05c-.07-.51-.12-1-.2-1.52a56.36 56.36 0 0 0-1.3-6.12l-.07-.24L5.38 139.86a57.77 57.77 0 0 0 1.43 7.41z" fill="#ea245f" opacity=".9"/><path d="M88.2 135.51l27.37-12.3c0-.89-.06-1.75-.1-2.58-.08-1.79-.2-3.47-.34-5s-.31-3-.51-4.23c-.26-1.65-.6-3.25-1-4.83L49 135.65zM15.58 164.11a40.54 40.54 0 0 0 3.6 3.67L48 151.58a18.87 18.87 0 0 1-4.38-3 19.44 19.44 0 0 1-3.41-4.15 25.58 25.58 0 0 1-2.47-5.38L9.51 154.91a45.73 45.73 0 0 0 6.07 9.2z" fill="#eb2d2e" opacity=".9"/><path d="M81.28 145.68c-.15.38-.56 1.36-.9 2.17l-.2.4 6.41-3.73c-3.06.48-5.2.9-5.31 1.16zM21.71 169.75q1 1 2.11 1.87l36.28-13.26c-.57-.08-1.15-.16-1.7-.27a27.94 27.94 0 0 1-3.61-.94 23.86 23.86 0 0 1-3.24-1.36 22 22 0 0 1-2.87-1.79l-31 11.33a40.14 40.14 0 0 0 4.03 4.42zM106.1 135.18q1.17-.11 2.27-.24l7.42-4.15-.28-3.49-.2-2q-.17-1.64-.35-3.17l-26.2 14.62z" fill="#f19432" opacity=".9"/><path d="M115.61 133.94c0-.34-.1-1.18-.19-2.25l-7.42 4.17c4.4-.54 7.66-1.34 7.61-1.92zM30.09 174a59.18 59.18 0 0 0 9.12 5q1.14.5 2.31.94l73-26.17c.42-1.71.83-3.47 1-4.13s-4.22-1.72-9.7-2.13l-12.82-1c-1.78-.13-3.46-.23-4.94-.28l-7 2.5-.19.25c-.45.6-.91 1.16-1.38 1.67a18.84 18.84 0 0 1-1.41 1.4 15.75 15.75 0 0 1-1.46 1.15 17.26 17.26 0 0 1-2.92 1.65 19 19 0 0 1-3.3 1.1 23.18 23.18 0 0 1-3.74.55 32.47 32.47 0 0 1-6.49-.29l-36.36 13a62.82 62.82 0 0 0 6.28 4.79z" fill="#fde92b" opacity=".9"/><path d="M51.34 185c2.06.24 4.17.37 6.31.41l50.76-25.44c.68-1.13 1.3-2.26 1.84-3.38a32.55 32.55 0 0 0 2-5.29l.49-1.76.09-.71-69.3 34.73a60.69 60.69 0 0 0 7.81 1.44z" fill="#91be4a" opacity=".9"/><path d="M62.1 186a75.43 75.43 0 0 0 12.48-1.85 57.77 57.77 0 0 0 11-3.79 49 49 0 0 0 9.42-5.78 47.78 47.78 0 0 0 7.79-7.69 56.72 56.72 0 0 0 3.93-5.37c.41-.64.79-1.28 1.16-1.93l-50.21 26.52c1.47 0 2.95-.04 4.43-.11z" fill="#009e54" opacity=".9"/></svg>