<svg xmlns="http://www.w3.org/2000/svg" width="61.92" height="200" viewBox="0 0 61.92 200"><title>_</title><path d="M3.49 28.75c-4.34-.4-6.22 1.43-5.05 4.29l11-3.75z" fill="#00a8de" opacity=".9"/><path d="M-1.3 34a9.31 9.31 0 0 0 1.88 2.21l.42.34 16.18-8.27-8.07.44z" fill="#0070b4" opacity=".9"/><path d="M5.86 41.24L29.18 30.5a18.06 18.06 0 0 0-7.57-1.81l-4.33.06-16.5 7.6z" fill="#333391" opacity=".9"/><path d="M8.92 44.56l23.33-13a22.78 22.78 0 0 0-3.63-1.74L6.19 42.32z" fill="#932b8d" opacity=".9"/><path d="M12.82 47.91l24.82-9.14-.35-.64a17 17 0 0 0-4.09-4.73L8.13 42.63z" fill="#e91388" opacity=".9"/><path fill="#ea245f" opacity=".9" d="M15.31 50.13l24.25-8.41L38 38.78l-24.98 8.67 2.29 2.68z"/><path d="M21.25 56.42h.06l21.43-11-3.9-5.39L16 51.79z" fill="#eb2d2e" opacity=".9"/><path d="M23.33 57.56L44.89 50l-1.57-3-22.72 8a19.5 19.5 0 0 0 2.73 2.56z" fill="#f19432" opacity=".9"/><path d="M31.06 61.45l17.22-5.53L45.32 50l-21.77 7a31 31 0 0 0 7.51 4.45z" fill="#fde92b" opacity=".9"/><path d="M37.74 63.09l11.71-5.84a8.34 8.34 0 0 0-1.38-3l-16.19 8.09a22.81 22.81 0 0 0 5.86.75z" fill="#91be4a" opacity=".9"/><path d="M38.25 63.57l5.68-.57c4.18-.45 6.12-2.9 5.26-5.94L37.88 63.6z" fill="#009e54" opacity=".9"/><path d="M39.26 69.75L26 69.44a10 10 0 0 0-10.19 9.76v1.46L41.29 70a10 10 0 0 0-2.03-.25z" fill="#00a8de" opacity=".9"/><path d="M42.13 70.75l-26.31 8.51-.82 7.9 33.3-10.77a10.06 10.06 0 0 0-6.17-5.64z" fill="#0070b4" opacity=".9"/><path d="M49 81.87v-2.56a9.91 9.91 0 0 0-1.31-4.81l-31.8 14.6L16 97l.08 8 33-15.18z" fill="#333391" opacity=".9"/><path fill="#932b8d" opacity=".9" d="M49.29 90.26l-33.44 14.29-.11 7.95 33.43-14.3.12-7.94z"/><path fill="#e91388" opacity=".9" d="M48.76 105.12l-.38-7.94-32.48 16.36.37 7.94.38 7.94 32.48-16.36-.37-7.94z"/><path fill="#ea245f" opacity=".9" d="M49.61 114.6l-33.84 13.3-.35 7.94 33.84-13.3.35-7.94z"/><path fill="#eb2d2e" opacity=".9" d="M49.43 130.47l.34-7.94-33.83 13.35-.34 7.94-.34 7.94 33.83-13.35.34-7.94z"/><path fill="#f19432" opacity=".9" d="M49.8 138.75l-34.08 12.7-.49 7.93 34.08-12.7.49-7.93z"/><path d="M48.88 153l-.27-7.94L15.9 161l.27 7.94.09 2.56a9.91 9.91 0 0 0 1.42 4.78L49.14 161z" fill="#fde92b" opacity=".9"/><path d="M48.16 160.08l-30.5 17.16a10.06 10.06 0 0 0 7.14 4.31L48.9 168z" fill="#91be4a" opacity=".9"/><path d="M48.92 170.38l-.07-1.46-24.72 12.37a10 10 0 0 0 2 .12l13.21-.59a10 10 0 0 0 9.58-10.44z" fill="#009e54" opacity=".9"/></svg>