<svg xmlns="http://www.w3.org/2000/svg" width="59.58" height="200" viewBox="0 0 59.58 200"><title>_</title><path d="M38.65 68.56a10 10 0 0 0-2 0l-13.22 1.21a10 10 0 0 0-9 10.88l.14 1.45z" fill="#00a8de" opacity=".9"/><path d="M13.26 87.65l33-11.73a10.06 10.06 0 0 0-6.31-5.46l-26.07 9.26z" fill="#0070b4" opacity=".9"/><path d="M13.74 96.32l-.25 7.94 33.67-13.72.25-7.94.08-2.6a9.91 9.91 0 0 0-1.1-4.86L14 88.38z" fill="#333391" opacity=".9"/><path fill="#932b8d" opacity=".9" d="M14.89 114.01l31.97-17.34-.62-7.92-31.97 17.33.62 7.93z"/><path fill="#e91388" opacity=".9" d="M13.45 119.43l-.6 7.92 34.24-12.25.6-7.93.59-7.92-34.24 12.25-.59 7.93z"/><path fill="#ea245f" opacity=".9" d="M13.97 136.61l33.2-14.83-.01-7.95-33.2 14.83.01 7.95z"/><path fill="#eb2d2e" opacity=".9" d="M14.43 145.52l.47 7.93 32.28-16.75-.48-7.93-.47-7.94-32.28 16.76.48 7.93z"/><path fill="#f19432" opacity=".9" d="M13.56 159.83l33.73-13.59.29-7.94-33.74 13.58-.28 7.95z"/><path d="M14.16 168.81l.07 2.56a9.91 9.91 0 0 0 1.38 4.79L47.2 161.1l-.2-7.94-.21-7.95L14 160.87z" fill="#fde92b" opacity=".9"/><path d="M21.92 180.74l25.25-11.27v-7.95l-32 14.26a10.06 10.06 0 0 0 6.75 4.96z" fill="#91be4a" opacity=".9"/><path d="M23.67 180.38l13.2.69a10 10 0 0 0 10.51-9.46l.08-1.46-25.82 9.91a10 10 0 0 0 2.03.32z" fill="#009e54" opacity=".9"/><path d="M45 33.2a10 10 0 0 0-9.19 4.62l12.26-4.39z" fill="#00a8de" opacity=".9"/><path d="M48.3 33.36L36 37.5a9.92 9.92 0 0 0-1.25 2.65l18.77-6.29z" fill="#0070b4" opacity=".9"/><path d="M34.44 44.84l26.27-9.57a9.9 9.9 0 0 0-4.94-1.74l-2.21-.15L35 40.15a9.93 9.93 0 0 0-.33 1.93v.45z" fill="#333391" opacity=".9"/><path d="M35.6 49.38l26.1-14.9a10.1 10.1 0 0 0-2.05-1.26L35.37 47.08z" fill="#932b8d" opacity=".9"/><path d="M34.34 48.92l-.07.75a9.92 9.92 0 0 0 0 1.51l30.79-10.34a10.06 10.06 0 0 0-2-3.78l-28.5 9.56z" fill="#e91388" opacity=".9"/><path d="M34.86 53.26l30.82-10.31a9.9 9.9 0 0 0-.35-2.11L34.52 51.15a9.9 9.9 0 0 0 .34 2.11z" fill="#ea245f" opacity=".9"/><path d="M37.44 57.56l28.09-10.7.13-2.31v-.75a9.93 9.93 0 0 0 0-1.51L35.28 53.86a10.05 10.05 0 0 0 2.16 3.7z" fill="#eb2d2e" opacity=".9"/><path d="M39.92 59.92l25.34-11.79v-2.31L38 58.49a10.1 10.1 0 0 0 1.92 1.43z" fill="#f19432" opacity=".9"/><path d="M44.53 60.71l2.21.11 18.47-7.1a9.93 9.93 0 0 0 .3-1.94v-.45l.14-2.33-26.1 10a9.9 9.9 0 0 0 4.98 1.71z" fill="#fde92b" opacity=".9"/><path d="M52.52 61.35l11.54-6a9.92 9.92 0 0 0 .82-2.81l-17.54 9.14z" fill="#91be4a" opacity=".9"/><path d="M55.5 61.28a10 10 0 0 0 8.5-5.8l-11.56 6z" fill="#009e54" opacity=".9"/><path d="M5.48 32.67a10 10 0 0 0-8.17 6.24l11.23-6.58z" fill="#00a8de" opacity=".9"/><path d="M-3.09 37.75a9.92 9.92 0 0 0-1.17 2.68l18.57-6.86-5.18-.34z" fill="#0070b4" opacity=".9"/><path d="M-4.22 42.93v2.77l25.57-11.29a9.9 9.9 0 0 0-5-1.41h-2.26L-4 41a9.93 9.93 0 0 0-.22 1.93z" fill="#333391" opacity=".9"/><path d="M-4.53 47.35l28-10.83A10.1 10.1 0 0 0 21.66 35L-4.42 45z" fill="#932b8d" opacity=".9"/><path d="M-4.5 49.61v.75a9.92 9.92 0 0 0 .05 1.51l30.28-11.71a10.06 10.06 0 0 0-2.17-3.69l-28 10.83z" fill="#e91388" opacity=".9"/><path d="M-3.23 55.24L25.93 40.9a9.9 9.9 0 0 0-.63-2L-3.86 53.19a9.9 9.9 0 0 0 .63 2.05z" fill="#ea245f" opacity=".9"/><path d="M-1.32 58.05L26.34 46.3V43.23a9.93 9.93 0 0 0-.1-1.5L-3.61 54.44a10.05 10.05 0 0 0 2.29 3.61z" fill="#eb2d2e" opacity=".9"/><path d="M.47 59.23l26-10.31.1-2.31L-1.39 57.7a10.1 10.1 0 0 0 1.86 1.53z" fill="#f19432" opacity=".9"/><path d="M5.89 61.23H8.1l18-8.31a9.93 9.93 0 0 0 .17-2v-2.75L.81 59.91a9.9 9.9 0 0 0 5.08 1.32z" fill="#fde92b" opacity=".9"/><path d="M13.19 61.11l11.91-5.26a9.92 9.92 0 0 0 1-2.75L8 61.09h5.2z" fill="#91be4a" opacity=".9"/><path d="M16.05 60.85a10 10 0 0 0 9.26-4.47L13 60.57z" fill="#009e54" opacity=".9"/></svg>