<svg xmlns="http://www.w3.org/2000/svg" width="102.64" height="200" viewBox="0 0 102.64 200"><title>_</title><path d="M23.08 69.88l-12-.27A10 10 0 0 0 .9 79.38l-.08 3.45L29 71a16.79 16.79 0 0 0-5.92-1.12z" fill="#00a8de" opacity=".9"/><path d="M33.2 75.5c.07-1.68-1.46-3.24-3.87-4.28L.94 82.5l-.4 9.94 32.74-13a25.74 25.74 0 0 1-.08-3.94zM56 68a40.29 40.29 0 0 0-6.17.83 34.62 34.62 0 0 0-5.69 1.75A32 32 0 0 0 39 73.31a29.11 29.11 0 0 0-2.81 2.08c-.66.55-1.34 1.17-2 1.83L59.88 68H56z" fill="#0070b4" opacity=".9"/><path d="M86.11 75.7a39.67 39.67 0 0 0-6.5-3.46 46.23 46.23 0 0 0-7.32-2.36 57.69 57.69 0 0 0-8.12-1.28c-.92-.08-1.82-.12-2.72-.15l-25.88 8.9c-.28.26-.56.52-.84.79l-.29.29c-.13.13-.21-.11-.26-.6L.87 89.29 0 99.2l-.87 9.91 90.18-31a37.2 37.2 0 0 0-3.2-2.41z" fill="#333391" opacity=".9"/><path d="M89.92 74.74c-.86-.66-1.76-1.29-2.67-1.87L1.49 114.59l.34 9.94L35.91 108c.2-.68.41-1.33.64-1.94a19.57 19.57 0 0 1 2.64-4.75 15.09 15.09 0 0 1 3.55-3.34 16.46 16.46 0 0 1 4.6-2.11 23.94 23.94 0 0 1 5.84-.87 22.8 22.8 0 0 1 4.75.3 15.12 15.12 0 0 1 2.65.72l34-16.54a26.68 26.68 0 0 0-4.66-4.73z" fill="#932b8d" opacity=".9"/><path d="M.73 132.33l-.32 9.94 33.29-13.53c.16-4.64.32-9.05.4-10.49l.15-1.43c.15-1.41.36-2.77.61-4a33.54 33.54 0 0 1 .91-3.54c.12-.39.26-.77.4-1.14L1.06 122.39zM101.36 98a43.54 43.54 0 0 0-1.71-8.44 31.68 31.68 0 0 0-3.24-7.16c-.16-.26-.34-.5-.5-.75l-35.2 13.82c.36.17.71.35 1 .54a10.93 10.93 0 0 1 2.69 2.21 11.92 11.92 0 0 1 1.93 3.05 14 14 0 0 1 .73 2.14 22.15 22.15 0 0 1 .51 2.7c.13 1 .21 2.09.25 3.24v1.17c0 .34 0 .92-.06 1.67L101.46 99z" fill="#e91388" opacity=".9"/><path d="M1.42 153.37l32.29-15.77-.26-7.35c0-.86-.06-1.73-.09-2.59L1.07 143.43zM102.75 101.69l-.11-2-34.27 11.47c-.2 2.23-.55 6-.92 9.89l34.72-11.63c.25-3.04.47-5.87.58-7.73z" fill="#ea245f" opacity=".9"/><path d="M1.18 163.18l.22 8.19a9.92 9.92 0 0 0 .2 1.68l32.28-15.42-.53-19.89-32.44 15.5zM68.45 123.53v1l.92 18.89 32.75-16.53-.48-9.94v-1c-.13-2.72-.31-5.93-.5-8.93z" fill="#eb2d2e" opacity=".9"/><path d="M6.2 179.37L33.84 169l.6-9.93-33.5 12.56a10 10 0 0 0 5.26 7.74zM68.41 152.37l33.68-14.54.12-9.95-33.68 14.54-.12 9.95z" fill="#f19432" opacity=".9"/><path d="M68.43 170.81a9.92 9.92 0 0 0 .11 1.46l33.46-14.6.08-9.95.08-9.95-33.59 14.66zM10.72 180.57l12.82.51a10 10 0 0 0 10.39-9.59l.12-2.91-27.42 10.91a9.89 9.89 0 0 0 4.09 1.08z" fill="#fde92b" opacity=".9"/><path d="M73 178.61l29.1-9.28 1.09-9.89-34.82 11.11a10 10 0 0 0 4.63 8.06z" fill="#91be4a" opacity=".9"/><path d="M78.91 181.43l13.5-.7a10 10 0 0 0 9.47-10.5l-.18-3.46-27.23 13.85a9.89 9.89 0 0 0 4.44.81z" fill="#009e54" opacity=".9"/><path d="M32.7 29.86a23.6 23.6 0 0 0-5.44 2.39 21.93 21.93 0 0 0-4.54 3.66 23.72 23.72 0 0 0-2.64 3.37l19.45-10.59a28.94 28.94 0 0 0-6.83 1.17z" fill="#00a8de" opacity=".9"/><path d="M44.5 29c-.48-.07-1-.13-1.43-.17s-1-.07-1.44-.09-1 0-1.45 0l-.84.05-19.4 10.66c-.31.48-.61 1-.9 1.49a27.46 27.46 0 0 0-1.33 2.9L44.65 29z" fill="#0070b4" opacity=".9"/><path d="M48.55 30.47l-.37-.1-1.13-.3-1.22-.28-1.15-.22-27.43 14c-.06.15-.13.28-.2.43-.49 1.17-1 2.46-1.37 3.82-.3 1-.59 2.07-.86 3.19l37.75-19.2z" fill="#333391" opacity=".9"/><path d="M54.24 33.17l-1.3-.48L14.31 50c-.12.39-.23.77-.35 1.18l-.42 1.52-.17.75 43.28-19.39z" fill="#932b8d" opacity=".9"/><path d="M73.25 29.9c-.08.53-.23 1.4-.33 1.95l-.12.47c-.12.48-.26.93-.41 1.35l-.06.14 10.17-5.72h-.2c-4.89.48-8.97 1.29-9.05 1.81zM61.94 36.89c-1-.38-2.85-1.14-4.72-1.92L13.05 52.29c-.45 1.64-.92 3.37-1.1 4.09-.11.44.93.89 2.67 1.24L64.76 38z" fill="#e91388" opacity=".9"/><path d="M72.34 36.34a12.33 12.33 0 0 1-.84 1 2.86 2.86 0 0 1-.65.52 4 4 0 0 1-1 .38 6.64 6.64 0 0 1-1.34.2 11.29 11.29 0 0 1-2.38-.13l-.55-.11-.48-.13L65 38 13.88 55a38.94 38.94 0 0 0 5.76 1h.1l10.57-3.52.19-.31a9 9 0 0 1 .83-1.06 7.56 7.56 0 0 1 .86-.82 5.27 5.27 0 0 1 1.93-.93 6.31 6.31 0 0 1 1.17-.18 10.21 10.21 0 0 1 2.06.11l.65.11.67.13.33.07 51-17a40 40 0 0 0-5.83-1L73 35.35c-.21.35-.43.65-.66.99z" fill="#ea245f" opacity=".9"/><path d="M40.33 51.71l.67.1.68.14.71.18.24.07 4.53 1.37.93.28 42.13-20.43c.28-1.73.55-3.52.65-4.22.06-.42-1-.76-2.64-1L39.91 51.67zM30 58.33c.16-.51.45-1.42.65-2l.21-.48c.16-.36.33-.69.51-1L21 58.78c4.79.22 8.85.06 9-.45z" fill="#eb2d2e" opacity=".9"/><path d="M51.55 54.56l38-16.86c.1-.33.22-.66.31-1l.46-1.65.16-.79-42.79 19z" fill="#f19432" opacity=".9"/><path d="M51.43 53.79l.51.21 1.55.54 1.58.46 1.57.48q1.42.45 2.68.79l.29.07 27-10.6a39.29 39.29 0 0 0 1.87-3.55c.54-1.19 1-2.44 1.48-3.71l-38.7 15.25z" fill="#fde92b" opacity=".9"/><path d="M61.84 56.62c.75.18 1.47.32 2.14.43l.72.1L84 49.91a35.19 35.19 0 0 0 2.43-3.31c.15-.23.28-.48.43-.72L59.73 56.06c.74.21 1.45.4 2.11.56z" fill="#91be4a" opacity=".9"/><path d="M66.06 57.27a27.2 27.2 0 0 0 5.22-.21A21.18 21.18 0 0 0 76 55.83a18.79 18.79 0 0 0 4.18-2.29 19.7 19.7 0 0 0 3.51-3.3c.13-.16.25-.33.38-.49l-19.21 7.41c.42.05.83.09 1.2.11z" fill="#009e54" opacity=".9"/></svg>