<svg xmlns="http://www.w3.org/2000/svg" width="104.79" height="200" viewBox="0 0 104.79 200"><title>_</title><path d="M24.16 25.35c-4.36 0-6.08 1.94-4.68 4.7l10.69-4.65z" fill="#00a8de" opacity=".9"/><path d="M30.42 25.46l-11 4A9.31 9.31 0 0 0 21 31.82l.34.39L38.48 26z" fill="#0070b4" opacity=".9"/><path d="M21.86 34.46l5.54 4.38 24.87-14.53-.13-.16c-.19-.23-4.82.07-10.28.67l-4.3.47z" fill="#333391" opacity=".9"/><path d="M29.11 40.08l25.7-11.15L53 26.11 26.62 37.57z" fill="#932b8d" opacity=".9"/><path d="M34.1 45l24.29-10.44-3.53-5.64L29.14 40z" fill="#e91388" opacity=".9"/><path d="M37.28 48.46L59.8 36.14 58 33.79l-.22-.28-23.2 12.68z" fill="#ea245f" opacity=".9"/><path d="M42.51 53.36h.06l20.9-12-4.14-5.2L37.06 49z" fill="#eb2d2e" opacity=".9"/><path d="M44.14 54l21.66-7.31-1.53-3-22.82 7.79A19.5 19.5 0 0 0 44.14 54z" fill="#f19432" opacity=".9"/><path d="M53.31 58.95l15.67-9-4.13-5.16L45 56.14a31 31 0 0 0 8.31 2.81z" fill="#fde92b" opacity=".9"/><path d="M58.9 59.85l11.32-6.56a8.34 8.34 0 0 0-1.56-2.89L53 59.46a22.81 22.81 0 0 0 5.9.39z" fill="#91be4a" opacity=".9"/><path d="M58.9 59.75l5.72-.2c4.21-.15 6.32-2.44 5.68-5.54l-11.77 5.74h.37z" fill="#009e54" opacity=".9"/><path d="M54.1 67.39a76.8 76.8 0 0 0-13.32.28A55.93 55.93 0 0 0 29 70.27a45.6 45.6 0 0 0-10.22 5 44 44 0 0 0-8.53 7.32 64.06 64.06 0 0 0-3.88 4.73l52.17-19.5c-1.47-.2-2.94-.34-4.44-.43z" fill="#00a8de" opacity=".9"/><path d="M67.19 68.08a72.8 72.8 0 0 0-8.82-1.23L6.83 88c-.95 1.32-1.83 2.71-2.67 4.11a62.08 62.08 0 0 0-3.58 7.11l72.35-29.65c-1.85-.57-3.76-1.08-5.74-1.49z" fill="#0070b4" opacity=".9"/><path d="M36.7 102a19.46 19.46 0 0 1 3-3.07 18 18 0 0 1 3.83-2.35 20.35 20.35 0 0 1 4.51-1.41 26.91 26.91 0 0 1 5.25-.46l37.4-16.4c-.77-.68-1.57-1.33-2.38-1.95a45.64 45.64 0 0 0-9.87-5.64 52.4 52.4 0 0 0-5.83-2L1 100.06a37 37 0 0 0-1 2.78 65.43 65.43 0 0 0-2.69 10.76 69.93 69.93 0 0 0-.7 6z" fill="#333391" opacity=".9"/><path d="M53.75 95.84A26.89 26.89 0 0 1 59 96a20.24 20.24 0 0 1 4.56 1.18 17.93 17.93 0 0 1 2.57 1.27L96.27 83l-.27-.31a44.34 44.34 0 0 0-6-5.56zM31.8 113.55c.11-.39.21-.78.33-1.16a31.46 31.46 0 0 1 2.09-5.21A23.91 23.91 0 0 1 37 103l.22-.26-40.61 16.38c-.19 1.82-.33 3.68-.39 5.55v3.3z" fill="#932b8d" opacity=".9"/><path d="M65.72 100.15c.48.25.95.51 1.4.8a19.48 19.48 0 0 1 3.56 3 24.12 24.12 0 0 1 3.06 4 31.46 31.46 0 0 1 2.36 4.76l28.69-16.83c-.93-1.6-1.92-3.16-3-4.66A64.52 64.52 0 0 0 94.93 83zM30.7 131.07c-.16-1.81-.25-3.73-.25-5.72a63 63 0 0 1 .39-7.25 45.52 45.52 0 0 1 .88-5.09l-35.1 15.66a74.51 74.51 0 0 0 .81 8.37 66.74 66.74 0 0 0 1.77 8.09z" fill="#e91388" opacity=".9"/><path d="M74.32 109.9c0 .1 0 .19.05.29a44.15 44.15 0 0 1 .53 6.34v1.64l33-10.87q-.24-1.32-.54-2.61-.6-2.62-1.43-5.2zM32 138.73l-.11-.35a44.29 44.29 0 0 1-1.36-6.23c-.07-.5-.14-1-.2-1.53l-31.05 15q.45 1.39.95 2.75c.6 1.61 1.27 3.2 2 4.75z" fill="#ea245f" opacity=".9"/><path d="M76 118.79c0 1.79 0 3.67-.09 5.62a63.55 63.55 0 0 1-.81 7.22 45.78 45.78 0 0 1-1.1 5.14l36.26-13.7a73.13 73.13 0 0 0-.32-8.23 66.25 66.25 0 0 0-1.35-8.32zM41 151.6c-.47-.27-.92-.56-1.36-.87a19.76 19.76 0 0 1-3.44-3.16 24.32 24.32 0 0 1-2.88-4.17 31.5 31.5 0 0 1-2.11-4.81L1.93 153.95c.88 1.72 1.83 3.4 2.86 5a62.19 62.19 0 0 0 6.36 8.3z" fill="#eb2d2e" opacity=".9"/><path d="M74.72 136.78c-.11.36-.22.71-.34 1.06a31.88 31.88 0 0 1-2.24 5.16 24.28 24.28 0 0 1-2.88 4.16l-.26.28 41.4-15.16c.25-1.8.44-3.64.57-5.5.08-1.11.12-2.22.15-3.32zM53.59 157.37a27 27 0 0 1-5.15-.77 20.26 20.26 0 0 1-4.44-1.68 18.05 18.05 0 0 1-2.44-1.56l-31.5 12.07.3.44a44 44 0 0 0 5.28 6z" fill="#f19432" opacity=".9"/><path d="M69.16 148.27a19.47 19.47 0 0 1-2.69 3.32 17.84 17.84 0 0 1-3.58 2.7 20.13 20.13 0 0 1-4.34 1.84 27.09 27.09 0 0 1-5.27 1l-35.49 19.68c.86.61 1.74 1.21 2.64 1.75a45.82 45.82 0 0 0 10.34 4.61 53 53 0 0 0 6 1.45l68.42-38c.24-.84.47-1.69.67-2.54a65.8 65.8 0 0 0 1.66-11c.13-2 .17-4.08.13-6.18z" fill="#fde92b" opacity=".9"/><path d="M41.52 185.78a73.89 73.89 0 0 0 9 .25l49-26.61c.73-1.33 1.41-2.67 2-4a60.93 60.93 0 0 0 2.9-7.78L35.71 185c1.88.32 3.82.6 5.81.78z" fill="#91be4a" opacity=".9"/><path d="M54.06 185.63a77.83 77.83 0 0 0 13.2-1.76A56.53 56.53 0 0 0 78.69 180a45.84 45.84 0 0 0 9.6-6 43.79 43.79 0 0 0 7.71-8.11 63 63 0 0 0 3.53-5.43l-49.77 25.27c1.41 0 2.84-.03 4.3-.1z" fill="#009e54" opacity=".9"/></svg>