<svg xmlns="http://www.w3.org/2000/svg" width="104.34" height="200" viewBox="0 0 104.34 200"><title>_</title><path d="M62.25 24.94c-4.89.32-10.7 3.71-13.8 7.85l15.07-7.93z" fill="#00a8de" opacity=".9"/><path d="M63.27 24.76l-14.83 8.37a13.62 13.62 0 0 0-1 1.59l-.8 1.54 21.17-11.93z" fill="#0070b4" opacity=".9"/><path fill="#333391" opacity=".9" d="M73.02 25.58l-4.56-.08L46.11 35l-3.75 5.62 35.22-14.96-4.56-.08z"/><path d="M42 39.14l-2.1 2.67 42.8-14.46c-.29 0-.59-.09-.91-.12l-3.55-.33z" fill="#932b8d" opacity=".9"/><path d="M37.09 49.6L86 27.48c-.38-1.23-1.78-2.05-4.12-2.21L40.7 43.89z" fill="#e91388" opacity=".9"/><path d="M35.5 50.13a10.43 10.43 0 0 0-.65 1.07L86.2 30.78a3.07 3.07 0 0 0 .32-2.12L36.65 48.48z" fill="#ea245f" opacity=".9"/><path d="M36.1 58.74l42.83-23.86 3.89-4.58a8.72 8.72 0 0 0 1.68-2.77L36.23 54.42a5.59 5.59 0 0 0-.13 4.32z" fill="#eb2d2e" opacity=".9"/><path d="M35.69 57.77l40.23-17.2 3.83-3.65-45.08 19.27a3.82 3.82 0 0 0 1.02 1.58z" fill="#f19432" opacity=".9"/><path d="M41.16 60.5l1.16-.07 25.8-13.48 7.06-7.88L36.4 59.33a6.82 6.82 0 0 0 4.76 1.17z" fill="#fde92b" opacity=".9"/><path fill="#91be4a" opacity=".9" d="M45.79 58.83h.01l18.86-6.63 4.06-3.39-27.47 9.66 4.54.36z"/><path d="M63.15 52l1.05-1.2-17.64 9.39C52 59.8 59.51 56.11 63.15 52z" fill="#009e54" opacity=".9"/><path d="M52.13 67.11a76.8 76.8 0 0 0-13.32.45A55.93 55.93 0 0 0 27 70.31a45.6 45.6 0 0 0-10.16 5.1 44 44 0 0 0-8.44 7.43 85.958 85.958 0 0 0-3.77 4.78l51.92-20.17a78.37 78.37 0 0 0-4.42-.34z" fill="#00a8de" opacity=".9"/><path d="M65.69 68.77a72.8 72.8 0 0 0-8.79-1.43l-52 20C3.92 88.62 3 90 2.13 91.37a62.08 62.08 0 0 0-3.74 7l73-28a64.13 64.13 0 0 0-5.7-1.6z" fill="#0070b4" opacity=".9"/><path d="M35.68 102.62a19.46 19.46 0 0 1 2.72-3.36 18 18 0 0 1 3.6-2.71 20.35 20.35 0 0 1 4.34-1.86 26.91 26.91 0 0 1 5.18-1l35.58-20c-.84-.6-1.69-1.17-2.56-1.7a45.64 45.64 0 0 0-10.38-4.63 52.4 52.4 0 0 0-6-1.44L0 104.28c-.27 1-.53 1.91-.75 2.87a65.43 65.43 0 0 0-1.6 11c-.12 2-.15 4-.11 6z" fill="#333391" opacity=".9"/><path d="M51.52 94.7a26.89 26.89 0 0 1 5.26.47 20.24 20.24 0 0 1 4.49 1.42 17.93 17.93 0 0 1 2.5 1.4L94.68 84.1l-.21-.28a44.34 44.34 0 0 0-5.7-5.87zM29.93 113.32c.1-.39.2-.78.31-1.16a31.46 31.46 0 0 1 2-5.24 23.91 23.91 0 0 1 2.69-4.27l.22-.26-40.33 17c-.17 1.83-.27 3.68-.31 5.55v3.3z" fill="#932b8d" opacity=".9"/><path d="M63.76 98.47c.46.29.9.59 1.33.92a19.48 19.48 0 0 1 3.3 3.26 24.12 24.12 0 0 1 2.7 4.26 31.46 31.46 0 0 1 1.91 4.94l30-14.32c-.78-1.67-1.64-3.31-2.57-4.9a64.52 64.52 0 0 0-6.15-8.75zM28.75 131.82a72.7 72.7 0 0 1 0-5.72 63 63 0 0 1 .72-7.22 45.52 45.52 0 0 1 1.11-5l-35.78 14a74.51 74.51 0 0 0 .42 8.4 66.74 66.74 0 0 0 1.4 8.15z" fill="#e91388" opacity=".9"/><path d="M72.84 112.47l.1.28a44.15 44.15 0 0 1 1.5 6.19c.09.53.17 1.07.25 1.62l30.92-15.82q-.44-1.27-.93-2.5-1-2.5-2.22-4.92zM30.21 138.83l-.11-.35a44.29 44.29 0 0 1-1.33-6.24c-.07-.5-.13-1-.19-1.53l-31.14 14.81q.44 1.4.93 2.75C-1 149.9-.38 151.48.34 153z" fill="#ea245f" opacity=".9"/><path d="M74 121.21c.31 1.76.55 3.63.72 5.58a63.55 63.55 0 0 1 .24 7.26 45.78 45.78 0 0 1-.44 5.25l33.9-18.79a73.13 73.13 0 0 0-1.51-8.09 66.25 66.25 0 0 0-2.54-8zM39.2 154.09c-.43-.33-.84-.67-1.24-1a19.76 19.76 0 0 1-3-3.57 24.32 24.32 0 0 1-2.33-4.5 31.5 31.5 0 0 1-1.49-5l-31 11.52a61.05 61.05 0 0 0 2.2 5.34 62.19 62.19 0 0 0 5.26 9z" fill="#eb2d2e" opacity=".9"/><path d="M73 138c-.08.36-.16.73-.25 1.08a31.88 31.88 0 0 1-1.85 5.31 24.28 24.28 0 0 1-2.55 4.37l-.23.3 40.11-18.3c.11-1.82.16-3.66.15-5.53 0-1.11 0-2.22-.11-3.32zM51.6 156.79a27 27 0 0 1-5.17-.63A20.26 20.26 0 0 1 42 154.6a18.05 18.05 0 0 1-2.48-1.49L8.33 166l.32.43a44 44 0 0 0 5.44 5.88z" fill="#f19432" opacity=".9"/><path d="M68.66 149.43a19.47 19.47 0 0 1-3.23 2.81 17.84 17.84 0 0 1-4 2 20.13 20.13 0 0 1-4.59 1.06 27.09 27.09 0 0 1-5.36 0l-38.35 13.36c.74.75 1.51 1.49 2.3 2.18a45.82 45.82 0 0 0 9.39 6.33 53 53 0 0 0 5.7 2.48l74-25.61q.57-1.18 1.1-2.38a65.8 65.8 0 0 0 3.55-10.59c.48-2 .87-4 1.2-6.06z" fill="#fde92b" opacity=".9"/><path d="M38.4 183.6a73.89 73.89 0 0 0 9 .92l50.86-22.89c.82-1.27 1.61-2.56 2.32-3.87a60.93 60.93 0 0 0 3.47-7.54l-71.39 32.12c1.85.5 3.77.93 5.74 1.26z" fill="#91be4a" opacity=".9"/><path d="M50.93 183.2a77.83 77.83 0 0 0 13.32-.2A56.53 56.53 0 0 0 76 180.43a45.84 45.84 0 0 0 10.22-4.87 43.79 43.79 0 0 0 8.54-7.2 63 63 0 0 0 4.13-5l-52.24 19.46c1.41.18 2.83.29 4.28.38z" fill="#009e54" opacity=".9"/></svg>