<svg xmlns="http://www.w3.org/2000/svg" width="105.83" height="200" viewBox="0 0 105.83 200"><title>_</title><path d="M53.95 66a76.8 76.8 0 0 0-13.28 1.14 55.93 55.93 0 0 0-11.61 3.36 45.6 45.6 0 0 0-9.88 5.62 44 44 0 0 0-8 7.86 60.389 60.389 0 0 0-3.56 5l50.8-22.85c-1.5-.13-2.97-.13-4.47-.13z" fill="#00a8de" opacity=".9"/><path d="M68.88 70.62a72.8 72.8 0 0 0-8.69-1.95L7.1 85.5C6 86.77 5 88.08 4.09 89.41A62.08 62.08 0 0 0-.06 96.2l74.53-23.63c-1.79-.73-3.65-1.38-5.59-1.95z" fill="#0070b4" opacity=".9"/><path d="M36.66 101.39a19.46 19.46 0 0 1 3.27-2.82 18 18 0 0 1 4-2 20.35 20.35 0 0 1 4.6-1.05 26.91 26.91 0 0 1 5.27 0L92.38 82c-.72-.74-1.46-1.45-2.22-2.13a45.64 45.64 0 0 0-9.39-6.4A52.4 52.4 0 0 0 75.11 71L1.25 96.68c-.44.88-.86 1.78-1.25 2.68a65.43 65.43 0 0 0-3.53 10.51c-.47 1.91-.85 3.87-1.17 5.88z" fill="#333391" opacity=".9"/><path d="M54.23 95.67a26.89 26.89 0 0 1 5.28.23 20.24 20.24 0 0 1 4.55 1.22 17.93 17.93 0 0 1 2.56 1.29l30.24-15.28-.23-.27a44.34 44.34 0 0 0-6-5.61zM32.27 112.95c.09-.39.18-.79.28-1.17a31.46 31.46 0 0 1 1.88-5.29 23.91 23.91 0 0 1 2.57-4.33l.21-.26-39.9 18a78.66 78.66 0 0 0-.17 5.56c0 1.11 0 2.2.09 3.29z" fill="#932b8d" opacity=".9"/><path d="M66.14 98.06c.45.3.89.61 1.31.95a19.48 19.48 0 0 1 3.23 3.33 24.12 24.12 0 0 1 2.61 4.31 31.46 31.46 0 0 1 1.84 5l30.31-13.69a68.14 68.14 0 0 0-2.47-5 64.52 64.52 0 0 0-6-8.87zM31.2 131.45a62.98 62.98 0 0 1-.11-5.72 63 63 0 0 1 .56-7.24 45.52 45.52 0 0 1 1-5.07l-35.47 14.85a74.51 74.51 0 0 0 .61 8.39 66.74 66.74 0 0 0 1.59 8.11z" fill="#e91388" opacity=".9"/><path d="M75 111v.25a44.15 44.15 0 0 1 .93 6.3c0 .54.08 1.08.1 1.64l32.23-12.94q-.33-1.3-.7-2.57-.77-2.58-1.76-5.1zM32.65 139.14l-.11-.36a44.29 44.29 0 0 1-1.21-6.26c-.06-.5-.11-1-.16-1.53L-.24 145.22q.41 1.4.88 2.77c.56 1.63 1.19 3.23 1.89 4.8z" fill="#ea245f" opacity=".9"/><path d="M76.35 121.12c.3 1.76.53 3.63.69 5.58a63.55 63.55 0 0 1 .2 7.26 45.78 45.78 0 0 1-.47 5.25l34-18.62a73.13 73.13 0 0 0-1.47-8.1 66.25 66.25 0 0 0-2.5-8zM41.6 153.78c-.43-.32-.85-.66-1.25-1a19.76 19.76 0 0 1-3.07-3.52 24.32 24.32 0 0 1-2.4-4.47 31.5 31.5 0 0 1-1.57-5l-30.82 12c.68 1.81 1.44 3.58 2.29 5.3a62.19 62.19 0 0 0 5.4 9z" fill="#eb2d2e" opacity=".9"/><path d="M75.58 138.79c-.06.37-.12.74-.19 1.09a31.88 31.88 0 0 1-1.55 5.4 24.28 24.28 0 0 1-2.31 4.51l-.22.31 39-20.48c0-1.82 0-3.67-.16-5.53a72.62 72.62 0 0 0-.29-3.31zM54 157a27 27 0 0 1-5.16-.68 20.26 20.26 0 0 1-4.44-1.61 18.05 18.05 0 0 1-2.4-1.52L10.68 165.8l.32.43a44 44 0 0 0 5.38 5.94z" fill="#f19432" opacity=".9"/><path d="M70.44 148.85a19.47 19.47 0 0 1-3 3.06 17.84 17.84 0 0 1-3.81 2.36 20.13 20.13 0 0 1-4.49 1.43 27.09 27.09 0 0 1-5.34.48l-37.13 16.39c.8.69 1.62 1.36 2.47 2A45.82 45.82 0 0 0 29 180.1a53 53 0 0 0 5.88 2l71.62-31.59q.48-1.22.9-2.47a65.8 65.8 0 0 0 2.66-10.84c.32-2 .54-4 .7-6.14z" fill="#fde92b" opacity=".9"/><path d="M39.73 181.48a73.89 73.89 0 0 0 8.9 1.55L101 163.72a61.5 61.5 0 0 0 2.59-3.7 60.93 60.93 0 0 0 4-7.29l-73.44 27.1c1.76.63 3.64 1.17 5.58 1.65z" fill="#91be4a" opacity=".9"/><path d="M53.75 184.1a77.83 77.83 0 0 0 13.25-.79 56.53 56.53 0 0 0 11.69-3 45.84 45.84 0 0 0 10-5.28 43.79 43.79 0 0 0 8.31-7.56 63 63 0 0 0 3.92-5.16l-51.46 21.58c1.41.11 2.83.17 4.29.21z" fill="#009e54" opacity=".9"/><path d="M50.66 25.94c-5.48-.46-13 2.45-16.78 6.48l-1.53 1.64 22.35-7.78z" fill="#00a8de" opacity=".9"/><path d="M32.59 34.17l-4.53 5 33.56-12.3a16.41 16.41 0 0 0-3.45-.64L54.81 26z" fill="#0070b4" opacity=".9"/><path d="M20.78 52.15L68.71 28a25.32 25.32 0 0 0-8.15-3L28.63 41.1z" fill="#333391" opacity=".9"/><path d="M18.85 49.43A7.35 7.35 0 0 0 16.8 53l56.12-19.26a21.74 21.74 0 0 0-2.68-2.43L19.48 48.76z" fill="#932b8d" opacity=".9"/><path d="M23.93 60.41h.82L76 35.3l-2.56-3a15.58 15.58 0 0 0-1.88-1.84l-53.3 26.1c-.15 2.44 1.9 3.99 5.67 3.85z" fill="#e91388" opacity=".9"/><path d="M30.83 57.35l16.62-5.29.31-.29a7.1 7.1 0 0 1 7.3-2.13L79.16 42l-1.71-2.8L23.1 56.49z" fill="#ea245f" opacity=".9"/><path d="M60 52.58a13.27 13.27 0 0 0 1.36 1.36L82.23 43.4 78 38.46 55.38 49.89A7.58 7.58 0 0 1 60 52.58zM32.82 60.3c5.33-.54 11.83-4.38 14.71-8.63L32.4 60.35z" fill="#eb2d2e" opacity=".9"/><path d="M63.5 55.23l21-7.87-1.85-2.69-21.83 8.18a19 19 0 0 0 2.68 2.38z" fill="#f19432" opacity=".9"/><path d="M72 59.24l16.34-7.76-.07-.09-4.07-4.95-20.29 9.64A24.73 24.73 0 0 0 72 59.24z" fill="#fde92b" opacity=".9"/><path d="M75.07 58.94l3.21.35 11.65-3.72a8.34 8.34 0 0 0-1.17-2.95l-17.23 5.51a17.22 17.22 0 0 0 3.54.81z" fill="#91be4a" opacity=".9"/><path d="M84.63 59.55c4.19-.27 6-2.46 5.06-5.31l-10.83 5.67z" fill="#009e54" opacity=".9"/></svg>