<svg xmlns="http://www.w3.org/2000/svg" width="112" height="200" viewBox="0 0 112 200"><title>_</title><path d="M58.08 67.76a76.8 76.8 0 0 0-13.33.05 55.93 55.93 0 0 0-11.84 2.4A45.6 45.6 0 0 0 22.6 75a44 44 0 0 0-8.66 7.18c-1.4 1.5-2.72 3.06-4 4.66l52.5-18.61c-1.44-.23-2.86-.36-4.36-.47z" fill="#00a8de" opacity=".9"/><path d="M71.89 70a72.8 72.8 0 0 0-8.73-1.78L10.41 86.1c-1 1.3-2 2.62-2.93 4a62.11 62.11 0 0 0-4 6.87l74.04-25.13A60.79 60.79 0 0 0 71.89 70z" fill="#0070b4" opacity=".9"/><path d="M40 101.51a19.47 19.47 0 0 1 3.22-2.88 18 18 0 0 1 4-2.1 20.35 20.35 0 0 1 4.59-1.13 26.91 26.91 0 0 1 5.27-.13l38.34-14c-.72-.77-1.42-1.47-2.24-2.14a45.64 45.64 0 0 0-9.5-6.24A52.39 52.39 0 0 0 78 70.5L4.56 97.39c-.42.89-.83 1.8-1.21 2.71A65.43 65.43 0 0 0 0 110.67a73.26 73.26 0 0 0-1.07 5.9z" fill="#333391" opacity=".9"/><path d="M35.2 111.39c0-.4.1-.8.16-1.19a31.46 31.46 0 0 1 1.32-5.45 23.91 23.91 0 0 1 2.12-4.58l.2-.29L1.17 122q.1 2.75.41 5.55c.12 1.1.27 2.19.43 3.27zM57.24 94.93a26.89 26.89 0 0 1 5.27.41A20.24 20.24 0 0 1 67 96.72a17.94 17.94 0 0 1 2.52 1.37l30.73-14.23-.22-.28a44.34 44.34 0 0 0-5.76-5.81z" fill="#932b8d" opacity=".9"/><path d="M69.41 98.68c.46.28.91.58 1.34.9a19.48 19.48 0 0 1 3.33 3.23 24.12 24.12 0 0 1 2.75 4.19 31.47 31.47 0 0 1 2 4.93l29.86-14.64a63.27 63.27 0 0 0-2.62-4.87 64.52 64.52 0 0 0-6.25-8.68zM34.62 129.46c-.34-1.79-.61-3.69-.8-5.66a63 63 0 0 1-.32-7.25 45.49 45.49 0 0 1 .38-5.15l-33.41 19a74.51 74.51 0 0 0 1.62 8.25 66.74 66.74 0 0 0 2.55 7.86z" fill="#e91388" opacity=".9"/><path d="M78.33 111.66l.08.28a44.15 44.15 0 0 1 1.19 6.25c.06.53.12 1.08.17 1.63l31.66-14.28q-.38-1.29-.81-2.54-.87-2.55-2-5zM35.63 137.8l-.13-.35a44.31 44.31 0 0 1-1.72-6.14c-.1-.49-.2-1-.29-1.52L3.35 146.55q.52 1.37 1.1 2.69a60.1 60.1 0 0 0 2.27 4.63z" fill="#ea245f" opacity=".9"/><path d="M79.8 119.16c.09 1.79.1 3.67 0 5.62a63.55 63.55 0 0 1-.65 7.23 45.81 45.81 0 0 1-1.08 5.16l35.93-14.5a73.12 73.12 0 0 0-.51-8.22 66.25 66.25 0 0 0-1.54-8.29zM44.82 151.42c-.47-.27-.93-.55-1.37-.86a19.76 19.76 0 0 1-3.45-3.12 24.32 24.32 0 0 1-2.92-4.15 31.5 31.5 0 0 1-2.16-4.79L5.75 154.13c.9 1.71 1.86 3.38 2.91 5a62.2 62.2 0 0 0 6.43 8.24z" fill="#eb2d2e" opacity=".9"/><path d="M78.7 138.08c-.08.36-.16.73-.24 1.08a31.85 31.85 0 0 1-1.8 5.32 24.29 24.29 0 0 1-2.52 4.39l-.23.3 40-18.63c.09-1.82.13-3.66.1-5.53 0-1.11-.07-2.22-.13-3.32zM57.31 157a27 27 0 0 1-5.16-.69 20.26 20.26 0 0 1-4.44-1.62 18 18 0 0 1-2.46-1.52l-31.32 12.58.31.43a44 44 0 0 0 5.37 5.95z" fill="#f19432" opacity=".9"/><path d="M74.09 149.21a19.5 19.5 0 0 1-3.14 2.9 17.89 17.89 0 0 1-3.95 2.17 20.13 20.13 0 0 1-4.56 1.2 27.09 27.09 0 0 1-5.35.2l-37.93 14.43c.77.73 1.55 1.44 2.36 2.11a45.82 45.82 0 0 0 9.58 6 53 53 0 0 0 5.77 2.3L110 152.73q.54-1.2 1-2.42a65.8 65.8 0 0 0 3.22-10.69c.42-2 .75-4 1-6.09z" fill="#fde92b" opacity=".9"/><path d="M43.14 181.82a73.89 73.89 0 0 0 8.92 1.45l52.12-19.88c.9-1.22 1.75-2.46 2.55-3.73a61 61 0 0 0 3.9-7.33l-73.14 27.89c1.82.61 3.71 1.15 5.65 1.6z" fill="#91be4a" opacity=".9"/><path d="M56.73 183.52a77.83 77.83 0 0 0 13.27-.44 56.53 56.53 0 0 0 11.76-2.7 45.84 45.84 0 0 0 10.15-5 43.79 43.79 0 0 0 8.44-7.32 63 63 0 0 0 4.05-5.05l-52 20.2c1.45.12 2.87.24 4.33.31z" fill="#009e54" opacity=".9"/><path d="M38.22 29.11a23.6 23.6 0 0 0-5.54 2.14A21.89 21.89 0 0 0 28 34.71a23.72 23.72 0 0 0-2.79 3.24l19.89-9.69a29.28 29.28 0 0 0-6.88.85z" fill="#00a8de" opacity=".9"/><path d="M49.8 28c-.48-.07-1-.12-1.43-.16s-1-.06-1.45-.08-1 0-1.45 0l-.85.06L25.3 38.63c-.31.49-.61 1-.89 1.5A27.35 27.35 0 0 0 23.09 43L50 28z" fill="#0070b4" opacity=".9"/><path d="M54.9 31.38l-.35-.14-1.09-.43-1.18-.42-1.12-.39L22.3 40.73l-.25.41a40.56 40.56 0 0 0-1.81 3.64c-.42.95-.82 2-1.22 3.07l39.73-14.72z" fill="#333391" opacity=".9"/><path d="M58.61 30.6l-1.33-.36L20.36 51c-.08.4-.16.79-.24 1.21l-.28 1.56-.1.76 41.35-23.27z" fill="#932b8d" opacity=".9"/><path d="M66.74 34.78c-1-.33-2.91-1-4.81-1.67L18.74 52.74c-.36 1.66-.74 3.42-.89 4.14-.09.45 1 .84 2.73 1.1l49-22.28zM87.8 27.52c-4.92.17-9 .74-9.15 1.26s-.32 1.39-.45 1.93l-.15.46c-.15.47-.31.91-.49 1.33l-.07.14L88 27.52h-.2z" fill="#e91388" opacity=".9"/><path d="M36.59 53.66l.16-.32a9.06 9.06 0 0 1 .72-1.14 7.56 7.56 0 0 1 .78-.9 5.27 5.27 0 0 1 1.83-1.11 6.36 6.36 0 0 1 1.14-.29 10.52 10.52 0 0 1 2.06-.09h.67l.68.07h.27L94 28.1a40 40 0 0 0-5.89-.4l-10.7 4.75c-.18.36-.36.72-.56 1.05a12.33 12.33 0 0 1-.74 1.08 2.86 2.86 0 0 1-.6.58 3.94 3.94 0 0 1-.91.47 6.59 6.59 0 0 1-1.32.33 11.16 11.16 0 0 1-2.38.11l-.55-.07-.49-.09h-.15l-49.22 21.9a38.94 38.94 0 0 0 5.83.39h.1z" fill="#ea245f" opacity=".9"/><path d="M46.25 52.1l.67.07.69.1.72.14.25.05 4.59 1.14.95.23 41-22.56c.19-1.74.37-3.54.43-4.24 0-.42-1-.71-2.68-.83L45.82 52.08zM35.35 57.44c.16-.52.44-1.43.64-2l.21-.48c.15-.36.33-.69.5-1l-10.39 4c4.83.21 8.88.04 9.04-.52z" fill="#eb2d2e" opacity=".9"/><path d="M57.62 54.85l36.76-19.41c.08-.34.17-.68.24-1l.38-1.7.1-.8-41.43 21.87z" fill="#f19432" opacity=".9"/><path d="M57.62 55l.53.13 1.6.36 1.63.34 1.62.33q1.47.29 2.76.48h.29l25.61-13.53a39.37 39.37 0 0 0 1.46-3.74c.41-1.24.75-2.54 1-3.85L57.45 55z" fill="#fde92b" opacity=".9"/><path d="M67.29 56c.75.16 1.48.29 2.15.39l.72.09 19.15-7.68a35.19 35.19 0 0 0 2.36-3.36c.14-.23.27-.49.41-.73L65.17 55.46c.75.2 1.46.37 2.12.54z" fill="#91be4a" opacity=".9"/><path d="M71.27 56.09a27.24 27.24 0 0 0 5.23 0A21.16 21.16 0 0 0 81.29 55a18.79 18.79 0 0 0 4.26-2.14 19.7 19.7 0 0 0 3.63-3.17c.14-.15.26-.32.4-.47l-19.5 6.72c.42.06.82.12 1.19.15z" fill="#009e54" opacity=".9"/></svg>