<svg xmlns="http://www.w3.org/2000/svg" width="103.9" height="200" viewBox="0 0 103.9 200"><title>_</title><path d="M53.84 68.49a76.8 76.8 0 0 0-13.32-.39 55.85 55.85 0 0 0-11.92 2 45.52 45.52 0 0 0-10.46 4.45 43.91 43.91 0 0 0-8.89 6.88A57.47 57.47 0 0 0 5.14 86l53.09-16.89c-1.44-.24-2.89-.45-4.39-.62z" fill="#00a8de" opacity=".9"/><path d="M65.17 65.74a72.76 72.76 0 0 0-8.89-.54L6.55 90.3c-.84 1.43-1.63 2.87-2.34 4.34a62.32 62.32 0 0 0-3 7.36L71 66.78c-1.88-.44-3.83-.78-5.83-1.04z" fill="#0070b4" opacity=".9"/><path d="M35.46 101.49a19.45 19.45 0 0 1 3.23-2.86 18 18 0 0 1 4-2.09 20.32 20.32 0 0 1 4.59-1.11 27 27 0 0 1 5.27-.12l38.38-13.92c-.73-.73-1.48-1.43-2.25-2.1A45.6 45.6 0 0 0 79.2 73a52.47 52.47 0 0 0-5.69-2.41L0 97.24c-.43.89-.83 1.79-1.22 2.7a65.57 65.57 0 0 0-3.39 10.56c-.44 1.91-.8 3.89-1.09 5.89z" fill="#333391" opacity=".9"/><path d="M31.11 114c.12-.39.24-.77.36-1.15a31.28 31.28 0 0 1 2.24-5.14 24 24 0 0 1 2.88-4.15l.23-.25-41.06 15.2a76.66 76.66 0 0 0-.7 8.82zM53.46 97a26.88 26.88 0 0 1 5.28-.1 20.22 20.22 0 0 1 4.62.93 17.83 17.83 0 0 1 2.64 1.1L95.23 81.8l-.23-.25a44.3 44.3 0 0 0-6.3-5.23z" fill="#932b8d" opacity=".9"/><path d="M64.86 97.3c.44.32.86.64 1.27 1a19.53 19.53 0 0 1 3.1 3.45 24 24 0 0 1 2.44 4.41 31.35 31.35 0 0 1 1.64 5.05l30.82-12.5c-.68-1.72-1.44-3.4-2.27-5a64.58 64.58 0 0 0-5.62-9.1zM30 130.46a66.8 66.8 0 0 1-.46-5.7 62.83 62.83 0 0 1 .12-7.26 45.08 45.08 0 0 1 .69-5.12l-34.47 16.95A74.78 74.78 0 0 0-3 137.67a66.79 66.79 0 0 0 2.07 8z" fill="#e91388" opacity=".9"/><path d="M73.83 111.95l.09.28a44.31 44.31 0 0 1 1.3 6.23c.07.53.14 1.08.2 1.63l31.41-14.83q-.4-1.28-.86-2.53-.92-2.53-2.06-5zM31.54 140.62c0-.12-.05-.24-.07-.36a43.83 43.83 0 0 1-.64-6.34v-1.54l-32.59 11.36q.28 1.44.63 2.84c.41 1.67.9 3.32 1.45 4.95z" fill="#ea245f" opacity=".9"/><path d="M75.08 120.74c.26 1.77.45 3.65.56 5.59a63.64 63.64 0 0 1 0 7.26 45.54 45.54 0 0 1-.59 5.24L109.51 121a73 73 0 0 0-1.28-8.13 66.32 66.32 0 0 0-2.31-8.1zM40.32 153.55c-.44-.32-.86-.65-1.27-1a19.71 19.71 0 0 1-3.11-3.48 24.25 24.25 0 0 1-2.46-4.44 31.31 31.31 0 0 1-1.63-5L1.18 152c.7 1.8 1.49 3.56 2.35 5.28A62.46 62.46 0 0 0 9 166.17z" fill="#eb2d2e" opacity=".9"/><path d="M73.94 136.23c-.12.35-.24.71-.37 1a31.81 31.81 0 0 1-2.43 5.07 24.33 24.33 0 0 1-3 4.06l-.27.27L109.76 133c.31-1.8.57-3.62.77-5.48.11-1.11.2-2.21.27-3.31zM52 154.62a27.16 27.16 0 0 1-5.22-.1 20.22 20.22 0 0 1-4.59-1.1 18.16 18.16 0 0 1-2.62-1.23l-29.7 16 .36.4a44.05 44.05 0 0 0 6 5.3z" fill="#f19432" opacity=".9"/><path d="M68.7 148.48a19.43 19.43 0 0 1-2.81 3.23 17.87 17.87 0 0 1-3.67 2.58 20.11 20.11 0 0 1-4.4 1.68 27.14 27.14 0 0 1-5.28.77l-36.16 18.5c.84.64 1.7 1.27 2.58 1.84a45.69 45.69 0 0 0 10.18 5 53.07 53.07 0 0 0 6 1.66l69.69-35.64q.41-1.25.76-2.51a65.56 65.56 0 0 0 2-11c.2-2 .31-4.07.34-6.17z" fill="#fde92b" opacity=".9"/><path d="M40.84 185.89a74 74 0 0 0 9 .22l48.96-26.79c.72-1.33 1.4-2.68 2-4a61 61 0 0 0 2.87-7.79L35 185.08c1.92.35 3.86.63 5.84.81z" fill="#91be4a" opacity=".9"/><path d="M52.15 183.45a77.8 77.8 0 0 0 13.31-.4 56.56 56.56 0 0 0 11.77-2.66 45.86 45.86 0 0 0 10.16-5 43.79 43.79 0 0 0 8.46-7.29 63.37 63.37 0 0 0 4.07-5l-52.05 20c1.4.16 2.82.28 4.28.35z" fill="#009e54" opacity=".9"/><path d="M67 29.6a10 10 0 0 0-8.89 5.16l12-5.11z" fill="#00a8de" opacity=".9"/><path d="M70.25 29.79l-12.18 4.58a9.91 9.91 0 0 0-1.15 2.69l18.53-7z" fill="#0070b4" opacity=".9"/><path d="M77.92 30.2l-2.21-.2L57 36.59a9.93 9.93 0 0 0-.35 1.93v.45l-.19 2.31L82.84 32a9.9 9.9 0 0 0-4.92-1.8z" fill="#333391" opacity=".9"/><path d="M82.69 31.32L56.81 41.89l-.08 2.31 27.83-11.36a10.09 10.09 0 0 0-1.87-1.52z" fill="#932b8d" opacity=".9"/><path d="M84.58 32.69L56.86 44.3l-.05 2.31v.75a9.91 9.91 0 0 0 .09 1.5l30-12.54a10.05 10.05 0 0 0-2.32-3.63z" fill="#e91388" opacity=".9"/><path d="M87.47 37.55L56.57 47.6a9.88 9.88 0 0 0 .33 2.11l30.9-10.05a9.88 9.88 0 0 0-.33-2.11z" fill="#ea245f" opacity=".9"/><path d="M87.61 40.76v-.75a9.92 9.92 0 0 0-.08-1.51L57.48 50.82a10.05 10.05 0 0 0 2.25 3.65l27.81-11.4z" fill="#eb2d2e" opacity=".9"/><path d="M86.94 41.71L60.37 55.76a10.09 10.09 0 0 0 2 1.33L87.09 44z" fill="#f19432" opacity=".9"/><path d="M87.18 44.46L62.09 56.79a9.9 9.9 0 0 0 5.1 1.2l2.21-.08 17.76-8.73a9.93 9.93 0 0 0 .12-2v-.45z" fill="#fde92b" opacity=".9"/><path d="M74.61 57.93l11.54-6A9.92 9.92 0 0 0 87 49.1l-17.58 9.16z" fill="#91be4a" opacity=".9"/><path d="M77.41 57.68a10 10 0 0 0 8.85-5.23l-11.93 5.21z" fill="#009e54" opacity=".9"/><path d="M28.13 29.86a10 10 0 0 0-9.3 4.39l12.37-4.08z" fill="#00a8de" opacity=".9"/><path d="M30.73 29.35L19.15 35.3a9.91 9.91 0 0 0-.84 2.81l17.61-9z" fill="#0070b4" opacity=".9"/><path d="M39 30.4l-2.2-.23L18 36.29a9.93 9.93 0 0 0-.4 1.92v.45L17.28 41l26.59-8.65A9.9 9.9 0 0 0 39 30.4z" fill="#333391" opacity=".9"/><path d="M43.45 31L17.86 42.26v2.31l27.5-12.1A10.09 10.09 0 0 0 43.45 31z" fill="#932b8d" opacity=".9"/><path d="M46 33.45l-28.36 10-.19 2.31-.06.75a9.91 9.91 0 0 0 0 1.51L48 37.21a10.05 10.05 0 0 0-2-3.76z" fill="#e91388" opacity=".9"/><path d="M47.47 35.58l-29.3 14.05a9.88 9.88 0 0 0 .61 2.05l29.3-14.05a9.88 9.88 0 0 0-.61-2.05z" fill="#ea245f" opacity=".9"/><path d="M48.07 39.63v-.75a9.92 9.92 0 0 0-.2-1.49L18.79 52a10.05 10.05 0 0 0 2.52 3.46l26.86-13.52z" fill="#eb2d2e" opacity=".9"/><path d="M48.35 42.6L20.92 54.88a10.09 10.09 0 0 0 1.92 1.46l25.52-11.43V42.6z" fill="#f19432" opacity=".9"/><path d="M47.93 48.37a9.93 9.93 0 0 0 0-2v-.45l-.24-2.3L23.41 57.6a9.9 9.9 0 0 0 5.17.87l2.2-.23z" fill="#fde92b" opacity=".9"/><path d="M35.73 58.09L47 51.56a9.92 9.92 0 0 0 .69-2.84l-17.12 9.92z" fill="#91be4a" opacity=".9"/><path d="M38.13 57.42A10 10 0 0 0 47.41 53l-12.35 4.12z" fill="#009e54" opacity=".9"/></svg>