<svg xmlns="http://www.w3.org/2000/svg" width="133.49" height="200" viewBox="0 0 133.49 200"><title>_</title><path d="M66.47 65.95a63.4 63.4 0 0 0-11.78 1.14 51.63 51.63 0 0 0-10.62 3.28 47.52 47.52 0 0 0-9.39 5.43 50.71 50.71 0 0 0-8.08 7.54 59.25 59.25 0 0 0-4.35 5.72l50.66-23c-2.04-.06-4.2-.13-6.44-.11z" fill="#00a8de" opacity=".9"/><path d="M83.3 64.69c-1.74-.22-3.61-.37-5.58-.44s-4-.06-6.15 0h-.32l-48.4 27.49c-.64 1.16-1.25 2.33-1.79 3.53a57.91 57.91 0 0 0-3.11 8.47L86 65.12c-.86-.12-1.77-.31-2.7-.43z" fill="#0070b4" opacity=".9"/><path d="M110.69 68.59c-3.6 4.07-7.19 6.95-8 6.41l-.69-.46c-1.36-.88-2.77-1.69-4.18-2.44s-2.88-1.42-4.34-2-3-1.15-4.5-1.62c-.72-.22-1.48-.43-2.25-.62L16.42 102.2c-.23.66-.46 1.32-.67 2a64.21 64.21 0 0 0-2.39 11.2c-.25 2.07-.41 4.2-.49 6.38l39.68-19.39a20.66 20.66 0 0 1 2.72-3 18.31 18.31 0 0 1 3.73-2.5 19.47 19.47 0 0 1 4.29-1.6 24.6 24.6 0 0 1 5-.67h.2l55.43-27.08a5.32 5.32 0 0 0-1.26-1.54c-2.98-2.65-8.37-1.47-11.97 2.59z" fill="#333391" opacity=".9"/><path d="M47 114.25c.12-.36.25-.72.38-1.07a30.94 30.94 0 0 1 2.37-5 25.27 25.27 0 0 1 3-4.1l.5-.51L11.57 118c-.29 1.86-.53 3.76-.7 5.7-.09 1-.14 2-.19 3.09zM69.58 97.35c.54 0 1.09-.09 1.64-.1s1.25 0 1.88 0 1.27.08 1.92.16 1.33.18 2 .29a25.62 25.62 0 0 1 3 .76 19.46 19.46 0 0 1 2.25.88l39.93-22.66c2.19-3.39 2.55-7.27 1-9.8z" fill="#932b8d" opacity=".9"/><path d="M80.52 98.64l.34.16a15.63 15.63 0 0 1 2.14 1.35h.06c.07.05-2.72 3.58-6.2 7.84l-15.69 19.29 58.72-31.64a53.514 53.514 0 0 0-4.34-6.94l-.65-.89c-.77-1 1.46-5.23 4.94-9.49l.38-.46c.27-.32.51-.66.74-1zM45.72 132.06v-1.58-2.3c0-.77.06-1.53.11-2.3a56.5 56.5 0 0 1 .86-6.85 42 42 0 0 1 1.23-4.85l-36.1 13.26v1.57c0 1.56 0 3.21.14 4.88s.24 3.35.43 5.1.41 3.33.68 5.07z" fill="#e91388" opacity=".9"/><path d="M59.38 124.55L53.7 130c-4 3.81-7.32 6.4-7.46 5.76l-.1-.62c-.11-.68-.2-1.41-.27-2.16s-.14-1.54-.18-2.31v-.74l-32.44 12.73v.24a52.2 52.2 0 0 0 1.3 5.48c.21.7.44 1.4.68 2.1l64.29-25.24 3.8-3.67c4-3.82 7.23-6.69 7.28-6.37v.28q.17 1.17.29 2.13c.08.63.14 1.19.19 1.69s.07.87.1 1.34l32.5-12.76-.08-.4c-.38-1.7-.84-3.39-1.38-5-.25-.76-.52-1.52-.81-2.27z" fill="#ea245f" opacity=".9"/><path d="M90.9 121.31v.19c.11.55.21 1.13.31 1.75s.19 1.3.28 2 .17 1.46.25 2.25a56.74 56.74 0 0 1 .29 6.6 44.59 44.59 0 0 1-.41 5.23l33.69-19.25c-.1-.7-.2-1.4-.32-2.1-.27-1.59-.6-3.2-1-4.79s-.82-3.19-1.32-4.79c-.45-1.45-1-2.93-1.51-4.41zM56 153.27c-.5-.48-1-1-1.55-1.57s3.29-3.07 7.39-6.74l19.53-17.45-65.26 22.68c.33 1.1.67 2.19 1.07 3.27a55.3 55.3 0 0 0 2.24 5.24l.58 1.08c.61 1.11-1.85 4.6-5.57 8z" fill="#eb2d2e" opacity=".9"/><path d="M68.27 159.12l-1.13-.19a25.08 25.08 0 0 1-2.66-.66 19.18 19.18 0 0 1-2.3-.87 15 15 0 0 1-2-1.07 13.38 13.38 0 0 1-1.14-.86c-.43-.36-.89-.78-1.36-1.24l-41.76 14-.82.71-.27.23c-3.2 2.7-4.63 6.36-3.91 9.2zM89.87 137c-.07.25-.13.51-.2.75a35.46 35.46 0 0 1-2 5.17 30.35 30.35 0 0 1-2.7 4.5l-.15.2 40.64-16.05c.23-2 .39-4 .48-6.12 0-.9.05-1.8.06-2.71z" fill="#f19432" opacity=".9"/><path d="M84.55 147.19a19.6 19.6 0 0 1-2.65 3.65 16.59 16.59 0 0 1-3.44 2.82 17.93 17.93 0 0 1-4.19 1.87 23.64 23.64 0 0 1-5.05.93c-.65.05-1.28.08-1.9.09L14.2 185.44a5.15 5.15 0 0 0 1.72 2.12c3.23 2.3 8.61.82 11.94-3.3s6.55-7.18 7.14-6.82l.52.31c1.15.67 2.29 1.3 3.38 1.86s2.21 1.08 3.28 1.54 2.14.87 3.17 1.22a52.34 52.34 0 0 0 5.33 1.47L120.35 146c.14-.46.28-.92.41-1.38a65.27 65.27 0 0 0 2-11.7c.17-2.13.23-4.33.22-6.57z" fill="#fde92b" opacity=".9"/><path d="M50.15 185a57.17 57.17 0 0 0 5.9 1c2 .23 4.1.35 6.2.38h1.94l50.53-27.1q.72-1.25 1.37-2.54a56.74 56.74 0 0 0 3.66-9.25L49.87 185z" fill="#91be4a" opacity=".9"/><path d="M67.33 184.8a74.75 74.75 0 0 0 12.72-1 58.16 58.16 0 0 0 11.4-3.07 49.56 49.56 0 0 0 18.55-12.5 56 56 0 0 0 5.27-6.58l-52.54 23c1.55.07 3.06.14 4.6.15z" fill="#009e54" opacity=".9"/></svg>