<svg xmlns="http://www.w3.org/2000/svg" width="124.49" height="200" viewBox="0 0 124.49 200"><title>_</title><path d="M33.73 25.92c-4.35-.23-6.17 1.66-4.89 4.48l10.88-4.16z" fill="#00a8de" opacity=".9"/><path d="M28.91 30a9.31 9.31 0 0 0 1.59 2.41l.34.39 17.09-6.17-8.06-.63z" fill="#0070b4" opacity=".9"/><path d="M35.68 37.58l24.17-8.63a18.06 18.06 0 0 0-7.38-2.48l-4.32-.33L31 32.25z" fill="#333391" opacity=".9"/><path d="M38.6 40.72L63.05 30a22.78 22.78 0 0 0-3.45-2.1L36.1 38.23z" fill="#932b8d" opacity=".9"/><path d="M43.72 45.81l24.07-11-.4-.61A17 17 0 0 0 63 29.83L38.66 40.89z" fill="#e91388" opacity=".9"/><path fill="#ea245f" opacity=".9" d="M46.52 48.73l22.89-11.6-1.94-2.71-23.59 11.96 2.64 2.35z"/><path d="M50.6 52.47l.05.05 22.67-8.16-3.17-5.85L46 47.21z" fill="#eb2d2e" opacity=".9"/><path d="M54 55.22l21.09-8.72-1.72-2.85-22.27 9.19a19.5 19.5 0 0 0 2.9 2.38z" fill="#f19432" opacity=".9"/><path d="M62.71 59.5l15.75-8.89-4.08-5.2-19.94 11.21a31 31 0 0 0 8.27 2.88z" fill="#fde92b" opacity=".9"/><path d="M68 60.18l11.86-5.52a8.34 8.34 0 0 0-1.3-3l-16.4 7.63a22.81 22.81 0 0 0 5.84.89z" fill="#91be4a" opacity=".9"/><path d="M68.17 59.94l5.71.21c4.21.15 6.47-2 6.06-5.12L67.8 59.91z" fill="#009e54" opacity=".9"/><path d="M35.42 68.79l-13.48 1a10 10 0 0 0-9.21 10.74L13 84l26.89-14.51a9.89 9.89 0 0 0-4.47-.7z" fill="#00a8de" opacity=".9"/><path d="M41 71.26L12.41 81.91l-.63 9.94L46 79.11a10 10 0 0 0-5-7.85z" fill="#0070b4" opacity=".9"/><path d="M103.91 70.39l-13.17-1.2a10 10 0 0 0-10.87 9l-.29 3.19 28.48-9.68a9.89 9.89 0 0 0-4.15-1.31zM46.3 79.86a9.93 9.93 0 0 0-.09-1.45l-33.7 14.15-.21 10-.21 10 33.83-14.2z" fill="#333391" opacity=".9"/><path d="M107 69.88L80.21 83.61l.55 9.94L113 77a10 10 0 0 0-6-7.12zM44.47 96.12l-31.64 18.57 1.12 9.9 31.63-18.58-1.11-9.89z" fill="#932b8d" opacity=".9"/><path d="M79.94 94.51l2.19 19.79 31.39-18.36-1.1-9.9-.92-8.28a9.91 9.91 0 0 0-.31-1.54zM46 125.43l-.8-18.27-32.84 16.36.15 3.36c.24 5.49.6 12.7.8 16l.05.46 32.71-16.3z" fill="#e91388" opacity=".9"/><path d="M80.35 120.28c0 .87 0 1.75.06 2.62l32.88-15.54-.22-10-32.89 15.59zM45.93 127.73l-33.34 15 .17 2.27c.19 2.57.48 5 .84 7.25L46 137.68c0-2.12-.06-5.99-.07-9.95z" fill="#ea245f" opacity=".9"/><path d="M79.66 132.22l-.19 1.47c-.19 1.43-.43 2.82-.72 4.12a33.45 33.45 0 0 1-1 3.55c-.1.28-.21.55-.31.82l35.75-13.53.57-9.94.57-9.94-34 12.88c-.33 4.63-.56 9.08-.67 10.57zM52.38 152.4a10.2 10.2 0 0 1-2.75-1.84 11.43 11.43 0 0 1-2.12-2.77 14.61 14.61 0 0 1-.95-2.13 25.22 25.22 0 0 1-.8-2.8c-.24-1.05-.45-2.21-.62-3.44l-.14-1.27c0-.28-.06-.71-.1-1.26l-31.38 16.68.1.44a55.88 55.88 0 0 0 2 6.53 36.48 36.48 0 0 0 2.49 5.46 33.39 33.39 0 0 0 2.89 4.21l32.63-17.35a11.61 11.61 0 0 1-1.25-.46z" fill="#eb2d2e" opacity=".9"/><path d="M78.24 146.53a18.44 18.44 0 0 1-3.24 4.14 15 15 0 0 1-4 2.7 17.12 17.12 0 0 1-4.9 1.39 25.49 25.49 0 0 1-6 0 21.45 21.45 0 0 1-4.48-.91 14.12 14.12 0 0 1-2.25-1l-35.06 11.6a30.09 30.09 0 0 0 2.55 3.93 29.19 29.19 0 0 0 3.39 3.69l90.32-29.65 1-9.9-36.32 11.93a22.85 22.85 0 0 1-1.01 2.08z" fill="#f19432" opacity=".9"/><path d="M31.3 180.63a36.45 36.45 0 0 0 9.71 3 54 54 0 0 0 11.39.57c1.41-.07 2.8-.18 4.12-.34l.48-.07 23.48-11.84c.34-.33.68-.67 1-1l.11-.12a.79.79 0 0 1 .13.52l31.44-15.86-.48-9.94-.48-9.94-84.88 42.74a30.32 30.32 0 0 0 3.98 2.28z" fill="#fde92b" opacity=".9"/><path d="M81.15 175.67c0 1.61 1.53 3.07 3.94 4l28.28-11.88.21-10-32.46 13.71c.05.77.07 2.33.03 4.17zM59 182.11c1.27-.1 2.52-.26 3.69-.46a35.58 35.58 0 0 0 3.48-.77 30 30 0 0 0 3.45-1.19 37.32 37.32 0 0 0 3.45-1.69c1.17-.63 2.35-1.35 3.52-2.12s2.37-1.64 3.54-2.55l.13-.11-24.72 9c1.17.02 2.32-.03 3.46-.11z" fill="#91be4a" opacity=".9"/><path d="M91.4 181.07l12-.19a10 10 0 0 0 9.84-10.16l-.05-3.47-27.77 12.92a17.47 17.47 0 0 0 5.98.9z" fill="#009e54" opacity=".9"/></svg>