<svg xmlns="http://www.w3.org/2000/svg" width="122.68" height="200" viewBox="0 0 122.68 200"><title>_</title><path d="M33.86 70.2l-13.48-1a10 10 0 0 0-10.69 9.29l-.25 3.46 28.73-10.4a9.89 9.89 0 0 0-4.31-1.35z" fill="#00a8de" opacity=".9"/><path d="M37.36 70.11L9.95 83.61l.38 9.95 32.8-16.15a10 10 0 0 0-5.77-7.3z" fill="#0070b4" opacity=".9"/><path d="M101 69.8l-13.22-.42a10 10 0 0 0-10.31 9.68l-.1 3.2 27.85-11.36a9.89 9.89 0 0 0-4.22-1.1zM42.24 78.36a9.91 9.91 0 0 0-.24-1.43L9.75 94.1l.7 9.93.7 9.93 32.38-17.23z" fill="#333391" opacity=".9"/><path fill="#932b8d" opacity=".9" d="M42.15 96.38L10.2 114.41l.94 9.91 31.95-18.03-.94-9.91zM105.35 70.79L77.54 82.23l-.28 10 33.49-13.83a10 10 0 0 0-5.4-7.61z"/><path d="M77.68 92l-.81 19.9 33.8-13.43.4-9.95.34-8.32a9.93 9.93 0 0 0-.07-1.57zM43.43 125.4l-.83-18.27-32.81 16.42.15 3.36c.25 5.49.62 12.7.82 16l.05.46L43.5 127z" fill="#e91388" opacity=".9"/><path d="M42.07 126.14l-31.69 18.2.39 2.24c.45 2.53 1 4.93 1.56 7.13L43.12 136c-.24-2.08-.64-5.93-1.05-9.86zM77.48 119.77v2.62l33.35-14.52.08-10-33.37 14.57z" fill="#ea245f" opacity=".9"/><path d="M78.44 134.82l.05 1.48c.05 1.44 0 2.85 0 4.18a33.45 33.45 0 0 1-.39 3.67c0 .3-.11.58-.17.86l33-19.29-1.09-9.9-1.09-9.9-31.4 18.35c.49 4.63.95 9.06 1.09 10.55zM49.83 152.59a10.2 10.2 0 0 1-2.74-1.87 11.43 11.43 0 0 1-2.09-2.79 14.61 14.61 0 0 1-.92-2.14 25.22 25.22 0 0 1-.78-2.79c-.23-1.06-.43-2.22-.58-3.45l-.16-1.26c0-.29-.05-.71-.09-1.26L11 153.36v.44a55.88 55.88 0 0 0 1.89 6.55 36.48 36.48 0 0 0 2.48 5.48 33.39 33.39 0 0 0 2.81 4.25l32.8-17a11.6 11.6 0 0 1-1.15-.49z" fill="#eb2d2e" opacity=".9"/><path d="M75 145.23a18.44 18.44 0 0 1-2.74 4.48 15 15 0 0 1-3.64 3.13 17.12 17.12 0 0 1-4.7 1.94 25.49 25.49 0 0 1-5.94.73 21.45 21.45 0 0 1-4.56-.39 14.12 14.12 0 0 1-2.35-.7L17.49 169.9a30.07 30.07 0 0 0 3 3.61 29.17 29.17 0 0 0 3.79 3.28L110.59 137l-.13-10-34.72 16a22.85 22.85 0 0 1-.74 2.23z" fill="#f19432" opacity=".9"/><path d="M27 176.94a36.45 36.45 0 0 0 9.39 3.85 54 54 0 0 0 11.29 1.63c1.41.06 2.8.08 4.14 0h.48l24.48-9.6c.37-.3.74-.61 1.09-.93l.12-.11a.79.79 0 0 1 .08.53l32.78-12.86.45-9.95.45-9.95-88.48 34.75a30.31 30.31 0 0 0 3.73 2.64z" fill="#fde92b" opacity=".9"/><path d="M56.27 181.81c1.27-.06 2.52-.17 3.71-.33a35.58 35.58 0 0 0 3.5-.65 30 30 0 0 0 3.52-1.08 37.32 37.32 0 0 0 3.53-1.54c1.19-.59 2.4-1.27 3.59-2s2.42-1.56 3.62-2.43l.13-.1-25 8.15c1.13.03 2.29.03 3.4-.02zM79.16 176.88c.09 1.61 1.75 2.95 4.24 3.71l27.3-14-.55-9.94-31.34 16.07c.11.77.25 2.28.35 4.16z" fill="#91be4a" opacity=".9"/><path d="M88.22 180.28l12 1a10 10 0 0 0 10.78-9.21l.28-3.46-28.93 10.2a17.47 17.47 0 0 0 5.87 1.47z" fill="#009e54" opacity=".9"/><path d="M71.15 25.82C66.25 25.91 60.29 29 57 33l15.42-7.23z" fill="#00a8de" opacity=".9"/><path d="M72.82 26.41l-16 5.84a13.63 13.63 0 0 0-1.22 1.41l-1 1.39 22.81-8.32z" fill="#0070b4" opacity=".9"/><path fill="#333391" opacity=".9" d="M82.41 27.45l-4.53-.51-23.15 7.3-4.28 5.24 36.49-11.51-4.53-.52z"/><path d="M89.65 25.74h-3.57L51.29 41.7l-1.8 2.86 41.07-18.8c-.29-.02-.56-.03-.91-.02z" fill="#932b8d" opacity=".9"/><path d="M90.2 25.23L49.65 45.12l-3.44 5.82 48.18-23.63c-.39-1.22-1.84-2-4.19-2.08z" fill="#e91388" opacity=".9"/><path d="M43.79 49.56a10.41 10.41 0 0 0-.7 1l52.23-18.03a3.07 3.07 0 0 0 .41-2.11L45 48z" fill="#ea245f" opacity=".9"/><path d="M44.5 58.81l43.34-22.94 4-4.5a8.72 8.72 0 0 0 1.74-2.74L44.73 54.49a5.59 5.59 0 0 0-.23 4.32z" fill="#eb2d2e" opacity=".9"/><path d="M45.28 60l38.81-20.25 3.54-3.93-43.49 22.65A3.82 3.82 0 0 0 45.28 60z" fill="#f19432" opacity=".9"/><path d="M50.41 61.78l1.15-.13 25.13-14.71 6.68-8.21-37.76 22.11a6.82 6.82 0 0 0 4.8.94z" fill="#fde92b" opacity=".9"/><path fill="#91be4a" opacity=".9" d="M54.5 59.37h.01l18.88-6.53 4.08-3.38-27.51 9.52 4.54.39z"/><path d="M71.78 52.38l1-1.22L55.41 61c5.48-.53 12.84-4.41 16.37-8.62z" fill="#009e54" opacity=".9"/></svg>