<svg xmlns="http://www.w3.org/2000/svg" width="128.66" height="200" viewBox="0 0 128.66 200"><title>_</title><path d="M60.72 26.73c-5.47-.61-13.1 2.09-17 6l-1.58 1.6 22.56-7.15z" fill="#00a8de" opacity=".9"/><path d="M68.33 27.2L65 26.87l-22.49 7.45-4.69 4.89 34.81-11.54c-1.31-.16-2.77-.31-4.3-.47z" fill="#0070b4" opacity=".9"/><path d="M77 24.65a35.68 35.68 0 0 0-6 .11L38.68 42.15l-7.56 11.26 48.33-26z" fill="#333391" opacity=".9"/><path d="M79.53 28l-49 24.82-.53.73a7.35 7.35 0 0 0-1.54 3.85l53.21-26.95z" fill="#932b8d" opacity=".9"/><path d="M83.26 32.11l-2.42-2.57-52 29.14c0 2.44 2.15 3.91 5.9 3.57l.82-.08L85.31 34.3z" fill="#e91388" opacity=".9"/><path d="M86 36.36L34.44 60.77l7.78-.18L58 53.13l.27-.33a7.1 7.1 0 0 1 6.95-3.09l22.84-10.82z" fill="#ea245f" opacity=".9"/><path d="M42.72 60.81c5.33-.48 11.88-4.25 14.81-8.46L42.3 60.84zM88.92 40.44L65 48.52a7.58 7.58 0 0 1 4.21 3.33 13.25 13.25 0 0 0 1.16 1.54l22.13-7.47z" fill="#eb2d2e" opacity=".9"/><path d="M91.76 43.85L71.32 55.14a19 19 0 0 0 3 2L94 46.23z" fill="#f19432" opacity=".9"/><path d="M98.32 53.14l-3.58-5.31-21.13 7.65a24.74 24.74 0 0 0 7.76 3.92l17-6.16z" fill="#fde92b" opacity=".9"/><path d="M98.69 53.16l-17.2 5.61a17.22 17.22 0 0 0 3.54.79l3.22.33 11.63-3.79a8.33 8.33 0 0 0-1.19-2.94z" fill="#91be4a" opacity=".9"/><path d="M99.87 55.3L88.58 60l5.78.14c4.2.11 6.24-1.92 5.51-4.84z" fill="#009e54" opacity=".9"/><path d="M37 69.43l-13.52.1a10 10 0 0 0-9.96 10.07v3.47l27.84-12.64a9.89 9.89 0 0 0-4.36-1z" fill="#00a8de" opacity=".9"/><path d="M42 71.22L13.45 82l-.59 9.94L47.08 79A10 10 0 0 0 42 71.22z" fill="#0070b4" opacity=".9"/><path d="M47.27 79.78a9.91 9.91 0 0 0-.09-1.45L13.53 92.65l-.16 10-.16 10L47 98.19zM103.69 68.59L90.53 69.9a10 10 0 0 0-9 10.94l.36 3.16L108 69.13a9.89 9.89 0 0 0-4.31-.54z" fill="#333391" opacity=".9"/><path fill="#932b8d" opacity=".9" d="M45.77 96.39L13.8 114.4l.93 9.91 31.97-18-.93-9.92zM108.43 70.26L81.19 83l.19 10 32.8-15.36a10 10 0 0 0-5.75-7.38z"/><path d="M81.08 93.34l.81 19.9 32.6-16.13-.4-9.95-.34-8.32a9.93 9.93 0 0 0-.2-1.56zM47 124.62l-1.67-18.21-32 17.93.31 3.35c.5 5.48 1.21 12.66 1.57 16l.07.45 31.88-17.86z" fill="#e91388" opacity=".9"/><path d="M81.63 120.66c0 .87.08 1.75.12 2.62L114.26 107l-.46-10-32.5 16.33zM47.47 128.44L13.53 142l.07 2.27c.08 2.57.27 5 .54 7.28l33-13.17c.04-2.12.18-5.99.33-9.94z" fill="#ea245f" opacity=".9"/><path d="M81.19 133.29l-.09 1.47c-.09 1.44-.24 2.84-.44 4.16a33.45 33.45 0 0 1-.75 3.61c-.08.29-.17.56-.26.84l34.77-15.9-.1-10-.1-10-33.08 15.22c.04 4.65.06 9.11.05 10.6zM53.44 154.15a10.2 10.2 0 0 1-2.57-2.09 11.43 11.43 0 0 1-1.85-3 14.61 14.61 0 0 1-.74-2.21 25.22 25.22 0 0 1-.54-2.86 39.05 39.05 0 0 1-.29-3.49l-.06-1.27v-1.26L14.64 151.7c0 .15 0 .3.06.44a55.88 55.88 0 0 0 1.3 6.69 36.48 36.48 0 0 0 2 5.67 33.39 33.39 0 0 0 2.5 4.5l34.1-14.24a11.6 11.6 0 0 1-1.16-.61z" fill="#eb2d2e" opacity=".9"/><path d="M79.31 146.58a18.44 18.44 0 0 1-3.25 4.12 15 15 0 0 1-4 2.68 17.12 17.12 0 0 1-4.9 1.37 25.49 25.49 0 0 1-6 0 21.45 21.45 0 0 1-4.48-.93 14.12 14.12 0 0 1-2.25-1l-35.14 11.42a30.07 30.07 0 0 0 2.53 3.94 29.17 29.17 0 0 0 3.37 3.71l90.45-29.26 1.05-9.9-36.36 11.77a22.85 22.85 0 0 1-1.02 2.08z" fill="#f19432" opacity=".9"/><path d="M31 177.92a36.45 36.45 0 0 0 9.48 3.62 54 54 0 0 0 11.32 1.36c1.41 0 2.8 0 4.14-.05h.48l24.24-10.2c.36-.31.72-.62 1.07-1l.12-.11a.79.79 0 0 1 .1.53l32.46-13.65.21-10 .21-10-87.6 36.95a30.31 30.31 0 0 0 3.77 2.55z" fill="#fde92b" opacity=".9"/><path d="M82.41 176.17c0 1.61 1.62 3 4.06 3.9l27.9-12.74-.1-10L82.25 172c.08.77.14 2.32.16 4.17zM60.42 182.85c1.26-.21 2.48-.47 3.64-.77a35.58 35.58 0 0 0 3.4-1.06 30 30 0 0 0 3.33-1.48 37.32 37.32 0 0 0 3.33-1.95c1.11-.73 2.23-1.54 3.33-2.41s2.22-1.84 3.31-2.84l.12-.12L57 183.28c1.17-.11 2.32-.28 3.42-.43z" fill="#91be4a" opacity=".9"/><path d="M91.73 180.14l12 1.15a10 10 0 0 0 10.91-9l.33-3.45-29.09 9.74a17.47 17.47 0 0 0 5.85 1.56z" fill="#009e54" opacity=".9"/></svg>