<svg xmlns="http://www.w3.org/2000/svg" width="101.55" height="200" viewBox="0 0 101.55 200"><title>_</title><path d="M23.69 69.38l-13.51.17A10 10 0 0 0 .3 79.67v3.47l27.8-12.77a9.89 9.89 0 0 0-4.41-.99z" fill="#00a8de" opacity=".9"/><path d="M28.13 70.49L.26 83v10l33.38-15a10 10 0 0 0-5.51-7.51z" fill="#0070b4" opacity=".9"/><path d="M34.34 80.11a9.92 9.92 0 0 0-.07-1.45L.36 92.32 0 102.27l-.36 10 34-13.7zM91.76 70.47L78.6 69.16a10 10 0 0 0-10.94 9l-.32 3.19 28.56-9.5a9.89 9.89 0 0 0-4.14-1.38z" fill="#333391" opacity=".9"/><path fill="#932b8d" opacity=".9" d="M32.43 96.29L.59 114.51l1.01 9.91 31.84-18.23-1.01-9.9zM95.34 70.4l-27.4 12.41.06 10 33-14.94a10 10 0 0 0-5.66-7.47z"/><path d="M67.78 93.94l1.53 19.85 32-17.3-.76-9.93-.64-8.3a9.91 9.91 0 0 0-.26-1.55zM33.79 124.75l-1.54-18.22L.11 124.21l.28 3.36c.46 5.48 1.11 12.67 1.44 16l.08.43 32-17.62z" fill="#e91388" opacity=".9"/><path d="M67.63 119.37c0 .87-.06 1.75-.09 2.62l33.69-13.71.32-10L67.86 112zM32.45 126.15L.75 144.33l.39 2.24c.44 2.55 1 4.94 1.55 7.14L33.49 136c-.23-2.07-.64-5.92-1.04-9.85z" fill="#ea245f" opacity=".9"/><path d="M68.73 134.68v1.48c0 1.46 0 2.87-.06 4.18a33.48 33.48 0 0 1-.42 3.67c-.05.3-.12.57-.18.86l33.18-19-1-9.91-1-9.91-31.53 18.08c.46 4.63.89 9.07 1.01 10.55zM40.17 152.16a10.19 10.19 0 0 1-2.78-1.81 11.4 11.4 0 0 1-2.16-2.74 14.53 14.53 0 0 1-1-2.12 24.77 24.77 0 0 1-.84-2.79c-.25-1.06-.48-2.21-.66-3.44l-.15-1.26c0-.29-.07-.72-.12-1.26L1.33 153.82l.1.43a55.58 55.58 0 0 0 2 6.51 36.45 36.45 0 0 0 2.6 5.42A33.4 33.4 0 0 0 9 170.37l32.4-17.76a11.72 11.72 0 0 1-1.23-.45z" fill="#eb2d2e" opacity=".9"/><path d="M66 146.49a18.43 18.43 0 0 1-3.22 4.15l-.78.74c-1 .66-1.37.61-.92-.11s-.31-.37-1.7.77a15.26 15.26 0 0 1-4.38 2.57l-1 .14a25.48 25.48 0 0 1-6 .07 21.52 21.52 0 0 1-4.48-.89 14.16 14.16 0 0 1-2.26-1l-35.1 11.71a30.14 30.14 0 0 0 2.56 3.92 29.21 29.21 0 0 0 3.4 3.68l90.2-30 1-9.91L67 144.4a22.76 22.76 0 0 1-1 2.09z" fill="#f19432" opacity=".9"/><path d="M17 176.05a36.38 36.38 0 0 0 9.3 4.06A54 54 0 0 0 37.59 182c1.41.09 2.8.14 4.13.14h.48l24.68-9.06c.38-.29.75-.59 1.11-.9l.12-.11a.79.79 0 0 1 .07.53l33.06-12.14.67-9.93.67-9.93-89.23 32.73a30.3 30.3 0 0 0 3.65 2.72z" fill="#fde92b" opacity=".9"/><path d="M46.71 181.94c1.28-.08 2.53-.21 3.7-.39s2.36-.42 3.49-.7a30 30 0 0 0 3.47-1.12 37.26 37.26 0 0 0 3.51-1.6c1.17-.61 2.37-1.3 3.56-2.06s2.4-1.6 3.58-2.48l.13-.1L43.27 182c1.17 0 2.32 0 3.44-.06zM68.56 174.67c-.13 1.6 1.33 3.16 3.69 4.26l29-10.12.82-9.92-33.28 11.62c0 .77-.08 2.32-.23 4.16z" fill="#91be4a" opacity=".9"/><path d="M78.83 180.6l12 .51a10 10 0 0 0 10.41-9.57l.15-3.46-28.49 11.28a17.46 17.46 0 0 0 5.93 1.24z" fill="#009e54" opacity=".9"/><path d="M65.2 30.45a10 10 0 0 0-9.31 4.36l12.38-4z" fill="#00a8de" opacity=".9"/><path d="M67.64 29.8l-11.36 6.38a9.92 9.92 0 0 0-.73 2.82l17.26-9.69z" fill="#0070b4" opacity=".9"/><path d="M75 29.64l-2.21.15L55.28 39a9.94 9.94 0 0 0-.06 2v.45l.15 2.31 24.73-13a9.9 9.9 0 0 0-5.1-1.12z" fill="#333391" opacity=".9"/><path d="M80.39 31.38L55 43.09v2.31l27.33-12.59a10.09 10.09 0 0 0-1.94-1.43z" fill="#932b8d" opacity=".9"/><path d="M81.87 32.25L55.2 46.12l.14 2.31v.75a9.91 9.91 0 0 0 .22 1.49l28.83-15a10.05 10.05 0 0 0-2.52-3.42z" fill="#e91388" opacity=".9"/><path d="M85 37.05L54.9 49.29a9.88 9.88 0 0 0 .48 2.09l30.1-12.24a9.88 9.88 0 0 0-.48-2.09z" fill="#ea245f" opacity=".9"/><path d="M85.5 41.07v-.76a9.92 9.92 0 0 0-.11-1.5L55.57 51.69a10.05 10.05 0 0 0 2.32 3.6l27.59-11.91z" fill="#eb2d2e" opacity=".9"/><path d="M85.6 43.55L57.85 55.09a10.1 10.1 0 0 0 1.88 1.51l25.81-10.74z" fill="#f19432" opacity=".9"/><path d="M85.75 46.21l-26.11 10a9.9 9.9 0 0 0 5 1.66l2.19.13 18.48-7.08a9.94 9.94 0 0 0 .3-1.94v-.45z" fill="#fde92b" opacity=".9"/><path d="M72.4 58.33l11.83-5.44a9.92 9.92 0 0 0 1-2.77l-18 8.27z" fill="#91be4a" opacity=".9"/><path d="M75.49 58.35a10 10 0 0 0 8.7-5.48l-11.78 5.54z" fill="#009e54" opacity=".9"/><path d="M26 30.28a10 10 0 0 0-9.06 4.87l12.13-4.72z" fill="#00a8de" opacity=".9"/><path d="M29.08 30.26l-12 5A9.92 9.92 0 0 0 16 37.93l18.27-7.53z" fill="#0070b4" opacity=".9"/><path d="M16.14 43.4L41.22 31a9.9 9.9 0 0 0-5.1-1.19l-2.21.09-17.76 8.78a9.94 9.94 0 0 0-.12 2v.45z" fill="#333391" opacity=".9"/><path d="M16.67 46.62l26-15a10.09 10.09 0 0 0-2.06-1.25l-24.21 14z" fill="#932b8d" opacity=".9"/><path d="M15.36 46.06l-.07.75a9.91 9.91 0 0 0 0 1.51L46.09 38a10.05 10.05 0 0 0-2-3.79l-28.51 9.55z" fill="#e91388" opacity=".9"/><path d="M16.28 51.3l30.17-12.08a9.88 9.88 0 0 0-.45-2.08L15.81 49.21a9.88 9.88 0 0 0 .47 2.09z" fill="#ea245f" opacity=".9"/><path d="M19.5 56.26l26.58-14-.15-2.31-.05-.75a9.92 9.92 0 0 0-.23-1.49L16.91 52.85a10.05 10.05 0 0 0 2.59 3.41z" fill="#eb2d2e" opacity=".9"/><path d="M21 57.2l25.24-12-.06-2.31-27.12 12.9A10.1 10.1 0 0 0 21 57.2z" fill="#f19432" opacity=".9"/><path d="M25.59 57.92l2.21.08 18.44-7.19a9.94 9.94 0 0 0 .29-1.94v-.45l.11-2.31-26 10.15a9.9 9.9 0 0 0 4.95 1.66z" fill="#fde92b" opacity=".9"/><path d="M33.62 58.58l11.44-6.22a9.92 9.92 0 0 0 .77-2.82L28.44 59z" fill="#91be4a" opacity=".9"/><path d="M36.49 58.41a10 10 0 0 0 8.58-5.67l-11.66 5.8z" fill="#009e54" opacity=".9"/></svg>