<svg xmlns="http://www.w3.org/2000/svg" width="87.68" height="200" viewBox="0 0 87.68 200"><title>_</title><path d="M9.17 77.26l-4.62.33c-5.49.39-8 4.76-5.59 9.71L0 89.45l18-9.64a14.77 14.77 0 0 0-8.83-2.55z" fill="#00a8de" opacity=".9"/><path d="M23.12 87.08a14.29 14.29 0 0 0-4.62-6.34L-.43 88.48 2.71 97l20.89-8.5z" fill="#0070b4" opacity=".9"/><path fill="#333391" opacity=".9" d="M23.2 87.93L2.85 97.71l7.29 16.72 19.9-9.57-6.84-16.93zM78.56 77.11A14.93 14.93 0 0 0 66.48 88l-.63 2.86 22.1-12.94a7.44 7.44 0 0 0-5.39-1.25z"/><path d="M61 101.12l27.85-11.9.93-2.32c1.22-3.05.69-5.79-1.1-7.52L65.12 89.44zM29.52 104.87l-19.74 9.91 3.79 8.3 19.51-9.8-3.56-8.41z" fill="#932b8d" opacity=".9"/><path fill="#e91388" opacity=".9" d="M54.33 125.88l25.64-13.35 7.71-24.57-26.87 13.99-6.48 23.93zM37.88 125.86L32 113.31l-19.13 10.47L21 140.1l18.73-10.23z"/><path d="M42.47 138.36c-.6-1.3-2.19-4.6-4-8.21L20 140.8l4.26 8.07 18.2-10.49zM52.75 126.82l-3 10.33L75 124.67l4.12-12.2-25.91 12.8z" fill="#ea245f" opacity=".9"/><path d="M47.72 139.35l-.4 2-.32 1.85c-.37 2-.76 4.12-.87 4.75s-.49.48-.84-.32l-.32-.74c-.72-1.65-1.47-3.33-2.21-5l-.76-1.6-18.18 10.57 6.35 11.91 2.22 4.23 33.74-19.62c.88-3.3 1.74-6.55 2.4-9.06l4.18-15.85-24.39 14.14z" fill="#eb2d2e" opacity=".9"/><path d="M32.78 171.42l.16.43c.15.4.27.76.37 1.09s.15.54.2.77a2.77 2.77 0 0 1 .06.43l27.52-13.39c.48-1.34.77-2.18.77-2.18 1-2.75 2.24-6.42 3.5-10l-35.1 17.08c1.36 3.06 2.37 5.35 2.52 5.77z" fill="#f19432" opacity=".9"/><path d="M32.29 173.82a6.17 6.17 0 0 1-.16.7c-.09.32-.19.66-.31 1s-.28.82-.44 1.27a52.19 52.19 0 0 1-2.69 6.26 53.07 53.07 0 0 1-3.19 5.45 49.77 49.77 0 0 1-3.4 4.52l-1.1 1.3c-1.24 1.23-3.29 3.2-4.54 4.37l-1.25 1c-1.15.91-2.36 1.78-3.62 2.58s-2.33 1.42-3.51 2l-1.1.57c-1.16.5-2.62 1.13-3.24 1.38-.33.13-.18 1.42.32 3.35l46.11-25c1.79-4.29 3.6-9.13 5.5-14.69 1.4-4.11 2.76-8.42 3.54-10.95l-26.9 14.63a1.46 1.46 0 0 1-.02.26z" fill="#fde92b" opacity=".9"/><path d="M4 214.4v.13q.36 1.14.73 2.19L42 199.31a106.87 106.87 0 0 0 6.34-10.85c.47-.92.95-1.87 1.42-2.85L2.3 207.84A62.86 62.86 0 0 0 4 214.4z" fill="#91be4a" opacity=".9"/><path d="M9 224.93c.59-.17 2.32-.71 3.84-1.21l1.46-.64a46.53 46.53 0 0 0 5.26-2.73 53.88 53.88 0 0 0 5.91-4.12 58.21 58.21 0 0 0 6.14-5.69 61.06 61.06 0 0 0 7.88-10.38c.45-.74.9-1.51 1.35-2.29L5.07 218.1c1.76 4.04 3.43 6.98 3.93 6.83z" fill="#009e54" opacity=".9"/><path d="M62.37 35.4c-4.66.11-10.22 3-13.5 6.76l14.33-6.77z" fill="#00a8de" opacity=".9"/><path d="M63.47 35.83l-14.75 5.79a14 14 0 0 0-1.68 2l-.39.58L67.49 36z" fill="#0070b4" opacity=".9"/><path d="M46.87 44.83l-3 5 28.92-13.39a6.92 6.92 0 0 0-4.23-1H67.2z" fill="#333391" opacity=".9"/><path d="M42.77 53l30.71-16a3 3 0 0 0-1.1-1.28L44.14 50.46z" fill="#932b8d" opacity=".9"/><path d="M38.38 55.25L73.52 43.6a4.54 4.54 0 0 0 1.22-3.86L41.89 50.63z" fill="#e91388" opacity=".9"/><path d="M37.18 58.32l34-12.54 1.47-1.51a10.91 10.91 0 0 0 1-1.13L38.86 55.95z" fill="#ea245f" opacity=".9"/><path d="M37.14 61a9.13 9.13 0 0 0-1.25 3.38l29.89-14.09 4.82-5.89-32.78 15.41z" fill="#eb2d2e" opacity=".9"/><path d="M35.13 64.47l28.62-9.94 2.71-2.68-31.21 10.84a5.11 5.11 0 0 0-.12 1.78z" fill="#f19432" opacity=".9"/><path d="M37.5 68.09l21-8.58 5.12-5.63-28 11.46a3.81 3.81 0 0 0 1.88 2.75z" fill="#fde92b" opacity=".9"/><path d="M40.06 68.75l16-6.23c.2-.19.4-.39.59-.59l2.08-2.21L37.54 68a6.29 6.29 0 0 0 2.52.75z" fill="#91be4a" opacity=".9"/><path d="M40.79 69c4.76.12 11.42-2.8 15.22-6.61l-15.82 6.52c.2.02.4.09.6.09z" fill="#009e54" opacity=".9"/></svg>