<svg xmlns="http://www.w3.org/2000/svg" width="96.98" height="200" viewBox="0 0 96.98 200"><title>_</title><path d="M12.4 33.95H10a10 10 0 0 0-10 10v6.15l21.75-9.65a10 10 0 0 0-9.35-6.5z" fill="#00a8de" opacity=".9"/><path d="M21.95 43.33a9.89 9.89 0 0 0-.86-3.49L-.08 50.72l.71 12.62 21.81-11.21z" fill="#0070b4" opacity=".9"/><path fill="#333391" opacity=".9" d="M23.47 53.49L.49 62.05-.3 74.66l-.79 12.61 22.98-8.56 1.58-25.22z"/><path d="M41.62 78A38.51 38.51 0 0 0 32 82a37.13 37.13 0 0 0-7.76 6.08l-.63.64c-.66.75-1.28-3.13-1.37-8.63v-2L0 88.44l.21 12.64L53 76.52A49.36 49.36 0 0 0 41.62 78z" fill="#932b8d" opacity=".9"/><path d="M23.48 115.21c.2-.64.41-1.28.64-1.9a27.7 27.7 0 0 1 4-7.28 26.19 26.19 0 0 1 5.64-5.46 24.84 24.84 0 0 1 6.79-3.41 23.89 23.89 0 0 1 18.3 1.56q.6.32 1.19.69l22.47-9.73a40.17 40.17 0 0 0-11.96-8.78 39.27 39.27 0 0 0-16.66-3.82h-.45L0 100.21l-.13 12.64-.13 12.64z" fill="#e91388" opacity=".9"/><path d="M60 99.23a24.62 24.62 0 0 1 7 6.34 29.59 29.59 0 0 1 1.62 2.43l20.76-9.29a46.68 46.68 0 0 0-5.24-7.54c-.58-.68-1.18-1.32-1.79-2zM22.48 127.79c-.27-3.75-.48-6.88-.51-7.5v-.79c0-.74.12-1.53.24-2.37s.25-1.56.43-2.36l.06-.23-22.8 12.24.93 12.6z" fill="#ea245f" opacity=".9"/><path d="M68.2 108.86a34.89 34.89 0 0 1 4 7.87 44.86 44.86 0 0 1 2.62 12.8c0 .62.06 1.23.08 1.84l21.56-11.23A62.72 62.72 0 0 0 92.83 107a53 53 0 0 0-4.46-8.63zM26.19 151.83l-1.95-4.12-.56-1.22-.24-.65c-.24-.64-.45-1.31-.63-2a20.43 20.43 0 0 1-.43-2l-.1-.66c0-.67-.21-5.22-.36-10.11 0-.94-.06-1.87-.08-2.77L-.24 139l.4 12.63.4 12.63z" fill="#eb2d2e" opacity=".9"/><path d="M73.86 131.57a52 52 0 0 1-1.08 13.25c0 .15-.07.28-.1.43l23.79-12.55c0-1.54-.06-3.09-.17-4.67a73.25 73.25 0 0 0-.94-7.8zM34.25 159.06q-.84-.37-1.65-.8a23.35 23.35 0 0 1-5.87-4.43L25 152l-.38-.66L0 165.77l1.42 12.56z" fill="#f19432" opacity=".9"/><path d="M69.18 142A33 33 0 0 1 65 153.17a23.55 23.55 0 0 1-7.47 7.71 24.26 24.26 0 0 1-10.44 3.56 26 26 0 0 1-7.71-.28 24.47 24.47 0 0 1-5.34-1.65l-32.79 19.2 1.39 12.56L4 206.83l21.2-12.38-1.06-9.61c-.61-5.47-.55-9.5.13-9l.64.46a35.16 35.16 0 0 0 8 4.29 38.17 38.17 0 0 0 9.06 2.2c.9.11 1.81.17 2.72.22l42.24-24.7a51 51 0 0 0 3.81-10.42 66.12 66.12 0 0 0 1.65-19.52z" fill="#fde92b" opacity=".9"/><path d="M.54 211.29a9.89 9.89 0 0 0 .9 3.48l21-11.15L21.6 191-.07 202.5zM49.24 181.75A45.28 45.28 0 0 0 66.56 180a43.33 43.33 0 0 0 15.79-8.72 45.65 45.65 0 0 0 6.19-6.56l-46.29 15.84a44.06 44.06 0 0 0 6.99 1.19z" fill="#91be4a" opacity=".9"/></svg>