<svg xmlns="http://www.w3.org/2000/svg" width="110.35" height="200" viewBox="0 0 110.35 200"><title>_</title><path d="M28.79 70.55l-16.26-1.77c-5.47-.6-8.92 3.3-7.66 8.65L5.71 81l27.78-8.9a12.36 12.36 0 0 0-4.7-1.55z" fill="#00a8de" opacity=".9"/><path d="M31.86 69.67L6.53 84.14l4.42 9.43 29.43-16.82a14.4 14.4 0 0 0-8.52-7.08z" fill="#0070b4" opacity=".9"/><path d="M105.28 70.65l-14.94-1.34a14 14 0 0 0-13.51 8.46l-2.51 6.62 35.34-12.08a8 8 0 0 0-4.38-1.66zM40.78 78.93c-.07-.21-.15-.42-.23-.63L9.76 92.47 16.92 112l29.86-13.7z" fill="#333391" opacity=".9"/><path d="M111.63 80.17c1.43-3.41.65-6.53-1.69-8.31L75 84.92l-4.47 12.73 40-14.94zM45.76 97.48l-28.85 15.73 4.23 9.52 28.39-15.48-3.77-9.77z" fill="#932b8d" opacity=".9"/><path fill="#e91388" opacity=".9" d="M49.3 108.28l-29.2 13.88 7.39 19.47 28.25-13.42-6.44-19.93zM110.34 81.49L71.35 98.97l-7.2 25.98 36.89-16.54 9.3-26.92z"/><path d="M101.68 109.63l-37.43 15.26-2.17 6.89c-1.65 5.25-4.14 5.19-5.53-.14l-.86-3.27-29 11.8 3.14 9.93 66.69-27.18z" fill="#ea245f" opacity=".9"/><path fill="#eb2d2e" opacity=".9" d="M98.66 125.39l-68.44 22.42 4.88 20.25 51.48-16.87 12.08-25.8z"/><path d="M87 148.87l-49.56 21.9 1.17 3.34 2.27 6.49 41.4-18.3z" fill="#f19432" opacity=".9"/><path d="M40.57 181.12l1.18 2.9a8.09 8.09 0 0 1-.18 1q-.17.75-.47 1.73t-.75 2.33c-.28.82-.58 1.59-.88 2.26a17.17 17.17 0 0 1-.88 1.75 9.24 9.24 0 0 1-.85 1.23 4.57 4.57 0 0 1-.75.73 9.34 9.34 0 0 1-1 .68 10.77 10.77 0 0 1-1.17.57 12.8 12.8 0 0 1-1.35.47c-.47.14-1 .25-1.52.35s-1.16.2-1.75.28-1.2.15-1.81.2-1.22.1-1.86.12h-5c-1.7 0-2.86 4.47-2.59 10l.35 7.28v.13l53.43-27c.72-2.18.77-2.36.77-2.36 1.6-5.26 4.17-13.89 5.73-19.16l1.78-5.9z" fill="#fde92b" opacity=".9"/><path d="M20.47 225.38h1.77l44.45-23.76.35-1c1.17-3.24 2.42-7 3.71-11.24l.64-2.09-52.8 28.22c.41 5.49 1.24 9.87 1.88 9.87z" fill="#91be4a" opacity=".9"/><path d="M72.57 30.24a10 10 0 0 0-9 5l12.07-4.9z" fill="#00a8de" opacity=".9"/><path d="M75.76 30.33L63.62 35a9.92 9.92 0 0 0-1.12 2.7l18.45-7.17z" fill="#0070b4" opacity=".9"/><path d="M61.91 41.6l26.55-8.77a9.9 9.9 0 0 0-4.89-1.89l-2.2-.22-18.79 6.21a9.94 9.94 0 0 0-.39 1.92v.45z" fill="#333391" opacity=".9"/><path d="M62.54 45.32L89.91 32.9A10.09 10.09 0 0 0 88 31.45L62.52 43z" fill="#932b8d" opacity=".9"/><path d="M62.66 47.94v.75a9.91 9.91 0 0 0 .17 1.5l29.31-14a10.05 10.05 0 0 0-2.45-3.51l-27.11 13z" fill="#e91388" opacity=".9"/><path d="M62.84 51.22L93.08 39.3a9.88 9.88 0 0 0-.46-2.09L62.39 49.13a9.88 9.88 0 0 0 .45 2.09z" fill="#ea245f" opacity=".9"/><path d="M65.46 55.34L93 43.32v-3.07a9.92 9.92 0 0 0-.12-1.5l-29.78 13a10.05 10.05 0 0 0 2.36 3.59z" fill="#eb2d2e" opacity=".9"/><path d="M66.86 55.8l26.47-9 .21-2.3-28.45 9.67a10.1 10.1 0 0 0 1.77 1.63z" fill="#f19432" opacity=".9"/><path d="M71.82 57.38l2.18.25 18.87-6a9.94 9.94 0 0 0 .41-1.92l.05-.45.28-2.26L67 55.43a9.9 9.9 0 0 0 4.82 1.95z" fill="#fde92b" opacity=".9"/><path d="M79.73 58.13l12.1-4.81a9.92 9.92 0 0 0 1.1-2.71l-18.39 7.31z" fill="#91be4a" opacity=".9"/><path d="M82.94 58.25a10 10 0 0 0 8.88-5.19l-12 5.15z" fill="#009e54" opacity=".9"/><path d="M33.55 30.29a10 10 0 0 0-9.07 4.85l12.15-4.69z" fill="#00a8de" opacity=".9"/><path d="M36.12 29.81l-11.36 6.36A9.92 9.92 0 0 0 24 39l17.27-9.68z" fill="#0070b4" opacity=".9"/><path d="M23.88 43.75L48.6 30.69a9.9 9.9 0 0 0-5.13-1l-2.21.15L23.76 39a9.94 9.94 0 0 0-.06 2v.45z" fill="#333391" opacity=".9"/><path d="M22.77 43.71l28.61-9.21a10.09 10.09 0 0 0-1.75-1.66L23 41.41z" fill="#932b8d" opacity=".9"/><path d="M23.36 47.37v.75a9.91 9.91 0 0 0 .11 1.5l29.82-12.89a10.05 10.05 0 0 0-2.29-3.6L23.38 45.06z" fill="#e91388" opacity=".9"/><path d="M24.69 52.89l28.66-15.33a9.88 9.88 0 0 0-.7-2L24 50.87a9.88 9.88 0 0 0 .69 2.02z" fill="#ea245f" opacity=".9"/><path d="M27 56.19L53.65 42.3l-.14-2.3v-.75a9.92 9.92 0 0 0-.22-1.49l-28.82 15A10.05 10.05 0 0 0 27 56.19z" fill="#eb2d2e" opacity=".9"/><path d="M28.83 57.63l24.77-13-.15-2.31-26.63 13.97a10.1 10.1 0 0 0 2.01 1.34z" fill="#f19432" opacity=".9"/><path d="M33.1 57.87l2.21.13 18.48-7.1a9.94 9.94 0 0 0 .3-1.94v-.45l.12-2.31-26.11 10a9.9 9.9 0 0 0 5 1.67z" fill="#fde92b" opacity=".9"/><path d="M40.56 58l12.24-4.43a9.92 9.92 0 0 0 1.2-2.68l-18.63 6.75z" fill="#91be4a" opacity=".9"/><path d="M43.78 58.13a10 10 0 0 0 9.09-4.82L40.7 58z" fill="#009e54" opacity=".9"/></svg>